G04*
G04 #@! TF.GenerationSoftware,Altium Limited,Altium Designer,24.1.2 (44)*
G04*
G04 Layer_Color=16711935*
%FSLAX25Y25*%
%MOIN*%
G70*
G04*
G04 #@! TF.SameCoordinates,A85318EA-E4D8-42E9-B0A6-CF3BD3DAF5E5*
G04*
G04*
G04 #@! TF.FilePolarity,Positive*
G04*
G01*
G75*
%ADD11C,0.02000*%
%ADD12C,0.01000*%
%ADD13C,0.00787*%
%ADD16C,0.00394*%
%ADD56C,0.00100*%
D11*
X803665Y421578D02*
G03*
X803665Y421578I-1500J0D01*
G01*
X803665Y384232D02*
G03*
X803665Y384232I-1500J0D01*
G01*
X803665Y346626D02*
G03*
X803665Y346626I-1500J0D01*
G01*
D12*
X1051790Y560537D02*
X1059664D01*
X1051790D02*
Y565639D01*
X1059664D01*
Y560537D02*
Y565639D01*
X725394Y597752D02*
Y602854D01*
X717520D02*
X725394D01*
X717520Y597752D02*
Y602854D01*
Y597752D02*
X725394D01*
X737205Y665665D02*
Y670768D01*
X729331D02*
X737205D01*
X729331Y665665D02*
Y670768D01*
Y665665D02*
X737205D01*
X722130Y540354D02*
Y548228D01*
X717028Y540354D02*
X722130D01*
X717028D02*
Y548228D01*
X722130D01*
X817421Y547244D02*
X822524D01*
X817421Y539370D02*
Y547244D01*
Y539370D02*
X822524D01*
Y547244D01*
X912894D02*
X917996D01*
X912894Y539370D02*
Y547244D01*
Y539370D02*
X917996D01*
Y547244D01*
X1017224Y548228D02*
X1022327D01*
X1017224Y540354D02*
Y548228D01*
Y540354D02*
X1022327D01*
Y548228D01*
X762795Y560350D02*
Y565453D01*
X754921D02*
X762795D01*
X754921Y560350D02*
Y565453D01*
Y560350D02*
X762795D01*
X959646D02*
Y565453D01*
X951772D02*
X959646D01*
X951772Y560350D02*
Y565453D01*
Y560350D02*
X959646D01*
X861220D02*
Y565453D01*
X853347D02*
X861220D01*
X853347Y560350D02*
Y565453D01*
Y560350D02*
X861220D01*
D13*
X1077362Y440158D02*
X1084055D01*
X1077362D02*
Y443701D01*
X1084055D01*
Y440158D02*
Y443701D01*
X1077362Y363386D02*
X1084055D01*
X1077362D02*
Y366929D01*
X1084055D01*
Y363386D02*
Y366929D01*
X1077362Y394882D02*
X1084055D01*
X1077362D02*
Y398425D01*
X1084055D01*
Y394882D02*
Y398425D01*
X1077362Y348622D02*
X1084055D01*
X1077362D02*
Y352165D01*
X1084055D01*
Y348622D02*
Y352165D01*
X1077362Y379134D02*
X1084055D01*
X1077362D02*
Y382677D01*
X1084055D01*
Y379134D02*
Y382677D01*
X1077362Y409646D02*
X1084055D01*
X1077362D02*
Y413189D01*
X1084055D01*
Y409646D02*
Y413189D01*
X1077362Y424409D02*
X1084055D01*
X1077362D02*
Y427953D01*
X1084055D01*
Y424409D02*
Y427953D01*
D16*
X1040728Y609331D02*
X1055728D01*
Y601299D02*
Y609331D01*
X1040728Y601299D02*
X1055728D01*
X1040728D02*
Y609331D01*
X1066319D02*
X1081319D01*
Y601299D02*
Y609331D01*
X1066319Y601299D02*
X1081319D01*
X1066319D02*
Y609331D01*
D56*
X814915Y422078D02*
Y449078D01*
X736415Y422078D02*
X814915D01*
X736415D02*
Y449078D01*
X814915D01*
X814915Y384732D02*
Y411732D01*
X736415Y384732D02*
X814915D01*
X736415D02*
Y411732D01*
X814915D01*
X814915Y347126D02*
Y374126D01*
X736415Y347126D02*
X814915D01*
X736415D02*
Y374126D01*
X814915D01*
M02*
