G04*
G04 #@! TF.GenerationSoftware,Altium Limited,Altium Designer,24.1.2 (44)*
G04*
G04 Layer_Physical_Order=2*
G04 Layer_Color=16711680*
%FSLAX25Y25*%
%MOIN*%
G70*
G04*
G04 #@! TF.SameCoordinates,A85318EA-E4D8-42E9-B0A6-CF3BD3DAF5E5*
G04*
G04*
G04 #@! TF.FilePolarity,Positive*
G04*
G01*
G75*
%ADD12C,0.01000*%
%ADD24C,0.08800*%
%ADD27R,0.06102X0.06102*%
%ADD28C,0.06102*%
%ADD31C,0.03000*%
%ADD32C,0.06299*%
G04:AMPARAMS|DCode=33|XSize=62.99mil|YSize=62.99mil|CornerRadius=15.75mil|HoleSize=0mil|Usage=FLASHONLY|Rotation=0.000|XOffset=0mil|YOffset=0mil|HoleType=Round|Shape=RoundedRectangle|*
%AMROUNDEDRECTD33*
21,1,0.06299,0.03150,0,0,0.0*
21,1,0.03150,0.06299,0,0,0.0*
1,1,0.03150,0.01575,-0.01575*
1,1,0.03150,-0.01575,-0.01575*
1,1,0.03150,-0.01575,0.01575*
1,1,0.03150,0.01575,0.01575*
%
%ADD33ROUNDEDRECTD33*%
%ADD34C,0.06000*%
%ADD35R,0.06000X0.06000*%
%ADD36C,0.35000*%
G04:AMPARAMS|DCode=37|XSize=62.99mil|YSize=62.99mil|CornerRadius=15.75mil|HoleSize=0mil|Usage=FLASHONLY|Rotation=90.000|XOffset=0mil|YOffset=0mil|HoleType=Round|Shape=RoundedRectangle|*
%AMROUNDEDRECTD37*
21,1,0.06299,0.03150,0,0,90.0*
21,1,0.03150,0.06299,0,0,90.0*
1,1,0.03150,0.01575,0.01575*
1,1,0.03150,0.01575,-0.01575*
1,1,0.03150,-0.01575,-0.01575*
1,1,0.03150,-0.01575,0.01575*
%
%ADD37ROUNDEDRECTD37*%
%ADD38C,0.05000*%
%ADD39C,0.04000*%
%ADD40R,0.05512X0.09055*%
%ADD41R,0.03937X0.05906*%
%ADD42R,0.13504X0.18504*%
%ADD43R,0.09055X0.05512*%
%ADD44R,0.05906X0.03937*%
%ADD45R,0.06693X0.03740*%
%ADD46R,0.03740X0.06693*%
G04:AMPARAMS|DCode=47|XSize=43.31mil|YSize=35.43mil|CornerRadius=8.86mil|HoleSize=0mil|Usage=FLASHONLY|Rotation=0.000|XOffset=0mil|YOffset=0mil|HoleType=Round|Shape=RoundedRectangle|*
%AMROUNDEDRECTD47*
21,1,0.04331,0.01772,0,0,0.0*
21,1,0.02559,0.03543,0,0,0.0*
1,1,0.01772,0.01280,-0.00886*
1,1,0.01772,-0.01280,-0.00886*
1,1,0.01772,-0.01280,0.00886*
1,1,0.01772,0.01280,0.00886*
%
%ADD47ROUNDEDRECTD47*%
%ADD48C,0.05000*%
%ADD49R,0.38386X1.05315*%
%ADD50R,0.83661X1.03346*%
G36*
X1105315Y333661D02*
X700787D01*
Y918307D01*
X1105315D01*
Y333661D01*
D02*
G37*
%LPC*%
G36*
X1053834Y903567D02*
X1052781D01*
X1051763Y903294D01*
X1050851Y902768D01*
X1050106Y902023D01*
X1049580Y901111D01*
X1049307Y900093D01*
Y899040D01*
X1049580Y898023D01*
X1050106Y897111D01*
X1050851Y896366D01*
X1051763Y895840D01*
X1052781Y895567D01*
X1053834D01*
X1054851Y895840D01*
X1055763Y896366D01*
X1056508Y897111D01*
X1057034Y898023D01*
X1057307Y899040D01*
Y900093D01*
X1057034Y901111D01*
X1056508Y902023D01*
X1055763Y902768D01*
X1054851Y903294D01*
X1053834Y903567D01*
D02*
G37*
G36*
X1043834D02*
X1042780D01*
X1041763Y903294D01*
X1040851Y902768D01*
X1040106Y902023D01*
X1039580Y901111D01*
X1039307Y900093D01*
Y899040D01*
X1039580Y898023D01*
X1040106Y897111D01*
X1040851Y896366D01*
X1041763Y895840D01*
X1042780Y895567D01*
X1043834D01*
X1044851Y895840D01*
X1045763Y896366D01*
X1046508Y897111D01*
X1047034Y898023D01*
X1047307Y899040D01*
Y900093D01*
X1047034Y901111D01*
X1046508Y902023D01*
X1045763Y902768D01*
X1044851Y903294D01*
X1043834Y903567D01*
D02*
G37*
G36*
X1033834D02*
X1032780D01*
X1031763Y903294D01*
X1030851Y902768D01*
X1030106Y902023D01*
X1029580Y901111D01*
X1029307Y900093D01*
Y899040D01*
X1029580Y898023D01*
X1030106Y897111D01*
X1030851Y896366D01*
X1031763Y895840D01*
X1032780Y895567D01*
X1033834D01*
X1034851Y895840D01*
X1035763Y896366D01*
X1036508Y897111D01*
X1037035Y898023D01*
X1037307Y899040D01*
Y900093D01*
X1037035Y901111D01*
X1036508Y902023D01*
X1035763Y902768D01*
X1034851Y903294D01*
X1033834Y903567D01*
D02*
G37*
G36*
X1023834D02*
X1022781D01*
X1021763Y903294D01*
X1020851Y902768D01*
X1020106Y902023D01*
X1019580Y901111D01*
X1019307Y900093D01*
Y899040D01*
X1019580Y898023D01*
X1020106Y897111D01*
X1020851Y896366D01*
X1021763Y895840D01*
X1022781Y895567D01*
X1023834D01*
X1024851Y895840D01*
X1025763Y896366D01*
X1026508Y897111D01*
X1027034Y898023D01*
X1027307Y899040D01*
Y900093D01*
X1027034Y901111D01*
X1026508Y902023D01*
X1025763Y902768D01*
X1024851Y903294D01*
X1023834Y903567D01*
D02*
G37*
G36*
X1013834D02*
X1012780D01*
X1011763Y903294D01*
X1010851Y902768D01*
X1010106Y902023D01*
X1009580Y901111D01*
X1009307Y900093D01*
Y899040D01*
X1009580Y898023D01*
X1010106Y897111D01*
X1010851Y896366D01*
X1011763Y895840D01*
X1012780Y895567D01*
X1013834D01*
X1014851Y895840D01*
X1015763Y896366D01*
X1016508Y897111D01*
X1017035Y898023D01*
X1017307Y899040D01*
Y900093D01*
X1017035Y901111D01*
X1016508Y902023D01*
X1015763Y902768D01*
X1014851Y903294D01*
X1013834Y903567D01*
D02*
G37*
G36*
X1003834D02*
X1002781D01*
X1001763Y903294D01*
X1000851Y902768D01*
X1000106Y902023D01*
X999580Y901111D01*
X999307Y900093D01*
Y899040D01*
X999580Y898023D01*
X999587Y898010D01*
X974748Y873171D01*
X958256D01*
X957671Y873055D01*
X957174Y872723D01*
X936911Y852459D01*
X936579Y851963D01*
X936463Y851378D01*
Y845453D01*
X936463Y845453D01*
Y842721D01*
X936001Y842530D01*
X935763Y842768D01*
X934851Y843294D01*
X933834Y843567D01*
X932780D01*
X931763Y843294D01*
X930851Y842768D01*
X930106Y842023D01*
X929580Y841111D01*
X929307Y840094D01*
Y839040D01*
X929580Y838023D01*
X930106Y837111D01*
X930851Y836366D01*
X931763Y835839D01*
X932780Y835567D01*
X933834D01*
X934851Y835839D01*
X935763Y836366D01*
X936001Y836604D01*
X936463Y836412D01*
Y835279D01*
X920472Y819288D01*
X920368Y819132D01*
X917992D01*
X917320Y819044D01*
X916694Y818785D01*
X916156Y818372D01*
X915743Y817834D01*
X915484Y817208D01*
X915395Y816535D01*
Y813386D01*
X915484Y812714D01*
X915743Y812087D01*
X916156Y811549D01*
X916694Y811137D01*
X917320Y810877D01*
X917992Y810789D01*
X921142D01*
X921814Y810877D01*
X922440Y811137D01*
X922978Y811549D01*
X923391Y812087D01*
X923650Y812714D01*
X923739Y813386D01*
Y816535D01*
X923650Y817208D01*
X923391Y817834D01*
X923370Y817861D01*
X939074Y833564D01*
X939405Y834060D01*
X939522Y834646D01*
Y837124D01*
X940022Y837258D01*
X940106Y837111D01*
X940851Y836366D01*
X941763Y835839D01*
X942780Y835567D01*
X943834D01*
X944851Y835839D01*
X945763Y836366D01*
X946508Y837111D01*
X947034Y838023D01*
X947307Y839040D01*
Y840094D01*
X947034Y841111D01*
X946508Y842023D01*
X945763Y842768D01*
X944851Y843294D01*
X943834Y843567D01*
X942780D01*
X941763Y843294D01*
X940851Y842768D01*
X940106Y842023D01*
X940022Y841876D01*
X939522Y842010D01*
Y845453D01*
X939522Y845453D01*
Y850745D01*
X958889Y870112D01*
X975382D01*
X975967Y870229D01*
X976463Y870560D01*
X1001750Y895847D01*
X1001763Y895840D01*
X1002781Y895567D01*
X1003834D01*
X1004851Y895840D01*
X1005763Y896366D01*
X1006508Y897111D01*
X1007034Y898023D01*
X1007307Y899040D01*
Y900093D01*
X1007034Y901111D01*
X1006508Y902023D01*
X1005763Y902768D01*
X1004851Y903294D01*
X1003834Y903567D01*
D02*
G37*
G36*
X993834D02*
X992780D01*
X991763Y903294D01*
X990851Y902768D01*
X990106Y902023D01*
X989580Y901111D01*
X989307Y900093D01*
Y899040D01*
X989580Y898023D01*
X990106Y897111D01*
X990851Y896366D01*
X991763Y895840D01*
X992780Y895567D01*
X993834D01*
X994851Y895840D01*
X995763Y896366D01*
X996508Y897111D01*
X997034Y898023D01*
X997307Y899040D01*
Y900093D01*
X997034Y901111D01*
X996508Y902023D01*
X995763Y902768D01*
X994851Y903294D01*
X993834Y903567D01*
D02*
G37*
G36*
X983834D02*
X982780D01*
X981763Y903294D01*
X980851Y902768D01*
X980106Y902023D01*
X979580Y901111D01*
X979307Y900093D01*
Y899040D01*
X979580Y898023D01*
X980106Y897111D01*
X980851Y896366D01*
X981763Y895840D01*
X982780Y895567D01*
X983834D01*
X984851Y895840D01*
X985763Y896366D01*
X986508Y897111D01*
X987035Y898023D01*
X987307Y899040D01*
Y900093D01*
X987035Y901111D01*
X986508Y902023D01*
X985763Y902768D01*
X984851Y903294D01*
X983834Y903567D01*
D02*
G37*
G36*
X973834D02*
X972781D01*
X971763Y903294D01*
X970851Y902768D01*
X970106Y902023D01*
X969580Y901111D01*
X969307Y900093D01*
Y899040D01*
X969580Y898023D01*
X970106Y897111D01*
X970851Y896366D01*
X971763Y895840D01*
X972781Y895567D01*
X973834D01*
X974851Y895840D01*
X975763Y896366D01*
X976508Y897111D01*
X977034Y898023D01*
X977307Y899040D01*
Y900093D01*
X977034Y901111D01*
X976508Y902023D01*
X975763Y902768D01*
X974851Y903294D01*
X973834Y903567D01*
D02*
G37*
G36*
X933834D02*
X932780D01*
X931763Y903294D01*
X930851Y902768D01*
X930106Y902023D01*
X929580Y901111D01*
X929307Y900093D01*
Y899040D01*
X929580Y898023D01*
X930106Y897111D01*
X930851Y896366D01*
X931763Y895840D01*
X932780Y895567D01*
X933834D01*
X934851Y895840D01*
X935763Y896366D01*
X936508Y897111D01*
X937035Y898023D01*
X937307Y899040D01*
Y900093D01*
X937035Y901111D01*
X936508Y902023D01*
X935763Y902768D01*
X934851Y903294D01*
X933834Y903567D01*
D02*
G37*
G36*
X923834D02*
X922781D01*
X921763Y903294D01*
X920851Y902768D01*
X920106Y902023D01*
X919580Y901111D01*
X919307Y900093D01*
Y899040D01*
X919580Y898023D01*
X920106Y897111D01*
X920851Y896366D01*
X921763Y895840D01*
X922781Y895567D01*
X923834D01*
X924851Y895840D01*
X925763Y896366D01*
X926508Y897111D01*
X927034Y898023D01*
X927307Y899040D01*
Y900093D01*
X927034Y901111D01*
X926508Y902023D01*
X925763Y902768D01*
X924851Y903294D01*
X923834Y903567D01*
D02*
G37*
G36*
X917307D02*
X909307D01*
Y895567D01*
X917307D01*
Y903567D01*
D02*
G37*
G36*
X829150Y893717D02*
X823213D01*
Y885811D01*
X829150D01*
Y888313D01*
X835902D01*
X835920Y888221D01*
X836337Y887597D01*
X836961Y887180D01*
X837697Y887034D01*
X840256D01*
X840992Y887180D01*
X841615Y887597D01*
X842032Y888221D01*
X842179Y888957D01*
Y890728D01*
X842032Y891464D01*
X841615Y892088D01*
X840992Y892505D01*
X840256Y892651D01*
X837697D01*
X836961Y892505D01*
X836337Y892088D01*
X835920Y891464D01*
X835902Y891372D01*
X829150D01*
Y893717D01*
D02*
G37*
G36*
X731833Y866571D02*
X730766D01*
X729736Y866295D01*
X728812Y865761D01*
X728057Y865007D01*
X727524Y864083D01*
X727248Y863053D01*
Y861986D01*
X727524Y860956D01*
X728057Y860032D01*
X728812Y859278D01*
X729736Y858745D01*
X730766Y858469D01*
X731833D01*
X732863Y858745D01*
X733787Y859278D01*
X734541Y860032D01*
X735074Y860956D01*
X735350Y861986D01*
Y863053D01*
X735074Y864083D01*
X734541Y865007D01*
X733787Y865761D01*
X732863Y866295D01*
X731833Y866571D01*
D02*
G37*
G36*
X994094Y847986D02*
X970197D01*
X969612Y847870D01*
X969115Y847538D01*
X964864Y843287D01*
X964851Y843294D01*
X963834Y843567D01*
X962780D01*
X961763Y843294D01*
X960851Y842768D01*
X960106Y842023D01*
X959580Y841111D01*
X959307Y840094D01*
Y839040D01*
X959580Y838023D01*
X960106Y837111D01*
X960851Y836366D01*
X961763Y835839D01*
X962780Y835567D01*
X963834D01*
X964851Y835839D01*
X965763Y836366D01*
X966508Y837111D01*
X967035Y838023D01*
X967307Y839040D01*
Y840094D01*
X967035Y841111D01*
X967027Y841124D01*
X970830Y844927D01*
X993461D01*
X994476Y843913D01*
X994217Y843464D01*
X993834Y843567D01*
X992780D01*
X991763Y843294D01*
X990851Y842768D01*
X990106Y842023D01*
X989580Y841111D01*
X989307Y840094D01*
Y839040D01*
X989580Y838023D01*
X990106Y837111D01*
X990851Y836366D01*
X991763Y835839D01*
X992414Y835665D01*
X992501Y835225D01*
X992833Y834729D01*
X996861Y830700D01*
X996670Y830238D01*
X964799D01*
X957027Y838010D01*
X957034Y838023D01*
X957307Y839040D01*
Y840094D01*
X957034Y841111D01*
X956508Y842023D01*
X955763Y842768D01*
X954851Y843294D01*
X953834Y843567D01*
X952781D01*
X951763Y843294D01*
X950851Y842768D01*
X950106Y842023D01*
X949580Y841111D01*
X949307Y840094D01*
Y839040D01*
X949580Y838023D01*
X950106Y837111D01*
X950851Y836366D01*
X951763Y835839D01*
X952781Y835567D01*
X953834D01*
X954851Y835839D01*
X954864Y835847D01*
X963084Y827627D01*
X963580Y827296D01*
X964165Y827179D01*
X1009365D01*
X1027904Y808640D01*
Y747580D01*
X1027404Y747313D01*
X1027160Y747476D01*
X1026575Y747592D01*
X782480D01*
X781895Y747476D01*
X781399Y747144D01*
X781336Y747051D01*
X781106Y747005D01*
X780775Y746784D01*
X780554Y746453D01*
X780477Y746063D01*
Y588583D01*
X780554Y588193D01*
X780775Y587862D01*
X781106Y587641D01*
X781336Y587595D01*
X781399Y587501D01*
X781895Y587170D01*
X782480Y587053D01*
X1026575D01*
X1027160Y587170D01*
X1027656Y587501D01*
X1027988Y587997D01*
X1028104Y588583D01*
Y595134D01*
X1028604Y595341D01*
X1043153Y580793D01*
X1042962Y580331D01*
X1036598D01*
Y578727D01*
X936827D01*
Y580331D01*
X929315D01*
Y578727D01*
X827575D01*
Y580331D01*
X820063D01*
Y578727D01*
X776026D01*
X775367Y578762D01*
X774652Y578888D01*
X774057Y579086D01*
X773570Y579348D01*
X773175Y579671D01*
X772852Y580067D01*
X772590Y580553D01*
X772392Y581148D01*
X772266Y581863D01*
X772231Y582522D01*
Y668307D01*
Y750703D01*
X816883Y795355D01*
X817374Y795797D01*
X817969Y796213D01*
X818530Y796494D01*
X819059Y796653D01*
X819567Y796703D01*
X820075Y796653D01*
X820604Y796494D01*
X821165Y796213D01*
X821760Y795797D01*
X822250Y795356D01*
X825811Y791795D01*
X826542Y791234D01*
X827393Y790881D01*
X828307Y790761D01*
X939764D01*
X940678Y790881D01*
X941529Y791234D01*
X942260Y791795D01*
X961384Y810920D01*
X962035Y811094D01*
X962981Y811640D01*
X963754Y812413D01*
X964300Y813359D01*
X964583Y814414D01*
Y815507D01*
X964300Y816562D01*
X963754Y817509D01*
X962981Y818281D01*
X962035Y818827D01*
X960979Y819110D01*
X959887D01*
X958831Y818827D01*
X957885Y818281D01*
X957113Y817509D01*
X956566Y816562D01*
X956392Y815912D01*
X938301Y797822D01*
X829769D01*
X826135Y801456D01*
X825703Y801920D01*
X825151Y802610D01*
X824666Y803324D01*
X824247Y804061D01*
X823894Y804824D01*
X823604Y805613D01*
X823379Y806430D01*
X823217Y807278D01*
X823120Y808156D01*
X823097Y808790D01*
Y812776D01*
X823434Y813359D01*
X823717Y814414D01*
Y815507D01*
X823434Y816562D01*
X822887Y817509D01*
X822115Y818281D01*
X821169Y818827D01*
X820113Y819110D01*
X819021D01*
X817965Y818827D01*
X817019Y818281D01*
X816246Y817509D01*
X815700Y816562D01*
X815417Y815507D01*
Y814414D01*
X815700Y813359D01*
X816037Y812776D01*
Y808790D01*
X816014Y808156D01*
X815917Y807278D01*
X815755Y806430D01*
X815530Y805613D01*
X815240Y804824D01*
X814887Y804061D01*
X814468Y803324D01*
X813983Y802610D01*
X813431Y801920D01*
X812999Y801456D01*
X766205Y754662D01*
X765644Y753931D01*
X765291Y753079D01*
X765171Y752165D01*
Y675632D01*
X765136Y674973D01*
X765010Y674258D01*
X764811Y673663D01*
X764550Y673177D01*
X764226Y672782D01*
X763831Y672458D01*
X763345Y672196D01*
X762750Y671998D01*
X762035Y671872D01*
X761376Y671837D01*
X738795D01*
Y672063D01*
X727740D01*
Y664551D01*
X738795D01*
Y664777D01*
X761376D01*
X762035Y664742D01*
X762750Y664616D01*
X763345Y664418D01*
X763831Y664156D01*
X764226Y663833D01*
X764550Y663437D01*
X764811Y662951D01*
X765010Y662356D01*
X765136Y661641D01*
X765171Y660982D01*
Y582522D01*
X765136Y581863D01*
X765010Y581148D01*
X764811Y580553D01*
X764550Y580067D01*
X764226Y579671D01*
X763831Y579348D01*
X763345Y579086D01*
X762750Y578888D01*
X762035Y578762D01*
X761376Y578727D01*
X736221D01*
X735307Y578607D01*
X734455Y578254D01*
X734340Y578165D01*
X732268D01*
Y572228D01*
X734340D01*
X734455Y572140D01*
X735307Y571787D01*
X736221Y571667D01*
X820063D01*
Y569276D01*
X827575D01*
Y571667D01*
X929315D01*
Y569276D01*
X936827D01*
Y571667D01*
X1036598D01*
Y569276D01*
X1044110D01*
Y579182D01*
X1044572Y579374D01*
X1050170Y573775D01*
Y565435D01*
X1050200Y565287D01*
Y564128D01*
X1039370D01*
X1038785Y564011D01*
X1038289Y563680D01*
X1037752Y563144D01*
X1034858D01*
Y564878D01*
X1026165D01*
Y560167D01*
X961681D01*
X961266Y560582D01*
Y560736D01*
X961236Y560884D01*
Y566748D01*
X950181D01*
Y564128D01*
X930527D01*
Y564484D01*
X921835D01*
Y558744D01*
X930527D01*
Y561069D01*
X950181D01*
Y559236D01*
X958408D01*
X958655Y558867D01*
X958893Y558629D01*
X958702Y558167D01*
X866043D01*
X862811Y561399D01*
Y566748D01*
X851756D01*
Y564128D01*
X836039D01*
Y564484D01*
X827347D01*
Y558744D01*
X836039D01*
Y561069D01*
X851756D01*
Y559236D01*
X860648D01*
X863255Y556629D01*
X863064Y556167D01*
X769618D01*
X764386Y561399D01*
Y566748D01*
X753331D01*
Y564128D01*
X740173D01*
Y565567D01*
X732268D01*
Y565567D01*
X731807Y565662D01*
Y568323D01*
X726067D01*
Y559630D01*
X731807D01*
Y559630D01*
X732268D01*
Y559630D01*
X740173D01*
Y561069D01*
X753331D01*
Y559236D01*
X762223D01*
X767903Y553556D01*
X768399Y553225D01*
X768984Y553108D01*
X1075307D01*
X1075892Y553225D01*
X1076388Y553556D01*
X1083759Y560926D01*
X1084090Y561423D01*
X1084207Y562008D01*
Y620236D01*
X1084090Y620822D01*
X1083759Y621318D01*
X1075837Y629239D01*
X1075875Y629304D01*
X1076157Y630359D01*
Y631452D01*
X1075875Y632507D01*
X1075348Y633419D01*
Y671441D01*
X1079346D01*
Y678953D01*
X1068291D01*
Y676726D01*
X1052799D01*
X1048085Y681440D01*
X1048404Y681828D01*
X1048659Y681658D01*
X1049244Y681541D01*
X1081059D01*
X1087053Y675548D01*
Y493744D01*
X1056453Y463144D01*
X1007716D01*
X1007131Y463027D01*
X1006634Y462696D01*
X974125Y430186D01*
X972346D01*
X972326Y430259D01*
X971780Y431205D01*
X971008Y431977D01*
X970061Y432524D01*
X969006Y432806D01*
X967913D01*
X966858Y432524D01*
X965912Y431977D01*
X965139Y431205D01*
X964593Y430259D01*
X964310Y429203D01*
Y428111D01*
X964593Y427055D01*
X965139Y426109D01*
X965912Y425336D01*
X966858Y424790D01*
X966930Y424771D01*
Y422543D01*
X966858Y422524D01*
X965912Y421977D01*
X965139Y421205D01*
X964593Y420259D01*
X964310Y419203D01*
Y418111D01*
X964593Y417055D01*
X965139Y416109D01*
X965912Y415336D01*
X966858Y414790D01*
X966930Y414771D01*
Y412543D01*
X966858Y412524D01*
X965912Y411977D01*
X965139Y411205D01*
X964593Y410258D01*
X964310Y409203D01*
Y408111D01*
X964593Y407055D01*
X965139Y406109D01*
X965912Y405336D01*
X966858Y404790D01*
X966930Y404771D01*
Y402543D01*
X966858Y402524D01*
X965912Y401977D01*
X965139Y401205D01*
X964593Y400258D01*
X964310Y399203D01*
Y398111D01*
X964593Y397055D01*
X965139Y396109D01*
X965912Y395336D01*
X966858Y394790D01*
X966930Y394771D01*
Y392543D01*
X966858Y392524D01*
X965912Y391977D01*
X965139Y391205D01*
X964593Y390259D01*
X964310Y389203D01*
Y388110D01*
X964593Y387055D01*
X965139Y386109D01*
X965912Y385336D01*
X966858Y384790D01*
X966930Y384771D01*
Y382543D01*
X966858Y382524D01*
X965912Y381977D01*
X965139Y381205D01*
X964593Y380258D01*
X964310Y379203D01*
Y378111D01*
X964593Y377055D01*
X965139Y376109D01*
X965912Y375336D01*
X966858Y374790D01*
X966930Y374771D01*
Y372829D01*
X966885D01*
X966213Y372740D01*
X965586Y372481D01*
X965049Y372068D01*
X964636Y371530D01*
X964376Y370904D01*
X964288Y370232D01*
Y367082D01*
X964338Y366698D01*
X961374Y363734D01*
X950043D01*
X946866Y366911D01*
Y370685D01*
X938961D01*
Y364748D01*
X944703D01*
X948328Y361123D01*
X948824Y360792D01*
X949409Y360675D01*
X962008D01*
X962593Y360792D01*
X963089Y361123D01*
X966501Y364535D01*
X966885Y364485D01*
X970034D01*
X970707Y364574D01*
X971333Y364833D01*
X971871Y365246D01*
X972283Y365784D01*
X972543Y366410D01*
X972631Y367082D01*
Y370232D01*
X972543Y370904D01*
X972283Y371530D01*
X971871Y372068D01*
X971333Y372481D01*
X970707Y372740D01*
X970034Y372829D01*
X969989D01*
Y374771D01*
X970061Y374790D01*
X971008Y375336D01*
X971780Y376109D01*
X972326Y377055D01*
X972609Y378111D01*
Y379203D01*
X972326Y380258D01*
X971780Y381205D01*
X971008Y381977D01*
X970061Y382524D01*
X969989Y382543D01*
Y384771D01*
X970061Y384790D01*
X971008Y385336D01*
X971780Y386109D01*
X972326Y387055D01*
X972609Y388110D01*
Y389203D01*
X972326Y390259D01*
X971780Y391205D01*
X971008Y391977D01*
X970061Y392524D01*
X969989Y392543D01*
Y394771D01*
X970061Y394790D01*
X971008Y395336D01*
X971780Y396109D01*
X972326Y397055D01*
X972609Y398111D01*
Y399203D01*
X972326Y400258D01*
X971780Y401205D01*
X971008Y401977D01*
X970061Y402524D01*
X969989Y402543D01*
Y404771D01*
X970061Y404790D01*
X971008Y405336D01*
X971780Y406109D01*
X972326Y407055D01*
X972609Y408111D01*
Y409203D01*
X972326Y410258D01*
X971780Y411205D01*
X971008Y411977D01*
X970061Y412524D01*
X969989Y412543D01*
Y414771D01*
X970061Y414790D01*
X971008Y415336D01*
X971780Y416109D01*
X972326Y417055D01*
X972609Y418111D01*
Y419203D01*
X972326Y420259D01*
X971780Y421205D01*
X971008Y421977D01*
X970061Y422524D01*
X969989Y422543D01*
Y424771D01*
X970061Y424790D01*
X971008Y425336D01*
X971780Y426109D01*
X972326Y427055D01*
X972346Y427128D01*
X974759D01*
X975344Y427244D01*
X975840Y427575D01*
X976688Y428423D01*
X977150Y428232D01*
Y428076D01*
X977432Y427020D01*
X977979Y426074D01*
X978751Y425302D01*
X979698Y424755D01*
X980753Y424472D01*
X981845D01*
X982901Y424755D01*
X983847Y425302D01*
X984620Y426074D01*
X985166Y427020D01*
X985449Y428076D01*
Y429168D01*
X985166Y430224D01*
X984620Y431170D01*
X983847Y431943D01*
X982901Y432489D01*
X981845Y432772D01*
X981689D01*
X981498Y433234D01*
X1008349Y460085D01*
X1057087D01*
X1057672Y460201D01*
X1058168Y460533D01*
X1089664Y492029D01*
X1089996Y492525D01*
X1090112Y493110D01*
Y676181D01*
X1089996Y676766D01*
X1089664Y677262D01*
X1082774Y684152D01*
X1082278Y684484D01*
X1081693Y684600D01*
X1049878D01*
X1043415Y691063D01*
Y759158D01*
Y827512D01*
X1051750Y835847D01*
X1051763Y835839D01*
X1052781Y835567D01*
X1053834D01*
X1054851Y835839D01*
X1055763Y836366D01*
X1056508Y837111D01*
X1057034Y838023D01*
X1057307Y839040D01*
Y840094D01*
X1057034Y841111D01*
X1056508Y842023D01*
X1055763Y842768D01*
X1054851Y843294D01*
X1053834Y843567D01*
X1052781D01*
X1051763Y843294D01*
X1050851Y842768D01*
X1050106Y842023D01*
X1049580Y841111D01*
X1049307Y840094D01*
Y839040D01*
X1049580Y838023D01*
X1049587Y838010D01*
X1040804Y829227D01*
X1040473Y828731D01*
X1040356Y828146D01*
Y822786D01*
X1039856Y822497D01*
X1039544Y822677D01*
X1038781Y822882D01*
X1037991D01*
X1037228Y822677D01*
X1036544Y822283D01*
X1035985Y821724D01*
X1035590Y821040D01*
X1035386Y820277D01*
Y819487D01*
X1035455Y819229D01*
X1035101Y818876D01*
X1034844Y818945D01*
X1034054D01*
X1033291Y818740D01*
X1032607Y818346D01*
X1032048Y817787D01*
X1031653Y817103D01*
X1031449Y816340D01*
Y816093D01*
X1030949Y815886D01*
X1012984Y833850D01*
X1012488Y834182D01*
X1011903Y834298D01*
X1003495D01*
X1002687Y835106D01*
X1002933Y835567D01*
X1003834D01*
X1004851Y835839D01*
X1005763Y836366D01*
X1006508Y837111D01*
X1007034Y838023D01*
X1007307Y839040D01*
Y840094D01*
X1007034Y841111D01*
X1006508Y842023D01*
X1005763Y842768D01*
X1004851Y843294D01*
X1003834Y843567D01*
X1002781D01*
X1001763Y843294D01*
X1000851Y842768D01*
X1000106Y842023D01*
X1000061Y841944D01*
X999561Y842078D01*
Y842520D01*
X999444Y843105D01*
X999113Y843601D01*
X995176Y847538D01*
X994680Y847870D01*
X994094Y847986D01*
D02*
G37*
G36*
X1043834Y843567D02*
X1042780D01*
X1041763Y843294D01*
X1040851Y842768D01*
X1040106Y842023D01*
X1039580Y841111D01*
X1039307Y840094D01*
Y839040D01*
X1039580Y838023D01*
X1040106Y837111D01*
X1040851Y836366D01*
X1041763Y835839D01*
X1042780Y835567D01*
X1043834D01*
X1044851Y835839D01*
X1045763Y836366D01*
X1046508Y837111D01*
X1047034Y838023D01*
X1047307Y839040D01*
Y840094D01*
X1047034Y841111D01*
X1046508Y842023D01*
X1045763Y842768D01*
X1044851Y843294D01*
X1043834Y843567D01*
D02*
G37*
G36*
X1033834D02*
X1032780D01*
X1031763Y843294D01*
X1030851Y842768D01*
X1030106Y842023D01*
X1029580Y841111D01*
X1029307Y840094D01*
Y839040D01*
X1029580Y838023D01*
X1030106Y837111D01*
X1030851Y836366D01*
X1031763Y835839D01*
X1032780Y835567D01*
X1033834D01*
X1034851Y835839D01*
X1035763Y836366D01*
X1036508Y837111D01*
X1037035Y838023D01*
X1037307Y839040D01*
Y840094D01*
X1037035Y841111D01*
X1036508Y842023D01*
X1035763Y842768D01*
X1034851Y843294D01*
X1033834Y843567D01*
D02*
G37*
G36*
X1023834D02*
X1022781D01*
X1021763Y843294D01*
X1020851Y842768D01*
X1020106Y842023D01*
X1019580Y841111D01*
X1019307Y840094D01*
Y839040D01*
X1019580Y838023D01*
X1020106Y837111D01*
X1020851Y836366D01*
X1021763Y835839D01*
X1022781Y835567D01*
X1023834D01*
X1024851Y835839D01*
X1025763Y836366D01*
X1026508Y837111D01*
X1027034Y838023D01*
X1027307Y839040D01*
Y840094D01*
X1027034Y841111D01*
X1026508Y842023D01*
X1025763Y842768D01*
X1024851Y843294D01*
X1023834Y843567D01*
D02*
G37*
G36*
X1013834D02*
X1012780D01*
X1011763Y843294D01*
X1010851Y842768D01*
X1010106Y842023D01*
X1009580Y841111D01*
X1009307Y840094D01*
Y839040D01*
X1009580Y838023D01*
X1010106Y837111D01*
X1010851Y836366D01*
X1011763Y835839D01*
X1012780Y835567D01*
X1013834D01*
X1014851Y835839D01*
X1015763Y836366D01*
X1016508Y837111D01*
X1017035Y838023D01*
X1017307Y839040D01*
Y840094D01*
X1017035Y841111D01*
X1016508Y842023D01*
X1015763Y842768D01*
X1014851Y843294D01*
X1013834Y843567D01*
D02*
G37*
G36*
X983834D02*
X982780D01*
X981763Y843294D01*
X980851Y842768D01*
X980106Y842023D01*
X979580Y841111D01*
X979307Y840094D01*
Y839040D01*
X979580Y838023D01*
X980106Y837111D01*
X980851Y836366D01*
X981763Y835839D01*
X982780Y835567D01*
X983834D01*
X984851Y835839D01*
X985763Y836366D01*
X986508Y837111D01*
X987035Y838023D01*
X987307Y839040D01*
Y840094D01*
X987035Y841111D01*
X986508Y842023D01*
X985763Y842768D01*
X984851Y843294D01*
X983834Y843567D01*
D02*
G37*
G36*
X973834D02*
X972781D01*
X971763Y843294D01*
X970851Y842768D01*
X970106Y842023D01*
X969580Y841111D01*
X969307Y840094D01*
Y839040D01*
X969580Y838023D01*
X970106Y837111D01*
X970851Y836366D01*
X971763Y835839D01*
X972781Y835567D01*
X973834D01*
X974851Y835839D01*
X975763Y836366D01*
X976508Y837111D01*
X977034Y838023D01*
X977307Y839040D01*
Y840094D01*
X977034Y841111D01*
X976508Y842023D01*
X975763Y842768D01*
X974851Y843294D01*
X973834Y843567D01*
D02*
G37*
G36*
X923834D02*
X922781D01*
X921763Y843294D01*
X920851Y842768D01*
X920106Y842023D01*
X919580Y841111D01*
X919307Y840094D01*
Y839040D01*
X919580Y838023D01*
X920106Y837111D01*
X920851Y836366D01*
X921763Y835839D01*
X922781Y835567D01*
X923834D01*
X924851Y835839D01*
X925763Y836366D01*
X926508Y837111D01*
X927034Y838023D01*
X927307Y839040D01*
Y840094D01*
X927034Y841111D01*
X926508Y842023D01*
X925763Y842768D01*
X924851Y843294D01*
X923834Y843567D01*
D02*
G37*
G36*
X913834D02*
X912780D01*
X911763Y843294D01*
X910851Y842768D01*
X910199Y842116D01*
X845472D01*
X844497Y841922D01*
X843670Y841369D01*
X827765Y825464D01*
X827212Y824637D01*
X827018Y823661D01*
Y818280D01*
X826246Y817509D01*
X825700Y816562D01*
X825417Y815507D01*
Y814414D01*
X825700Y813359D01*
X826246Y812413D01*
X827019Y811640D01*
X827965Y811094D01*
X829021Y810811D01*
X830113D01*
X831169Y811094D01*
X832115Y811640D01*
X832887Y812413D01*
X833434Y813359D01*
X833716Y814414D01*
Y815507D01*
X833434Y816562D01*
X832887Y817509D01*
X832116Y818280D01*
Y822606D01*
X846528Y837018D01*
X910199D01*
X910851Y836366D01*
X911763Y835839D01*
X912780Y835567D01*
X913834D01*
X914851Y835839D01*
X915763Y836366D01*
X916508Y837111D01*
X917035Y838023D01*
X917307Y839040D01*
Y840094D01*
X917035Y841111D01*
X916508Y842023D01*
X915763Y842768D01*
X914851Y843294D01*
X913834Y843567D01*
D02*
G37*
G36*
X970979Y819110D02*
X969887D01*
X968831Y818827D01*
X967885Y818281D01*
X967113Y817509D01*
X966566Y816562D01*
X966284Y815507D01*
Y814414D01*
X966566Y813359D01*
X967113Y812413D01*
X967885Y811640D01*
X968831Y811094D01*
X969887Y810811D01*
X970979D01*
X972035Y811094D01*
X972981Y811640D01*
X973754Y812413D01*
X974300Y813359D01*
X974583Y814414D01*
Y815507D01*
X974300Y816562D01*
X973754Y817509D01*
X972981Y818281D01*
X972035Y818827D01*
X970979Y819110D01*
D02*
G37*
G36*
X910113D02*
X909021D01*
X907965Y818827D01*
X907019Y818281D01*
X906246Y817509D01*
X905700Y816562D01*
X905417Y815507D01*
Y814414D01*
X905700Y813359D01*
X906246Y812413D01*
X907019Y811640D01*
X907965Y811094D01*
X909021Y810811D01*
X910113D01*
X911169Y811094D01*
X912115Y811640D01*
X912887Y812413D01*
X913434Y813359D01*
X913717Y814414D01*
Y815507D01*
X913434Y816562D01*
X912887Y817509D01*
X912115Y818281D01*
X911169Y818827D01*
X910113Y819110D01*
D02*
G37*
G36*
X900113D02*
X899021D01*
X897965Y818827D01*
X897019Y818281D01*
X896246Y817509D01*
X895700Y816562D01*
X895417Y815507D01*
Y814414D01*
X895700Y813359D01*
X896246Y812413D01*
X897019Y811640D01*
X897965Y811094D01*
X899021Y810811D01*
X900113D01*
X901169Y811094D01*
X902115Y811640D01*
X902887Y812413D01*
X903434Y813359D01*
X903716Y814414D01*
Y815507D01*
X903434Y816562D01*
X902887Y817509D01*
X902115Y818281D01*
X901169Y818827D01*
X900113Y819110D01*
D02*
G37*
G36*
X890113D02*
X889021D01*
X887965Y818827D01*
X887019Y818281D01*
X886246Y817509D01*
X885700Y816562D01*
X885417Y815507D01*
Y814414D01*
X885700Y813359D01*
X886246Y812413D01*
X887019Y811640D01*
X887965Y811094D01*
X889021Y810811D01*
X890113D01*
X891169Y811094D01*
X892115Y811640D01*
X892887Y812413D01*
X893434Y813359D01*
X893717Y814414D01*
Y815507D01*
X893434Y816562D01*
X892887Y817509D01*
X892115Y818281D01*
X891169Y818827D01*
X890113Y819110D01*
D02*
G37*
G36*
X880113D02*
X879021D01*
X877965Y818827D01*
X877019Y818281D01*
X876246Y817509D01*
X875700Y816562D01*
X875417Y815507D01*
Y814414D01*
X875700Y813359D01*
X876246Y812413D01*
X877019Y811640D01*
X877965Y811094D01*
X879021Y810811D01*
X880113D01*
X881169Y811094D01*
X882115Y811640D01*
X882887Y812413D01*
X883434Y813359D01*
X883716Y814414D01*
Y815507D01*
X883434Y816562D01*
X882887Y817509D01*
X882115Y818281D01*
X881169Y818827D01*
X880113Y819110D01*
D02*
G37*
G36*
X870113D02*
X869021D01*
X867965Y818827D01*
X867019Y818281D01*
X866246Y817509D01*
X865700Y816562D01*
X865417Y815507D01*
Y814414D01*
X865700Y813359D01*
X866246Y812413D01*
X867019Y811640D01*
X867965Y811094D01*
X869021Y810811D01*
X870113D01*
X871169Y811094D01*
X872115Y811640D01*
X872887Y812413D01*
X873434Y813359D01*
X873717Y814414D01*
Y815507D01*
X873434Y816562D01*
X872887Y817509D01*
X872115Y818281D01*
X871169Y818827D01*
X870113Y819110D01*
D02*
G37*
G36*
X860113D02*
X859021D01*
X857965Y818827D01*
X857019Y818281D01*
X856246Y817509D01*
X855700Y816562D01*
X855417Y815507D01*
Y814414D01*
X855700Y813359D01*
X856246Y812413D01*
X857019Y811640D01*
X857965Y811094D01*
X859021Y810811D01*
X860113D01*
X861169Y811094D01*
X862115Y811640D01*
X862887Y812413D01*
X863434Y813359D01*
X863717Y814414D01*
Y815507D01*
X863434Y816562D01*
X862887Y817509D01*
X862115Y818281D01*
X861169Y818827D01*
X860113Y819110D01*
D02*
G37*
G36*
X850113D02*
X849021D01*
X847965Y818827D01*
X847019Y818281D01*
X846246Y817509D01*
X845700Y816562D01*
X845417Y815507D01*
Y814414D01*
X845700Y813359D01*
X846246Y812413D01*
X847019Y811640D01*
X847965Y811094D01*
X849021Y810811D01*
X850113D01*
X851169Y811094D01*
X852115Y811640D01*
X852887Y812413D01*
X853434Y813359D01*
X853716Y814414D01*
Y815507D01*
X853434Y816562D01*
X852887Y817509D01*
X852115Y818281D01*
X851169Y818827D01*
X850113Y819110D01*
D02*
G37*
G36*
X840113D02*
X839021D01*
X837965Y818827D01*
X837019Y818281D01*
X836246Y817509D01*
X835700Y816562D01*
X835417Y815507D01*
Y814414D01*
X835700Y813359D01*
X836246Y812413D01*
X837019Y811640D01*
X837965Y811094D01*
X839021Y810811D01*
X840113D01*
X841169Y811094D01*
X842115Y811640D01*
X842887Y812413D01*
X843434Y813359D01*
X843717Y814414D01*
Y815507D01*
X843434Y816562D01*
X842887Y817509D01*
X842115Y818281D01*
X841169Y818827D01*
X840113Y819110D01*
D02*
G37*
G36*
X982008Y819132D02*
X978858D01*
X978186Y819044D01*
X977560Y818785D01*
X977022Y818372D01*
X976609Y817834D01*
X976350Y817208D01*
X976261Y816535D01*
Y813386D01*
X976350Y812714D01*
X976609Y812087D01*
X977022Y811549D01*
X977560Y811137D01*
X978186Y810877D01*
X978858Y810789D01*
X982008D01*
X982680Y810877D01*
X983306Y811137D01*
X983844Y811549D01*
X984257Y812087D01*
X984516Y812714D01*
X984605Y813386D01*
Y816535D01*
X984516Y817208D01*
X984257Y817834D01*
X983844Y818372D01*
X983306Y818785D01*
X982680Y819044D01*
X982008Y819132D01*
D02*
G37*
G36*
X1070866Y912947D02*
X714567D01*
X713982Y912830D01*
X713485Y912499D01*
X706596Y905609D01*
X706264Y905113D01*
X706148Y904528D01*
Y876142D01*
X706264Y875556D01*
X706596Y875060D01*
X727542Y854114D01*
X727524Y854083D01*
X727248Y853053D01*
Y851986D01*
X727524Y850956D01*
X728057Y850032D01*
X728812Y849278D01*
X729736Y848745D01*
X730766Y848468D01*
X731833D01*
X732863Y848745D01*
X733787Y849278D01*
X734541Y850032D01*
X735074Y850956D01*
X735350Y851986D01*
Y853053D01*
X735074Y854083D01*
X734541Y855007D01*
X733787Y855761D01*
X732863Y856295D01*
X731833Y856571D01*
X730766D01*
X729736Y856295D01*
X729705Y856277D01*
X709207Y876775D01*
Y903894D01*
X715200Y909888D01*
X862250D01*
Y892601D01*
X861764Y892505D01*
X861140Y892088D01*
X860724Y891464D01*
X860577Y890728D01*
Y888957D01*
X860724Y888221D01*
X861140Y887597D01*
X861764Y887180D01*
X862500Y887034D01*
X865059D01*
X865795Y887180D01*
X866419Y887597D01*
X866835Y888221D01*
X866982Y888957D01*
Y890728D01*
X866835Y891464D01*
X866419Y892088D01*
X865795Y892505D01*
X865309Y892601D01*
Y909888D01*
X892308D01*
X892499Y909426D01*
X868461Y885388D01*
X843386D01*
X842801Y885271D01*
X842304Y884940D01*
X840016Y882651D01*
X837697D01*
X836961Y882505D01*
X836337Y882088D01*
X835920Y881464D01*
X835774Y880728D01*
Y878957D01*
X835920Y878221D01*
X836337Y877597D01*
X836961Y877180D01*
X837697Y877034D01*
X840256D01*
X840992Y877180D01*
X841615Y877597D01*
X842032Y878221D01*
X842179Y878957D01*
Y880488D01*
X844019Y882329D01*
X860700D01*
X860967Y881829D01*
X860724Y881464D01*
X860577Y880728D01*
Y878957D01*
X860724Y878221D01*
X861140Y877597D01*
X861764Y877180D01*
X862500Y877034D01*
X865059D01*
X865795Y877180D01*
X866419Y877597D01*
X866835Y878221D01*
X866862Y878353D01*
X928544D01*
X928702Y878079D01*
X929260Y877521D01*
X929944Y877126D01*
X930707Y876921D01*
X931497D01*
X932260Y877126D01*
X932944Y877521D01*
X933503Y878079D01*
X933898Y878763D01*
X934102Y879526D01*
Y880316D01*
X933898Y881079D01*
X933503Y881763D01*
X932944Y882322D01*
X932260Y882717D01*
X931497Y882921D01*
X930707D01*
X929944Y882717D01*
X929260Y882322D01*
X928702Y881763D01*
X928498Y881411D01*
X866846D01*
X866835Y881464D01*
X866592Y881829D01*
X866859Y882329D01*
X869094D01*
X869680Y882445D01*
X870176Y882777D01*
X895287Y907888D01*
X942823D01*
X949587Y901124D01*
X949580Y901111D01*
X949307Y900093D01*
Y899040D01*
X949580Y898023D01*
X950106Y897111D01*
X950851Y896366D01*
X951763Y895840D01*
X952781Y895567D01*
X953834D01*
X954851Y895840D01*
X955763Y896366D01*
X956508Y897111D01*
X957034Y898023D01*
X957307Y899040D01*
Y900093D01*
X957034Y901111D01*
X956508Y902023D01*
X955763Y902768D01*
X954851Y903294D01*
X953834Y903567D01*
X952781D01*
X951763Y903294D01*
X951750Y903287D01*
X945611Y909426D01*
X945802Y909888D01*
X1070233D01*
X1078195Y901925D01*
Y806905D01*
X1071244D01*
Y799394D01*
X1082299D01*
Y806905D01*
X1081254D01*
Y902559D01*
X1081137Y903144D01*
X1080806Y903640D01*
X1071948Y912499D01*
X1071451Y912830D01*
X1070866Y912947D01*
D02*
G37*
G36*
X1094488Y791768D02*
X1053150D01*
X1052759Y791690D01*
X1052429Y791469D01*
X1052208Y791138D01*
X1052130Y790748D01*
Y689961D01*
X1052208Y689571D01*
X1052429Y689240D01*
X1052759Y689019D01*
X1053150Y688941D01*
X1094488D01*
X1094878Y689019D01*
X1095209Y689240D01*
X1095430Y689571D01*
X1095508Y689961D01*
Y790748D01*
X1095430Y791138D01*
X1095209Y791469D01*
X1094878Y791690D01*
X1094488Y791768D01*
D02*
G37*
G36*
X754383Y791529D02*
X713044D01*
X712654Y791451D01*
X712323Y791230D01*
X712102Y790899D01*
X712025Y790509D01*
Y689722D01*
X712102Y689332D01*
X712323Y689001D01*
X712654Y688780D01*
X713044Y688702D01*
X754383D01*
X754773Y688780D01*
X755104Y689001D01*
X755325Y689332D01*
X755403Y689722D01*
Y790509D01*
X755325Y790899D01*
X755104Y791230D01*
X754773Y791451D01*
X754383Y791529D01*
D02*
G37*
G36*
X963834Y903567D02*
X962780D01*
X961763Y903294D01*
X960851Y902768D01*
X960106Y902023D01*
X959580Y901111D01*
X959307Y900093D01*
Y899040D01*
X959580Y898023D01*
X960106Y897111D01*
X960851Y896366D01*
X961763Y895840D01*
X961778Y895836D01*
Y894059D01*
X941296Y873577D01*
X777559D01*
X776974Y873460D01*
X776478Y873129D01*
X706596Y803247D01*
X706264Y802751D01*
X706148Y802165D01*
Y608268D01*
X706264Y607682D01*
X706596Y607186D01*
X714470Y599312D01*
X714966Y598981D01*
X715551Y598864D01*
X715929D01*
Y596638D01*
X726984D01*
Y599849D01*
X742110D01*
Y597819D01*
X750016D01*
Y603756D01*
X742110D01*
Y602907D01*
X726984D01*
Y604150D01*
X715929D01*
Y602832D01*
X715467Y602641D01*
X711345Y606763D01*
X711360Y606866D01*
X711567Y607248D01*
X755905D01*
X756296Y607326D01*
X756627Y607547D01*
X756847Y607877D01*
X756925Y608268D01*
Y657874D01*
X756847Y658264D01*
X756627Y658595D01*
X756296Y658816D01*
X755905Y658894D01*
X711417D01*
X711027Y658816D01*
X710696Y658595D01*
X710475Y658264D01*
X710398Y657874D01*
Y608417D01*
X710015Y608211D01*
X709912Y608195D01*
X709207Y608901D01*
Y801532D01*
X778193Y870518D01*
X941929D01*
X942514Y870634D01*
X943011Y870966D01*
X964389Y892344D01*
X964720Y892840D01*
X964837Y893425D01*
Y895836D01*
X964851Y895840D01*
X965763Y896366D01*
X966508Y897111D01*
X967035Y898023D01*
X967307Y899040D01*
Y900093D01*
X967035Y901111D01*
X966508Y902023D01*
X965763Y902768D01*
X964851Y903294D01*
X963834Y903567D01*
D02*
G37*
G36*
X858438Y525728D02*
X855625D01*
X855559Y525715D01*
X855492Y525719D01*
X852703Y525352D01*
X852640Y525331D01*
X852573Y525326D01*
X849856Y524598D01*
X849795Y524569D01*
X849730Y524555D01*
X847131Y523479D01*
X847075Y523442D01*
X847011Y523420D01*
X844575Y522014D01*
X844525Y521970D01*
X844464Y521940D01*
X842233Y520227D01*
X842189Y520177D01*
X842133Y520140D01*
X840144Y518151D01*
X840107Y518095D01*
X840056Y518050D01*
X838344Y515819D01*
X838314Y515759D01*
X838270Y515708D01*
X836863Y513272D01*
X836842Y513208D01*
X836804Y513153D01*
X835728Y510554D01*
X835715Y510488D01*
X835685Y510428D01*
X834957Y507711D01*
X834953Y507644D01*
X834931Y507580D01*
X834564Y504791D01*
X834568Y504724D01*
X834555Y504658D01*
Y501846D01*
X834568Y501780D01*
X834564Y501713D01*
X834931Y498924D01*
X834953Y498860D01*
X834957Y498793D01*
X835685Y496076D01*
X835715Y496016D01*
X835728Y495950D01*
X836804Y493351D01*
X836842Y493295D01*
X836863Y493232D01*
X838270Y490796D01*
X838314Y490745D01*
X838344Y490685D01*
X840056Y488453D01*
X840107Y488409D01*
X840144Y488353D01*
X842133Y486364D01*
X842189Y486327D01*
X842233Y486276D01*
X844464Y484564D01*
X844525Y484535D01*
X844575Y484490D01*
X847011Y483084D01*
X847075Y483062D01*
X847131Y483025D01*
X849730Y481948D01*
X849795Y481935D01*
X849856Y481906D01*
X852573Y481178D01*
X852640Y481173D01*
X852703Y481151D01*
X855492Y480784D01*
X855559Y480789D01*
X855625Y480776D01*
X858438D01*
X858504Y480789D01*
X858571Y480784D01*
X861360Y481151D01*
X861423Y481173D01*
X861490Y481178D01*
X864207Y481906D01*
X864268Y481935D01*
X864334Y481948D01*
X866932Y483025D01*
X866988Y483062D01*
X867052Y483084D01*
X869488Y484490D01*
X869538Y484535D01*
X869598Y484564D01*
X871830Y486276D01*
X871874Y486327D01*
X871930Y486364D01*
X873919Y488353D01*
X873956Y488409D01*
X874007Y488453D01*
X875719Y490685D01*
X875749Y490745D01*
X875793Y490796D01*
X877200Y493232D01*
X877221Y493295D01*
X877259Y493351D01*
X878335Y495950D01*
X878348Y496016D01*
X878378Y496076D01*
X879106Y498793D01*
X879110Y498860D01*
X879132Y498924D01*
X879499Y501713D01*
X879495Y501780D01*
X879508Y501846D01*
Y504658D01*
X879495Y504724D01*
X879499Y504791D01*
X879132Y507580D01*
X879110Y507644D01*
X879106Y507711D01*
X878378Y510428D01*
X878348Y510488D01*
X878335Y510554D01*
X877259Y513153D01*
X877221Y513208D01*
X877200Y513272D01*
X875793Y515708D01*
X875749Y515759D01*
X875719Y515819D01*
X874007Y518050D01*
X873956Y518095D01*
X873919Y518151D01*
X871930Y520140D01*
X871874Y520177D01*
X871830Y520227D01*
X869598Y521940D01*
X869538Y521970D01*
X869488Y522014D01*
X867052Y523420D01*
X866988Y523442D01*
X866932Y523479D01*
X864334Y524555D01*
X864268Y524569D01*
X864207Y524598D01*
X861490Y525326D01*
X861423Y525331D01*
X861360Y525352D01*
X858571Y525719D01*
X858504Y525715D01*
X858438Y525728D01*
D02*
G37*
G36*
X1055986Y525590D02*
X1053174D01*
X1053108Y525576D01*
X1053041Y525581D01*
X1050252Y525214D01*
X1050188Y525192D01*
X1050121Y525188D01*
X1047404Y524460D01*
X1047344Y524430D01*
X1047278Y524417D01*
X1044679Y523341D01*
X1044623Y523303D01*
X1044560Y523281D01*
X1042124Y521875D01*
X1042073Y521831D01*
X1042013Y521801D01*
X1039782Y520089D01*
X1039737Y520038D01*
X1039681Y520001D01*
X1037692Y518012D01*
X1037655Y517956D01*
X1037605Y517912D01*
X1035892Y515680D01*
X1035863Y515620D01*
X1035818Y515569D01*
X1034412Y513134D01*
X1034390Y513070D01*
X1034353Y513014D01*
X1033276Y510415D01*
X1033263Y510349D01*
X1033234Y510289D01*
X1032506Y507572D01*
X1032501Y507505D01*
X1032479Y507441D01*
X1032112Y504653D01*
X1032117Y504586D01*
X1032104Y504520D01*
Y501707D01*
X1032117Y501641D01*
X1032112Y501574D01*
X1032479Y498785D01*
X1032501Y498722D01*
X1032506Y498655D01*
X1033234Y495938D01*
X1033263Y495877D01*
X1033276Y495811D01*
X1034353Y493213D01*
X1034390Y493157D01*
X1034412Y493093D01*
X1035818Y490657D01*
X1035863Y490607D01*
X1035892Y490546D01*
X1037605Y488315D01*
X1037655Y488271D01*
X1037692Y488215D01*
X1039681Y486226D01*
X1039737Y486188D01*
X1039782Y486138D01*
X1042013Y484426D01*
X1042073Y484396D01*
X1042124Y484351D01*
X1044560Y482945D01*
X1044623Y482924D01*
X1044679Y482886D01*
X1047278Y481810D01*
X1047344Y481797D01*
X1047404Y481767D01*
X1050121Y481039D01*
X1050188Y481035D01*
X1050252Y481013D01*
X1053041Y480646D01*
X1053108Y480650D01*
X1053174Y480637D01*
X1055986D01*
X1056052Y480650D01*
X1056119Y480646D01*
X1058908Y481013D01*
X1058972Y481035D01*
X1059039Y481039D01*
X1061756Y481767D01*
X1061816Y481797D01*
X1061882Y481810D01*
X1064481Y482886D01*
X1064536Y482924D01*
X1064600Y482945D01*
X1067036Y484351D01*
X1067087Y484396D01*
X1067147Y484426D01*
X1069378Y486138D01*
X1069423Y486188D01*
X1069479Y486226D01*
X1071467Y488215D01*
X1071505Y488271D01*
X1071556Y488315D01*
X1073268Y490546D01*
X1073298Y490607D01*
X1073342Y490657D01*
X1074748Y493093D01*
X1074770Y493157D01*
X1074807Y493213D01*
X1075883Y495811D01*
X1075897Y495877D01*
X1075926Y495938D01*
X1076654Y498655D01*
X1076659Y498722D01*
X1076680Y498785D01*
X1077048Y501574D01*
X1077043Y501641D01*
X1077056Y501707D01*
Y504520D01*
X1077043Y504586D01*
X1077048Y504653D01*
X1076680Y507441D01*
X1076659Y507505D01*
X1076654Y507572D01*
X1075926Y510289D01*
X1075897Y510349D01*
X1075883Y510415D01*
X1074807Y513014D01*
X1074770Y513070D01*
X1074748Y513134D01*
X1073342Y515569D01*
X1073298Y515620D01*
X1073268Y515680D01*
X1071556Y517912D01*
X1071505Y517956D01*
X1071467Y518012D01*
X1069479Y520001D01*
X1069423Y520038D01*
X1069378Y520089D01*
X1067147Y521801D01*
X1067087Y521831D01*
X1067036Y521875D01*
X1064600Y523281D01*
X1064536Y523303D01*
X1064481Y523341D01*
X1061882Y524417D01*
X1061816Y524430D01*
X1061756Y524460D01*
X1059039Y525188D01*
X1058972Y525192D01*
X1058908Y525214D01*
X1056119Y525581D01*
X1056052Y525576D01*
X1055986Y525590D01*
D02*
G37*
G36*
X760438Y524776D02*
X757625D01*
X757559Y524762D01*
X757492Y524767D01*
X754703Y524400D01*
X754640Y524378D01*
X754573Y524374D01*
X751856Y523646D01*
X751795Y523616D01*
X751729Y523603D01*
X749131Y522526D01*
X749075Y522489D01*
X749011Y522467D01*
X746575Y521061D01*
X746525Y521017D01*
X746464Y520987D01*
X744233Y519275D01*
X744189Y519224D01*
X744133Y519187D01*
X742144Y517198D01*
X742107Y517142D01*
X742056Y517098D01*
X740344Y514866D01*
X740314Y514806D01*
X740270Y514755D01*
X738863Y512319D01*
X738842Y512256D01*
X738804Y512200D01*
X737728Y509601D01*
X737715Y509535D01*
X737685Y509475D01*
X736957Y506758D01*
X736953Y506691D01*
X736931Y506627D01*
X736564Y503839D01*
X736568Y503771D01*
X736555Y503706D01*
Y500893D01*
X736568Y500827D01*
X736564Y500760D01*
X736931Y497971D01*
X736953Y497907D01*
X736957Y497840D01*
X737685Y495123D01*
X737715Y495063D01*
X737728Y494997D01*
X738804Y492399D01*
X738842Y492343D01*
X738863Y492279D01*
X740270Y489843D01*
X740314Y489793D01*
X740344Y489732D01*
X742056Y487501D01*
X742107Y487456D01*
X742144Y487400D01*
X744133Y485412D01*
X744189Y485374D01*
X744233Y485324D01*
X746464Y483611D01*
X746525Y483582D01*
X746575Y483537D01*
X749011Y482131D01*
X749075Y482109D01*
X749131Y482072D01*
X751729Y480996D01*
X751795Y480982D01*
X751856Y480953D01*
X754573Y480225D01*
X754640Y480220D01*
X754703Y480199D01*
X757492Y479832D01*
X757559Y479836D01*
X757625Y479823D01*
X760438D01*
X760504Y479836D01*
X760571Y479832D01*
X763360Y480199D01*
X763423Y480220D01*
X763490Y480225D01*
X766207Y480953D01*
X766267Y480982D01*
X766333Y480996D01*
X768932Y482072D01*
X768988Y482109D01*
X769052Y482131D01*
X771488Y483537D01*
X771538Y483582D01*
X771598Y483611D01*
X773830Y485324D01*
X773874Y485374D01*
X773930Y485412D01*
X775919Y487400D01*
X775956Y487457D01*
X776007Y487501D01*
X777719Y489732D01*
X777749Y489793D01*
X777793Y489843D01*
X779200Y492279D01*
X779221Y492343D01*
X779259Y492399D01*
X780335Y494997D01*
X780348Y495063D01*
X780378Y495123D01*
X781106Y497840D01*
X781110Y497907D01*
X781132Y497971D01*
X781499Y500760D01*
X781495Y500827D01*
X781508Y500893D01*
Y503706D01*
X781495Y503771D01*
X781499Y503839D01*
X781132Y506627D01*
X781110Y506691D01*
X781106Y506758D01*
X780378Y509475D01*
X780348Y509535D01*
X780335Y509601D01*
X779259Y512200D01*
X779221Y512256D01*
X779200Y512319D01*
X777793Y514755D01*
X777749Y514806D01*
X777719Y514866D01*
X776007Y517098D01*
X775956Y517142D01*
X775919Y517198D01*
X773930Y519187D01*
X773874Y519224D01*
X773830Y519275D01*
X771598Y520987D01*
X771538Y521017D01*
X771488Y521061D01*
X769052Y522467D01*
X768988Y522489D01*
X768932Y522526D01*
X766333Y523603D01*
X766267Y523616D01*
X766207Y523646D01*
X763490Y524374D01*
X763423Y524378D01*
X763360Y524400D01*
X760571Y524767D01*
X760504Y524762D01*
X760438Y524776D01*
D02*
G37*
G36*
X957422Y524744D02*
X954609D01*
X954543Y524731D01*
X954476Y524735D01*
X951688Y524368D01*
X951624Y524346D01*
X951557Y524342D01*
X948840Y523614D01*
X948780Y523584D01*
X948714Y523571D01*
X946115Y522495D01*
X946059Y522458D01*
X945996Y522436D01*
X943560Y521030D01*
X943509Y520985D01*
X943449Y520956D01*
X941217Y519243D01*
X941173Y519193D01*
X941117Y519155D01*
X939128Y517166D01*
X939091Y517110D01*
X939040Y517066D01*
X937328Y514835D01*
X937298Y514774D01*
X937254Y514724D01*
X935847Y512288D01*
X935826Y512224D01*
X935789Y512168D01*
X934712Y509570D01*
X934699Y509504D01*
X934669Y509443D01*
X933941Y506727D01*
X933937Y506660D01*
X933915Y506596D01*
X933548Y503807D01*
X933553Y503740D01*
X933539Y503674D01*
Y500861D01*
X933553Y500795D01*
X933548Y500728D01*
X933915Y497940D01*
X933937Y497876D01*
X933941Y497809D01*
X934669Y495092D01*
X934699Y495032D01*
X934712Y494966D01*
X935789Y492367D01*
X935826Y492311D01*
X935847Y492247D01*
X937254Y489812D01*
X937298Y489761D01*
X937328Y489701D01*
X939040Y487469D01*
X939091Y487425D01*
X939128Y487369D01*
X941117Y485380D01*
X941173Y485343D01*
X941217Y485292D01*
X943449Y483580D01*
X943509Y483550D01*
X943560Y483506D01*
X945996Y482099D01*
X946059Y482078D01*
X946115Y482041D01*
X948714Y480964D01*
X948780Y480951D01*
X948840Y480921D01*
X951557Y480193D01*
X951624Y480189D01*
X951688Y480167D01*
X954476Y479800D01*
X954543Y479805D01*
X954609Y479791D01*
X957422D01*
X957488Y479805D01*
X957555Y479800D01*
X960344Y480167D01*
X960408Y480189D01*
X960475Y480193D01*
X963192Y480921D01*
X963252Y480951D01*
X963318Y480964D01*
X965916Y482041D01*
X965972Y482078D01*
X966036Y482099D01*
X968472Y483506D01*
X968522Y483550D01*
X968583Y483580D01*
X970814Y485292D01*
X970858Y485343D01*
X970914Y485380D01*
X972903Y487369D01*
X972941Y487425D01*
X972991Y487469D01*
X974704Y489701D01*
X974733Y489761D01*
X974778Y489812D01*
X976184Y492247D01*
X976206Y492311D01*
X976243Y492367D01*
X977319Y494966D01*
X977332Y495032D01*
X977362Y495092D01*
X978090Y497809D01*
X978095Y497876D01*
X978116Y497940D01*
X978483Y500728D01*
X978479Y500795D01*
X978492Y500861D01*
Y503674D01*
X978479Y503740D01*
X978483Y503807D01*
X978116Y506596D01*
X978095Y506660D01*
X978090Y506727D01*
X977362Y509443D01*
X977332Y509504D01*
X977319Y509570D01*
X976243Y512168D01*
X976206Y512224D01*
X976184Y512288D01*
X974778Y514724D01*
X974733Y514774D01*
X974704Y514835D01*
X972991Y517066D01*
X972941Y517110D01*
X972903Y517166D01*
X970914Y519155D01*
X970858Y519193D01*
X970814Y519243D01*
X968583Y520956D01*
X968522Y520985D01*
X968472Y521030D01*
X966036Y522436D01*
X965972Y522458D01*
X965916Y522495D01*
X963318Y523571D01*
X963252Y523584D01*
X963192Y523614D01*
X960475Y524342D01*
X960408Y524346D01*
X960344Y524368D01*
X957555Y524735D01*
X957488Y524731D01*
X957422Y524744D01*
D02*
G37*
G36*
X1084056Y452803D02*
X1083267D01*
X1082504Y452599D01*
X1081819Y452204D01*
X1081261Y451645D01*
X1080866Y450961D01*
X1080661Y450198D01*
Y449408D01*
X1080866Y448645D01*
X1081261Y447961D01*
X1081443Y447779D01*
X1079546Y445882D01*
X1074394D01*
Y437976D01*
X1080331D01*
Y442774D01*
X1080666Y442841D01*
X1081162Y443172D01*
X1084252Y446263D01*
X1084584Y446759D01*
X1084623Y446955D01*
X1084819Y447008D01*
X1085503Y447403D01*
X1086062Y447961D01*
X1086457Y448645D01*
X1086661Y449408D01*
Y450198D01*
X1086457Y450961D01*
X1086062Y451645D01*
X1085503Y452204D01*
X1084819Y452599D01*
X1084056Y452803D01*
D02*
G37*
G36*
X956211Y432806D02*
X955118D01*
X954063Y432524D01*
X953116Y431977D01*
X952344Y431205D01*
X951797Y430259D01*
X951515Y429203D01*
Y428111D01*
X951797Y427055D01*
X952344Y426109D01*
X953116Y425336D01*
X954063Y424790D01*
X955118Y424507D01*
X956211D01*
X957266Y424790D01*
X958212Y425336D01*
X958985Y426109D01*
X959531Y427055D01*
X959814Y428111D01*
Y429203D01*
X959531Y430259D01*
X958985Y431205D01*
X958212Y431977D01*
X957266Y432524D01*
X956211Y432806D01*
D02*
G37*
G36*
X1084056Y437055D02*
X1083267D01*
X1082504Y436851D01*
X1081819Y436456D01*
X1081261Y435897D01*
X1080866Y435213D01*
X1080661Y434450D01*
Y433660D01*
X1080866Y432897D01*
X1081261Y432213D01*
X1081443Y432031D01*
X1079546Y430134D01*
X1074394D01*
Y422228D01*
X1080331D01*
Y427026D01*
X1080666Y427093D01*
X1081162Y427424D01*
X1084252Y430515D01*
X1084584Y431011D01*
X1084623Y431207D01*
X1084819Y431260D01*
X1085503Y431655D01*
X1086062Y432213D01*
X1086457Y432897D01*
X1086661Y433660D01*
Y434450D01*
X1086457Y435213D01*
X1086062Y435897D01*
X1085503Y436456D01*
X1084819Y436851D01*
X1084056Y437055D01*
D02*
G37*
G36*
X956211Y422807D02*
X955118D01*
X954063Y422524D01*
X953116Y421977D01*
X952344Y421205D01*
X951797Y420259D01*
X951515Y419203D01*
Y418111D01*
X951797Y417055D01*
X952344Y416109D01*
X953116Y415336D01*
X954063Y414790D01*
X955118Y414507D01*
X956211D01*
X957266Y414790D01*
X958212Y415336D01*
X958985Y416109D01*
X959531Y417055D01*
X959814Y418111D01*
Y419203D01*
X959531Y420259D01*
X958985Y421205D01*
X958212Y421977D01*
X957266Y422524D01*
X956211Y422807D01*
D02*
G37*
G36*
X981845Y422772D02*
X980753D01*
X979698Y422489D01*
X978751Y421943D01*
X977979Y421170D01*
X977432Y420224D01*
X977150Y419168D01*
Y418076D01*
X977432Y417020D01*
X977979Y416074D01*
X978751Y415302D01*
X979698Y414755D01*
X980753Y414472D01*
X981845D01*
X982901Y414755D01*
X983847Y415302D01*
X984620Y416074D01*
X985166Y417020D01*
X985449Y418076D01*
Y419168D01*
X985166Y420224D01*
X984620Y421170D01*
X983847Y421943D01*
X982901Y422489D01*
X981845Y422772D01*
D02*
G37*
G36*
X1084056Y421307D02*
X1083267D01*
X1082504Y421103D01*
X1081819Y420708D01*
X1081261Y420149D01*
X1080866Y419465D01*
X1080661Y418702D01*
Y417912D01*
X1080866Y417149D01*
X1081261Y416465D01*
X1081443Y416283D01*
X1080744Y415584D01*
X1080331Y415370D01*
Y415370D01*
X1080331Y415370D01*
X1074394D01*
Y407465D01*
X1080331D01*
Y411410D01*
X1080830Y411509D01*
X1081326Y411841D01*
X1084252Y414767D01*
X1084584Y415263D01*
X1084623Y415459D01*
X1084819Y415512D01*
X1085503Y415906D01*
X1086062Y416465D01*
X1086457Y417149D01*
X1086661Y417912D01*
Y418702D01*
X1086457Y419465D01*
X1086062Y420149D01*
X1085503Y420708D01*
X1084819Y421103D01*
X1084056Y421307D01*
D02*
G37*
G36*
X956211Y412807D02*
X955118D01*
X954063Y412524D01*
X953116Y411977D01*
X952344Y411205D01*
X951797Y410258D01*
X951515Y409203D01*
Y408111D01*
X951797Y407055D01*
X952344Y406109D01*
X953116Y405336D01*
X954063Y404790D01*
X955118Y404507D01*
X956211D01*
X957266Y404790D01*
X958212Y405336D01*
X958985Y406109D01*
X959531Y407055D01*
X959814Y408111D01*
Y409203D01*
X959531Y410258D01*
X958985Y411205D01*
X958212Y411977D01*
X957266Y412524D01*
X956211Y412807D01*
D02*
G37*
G36*
X981845Y412772D02*
X980753D01*
X979698Y412489D01*
X978751Y411943D01*
X977979Y411170D01*
X977432Y410224D01*
X977150Y409168D01*
Y408076D01*
X977432Y407020D01*
X977979Y406074D01*
X978751Y405302D01*
X979698Y404755D01*
X980753Y404472D01*
X981845D01*
X982901Y404755D01*
X983847Y405302D01*
X984620Y406074D01*
X985166Y407020D01*
X985449Y408076D01*
Y409168D01*
X985166Y410224D01*
X984620Y411170D01*
X983847Y411943D01*
X982901Y412489D01*
X981845Y412772D01*
D02*
G37*
G36*
X956211Y402806D02*
X955118D01*
X954063Y402524D01*
X953116Y401977D01*
X952344Y401205D01*
X951797Y400258D01*
X951515Y399203D01*
Y398111D01*
X951797Y397055D01*
X952344Y396109D01*
X953116Y395336D01*
X954063Y394790D01*
X955118Y394507D01*
X956211D01*
X957266Y394790D01*
X958212Y395336D01*
X958985Y396109D01*
X959531Y397055D01*
X959814Y398111D01*
Y399203D01*
X959531Y400258D01*
X958985Y401205D01*
X958212Y401977D01*
X957266Y402524D01*
X956211Y402806D01*
D02*
G37*
G36*
X981845Y402772D02*
X980753D01*
X979698Y402489D01*
X978751Y401942D01*
X977979Y401170D01*
X977432Y400224D01*
X977150Y399168D01*
Y398076D01*
X977432Y397020D01*
X977979Y396074D01*
X978751Y395302D01*
X979698Y394755D01*
X980753Y394472D01*
X981845D01*
X982901Y394755D01*
X983847Y395302D01*
X984620Y396074D01*
X985166Y397020D01*
X985449Y398076D01*
Y399168D01*
X985166Y400224D01*
X984620Y401170D01*
X983847Y401942D01*
X982901Y402489D01*
X981845Y402772D01*
D02*
G37*
G36*
X1084056Y406543D02*
X1083267D01*
X1082504Y406339D01*
X1081819Y405944D01*
X1081261Y405385D01*
X1080866Y404701D01*
X1080661Y403938D01*
Y403148D01*
X1080866Y402385D01*
X1081261Y401701D01*
X1081443Y401519D01*
X1080744Y400820D01*
X1080331Y400606D01*
Y400606D01*
X1080331Y400606D01*
X1074394D01*
Y392701D01*
X1080331D01*
Y396646D01*
X1080830Y396745D01*
X1081326Y397077D01*
X1084252Y400003D01*
X1084584Y400499D01*
X1084623Y400695D01*
X1084819Y400748D01*
X1085503Y401143D01*
X1086062Y401701D01*
X1086457Y402385D01*
X1086661Y403148D01*
Y403938D01*
X1086457Y404701D01*
X1086062Y405385D01*
X1085503Y405944D01*
X1084819Y406339D01*
X1084056Y406543D01*
D02*
G37*
G36*
X956211Y392806D02*
X955118D01*
X954063Y392524D01*
X953116Y391977D01*
X952344Y391205D01*
X951797Y390259D01*
X951515Y389203D01*
Y388110D01*
X951797Y387055D01*
X952344Y386109D01*
X953116Y385336D01*
X954063Y384790D01*
X955118Y384507D01*
X956211D01*
X957266Y384790D01*
X958212Y385336D01*
X958985Y386109D01*
X959531Y387055D01*
X959814Y388110D01*
Y389203D01*
X959531Y390259D01*
X958985Y391205D01*
X958212Y391977D01*
X957266Y392524D01*
X956211Y392806D01*
D02*
G37*
G36*
X981845Y392772D02*
X980753D01*
X979698Y392489D01*
X978751Y391943D01*
X977979Y391170D01*
X977432Y390224D01*
X977150Y389168D01*
Y388076D01*
X977432Y387020D01*
X977979Y386074D01*
X978751Y385301D01*
X979698Y384755D01*
X980753Y384472D01*
X981845D01*
X982901Y384755D01*
X983847Y385301D01*
X984620Y386074D01*
X985166Y387020D01*
X985449Y388076D01*
Y389168D01*
X985166Y390224D01*
X984620Y391170D01*
X983847Y391943D01*
X982901Y392489D01*
X981845Y392772D01*
D02*
G37*
G36*
X1084056Y391779D02*
X1083267D01*
X1082504Y391575D01*
X1081819Y391180D01*
X1081261Y390622D01*
X1080866Y389937D01*
X1080661Y389175D01*
Y388385D01*
X1080866Y387622D01*
X1081250Y386956D01*
X1079181Y384888D01*
X1078831D01*
X1078683Y384858D01*
X1074394D01*
Y376953D01*
X1080331D01*
Y381931D01*
X1080400Y381945D01*
X1080896Y382277D01*
X1084169Y385549D01*
X1084381Y385866D01*
X1084819Y385984D01*
X1085503Y386379D01*
X1086062Y386937D01*
X1086457Y387622D01*
X1086661Y388385D01*
Y389175D01*
X1086457Y389937D01*
X1086062Y390622D01*
X1085503Y391180D01*
X1084819Y391575D01*
X1084056Y391779D01*
D02*
G37*
G36*
X956211Y382806D02*
X955118D01*
X954063Y382524D01*
X953116Y381977D01*
X952344Y381205D01*
X951797Y380258D01*
X951515Y379203D01*
Y378111D01*
X951797Y377055D01*
X952344Y376109D01*
X953116Y375336D01*
X954063Y374790D01*
X955118Y374507D01*
X956211D01*
X957266Y374790D01*
X958212Y375336D01*
X958985Y376109D01*
X959531Y377055D01*
X959814Y378111D01*
Y379203D01*
X959531Y380258D01*
X958985Y381205D01*
X958212Y381977D01*
X957266Y382524D01*
X956211Y382806D01*
D02*
G37*
G36*
X981845Y382772D02*
X980753D01*
X979698Y382489D01*
X978751Y381943D01*
X977979Y381170D01*
X977432Y380224D01*
X977150Y379168D01*
Y378076D01*
X977432Y377020D01*
X977979Y376074D01*
X978751Y375302D01*
X979698Y374755D01*
X980753Y374472D01*
X981845D01*
X982901Y374755D01*
X983847Y375302D01*
X984620Y376074D01*
X985166Y377020D01*
X985449Y378076D01*
Y379168D01*
X985166Y380224D01*
X984620Y381170D01*
X983847Y381943D01*
X982901Y382489D01*
X981845Y382772D01*
D02*
G37*
G36*
X957239Y372829D02*
X954090D01*
X953417Y372740D01*
X952791Y372481D01*
X952253Y372068D01*
X951840Y371530D01*
X951581Y370904D01*
X951493Y370232D01*
Y367082D01*
X951581Y366410D01*
X951840Y365784D01*
X952253Y365246D01*
X952791Y364833D01*
X953417Y364574D01*
X954090Y364485D01*
X957239D01*
X957911Y364574D01*
X958538Y364833D01*
X959076Y365246D01*
X959488Y365784D01*
X959748Y366410D01*
X959836Y367082D01*
Y370232D01*
X959748Y370904D01*
X959488Y371530D01*
X959076Y372068D01*
X958538Y372481D01*
X957911Y372740D01*
X957239Y372829D01*
D02*
G37*
G36*
X982874Y372794D02*
X979724D01*
X979052Y372705D01*
X978426Y372446D01*
X977888Y372033D01*
X977475Y371495D01*
X977216Y370869D01*
X977127Y370197D01*
Y367047D01*
X977216Y366375D01*
X977475Y365749D01*
X977888Y365211D01*
X978426Y364798D01*
X979052Y364539D01*
X979724Y364450D01*
X982874D01*
X983546Y364539D01*
X984173Y364798D01*
X984710Y365211D01*
X985123Y365749D01*
X985382Y366375D01*
X985471Y367047D01*
Y370197D01*
X985382Y370869D01*
X985123Y371495D01*
X984710Y372033D01*
X984173Y372446D01*
X983546Y372705D01*
X982874Y372794D01*
D02*
G37*
G36*
X1084056Y376031D02*
X1083267D01*
X1082504Y375827D01*
X1081819Y375432D01*
X1081261Y374873D01*
X1080866Y374189D01*
X1080661Y373427D01*
Y372637D01*
X1080866Y371873D01*
X1081170Y371347D01*
X1081148Y371235D01*
Y370712D01*
X1079575Y369140D01*
X1078831D01*
X1078683Y369110D01*
X1074394D01*
Y361205D01*
X1080331D01*
Y366105D01*
X1080794Y366197D01*
X1081290Y366529D01*
X1083759Y368997D01*
X1084090Y369494D01*
X1084205Y370071D01*
X1084819Y370236D01*
X1085503Y370631D01*
X1086062Y371189D01*
X1086457Y371873D01*
X1086661Y372637D01*
Y373427D01*
X1086457Y374189D01*
X1086062Y374873D01*
X1085503Y375432D01*
X1084819Y375827D01*
X1084056Y376031D01*
D02*
G37*
G36*
X1084139Y360806D02*
X1083349D01*
X1082586Y360601D01*
X1081902Y360207D01*
X1081343Y359648D01*
X1080948Y358964D01*
X1080744Y358201D01*
Y357411D01*
X1080948Y356648D01*
X1081343Y355964D01*
X1081450Y355857D01*
X1079939Y354346D01*
X1074394D01*
Y346441D01*
X1080331D01*
Y350977D01*
X1080830Y351076D01*
X1081326Y351408D01*
X1084169Y354250D01*
X1084500Y354746D01*
X1084533Y354912D01*
X1084902Y355010D01*
X1085586Y355405D01*
X1086144Y355964D01*
X1086539Y356648D01*
X1086744Y357411D01*
Y358201D01*
X1086539Y358964D01*
X1086144Y359648D01*
X1085586Y360207D01*
X1084902Y360601D01*
X1084139Y360806D01*
D02*
G37*
G36*
X871063Y455744D02*
X795276D01*
X794885Y455666D01*
X794555Y455445D01*
X789633Y450524D01*
X789412Y450193D01*
X789335Y449803D01*
Y349410D01*
X789335Y349409D01*
Y345472D01*
X789412Y345082D01*
X789633Y344752D01*
X793570Y340814D01*
X793901Y340593D01*
X794291Y340516D01*
X870079D01*
X870469Y340593D01*
X870800Y340814D01*
X874737Y344752D01*
X874958Y345082D01*
X875035Y345472D01*
Y346457D01*
X875035Y346457D01*
Y446850D01*
X875035Y446850D01*
Y451772D01*
X874958Y452162D01*
X874737Y452493D01*
X874737Y452493D01*
X871784Y455445D01*
X871784Y455445D01*
X871453Y455666D01*
X871063Y455744D01*
D02*
G37*
G36*
X750984Y461650D02*
X719488D01*
X719098Y461572D01*
X718767Y461351D01*
X703019Y445603D01*
X702798Y445272D01*
X702721Y444882D01*
Y352362D01*
X702798Y351972D01*
X703019Y351641D01*
X717783Y336877D01*
X718114Y336656D01*
X718504Y336579D01*
X750000D01*
X750390Y336656D01*
X750721Y336877D01*
X758595Y344752D01*
X758816Y345082D01*
X758894Y345472D01*
Y453740D01*
X758816Y454130D01*
X758595Y454461D01*
X751705Y461351D01*
X751374Y461572D01*
X750984Y461650D01*
D02*
G37*
%LPD*%
G36*
X822102Y808082D02*
X822208Y807126D01*
X822385Y806199D01*
X822633Y805301D01*
X822951Y804433D01*
X823340Y803594D01*
X823799Y802785D01*
X824330Y802004D01*
X824931Y801253D01*
X825603Y800531D01*
X823102Y795960D01*
X822395Y796597D01*
X821688Y797092D01*
X820981Y797445D01*
X820274Y797657D01*
X819567Y797728D01*
X818860Y797657D01*
X818153Y797445D01*
X817446Y797092D01*
X816739Y796597D01*
X816031Y795960D01*
X813531Y800531D01*
X814203Y801253D01*
X814804Y802004D01*
X815335Y802785D01*
X815794Y803594D01*
X816183Y804433D01*
X816501Y805301D01*
X816749Y806199D01*
X816926Y807126D01*
X817032Y808082D01*
X817067Y809067D01*
X822067D01*
X822102Y808082D01*
D02*
G37*
G36*
X771201Y668307D02*
X766201Y660807D01*
X766151Y661757D01*
X766001Y662607D01*
X765751Y663357D01*
X765401Y664007D01*
X764951Y664557D01*
X764401Y665007D01*
X763751Y665357D01*
X763001Y665607D01*
X762151Y665757D01*
X761201Y665807D01*
Y670807D01*
X762151Y670857D01*
X763001Y671007D01*
X763751Y671257D01*
X764401Y671607D01*
X764951Y672057D01*
X765401Y672607D01*
X765751Y673257D01*
X766001Y674007D01*
X766151Y674857D01*
X766201Y675807D01*
X771201Y668307D01*
D02*
G37*
G36*
X1051084Y674115D02*
X1051580Y673784D01*
X1052165Y673667D01*
X1068291D01*
Y671441D01*
X1072289D01*
Y635055D01*
X1071462D01*
X1070406Y634772D01*
X1069460Y634226D01*
X1068687Y633453D01*
X1068141Y632507D01*
X1067858Y631452D01*
Y630359D01*
X1068141Y629304D01*
X1068687Y628358D01*
X1069460Y627585D01*
X1070406Y627039D01*
X1071462Y626756D01*
X1072554D01*
X1073610Y627039D01*
X1073674Y627076D01*
X1081148Y619603D01*
Y562641D01*
X1074674Y556167D01*
X1070670D01*
X1070479Y556629D01*
X1073885Y560035D01*
X1074216Y560531D01*
X1074333Y561117D01*
Y578772D01*
X1074216Y579357D01*
X1073885Y579853D01*
X1069026Y584711D01*
X1068530Y585043D01*
X1067945Y585159D01*
X1048769D01*
X1034962Y598966D01*
Y655135D01*
X1035424Y655326D01*
X1058179Y632572D01*
X1058141Y632507D01*
X1057858Y631452D01*
Y630359D01*
X1058141Y629304D01*
X1058687Y628358D01*
X1059460Y627585D01*
X1060406Y627039D01*
X1061462Y626756D01*
X1062554D01*
X1063610Y627039D01*
X1064556Y627585D01*
X1065328Y628358D01*
X1065875Y629304D01*
X1066158Y630359D01*
Y631452D01*
X1065875Y632507D01*
X1065328Y633453D01*
X1064556Y634226D01*
X1063610Y634772D01*
X1062554Y635055D01*
X1061462D01*
X1060406Y634772D01*
X1060341Y634735D01*
X1036963Y658114D01*
Y687530D01*
X1037463Y687737D01*
X1051084Y674115D01*
D02*
G37*
G36*
X771251Y581747D02*
X771401Y580897D01*
X771651Y580147D01*
X772001Y579497D01*
X772451Y578947D01*
X773001Y578497D01*
X773651Y578147D01*
X774401Y577897D01*
X775251Y577747D01*
X776201Y577697D01*
X768701Y572697D01*
X761201Y577697D01*
X762151Y577747D01*
X763001Y577897D01*
X763751Y578147D01*
X764401Y578497D01*
X764951Y578947D01*
X765401Y579497D01*
X765751Y580147D01*
X766001Y580897D01*
X766151Y581747D01*
X766201Y582697D01*
X771201D01*
X771251Y581747D01*
D02*
G37*
G36*
X1069274Y577310D02*
Y562578D01*
X1066863Y560167D01*
X1061255D01*
Y566935D01*
X1053229D01*
Y574409D01*
X1053113Y574994D01*
X1052781Y575491D01*
X1048633Y579639D01*
X1048824Y580100D01*
X1066483D01*
X1069274Y577310D01*
D02*
G37*
%LPC*%
G36*
X1053583Y635077D02*
X1050433D01*
X1049761Y634989D01*
X1049135Y634729D01*
X1048597Y634317D01*
X1048184Y633779D01*
X1047925Y633152D01*
X1047836Y632480D01*
Y629331D01*
X1047925Y628659D01*
X1048184Y628032D01*
X1048597Y627494D01*
X1049135Y627082D01*
X1049761Y626822D01*
X1050045Y626785D01*
Y624031D01*
X1048606D01*
Y616126D01*
X1054543D01*
Y618549D01*
X1055693D01*
Y616126D01*
X1061630D01*
Y624031D01*
X1055693D01*
Y621608D01*
X1054543D01*
Y624031D01*
X1053104D01*
Y626734D01*
X1053583D01*
X1054255Y626822D01*
X1054881Y627082D01*
X1055419Y627494D01*
X1055832Y628032D01*
X1056091Y628659D01*
X1056180Y629331D01*
Y632480D01*
X1056091Y633152D01*
X1055832Y633779D01*
X1055419Y634317D01*
X1054881Y634729D01*
X1054255Y634989D01*
X1053583Y635077D01*
D02*
G37*
G36*
X1074228Y624031D02*
X1068291D01*
Y619273D01*
X1055863Y606844D01*
X1052371D01*
X1052013Y607464D01*
X1051362Y608116D01*
X1050564Y608576D01*
X1049673Y608815D01*
X1048752D01*
X1047862Y608576D01*
X1047064Y608116D01*
X1046412Y607464D01*
X1045951Y606666D01*
X1045713Y605776D01*
Y604854D01*
X1045951Y603964D01*
X1046412Y603166D01*
X1047064Y602514D01*
X1047862Y602053D01*
X1048752Y601815D01*
X1049673D01*
X1050564Y602053D01*
X1051362Y602514D01*
X1052013Y603166D01*
X1052371Y603786D01*
X1056496D01*
X1057081Y603902D01*
X1057578Y604234D01*
X1069470Y616126D01*
X1074228D01*
Y624031D01*
D02*
G37*
%LPD*%
G36*
X865279Y910917D02*
X865090Y910907D01*
X864919Y910877D01*
X864769Y910827D01*
X864639Y910757D01*
X864530Y910667D01*
X864439Y910557D01*
X864369Y910427D01*
X864320Y910277D01*
X864289Y910107D01*
X864279Y909917D01*
X863280D01*
X863270Y910107D01*
X863239Y910277D01*
X863190Y910427D01*
X863120Y910557D01*
X863029Y910667D01*
X862920Y910757D01*
X862790Y910827D01*
X862640Y910877D01*
X862469Y910907D01*
X862280Y910917D01*
X863780Y911917D01*
X865279Y910917D01*
D02*
G37*
G36*
X874016Y451772D02*
Y446850D01*
X790354D01*
X790354Y449803D01*
X795276Y454724D01*
X871063D01*
X874016Y451772D01*
D02*
G37*
G36*
X874016Y345472D02*
X870079Y341535D01*
X794291D01*
X790354Y345472D01*
Y349409D01*
X874016D01*
Y345472D01*
D02*
G37*
G36*
X757874Y453740D02*
Y345472D01*
X750000Y337598D01*
X718504D01*
X703740Y352362D01*
Y444882D01*
X719488Y460630D01*
X750984D01*
X757874Y453740D01*
D02*
G37*
D12*
X1051575Y630472D02*
X1052008Y630905D01*
X1051575Y620079D02*
Y630472D01*
Y620079D02*
X1058661D01*
X1056496Y605315D02*
X1071260Y620079D01*
X1049213Y605315D02*
X1056496D01*
X1082677Y562008D02*
Y620236D01*
X1073819Y629095D02*
Y673228D01*
Y629095D02*
X1082677Y620236D01*
X1035433Y657480D02*
X1062008Y630905D01*
X1062008D02*
X1062023Y630891D01*
X1035433Y657480D02*
Y814961D01*
X1041886Y690429D02*
X1049244Y683071D01*
X1041886Y690429D02*
Y759158D01*
X1034449Y815945D02*
X1035433Y814961D01*
X865409Y556638D02*
X1068324D01*
X1067496Y558638D02*
X1070803Y561945D01*
X961047Y558638D02*
X1067496D01*
X1075307Y554638D02*
X1082677Y562008D01*
X1068324Y556638D02*
X1072803Y561117D01*
X768984Y554638D02*
X1075307D01*
X957480Y562992D02*
X959736Y560736D01*
Y559949D02*
X961047Y558638D01*
X959736Y559949D02*
Y560736D01*
X760630Y562992D02*
X768984Y554638D01*
X955709Y562992D02*
X957480D01*
X859055D02*
X865409Y556638D01*
X955315Y562598D02*
X955709Y562992D01*
X1033433Y598332D02*
Y811238D01*
X1067945Y583630D02*
X1072803Y578772D01*
X1033433Y598332D02*
X1048135Y583630D01*
X1067945D01*
X1041886Y759158D02*
Y828146D01*
X1053307Y839567D01*
X1049244Y683071D02*
X1081693D01*
X1088583Y676181D01*
Y493110D02*
Y676181D01*
X1057087Y461614D02*
X1088583Y493110D01*
X1007716Y461614D02*
X1057087D01*
X974759Y428657D02*
X1007716Y461614D01*
X968460Y428657D02*
X974759D01*
X1052165Y675197D02*
X1071850D01*
X1038386Y688976D02*
X1052165Y675197D01*
X1038386Y688976D02*
Y819882D01*
X707677Y802165D02*
X777559Y872047D01*
X941929D02*
X963307Y893425D01*
X777559Y872047D02*
X941929D01*
X963307Y893425D02*
Y899567D01*
X863780Y911417D02*
X1070866D01*
X1079724Y902559D01*
X958256Y871642D02*
X975382D01*
X937992Y851378D02*
X958256Y871642D01*
X975382D02*
X1003307Y899567D01*
X707677Y608268D02*
Y802165D01*
X921553Y816947D02*
Y818207D01*
X919567Y814961D02*
X921553Y816947D01*
Y818207D02*
X937992Y834646D01*
Y845453D01*
X937992Y845453D01*
Y851378D01*
X863819Y879882D02*
X931063D01*
X931102Y879921D01*
X863780Y879842D02*
X863819Y879882D01*
X714567Y911417D02*
X863780D01*
X707677Y876142D02*
Y904528D01*
X714567Y911417D01*
X943457Y909417D02*
X953307Y899567D01*
X894654Y909417D02*
X943457D01*
X869094Y883858D02*
X894654Y909417D01*
X843386Y883858D02*
X869094D01*
X839370Y879842D02*
X843386Y883858D01*
X838976Y879842D02*
X839370D01*
X863780Y889843D02*
Y911417D01*
X826260Y889843D02*
X838976D01*
X826181Y889764D02*
X826260Y889843D01*
X1079724Y805406D02*
Y902559D01*
X1076772Y803150D02*
X1077468D01*
X1079724Y805406D01*
X707677Y876142D02*
X731299Y852520D01*
X1071850Y675197D02*
X1073819Y673228D01*
X1071850Y675197D02*
X1073819D01*
X1011903Y832769D02*
X1033433Y811238D01*
X1031433Y597504D02*
Y810102D01*
X1029433Y596675D02*
X1051700Y574409D01*
X1010827Y830709D02*
X1031433Y810102D01*
X1009998Y828709D02*
X1029433Y809274D01*
Y596675D02*
Y809274D01*
X1031433Y597504D02*
X1047307Y581630D01*
X994094Y846457D02*
X998032Y842520D01*
Y837598D02*
Y842520D01*
X970197Y846457D02*
X994094D01*
X963307Y839567D02*
X970197Y846457D01*
X998032Y837598D02*
X1002861Y832769D01*
X1011903D01*
X993914Y835810D02*
X999016Y830709D01*
X964165Y828709D02*
X1009998D01*
X999016Y830709D02*
X1010827D01*
X953307Y839567D02*
X964165Y828709D01*
X993307Y839567D02*
X993914Y838960D01*
Y835810D02*
Y838960D01*
X707677Y608268D02*
X715551Y600394D01*
X721457D01*
X935039Y562598D02*
X955315D01*
X927165D02*
X935039D01*
X926181Y561614D02*
X927165Y562598D01*
X1030512Y561614D02*
X1038386D01*
X1039370Y562598D01*
X1054528D02*
X1055118Y562008D01*
X1056008Y562898D01*
X1067117Y581630D02*
X1070803Y577943D01*
X1047307Y581630D02*
X1067117D01*
X1072803Y561117D02*
Y578772D01*
X1070803Y561945D02*
Y577943D01*
X758858Y562992D02*
X760630D01*
X857283D02*
X859055D01*
X730307Y562598D02*
X736221D01*
X758465D01*
X728937Y563969D02*
X730307Y562598D01*
X728937Y563969D02*
Y563976D01*
X832677Y562598D02*
X840551D01*
X1051700Y565435D02*
X1053955Y563179D01*
X1051700Y565435D02*
Y574409D01*
X1053955Y563179D02*
X1055727D01*
X856890Y562598D02*
X857283Y562992D01*
X840551Y562598D02*
X856890D01*
X758465D02*
X758858Y562992D01*
X1083744Y356994D02*
Y357806D01*
X1083087Y355331D02*
Y356338D01*
X1080245Y352489D02*
X1083087Y355331D01*
Y356338D02*
X1083744Y356994D01*
X943898Y367717D02*
X949409Y362205D01*
X962008D01*
X942913Y367717D02*
X943898D01*
X962008Y362205D02*
X968460Y368657D01*
X968460D02*
Y398657D01*
X722441Y601378D02*
X745472D01*
X1077362Y350394D02*
Y351021D01*
X1078831Y352489D01*
X1080245D01*
X1080209Y367610D02*
X1082677Y370079D01*
Y371235D01*
X1083661Y372220D01*
Y373031D01*
X1078831Y367610D02*
X1080209D01*
X1077362Y366142D02*
X1078831Y367610D01*
X1077362Y365158D02*
Y366142D01*
X1078831Y383358D02*
X1079815D01*
X1083087Y386631D01*
Y388206D01*
X1083661Y388779D01*
X1077362Y381890D02*
X1078831Y383358D01*
X1077362Y380906D02*
Y381890D01*
X1080080Y444254D02*
X1083171Y447344D01*
Y449312D02*
X1083661Y449803D01*
X1083171Y447344D02*
Y449312D01*
X1077362Y442785D02*
X1078831Y444254D01*
X1080080D01*
X1077362Y441929D02*
Y442785D01*
X1078831Y428506D02*
X1080080D01*
X1083171Y431596D01*
Y433565D01*
X1077756Y426181D02*
Y427431D01*
X1078831Y428506D01*
X1083171Y433565D02*
X1083661Y434055D01*
X1077362Y411454D02*
X1078831Y412922D01*
X1083171Y415848D02*
Y417816D01*
X1077362Y411417D02*
Y411454D01*
X1078831Y412922D02*
X1080245D01*
X1083171Y415848D01*
Y417816D02*
X1083661Y418307D01*
X1078831Y398158D02*
X1080245D01*
X1083171Y401084D02*
Y403053D01*
X1083661Y403543D01*
X1077362Y396654D02*
Y396690D01*
X1078831Y398158D01*
X1080245D02*
X1083171Y401084D01*
X968460Y418657D02*
Y428657D01*
Y398657D02*
Y408657D01*
Y418657D01*
X1039370Y562598D02*
X1054528D01*
D24*
X749165Y442078D02*
D03*
Y429078D02*
D03*
X802165Y442078D02*
D03*
Y429078D02*
D03*
X749165Y404732D02*
D03*
Y391732D02*
D03*
X802165Y404732D02*
D03*
Y391732D02*
D03*
X749165Y367126D02*
D03*
Y354126D02*
D03*
X802165Y367126D02*
D03*
Y354126D02*
D03*
D27*
X731299Y872520D02*
D03*
D28*
Y862520D02*
D03*
Y852520D02*
D03*
Y842520D02*
D03*
D31*
X845472Y839567D02*
X913307D01*
X829567Y823661D02*
X845472Y839567D01*
X829567Y814961D02*
Y823661D01*
D32*
X1072008Y630905D02*
D03*
X1062008D02*
D03*
X981299Y428622D02*
D03*
Y418622D02*
D03*
Y398622D02*
D03*
Y378622D02*
D03*
Y388622D02*
D03*
Y408622D02*
D03*
X968460Y428657D02*
D03*
Y418657D02*
D03*
Y398657D02*
D03*
Y378657D02*
D03*
Y388657D02*
D03*
Y408657D02*
D03*
X955664Y428657D02*
D03*
Y418657D02*
D03*
Y398657D02*
D03*
Y378657D02*
D03*
Y388657D02*
D03*
Y408657D02*
D03*
X809567Y814961D02*
D03*
X819567D02*
D03*
X829567D02*
D03*
X849567D02*
D03*
X859567D02*
D03*
X879567D02*
D03*
X899567D02*
D03*
X909567D02*
D03*
X889567D02*
D03*
X869567D02*
D03*
X839567D02*
D03*
X970433D02*
D03*
X960433D02*
D03*
X950433D02*
D03*
D33*
X1052008Y630905D02*
D03*
X919567Y814961D02*
D03*
X980433D02*
D03*
D34*
X1053307Y839567D02*
D03*
X1043307D02*
D03*
X1023307D02*
D03*
X1013307D02*
D03*
X1033307D02*
D03*
X1003307D02*
D03*
X993307D02*
D03*
X983307D02*
D03*
X973307D02*
D03*
X963307D02*
D03*
X953307D02*
D03*
X943307D02*
D03*
X933307D02*
D03*
X923307D02*
D03*
X1053307Y899567D02*
D03*
X1043307D02*
D03*
X913307Y839567D02*
D03*
X923307Y899567D02*
D03*
X933307D02*
D03*
X943307D02*
D03*
X953307D02*
D03*
X963307D02*
D03*
X973307D02*
D03*
X983307D02*
D03*
X993307D02*
D03*
X1003307D02*
D03*
X1013307D02*
D03*
X1023307D02*
D03*
X1033307D02*
D03*
D35*
X913307D02*
D03*
D36*
X850835Y371709D02*
D03*
X894142D02*
D03*
X850886Y423972D02*
D03*
X894193D02*
D03*
D37*
X981299Y368622D02*
D03*
X968460Y368657D02*
D03*
X955664D02*
D03*
D38*
X1073819Y604331D02*
D03*
X1049213Y605315D02*
D03*
D39*
X1034449Y815945D02*
D03*
X1038386Y819882D02*
D03*
X931102Y879921D02*
D03*
X1083744Y357806D02*
D03*
X1083661Y373031D02*
D03*
Y388779D02*
D03*
Y403543D02*
D03*
Y418307D02*
D03*
Y434055D02*
D03*
Y449803D02*
D03*
D40*
X823819Y574803D02*
D03*
X933071D02*
D03*
X1040354D02*
D03*
X719488Y544291D02*
D03*
X819882Y543307D02*
D03*
X915354D02*
D03*
X1019685Y544291D02*
D03*
D41*
X1058661Y620079D02*
D03*
X1071260D02*
D03*
X1038976D02*
D03*
X1051575D02*
D03*
X1089961Y441929D02*
D03*
X1077362D02*
D03*
X1089961Y350394D02*
D03*
X1077362D02*
D03*
X1089961Y365158D02*
D03*
X1077362D02*
D03*
X1089961Y380906D02*
D03*
X1077362D02*
D03*
X1089961Y396654D02*
D03*
X1077362D02*
D03*
X1089961Y426181D02*
D03*
X1077362D02*
D03*
X1089961Y411417D02*
D03*
X1077362D02*
D03*
X813583Y889764D02*
D03*
X826181D02*
D03*
D42*
X723425Y376969D02*
D03*
Y420276D02*
D03*
Y398622D02*
D03*
D43*
X1055727Y563179D02*
D03*
X1073819Y675197D02*
D03*
X721457Y600394D02*
D03*
X733268Y668307D02*
D03*
X1076772Y803150D02*
D03*
X758858Y562992D02*
D03*
X955709D02*
D03*
X857283D02*
D03*
D44*
X746063Y588189D02*
D03*
Y600787D02*
D03*
X942913Y367717D02*
D03*
Y380315D02*
D03*
X736221Y575197D02*
D03*
Y562598D02*
D03*
D45*
X1030512Y550984D02*
D03*
Y562008D02*
D03*
X926181Y550591D02*
D03*
Y561614D02*
D03*
X831693Y550591D02*
D03*
Y561614D02*
D03*
D46*
X717913Y563976D02*
D03*
X728937D02*
D03*
D47*
X863780Y879842D02*
D03*
Y889843D02*
D03*
X838976D02*
D03*
Y879842D02*
D03*
D48*
X933071Y575197D02*
X944884D01*
X1013780D02*
X1039370D01*
X944884D02*
X973427D01*
X1001971D01*
X1013780D01*
X828307Y794291D02*
X939764D01*
X819567Y803032D02*
X828307Y794291D01*
X939764D02*
X960433Y814961D01*
X840551Y575197D02*
X933071D01*
X768701Y668307D02*
Y752165D01*
Y575197D02*
Y668307D01*
X733268D02*
X768701D01*
Y752165D02*
X819567Y803032D01*
X768701Y575197D02*
X840551D01*
X736221D02*
X768701D01*
X819567Y803032D02*
Y814961D01*
D49*
X738681Y398130D02*
D03*
D50*
X832185Y398130D02*
D03*
M02*
