G04*
G04 #@! TF.GenerationSoftware,Altium Limited,Altium Designer,24.1.2 (44)*
G04*
G04 Layer_Color=255*
%FSLAX25Y25*%
%MOIN*%
G70*
G04*
G04 #@! TF.SameCoordinates,A85318EA-E4D8-42E9-B0A6-CF3BD3DAF5E5*
G04*
G04*
G04 #@! TF.FilePolarity,Positive*
G04*
G01*
G75*
%ADD17R,0.18504X0.13504*%
%ADD18R,0.03150X0.03150*%
%ADD24C,0.08800*%
%ADD27R,0.06102X0.06102*%
%ADD28C,0.06102*%
%ADD32C,0.06299*%
G04:AMPARAMS|DCode=33|XSize=62.99mil|YSize=62.99mil|CornerRadius=15.75mil|HoleSize=0mil|Usage=FLASHONLY|Rotation=0.000|XOffset=0mil|YOffset=0mil|HoleType=Round|Shape=RoundedRectangle|*
%AMROUNDEDRECTD33*
21,1,0.06299,0.03150,0,0,0.0*
21,1,0.03150,0.06299,0,0,0.0*
1,1,0.03150,0.01575,-0.01575*
1,1,0.03150,-0.01575,-0.01575*
1,1,0.03150,-0.01575,0.01575*
1,1,0.03150,0.01575,0.01575*
%
%ADD33ROUNDEDRECTD33*%
%ADD34C,0.06000*%
%ADD35R,0.06000X0.06000*%
%ADD36C,0.35000*%
G04:AMPARAMS|DCode=37|XSize=62.99mil|YSize=62.99mil|CornerRadius=15.75mil|HoleSize=0mil|Usage=FLASHONLY|Rotation=90.000|XOffset=0mil|YOffset=0mil|HoleType=Round|Shape=RoundedRectangle|*
%AMROUNDEDRECTD37*
21,1,0.06299,0.03150,0,0,90.0*
21,1,0.03150,0.06299,0,0,90.0*
1,1,0.03150,0.01575,0.01575*
1,1,0.03150,0.01575,-0.01575*
1,1,0.03150,-0.01575,-0.01575*
1,1,0.03150,-0.01575,0.01575*
%
%ADD37ROUNDEDRECTD37*%
D17*
X1048228Y605315D02*
D03*
X1073819D02*
D03*
D18*
X1083661Y441929D02*
D03*
X1077756D02*
D03*
X1083661Y365158D02*
D03*
X1077756D02*
D03*
X1083661Y396654D02*
D03*
X1077756D02*
D03*
X1083661Y350394D02*
D03*
X1077756D02*
D03*
X1083661Y380906D02*
D03*
X1077756D02*
D03*
X1083661Y411417D02*
D03*
X1077756D02*
D03*
X1083661Y426181D02*
D03*
X1077756D02*
D03*
D24*
X749165Y442078D02*
D03*
Y429078D02*
D03*
X802165Y442078D02*
D03*
Y429078D02*
D03*
X749165Y404732D02*
D03*
Y391732D02*
D03*
X802165Y404732D02*
D03*
Y391732D02*
D03*
X749165Y367126D02*
D03*
Y354126D02*
D03*
X802165Y367126D02*
D03*
Y354126D02*
D03*
D27*
X731299Y872520D02*
D03*
D28*
Y862520D02*
D03*
Y852520D02*
D03*
Y842520D02*
D03*
D32*
X1072008Y630905D02*
D03*
X1062008D02*
D03*
X981299Y428622D02*
D03*
Y418622D02*
D03*
Y398622D02*
D03*
Y378622D02*
D03*
Y388622D02*
D03*
Y408622D02*
D03*
X968460Y428657D02*
D03*
Y418657D02*
D03*
Y398657D02*
D03*
Y378657D02*
D03*
Y388657D02*
D03*
Y408657D02*
D03*
X955664Y428657D02*
D03*
Y418657D02*
D03*
Y398657D02*
D03*
Y378657D02*
D03*
Y388657D02*
D03*
Y408657D02*
D03*
X809567Y814961D02*
D03*
X819567D02*
D03*
X829567D02*
D03*
X849567D02*
D03*
X859567D02*
D03*
X879567D02*
D03*
X899567D02*
D03*
X909567D02*
D03*
X889567D02*
D03*
X869567D02*
D03*
X839567D02*
D03*
X970433D02*
D03*
X960433D02*
D03*
X950433D02*
D03*
D33*
X1052008Y630905D02*
D03*
X919567Y814961D02*
D03*
X980433D02*
D03*
D34*
X1053307Y839567D02*
D03*
X1043307D02*
D03*
X1023307D02*
D03*
X1013307D02*
D03*
X1033307D02*
D03*
X1003307D02*
D03*
X993307D02*
D03*
X983307D02*
D03*
X973307D02*
D03*
X963307D02*
D03*
X953307D02*
D03*
X943307D02*
D03*
X933307D02*
D03*
X923307D02*
D03*
X1053307Y899567D02*
D03*
X1043307D02*
D03*
X913307Y839567D02*
D03*
X923307Y899567D02*
D03*
X933307D02*
D03*
X943307D02*
D03*
X953307D02*
D03*
X963307D02*
D03*
X973307D02*
D03*
X983307D02*
D03*
X993307D02*
D03*
X1003307D02*
D03*
X1013307D02*
D03*
X1023307D02*
D03*
X1033307D02*
D03*
D35*
X913307D02*
D03*
D36*
X850835Y371709D02*
D03*
X894142D02*
D03*
X850886Y423972D02*
D03*
X894193D02*
D03*
D37*
X981299Y368622D02*
D03*
X968460Y368657D02*
D03*
X955664D02*
D03*
M02*
