G04*
G04 #@! TF.GenerationSoftware,Altium Limited,Altium Designer,24.1.2 (44)*
G04*
G04 Layer_Color=16711935*
%FSLAX25Y25*%
%MOIN*%
G70*
G04*
G04 #@! TF.SameCoordinates,A85318EA-E4D8-42E9-B0A6-CF3BD3DAF5E5*
G04*
G04*
G04 #@! TF.FilePolarity,Positive*
G04*
G01*
G75*
%ADD12C,0.01000*%
D12*
X878488Y503252D02*
G03*
X878488Y503252I-21457J0D01*
G01*
X977472Y502268D02*
G03*
X977472Y502268I-21457J0D01*
G01*
X1076037Y503113D02*
G03*
X1076037Y503113I-21457J0D01*
G01*
X780488Y502299D02*
G03*
X780488Y502299I-21457J0D01*
G01*
X711417Y608268D02*
X755905D01*
X711417Y657874D02*
X755905D01*
Y608268D02*
Y657874D01*
X711417Y608268D02*
Y657874D01*
X763779Y583661D02*
X1043307D01*
X763779Y754921D02*
X1043307D01*
Y583661D02*
Y754921D01*
X763779Y583661D02*
Y754921D01*
X700787Y333661D02*
X1105315D01*
X700787Y918307D02*
X1105315D01*
Y333661D02*
Y918307D01*
X700787Y333661D02*
Y918307D01*
X1094488Y689961D02*
Y790748D01*
X1053150Y689961D02*
Y790748D01*
X1094488D01*
X1053150Y689961D02*
X1094488D01*
X754383Y689722D02*
Y790509D01*
X713044Y689722D02*
Y790509D01*
X754383D01*
X713044Y689722D02*
X754383D01*
M02*
