G04*
G04 #@! TF.GenerationSoftware,Altium Limited,Altium Designer,24.1.2 (44)*
G04*
G04 Layer_Color=16711935*
%FSLAX25Y25*%
%MOIN*%
G70*
G04*
G04 #@! TF.SameCoordinates,A85318EA-E4D8-42E9-B0A6-CF3BD3DAF5E5*
G04*
G04*
G04 #@! TF.FilePolarity,Positive*
G04*
G01*
G75*
%ADD13C,0.00787*%
G36*
X1080709Y440151D02*
X1079740D01*
X1079675Y440155D01*
X1079602Y440159D01*
X1079529Y440166D01*
X1079457Y440177D01*
X1079395Y440188D01*
X1079391D01*
X1079384Y440191D01*
X1079373D01*
X1079358Y440199D01*
X1079318Y440210D01*
X1079267Y440228D01*
X1079209Y440253D01*
X1079147Y440286D01*
X1079085Y440322D01*
X1079027Y440370D01*
X1079023Y440373D01*
X1079020Y440377D01*
X1079009Y440388D01*
X1078994Y440399D01*
X1078958Y440435D01*
X1078914Y440486D01*
X1078867Y440548D01*
X1078816Y440621D01*
X1078769Y440705D01*
X1078728Y440799D01*
Y440803D01*
X1078725Y440810D01*
X1078718Y440825D01*
X1078714Y440847D01*
X1078703Y440872D01*
X1078696Y440901D01*
X1078689Y440934D01*
X1078677Y440974D01*
X1078667Y441014D01*
X1078659Y441061D01*
X1078641Y441163D01*
X1078630Y441276D01*
X1078627Y441400D01*
Y441403D01*
Y441411D01*
Y441429D01*
Y441447D01*
X1078630Y441473D01*
Y441502D01*
X1078634Y441571D01*
X1078645Y441651D01*
X1078656Y441735D01*
X1078674Y441822D01*
X1078696Y441910D01*
Y441913D01*
X1078699Y441920D01*
X1078703Y441931D01*
X1078707Y441946D01*
X1078721Y441986D01*
X1078743Y442037D01*
X1078765Y442095D01*
X1078794Y442153D01*
X1078830Y442215D01*
X1078867Y442274D01*
X1078870Y442281D01*
X1078885Y442299D01*
X1078907Y442324D01*
X1078936Y442357D01*
X1078969Y442394D01*
X1079009Y442430D01*
X1079049Y442470D01*
X1079096Y442503D01*
X1079103Y442507D01*
X1079118Y442517D01*
X1079144Y442532D01*
X1079180Y442550D01*
X1079224Y442572D01*
X1079274Y442590D01*
X1079333Y442612D01*
X1079398Y442630D01*
X1079405D01*
X1079416Y442634D01*
X1079427Y442637D01*
X1079464Y442641D01*
X1079515Y442648D01*
X1079573Y442656D01*
X1079642Y442663D01*
X1079719Y442667D01*
X1079802Y442670D01*
X1080709D01*
Y440151D01*
D02*
G37*
G36*
X1077440Y440701D02*
X1077444Y440705D01*
X1077462Y440719D01*
X1077484Y440741D01*
X1077520Y440766D01*
X1077560Y440799D01*
X1077611Y440836D01*
X1077669Y440876D01*
X1077735Y440916D01*
X1077738D01*
X1077742Y440919D01*
X1077764Y440934D01*
X1077800Y440952D01*
X1077844Y440974D01*
X1077895Y441000D01*
X1077950Y441025D01*
X1078004Y441050D01*
X1078059Y441072D01*
Y440774D01*
X1078055D01*
X1078048Y440766D01*
X1078033Y440763D01*
X1078015Y440752D01*
X1077993Y440741D01*
X1077968Y440727D01*
X1077906Y440690D01*
X1077833Y440650D01*
X1077760Y440599D01*
X1077684Y440541D01*
X1077607Y440479D01*
X1077604Y440475D01*
X1077600Y440472D01*
X1077589Y440461D01*
X1077575Y440450D01*
X1077542Y440414D01*
X1077498Y440370D01*
X1077454Y440319D01*
X1077407Y440261D01*
X1077367Y440202D01*
X1077331Y440140D01*
X1077131D01*
Y442670D01*
X1077440D01*
Y440701D01*
D02*
G37*
G36*
X1080709Y363380D02*
X1079740D01*
X1079675Y363383D01*
X1079602Y363387D01*
X1079529Y363394D01*
X1079457Y363405D01*
X1079395Y363416D01*
X1079391D01*
X1079384Y363420D01*
X1079373D01*
X1079358Y363427D01*
X1079318Y363438D01*
X1079267Y363456D01*
X1079209Y363482D01*
X1079147Y363514D01*
X1079085Y363551D01*
X1079027Y363598D01*
X1079023Y363602D01*
X1079020Y363605D01*
X1079009Y363616D01*
X1078994Y363627D01*
X1078958Y363664D01*
X1078914Y363715D01*
X1078867Y363776D01*
X1078816Y363849D01*
X1078769Y363933D01*
X1078728Y364028D01*
Y364031D01*
X1078725Y364039D01*
X1078718Y364053D01*
X1078714Y364075D01*
X1078703Y364100D01*
X1078696Y364130D01*
X1078689Y364162D01*
X1078677Y364202D01*
X1078667Y364242D01*
X1078659Y364290D01*
X1078641Y364392D01*
X1078630Y364505D01*
X1078627Y364628D01*
Y364632D01*
Y364639D01*
Y364657D01*
Y364676D01*
X1078630Y364701D01*
Y364730D01*
X1078634Y364799D01*
X1078645Y364879D01*
X1078656Y364963D01*
X1078674Y365051D01*
X1078696Y365138D01*
Y365142D01*
X1078699Y365149D01*
X1078703Y365160D01*
X1078707Y365174D01*
X1078721Y365214D01*
X1078743Y365265D01*
X1078765Y365323D01*
X1078794Y365382D01*
X1078830Y365444D01*
X1078867Y365502D01*
X1078870Y365509D01*
X1078885Y365527D01*
X1078907Y365553D01*
X1078936Y365586D01*
X1078969Y365622D01*
X1079009Y365658D01*
X1079049Y365698D01*
X1079096Y365731D01*
X1079103Y365735D01*
X1079118Y365746D01*
X1079144Y365760D01*
X1079180Y365778D01*
X1079224Y365800D01*
X1079274Y365819D01*
X1079333Y365840D01*
X1079398Y365859D01*
X1079405D01*
X1079416Y365862D01*
X1079427Y365866D01*
X1079464Y365869D01*
X1079515Y365877D01*
X1079573Y365884D01*
X1079642Y365891D01*
X1079719Y365895D01*
X1079802Y365899D01*
X1080709D01*
Y363380D01*
D02*
G37*
G36*
X1077305Y365294D02*
X1078401D01*
Y365010D01*
X1077247Y363380D01*
X1076996D01*
Y365010D01*
X1076654D01*
Y365294D01*
X1076996D01*
Y365899D01*
X1077305D01*
Y365294D01*
D02*
G37*
G36*
X1077473Y397391D02*
X1077502D01*
X1077535Y397387D01*
X1077571Y397380D01*
X1077615Y397369D01*
X1077658Y397358D01*
X1077709Y397344D01*
X1077760Y397325D01*
X1077811Y397304D01*
X1077866Y397274D01*
X1077917Y397242D01*
X1077968Y397205D01*
X1078019Y397162D01*
X1078066Y397111D01*
X1078070Y397107D01*
X1078077Y397096D01*
X1078088Y397082D01*
X1078102Y397056D01*
X1078124Y397023D01*
X1078143Y396987D01*
X1078164Y396940D01*
X1078186Y396889D01*
X1078212Y396827D01*
X1078234Y396758D01*
X1078252Y396681D01*
X1078270Y396598D01*
X1078288Y396503D01*
X1078299Y396401D01*
X1078306Y396292D01*
X1078310Y396175D01*
Y396172D01*
Y396168D01*
Y396157D01*
Y396143D01*
X1078306Y396106D01*
Y396055D01*
X1078303Y395997D01*
X1078295Y395928D01*
X1078288Y395851D01*
X1078277Y395768D01*
X1078263Y395684D01*
X1078244Y395593D01*
X1078222Y395505D01*
X1078197Y395418D01*
X1078164Y395334D01*
X1078128Y395254D01*
X1078088Y395178D01*
X1078041Y395112D01*
X1078037Y395109D01*
X1078030Y395101D01*
X1078015Y395087D01*
X1077997Y395065D01*
X1077975Y395043D01*
X1077946Y395021D01*
X1077909Y394992D01*
X1077873Y394967D01*
X1077829Y394941D01*
X1077782Y394912D01*
X1077728Y394890D01*
X1077673Y394865D01*
X1077611Y394847D01*
X1077546Y394832D01*
X1077476Y394825D01*
X1077404Y394821D01*
X1077374D01*
X1077353Y394825D01*
X1077327D01*
X1077298Y394829D01*
X1077229Y394843D01*
X1077152Y394861D01*
X1077072Y394890D01*
X1076992Y394934D01*
X1076952Y394959D01*
X1076916Y394989D01*
X1076912Y394992D01*
X1076908Y394996D01*
X1076898Y395007D01*
X1076887Y395018D01*
X1076869Y395036D01*
X1076854Y395058D01*
X1076814Y395109D01*
X1076774Y395174D01*
X1076737Y395254D01*
X1076705Y395345D01*
X1076683Y395447D01*
X1076992Y395473D01*
Y395469D01*
X1076996Y395465D01*
X1076999Y395444D01*
X1077010Y395411D01*
X1077025Y395371D01*
X1077040Y395327D01*
X1077061Y395284D01*
X1077087Y395243D01*
X1077112Y395211D01*
X1077120Y395203D01*
X1077134Y395189D01*
X1077160Y395167D01*
X1077196Y395142D01*
X1077243Y395120D01*
X1077294Y395098D01*
X1077356Y395083D01*
X1077422Y395076D01*
X1077447D01*
X1077476Y395080D01*
X1077509Y395087D01*
X1077553Y395098D01*
X1077596Y395112D01*
X1077640Y395131D01*
X1077684Y395160D01*
X1077691Y395163D01*
X1077709Y395178D01*
X1077735Y395203D01*
X1077767Y395240D01*
X1077804Y395284D01*
X1077844Y395334D01*
X1077880Y395400D01*
X1077917Y395473D01*
Y395476D01*
X1077920Y395484D01*
X1077924Y395495D01*
X1077931Y395509D01*
X1077935Y395531D01*
X1077942Y395556D01*
X1077950Y395586D01*
X1077957Y395622D01*
X1077968Y395662D01*
X1077975Y395706D01*
X1077982Y395753D01*
X1077986Y395804D01*
X1077993Y395862D01*
X1077997Y395920D01*
X1078001Y395986D01*
Y396052D01*
X1077997Y396048D01*
X1077982Y396026D01*
X1077957Y395997D01*
X1077924Y395960D01*
X1077888Y395917D01*
X1077840Y395877D01*
X1077789Y395837D01*
X1077731Y395800D01*
X1077728D01*
X1077724Y395797D01*
X1077702Y395786D01*
X1077669Y395775D01*
X1077626Y395757D01*
X1077575Y395742D01*
X1077516Y395731D01*
X1077454Y395720D01*
X1077389Y395717D01*
X1077360D01*
X1077338Y395720D01*
X1077309Y395724D01*
X1077280Y395727D01*
X1077243Y395735D01*
X1077207Y395746D01*
X1077123Y395771D01*
X1077080Y395789D01*
X1077036Y395815D01*
X1076992Y395840D01*
X1076945Y395869D01*
X1076901Y395906D01*
X1076861Y395946D01*
X1076857Y395950D01*
X1076850Y395957D01*
X1076839Y395968D01*
X1076828Y395986D01*
X1076810Y396011D01*
X1076792Y396037D01*
X1076774Y396070D01*
X1076752Y396106D01*
X1076730Y396146D01*
X1076712Y396190D01*
X1076694Y396241D01*
X1076676Y396292D01*
X1076665Y396346D01*
X1076654Y396408D01*
X1076646Y396470D01*
X1076643Y396536D01*
Y396539D01*
Y396547D01*
Y396557D01*
Y396576D01*
X1076646Y396598D01*
Y396619D01*
X1076657Y396678D01*
X1076668Y396747D01*
X1076686Y396819D01*
X1076712Y396900D01*
X1076748Y396976D01*
Y396980D01*
X1076752Y396983D01*
X1076759Y396994D01*
X1076766Y397009D01*
X1076788Y397045D01*
X1076821Y397093D01*
X1076861Y397144D01*
X1076908Y397195D01*
X1076967Y397245D01*
X1077029Y397289D01*
X1077032D01*
X1077036Y397293D01*
X1077047Y397300D01*
X1077061Y397304D01*
X1077098Y397322D01*
X1077145Y397340D01*
X1077207Y397362D01*
X1077276Y397376D01*
X1077353Y397391D01*
X1077436Y397395D01*
X1077454D01*
X1077473Y397391D01*
D02*
G37*
G36*
X1080709Y394832D02*
X1079740D01*
X1079675Y394836D01*
X1079602Y394839D01*
X1079529Y394847D01*
X1079457Y394858D01*
X1079395Y394868D01*
X1079391D01*
X1079384Y394872D01*
X1079373D01*
X1079358Y394879D01*
X1079318Y394890D01*
X1079267Y394908D01*
X1079209Y394934D01*
X1079147Y394967D01*
X1079085Y395003D01*
X1079027Y395051D01*
X1079023Y395054D01*
X1079020Y395058D01*
X1079009Y395069D01*
X1078994Y395080D01*
X1078958Y395116D01*
X1078914Y395167D01*
X1078867Y395229D01*
X1078816Y395302D01*
X1078769Y395385D01*
X1078728Y395480D01*
Y395484D01*
X1078725Y395491D01*
X1078718Y395505D01*
X1078714Y395527D01*
X1078703Y395553D01*
X1078696Y395582D01*
X1078689Y395615D01*
X1078677Y395655D01*
X1078667Y395695D01*
X1078659Y395742D01*
X1078641Y395844D01*
X1078630Y395957D01*
X1078627Y396081D01*
Y396084D01*
Y396092D01*
Y396110D01*
Y396128D01*
X1078630Y396153D01*
Y396182D01*
X1078634Y396252D01*
X1078645Y396332D01*
X1078656Y396415D01*
X1078674Y396503D01*
X1078696Y396590D01*
Y396594D01*
X1078699Y396601D01*
X1078703Y396612D01*
X1078707Y396627D01*
X1078721Y396667D01*
X1078743Y396718D01*
X1078765Y396776D01*
X1078794Y396834D01*
X1078830Y396896D01*
X1078867Y396954D01*
X1078870Y396961D01*
X1078885Y396980D01*
X1078907Y397005D01*
X1078936Y397038D01*
X1078969Y397074D01*
X1079009Y397111D01*
X1079049Y397151D01*
X1079096Y397183D01*
X1079103Y397187D01*
X1079118Y397198D01*
X1079144Y397213D01*
X1079180Y397231D01*
X1079224Y397253D01*
X1079274Y397271D01*
X1079333Y397293D01*
X1079398Y397311D01*
X1079405D01*
X1079416Y397315D01*
X1079427Y397318D01*
X1079464Y397322D01*
X1079515Y397329D01*
X1079573Y397336D01*
X1079642Y397344D01*
X1079719Y397347D01*
X1079802Y397351D01*
X1080709D01*
Y394832D01*
D02*
G37*
G36*
X1077549Y351131D02*
X1077578Y351128D01*
X1077611Y351124D01*
X1077647Y351117D01*
X1077687Y351109D01*
X1077775Y351087D01*
X1077866Y351051D01*
X1077913Y351029D01*
X1077957Y351004D01*
X1078001Y350971D01*
X1078044Y350938D01*
X1078048Y350935D01*
X1078055Y350927D01*
X1078066Y350916D01*
X1078077Y350902D01*
X1078095Y350884D01*
X1078113Y350858D01*
X1078135Y350833D01*
X1078157Y350800D01*
X1078179Y350764D01*
X1078201Y350727D01*
X1078241Y350640D01*
X1078273Y350538D01*
X1078284Y350483D01*
X1078292Y350425D01*
X1077982Y350385D01*
Y350389D01*
X1077979Y350396D01*
X1077975Y350411D01*
X1077971Y350429D01*
X1077968Y350450D01*
X1077960Y350476D01*
X1077942Y350531D01*
X1077917Y350596D01*
X1077884Y350658D01*
X1077848Y350716D01*
X1077804Y350767D01*
X1077797Y350771D01*
X1077782Y350785D01*
X1077753Y350804D01*
X1077717Y350822D01*
X1077673Y350844D01*
X1077618Y350862D01*
X1077556Y350876D01*
X1077491Y350880D01*
X1077469D01*
X1077454Y350876D01*
X1077415Y350873D01*
X1077363Y350862D01*
X1077305Y350844D01*
X1077243Y350818D01*
X1077182Y350782D01*
X1077123Y350731D01*
X1077116Y350724D01*
X1077098Y350702D01*
X1077076Y350669D01*
X1077047Y350625D01*
X1077018Y350571D01*
X1076996Y350509D01*
X1076978Y350436D01*
X1076970Y350356D01*
Y350352D01*
Y350345D01*
Y350334D01*
X1076974Y350320D01*
X1076978Y350279D01*
X1076989Y350232D01*
X1077003Y350174D01*
X1077029Y350116D01*
X1077065Y350057D01*
X1077112Y350003D01*
X1077120Y349995D01*
X1077138Y349981D01*
X1077167Y349959D01*
X1077207Y349934D01*
X1077258Y349908D01*
X1077320Y349886D01*
X1077389Y349872D01*
X1077465Y349865D01*
X1077498D01*
X1077524Y349868D01*
X1077556Y349872D01*
X1077593Y349879D01*
X1077637Y349886D01*
X1077684Y349897D01*
X1077647Y349624D01*
X1077629D01*
X1077615Y349628D01*
X1077567D01*
X1077527Y349621D01*
X1077480Y349613D01*
X1077425Y349602D01*
X1077363Y349584D01*
X1077305Y349559D01*
X1077243Y349526D01*
X1077240D01*
X1077236Y349522D01*
X1077218Y349508D01*
X1077192Y349482D01*
X1077163Y349449D01*
X1077134Y349402D01*
X1077109Y349348D01*
X1077090Y349286D01*
X1077083Y349249D01*
Y349209D01*
Y349206D01*
Y349202D01*
Y349180D01*
X1077090Y349151D01*
X1077098Y349111D01*
X1077112Y349067D01*
X1077131Y349020D01*
X1077160Y348973D01*
X1077200Y348929D01*
X1077203Y348925D01*
X1077221Y348911D01*
X1077247Y348893D01*
X1077280Y348871D01*
X1077324Y348852D01*
X1077374Y348834D01*
X1077433Y348820D01*
X1077498Y348816D01*
X1077527D01*
X1077560Y348823D01*
X1077604Y348831D01*
X1077651Y348845D01*
X1077698Y348864D01*
X1077749Y348893D01*
X1077797Y348929D01*
X1077800Y348933D01*
X1077815Y348951D01*
X1077837Y348976D01*
X1077862Y349013D01*
X1077888Y349060D01*
X1077913Y349118D01*
X1077935Y349187D01*
X1077950Y349268D01*
X1078259Y349213D01*
Y349209D01*
X1078255Y349198D01*
X1078252Y349184D01*
X1078248Y349162D01*
X1078241Y349136D01*
X1078230Y349107D01*
X1078208Y349038D01*
X1078172Y348958D01*
X1078128Y348878D01*
X1078073Y348802D01*
X1078004Y348732D01*
X1078001Y348729D01*
X1077993Y348725D01*
X1077982Y348718D01*
X1077968Y348707D01*
X1077950Y348692D01*
X1077924Y348678D01*
X1077899Y348663D01*
X1077866Y348645D01*
X1077793Y348616D01*
X1077709Y348587D01*
X1077611Y348569D01*
X1077560Y348561D01*
X1077469D01*
X1077429Y348565D01*
X1077382Y348572D01*
X1077324Y348583D01*
X1077258Y348601D01*
X1077192Y348623D01*
X1077127Y348652D01*
X1077123D01*
X1077120Y348656D01*
X1077098Y348667D01*
X1077065Y348689D01*
X1077029Y348714D01*
X1076985Y348751D01*
X1076941Y348791D01*
X1076898Y348838D01*
X1076861Y348893D01*
X1076857Y348900D01*
X1076847Y348918D01*
X1076832Y348951D01*
X1076814Y348991D01*
X1076796Y349038D01*
X1076781Y349093D01*
X1076770Y349155D01*
X1076766Y349217D01*
Y349224D01*
Y349246D01*
X1076770Y349275D01*
X1076777Y349315D01*
X1076788Y349362D01*
X1076807Y349413D01*
X1076828Y349464D01*
X1076857Y349515D01*
X1076861Y349522D01*
X1076872Y349537D01*
X1076894Y349562D01*
X1076923Y349591D01*
X1076960Y349624D01*
X1077003Y349661D01*
X1077054Y349693D01*
X1077116Y349726D01*
X1077112D01*
X1077105Y349730D01*
X1077094Y349733D01*
X1077080Y349737D01*
X1077040Y349752D01*
X1076989Y349774D01*
X1076930Y349803D01*
X1076872Y349839D01*
X1076818Y349886D01*
X1076766Y349941D01*
X1076763Y349948D01*
X1076748Y349970D01*
X1076727Y350006D01*
X1076705Y350054D01*
X1076683Y350112D01*
X1076661Y350181D01*
X1076646Y350261D01*
X1076643Y350349D01*
Y350352D01*
Y350363D01*
Y350381D01*
X1076646Y350403D01*
X1076650Y350432D01*
X1076657Y350465D01*
X1076665Y350501D01*
X1076672Y350541D01*
X1076701Y350629D01*
X1076723Y350676D01*
X1076745Y350720D01*
X1076774Y350767D01*
X1076807Y350815D01*
X1076843Y350862D01*
X1076887Y350905D01*
X1076890Y350909D01*
X1076898Y350916D01*
X1076912Y350927D01*
X1076930Y350942D01*
X1076952Y350960D01*
X1076981Y350978D01*
X1077014Y351000D01*
X1077054Y351018D01*
X1077094Y351040D01*
X1077141Y351062D01*
X1077189Y351080D01*
X1077243Y351098D01*
X1077302Y351113D01*
X1077363Y351124D01*
X1077425Y351131D01*
X1077495Y351135D01*
X1077527D01*
X1077549Y351131D01*
D02*
G37*
G36*
X1080709Y348572D02*
X1079740D01*
X1079675Y348576D01*
X1079602Y348580D01*
X1079529Y348587D01*
X1079457Y348598D01*
X1079395Y348609D01*
X1079391D01*
X1079384Y348612D01*
X1079373D01*
X1079358Y348620D01*
X1079318Y348630D01*
X1079267Y348649D01*
X1079209Y348674D01*
X1079147Y348707D01*
X1079085Y348743D01*
X1079027Y348791D01*
X1079023Y348794D01*
X1079020Y348798D01*
X1079009Y348809D01*
X1078994Y348820D01*
X1078958Y348856D01*
X1078914Y348907D01*
X1078867Y348969D01*
X1078816Y349042D01*
X1078769Y349126D01*
X1078728Y349220D01*
Y349224D01*
X1078725Y349231D01*
X1078718Y349246D01*
X1078714Y349268D01*
X1078703Y349293D01*
X1078696Y349322D01*
X1078689Y349355D01*
X1078677Y349395D01*
X1078667Y349435D01*
X1078659Y349482D01*
X1078641Y349584D01*
X1078630Y349697D01*
X1078627Y349821D01*
Y349824D01*
Y349832D01*
Y349850D01*
Y349868D01*
X1078630Y349894D01*
Y349923D01*
X1078634Y349992D01*
X1078645Y350072D01*
X1078656Y350156D01*
X1078674Y350243D01*
X1078696Y350330D01*
Y350334D01*
X1078699Y350341D01*
X1078703Y350352D01*
X1078707Y350367D01*
X1078721Y350407D01*
X1078743Y350458D01*
X1078765Y350516D01*
X1078794Y350574D01*
X1078830Y350636D01*
X1078867Y350694D01*
X1078870Y350702D01*
X1078885Y350720D01*
X1078907Y350745D01*
X1078936Y350778D01*
X1078969Y350815D01*
X1079009Y350851D01*
X1079049Y350891D01*
X1079096Y350924D01*
X1079103Y350927D01*
X1079118Y350938D01*
X1079144Y350953D01*
X1079180Y350971D01*
X1079224Y350993D01*
X1079274Y351011D01*
X1079333Y351033D01*
X1079398Y351051D01*
X1079405D01*
X1079416Y351055D01*
X1079427Y351058D01*
X1079464Y351062D01*
X1079515Y351069D01*
X1079573Y351077D01*
X1079642Y351084D01*
X1079719Y351087D01*
X1079802Y351091D01*
X1080709D01*
Y348572D01*
D02*
G37*
G36*
X1077546Y381643D02*
X1077575Y381639D01*
X1077607Y381636D01*
X1077647Y381632D01*
X1077687Y381621D01*
X1077779Y381599D01*
X1077870Y381567D01*
X1077917Y381545D01*
X1077964Y381519D01*
X1078008Y381490D01*
X1078051Y381457D01*
X1078055Y381454D01*
X1078062Y381450D01*
X1078070Y381435D01*
X1078084Y381421D01*
X1078102Y381403D01*
X1078121Y381381D01*
X1078143Y381352D01*
X1078161Y381319D01*
X1078183Y381286D01*
X1078204Y381246D01*
X1078244Y381159D01*
X1078277Y381057D01*
X1078288Y381002D01*
X1078295Y380944D01*
X1077971Y380919D01*
Y380922D01*
Y380929D01*
X1077968Y380941D01*
X1077964Y380959D01*
X1077953Y380999D01*
X1077939Y381053D01*
X1077917Y381108D01*
X1077888Y381170D01*
X1077851Y381224D01*
X1077808Y381275D01*
X1077800Y381279D01*
X1077786Y381294D01*
X1077757Y381312D01*
X1077717Y381334D01*
X1077673Y381355D01*
X1077618Y381374D01*
X1077556Y381388D01*
X1077487Y381392D01*
X1077465D01*
X1077451Y381388D01*
X1077407Y381384D01*
X1077356Y381370D01*
X1077294Y381352D01*
X1077232Y381323D01*
X1077167Y381279D01*
X1077138Y381254D01*
X1077109Y381224D01*
X1077105Y381221D01*
X1077101Y381217D01*
X1077094Y381206D01*
X1077083Y381195D01*
X1077058Y381155D01*
X1077029Y381104D01*
X1077003Y381042D01*
X1076978Y380966D01*
X1076960Y380875D01*
X1076952Y380828D01*
Y380777D01*
Y380773D01*
Y380766D01*
Y380751D01*
X1076956Y380733D01*
Y380711D01*
X1076960Y380686D01*
X1076970Y380627D01*
X1076989Y380558D01*
X1077014Y380489D01*
X1077050Y380424D01*
X1077101Y380362D01*
Y380358D01*
X1077109Y380354D01*
X1077127Y380336D01*
X1077160Y380311D01*
X1077203Y380282D01*
X1077262Y380256D01*
X1077327Y380231D01*
X1077404Y380212D01*
X1077447Y380205D01*
X1077516D01*
X1077546Y380209D01*
X1077582Y380212D01*
X1077626Y380223D01*
X1077669Y380234D01*
X1077717Y380253D01*
X1077764Y380274D01*
X1077767Y380278D01*
X1077782Y380285D01*
X1077804Y380304D01*
X1077833Y380322D01*
X1077862Y380347D01*
X1077891Y380380D01*
X1077924Y380413D01*
X1077950Y380453D01*
X1078241Y380413D01*
X1077997Y379117D01*
X1076745D01*
Y379412D01*
X1077753D01*
X1077888Y380092D01*
X1077884Y380089D01*
X1077877Y380085D01*
X1077866Y380078D01*
X1077848Y380067D01*
X1077826Y380056D01*
X1077800Y380041D01*
X1077742Y380012D01*
X1077669Y379983D01*
X1077589Y379958D01*
X1077502Y379939D01*
X1077458Y379932D01*
X1077378D01*
X1077356Y379936D01*
X1077327Y379939D01*
X1077294Y379943D01*
X1077258Y379950D01*
X1077218Y379961D01*
X1077131Y379987D01*
X1077083Y380005D01*
X1077036Y380030D01*
X1076989Y380056D01*
X1076941Y380085D01*
X1076898Y380121D01*
X1076854Y380161D01*
X1076850Y380165D01*
X1076843Y380172D01*
X1076832Y380183D01*
X1076818Y380202D01*
X1076799Y380227D01*
X1076781Y380253D01*
X1076759Y380285D01*
X1076737Y380322D01*
X1076719Y380362D01*
X1076697Y380405D01*
X1076679Y380456D01*
X1076661Y380507D01*
X1076646Y380562D01*
X1076635Y380624D01*
X1076628Y380686D01*
X1076625Y380751D01*
Y380755D01*
Y380766D01*
Y380784D01*
X1076628Y380809D01*
X1076632Y380838D01*
X1076635Y380871D01*
X1076643Y380911D01*
X1076650Y380951D01*
X1076672Y381046D01*
X1076708Y381144D01*
X1076730Y381195D01*
X1076759Y381243D01*
X1076788Y381294D01*
X1076825Y381341D01*
X1076828Y381345D01*
X1076836Y381355D01*
X1076850Y381370D01*
X1076869Y381388D01*
X1076894Y381410D01*
X1076923Y381439D01*
X1076960Y381465D01*
X1076999Y381494D01*
X1077043Y381523D01*
X1077094Y381548D01*
X1077149Y381574D01*
X1077207Y381599D01*
X1077269Y381617D01*
X1077338Y381632D01*
X1077411Y381643D01*
X1077487Y381647D01*
X1077520D01*
X1077546Y381643D01*
D02*
G37*
G36*
X1080709Y379084D02*
X1079740D01*
X1079675Y379088D01*
X1079602Y379091D01*
X1079529Y379099D01*
X1079457Y379110D01*
X1079395Y379120D01*
X1079391D01*
X1079384Y379124D01*
X1079373D01*
X1079358Y379131D01*
X1079318Y379142D01*
X1079267Y379160D01*
X1079209Y379186D01*
X1079147Y379219D01*
X1079085Y379255D01*
X1079027Y379302D01*
X1079023Y379306D01*
X1079020Y379310D01*
X1079009Y379321D01*
X1078994Y379332D01*
X1078958Y379368D01*
X1078914Y379419D01*
X1078867Y379481D01*
X1078816Y379554D01*
X1078769Y379637D01*
X1078728Y379732D01*
Y379736D01*
X1078725Y379743D01*
X1078718Y379757D01*
X1078714Y379779D01*
X1078703Y379805D01*
X1078696Y379834D01*
X1078689Y379867D01*
X1078677Y379907D01*
X1078667Y379947D01*
X1078659Y379994D01*
X1078641Y380096D01*
X1078630Y380209D01*
X1078627Y380333D01*
Y380336D01*
Y380344D01*
Y380362D01*
Y380380D01*
X1078630Y380405D01*
Y380434D01*
X1078634Y380504D01*
X1078645Y380584D01*
X1078656Y380667D01*
X1078674Y380755D01*
X1078696Y380842D01*
Y380846D01*
X1078699Y380853D01*
X1078703Y380864D01*
X1078707Y380879D01*
X1078721Y380919D01*
X1078743Y380970D01*
X1078765Y381028D01*
X1078794Y381086D01*
X1078830Y381148D01*
X1078867Y381206D01*
X1078870Y381213D01*
X1078885Y381232D01*
X1078907Y381257D01*
X1078936Y381290D01*
X1078969Y381326D01*
X1079009Y381363D01*
X1079049Y381403D01*
X1079096Y381435D01*
X1079103Y381439D01*
X1079118Y381450D01*
X1079144Y381465D01*
X1079180Y381483D01*
X1079224Y381505D01*
X1079274Y381523D01*
X1079333Y381545D01*
X1079398Y381563D01*
X1079405D01*
X1079416Y381567D01*
X1079427Y381570D01*
X1079464Y381574D01*
X1079515Y381581D01*
X1079573Y381588D01*
X1079642Y381596D01*
X1079719Y381599D01*
X1079802Y381603D01*
X1080709D01*
Y379084D01*
D02*
G37*
G36*
X1077920Y412155D02*
Y412144D01*
Y412129D01*
X1077917Y412108D01*
Y412078D01*
X1077913Y412042D01*
X1077909Y412002D01*
X1077906Y411958D01*
X1077899Y411907D01*
X1077891Y411856D01*
X1077880Y411794D01*
X1077870Y411733D01*
X1077859Y411667D01*
X1077844Y411594D01*
X1077808Y411445D01*
Y411441D01*
X1077804Y411427D01*
X1077797Y411405D01*
X1077786Y411372D01*
X1077775Y411336D01*
X1077760Y411292D01*
X1077746Y411241D01*
X1077724Y411187D01*
X1077702Y411125D01*
X1077680Y411063D01*
X1077626Y410924D01*
X1077560Y410779D01*
X1077487Y410633D01*
X1077484Y410630D01*
X1077476Y410615D01*
X1077465Y410597D01*
X1077451Y410568D01*
X1077433Y410535D01*
X1077407Y410495D01*
X1077382Y410451D01*
X1077353Y410404D01*
X1077283Y410298D01*
X1077211Y410189D01*
X1077127Y410076D01*
X1077040Y409971D01*
X1078273D01*
Y409672D01*
X1076643D01*
Y409916D01*
X1076646Y409920D01*
X1076654Y409927D01*
X1076668Y409942D01*
X1076683Y409964D01*
X1076705Y409989D01*
X1076734Y410018D01*
X1076763Y410054D01*
X1076796Y410098D01*
X1076828Y410142D01*
X1076869Y410193D01*
X1076908Y410251D01*
X1076949Y410309D01*
X1076992Y410375D01*
X1077036Y410444D01*
X1077080Y410520D01*
X1077123Y410597D01*
X1077127Y410601D01*
X1077134Y410615D01*
X1077145Y410637D01*
X1077163Y410670D01*
X1077182Y410710D01*
X1077203Y410753D01*
X1077229Y410804D01*
X1077254Y410863D01*
X1077283Y410928D01*
X1077316Y410994D01*
X1077345Y411066D01*
X1077374Y411143D01*
X1077433Y411299D01*
X1077487Y411467D01*
Y411471D01*
X1077491Y411481D01*
X1077495Y411500D01*
X1077502Y411521D01*
X1077509Y411551D01*
X1077516Y411587D01*
X1077527Y411627D01*
X1077535Y411671D01*
X1077546Y411722D01*
X1077556Y411776D01*
X1077575Y411893D01*
X1077593Y412020D01*
X1077604Y412158D01*
X1077920D01*
Y412155D01*
D02*
G37*
G36*
X1080709Y409640D02*
X1079740D01*
X1079675Y409643D01*
X1079602Y409647D01*
X1079529Y409654D01*
X1079457Y409665D01*
X1079395Y409676D01*
X1079391D01*
X1079384Y409680D01*
X1079373D01*
X1079358Y409687D01*
X1079318Y409698D01*
X1079267Y409716D01*
X1079209Y409741D01*
X1079147Y409774D01*
X1079085Y409811D01*
X1079027Y409858D01*
X1079023Y409862D01*
X1079020Y409865D01*
X1079009Y409876D01*
X1078994Y409887D01*
X1078958Y409924D01*
X1078914Y409974D01*
X1078867Y410036D01*
X1078816Y410109D01*
X1078769Y410193D01*
X1078728Y410288D01*
Y410291D01*
X1078725Y410298D01*
X1078718Y410313D01*
X1078714Y410335D01*
X1078703Y410360D01*
X1078696Y410389D01*
X1078689Y410422D01*
X1078677Y410462D01*
X1078667Y410502D01*
X1078659Y410550D01*
X1078641Y410651D01*
X1078630Y410764D01*
X1078627Y410888D01*
Y410892D01*
Y410899D01*
Y410917D01*
Y410935D01*
X1078630Y410961D01*
Y410990D01*
X1078634Y411059D01*
X1078645Y411139D01*
X1078656Y411223D01*
X1078674Y411310D01*
X1078696Y411398D01*
Y411401D01*
X1078699Y411409D01*
X1078703Y411419D01*
X1078707Y411434D01*
X1078721Y411474D01*
X1078743Y411525D01*
X1078765Y411583D01*
X1078794Y411642D01*
X1078830Y411703D01*
X1078867Y411762D01*
X1078870Y411769D01*
X1078885Y411787D01*
X1078907Y411813D01*
X1078936Y411845D01*
X1078969Y411882D01*
X1079009Y411918D01*
X1079049Y411958D01*
X1079096Y411991D01*
X1079103Y411995D01*
X1079118Y412006D01*
X1079144Y412020D01*
X1079180Y412038D01*
X1079224Y412060D01*
X1079274Y412078D01*
X1079333Y412100D01*
X1079398Y412118D01*
X1079405D01*
X1079416Y412122D01*
X1079427Y412126D01*
X1079464Y412129D01*
X1079515Y412137D01*
X1079573Y412144D01*
X1079642Y412151D01*
X1079719Y412155D01*
X1079802Y412158D01*
X1080709D01*
Y409640D01*
D02*
G37*
G36*
Y424403D02*
X1079740D01*
X1079675Y424407D01*
X1079602Y424411D01*
X1079529Y424418D01*
X1079457Y424429D01*
X1079395Y424440D01*
X1079391D01*
X1079384Y424443D01*
X1079373D01*
X1079358Y424451D01*
X1079318Y424462D01*
X1079267Y424480D01*
X1079209Y424505D01*
X1079147Y424538D01*
X1079085Y424574D01*
X1079027Y424622D01*
X1079023Y424625D01*
X1079020Y424629D01*
X1079009Y424640D01*
X1078994Y424651D01*
X1078958Y424687D01*
X1078914Y424738D01*
X1078867Y424800D01*
X1078816Y424873D01*
X1078769Y424957D01*
X1078728Y425051D01*
Y425055D01*
X1078725Y425062D01*
X1078718Y425077D01*
X1078714Y425099D01*
X1078703Y425124D01*
X1078696Y425153D01*
X1078689Y425186D01*
X1078677Y425226D01*
X1078667Y425266D01*
X1078659Y425313D01*
X1078641Y425415D01*
X1078630Y425528D01*
X1078627Y425652D01*
Y425656D01*
Y425663D01*
Y425681D01*
Y425699D01*
X1078630Y425725D01*
Y425754D01*
X1078634Y425823D01*
X1078645Y425903D01*
X1078656Y425987D01*
X1078674Y426074D01*
X1078696Y426161D01*
Y426165D01*
X1078699Y426172D01*
X1078703Y426183D01*
X1078707Y426198D01*
X1078721Y426238D01*
X1078743Y426289D01*
X1078765Y426347D01*
X1078794Y426405D01*
X1078830Y426467D01*
X1078867Y426525D01*
X1078870Y426533D01*
X1078885Y426551D01*
X1078907Y426576D01*
X1078936Y426609D01*
X1078969Y426646D01*
X1079009Y426682D01*
X1079049Y426722D01*
X1079096Y426755D01*
X1079103Y426758D01*
X1079118Y426769D01*
X1079144Y426784D01*
X1079180Y426802D01*
X1079224Y426824D01*
X1079274Y426842D01*
X1079333Y426864D01*
X1079398Y426882D01*
X1079405D01*
X1079416Y426886D01*
X1079427Y426890D01*
X1079464Y426893D01*
X1079515Y426900D01*
X1079573Y426908D01*
X1079642Y426915D01*
X1079719Y426919D01*
X1079802Y426922D01*
X1080709D01*
Y424403D01*
D02*
G37*
G36*
X1078339Y426919D02*
Y426904D01*
Y426882D01*
X1078335Y426853D01*
X1078332Y426820D01*
X1078325Y426784D01*
X1078317Y426748D01*
X1078303Y426708D01*
Y426704D01*
X1078299Y426700D01*
X1078292Y426678D01*
X1078277Y426646D01*
X1078255Y426602D01*
X1078226Y426551D01*
X1078190Y426493D01*
X1078150Y426435D01*
X1078099Y426373D01*
Y426369D01*
X1078092Y426365D01*
X1078073Y426343D01*
X1078041Y426311D01*
X1077993Y426263D01*
X1077939Y426209D01*
X1077870Y426143D01*
X1077786Y426070D01*
X1077695Y425994D01*
X1077691Y425990D01*
X1077676Y425980D01*
X1077655Y425961D01*
X1077629Y425939D01*
X1077596Y425910D01*
X1077556Y425878D01*
X1077516Y425841D01*
X1077469Y425801D01*
X1077378Y425714D01*
X1077287Y425626D01*
X1077243Y425583D01*
X1077203Y425539D01*
X1077167Y425499D01*
X1077138Y425459D01*
Y425455D01*
X1077131Y425452D01*
X1077123Y425441D01*
X1077116Y425426D01*
X1077090Y425386D01*
X1077061Y425339D01*
X1077036Y425281D01*
X1077010Y425219D01*
X1076996Y425149D01*
X1076989Y425084D01*
Y425080D01*
Y425077D01*
X1076992Y425055D01*
X1076996Y425019D01*
X1077007Y424978D01*
X1077021Y424928D01*
X1077047Y424876D01*
X1077080Y424826D01*
X1077123Y424775D01*
X1077131Y424767D01*
X1077149Y424753D01*
X1077174Y424735D01*
X1077214Y424709D01*
X1077265Y424687D01*
X1077324Y424665D01*
X1077393Y424651D01*
X1077469Y424647D01*
X1077491D01*
X1077505Y424651D01*
X1077549Y424654D01*
X1077600Y424665D01*
X1077655Y424680D01*
X1077717Y424706D01*
X1077775Y424738D01*
X1077829Y424782D01*
X1077837Y424789D01*
X1077851Y424807D01*
X1077873Y424836D01*
X1077895Y424880D01*
X1077920Y424931D01*
X1077942Y424997D01*
X1077957Y425070D01*
X1077964Y425153D01*
X1078281Y425120D01*
Y425117D01*
X1078277Y425106D01*
Y425088D01*
X1078273Y425062D01*
X1078266Y425033D01*
X1078259Y425000D01*
X1078248Y424960D01*
X1078237Y424920D01*
X1078208Y424833D01*
X1078164Y424746D01*
X1078139Y424702D01*
X1078106Y424658D01*
X1078073Y424618D01*
X1078037Y424582D01*
X1078033Y424578D01*
X1078026Y424574D01*
X1078015Y424564D01*
X1077997Y424553D01*
X1077975Y424538D01*
X1077950Y424523D01*
X1077920Y424505D01*
X1077884Y424487D01*
X1077844Y424469D01*
X1077800Y424451D01*
X1077753Y424436D01*
X1077702Y424422D01*
X1077647Y424411D01*
X1077589Y424400D01*
X1077527Y424396D01*
X1077462Y424392D01*
X1077425D01*
X1077400Y424396D01*
X1077371Y424400D01*
X1077334Y424403D01*
X1077294Y424411D01*
X1077254Y424418D01*
X1077160Y424443D01*
X1077065Y424480D01*
X1077018Y424502D01*
X1076970Y424527D01*
X1076927Y424560D01*
X1076887Y424596D01*
X1076883Y424600D01*
X1076876Y424604D01*
X1076869Y424618D01*
X1076854Y424633D01*
X1076836Y424651D01*
X1076818Y424676D01*
X1076799Y424702D01*
X1076777Y424735D01*
X1076741Y424804D01*
X1076705Y424891D01*
X1076690Y424935D01*
X1076683Y424986D01*
X1076676Y425037D01*
X1076672Y425091D01*
Y425099D01*
Y425117D01*
X1076676Y425146D01*
X1076679Y425186D01*
X1076686Y425230D01*
X1076701Y425281D01*
X1076716Y425335D01*
X1076737Y425390D01*
X1076741Y425397D01*
X1076748Y425415D01*
X1076763Y425444D01*
X1076785Y425484D01*
X1076814Y425528D01*
X1076850Y425583D01*
X1076894Y425637D01*
X1076945Y425699D01*
X1076952Y425706D01*
X1076970Y425728D01*
X1076989Y425746D01*
X1077007Y425765D01*
X1077029Y425786D01*
X1077058Y425816D01*
X1077087Y425845D01*
X1077123Y425878D01*
X1077160Y425914D01*
X1077203Y425954D01*
X1077251Y425994D01*
X1077302Y426041D01*
X1077360Y426089D01*
X1077418Y426140D01*
X1077422Y426143D01*
X1077429Y426151D01*
X1077444Y426161D01*
X1077462Y426176D01*
X1077484Y426198D01*
X1077509Y426220D01*
X1077567Y426267D01*
X1077629Y426322D01*
X1077687Y426376D01*
X1077738Y426424D01*
X1077760Y426442D01*
X1077779Y426460D01*
X1077782Y426464D01*
X1077793Y426475D01*
X1077808Y426489D01*
X1077826Y426511D01*
X1077844Y426536D01*
X1077866Y426562D01*
X1077909Y426624D01*
X1076668D01*
Y426922D01*
X1078339D01*
Y426919D01*
D02*
G37*
%LPC*%
G36*
X1080374Y442372D02*
X1079777D01*
X1079751Y442368D01*
X1079697Y442365D01*
X1079635Y442361D01*
X1079569Y442354D01*
X1079504Y442343D01*
X1079449Y442328D01*
X1079442Y442324D01*
X1079424Y442321D01*
X1079398Y442310D01*
X1079366Y442295D01*
X1079329Y442274D01*
X1079293Y442252D01*
X1079256Y442226D01*
X1079220Y442197D01*
X1079216Y442190D01*
X1079202Y442175D01*
X1079180Y442150D01*
X1079154Y442113D01*
X1079125Y442066D01*
X1079093Y442011D01*
X1079063Y441950D01*
X1079038Y441880D01*
Y441877D01*
X1079034Y441869D01*
X1079031Y441858D01*
X1079027Y441844D01*
X1079023Y441826D01*
X1079016Y441800D01*
X1079009Y441775D01*
X1079002Y441746D01*
X1078991Y441673D01*
X1078980Y441589D01*
X1078972Y441495D01*
X1078969Y441393D01*
Y441389D01*
Y441374D01*
Y441356D01*
X1078972Y441327D01*
Y441294D01*
X1078976Y441258D01*
X1078980Y441214D01*
X1078983Y441171D01*
X1079002Y441072D01*
X1079023Y440970D01*
X1079056Y440876D01*
X1079078Y440828D01*
X1079100Y440788D01*
Y440785D01*
X1079107Y440777D01*
X1079114Y440766D01*
X1079122Y440752D01*
X1079151Y440716D01*
X1079187Y440672D01*
X1079235Y440625D01*
X1079289Y440577D01*
X1079351Y440537D01*
X1079416Y440505D01*
X1079424Y440501D01*
X1079442Y440497D01*
X1079475Y440486D01*
X1079522Y440475D01*
X1079580Y440468D01*
X1079653Y440457D01*
X1079697Y440453D01*
X1079744D01*
X1079791Y440450D01*
X1080374D01*
Y442372D01*
D02*
G37*
G36*
Y365600D02*
X1079777D01*
X1079751Y365597D01*
X1079697Y365593D01*
X1079635Y365589D01*
X1079569Y365582D01*
X1079504Y365571D01*
X1079449Y365556D01*
X1079442Y365553D01*
X1079424Y365549D01*
X1079398Y365538D01*
X1079366Y365524D01*
X1079329Y365502D01*
X1079293Y365480D01*
X1079256Y365455D01*
X1079220Y365425D01*
X1079216Y365418D01*
X1079202Y365404D01*
X1079180Y365378D01*
X1079154Y365342D01*
X1079125Y365294D01*
X1079093Y365240D01*
X1079063Y365178D01*
X1079038Y365109D01*
Y365105D01*
X1079034Y365098D01*
X1079031Y365087D01*
X1079027Y365072D01*
X1079023Y365054D01*
X1079016Y365029D01*
X1079009Y365003D01*
X1079002Y364974D01*
X1078991Y364901D01*
X1078980Y364818D01*
X1078972Y364723D01*
X1078969Y364621D01*
Y364617D01*
Y364603D01*
Y364585D01*
X1078972Y364555D01*
Y364523D01*
X1078976Y364486D01*
X1078980Y364443D01*
X1078983Y364399D01*
X1079002Y364301D01*
X1079023Y364199D01*
X1079056Y364104D01*
X1079078Y364057D01*
X1079100Y364017D01*
Y364013D01*
X1079107Y364006D01*
X1079114Y363995D01*
X1079122Y363980D01*
X1079151Y363944D01*
X1079187Y363900D01*
X1079235Y363853D01*
X1079289Y363806D01*
X1079351Y363766D01*
X1079416Y363733D01*
X1079424Y363729D01*
X1079442Y363725D01*
X1079475Y363715D01*
X1079522Y363704D01*
X1079580Y363696D01*
X1079653Y363685D01*
X1079697Y363682D01*
X1079744D01*
X1079791Y363678D01*
X1080374D01*
Y365600D01*
D02*
G37*
G36*
X1078099Y365010D02*
X1077305D01*
Y363882D01*
X1078099Y365010D01*
D02*
G37*
G36*
X1077440Y397140D02*
X1077422D01*
X1077407Y397136D01*
X1077371Y397133D01*
X1077324Y397122D01*
X1077273Y397100D01*
X1077214Y397074D01*
X1077156Y397034D01*
X1077127Y397012D01*
X1077101Y396983D01*
Y396980D01*
X1077094Y396976D01*
X1077080Y396954D01*
X1077058Y396918D01*
X1077029Y396870D01*
X1077003Y396809D01*
X1076981Y396736D01*
X1076967Y396652D01*
X1076960Y396554D01*
Y396550D01*
Y396543D01*
Y396528D01*
X1076963Y396510D01*
Y396488D01*
X1076967Y396463D01*
X1076978Y396405D01*
X1076992Y396339D01*
X1077018Y396270D01*
X1077054Y396204D01*
X1077101Y396143D01*
X1077109Y396135D01*
X1077127Y396117D01*
X1077156Y396095D01*
X1077196Y396066D01*
X1077247Y396037D01*
X1077305Y396015D01*
X1077374Y395997D01*
X1077451Y395990D01*
X1077473D01*
X1077487Y395993D01*
X1077524Y395997D01*
X1077575Y396008D01*
X1077629Y396026D01*
X1077691Y396055D01*
X1077749Y396092D01*
X1077808Y396143D01*
X1077815Y396150D01*
X1077829Y396168D01*
X1077855Y396201D01*
X1077880Y396248D01*
X1077906Y396303D01*
X1077931Y396372D01*
X1077946Y396448D01*
X1077953Y396536D01*
Y396543D01*
Y396561D01*
X1077950Y396594D01*
X1077946Y396634D01*
X1077939Y396681D01*
X1077924Y396732D01*
X1077909Y396787D01*
X1077888Y396841D01*
X1077884Y396849D01*
X1077873Y396867D01*
X1077859Y396892D01*
X1077837Y396925D01*
X1077811Y396958D01*
X1077779Y396998D01*
X1077742Y397031D01*
X1077698Y397063D01*
X1077691Y397067D01*
X1077676Y397074D01*
X1077651Y397089D01*
X1077618Y397100D01*
X1077582Y397114D01*
X1077538Y397129D01*
X1077491Y397136D01*
X1077440Y397140D01*
D02*
G37*
G36*
X1080374Y397053D02*
X1079777D01*
X1079751Y397049D01*
X1079697Y397045D01*
X1079635Y397042D01*
X1079569Y397034D01*
X1079504Y397023D01*
X1079449Y397009D01*
X1079442Y397005D01*
X1079424Y397002D01*
X1079398Y396991D01*
X1079366Y396976D01*
X1079329Y396954D01*
X1079293Y396932D01*
X1079256Y396907D01*
X1079220Y396878D01*
X1079216Y396870D01*
X1079202Y396856D01*
X1079180Y396831D01*
X1079154Y396794D01*
X1079125Y396747D01*
X1079093Y396692D01*
X1079063Y396630D01*
X1079038Y396561D01*
Y396557D01*
X1079034Y396550D01*
X1079031Y396539D01*
X1079027Y396525D01*
X1079023Y396507D01*
X1079016Y396481D01*
X1079009Y396456D01*
X1079002Y396426D01*
X1078991Y396354D01*
X1078980Y396270D01*
X1078972Y396175D01*
X1078969Y396073D01*
Y396070D01*
Y396055D01*
Y396037D01*
X1078972Y396008D01*
Y395975D01*
X1078976Y395939D01*
X1078980Y395895D01*
X1078983Y395851D01*
X1079002Y395753D01*
X1079023Y395651D01*
X1079056Y395556D01*
X1079078Y395509D01*
X1079100Y395469D01*
Y395465D01*
X1079107Y395458D01*
X1079114Y395447D01*
X1079122Y395433D01*
X1079151Y395396D01*
X1079187Y395353D01*
X1079235Y395305D01*
X1079289Y395258D01*
X1079351Y395218D01*
X1079416Y395185D01*
X1079424Y395181D01*
X1079442Y395178D01*
X1079475Y395167D01*
X1079522Y395156D01*
X1079580Y395149D01*
X1079653Y395138D01*
X1079697Y395134D01*
X1079744D01*
X1079791Y395131D01*
X1080374D01*
Y397053D01*
D02*
G37*
G36*
Y350793D02*
X1079777D01*
X1079751Y350789D01*
X1079697Y350785D01*
X1079635Y350782D01*
X1079569Y350775D01*
X1079504Y350764D01*
X1079449Y350749D01*
X1079442Y350745D01*
X1079424Y350742D01*
X1079398Y350731D01*
X1079366Y350716D01*
X1079329Y350694D01*
X1079293Y350673D01*
X1079256Y350647D01*
X1079220Y350618D01*
X1079216Y350611D01*
X1079202Y350596D01*
X1079180Y350571D01*
X1079154Y350534D01*
X1079125Y350487D01*
X1079093Y350432D01*
X1079063Y350370D01*
X1079038Y350301D01*
Y350298D01*
X1079034Y350290D01*
X1079031Y350279D01*
X1079027Y350265D01*
X1079023Y350247D01*
X1079016Y350221D01*
X1079009Y350196D01*
X1079002Y350167D01*
X1078991Y350094D01*
X1078980Y350010D01*
X1078972Y349915D01*
X1078969Y349814D01*
Y349810D01*
Y349795D01*
Y349777D01*
X1078972Y349748D01*
Y349715D01*
X1078976Y349679D01*
X1078980Y349635D01*
X1078983Y349591D01*
X1079002Y349493D01*
X1079023Y349391D01*
X1079056Y349297D01*
X1079078Y349249D01*
X1079100Y349209D01*
Y349206D01*
X1079107Y349198D01*
X1079114Y349187D01*
X1079122Y349173D01*
X1079151Y349136D01*
X1079187Y349093D01*
X1079235Y349045D01*
X1079289Y348998D01*
X1079351Y348958D01*
X1079416Y348925D01*
X1079424Y348922D01*
X1079442Y348918D01*
X1079475Y348907D01*
X1079522Y348896D01*
X1079580Y348889D01*
X1079653Y348878D01*
X1079697Y348874D01*
X1079744D01*
X1079791Y348871D01*
X1080374D01*
Y350793D01*
D02*
G37*
G36*
Y381304D02*
X1079777D01*
X1079751Y381301D01*
X1079697Y381297D01*
X1079635Y381294D01*
X1079569Y381286D01*
X1079504Y381275D01*
X1079449Y381261D01*
X1079442Y381257D01*
X1079424Y381254D01*
X1079398Y381243D01*
X1079366Y381228D01*
X1079329Y381206D01*
X1079293Y381184D01*
X1079256Y381159D01*
X1079220Y381130D01*
X1079216Y381122D01*
X1079202Y381108D01*
X1079180Y381082D01*
X1079154Y381046D01*
X1079125Y380999D01*
X1079093Y380944D01*
X1079063Y380882D01*
X1079038Y380813D01*
Y380809D01*
X1079034Y380802D01*
X1079031Y380791D01*
X1079027Y380777D01*
X1079023Y380758D01*
X1079016Y380733D01*
X1079009Y380708D01*
X1079002Y380678D01*
X1078991Y380606D01*
X1078980Y380522D01*
X1078972Y380427D01*
X1078969Y380325D01*
Y380322D01*
Y380307D01*
Y380289D01*
X1078972Y380260D01*
Y380227D01*
X1078976Y380191D01*
X1078980Y380147D01*
X1078983Y380103D01*
X1079002Y380005D01*
X1079023Y379903D01*
X1079056Y379808D01*
X1079078Y379761D01*
X1079100Y379721D01*
Y379717D01*
X1079107Y379710D01*
X1079114Y379699D01*
X1079122Y379685D01*
X1079151Y379648D01*
X1079187Y379605D01*
X1079235Y379557D01*
X1079289Y379510D01*
X1079351Y379470D01*
X1079416Y379437D01*
X1079424Y379433D01*
X1079442Y379430D01*
X1079475Y379419D01*
X1079522Y379408D01*
X1079580Y379401D01*
X1079653Y379390D01*
X1079697Y379386D01*
X1079744D01*
X1079791Y379382D01*
X1080374D01*
Y381304D01*
D02*
G37*
G36*
Y411860D02*
X1079777D01*
X1079751Y411856D01*
X1079697Y411853D01*
X1079635Y411849D01*
X1079569Y411842D01*
X1079504Y411831D01*
X1079449Y411816D01*
X1079442Y411813D01*
X1079424Y411809D01*
X1079398Y411798D01*
X1079366Y411784D01*
X1079329Y411762D01*
X1079293Y411740D01*
X1079256Y411714D01*
X1079220Y411685D01*
X1079216Y411678D01*
X1079202Y411663D01*
X1079180Y411638D01*
X1079154Y411601D01*
X1079125Y411554D01*
X1079093Y411500D01*
X1079063Y411438D01*
X1079038Y411369D01*
Y411365D01*
X1079034Y411358D01*
X1079031Y411347D01*
X1079027Y411332D01*
X1079023Y411314D01*
X1079016Y411288D01*
X1079009Y411263D01*
X1079002Y411234D01*
X1078991Y411161D01*
X1078980Y411077D01*
X1078972Y410983D01*
X1078969Y410881D01*
Y410877D01*
Y410863D01*
Y410844D01*
X1078972Y410815D01*
Y410782D01*
X1078976Y410746D01*
X1078980Y410702D01*
X1078983Y410659D01*
X1079002Y410561D01*
X1079023Y410459D01*
X1079056Y410364D01*
X1079078Y410317D01*
X1079100Y410277D01*
Y410273D01*
X1079107Y410266D01*
X1079114Y410255D01*
X1079122Y410240D01*
X1079151Y410204D01*
X1079187Y410160D01*
X1079235Y410113D01*
X1079289Y410065D01*
X1079351Y410025D01*
X1079416Y409993D01*
X1079424Y409989D01*
X1079442Y409985D01*
X1079475Y409974D01*
X1079522Y409964D01*
X1079580Y409956D01*
X1079653Y409945D01*
X1079697Y409942D01*
X1079744D01*
X1079791Y409938D01*
X1080374D01*
Y411860D01*
D02*
G37*
G36*
Y426624D02*
X1079777D01*
X1079751Y426620D01*
X1079697Y426616D01*
X1079635Y426613D01*
X1079569Y426606D01*
X1079504Y426595D01*
X1079449Y426580D01*
X1079442Y426576D01*
X1079424Y426573D01*
X1079398Y426562D01*
X1079366Y426547D01*
X1079329Y426525D01*
X1079293Y426504D01*
X1079256Y426478D01*
X1079220Y426449D01*
X1079216Y426442D01*
X1079202Y426427D01*
X1079180Y426402D01*
X1079154Y426365D01*
X1079125Y426318D01*
X1079093Y426263D01*
X1079063Y426201D01*
X1079038Y426132D01*
Y426129D01*
X1079034Y426121D01*
X1079031Y426111D01*
X1079027Y426096D01*
X1079023Y426078D01*
X1079016Y426052D01*
X1079009Y426027D01*
X1079002Y425998D01*
X1078991Y425925D01*
X1078980Y425841D01*
X1078972Y425746D01*
X1078969Y425645D01*
Y425641D01*
Y425626D01*
Y425608D01*
X1078972Y425579D01*
Y425546D01*
X1078976Y425510D01*
X1078980Y425466D01*
X1078983Y425422D01*
X1079002Y425324D01*
X1079023Y425222D01*
X1079056Y425128D01*
X1079078Y425080D01*
X1079100Y425040D01*
Y425037D01*
X1079107Y425029D01*
X1079114Y425019D01*
X1079122Y425004D01*
X1079151Y424967D01*
X1079187Y424924D01*
X1079235Y424876D01*
X1079289Y424829D01*
X1079351Y424789D01*
X1079416Y424756D01*
X1079424Y424753D01*
X1079442Y424749D01*
X1079475Y424738D01*
X1079522Y424727D01*
X1079580Y424720D01*
X1079653Y424709D01*
X1079697Y424706D01*
X1079744D01*
X1079791Y424702D01*
X1080374D01*
Y426624D01*
D02*
G37*
%LPD*%
D13*
X1075787Y439764D02*
X1085630D01*
X1075787D02*
Y444095D01*
X1085630D01*
Y439764D02*
Y444095D01*
X1075787Y362992D02*
X1085630D01*
X1075787D02*
Y367323D01*
X1085630D01*
Y362992D02*
Y367323D01*
X1075787Y394488D02*
X1085630D01*
X1075787D02*
Y398819D01*
X1085630D01*
Y394488D02*
Y398819D01*
X1075787Y348228D02*
X1085630D01*
X1075787D02*
Y352559D01*
X1085630D01*
Y348228D02*
Y352559D01*
X1075787Y378740D02*
X1085630D01*
X1075787D02*
Y383071D01*
X1085630D01*
Y378740D02*
Y383071D01*
X1075787Y409252D02*
X1085630D01*
X1075787D02*
Y413583D01*
X1085630D01*
Y409252D02*
Y413583D01*
X1075787Y424016D02*
X1085630D01*
X1075787D02*
Y428346D01*
X1085630D01*
Y424016D02*
Y428346D01*
M02*
