G04*
G04 #@! TF.GenerationSoftware,Altium Limited,Altium Designer,24.1.2 (44)*
G04*
G04 Layer_Color=0*
%FSLAX25Y25*%
%MOIN*%
G70*
G04*
G04 #@! TF.SameCoordinates,A85318EA-E4D8-42E9-B0A6-CF3BD3DAF5E5*
G04*
G04*
G04 #@! TF.FilePolarity,Positive*
G04*
G01*
G75*
%ADD16C,0.00394*%
%ADD57C,0.00197*%
D16*
X1078740Y441929D02*
X1082677D01*
X1080709Y439961D02*
Y443898D01*
X1078740Y365158D02*
X1082677D01*
X1080709Y363189D02*
Y367126D01*
X1078740Y396654D02*
X1082677D01*
X1080709Y394685D02*
Y398622D01*
X1078740Y350394D02*
X1082677D01*
X1080709Y348425D02*
Y352362D01*
X1078740Y380906D02*
X1082677D01*
X1080709Y378937D02*
Y382874D01*
X1078740Y411417D02*
X1082677D01*
X1080709Y409449D02*
Y413386D01*
X1078740Y426181D02*
X1082677D01*
X1080709Y424213D02*
Y428150D01*
D57*
X1062008Y628937D02*
Y632874D01*
X1060039Y630905D02*
X1063976D01*
X979331Y398622D02*
X983268D01*
X981299Y396654D02*
Y400591D01*
X966491Y398657D02*
X970428D01*
X968460Y396688D02*
Y400625D01*
X953696Y398657D02*
X957633D01*
X955664Y396688D02*
Y400625D01*
M02*
