G04*
G04 #@! TF.GenerationSoftware,Altium Limited,Altium Designer,24.1.2 (44)*
G04*
G04 Layer_Color=65535*
%FSLAX25Y25*%
%MOIN*%
G70*
G04*
G04 #@! TF.SameCoordinates,A85318EA-E4D8-42E9-B0A6-CF3BD3DAF5E5*
G04*
G04*
G04 #@! TF.FilePolarity,Positive*
G04*
G01*
G75*
%ADD10C,0.00984*%
%ADD11C,0.02000*%
%ADD12C,0.01000*%
%ADD13C,0.00787*%
%ADD14C,0.00600*%
%ADD15C,0.01575*%
%ADD16C,0.00394*%
G36*
X785508Y786846D02*
X785786Y786828D01*
X785833Y786816D01*
X785928Y786804D01*
X785999Y786793D01*
X786046Y786781D01*
X786176Y786757D01*
X786271Y786733D01*
X786330Y786722D01*
X786467Y786680D01*
X786721Y786591D01*
X786780Y786568D01*
X786910Y786520D01*
X786952Y786503D01*
X787224Y786373D01*
X787330Y786313D01*
X787461Y786242D01*
X787532Y786195D01*
X787638Y786136D01*
X787662Y786112D01*
X787685Y786100D01*
X787709Y786077D01*
X787733Y786065D01*
X787910Y785947D01*
X787981Y785876D01*
X788005Y785864D01*
X788029Y785840D01*
X788052Y785828D01*
X788135Y785769D01*
X788159Y785757D01*
X788289Y785627D01*
X788313Y785615D01*
X788348Y785580D01*
X788372Y785568D01*
X788467Y785473D01*
X788490Y785461D01*
X788614Y785337D01*
X788626Y785313D01*
X788827Y785112D01*
X788839Y785088D01*
X788916Y784976D01*
X788940Y784952D01*
X788964Y784941D01*
X789005Y784899D01*
X789017Y784875D01*
X789076Y784793D01*
X789088Y784769D01*
X789112Y784745D01*
X789123Y784722D01*
X789159Y784686D01*
X789230Y784556D01*
X789289Y784497D01*
X789301Y784473D01*
X789325Y784449D01*
X789384Y784343D01*
X789466Y784213D01*
X789632Y783870D01*
X789727Y783668D01*
X789756Y783592D01*
X789786Y783526D01*
X789798Y783479D01*
X789810Y783443D01*
X789821Y783396D01*
X789851Y783319D01*
X789863Y783272D01*
X789881Y783207D01*
X789898Y783130D01*
X789922Y783071D01*
X789952Y782994D01*
X789964Y782946D01*
X789981Y782846D01*
X789993Y782751D01*
X790011Y782639D01*
X790058Y782532D01*
X790094Y782284D01*
X790123Y782148D01*
X790135Y782100D01*
X790147Y782041D01*
X790153Y781822D01*
X790100Y781722D01*
X790076Y781710D01*
X790017Y781686D01*
X789863Y781698D01*
X789804Y781722D01*
X789674Y781793D01*
X789656Y781810D01*
X789644Y781834D01*
X789608Y781870D01*
X789597Y781893D01*
X789543Y781947D01*
X789520Y781958D01*
X789455Y782023D01*
X789443Y782047D01*
X789390Y782124D01*
X789366Y782136D01*
X789342Y782160D01*
X789319Y782171D01*
X789236Y782231D01*
X789141Y782325D01*
X789117Y782337D01*
X789035Y782384D01*
X788952Y782444D01*
X788928Y782455D01*
X788774Y782562D01*
X788668Y782621D01*
X788585Y782680D01*
X788336Y782798D01*
X788313Y782810D01*
X788088Y782917D01*
X787975Y782958D01*
X787875Y783000D01*
X787816Y783023D01*
X787703Y783065D01*
X787466Y783124D01*
X787407Y783136D01*
X787307Y783165D01*
X787117Y783213D01*
X787035Y783225D01*
X786881Y783236D01*
X786833Y783248D01*
X786715Y783260D01*
X786555Y783278D01*
X786171Y783284D01*
X786135Y783272D01*
X785816Y783260D01*
X785780Y783248D01*
X785567Y783236D01*
X785532Y783225D01*
X785466Y783207D01*
X785366Y783177D01*
X785200Y783154D01*
X785141Y783130D01*
X785076Y783112D01*
X785029Y783100D01*
X784969Y783077D01*
X784893Y783035D01*
X784745Y782982D01*
X784656Y782929D01*
X784526Y782881D01*
X784443Y782822D01*
X784324Y782775D01*
X784301Y782763D01*
X784182Y782680D01*
X784052Y782609D01*
X784034Y782591D01*
X784023Y782568D01*
X783946Y782491D01*
X783922Y782479D01*
X783815Y782396D01*
X783709Y782290D01*
X783685Y782278D01*
X783520Y782112D01*
X783496Y782100D01*
X783419Y782047D01*
X783407Y782023D01*
X783283Y781899D01*
X783177Y781840D01*
X783147Y781810D01*
X783135Y781787D01*
X783011Y781662D01*
X782987Y781651D01*
X782969Y781633D01*
X782958Y781609D01*
X782910Y781526D01*
X782857Y781461D01*
X782827Y781420D01*
X782674Y781124D01*
X782626Y781053D01*
X782531Y780875D01*
X782419Y780763D01*
X782395Y780751D01*
X782336Y780692D01*
X782242Y780668D01*
X782147Y780692D01*
X782064Y780739D01*
X781999Y780793D01*
X781963Y780875D01*
X781952Y780958D01*
X781969Y781071D01*
X781981Y781118D01*
X782040Y781284D01*
X782094Y781384D01*
X782153Y781467D01*
X782182Y781544D01*
X782200Y781562D01*
X782212Y781586D01*
X782389Y781834D01*
X782401Y781858D01*
X782455Y781923D01*
X782484Y781952D01*
X782496Y781976D01*
X782520Y782000D01*
X782531Y782023D01*
X782608Y782136D01*
X782668Y782207D01*
X782733Y782272D01*
X782745Y782296D01*
X782780Y782331D01*
X782792Y782355D01*
X782845Y782420D01*
X782916Y782491D01*
X782940Y782503D01*
X782969Y782544D01*
X782993Y782568D01*
X783005Y782591D01*
X783070Y782656D01*
X783094Y782668D01*
X783182Y782733D01*
X783194Y782757D01*
X783295Y782858D01*
X783319Y782870D01*
X783342Y782893D01*
X783366Y782905D01*
X783390Y782929D01*
X783413Y782941D01*
X783449Y782976D01*
X783579Y783047D01*
X783603Y783071D01*
X783626Y783083D01*
X783697Y783154D01*
X783721Y783165D01*
X783804Y783225D01*
X783827Y783236D01*
X783910Y783296D01*
X784017Y783343D01*
X784100Y783390D01*
X784277Y783473D01*
X784301Y783485D01*
X784395Y783544D01*
X784443Y783556D01*
X784478Y783568D01*
X784537Y783592D01*
X784561Y783603D01*
X784691Y783663D01*
X784822Y783698D01*
X784869Y783710D01*
X784952Y783722D01*
X785017Y783739D01*
X785141Y783793D01*
X785236Y783816D01*
X785354Y783852D01*
X785508Y783864D01*
X785567Y783887D01*
X785662Y783911D01*
X785816Y783923D01*
X785863Y783935D01*
X786017Y783947D01*
X786052Y783958D01*
X786632Y783970D01*
X786916Y783958D01*
X786952Y783947D01*
X787135Y783929D01*
X787230Y783917D01*
X787348Y783893D01*
X787395Y783881D01*
X787455Y783870D01*
X787549Y783846D01*
X787620Y783834D01*
X787679Y783822D01*
X787727Y783810D01*
X787792Y783793D01*
X787851Y783769D01*
X787934Y783734D01*
X788017Y783710D01*
X788182Y783651D01*
X788277Y783592D01*
X788360Y783556D01*
X788609Y783426D01*
X788691Y783367D01*
X788940Y783248D01*
X788987Y783236D01*
X789052Y783266D01*
X789076Y783325D01*
X789064Y783420D01*
X789017Y783538D01*
X788987Y783615D01*
X788910Y783763D01*
X788898Y783787D01*
X788822Y783899D01*
X788792Y783929D01*
X788780Y783952D01*
X788721Y784059D01*
X788614Y784213D01*
X788603Y784248D01*
X788490Y784396D01*
X788443Y784467D01*
X788319Y784591D01*
X788307Y784615D01*
X788230Y784728D01*
X788171Y784787D01*
X788147Y784799D01*
X788082Y784864D01*
X788029Y784952D01*
X788005Y784964D01*
X787958Y785012D01*
X787934Y785023D01*
X787869Y785077D01*
X787816Y785142D01*
X787780Y785177D01*
X787650Y785248D01*
X787614Y785284D01*
X787591Y785296D01*
X787567Y785319D01*
X787543Y785331D01*
X787520Y785355D01*
X787342Y785450D01*
X787319Y785473D01*
X787141Y785556D01*
X787082Y785580D01*
X787005Y785609D01*
X786946Y785633D01*
X786851Y785668D01*
X786751Y785710D01*
X786656Y785734D01*
X786573Y785757D01*
X786526Y785769D01*
X786460Y785787D01*
X786366Y785822D01*
X786301Y785840D01*
X786058Y785870D01*
X785916Y785893D01*
X785857Y785905D01*
X785810Y785917D01*
X785691Y785929D01*
X785549Y785941D01*
X784798Y785947D01*
X784762Y785935D01*
X784537Y785923D01*
X784236Y785893D01*
X784094Y785870D01*
X783934Y785852D01*
X783839Y785840D01*
X783804Y785828D01*
X783721Y785805D01*
X783561Y785787D01*
X783496Y785769D01*
X783449Y785757D01*
X783372Y785739D01*
X783313Y785716D01*
X783212Y785686D01*
X783040Y785657D01*
X782993Y785645D01*
X782928Y785627D01*
X782881Y785615D01*
X782703Y785532D01*
X782626Y785515D01*
X782496Y785455D01*
X782401Y785432D01*
X782307Y785396D01*
X782230Y785367D01*
X782117Y785325D01*
X782099Y785308D01*
X782040Y785284D01*
X781910Y785236D01*
X781815Y785177D01*
X781739Y785148D01*
X781697Y785130D01*
X781531Y785012D01*
X781449Y784964D01*
X781330Y784881D01*
X781177Y784799D01*
X781129Y784751D01*
X781023Y784692D01*
X780946Y784615D01*
X780934Y784591D01*
X780881Y784538D01*
X780774Y784479D01*
X780721Y784426D01*
X780709Y784402D01*
X780685Y784378D01*
X780674Y784355D01*
X780632Y784313D01*
X780608Y784302D01*
X780532Y784225D01*
X780520Y784201D01*
X780407Y784053D01*
X780378Y784012D01*
X780354Y783988D01*
X780271Y783834D01*
X780153Y783586D01*
X780117Y783467D01*
X780070Y783278D01*
X780058Y783195D01*
X780046Y783148D01*
X780058Y782698D01*
X780070Y782662D01*
X780088Y782467D01*
X780099Y782325D01*
X780111Y782195D01*
X780129Y782035D01*
X780141Y781905D01*
X780176Y781822D01*
X780194Y781745D01*
X780206Y781639D01*
X780230Y781497D01*
X780241Y781438D01*
X780307Y781301D01*
X780330Y781207D01*
X780378Y781088D01*
X780401Y780994D01*
X780461Y780840D01*
X780472Y780793D01*
X780502Y780716D01*
X780555Y780627D01*
X780573Y780550D01*
X780597Y780491D01*
X780662Y780367D01*
X780703Y780254D01*
X780768Y780130D01*
X780798Y780053D01*
X780821Y779994D01*
X780887Y779870D01*
X780916Y779793D01*
X780940Y779733D01*
X780958Y779716D01*
X780993Y779633D01*
X781017Y779574D01*
X781046Y779497D01*
X781088Y779396D01*
X781100Y779313D01*
X781135Y779112D01*
X781123Y778994D01*
X781070Y778929D01*
X781046Y778917D01*
X780987Y778893D01*
X780940Y778881D01*
X780857Y778893D01*
X780810Y778905D01*
X780750Y778929D01*
X780668Y778976D01*
X780644Y779000D01*
X780620Y779011D01*
X780597Y779035D01*
X780573Y779047D01*
X780537Y779082D01*
X780514Y779094D01*
X780490Y779118D01*
X780466Y779130D01*
X780425Y779171D01*
X780413Y779195D01*
X780247Y779361D01*
X780236Y779384D01*
X780176Y779491D01*
X780135Y779532D01*
X780111Y779544D01*
X780070Y779586D01*
X780058Y779609D01*
X780011Y779692D01*
X779934Y779804D01*
X779839Y779994D01*
X779792Y780065D01*
X779744Y780195D01*
X779715Y780225D01*
X779703Y780248D01*
X779668Y780284D01*
X779608Y780390D01*
X779567Y780420D01*
X779455Y780497D01*
X779378Y780538D01*
X779283Y780562D01*
X779046Y780550D01*
X778940Y780503D01*
X778827Y780461D01*
X778679Y780384D01*
X778525Y780302D01*
X778454Y780254D01*
X778348Y780195D01*
X778283Y780142D01*
X778230Y780089D01*
X778206Y780077D01*
X778182Y780053D01*
X778159Y780041D01*
X778135Y780018D01*
X778111Y780006D01*
X778076Y779970D01*
X778052Y779958D01*
X778028Y779935D01*
X778005Y779923D01*
X777940Y779870D01*
X777845Y779775D01*
X777839Y779757D01*
X777815Y779745D01*
X777780Y779710D01*
X777756Y779698D01*
X777715Y779657D01*
X777703Y779633D01*
X777679Y779609D01*
X777668Y779586D01*
X777644Y779562D01*
X777608Y779503D01*
X777555Y779438D01*
X777537Y779420D01*
X777526Y779396D01*
X777502Y779373D01*
X777407Y779171D01*
X777336Y779006D01*
X777313Y778911D01*
X777295Y778798D01*
X777289Y778591D01*
X777301Y778556D01*
X777313Y778449D01*
X777384Y778296D01*
X777466Y778142D01*
X777490Y778118D01*
X777502Y778094D01*
X777626Y777970D01*
X777650Y777958D01*
X777673Y777935D01*
X777780Y777875D01*
X777863Y777816D01*
X778017Y777769D01*
X778064Y777757D01*
X778182Y777722D01*
X778230Y777710D01*
X778395Y777686D01*
X778514Y777674D01*
X778839Y777692D01*
X779064Y777728D01*
X779129Y777745D01*
X779176Y777757D01*
X779259Y777769D01*
X779348Y777787D01*
X779466Y777834D01*
X779514Y777846D01*
X779632Y777893D01*
X779709Y777923D01*
X779756Y777935D01*
X779886Y777994D01*
X779981Y778017D01*
X780058Y778047D01*
X780099Y778065D01*
X780159Y778088D01*
X780312Y778136D01*
X780318Y778142D01*
X780466Y778207D01*
X780532Y778225D01*
X780597Y778254D01*
X780750Y778301D01*
X780833Y778337D01*
X780910Y778355D01*
X780981Y778367D01*
X781029Y778378D01*
X781088Y778402D01*
X781153Y778432D01*
X781230Y778449D01*
X781277Y778461D01*
X781378Y778491D01*
X781490Y778509D01*
X781537Y778520D01*
X781614Y778550D01*
X781715Y778568D01*
X781762Y778580D01*
X781821Y778591D01*
X782034Y778627D01*
X782135Y778656D01*
X782182Y778668D01*
X782360Y778680D01*
X782395Y778692D01*
X782478Y778704D01*
X782597Y778716D01*
X782786Y778727D01*
X782822Y778739D01*
X782869Y778751D01*
X783023Y778739D01*
X783141Y778751D01*
X783253Y778745D01*
X783520Y778751D01*
X783555Y778739D01*
X783863Y778727D01*
X783898Y778716D01*
X783999Y778698D01*
X784070Y778686D01*
X784188Y778662D01*
X784283Y778639D01*
X784348Y778621D01*
X784431Y778597D01*
X784478Y778585D01*
X784537Y778562D01*
X784703Y778491D01*
X784857Y778408D01*
X784940Y778349D01*
X784964Y778337D01*
X785076Y778260D01*
X785324Y778012D01*
X785407Y777858D01*
X785466Y777728D01*
X785496Y777651D01*
X785526Y777586D01*
X785537Y777503D01*
X785549Y777384D01*
X785626Y777284D01*
X785650Y777272D01*
X785709Y777248D01*
X785756Y777236D01*
X785875Y777224D01*
X786171Y777213D01*
X786603Y777230D01*
X786822Y777248D01*
X786881Y777272D01*
X786946Y777290D01*
X786993Y777325D01*
X787005Y777372D01*
X786993Y777432D01*
X786940Y777485D01*
X786916Y777497D01*
X786893Y777520D01*
X786869Y777532D01*
X786804Y777586D01*
X786680Y777651D01*
X786573Y777710D01*
X786502Y777757D01*
X786478Y777769D01*
X786111Y777958D01*
X785958Y778029D01*
X785875Y778077D01*
X785851Y778100D01*
X785827Y778112D01*
X785733Y778171D01*
X785603Y778242D01*
X785549Y778296D01*
X785537Y778319D01*
X785466Y778390D01*
X785455Y778414D01*
X785431Y778473D01*
X785419Y778520D01*
X785431Y778722D01*
X785484Y778787D01*
X785543Y778810D01*
X785591Y778822D01*
X785709Y778810D01*
X785768Y778787D01*
X785952Y778722D01*
X786123Y778645D01*
X786253Y778585D01*
X786313Y778562D01*
X786336Y778550D01*
X786561Y778443D01*
X786620Y778420D01*
X786839Y778343D01*
X786898Y778319D01*
X787023Y778266D01*
X787100Y778248D01*
X787147Y778236D01*
X787212Y778219D01*
X787330Y778171D01*
X787378Y778159D01*
X787579Y778124D01*
X787674Y778100D01*
X787786Y778083D01*
X787881Y778059D01*
X788046Y778047D01*
X788094Y778035D01*
X788171Y778029D01*
X788206Y778041D01*
X788396Y778029D01*
X788431Y778041D01*
X788514Y778053D01*
X788561Y778065D01*
X788680Y778077D01*
X788739Y778100D01*
X788786Y778112D01*
X788898Y778154D01*
X788969Y778213D01*
X788987Y778230D01*
X789011Y778242D01*
X789076Y778296D01*
X789123Y778343D01*
X789135Y778367D01*
X789159Y778390D01*
X789254Y778603D01*
X789265Y778651D01*
X789277Y778733D01*
X789289Y778935D01*
X789277Y778970D01*
X789259Y779035D01*
X789242Y779088D01*
X789224Y779165D01*
X789212Y779236D01*
X789200Y779284D01*
X789188Y779355D01*
X789177Y779414D01*
X789165Y779461D01*
X789088Y779633D01*
X789070Y779698D01*
X789046Y779757D01*
X788993Y779881D01*
X788958Y780012D01*
X788946Y780059D01*
X788928Y780160D01*
X788881Y780278D01*
X788863Y780343D01*
X788851Y780390D01*
X788780Y780544D01*
X788768Y780591D01*
X788745Y780674D01*
X788721Y780769D01*
X788697Y780923D01*
X788650Y781029D01*
X788626Y781124D01*
X788614Y781207D01*
X788603Y781325D01*
X788591Y781432D01*
X788579Y781467D01*
X788567Y781515D01*
X788585Y781698D01*
X788597Y781745D01*
X788638Y781810D01*
X788668Y781840D01*
X788715Y781852D01*
X788822Y781840D01*
X788904Y781804D01*
X788964Y781781D01*
X789041Y781751D01*
X789088Y781704D01*
X789123Y781645D01*
X789183Y781562D01*
X789206Y781467D01*
X789224Y781390D01*
X789254Y781290D01*
X789271Y781130D01*
X789301Y781029D01*
X789313Y780982D01*
X789342Y780905D01*
X789396Y780781D01*
X789425Y780704D01*
X789449Y780645D01*
X789478Y780568D01*
X789502Y780485D01*
X789561Y780296D01*
X789573Y780248D01*
X789603Y780171D01*
X789668Y780023D01*
X789685Y779958D01*
X789762Y779810D01*
X789774Y779763D01*
X789804Y779686D01*
X789845Y779609D01*
X789881Y779467D01*
X789904Y779325D01*
X789916Y779278D01*
X789958Y779165D01*
X789975Y779100D01*
X789987Y779053D01*
X790011Y778745D01*
X789993Y778550D01*
X789969Y778420D01*
X789952Y778355D01*
X789922Y778278D01*
X789851Y778159D01*
X789821Y778118D01*
X789709Y777970D01*
X789626Y777887D01*
X789603Y777875D01*
X789532Y777804D01*
X789508Y777793D01*
X789330Y777698D01*
X788916Y777497D01*
X788739Y777414D01*
X788680Y777390D01*
X788502Y777307D01*
X788425Y777278D01*
X788230Y777189D01*
X788029Y777094D01*
X787952Y777065D01*
X787816Y777000D01*
X787768Y776988D01*
X787691Y776958D01*
X787632Y776935D01*
X787555Y776905D01*
X787478Y776887D01*
X787413Y776858D01*
X787330Y776822D01*
X787265Y776804D01*
X787177Y776763D01*
X787094Y776727D01*
X787046Y776716D01*
X786987Y776692D01*
X786904Y776656D01*
X786810Y776633D01*
X786721Y776615D01*
X786674Y776603D01*
X786614Y776591D01*
X786289Y776550D01*
X786171Y776538D01*
X786017Y776526D01*
X785922Y776514D01*
X785863Y776491D01*
X785774Y776473D01*
X785715Y776449D01*
X785674Y776420D01*
X785608Y776355D01*
X785597Y776331D01*
X785537Y776201D01*
X785514Y776142D01*
X785449Y775958D01*
X785395Y775846D01*
X785336Y775716D01*
X785307Y775639D01*
X785277Y775574D01*
X785230Y775467D01*
X785194Y775384D01*
X785171Y775325D01*
X785123Y775219D01*
X785088Y775136D01*
X785076Y775112D01*
X785029Y775041D01*
X784987Y774929D01*
X784952Y774834D01*
X784887Y774698D01*
X784863Y774639D01*
X784822Y774526D01*
X784798Y774467D01*
X784762Y774372D01*
X784745Y774355D01*
X784733Y774331D01*
X784685Y774260D01*
X784674Y774236D01*
X784591Y774083D01*
X784449Y773881D01*
X784413Y773822D01*
X784360Y773757D01*
X784318Y773716D01*
X784307Y773692D01*
X784271Y773656D01*
X784259Y773633D01*
X784236Y773609D01*
X784224Y773585D01*
X784159Y773485D01*
X784135Y773473D01*
X784070Y773408D01*
X784058Y773384D01*
X783981Y773272D01*
X783910Y773201D01*
X783892Y773195D01*
X783881Y773171D01*
X783768Y773023D01*
X783632Y772887D01*
X783620Y772863D01*
X783585Y772828D01*
X783573Y772804D01*
X783419Y772650D01*
X783407Y772627D01*
X783354Y772562D01*
X783242Y772449D01*
X783230Y772426D01*
X783194Y772390D01*
X783182Y772367D01*
X783017Y772201D01*
X783005Y772177D01*
X782981Y772153D01*
X782969Y772130D01*
X782804Y771964D01*
X782792Y771940D01*
X782768Y771917D01*
X782756Y771893D01*
X782715Y771852D01*
X782691Y771840D01*
X782650Y771798D01*
X782638Y771775D01*
X782585Y771710D01*
X782555Y771668D01*
X782531Y771645D01*
X782520Y771597D01*
X782531Y771526D01*
X782561Y771497D01*
X782638Y771479D01*
X782709Y771467D01*
X782756Y771455D01*
X782875Y771443D01*
X783040Y771431D01*
X783159Y771420D01*
X783419Y771408D01*
X783744Y771390D01*
X783780Y771402D01*
X783928Y771372D01*
X783934Y771366D01*
X783969Y771378D01*
X784366Y771360D01*
X784579Y771349D01*
X784674Y771337D01*
X784863Y771325D01*
X784934Y771313D01*
X785094Y771295D01*
X785212Y771284D01*
X785295Y771260D01*
X785372Y771242D01*
X785419Y771230D01*
X785472Y771213D01*
X785520Y771201D01*
X785603Y771177D01*
X785756Y771118D01*
X785816Y771094D01*
X785922Y771035D01*
X785946Y771011D01*
X785969Y771000D01*
X786117Y770887D01*
X786153Y770852D01*
X786165Y770828D01*
X786200Y770792D01*
X786212Y770769D01*
X786318Y770662D01*
X786330Y770639D01*
X786389Y770556D01*
X786401Y770532D01*
X786425Y770508D01*
X786437Y770485D01*
X786496Y770378D01*
X786555Y770295D01*
X786573Y770278D01*
X786597Y770266D01*
X786632Y770230D01*
X786656Y770219D01*
X786680Y770195D01*
X786762Y770159D01*
X786845Y770148D01*
X786999Y770136D01*
X787088Y770130D01*
X787395Y770142D01*
X788194Y770148D01*
X788230Y770136D01*
X788396Y770124D01*
X788431Y770112D01*
X788638Y770094D01*
X788780Y770071D01*
X788887Y770059D01*
X789041Y770035D01*
X789135Y770011D01*
X789194Y770000D01*
X789289Y769976D01*
X789354Y769958D01*
X789496Y769923D01*
X789573Y769905D01*
X789620Y769893D01*
X789679Y769869D01*
X789727Y769858D01*
X789821Y769822D01*
X789881Y769798D01*
X790011Y769751D01*
X790165Y769692D01*
X790206Y769674D01*
X790668Y769437D01*
X790751Y769390D01*
X790863Y769313D01*
X790881Y769295D01*
X790904Y769284D01*
X790928Y769260D01*
X791035Y769201D01*
X791117Y769142D01*
X791147Y769112D01*
X791159Y769088D01*
X791177Y769071D01*
X791200Y769059D01*
X791283Y769000D01*
X791307Y768988D01*
X791401Y768893D01*
X791425Y768881D01*
X791573Y768733D01*
X791585Y768710D01*
X791608Y768686D01*
X791620Y768662D01*
X791685Y768597D01*
X791709Y768585D01*
X791762Y768532D01*
X791833Y768402D01*
X791887Y768337D01*
X791904Y768319D01*
X791916Y768295D01*
X791993Y768183D01*
X792011Y768165D01*
X792023Y768142D01*
X792046Y768118D01*
X792177Y767846D01*
X792200Y767787D01*
X792212Y767739D01*
X792236Y767680D01*
X792259Y767597D01*
X792289Y767461D01*
X792313Y767402D01*
X792342Y767325D01*
X792354Y767171D01*
X792366Y767053D01*
X792378Y767005D01*
X792366Y766497D01*
X792354Y766461D01*
X792336Y766361D01*
X792313Y766242D01*
X792301Y766195D01*
X792283Y766130D01*
X792259Y766035D01*
X792194Y765852D01*
X792129Y765692D01*
X792106Y765633D01*
X792070Y765550D01*
X792046Y765491D01*
X791975Y765360D01*
X791940Y765278D01*
X791875Y765094D01*
X791833Y765017D01*
X791786Y764899D01*
X791745Y764786D01*
X791733Y764739D01*
X791703Y764662D01*
X791668Y764579D01*
X791638Y764502D01*
X791608Y764437D01*
X791579Y764360D01*
X791555Y764301D01*
X791455Y764082D01*
X791407Y763964D01*
X791378Y763887D01*
X791354Y763828D01*
X791283Y763710D01*
X791254Y763645D01*
X791183Y763514D01*
X791123Y763431D01*
X791112Y763408D01*
X791052Y763325D01*
X791005Y763242D01*
X790952Y763177D01*
X790910Y763124D01*
X790899Y763100D01*
X790851Y763017D01*
X790792Y762911D01*
X790674Y762745D01*
X790603Y762615D01*
X790543Y762520D01*
X790496Y762437D01*
X790413Y762284D01*
X790390Y762260D01*
X790378Y762236D01*
X790354Y762213D01*
X790177Y761869D01*
X790153Y761846D01*
X790046Y761644D01*
X789887Y761402D01*
X789839Y761331D01*
X789774Y761266D01*
X789762Y761242D01*
X789739Y761218D01*
X789727Y761195D01*
X789703Y761171D01*
X789691Y761147D01*
X789638Y761082D01*
X789537Y760982D01*
X789526Y760958D01*
X789502Y760934D01*
X789490Y760911D01*
X789466Y760887D01*
X789455Y760863D01*
X789437Y760846D01*
X789413Y760834D01*
X789325Y760745D01*
X789313Y760721D01*
X789159Y760568D01*
X789147Y760544D01*
X789076Y760473D01*
X789064Y760449D01*
X789023Y760420D01*
X788999Y760396D01*
X788975Y760384D01*
X788922Y760331D01*
X788910Y760307D01*
X788798Y760195D01*
X788739Y760159D01*
X788662Y760082D01*
X788650Y760059D01*
X788585Y759994D01*
X788561Y759982D01*
X788449Y759905D01*
X788396Y759840D01*
X788348Y759792D01*
X788324Y759781D01*
X788301Y759757D01*
X788277Y759745D01*
X788182Y759650D01*
X788052Y759579D01*
X787975Y759502D01*
X787969Y759485D01*
X787946Y759473D01*
X787922Y759449D01*
X787898Y759437D01*
X787816Y759390D01*
X787792Y759366D01*
X787768Y759354D01*
X787709Y759295D01*
X787603Y759236D01*
X787484Y759118D01*
X787461Y759106D01*
X787313Y759005D01*
X787289Y758982D01*
X787277Y758958D01*
X787236Y758928D01*
X787129Y758846D01*
X787082Y758798D01*
X787058Y758786D01*
X787023Y758751D01*
X786940Y758704D01*
X786810Y758573D01*
X786786Y758562D01*
X786638Y758449D01*
X786561Y758372D01*
X786538Y758360D01*
X786514Y758337D01*
X786490Y758325D01*
X786407Y758242D01*
X786384Y758230D01*
X786360Y758207D01*
X786336Y758195D01*
X786271Y758141D01*
X786236Y758106D01*
X786188Y757999D01*
X786200Y757928D01*
X786242Y757887D01*
X786324Y757863D01*
X786585Y757852D01*
X786632Y757863D01*
X786893Y757875D01*
X786928Y757887D01*
X787046Y757899D01*
X787094Y757911D01*
X787271Y757923D01*
X787330Y757946D01*
X787520Y757958D01*
X787567Y757970D01*
X787650Y757994D01*
X787804Y758005D01*
X787981Y758017D01*
X788017Y758029D01*
X788283Y758047D01*
X788330Y758059D01*
X788532Y758070D01*
X788591Y758082D01*
X788638Y758094D01*
X788857Y758112D01*
X788893Y758124D01*
X789011Y758136D01*
X789165Y758147D01*
X789200Y758159D01*
X789248Y758171D01*
X789325Y758189D01*
X789466Y758212D01*
X789597Y758236D01*
X789644Y758248D01*
X789786Y758272D01*
X789845Y758283D01*
X789946Y758313D01*
X790023Y758331D01*
X790070Y758343D01*
X790147Y758372D01*
X790295Y758390D01*
X790342Y758402D01*
X790419Y758431D01*
X790514Y758455D01*
X790591Y758485D01*
X790650Y758508D01*
X790715Y758526D01*
X790762Y758538D01*
X790893Y758573D01*
X790940Y758585D01*
X791029Y758603D01*
X791153Y758668D01*
X791248Y758692D01*
X791401Y758763D01*
X791467Y758780D01*
X791526Y758804D01*
X791650Y758857D01*
X791697Y758869D01*
X791851Y758940D01*
X791916Y758958D01*
X792011Y758993D01*
X792135Y759047D01*
X792248Y759088D01*
X792336Y759141D01*
X792413Y759171D01*
X792473Y759195D01*
X792544Y759242D01*
X792644Y759283D01*
X792703Y759307D01*
X792786Y759366D01*
X792869Y759402D01*
X792975Y759461D01*
X792999Y759485D01*
X793023Y759496D01*
X793153Y759567D01*
X793236Y759627D01*
X793342Y759674D01*
X793425Y759721D01*
X793543Y759804D01*
X793591Y759816D01*
X793703Y759893D01*
X793792Y759946D01*
X793839Y759958D01*
X793904Y760011D01*
X793946Y760053D01*
X793969Y760065D01*
X794040Y760112D01*
X794064Y760124D01*
X794129Y760177D01*
X794147Y760195D01*
X794171Y760207D01*
X794194Y760230D01*
X794348Y760313D01*
X794407Y760372D01*
X794431Y760384D01*
X794502Y760431D01*
X794526Y760443D01*
X794632Y760550D01*
X794656Y760562D01*
X794804Y760662D01*
X794881Y760739D01*
X794904Y760751D01*
X794928Y760775D01*
X794952Y760786D01*
X794976Y760810D01*
X794999Y760822D01*
X795058Y760881D01*
X795082Y760893D01*
X795118Y760928D01*
X795141Y760940D01*
X795295Y761094D01*
X795319Y761106D01*
X795342Y761130D01*
X795366Y761141D01*
X795390Y761165D01*
X795413Y761177D01*
X795455Y761218D01*
X795467Y761242D01*
X795555Y761331D01*
X795579Y761343D01*
X795680Y761443D01*
X795691Y761467D01*
X795768Y761544D01*
X795792Y761556D01*
X795881Y761644D01*
X795893Y761668D01*
X795916Y761692D01*
X795928Y761715D01*
X795946Y761733D01*
X795969Y761745D01*
X796058Y761834D01*
X796070Y761857D01*
X796129Y761940D01*
X796141Y761964D01*
X796159Y761982D01*
X796183Y761994D01*
X796206Y762017D01*
X796230Y762029D01*
X796277Y762100D01*
X796342Y762201D01*
X796425Y762284D01*
X796437Y762307D01*
X796461Y762331D01*
X796508Y762414D01*
X796532Y762437D01*
X796544Y762461D01*
X796579Y762497D01*
X796591Y762520D01*
X796644Y762585D01*
X796662Y762603D01*
X796745Y762757D01*
X796768Y762781D01*
X796780Y762804D01*
X796804Y762828D01*
X796851Y762911D01*
X796934Y763065D01*
X797052Y763230D01*
X797112Y763337D01*
X797165Y763402D01*
X797194Y763443D01*
X797254Y763502D01*
X797265Y763526D01*
X797348Y763633D01*
X797455Y763787D01*
X797561Y763988D01*
X797620Y764071D01*
X797739Y764295D01*
X797857Y764461D01*
X797869Y764485D01*
X798011Y764686D01*
X798023Y764710D01*
X798070Y764781D01*
X798106Y764840D01*
X798141Y764875D01*
X798153Y764899D01*
X798212Y764982D01*
X798224Y765029D01*
X798295Y765159D01*
X798354Y765242D01*
X798413Y765372D01*
X798443Y765449D01*
X798508Y765585D01*
X798532Y765645D01*
X798567Y765727D01*
X798615Y765846D01*
X798656Y765958D01*
X798680Y766017D01*
X798733Y766142D01*
X798745Y766189D01*
X798822Y766408D01*
X798851Y766508D01*
X798875Y766603D01*
X798899Y766686D01*
X798910Y766733D01*
X798946Y766852D01*
X798970Y766934D01*
X798981Y766982D01*
X799005Y767065D01*
X799029Y767159D01*
X799047Y767224D01*
X799058Y767284D01*
X799070Y767355D01*
X799082Y767414D01*
X799094Y767461D01*
X799106Y767520D01*
X799135Y767621D01*
X799147Y767668D01*
X799165Y767781D01*
X799177Y767840D01*
X799189Y767935D01*
X799212Y768077D01*
X799224Y768136D01*
X799242Y768201D01*
X799254Y768355D01*
X799265Y768390D01*
X799277Y768437D01*
X799289Y768579D01*
X799301Y768615D01*
X799313Y768804D01*
X799325Y768840D01*
X799342Y769023D01*
X799354Y769165D01*
X799366Y769272D01*
X799390Y769556D01*
X799396Y769952D01*
X799384Y769988D01*
X799372Y770295D01*
X799360Y770331D01*
X799348Y770414D01*
X799331Y770574D01*
X799319Y770633D01*
X799301Y770792D01*
X799254Y770982D01*
X799224Y771118D01*
X799212Y771177D01*
X799189Y771319D01*
X799159Y771420D01*
X799147Y771467D01*
X799129Y771580D01*
X799106Y771674D01*
X799094Y771745D01*
X799070Y771840D01*
X799052Y771905D01*
X799041Y771952D01*
X799029Y772082D01*
X799005Y772142D01*
X798981Y772236D01*
X798952Y772372D01*
X798934Y772579D01*
X798899Y772662D01*
X798887Y772745D01*
X798875Y772923D01*
X798863Y772958D01*
X798851Y773053D01*
X798839Y773088D01*
X798828Y773242D01*
X798810Y773319D01*
X798786Y773378D01*
X798745Y773514D01*
X798727Y773591D01*
X798709Y773656D01*
X798697Y773704D01*
X798680Y773793D01*
X798656Y773852D01*
X798603Y773976D01*
X798573Y774053D01*
X798555Y774071D01*
X798508Y774177D01*
X798478Y774254D01*
X798419Y774349D01*
X798390Y774426D01*
X798366Y774485D01*
X798354Y774508D01*
X798295Y774591D01*
X798265Y774668D01*
X798248Y774710D01*
X798141Y774863D01*
X798094Y774946D01*
X798041Y775011D01*
X797999Y775053D01*
X797987Y775077D01*
X797916Y775207D01*
X797845Y775313D01*
X797786Y775420D01*
X797733Y775485D01*
X797656Y775562D01*
X797644Y775585D01*
X797561Y775692D01*
X797538Y775716D01*
X797526Y775739D01*
X797467Y775846D01*
X797413Y775899D01*
X797390Y775911D01*
X797342Y775958D01*
X797325Y775964D01*
X797313Y775988D01*
X797289Y776012D01*
X797242Y776094D01*
X797088Y776248D01*
X797076Y776272D01*
X796922Y776426D01*
X796910Y776449D01*
X796875Y776485D01*
X796863Y776509D01*
X796845Y776526D01*
X796822Y776538D01*
X796762Y776597D01*
X796739Y776609D01*
X796638Y776710D01*
X796632Y776727D01*
X796609Y776739D01*
X796573Y776775D01*
X796549Y776787D01*
X796455Y776881D01*
X796431Y776893D01*
X796407Y776917D01*
X796384Y776929D01*
X796336Y776976D01*
X796313Y776988D01*
X796289Y777011D01*
X796265Y777023D01*
X796194Y777094D01*
X796171Y777106D01*
X796135Y777142D01*
X796112Y777153D01*
X796088Y777177D01*
X796005Y777224D01*
X795940Y777278D01*
X795922Y777295D01*
X795898Y777307D01*
X795875Y777331D01*
X795851Y777343D01*
X795756Y777402D01*
X795603Y777485D01*
X795532Y777532D01*
X795283Y777651D01*
X795200Y777686D01*
X795123Y777716D01*
X794952Y777769D01*
X794904Y777781D01*
X794822Y777804D01*
X794774Y777816D01*
X794691Y777828D01*
X794644Y777840D01*
X794526Y777852D01*
X794206Y777840D01*
X794171Y777828D01*
X794058Y777810D01*
X793964Y777787D01*
X793893Y777775D01*
X793833Y777763D01*
X793786Y777751D01*
X793721Y777722D01*
X793573Y777668D01*
X793514Y777645D01*
X793496Y777627D01*
X793390Y777580D01*
X793313Y777550D01*
X793141Y777461D01*
X793011Y777390D01*
X792940Y777343D01*
X792833Y777284D01*
X792762Y777213D01*
X792739Y777201D01*
X792644Y777142D01*
X792620Y777130D01*
X792597Y777106D01*
X792573Y777094D01*
X792549Y777071D01*
X792526Y777059D01*
X792431Y777000D01*
X792407Y776988D01*
X792342Y776935D01*
X792336Y776917D01*
X792313Y776905D01*
X792265Y776858D01*
X792242Y776846D01*
X792218Y776822D01*
X792194Y776810D01*
X792147Y776763D01*
X792123Y776751D01*
X792088Y776716D01*
X792064Y776704D01*
X792040Y776680D01*
X792017Y776668D01*
X791851Y776503D01*
X791827Y776491D01*
X791727Y776390D01*
X791715Y776367D01*
X791691Y776343D01*
X791680Y776319D01*
X791650Y776290D01*
X791626Y776278D01*
X791538Y776189D01*
X791526Y776165D01*
X791502Y776142D01*
X791490Y776118D01*
X791437Y776053D01*
X791372Y775988D01*
X791360Y775964D01*
X791336Y775941D01*
X791325Y775917D01*
X791265Y775822D01*
X791254Y775799D01*
X791200Y775733D01*
X791153Y775662D01*
X791064Y775467D01*
X791052Y775443D01*
X791017Y775361D01*
X790975Y775248D01*
X790952Y775189D01*
X790940Y775142D01*
X790922Y775077D01*
X790875Y774887D01*
X790851Y774804D01*
X790839Y774721D01*
X790822Y774585D01*
X790810Y774337D01*
X790804Y774154D01*
X790816Y774118D01*
X790828Y773893D01*
X790839Y773846D01*
X790881Y773651D01*
X790904Y773556D01*
X790928Y773426D01*
X790970Y773325D01*
X790981Y773278D01*
X791011Y773201D01*
X791076Y773065D01*
X791100Y773005D01*
X791265Y772686D01*
X791289Y772662D01*
X791301Y772639D01*
X791325Y772615D01*
X791336Y772591D01*
X791396Y772508D01*
X791407Y772485D01*
X791478Y772414D01*
X791490Y772390D01*
X791514Y772367D01*
X791549Y772307D01*
X791603Y772242D01*
X791703Y772142D01*
X791715Y772118D01*
X791839Y771994D01*
X791863Y771982D01*
X791993Y771852D01*
X792017Y771840D01*
X792052Y771804D01*
X792135Y771757D01*
X792200Y771704D01*
X792242Y771662D01*
X792265Y771651D01*
X792478Y771532D01*
X792561Y771473D01*
X792668Y771426D01*
X792745Y771396D01*
X792987Y771295D01*
X793035Y771284D01*
X793153Y771248D01*
X793295Y771213D01*
X793543Y771177D01*
X793733Y771165D01*
X793916Y771159D01*
X793987Y771171D01*
X794147Y771189D01*
X794283Y771207D01*
X794378Y771230D01*
X794437Y771254D01*
X794502Y771284D01*
X794561Y771307D01*
X794609Y771319D01*
X794762Y771402D01*
X794822Y771426D01*
X794928Y771485D01*
X794999Y771532D01*
X795058Y771556D01*
X795118Y771591D01*
X795260Y771733D01*
X795283Y771745D01*
X795443Y771905D01*
X795455Y771929D01*
X795538Y772011D01*
X795549Y772035D01*
X795573Y772059D01*
X795585Y772082D01*
X795697Y772230D01*
X795715Y772248D01*
X795822Y772449D01*
X795881Y772544D01*
X795916Y772627D01*
X795987Y772852D01*
X796011Y772946D01*
X796023Y773029D01*
X796035Y773183D01*
X796023Y773408D01*
X796011Y773443D01*
X795999Y773491D01*
X795934Y773674D01*
X795904Y773716D01*
X795851Y773781D01*
X795822Y773810D01*
X795810Y773834D01*
X795751Y773917D01*
X795733Y773935D01*
X795603Y774006D01*
X795425Y774088D01*
X795378Y774100D01*
X795271Y774088D01*
X795183Y774023D01*
X795171Y774000D01*
X795088Y773893D01*
X795005Y773810D01*
X794993Y773787D01*
X794958Y773751D01*
X794946Y773727D01*
X794922Y773704D01*
X794910Y773680D01*
X794887Y773656D01*
X794875Y773633D01*
X794845Y773603D01*
X794822Y773591D01*
X794745Y773538D01*
X794733Y773514D01*
X794609Y773390D01*
X794585Y773378D01*
X794520Y773325D01*
X794478Y773295D01*
X794407Y773248D01*
X794360Y773236D01*
X794253Y773177D01*
X794147Y773130D01*
X793993Y773082D01*
X793946Y773071D01*
X793662Y773082D01*
X793626Y773094D01*
X793478Y773147D01*
X793390Y773189D01*
X793283Y773248D01*
X793212Y773319D01*
X793188Y773331D01*
X793165Y773355D01*
X793141Y773366D01*
X793076Y773420D01*
X792970Y773526D01*
X792958Y773550D01*
X792875Y773633D01*
X792863Y773656D01*
X792780Y773763D01*
X792721Y773822D01*
X792709Y773846D01*
X792650Y773940D01*
X792591Y774047D01*
X792544Y774118D01*
X792520Y774177D01*
X792473Y774284D01*
X792461Y774331D01*
X792449Y774414D01*
X792461Y774650D01*
X792473Y774686D01*
X792484Y774757D01*
X792508Y774816D01*
X792532Y774899D01*
X792579Y775006D01*
X792650Y775136D01*
X792697Y775183D01*
X792709Y775207D01*
X792757Y775290D01*
X792810Y775355D01*
X792828Y775372D01*
X792839Y775396D01*
X792881Y775437D01*
X792904Y775449D01*
X792916Y775473D01*
X792940Y775485D01*
X792999Y775556D01*
X793035Y775591D01*
X793058Y775603D01*
X793094Y775639D01*
X793117Y775651D01*
X793141Y775674D01*
X793165Y775686D01*
X793188Y775710D01*
X793212Y775722D01*
X793555Y775887D01*
X793709Y775946D01*
X793792Y775958D01*
X793910Y775970D01*
X793958Y775982D01*
X794129Y775988D01*
X794260Y775976D01*
X794354Y775964D01*
X794496Y775941D01*
X794561Y775911D01*
X794680Y775864D01*
X794757Y775834D01*
X794816Y775810D01*
X795082Y775674D01*
X795165Y775627D01*
X795401Y775461D01*
X795425Y775449D01*
X795532Y775366D01*
X795591Y775307D01*
X795614Y775295D01*
X795697Y775236D01*
X795721Y775224D01*
X795786Y775171D01*
X795839Y775106D01*
X795910Y775059D01*
X795934Y775047D01*
X795958Y775023D01*
X795981Y775011D01*
X796011Y774970D01*
X796052Y774929D01*
X796076Y774917D01*
X796100Y774893D01*
X796123Y774881D01*
X796159Y774846D01*
X796183Y774834D01*
X796248Y774769D01*
X796259Y774745D01*
X796313Y774692D01*
X796336Y774680D01*
X796384Y774633D01*
X796407Y774621D01*
X796437Y774591D01*
X796496Y774485D01*
X796549Y774432D01*
X796573Y774420D01*
X796615Y774378D01*
X796626Y774355D01*
X796686Y774248D01*
X796780Y774106D01*
X796822Y773994D01*
X796869Y773923D01*
X796887Y773869D01*
X796940Y773722D01*
X796952Y773674D01*
X796964Y773580D01*
X796981Y773467D01*
X797005Y773408D01*
X797017Y773254D01*
X797005Y773218D01*
X797017Y773053D01*
X797005Y773017D01*
X796981Y772875D01*
X796970Y772828D01*
X796952Y772751D01*
X796940Y772680D01*
X796928Y772633D01*
X796881Y772503D01*
X796857Y772443D01*
X796816Y772343D01*
X796792Y772284D01*
X796733Y772177D01*
X796674Y772082D01*
X796615Y771976D01*
X796567Y771893D01*
X796484Y771810D01*
X796473Y771787D01*
X796390Y771680D01*
X796248Y771538D01*
X796236Y771514D01*
X796159Y771438D01*
X796135Y771426D01*
X796100Y771390D01*
X796076Y771378D01*
X796035Y771337D01*
X796023Y771313D01*
X795958Y771248D01*
X795934Y771236D01*
X795827Y771177D01*
X795762Y771124D01*
X795745Y771106D01*
X795721Y771094D01*
X795650Y771047D01*
X795626Y771035D01*
X795591Y771000D01*
X795567Y770988D01*
X795520Y770940D01*
X795390Y770881D01*
X795366Y770869D01*
X795295Y770822D01*
X795212Y770787D01*
X795153Y770763D01*
X795023Y770704D01*
X794964Y770680D01*
X794916Y770668D01*
X794798Y770633D01*
X794703Y770609D01*
X794632Y770597D01*
X794561Y770550D01*
X794496Y770532D01*
X794425Y770520D01*
X794378Y770508D01*
X794236Y770497D01*
X794177Y770485D01*
X794129Y770473D01*
X794064Y770455D01*
X793946Y770443D01*
X793614Y770432D01*
X793295Y770443D01*
X793259Y770455D01*
X793117Y770467D01*
X793082Y770479D01*
X792952Y770491D01*
X792916Y770503D01*
X792869Y770514D01*
X792792Y770532D01*
X792656Y770574D01*
X792597Y770597D01*
X792549Y770609D01*
X792466Y770633D01*
X792407Y770656D01*
X792206Y770751D01*
X792129Y770781D01*
X792058Y770816D01*
X791940Y770887D01*
X791898Y770917D01*
X791827Y770964D01*
X791721Y771023D01*
X791656Y771076D01*
X791626Y771106D01*
X791603Y771118D01*
X791579Y771142D01*
X791555Y771153D01*
X791449Y771236D01*
X791372Y771313D01*
X791360Y771337D01*
X791342Y771355D01*
X791319Y771366D01*
X791295Y771390D01*
X791271Y771402D01*
X791218Y771455D01*
X791171Y771538D01*
X791147Y771562D01*
X791135Y771585D01*
X791029Y771692D01*
X790981Y771775D01*
X790934Y771822D01*
X790922Y771846D01*
X790887Y771905D01*
X790816Y772035D01*
X790768Y772106D01*
X790745Y772165D01*
X790626Y772414D01*
X790543Y772591D01*
X790532Y772639D01*
X790508Y772698D01*
X790461Y772804D01*
X790449Y772852D01*
X790431Y772929D01*
X790419Y772976D01*
X790390Y773076D01*
X790378Y773124D01*
X790360Y773201D01*
X790330Y773301D01*
X790319Y773349D01*
X790307Y773479D01*
X790295Y773514D01*
X790277Y773591D01*
X790248Y773858D01*
X790236Y773905D01*
X790224Y774343D01*
X790212Y774390D01*
X790224Y774579D01*
X790236Y774887D01*
X790248Y774923D01*
X790259Y775041D01*
X790271Y775124D01*
X790295Y775207D01*
X790307Y775254D01*
X790319Y775384D01*
X790342Y775443D01*
X790354Y775538D01*
X790366Y775574D01*
X790378Y775621D01*
X790395Y775686D01*
X790419Y775745D01*
X790449Y775822D01*
X790490Y775935D01*
X790549Y776100D01*
X790573Y776159D01*
X790591Y776177D01*
X790733Y776449D01*
X790757Y776473D01*
X790768Y776497D01*
X790792Y776520D01*
X790804Y776544D01*
X790863Y776627D01*
X790875Y776650D01*
X790958Y776757D01*
X791029Y776816D01*
X791041Y776840D01*
X791177Y776976D01*
X791200Y776988D01*
X791265Y777041D01*
X791330Y777106D01*
X791354Y777118D01*
X791532Y777213D01*
X791603Y777260D01*
X791756Y777343D01*
X791822Y777396D01*
X791952Y777479D01*
X792029Y777556D01*
X792159Y777627D01*
X792324Y777745D01*
X792348Y777757D01*
X792372Y777781D01*
X792395Y777793D01*
X792490Y777887D01*
X792573Y777923D01*
X792597Y777935D01*
X792680Y777994D01*
X792786Y778041D01*
X792916Y778112D01*
X792999Y778148D01*
X793076Y778177D01*
X793094Y778195D01*
X793200Y778242D01*
X793313Y778284D01*
X793437Y778337D01*
X793549Y778355D01*
X793691Y778390D01*
X793751Y778402D01*
X793798Y778414D01*
X793898Y778443D01*
X794082Y778461D01*
X794242Y778479D01*
X794833Y778467D01*
X794869Y778455D01*
X795052Y778438D01*
X795112Y778426D01*
X795165Y778408D01*
X795260Y778384D01*
X795336Y778367D01*
X795526Y778319D01*
X795626Y778278D01*
X795739Y778236D01*
X795928Y778165D01*
X796058Y778106D01*
X796129Y778059D01*
X796147Y778041D01*
X796224Y778012D01*
X796313Y777970D01*
X796407Y777911D01*
X796431Y777899D01*
X796514Y777840D01*
X796644Y777769D01*
X796709Y777716D01*
X796739Y777686D01*
X796762Y777674D01*
X796881Y777591D01*
X796905Y777580D01*
X796952Y777532D01*
X796976Y777520D01*
X797058Y777437D01*
X797082Y777426D01*
X797147Y777372D01*
X797295Y777224D01*
X797319Y777213D01*
X797597Y776935D01*
X797609Y776911D01*
X797632Y776887D01*
X797644Y776864D01*
X797709Y776798D01*
X797733Y776787D01*
X797798Y776722D01*
X797857Y776615D01*
X797952Y776520D01*
X797964Y776497D01*
X797987Y776473D01*
X797999Y776449D01*
X798035Y776414D01*
X798046Y776390D01*
X798082Y776355D01*
X798094Y776331D01*
X798129Y776296D01*
X798224Y776118D01*
X798271Y776071D01*
X798283Y776047D01*
X798330Y775964D01*
X798366Y775929D01*
X798378Y775905D01*
X798437Y775846D01*
X798544Y775645D01*
X798567Y775621D01*
X798591Y775562D01*
X798674Y775408D01*
X798733Y775278D01*
X798792Y775171D01*
X798839Y775065D01*
X798946Y774840D01*
X798970Y774781D01*
X799052Y774603D01*
X799082Y774526D01*
X799106Y774467D01*
X799123Y774449D01*
X799135Y774402D01*
X799159Y774343D01*
X799218Y774154D01*
X799230Y774071D01*
X799260Y773994D01*
X799289Y773929D01*
X799313Y773834D01*
X799384Y773680D01*
X799396Y773633D01*
X799413Y773556D01*
X799425Y773497D01*
X799449Y773355D01*
X799461Y773307D01*
X799484Y773248D01*
X799514Y773183D01*
X799532Y773106D01*
X799544Y773047D01*
X799555Y772976D01*
X799567Y772869D01*
X799579Y772810D01*
X799603Y772751D01*
X799632Y772674D01*
X799644Y772591D01*
X799656Y772544D01*
X799686Y772349D01*
X799733Y772230D01*
X799745Y772183D01*
X799768Y772041D01*
X799792Y771923D01*
X799804Y771875D01*
X799839Y771781D01*
X799869Y771680D01*
X799893Y771585D01*
X799910Y771509D01*
X799922Y771449D01*
X799934Y771402D01*
X799946Y771343D01*
X799970Y771284D01*
X799999Y771218D01*
X800023Y771124D01*
X800070Y771005D01*
X800082Y770958D01*
X800094Y770840D01*
X800106Y770792D01*
X800094Y769538D01*
X800082Y769502D01*
X800070Y769029D01*
X800058Y768994D01*
X800052Y768692D01*
X800058Y768615D01*
X800047Y768579D01*
X800029Y768065D01*
X800017Y767994D01*
X800005Y767769D01*
X799993Y767532D01*
X799981Y767366D01*
X799970Y767272D01*
X799958Y767224D01*
X799928Y767124D01*
X799893Y766982D01*
X799863Y766857D01*
X799851Y766810D01*
X799833Y766745D01*
X799804Y766668D01*
X799774Y766568D01*
X799727Y766402D01*
X799686Y766290D01*
X799526Y765798D01*
X799455Y765645D01*
X799378Y765426D01*
X799348Y765360D01*
X799313Y765278D01*
X799271Y765165D01*
X799236Y765070D01*
X799189Y764940D01*
X799159Y764875D01*
X799123Y764792D01*
X799076Y764674D01*
X799064Y764627D01*
X798792Y764094D01*
X798697Y763929D01*
X798674Y763905D01*
X798662Y763881D01*
X798579Y763763D01*
X798567Y763739D01*
X798508Y763645D01*
X798496Y763621D01*
X798330Y763384D01*
X798283Y763301D01*
X798177Y763195D01*
X798106Y763065D01*
X798082Y763041D01*
X798070Y763017D01*
X798023Y762970D01*
X798011Y762946D01*
X797975Y762911D01*
X797964Y762887D01*
X797887Y762775D01*
X797857Y762745D01*
X797845Y762721D01*
X797798Y762674D01*
X797786Y762650D01*
X797751Y762615D01*
X797739Y762591D01*
X797662Y762491D01*
X797644Y762485D01*
X797638Y762467D01*
X797614Y762455D01*
X797597Y762437D01*
X797585Y762414D01*
X797561Y762390D01*
X797549Y762366D01*
X797526Y762343D01*
X797514Y762319D01*
X797461Y762254D01*
X797437Y762218D01*
X797413Y762207D01*
X797384Y762177D01*
X797372Y762153D01*
X797348Y762130D01*
X797336Y762106D01*
X797313Y762082D01*
X797301Y762059D01*
X797248Y761994D01*
X797224Y761970D01*
X797200Y761958D01*
X797159Y761917D01*
X797147Y761893D01*
X797123Y761869D01*
X797112Y761846D01*
X797088Y761822D01*
X797076Y761798D01*
X797035Y761757D01*
X797011Y761745D01*
X796946Y761680D01*
X796934Y761656D01*
X796881Y761591D01*
X796757Y761467D01*
X796745Y761443D01*
X796721Y761420D01*
X796709Y761396D01*
X796644Y761331D01*
X796620Y761319D01*
X796555Y761254D01*
X796544Y761230D01*
X796520Y761207D01*
X796508Y761183D01*
X796431Y761106D01*
X796407Y761094D01*
X796342Y761041D01*
X796319Y761017D01*
X796307Y760993D01*
X796230Y760893D01*
X796206Y760881D01*
X796117Y760816D01*
X796106Y760792D01*
X796082Y760769D01*
X796070Y760745D01*
X795981Y760656D01*
X795922Y760621D01*
X795845Y760544D01*
X795833Y760520D01*
X795804Y760491D01*
X795780Y760479D01*
X795745Y760443D01*
X795721Y760431D01*
X795697Y760408D01*
X795674Y760396D01*
X795656Y760378D01*
X795644Y760355D01*
X795620Y760331D01*
X795609Y760307D01*
X795555Y760254D01*
X795532Y760242D01*
X795425Y760159D01*
X795330Y760065D01*
X795307Y760053D01*
X795283Y760029D01*
X795260Y760017D01*
X795224Y759982D01*
X795200Y759970D01*
X795165Y759934D01*
X795141Y759923D01*
X795106Y759887D01*
X795082Y759875D01*
X795047Y759840D01*
X795023Y759828D01*
X794993Y759798D01*
X794981Y759775D01*
X794952Y759745D01*
X794928Y759733D01*
X794845Y759674D01*
X794822Y759662D01*
X794674Y759550D01*
X794632Y759520D01*
X794567Y759467D01*
X794526Y759425D01*
X794502Y759414D01*
X794372Y759343D01*
X794253Y759260D01*
X794123Y759189D01*
X794040Y759130D01*
X794017Y759118D01*
X793946Y759070D01*
X793922Y759059D01*
X793857Y759005D01*
X793768Y758952D01*
X793378Y758751D01*
X793224Y758680D01*
X793141Y758633D01*
X793035Y758585D01*
X792958Y758556D01*
X792845Y758491D01*
X792786Y758467D01*
X792709Y758437D01*
X792691Y758420D01*
X792609Y758384D01*
X792549Y758360D01*
X792473Y758331D01*
X792395Y758289D01*
X792336Y758266D01*
X792271Y758248D01*
X792206Y758218D01*
X792147Y758195D01*
X792100Y758183D01*
X791916Y758118D01*
X791857Y758106D01*
X791798Y758082D01*
X791650Y758017D01*
X791538Y757976D01*
X791413Y757923D01*
X791336Y757893D01*
X791289Y757881D01*
X791212Y757852D01*
X791129Y757840D01*
X791082Y757828D01*
X791017Y757810D01*
X790940Y757781D01*
X790857Y757757D01*
X790780Y757727D01*
X790715Y757698D01*
X790632Y757674D01*
X790555Y757656D01*
X790413Y757621D01*
X790342Y757609D01*
X790171Y757556D01*
X790070Y757538D01*
X789786Y757467D01*
X789721Y757449D01*
X789573Y757431D01*
X789478Y757408D01*
X789419Y757396D01*
X789206Y757360D01*
X789100Y757348D01*
X789029Y757337D01*
X788863Y757325D01*
X788733Y757301D01*
X788656Y757295D01*
X788620Y757307D01*
X788514Y757295D01*
X788478Y757283D01*
X788206Y757272D01*
X788171Y757260D01*
X787922Y757248D01*
X787887Y757236D01*
X787620Y757206D01*
X787549Y757195D01*
X787502Y757183D01*
X787431Y757171D01*
X787277Y757159D01*
X787212Y757141D01*
X787165Y757130D01*
X786893Y757118D01*
X786857Y757106D01*
X786579Y757100D01*
X786538Y757106D01*
X786502Y757094D01*
X785910Y757118D01*
X785668Y757112D01*
X785520Y757118D01*
X785484Y757106D01*
X785177Y757094D01*
X785141Y757082D01*
X784928Y757070D01*
X784869Y757047D01*
X784715Y757035D01*
X784608Y757023D01*
X784573Y757011D01*
X784490Y756999D01*
X784372Y756988D01*
X784171Y756964D01*
X784135Y756952D01*
X784088Y756940D01*
X783898Y756928D01*
X783863Y756917D01*
X783815Y756905D01*
X783614Y756893D01*
X783579Y756881D01*
X783390Y756869D01*
X783165Y756857D01*
X783111Y756863D01*
X782916Y756857D01*
X782881Y756869D01*
X782407Y756881D01*
X782372Y756893D01*
X782253Y756905D01*
X782123Y756917D01*
X782088Y756928D01*
X781922Y756940D01*
X781886Y756952D01*
X781721Y756964D01*
X781685Y756976D01*
X781478Y756993D01*
X781236Y757023D01*
X780875Y757076D01*
X780768Y757088D01*
X780650Y757112D01*
X780520Y757124D01*
X780425Y757135D01*
X780318Y757147D01*
X780247Y757159D01*
X780200Y757171D01*
X780141Y757183D01*
X780070Y757195D01*
X779975Y757206D01*
X779904Y757218D01*
X779744Y757236D01*
X779697Y757248D01*
X779567Y757260D01*
X779508Y757283D01*
X779307Y757307D01*
X779259Y757319D01*
X779135Y757337D01*
X778993Y757360D01*
X778839Y757384D01*
X778780Y757396D01*
X778715Y757414D01*
X778668Y757425D01*
X778466Y757461D01*
X778354Y757479D01*
X778224Y757502D01*
X778165Y757526D01*
X778117Y757538D01*
X778058Y757550D01*
X777987Y757561D01*
X777869Y757585D01*
X777821Y757597D01*
X777756Y757615D01*
X777679Y757632D01*
X777579Y757662D01*
X777531Y757674D01*
X777455Y757692D01*
X777407Y757703D01*
X777289Y757727D01*
X777212Y757757D01*
X777111Y757775D01*
X776922Y757822D01*
X776863Y757834D01*
X776798Y757852D01*
X776750Y757863D01*
X776673Y757881D01*
X776484Y757928D01*
X776419Y757946D01*
X776372Y757958D01*
X776295Y757976D01*
X776200Y757999D01*
X776141Y758011D01*
X776093Y758023D01*
X776034Y758035D01*
X775987Y758047D01*
X775928Y758059D01*
X775851Y758088D01*
X775738Y758106D01*
X775679Y758118D01*
X775608Y758130D01*
X775372Y758177D01*
X775313Y758201D01*
X775218Y758224D01*
X775099Y758248D01*
X775028Y758260D01*
X774981Y758272D01*
X774922Y758295D01*
X774750Y758372D01*
X774691Y758396D01*
X774466Y758514D01*
X774348Y758597D01*
X774265Y758644D01*
X774230Y758680D01*
X774206Y758692D01*
X774159Y758739D01*
X774135Y758751D01*
X773987Y758863D01*
X773875Y758976D01*
X773851Y758988D01*
X773827Y759011D01*
X773804Y759023D01*
X773762Y759053D01*
X773750Y759076D01*
X773727Y759100D01*
X773715Y759124D01*
X773662Y759177D01*
X773638Y759189D01*
X773614Y759212D01*
X773591Y759224D01*
X773567Y759248D01*
X773543Y759260D01*
X773496Y759331D01*
X773466Y759372D01*
X773413Y759425D01*
X773389Y759437D01*
X773312Y759514D01*
X773301Y759538D01*
X773236Y759627D01*
X773212Y759639D01*
X773194Y759656D01*
X773182Y759680D01*
X773088Y759775D01*
X773076Y759798D01*
X773028Y759846D01*
X773017Y759869D01*
X772981Y759905D01*
X772969Y759928D01*
X772892Y760041D01*
X772857Y760076D01*
X772833Y760088D01*
X772792Y760130D01*
X772780Y760153D01*
X772756Y760177D01*
X772697Y760284D01*
X772661Y760319D01*
X772650Y760343D01*
X772590Y760449D01*
X772537Y760514D01*
X772484Y760568D01*
X772472Y760591D01*
X772448Y760615D01*
X772437Y760639D01*
X772389Y760709D01*
X772377Y760733D01*
X772354Y760757D01*
X772342Y760780D01*
X772247Y760958D01*
X772188Y761041D01*
X772164Y761100D01*
X772093Y761230D01*
X772046Y761301D01*
X772034Y761349D01*
X771987Y761431D01*
X771963Y761455D01*
X771928Y761538D01*
X771898Y761615D01*
X771809Y761786D01*
X771798Y761834D01*
X771715Y762011D01*
X771703Y762059D01*
X771673Y762136D01*
X771626Y762207D01*
X771608Y762272D01*
X771596Y762319D01*
X771549Y762437D01*
X771537Y762485D01*
X771525Y762568D01*
X771508Y762668D01*
X771490Y762733D01*
X771472Y762810D01*
X771431Y762946D01*
X771419Y763124D01*
X771395Y763183D01*
X771372Y763266D01*
X771360Y763313D01*
X771324Y763431D01*
X771312Y763479D01*
X771301Y763597D01*
X771277Y763656D01*
X771253Y763739D01*
X771241Y763787D01*
X771218Y763869D01*
X771206Y763917D01*
X771188Y764088D01*
X771165Y764183D01*
X771159Y764284D01*
X771170Y764319D01*
X771159Y764497D01*
X771170Y764532D01*
X771182Y764816D01*
X771194Y764852D01*
X771206Y764934D01*
X771218Y764982D01*
X771236Y765106D01*
X771271Y765319D01*
X771283Y765378D01*
X771312Y765479D01*
X771336Y765574D01*
X771366Y765721D01*
X771378Y765769D01*
X771389Y765828D01*
X771419Y765929D01*
X771437Y765994D01*
X771478Y766130D01*
X771490Y766177D01*
X771514Y766260D01*
X771549Y766402D01*
X771596Y766568D01*
X771679Y766828D01*
X771715Y766970D01*
X771792Y767189D01*
X771821Y767266D01*
X771839Y767355D01*
X771857Y767420D01*
X771910Y767568D01*
X771987Y767822D01*
X771999Y767869D01*
X772058Y768059D01*
X772088Y768136D01*
X772117Y768236D01*
X772141Y768319D01*
X772164Y768414D01*
X772194Y768491D01*
X772235Y768591D01*
X772283Y768757D01*
X772301Y768822D01*
X772336Y768917D01*
X772366Y768994D01*
X772383Y769059D01*
X772472Y769349D01*
X772573Y769639D01*
X772585Y769686D01*
X772614Y769787D01*
X772644Y769864D01*
X772691Y769982D01*
X772733Y770082D01*
X772750Y770159D01*
X772798Y770278D01*
X772827Y770355D01*
X772892Y770538D01*
X772916Y770597D01*
X772946Y770698D01*
X772969Y770757D01*
X773052Y770934D01*
X773076Y770994D01*
X773105Y771071D01*
X773253Y771396D01*
X773277Y771455D01*
X773348Y771585D01*
X773407Y771680D01*
X773449Y771793D01*
X773472Y771852D01*
X773490Y771869D01*
X773502Y771893D01*
X773561Y772000D01*
X773620Y772094D01*
X773632Y772142D01*
X773691Y772248D01*
X773715Y772272D01*
X773916Y772662D01*
X773951Y772721D01*
X774046Y772899D01*
X774105Y773005D01*
X774247Y773278D01*
X774306Y773372D01*
X774472Y773692D01*
X774531Y773775D01*
X774543Y773822D01*
X774626Y773929D01*
X774662Y773964D01*
X774673Y773988D01*
X774727Y774053D01*
X774756Y774094D01*
X774810Y774159D01*
X774957Y774307D01*
X774969Y774331D01*
X775058Y774420D01*
X775082Y774432D01*
X775271Y774621D01*
X775295Y774633D01*
X775354Y774692D01*
X775378Y774704D01*
X775508Y774834D01*
X775531Y774846D01*
X775638Y774952D01*
X775662Y774964D01*
X775697Y775000D01*
X775721Y775011D01*
X775786Y775077D01*
X775798Y775100D01*
X775851Y775153D01*
X775875Y775165D01*
X775987Y775242D01*
X776135Y775390D01*
X776159Y775402D01*
X776182Y775426D01*
X776206Y775437D01*
X776265Y775497D01*
X776289Y775508D01*
X776312Y775532D01*
X776336Y775544D01*
X776490Y775698D01*
X776514Y775710D01*
X776626Y775787D01*
X776673Y775834D01*
X776685Y775858D01*
X776762Y775935D01*
X776845Y775982D01*
X776987Y776124D01*
X777011Y776136D01*
X777094Y776219D01*
X777111Y776225D01*
X777123Y776248D01*
X777153Y776278D01*
X777176Y776290D01*
X777259Y776337D01*
X777301Y776378D01*
X777313Y776402D01*
X777413Y776503D01*
X777496Y776550D01*
X777526Y776568D01*
X777537Y776591D01*
X777573Y776627D01*
X777585Y776650D01*
X777614Y776680D01*
X777638Y776692D01*
X777662Y776716D01*
X777685Y776727D01*
X777750Y776781D01*
X777881Y776911D01*
X777892Y776958D01*
X777881Y777006D01*
X777827Y777071D01*
X777792Y777106D01*
X777768Y777118D01*
X777685Y777165D01*
X777555Y777248D01*
X777531Y777260D01*
X777449Y777319D01*
X777342Y777378D01*
X777277Y777432D01*
X777259Y777449D01*
X777236Y777461D01*
X777088Y777574D01*
X777064Y777597D01*
X777052Y777621D01*
X776999Y777686D01*
X776963Y777722D01*
X776940Y777733D01*
X776887Y777787D01*
X776875Y777810D01*
X776780Y777988D01*
X776756Y778012D01*
X776691Y778195D01*
X776662Y778260D01*
X776650Y778343D01*
X776632Y778455D01*
X776620Y778514D01*
X776614Y778852D01*
X776626Y778887D01*
X776644Y778952D01*
X776656Y779000D01*
X776679Y779118D01*
X776715Y779260D01*
X776739Y779319D01*
X776804Y779455D01*
X776958Y779751D01*
X776981Y779775D01*
X776993Y779799D01*
X777029Y779834D01*
X777076Y779917D01*
X777159Y780023D01*
X777242Y780106D01*
X777253Y780130D01*
X777277Y780154D01*
X777289Y780177D01*
X777378Y780266D01*
X777401Y780278D01*
X777466Y780331D01*
X777520Y780396D01*
X777543Y780420D01*
X777567Y780432D01*
X777632Y780485D01*
X777650Y780503D01*
X777673Y780514D01*
X777733Y780574D01*
X777886Y780656D01*
X777946Y780716D01*
X777969Y780727D01*
X778076Y780787D01*
X778194Y780869D01*
X778253Y780893D01*
X778478Y781000D01*
X778555Y781029D01*
X778614Y781053D01*
X778691Y781082D01*
X778774Y781106D01*
X778851Y781136D01*
X778975Y781189D01*
X779040Y781207D01*
X779100Y781230D01*
X779117Y781248D01*
X779141Y781260D01*
X779253Y781337D01*
X779301Y781384D01*
X779318Y781461D01*
X779324Y781621D01*
X779313Y781657D01*
X779295Y781840D01*
X779259Y781982D01*
X779242Y782201D01*
X779230Y782236D01*
X779242Y782757D01*
X779253Y782793D01*
X779265Y782911D01*
X779277Y782946D01*
X779318Y783142D01*
X779330Y783201D01*
X779342Y783248D01*
X779360Y783313D01*
X779384Y783372D01*
X779407Y783467D01*
X779460Y783615D01*
X779526Y783739D01*
X779549Y783799D01*
X779620Y783929D01*
X779703Y784083D01*
X779750Y784165D01*
X779827Y784278D01*
X779845Y784296D01*
X779857Y784319D01*
X779881Y784343D01*
X779892Y784367D01*
X779940Y784438D01*
X779952Y784461D01*
X780034Y784568D01*
X780094Y784627D01*
X780105Y784651D01*
X780129Y784674D01*
X780141Y784698D01*
X780194Y784763D01*
X780307Y784875D01*
X780318Y784899D01*
X780431Y785012D01*
X780455Y785023D01*
X780597Y785165D01*
X780620Y785177D01*
X780656Y785213D01*
X780679Y785225D01*
X780821Y785367D01*
X780845Y785379D01*
X780928Y785426D01*
X780993Y785479D01*
X781034Y785509D01*
X781070Y785544D01*
X781094Y785556D01*
X781129Y785592D01*
X781153Y785603D01*
X781188Y785639D01*
X781212Y785651D01*
X781248Y785686D01*
X781449Y785793D01*
X781520Y785840D01*
X781567Y785852D01*
X781673Y785911D01*
X781744Y785958D01*
X781792Y785970D01*
X781922Y786041D01*
X781981Y786077D01*
X782040Y786100D01*
X782242Y786195D01*
X782354Y786236D01*
X782443Y786290D01*
X782591Y786343D01*
X782727Y786408D01*
X782875Y786461D01*
X782940Y786479D01*
X782987Y786491D01*
X783082Y786503D01*
X783141Y786526D01*
X783206Y786544D01*
X783265Y786556D01*
X783324Y786580D01*
X783425Y786621D01*
X783472Y786633D01*
X783608Y786651D01*
X783727Y786674D01*
X783774Y786686D01*
X783910Y786728D01*
X783993Y786739D01*
X784135Y786751D01*
X784171Y786763D01*
X784253Y786775D01*
X784425Y786793D01*
X784520Y786804D01*
X784662Y786828D01*
X784898Y786840D01*
X785111Y786852D01*
X785472Y786858D01*
X785508Y786846D01*
D02*
G37*
G36*
X787046Y782136D02*
X787153Y782077D01*
X787182Y782035D01*
X787265Y781952D01*
X787289Y781893D01*
X787301Y781846D01*
X787289Y781645D01*
X787230Y781538D01*
X787177Y781473D01*
X787129Y781402D01*
X787106Y781378D01*
X786999Y781331D01*
X786916Y781319D01*
X786774Y781331D01*
X786668Y781390D01*
X786603Y781444D01*
X786549Y781509D01*
X786531Y781526D01*
X786496Y781609D01*
X786508Y781787D01*
X786531Y781846D01*
X786603Y781976D01*
X786620Y781994D01*
X786644Y782006D01*
X786656Y782018D01*
X786668D01*
X786762Y782112D01*
X786822Y782136D01*
X786975Y782148D01*
X787046Y782136D01*
D02*
G37*
G36*
X852929Y782231D02*
X853160Y782213D01*
X853219Y782201D01*
X853278Y782177D01*
X853367Y782124D01*
X853444Y782094D01*
X853485Y782065D01*
X853544Y782006D01*
X853568Y781994D01*
X853621Y781941D01*
X853633Y781917D01*
X853657Y781893D01*
X853663Y781876D01*
X853680Y781870D01*
X853692Y781846D01*
X853716Y781822D01*
X853728Y781775D01*
X853751Y781692D01*
X853775Y781633D01*
X853799Y781550D01*
X853811Y781503D01*
X853816Y781343D01*
X853805Y781248D01*
X853793Y781189D01*
X853751Y781088D01*
X853728Y780994D01*
X853680Y780911D01*
X853621Y780852D01*
X853586Y780793D01*
X853544Y780751D01*
X853521Y780739D01*
X853456Y780686D01*
X853426Y780656D01*
X853343Y780621D01*
X853296Y780609D01*
X853142Y780538D01*
X853094Y780526D01*
X852976Y780514D01*
X852479Y780526D01*
X852444Y780538D01*
X852396Y780550D01*
X852242Y780621D01*
X852166Y780651D01*
X852100Y780716D01*
X852077Y780727D01*
X852012Y780781D01*
X851958Y780846D01*
X851917Y780887D01*
X851887Y780964D01*
X851834Y781053D01*
X851810Y781136D01*
X851799Y781254D01*
X851810Y781621D01*
X851941Y781870D01*
X852024Y781952D01*
X852035Y781976D01*
X852053Y781994D01*
X852077Y782006D01*
X852100Y782029D01*
X852124Y782041D01*
X852183Y782100D01*
X852248Y782118D01*
X852361Y782183D01*
X852373D01*
X852432Y782207D01*
X852550Y782219D01*
X852633Y782231D01*
X852893Y782242D01*
X852929Y782231D01*
D02*
G37*
G36*
X788632Y779639D02*
X788715Y779591D01*
X788733Y779574D01*
X788745Y779550D01*
X788816Y779432D01*
X788822Y779426D01*
X788839Y779408D01*
X788851Y779290D01*
X788839Y779207D01*
X788827Y779171D01*
X788798Y779094D01*
X788751Y779023D01*
X788703Y778976D01*
X788644Y778952D01*
X788455Y778964D01*
X788230Y779082D01*
X788200Y779112D01*
X788165Y779195D01*
X788153Y779290D01*
X788165Y779325D01*
X788182Y779390D01*
X788206Y779449D01*
X788265Y779520D01*
X788336Y779591D01*
X788360Y779603D01*
X788467Y779651D01*
X788632Y779639D01*
D02*
G37*
G36*
X815425Y781307D02*
X815461Y781296D01*
X815591Y781284D01*
X815627Y781272D01*
X815674Y781260D01*
X815792Y781225D01*
X815840Y781213D01*
X815923Y781201D01*
X815970Y781189D01*
X816041Y781177D01*
X816171Y781118D01*
X816289Y781082D01*
X816366Y781065D01*
X816437Y781017D01*
X816538Y780976D01*
X816650Y780935D01*
X816692Y780893D01*
X816715Y780881D01*
X816774Y780858D01*
X816881Y780798D01*
X816917Y780763D01*
X817047Y780692D01*
X817094Y780645D01*
X817177Y780597D01*
X817201Y780574D01*
X817224Y780562D01*
X817272Y780514D01*
X817331Y780479D01*
X817414Y780396D01*
X817437Y780384D01*
X817490Y780331D01*
X817502Y780307D01*
X817532Y780278D01*
X817556Y780266D01*
X817585Y780236D01*
X817597Y780213D01*
X817621Y780154D01*
X817609Y780083D01*
X817568Y780029D01*
X817544Y780018D01*
X817514Y779988D01*
X817502Y779964D01*
X817479Y779941D01*
X817467Y779917D01*
X817384Y779834D01*
X817372Y779810D01*
X817319Y779745D01*
X817254Y779680D01*
X817242Y779657D01*
X817147Y779562D01*
X817136Y779538D01*
X817041Y779444D01*
X817029Y779420D01*
X816934Y779325D01*
X816922Y779302D01*
X816899Y779278D01*
X816887Y779254D01*
X816846Y779224D01*
X816816Y779183D01*
X816763Y779118D01*
X816710Y779065D01*
X816698Y779041D01*
X816662Y779006D01*
X816650Y778982D01*
X816609Y778940D01*
X816538Y778917D01*
X816479Y778952D01*
X816461Y778970D01*
X816449Y778994D01*
X816408Y779035D01*
X816384Y779047D01*
X816331Y779100D01*
X816325Y779118D01*
X816301Y779130D01*
X816195Y779213D01*
X816171Y779236D01*
X816147Y779248D01*
X816035Y779325D01*
X816005Y779355D01*
X815923Y779390D01*
X815840Y779438D01*
X815816Y779461D01*
X815757Y779485D01*
X815680Y779503D01*
X815621Y779526D01*
X815544Y779568D01*
X815461Y779591D01*
X815414Y779603D01*
X815094Y779639D01*
X814946Y779657D01*
X814917Y779662D01*
X814881Y779651D01*
X814763Y779639D01*
X814585Y779627D01*
X814550Y779615D01*
X814396Y779603D01*
X814360Y779591D01*
X814295Y779574D01*
X814254Y779556D01*
X814147Y779509D01*
X814100Y779497D01*
X813988Y779455D01*
X813946Y779414D01*
X813828Y779367D01*
X813804Y779355D01*
X813757Y779307D01*
X813733Y779296D01*
X813709Y779272D01*
X813627Y779224D01*
X813556Y779153D01*
X813532Y779142D01*
X813384Y778994D01*
X813372Y778970D01*
X813289Y778887D01*
X813242Y778804D01*
X813195Y778757D01*
X813159Y778674D01*
X813112Y778591D01*
X813076Y778556D01*
X813041Y778426D01*
X812958Y778248D01*
X812946Y778165D01*
X812934Y778118D01*
X812922Y778023D01*
X812911Y777988D01*
X812899Y777941D01*
X812881Y777864D01*
X812869Y777793D01*
X812857Y777698D01*
X812851Y777290D01*
X812863Y777254D01*
X812881Y777118D01*
X812916Y776976D01*
X812928Y776917D01*
X812952Y776775D01*
X812964Y776727D01*
X812988Y776668D01*
X813005Y776650D01*
X813053Y776532D01*
X813070Y776467D01*
X813112Y776402D01*
X813159Y776331D01*
X813189Y776254D01*
X813218Y776213D01*
X813266Y776165D01*
X813278Y776142D01*
X813331Y776065D01*
X813354Y776053D01*
X813384Y776012D01*
X813408Y775988D01*
X813420Y775964D01*
X813449Y775935D01*
X813473Y775923D01*
X813502Y775881D01*
X813520Y775864D01*
X813544Y775852D01*
X813567Y775828D01*
X813591Y775816D01*
X813662Y775745D01*
X813745Y775698D01*
X813792Y775651D01*
X813869Y775621D01*
X813928Y775597D01*
X813946Y775580D01*
X813970Y775568D01*
X813993Y775544D01*
X814076Y775520D01*
X814124Y775508D01*
X814236Y775467D01*
X814337Y775426D01*
X814384Y775414D01*
X814467Y775402D01*
X814603Y775384D01*
X814928Y775343D01*
X815307Y775355D01*
X815343Y775366D01*
X815443Y775384D01*
X815668Y775420D01*
X815715Y775432D01*
X815851Y775497D01*
X815946Y775520D01*
X816053Y775580D01*
X816254Y775686D01*
X816289Y775722D01*
X816396Y775781D01*
X816455Y775840D01*
X816538Y775887D01*
X816632Y775982D01*
X816656Y775994D01*
X816739Y776029D01*
X816763Y776017D01*
X816792Y775988D01*
X816822Y775911D01*
X816852Y775870D01*
X816899Y775822D01*
X816922Y775763D01*
X816970Y775680D01*
X817017Y775633D01*
X817047Y775556D01*
X817076Y775514D01*
X817124Y775467D01*
X817147Y775408D01*
X817195Y775325D01*
X817242Y775278D01*
X817266Y775219D01*
X817301Y775159D01*
X817337Y775124D01*
X817348Y775100D01*
X817420Y774970D01*
X817467Y774923D01*
X817550Y774769D01*
X817573Y774710D01*
X817562Y774650D01*
X817520Y774609D01*
X817496Y774597D01*
X817467Y774568D01*
X817455Y774544D01*
X817437Y774526D01*
X817414Y774514D01*
X817307Y774432D01*
X817272Y774396D01*
X817165Y774337D01*
X817106Y774278D01*
X817059Y774266D01*
X816976Y774219D01*
X816940Y774183D01*
X816857Y774148D01*
X816810Y774136D01*
X816698Y774059D01*
X816603Y774035D01*
X816526Y774006D01*
X816455Y773958D01*
X816372Y773935D01*
X816325Y773923D01*
X816254Y773911D01*
X816124Y773852D01*
X816041Y773828D01*
X815993Y773816D01*
X815869Y773798D01*
X815810Y773787D01*
X815763Y773775D01*
X815627Y773733D01*
X815579Y773722D01*
X815461Y773710D01*
X815378Y773698D01*
X815070Y773686D01*
X815035Y773674D01*
X814431Y773686D01*
X814396Y773698D01*
X814159Y773710D01*
X814124Y773722D01*
X814029Y773733D01*
X813970Y773757D01*
X813887Y773781D01*
X813792Y773804D01*
X813656Y773822D01*
X813609Y773834D01*
X813473Y773899D01*
X813390Y773923D01*
X813313Y773940D01*
X813254Y773964D01*
X813236Y773982D01*
X813212Y773994D01*
X813189Y774017D01*
X813124Y774035D01*
X813076Y774047D01*
X813017Y774071D01*
X812999Y774088D01*
X812976Y774100D01*
X812952Y774124D01*
X812893Y774148D01*
X812786Y774207D01*
X812763Y774230D01*
X812739Y774242D01*
X812609Y774313D01*
X812562Y774361D01*
X812538Y774372D01*
X812455Y774432D01*
X812283Y774556D01*
X812271Y774579D01*
X812230Y774609D01*
X812165Y774662D01*
X812135Y774704D01*
X812112Y774716D01*
X812088Y774739D01*
X812064Y774751D01*
X812035Y774792D01*
X811993Y774846D01*
X811970Y774858D01*
X811940Y774887D01*
X811928Y774911D01*
X811905Y774934D01*
X811893Y774958D01*
X811851Y774988D01*
X811834Y775006D01*
X811822Y775029D01*
X811775Y775112D01*
X811715Y775171D01*
X811703Y775195D01*
X811644Y775278D01*
X811609Y775313D01*
X811573Y775396D01*
X811526Y775479D01*
X811490Y775514D01*
X811467Y775574D01*
X811437Y775651D01*
X811419Y775668D01*
X811408Y775692D01*
X811384Y775716D01*
X811360Y775775D01*
X811343Y775852D01*
X811254Y776023D01*
X811212Y776207D01*
X811147Y776343D01*
X811129Y776443D01*
X811118Y776538D01*
X811106Y776609D01*
X811094Y776656D01*
X811076Y776722D01*
X811064Y776769D01*
X811041Y776911D01*
X811029Y776994D01*
X811017Y777112D01*
X811011Y777615D01*
X811023Y777958D01*
X811035Y778053D01*
X811047Y778124D01*
X811059Y778183D01*
X811106Y778372D01*
X811118Y778432D01*
X811141Y778585D01*
X811153Y778633D01*
X811177Y778692D01*
X811230Y778816D01*
X811260Y778940D01*
X811283Y779000D01*
X811313Y779029D01*
X811337Y779088D01*
X811348Y779136D01*
X811378Y779213D01*
X811443Y779302D01*
X811485Y779414D01*
X811514Y779455D01*
X811538Y779479D01*
X811550Y779503D01*
X811621Y779633D01*
X811633Y779645D01*
X811638Y779651D01*
X811692Y779728D01*
X811739Y779810D01*
X811775Y779834D01*
X811786Y779858D01*
X811869Y779964D01*
X811917Y780012D01*
X811928Y780035D01*
X812035Y780142D01*
X812047Y780165D01*
X812076Y780195D01*
X812100Y780207D01*
X812118Y780225D01*
X812129Y780248D01*
X812171Y780290D01*
X812195Y780302D01*
X812289Y780396D01*
X812313Y780408D01*
X812337Y780432D01*
X812354Y780438D01*
X812366Y780461D01*
X812408Y780503D01*
X812490Y780550D01*
X812550Y780609D01*
X812656Y780668D01*
X812704Y780716D01*
X812786Y780751D01*
X812846Y780787D01*
X812869Y780810D01*
X812893Y780822D01*
X812999Y780869D01*
X813082Y780917D01*
X813106Y780940D01*
X813224Y780976D01*
X813301Y781006D01*
X813331Y781035D01*
X813354Y781047D01*
X813414Y781071D01*
X813550Y781100D01*
X813609Y781124D01*
X813733Y781177D01*
X813780Y781189D01*
X813916Y781207D01*
X813976Y781219D01*
X814023Y781230D01*
X814159Y781272D01*
X814242Y781284D01*
X814360Y781296D01*
X814443Y781307D01*
X814987Y781319D01*
X815425Y781307D01*
D02*
G37*
G36*
X829343Y779485D02*
X829378Y779473D01*
X829473Y779461D01*
X829591Y779414D01*
X829686Y779390D01*
X829810Y779361D01*
X829869Y779337D01*
X829887Y779319D01*
X829911Y779307D01*
X829994Y779272D01*
X830071Y779242D01*
X830112Y779213D01*
X830136Y779189D01*
X830159Y779177D01*
X830289Y779106D01*
X830337Y779059D01*
X830361Y779047D01*
X830443Y778988D01*
X830503Y778929D01*
X830526Y778917D01*
X830686Y778757D01*
X830698Y778733D01*
X830716Y778716D01*
X830739Y778704D01*
X830769Y778674D01*
X830781Y778651D01*
X830834Y778585D01*
X830887Y778532D01*
X830935Y778449D01*
X830970Y778414D01*
X830982Y778390D01*
X831053Y778260D01*
X831077Y778236D01*
X831088Y778213D01*
X831124Y778130D01*
X831147Y778071D01*
X831159Y778047D01*
X831183Y778023D01*
X831195Y778000D01*
X831230Y777917D01*
X831260Y777793D01*
X831325Y777668D01*
X831349Y777526D01*
X831361Y777479D01*
X831378Y777390D01*
X831390Y777343D01*
X831408Y777278D01*
X831431Y777183D01*
X831443Y777065D01*
X831455Y776982D01*
X831467Y776438D01*
X831455Y776284D01*
X831443Y776047D01*
X831431Y776012D01*
X831414Y775923D01*
X831402Y775875D01*
X831384Y775810D01*
X831361Y775716D01*
X831349Y775633D01*
X831319Y775508D01*
X831301Y775467D01*
X831242Y775337D01*
X831230Y775266D01*
X831219Y775230D01*
X831171Y775148D01*
X831112Y775017D01*
X831065Y774934D01*
X831029Y774899D01*
X831000Y774822D01*
X830958Y774757D01*
X830911Y774710D01*
X830863Y774627D01*
X830793Y774556D01*
X830781Y774532D01*
X830727Y774467D01*
X830514Y774254D01*
X830491Y774242D01*
X830408Y774159D01*
X830325Y774112D01*
X830301Y774077D01*
X830278Y774065D01*
X830147Y773994D01*
X830112Y773958D01*
X830053Y773935D01*
X829976Y773905D01*
X829881Y773846D01*
X829828Y773828D01*
X829733Y773804D01*
X829656Y773787D01*
X829556Y773745D01*
X829461Y773722D01*
X829295Y773698D01*
X828928Y773686D01*
X828609Y773698D01*
X828574Y773710D01*
X828455Y773722D01*
X828420Y773733D01*
X828301Y773781D01*
X828218Y773804D01*
X828094Y773834D01*
X828053Y773852D01*
X827982Y773899D01*
X827834Y773952D01*
X827804Y773982D01*
X827781Y773994D01*
X827757Y774017D01*
X827698Y774041D01*
X827615Y774088D01*
X827556Y774148D01*
X827532Y774159D01*
X827491Y774189D01*
X827479Y774213D01*
X827449Y774242D01*
X827402Y774254D01*
X827343Y774242D01*
X827325Y774225D01*
X827313Y774142D01*
X827325Y774106D01*
X827313Y771491D01*
X827295Y771461D01*
X827236Y771438D01*
X825662Y771449D01*
X825621Y771491D01*
Y775645D01*
Y775657D01*
X825615Y779307D01*
X825633Y779349D01*
X825650Y779367D01*
X825733Y779390D01*
X827177Y779378D01*
X827230Y779337D01*
X827242Y779290D01*
X827254Y778887D01*
X827283Y778846D01*
X827313Y778840D01*
X827361Y778864D01*
X827372Y778887D01*
X827520Y779035D01*
X827603Y779082D01*
X827650Y779130D01*
X827710Y779153D01*
X827816Y779213D01*
X827840Y779236D01*
X827899Y779260D01*
X827964Y779278D01*
X828023Y779302D01*
X828112Y779355D01*
X828189Y779373D01*
X828307Y779396D01*
X828514Y779461D01*
X828680Y779485D01*
X828905Y779497D01*
X829343Y779485D01*
D02*
G37*
G36*
X859035D02*
X859071Y779473D01*
X859160Y779455D01*
X859219Y779432D01*
X859296Y779402D01*
X859391Y779378D01*
X859456Y779361D01*
X859521Y779319D01*
X859722Y779213D01*
X859757Y779177D01*
X859781Y779165D01*
X859864Y779106D01*
X859947Y779023D01*
X859964Y779017D01*
X859976Y778994D01*
X860012Y778958D01*
X860018Y778940D01*
X860041Y778929D01*
X860083Y778887D01*
X860130Y778804D01*
X860178Y778757D01*
X860213Y778674D01*
X860260Y778591D01*
X860284Y778568D01*
X860308Y778509D01*
X860331Y778414D01*
X860361Y778337D01*
X860379Y778319D01*
X860414Y778236D01*
X860426Y778154D01*
X860438Y778106D01*
X860456Y777994D01*
X860467Y777946D01*
X860485Y777881D01*
X860497Y777834D01*
X860509Y777751D01*
X860521Y777704D01*
X860532Y777550D01*
X860544Y777148D01*
X860532Y773822D01*
X860491Y773781D01*
X860444Y773769D01*
X860290Y773781D01*
X858899Y773775D01*
X858864Y773798D01*
X858840Y773858D01*
X858828Y777372D01*
X858817Y777408D01*
X858805Y777479D01*
X858745Y777609D01*
X858734Y777657D01*
X858704Y777733D01*
X858639Y777799D01*
X858627Y777822D01*
X858574Y777887D01*
X858467Y777970D01*
X858408Y778006D01*
X858313Y778029D01*
X858249Y778047D01*
X858201Y778059D01*
X858059Y778083D01*
X857935Y778088D01*
X857899Y778077D01*
X857781Y778065D01*
X857734Y778053D01*
X857651Y778029D01*
X857568Y778017D01*
X857521Y778006D01*
X857438Y777958D01*
X857414Y777935D01*
X857284Y777864D01*
X857213Y777793D01*
X857207Y777787D01*
X857148Y777728D01*
X857112Y777668D01*
X857059Y777603D01*
X857041Y777586D01*
X857018Y777503D01*
X856988Y777426D01*
X856947Y777325D01*
X856935Y777242D01*
X856923Y777124D01*
X856911Y773822D01*
X856870Y773781D01*
X856787Y773769D01*
X856704Y773781D01*
X855284Y773793D01*
X855231Y773846D01*
X855225Y779296D01*
X855237Y779343D01*
X855260Y779367D01*
X855355Y779390D01*
X856787Y779378D01*
X856852Y779325D01*
X856864Y779242D01*
X856852Y779183D01*
X856864Y779148D01*
X856888Y778828D01*
X856917Y778798D01*
X856988Y778810D01*
X857030Y778852D01*
X857041Y778875D01*
X857106Y778940D01*
X857130Y778952D01*
X857201Y779023D01*
X857284Y779071D01*
X857331Y779118D01*
X857355Y779130D01*
X857485Y779201D01*
X857521Y779236D01*
X857580Y779260D01*
X857692Y779302D01*
X857734Y779331D01*
X857817Y779367D01*
X857864Y779378D01*
X857941Y779396D01*
X858059Y779444D01*
X858160Y779473D01*
X858396Y779497D01*
X859035Y779485D01*
D02*
G37*
G36*
X779236Y779828D02*
X779271Y779816D01*
X779348Y779799D01*
X779561Y779704D01*
X779620Y779680D01*
X779715Y779621D01*
X779733Y779603D01*
X779756Y779591D01*
X779786Y779562D01*
X779798Y779538D01*
X779863Y779473D01*
X779886Y779461D01*
X779952Y779396D01*
X779987Y779313D01*
X780034Y779207D01*
X780046Y779159D01*
X780034Y778875D01*
X780011Y778816D01*
X779975Y778733D01*
X779963Y778710D01*
X779904Y778603D01*
X779851Y778538D01*
X779715Y778402D01*
X779703Y778378D01*
X779650Y778337D01*
X779401Y778219D01*
X779212Y778207D01*
X779034Y778219D01*
X778999Y778230D01*
X778952Y778242D01*
X778839Y778284D01*
X778821Y778301D01*
X778739Y778349D01*
X778715Y778372D01*
X778691Y778384D01*
X778626Y778438D01*
X778608Y778455D01*
X778585Y778467D01*
X778543Y778509D01*
X778532Y778532D01*
X778508Y778556D01*
X778496Y778580D01*
X778437Y778639D01*
X778425Y778662D01*
X778330Y778840D01*
X778259Y778994D01*
X778176Y779171D01*
X778165Y779219D01*
X778153Y779337D01*
X778182Y779473D01*
X778212Y779526D01*
Y779538D01*
X778265Y779603D01*
X778330Y779657D01*
X778401Y779704D01*
X778525Y779757D01*
X778614Y779775D01*
X778668Y779793D01*
X778762Y779816D01*
X778928Y779840D01*
X779236Y779828D01*
D02*
G37*
G36*
X842349Y779485D02*
X842384Y779473D01*
X842515Y779461D01*
X842550Y779449D01*
X842704Y779402D01*
X842751Y779390D01*
X842864Y779373D01*
X842923Y779361D01*
X842982Y779337D01*
X843059Y779296D01*
X843142Y779272D01*
X843219Y779254D01*
X843278Y779230D01*
X843296Y779213D01*
X843319Y779201D01*
X843449Y779142D01*
X843532Y779094D01*
X843556Y779071D01*
X843580Y779059D01*
X843710Y778988D01*
X843757Y778940D01*
X843840Y778893D01*
X843911Y778822D01*
X843935Y778810D01*
X844189Y778556D01*
X844195Y778503D01*
X844183Y778455D01*
X844154Y778414D01*
X844094Y778355D01*
X844083Y778331D01*
X844029Y778266D01*
X843964Y778201D01*
X843952Y778177D01*
X843899Y778112D01*
X843876Y778100D01*
X843828Y778029D01*
X843751Y777952D01*
X843739Y777929D01*
X843657Y777822D01*
X843621Y777787D01*
X843609Y777763D01*
X843556Y777698D01*
X843503Y777645D01*
X843491Y777621D01*
X843449Y777568D01*
X843426Y777556D01*
X843378Y777485D01*
X843367Y777461D01*
X843307Y777437D01*
X843225Y777485D01*
X843142Y777568D01*
X843118Y777580D01*
X843035Y777662D01*
X843012Y777674D01*
X842929Y777733D01*
X842893Y777769D01*
X842763Y777840D01*
X842739Y777864D01*
X842680Y777887D01*
X842633Y777899D01*
X842556Y777929D01*
X842497Y777952D01*
X842432Y777982D01*
X842337Y778006D01*
X842219Y778017D01*
X841852Y778029D01*
X841816Y778017D01*
X841639Y778006D01*
X841603Y777994D01*
X841426Y777911D01*
X841361Y777893D01*
X841296Y777852D01*
X841260Y777816D01*
X841154Y777757D01*
X841059Y777662D01*
X841035Y777651D01*
X841018Y777633D01*
X841006Y777609D01*
X840952Y777544D01*
X840899Y777491D01*
X840887Y777444D01*
X840828Y777361D01*
X840781Y777254D01*
X840757Y777171D01*
X840710Y777065D01*
X840686Y776982D01*
X840674Y776935D01*
X840662Y776745D01*
X840674Y776248D01*
X840686Y776213D01*
X840698Y776165D01*
X840757Y776035D01*
X840781Y775941D01*
X840828Y775858D01*
X840852Y775834D01*
X840864Y775810D01*
X840935Y775680D01*
X840994Y775621D01*
X841006Y775597D01*
X841059Y775532D01*
X841124Y775479D01*
X841189Y775414D01*
X841296Y775355D01*
X841331Y775319D01*
X841414Y775284D01*
X841461Y775272D01*
X841544Y775224D01*
X841627Y775189D01*
X841745Y775177D01*
X841899Y775165D01*
X841982Y775153D01*
X842136Y775165D01*
X842373Y775177D01*
X842408Y775189D01*
X842479Y775201D01*
X842633Y775272D01*
X842680Y775284D01*
X842775Y775319D01*
X842822Y775366D01*
X842846Y775378D01*
X842976Y775449D01*
X843035Y775508D01*
X843059Y775520D01*
X843124Y775574D01*
X843272Y775722D01*
X843331Y775733D01*
X843384Y775692D01*
X843432Y775609D01*
X843491Y775550D01*
X843503Y775526D01*
X843585Y775420D01*
X843621Y775384D01*
X843657Y775325D01*
X843727Y775254D01*
X843739Y775230D01*
X843781Y775177D01*
X843804Y775165D01*
X843822Y775148D01*
X843834Y775124D01*
X843887Y775059D01*
X843941Y775006D01*
X843952Y774982D01*
X844035Y774875D01*
X844059Y774852D01*
X844071Y774828D01*
X844124Y774763D01*
X844177Y774710D01*
X844189Y774662D01*
X844177Y774603D01*
X843946Y774372D01*
X843923Y774361D01*
X843852Y774290D01*
X843828Y774278D01*
X843745Y774219D01*
X843710Y774183D01*
X843686Y774171D01*
X843556Y774100D01*
X843532Y774077D01*
X843509Y774065D01*
X843449Y774041D01*
X843373Y774011D01*
X843301Y773964D01*
X843236Y773935D01*
X843159Y773917D01*
X843112Y773905D01*
X843053Y773881D01*
X842976Y773840D01*
X842893Y773816D01*
X842781Y773798D01*
X842733Y773787D01*
X842526Y773722D01*
X842290Y773698D01*
X842100Y773686D01*
X841769Y773674D01*
X841544Y773686D01*
X841390Y773698D01*
X841272Y773710D01*
X841225Y773722D01*
X841148Y773739D01*
X841071Y773769D01*
X841012Y773793D01*
X840828Y773834D01*
X840769Y773858D01*
X840751Y773875D01*
X840668Y773911D01*
X840538Y773958D01*
X840514Y773982D01*
X840491Y773994D01*
X840467Y774017D01*
X840355Y774059D01*
X840349Y774065D01*
X840343Y774071D01*
X840302Y774112D01*
X840278Y774124D01*
X840171Y774183D01*
X840112Y774242D01*
X840088Y774254D01*
X840006Y774313D01*
X839935Y774384D01*
X839911Y774396D01*
X839858Y774449D01*
X839846Y774473D01*
X839804Y774503D01*
X839751Y774556D01*
X839739Y774579D01*
X839698Y774621D01*
X839674Y774633D01*
X839627Y774704D01*
X839597Y774745D01*
X839550Y774792D01*
X839538Y774816D01*
X839491Y774899D01*
X839443Y774946D01*
X839432Y774970D01*
X839361Y775100D01*
X839337Y775124D01*
X839325Y775148D01*
X839301Y775207D01*
X839266Y775301D01*
X839207Y775384D01*
X839189Y775461D01*
X839165Y775556D01*
X839124Y775645D01*
X839100Y775704D01*
X839077Y775799D01*
X839059Y775946D01*
X839011Y776183D01*
X839000Y776254D01*
X838988Y776361D01*
X838982Y776804D01*
X838994Y776840D01*
X839006Y776994D01*
X839017Y777029D01*
X839065Y777290D01*
X839077Y777372D01*
X839100Y777479D01*
X839159Y777609D01*
X839195Y777751D01*
X839254Y777858D01*
X839301Y777964D01*
X839313Y778012D01*
X839408Y778154D01*
X839455Y778236D01*
X839491Y778272D01*
X839503Y778296D01*
X839550Y778378D01*
X839603Y778443D01*
X839633Y778473D01*
X839645Y778497D01*
X839698Y778562D01*
X839763Y778627D01*
X839775Y778651D01*
X839816Y778692D01*
X839840Y778704D01*
X839881Y778745D01*
X839893Y778769D01*
X839923Y778798D01*
X839946Y778810D01*
X840012Y778864D01*
X840017Y778881D01*
X840041Y778893D01*
X840065Y778917D01*
X840148Y778964D01*
X840195Y779011D01*
X840219Y779023D01*
X840302Y779071D01*
X840331Y779088D01*
X840337Y779106D01*
X840361Y779118D01*
X840538Y779213D01*
X840597Y779248D01*
X840680Y779272D01*
X840757Y779302D01*
X840846Y779355D01*
X840923Y779373D01*
X840994Y779384D01*
X841088Y779408D01*
X841260Y779461D01*
X841307Y779473D01*
X841461Y779485D01*
X841544Y779497D01*
X842349Y779485D01*
D02*
G37*
G36*
X837804Y779378D02*
X837858Y779337D01*
X837869Y779290D01*
X837858Y779100D01*
X837864Y773887D01*
X837852Y773840D01*
X837822Y773798D01*
X837769Y773781D01*
X837722Y773769D01*
X837568Y773781D01*
X836313Y773793D01*
X836272Y773822D01*
X836248Y773905D01*
X836230Y774372D01*
X836213Y774414D01*
X836195Y774432D01*
X836136Y774420D01*
X836118Y774402D01*
X836106Y774378D01*
X836047Y774296D01*
X835982Y774230D01*
X835958Y774219D01*
X835899Y774159D01*
X835875Y774148D01*
X835810Y774094D01*
X835781Y774065D01*
X835757Y774053D01*
X835674Y774006D01*
X835609Y773952D01*
X835532Y773923D01*
X835426Y773864D01*
X835319Y773816D01*
X835272Y773804D01*
X835207Y773787D01*
X835059Y773722D01*
X834917Y773698D01*
X834763Y773686D01*
X834645Y773674D01*
X834491Y773662D01*
X834301Y773674D01*
X834142Y773692D01*
X834011Y773704D01*
X833940Y773716D01*
X833893Y773727D01*
X833745Y773793D01*
X833650Y773816D01*
X833544Y773875D01*
X833520Y773899D01*
X833443Y773929D01*
X833378Y773970D01*
X833331Y774017D01*
X833307Y774029D01*
X833224Y774088D01*
X833142Y774171D01*
X833118Y774183D01*
X833076Y774225D01*
X833065Y774248D01*
X833041Y774272D01*
X833029Y774296D01*
X832958Y774367D01*
X832899Y774473D01*
X832852Y774520D01*
X832804Y774639D01*
X832792Y774662D01*
X832733Y774745D01*
X832716Y774810D01*
X832692Y774905D01*
X832668Y774964D01*
X832615Y775088D01*
X832591Y775290D01*
X832580Y775337D01*
X832562Y775473D01*
X832550Y775520D01*
X832538Y775591D01*
X832526Y775745D01*
X832514Y779224D01*
X832508Y779313D01*
X832550Y779367D01*
X832645Y779390D01*
X834171Y779378D01*
X834225Y779325D01*
X834219Y779153D01*
X834230Y775994D01*
X834254Y775875D01*
X834290Y775733D01*
X834313Y775603D01*
X834372Y775508D01*
X834390Y775491D01*
X834449Y775384D01*
X834621Y775213D01*
X834639Y775207D01*
X834645Y775201D01*
X834727Y775165D01*
X834905Y775082D01*
X835094Y775071D01*
X835177Y775059D01*
X835213Y775071D01*
X835426Y775082D01*
X835603Y775165D01*
X835651Y775177D01*
X835733Y775224D01*
X835781Y775272D01*
X835804Y775284D01*
X835870Y775337D01*
X835905Y775372D01*
X835917Y775396D01*
X835946Y775426D01*
X835970Y775437D01*
X836059Y775597D01*
X836106Y775668D01*
X836124Y775769D01*
X836142Y775929D01*
X836154Y775976D01*
X836165Y779337D01*
X836195Y779367D01*
X836290Y779390D01*
X837804Y779378D01*
D02*
G37*
G36*
X853592D02*
X853633Y779349D01*
X853645Y779302D01*
X853657Y779266D01*
X853645Y779230D01*
X853633Y773834D01*
X853603Y773793D01*
X853521Y773769D01*
X853367Y773781D01*
X852094Y773775D01*
X852035Y773787D01*
X851976Y773822D01*
X851952Y773881D01*
Y775467D01*
Y775479D01*
X851964Y779337D01*
X851994Y779367D01*
X852089Y779390D01*
X853592Y779378D01*
D02*
G37*
G36*
X846763Y781603D02*
X846781Y781586D01*
X846805Y781503D01*
X846799Y778869D01*
X846822Y778810D01*
X846858Y778798D01*
X846893Y778810D01*
X846935Y778852D01*
X846947Y778875D01*
X847012Y778940D01*
X847035Y778952D01*
X847106Y779023D01*
X847213Y779082D01*
X847260Y779130D01*
X847284Y779142D01*
X847390Y779201D01*
X847426Y779236D01*
X847485Y779260D01*
X847532Y779272D01*
X847591Y779296D01*
X847674Y779355D01*
X847769Y779378D01*
X847846Y779396D01*
X847964Y779444D01*
X848029Y779461D01*
X848077Y779473D01*
X848160Y779485D01*
X848384Y779497D01*
X848941Y779485D01*
X848976Y779473D01*
X849065Y779455D01*
X849124Y779432D01*
X849201Y779402D01*
X849248Y779390D01*
X849325Y779373D01*
X849402Y779343D01*
X849485Y779284D01*
X849597Y779242D01*
X849662Y779177D01*
X849686Y779165D01*
X849769Y779106D01*
X849976Y778899D01*
X850012Y778840D01*
X850071Y778781D01*
X850106Y778698D01*
X850118Y778674D01*
X850201Y778556D01*
X850219Y778467D01*
X850242Y778408D01*
X850296Y778307D01*
X850319Y778213D01*
X850337Y778112D01*
X850349Y778053D01*
X850402Y777881D01*
X850414Y777799D01*
X850426Y777645D01*
X850438Y777526D01*
X850444Y773887D01*
X850432Y773828D01*
X850414Y773810D01*
X850408Y773793D01*
X850349Y773769D01*
X850160Y773781D01*
X848828Y773775D01*
X848769Y773798D01*
X848734Y773881D01*
X848722Y777444D01*
X848710Y777479D01*
X848680Y777556D01*
X848627Y777680D01*
X848597Y777757D01*
X848509Y777846D01*
X848497Y777870D01*
X848467Y777899D01*
X848444Y777911D01*
X848378Y777964D01*
X848349Y777994D01*
X848266Y778017D01*
X848219Y778029D01*
X848089Y778065D01*
X848006Y778077D01*
X847852Y778088D01*
X847769Y778077D01*
X847722Y778065D01*
X847633Y778047D01*
X847586Y778035D01*
X847526Y778023D01*
X847455Y778012D01*
X847408Y778000D01*
X847337Y777952D01*
X847319Y777935D01*
X847296Y777923D01*
X847189Y777864D01*
X847148Y777822D01*
X847136Y777799D01*
X847118Y777781D01*
X847095Y777769D01*
X847053Y777728D01*
X847041Y777704D01*
X846964Y777591D01*
X846947Y777574D01*
X846935Y777550D01*
X846911Y777491D01*
X846893Y777414D01*
X846852Y777278D01*
X846840Y777195D01*
X846828Y777006D01*
Y774520D01*
Y774508D01*
X846834Y773887D01*
X846822Y773840D01*
X846793Y773798D01*
X846716Y773769D01*
X846526Y773781D01*
X845278Y773775D01*
X845219Y773787D01*
X845177Y773816D01*
X845148Y773846D01*
X845136Y773929D01*
X845148Y774083D01*
X845142Y781473D01*
X845154Y781532D01*
X845183Y781574D01*
X845213Y781603D01*
X845260Y781615D01*
X846722Y781621D01*
X846763Y781603D01*
D02*
G37*
G36*
X821189Y779485D02*
X821224Y779473D01*
X821313Y779455D01*
X821449Y779402D01*
X821544Y779378D01*
X821609Y779361D01*
X821704Y779302D01*
X821769Y779272D01*
X821816Y779260D01*
X821875Y779224D01*
X821911Y779189D01*
X821934Y779177D01*
X822017Y779130D01*
X822088Y779059D01*
X822112Y779047D01*
X822177Y778994D01*
X822325Y778846D01*
X822349Y778834D01*
X822408Y778810D01*
X822431Y778822D01*
X822449Y778840D01*
X822443Y779307D01*
X822461Y779349D01*
X822479Y779367D01*
X822562Y779390D01*
X824065Y779378D01*
X824106Y779349D01*
X824130Y779290D01*
X824118Y779171D01*
X824106Y773834D01*
X824065Y773793D01*
X823982Y773769D01*
X823828Y773781D01*
X822455Y773793D01*
X822402Y773846D01*
X822390Y774331D01*
X822372Y774349D01*
X822337Y774361D01*
X822278Y774325D01*
X822248Y774296D01*
X822236Y774272D01*
X822218Y774254D01*
X822195Y774242D01*
X822177Y774225D01*
X822165Y774201D01*
X822136Y774171D01*
X822112Y774159D01*
X822029Y774100D01*
X821982Y774053D01*
X821934Y774041D01*
X821822Y773964D01*
X821804Y773946D01*
X821656Y773893D01*
X821615Y773864D01*
X821508Y773816D01*
X821420Y773798D01*
X821372Y773787D01*
X821272Y773745D01*
X821189Y773722D01*
X821106Y773710D01*
X821059Y773698D01*
X820585Y773686D01*
X820431Y773698D01*
X820248Y773716D01*
X820153Y773739D01*
X820094Y773763D01*
X820017Y773793D01*
X819970Y773804D01*
X819846Y773834D01*
X819804Y773864D01*
X819733Y773911D01*
X819656Y773929D01*
X819562Y773988D01*
X819532Y774017D01*
X819402Y774088D01*
X819355Y774136D01*
X819331Y774148D01*
X819224Y774230D01*
X819177Y774278D01*
X819153Y774290D01*
X818982Y774461D01*
X818970Y774485D01*
X818917Y774550D01*
X818875Y774591D01*
X818863Y774615D01*
X818804Y774698D01*
X818769Y774733D01*
X818757Y774757D01*
X818686Y774887D01*
X818650Y774923D01*
X818627Y774982D01*
X818597Y775059D01*
X818579Y775077D01*
X818567Y775100D01*
X818544Y775124D01*
X818520Y775183D01*
X818497Y775278D01*
X818414Y775455D01*
X818402Y775503D01*
X818372Y775639D01*
X818337Y775733D01*
X818319Y775799D01*
X818295Y775893D01*
X818283Y776071D01*
Y776083D01*
X818272Y776118D01*
X818254Y776432D01*
X818248Y776745D01*
X818260Y776781D01*
X818272Y777100D01*
X818283Y777136D01*
X818295Y777313D01*
X818307Y777349D01*
X818325Y777426D01*
X818354Y777503D01*
X818378Y777586D01*
X818390Y777633D01*
X818419Y777769D01*
X818497Y777917D01*
X818514Y777994D01*
X818538Y778053D01*
X818567Y778094D01*
X818591Y778118D01*
X818615Y778177D01*
X818644Y778254D01*
X818674Y778296D01*
X818709Y778331D01*
X818781Y778461D01*
X818828Y778509D01*
X818840Y778532D01*
X818899Y778615D01*
X818958Y778674D01*
X818970Y778698D01*
X818993Y778722D01*
X819005Y778745D01*
X819047Y778787D01*
X819070Y778798D01*
X819100Y778828D01*
X819112Y778852D01*
X819153Y778893D01*
X819177Y778905D01*
X819201Y778929D01*
X819224Y778940D01*
X819307Y779023D01*
X819390Y779071D01*
X819449Y779130D01*
X819603Y779213D01*
X819627Y779236D01*
X819686Y779260D01*
X819798Y779302D01*
X819816Y779319D01*
X819840Y779331D01*
X819923Y779367D01*
X819970Y779378D01*
X820047Y779396D01*
X820094Y779408D01*
X820171Y779438D01*
X820289Y779473D01*
X820408Y779485D01*
X820562Y779497D01*
X821189Y779485D01*
D02*
G37*
G36*
X809153Y769355D02*
X809183Y769325D01*
X809195Y769242D01*
X809183Y767810D01*
X809141Y767769D01*
X806976Y767757D01*
X806946Y767727D01*
X806934Y767645D01*
Y762402D01*
Y762390D01*
X806922Y762011D01*
X806881Y761970D01*
X806834Y761958D01*
X806697Y761964D01*
X805260Y761958D01*
X805224Y761970D01*
X805147Y762011D01*
X805135Y762059D01*
X805124Y767716D01*
X805100Y767739D01*
X805094Y767757D01*
X805047Y767769D01*
X804987Y767781D01*
X804952Y767769D01*
X802976Y767781D01*
X802958Y767798D01*
X802946Y767846D01*
X802934Y767917D01*
X802946Y767952D01*
X802958Y769325D01*
X802999Y769366D01*
X803171Y769360D01*
X808964Y769366D01*
X808999Y769355D01*
X809035Y769366D01*
X809153Y769355D01*
D02*
G37*
G36*
X859674Y770396D02*
X859710Y770384D01*
X859888Y770301D01*
X859964Y770272D01*
X860041Y770195D01*
X860065Y770183D01*
X860178Y770071D01*
X860189Y770047D01*
X860308Y769798D01*
X860320Y769573D01*
X860308Y769325D01*
X860296Y769289D01*
X860237Y769183D01*
X860201Y769100D01*
X860189Y769076D01*
X860106Y768994D01*
X860095Y768970D01*
X860041Y768917D01*
X860018Y768905D01*
X859947Y768834D01*
X859888Y768810D01*
X859811Y768781D01*
X859710Y768727D01*
X859663Y768715D01*
X859580Y768704D01*
X859426Y768692D01*
X858988Y768704D01*
X858953Y768715D01*
X858887Y768733D01*
X858846Y768763D01*
X858834D01*
X858728Y768810D01*
X858669Y768834D01*
X858645Y768857D01*
X858627Y768863D01*
X858615Y768887D01*
X858544Y768934D01*
X858497Y768982D01*
X858485Y769005D01*
X858456Y769047D01*
X858438Y769053D01*
X858426Y769076D01*
X858402Y769100D01*
X858379Y769183D01*
X858367Y769230D01*
X858319Y769349D01*
X858308Y769396D01*
X858296Y769550D01*
X858313Y769710D01*
X858325Y769757D01*
X858367Y769858D01*
X858379Y769905D01*
X858408Y769982D01*
X858426Y770000D01*
X858438Y770023D01*
X858497Y770082D01*
X858533Y770142D01*
X858562Y770171D01*
X858621Y770207D01*
X858680Y770266D01*
X858740Y770290D01*
X858817Y770319D01*
X858941Y770384D01*
X859024Y770396D01*
X859142Y770408D01*
X859674Y770396D01*
D02*
G37*
G36*
X831698Y767662D02*
X831733Y767650D01*
X831804Y767639D01*
X831887Y767603D01*
X831946Y767579D01*
X832047Y767562D01*
X832094Y767550D01*
X832136Y767532D01*
X832218Y767473D01*
X832331Y767431D01*
X832372Y767402D01*
X832420Y767355D01*
X832503Y767307D01*
X832574Y767236D01*
X832597Y767224D01*
X832698Y767124D01*
X832710Y767100D01*
X832763Y767035D01*
X832804Y766994D01*
X832875Y766863D01*
X832911Y766828D01*
X832934Y766769D01*
X832976Y766656D01*
X833023Y766585D01*
X833041Y766520D01*
X833053Y766473D01*
X833071Y766396D01*
X833082Y766349D01*
X833106Y766290D01*
X833148Y766153D01*
X833159Y766071D01*
X833171Y765881D01*
X833183Y765798D01*
X833195Y765538D01*
X833207Y765313D01*
X833195Y762023D01*
X833142Y761970D01*
X833059Y761958D01*
X831579Y761970D01*
X831514Y762011D01*
X831491Y762106D01*
X831503Y762189D01*
X831491Y765479D01*
X831479Y765514D01*
X831461Y765662D01*
X831443Y765763D01*
X831408Y765822D01*
X831361Y765893D01*
X831349Y765940D01*
X831325Y765964D01*
X831313Y765988D01*
X831213Y766088D01*
X831189Y766100D01*
X831124Y766153D01*
X831047Y766195D01*
X830852Y766236D01*
X830804Y766248D01*
X830562Y766254D01*
X830526Y766242D01*
X830361Y766219D01*
X830313Y766207D01*
X830230Y766195D01*
X830153Y766165D01*
X830112Y766124D01*
X829982Y766053D01*
X829923Y765994D01*
X829899Y765982D01*
X829869Y765952D01*
X829858Y765929D01*
X829763Y765834D01*
X829733Y765757D01*
X829716Y765739D01*
X829704Y765716D01*
X829668Y765680D01*
X829644Y765585D01*
X829627Y765473D01*
X829615Y765366D01*
X829603Y762029D01*
X829585Y762011D01*
X829579Y761994D01*
X829520Y761970D01*
X829437Y761958D01*
X828141Y761964D01*
X827994Y761958D01*
X827929Y762011D01*
X827917Y762094D01*
X827911Y767473D01*
X827923Y767520D01*
X827958Y767556D01*
X828006Y767568D01*
X828716D01*
X829485Y767556D01*
X829526Y767514D01*
X829538Y766994D01*
X829556Y766952D01*
X829603Y766940D01*
X829769Y767106D01*
X829792Y767118D01*
X829816Y767141D01*
X829840Y767153D01*
X829858Y767171D01*
X829869Y767195D01*
X829970Y767260D01*
X830017Y767307D01*
X830171Y767390D01*
X830242Y767437D01*
X830307Y767455D01*
X830366Y767479D01*
X830437Y767526D01*
X830514Y767556D01*
X830680Y767591D01*
X830763Y767627D01*
X830846Y767650D01*
X830929Y767662D01*
X831047Y767674D01*
X831698Y767662D01*
D02*
G37*
G36*
X870278D02*
X870426Y767645D01*
X870521Y767621D01*
X870621Y767591D01*
X870669Y767579D01*
X870834Y767556D01*
X870947Y767514D01*
X871071Y767461D01*
X871148Y767443D01*
X871195Y767431D01*
X871237Y767414D01*
X871308Y767366D01*
X871367Y767343D01*
X871414Y767331D01*
X871497Y767284D01*
X871568Y767236D01*
X871645Y767207D01*
X871686Y767177D01*
X871710Y767153D01*
X871734Y767141D01*
X871864Y767070D01*
X871923Y767011D01*
X871947Y766999D01*
X872012Y766946D01*
X872042Y766917D01*
X872065Y766905D01*
X872118Y766863D01*
X872130Y766816D01*
X872095Y766757D01*
X872077Y766739D01*
X872053Y766727D01*
X872024Y766698D01*
X872012Y766674D01*
X871929Y766591D01*
X871917Y766568D01*
X871894Y766544D01*
X871882Y766520D01*
X871799Y766437D01*
X871787Y766414D01*
X871752Y766378D01*
X871746Y766361D01*
X871722Y766349D01*
X871692Y766319D01*
X871681Y766295D01*
X871657Y766272D01*
X871645Y766248D01*
X871550Y766153D01*
X871539Y766130D01*
X871444Y766035D01*
X871432Y766011D01*
X871349Y765929D01*
X871337Y765905D01*
X871296Y765863D01*
X871213Y765875D01*
X871172Y765905D01*
X871160Y765929D01*
X871142Y765946D01*
X871118Y765958D01*
X871036Y766017D01*
X870988Y766065D01*
X870858Y766136D01*
X870823Y766171D01*
X870763Y766195D01*
X870687Y766224D01*
X870645Y766254D01*
X870621Y766278D01*
X870562Y766301D01*
X870467Y766325D01*
X870408Y766349D01*
X870325Y766396D01*
X870243Y766420D01*
X870124Y766432D01*
X869876Y766467D01*
X869840Y766455D01*
X869639Y766443D01*
X869604Y766432D01*
X869497Y766420D01*
X869438Y766384D01*
X869391Y766337D01*
X869331Y766301D01*
X869290Y766260D01*
X869278Y766213D01*
X869219Y766082D01*
X869231Y765952D01*
X869326Y765775D01*
X869355Y765745D01*
X869379Y765733D01*
X869450Y765662D01*
X869509Y765639D01*
X869556Y765627D01*
X869633Y765597D01*
X869704Y765550D01*
X869769Y765532D01*
X869817Y765520D01*
X869894Y765503D01*
X869941Y765491D01*
X870089Y765426D01*
X870136Y765414D01*
X870237Y765396D01*
X870284Y765384D01*
X870402Y765337D01*
X870479Y765307D01*
X870580Y765289D01*
X870651Y765278D01*
X870710Y765254D01*
X870858Y765189D01*
X870994Y765159D01*
X871089Y765100D01*
X871166Y765070D01*
X871243Y765053D01*
X871308Y765011D01*
X871379Y764964D01*
X871444Y764946D01*
X871509Y764905D01*
X871544Y764869D01*
X871568Y764857D01*
X871651Y764810D01*
X871734Y764727D01*
X871758Y764715D01*
X871811Y764662D01*
X871823Y764639D01*
X871840Y764621D01*
X871864Y764609D01*
X871894Y764579D01*
X871905Y764556D01*
X871988Y764449D01*
X872036Y764343D01*
X872118Y764165D01*
X872130Y764118D01*
X872160Y763923D01*
X872172Y763828D01*
X872178Y763597D01*
X872166Y763562D01*
X872154Y763396D01*
X872142Y763360D01*
X872130Y763242D01*
X872118Y763195D01*
X872095Y763136D01*
X872047Y763065D01*
X872024Y762982D01*
X871994Y762905D01*
X871941Y762852D01*
X871858Y762698D01*
X871811Y762662D01*
X871799Y762639D01*
X871746Y762573D01*
X871616Y762443D01*
X871592Y762431D01*
X871550Y762390D01*
X871539Y762366D01*
X871420Y762295D01*
X871379Y762254D01*
X871355Y762242D01*
X871225Y762171D01*
X871154Y762124D01*
X871107Y762112D01*
X871030Y762082D01*
X870905Y762017D01*
X870811Y761994D01*
X870734Y761976D01*
X870639Y761940D01*
X870503Y761899D01*
X870201Y761869D01*
X869953Y761857D01*
X869639Y761852D01*
X869604Y761863D01*
X869296Y761875D01*
X869260Y761887D01*
X869059Y761899D01*
X869024Y761911D01*
X868959Y761929D01*
X868787Y761982D01*
X868645Y762005D01*
X868568Y762035D01*
X868468Y762088D01*
X868420Y762100D01*
X868308Y762142D01*
X868266Y762171D01*
X868136Y762230D01*
X868077Y762254D01*
X868018Y762313D01*
X867959Y762337D01*
X867876Y762384D01*
X867828Y762431D01*
X867746Y762479D01*
X867675Y762550D01*
X867651Y762562D01*
X867586Y762615D01*
X867574Y762639D01*
X867533Y762680D01*
X867509Y762692D01*
X867479Y762721D01*
X867467Y762745D01*
X867444Y762804D01*
X867456Y762875D01*
X867485Y762905D01*
X867509Y762917D01*
X867574Y762970D01*
X867627Y763023D01*
X867651Y763035D01*
X867746Y763130D01*
X867769Y763141D01*
X867864Y763236D01*
X867888Y763248D01*
X867941Y763289D01*
X867953Y763313D01*
X867982Y763343D01*
X868006Y763354D01*
X868071Y763408D01*
X868124Y763461D01*
X868148Y763473D01*
X868172Y763496D01*
X868195Y763508D01*
X868266Y763579D01*
X868290Y763591D01*
X868314Y763615D01*
X868337Y763627D01*
X868396Y763686D01*
X868468Y763674D01*
X868521Y763621D01*
X868527Y763603D01*
X868550Y763591D01*
X868574Y763567D01*
X868598Y763556D01*
X868669Y763485D01*
X868752Y763437D01*
X868817Y763384D01*
X868894Y763354D01*
X868976Y763307D01*
X869047Y763260D01*
X869124Y763242D01*
X869172Y763230D01*
X869231Y763207D01*
X869355Y763153D01*
X869402Y763141D01*
X869521Y763130D01*
X869568Y763118D01*
X869681Y763100D01*
X869740Y763088D01*
X869811Y763076D01*
X869864Y763070D01*
X869899Y763082D01*
X870012Y763076D01*
X870107Y763088D01*
X870172Y763106D01*
X870266Y763130D01*
X870331Y763147D01*
X870402Y763195D01*
X870414Y763218D01*
X870444Y763248D01*
X870467Y763260D01*
X870521Y763313D01*
X870545Y763396D01*
X870556Y763514D01*
X870545Y763645D01*
X870497Y763727D01*
X870408Y763816D01*
X870385Y763828D01*
X870255Y763911D01*
X870178Y763929D01*
X870118Y763940D01*
X870059Y763964D01*
X869935Y764017D01*
X869840Y764041D01*
X869704Y764071D01*
X869645Y764094D01*
X869568Y764124D01*
X869485Y764147D01*
X869373Y764165D01*
X869314Y764177D01*
X869254Y764201D01*
X869130Y764254D01*
X868947Y764295D01*
X868876Y764343D01*
X868799Y764372D01*
X868722Y764390D01*
X868663Y764414D01*
X868633Y764443D01*
X868610Y764455D01*
X868503Y764502D01*
X868420Y764550D01*
X868385Y764585D01*
X868254Y764656D01*
X868195Y764715D01*
X868172Y764727D01*
X868107Y764781D01*
X867941Y764946D01*
X867929Y764970D01*
X867876Y765035D01*
X867846Y765065D01*
X867834Y765088D01*
X867763Y765218D01*
X867728Y765254D01*
X867704Y765337D01*
X867651Y765485D01*
X867621Y765550D01*
X867598Y765692D01*
X867586Y765881D01*
X867598Y766224D01*
X867610Y766260D01*
X867627Y766337D01*
X867692Y766485D01*
X867710Y766562D01*
X867752Y766627D01*
X867775Y766650D01*
X867787Y766674D01*
X867846Y766781D01*
X867900Y766846D01*
X867917Y766863D01*
X867929Y766887D01*
X867982Y766952D01*
X868071Y767041D01*
X868083Y767065D01*
X868101Y767082D01*
X868112D01*
X868118Y767088D01*
X868136Y767106D01*
X868160Y767118D01*
X868207Y767165D01*
X868231Y767177D01*
X868266Y767213D01*
X868349Y767260D01*
X868396Y767307D01*
X868420Y767319D01*
X868479Y767343D01*
X868562Y767390D01*
X868586Y767414D01*
X868645Y767437D01*
X868692Y767449D01*
X868769Y767479D01*
X868870Y767532D01*
X868953Y767556D01*
X869036Y767568D01*
X869130Y767591D01*
X869207Y767621D01*
X869302Y767645D01*
X869373Y767656D01*
X869468Y767668D01*
X870243Y767674D01*
X870278Y767662D01*
D02*
G37*
G36*
X818396D02*
X818431Y767650D01*
X818544Y767633D01*
X818591Y767621D01*
X818692Y767591D01*
X818739Y767579D01*
X818905Y767556D01*
X818952Y767544D01*
X819130Y767461D01*
X819218Y767443D01*
X819266Y767431D01*
X819360Y767372D01*
X819425Y767343D01*
X819491Y767325D01*
X819556Y767284D01*
X819579Y767260D01*
X819603Y767248D01*
X819733Y767177D01*
X819781Y767130D01*
X819863Y767082D01*
X819934Y767011D01*
X819958Y766999D01*
X820023Y766946D01*
X820224Y766745D01*
X820236Y766662D01*
X820189Y766579D01*
X820118Y766508D01*
X820106Y766485D01*
X820053Y766420D01*
X819999Y766366D01*
X819988Y766343D01*
X819964Y766319D01*
X819952Y766295D01*
X819881Y766224D01*
X819869Y766201D01*
X819816Y766136D01*
X819775Y766094D01*
X819763Y766071D01*
X819709Y766005D01*
X819656Y765952D01*
X819644Y765929D01*
X819591Y765863D01*
X819538Y765810D01*
X819526Y765787D01*
X819443Y765704D01*
X819408Y765645D01*
X819390Y765627D01*
X819337Y765621D01*
X819277Y765645D01*
X819242Y765680D01*
X819230Y765704D01*
X819201Y765733D01*
X819177Y765745D01*
X819153Y765769D01*
X819130Y765781D01*
X819059Y765852D01*
X819035Y765863D01*
X818970Y765917D01*
X818952Y765934D01*
X818928Y765946D01*
X818798Y766017D01*
X818775Y766041D01*
X818751Y766053D01*
X818692Y766076D01*
X818644Y766088D01*
X818532Y766130D01*
X818431Y766171D01*
X818354Y766189D01*
X818224Y766201D01*
X817899Y766207D01*
X817863Y766195D01*
X817686Y766183D01*
X817532Y766112D01*
X817384Y766059D01*
X817354Y766029D01*
X817331Y766017D01*
X817307Y765994D01*
X817201Y765934D01*
X817118Y765852D01*
X817094Y765840D01*
X817053Y765798D01*
X817041Y765775D01*
X816988Y765710D01*
X816958Y765680D01*
X816946Y765656D01*
X816863Y765503D01*
X816828Y765467D01*
X816810Y765402D01*
X816798Y765354D01*
X816786Y765295D01*
X816745Y765195D01*
X816721Y765112D01*
X816710Y765065D01*
X816698Y764875D01*
X816710Y764473D01*
X816721Y764437D01*
X816739Y764372D01*
X816780Y764272D01*
X816804Y764177D01*
X816840Y764082D01*
X816875Y764047D01*
X816887Y764023D01*
X816970Y763869D01*
X817029Y763810D01*
X817064Y763751D01*
X817118Y763698D01*
X817141Y763686D01*
X817171Y763656D01*
X817183Y763633D01*
X817201Y763615D01*
X817224Y763603D01*
X817307Y763556D01*
X817354Y763508D01*
X817378Y763496D01*
X817437Y763473D01*
X817514Y763443D01*
X817532Y763425D01*
X817556Y763414D01*
X817638Y763378D01*
X817721Y763366D01*
X817769Y763354D01*
X817958Y763343D01*
X818384Y763354D01*
X818419Y763366D01*
X818538Y763378D01*
X818715Y763461D01*
X818763Y763473D01*
X818822Y763496D01*
X818887Y763550D01*
X818940Y763579D01*
X819023Y763627D01*
X819082Y763686D01*
X819106Y763698D01*
X819171Y763751D01*
X819331Y763911D01*
X819390Y763899D01*
X819419Y763869D01*
X819431Y763846D01*
X819485Y763781D01*
X819526Y763739D01*
X819562Y763680D01*
X819621Y763621D01*
X819633Y763597D01*
X819715Y763491D01*
X819751Y763455D01*
X819763Y763431D01*
X819816Y763366D01*
X819869Y763313D01*
X819881Y763289D01*
X819923Y763236D01*
X819946Y763224D01*
X819964Y763207D01*
X819976Y763183D01*
X820029Y763106D01*
X820053Y763094D01*
X820070Y763076D01*
X820082Y763053D01*
X820165Y762946D01*
X820212Y762899D01*
X820224Y762852D01*
X820212Y762769D01*
X820159Y762704D01*
X820135Y762692D01*
X820094Y762650D01*
X820082Y762627D01*
X820029Y762573D01*
X820005Y762562D01*
X819940Y762508D01*
X819899Y762467D01*
X819816Y762420D01*
X819757Y762360D01*
X819603Y762278D01*
X819567Y762242D01*
X819520Y762230D01*
X819485Y762218D01*
X819378Y762159D01*
X819272Y762112D01*
X819195Y762094D01*
X819135Y762071D01*
X819047Y762017D01*
X818958Y762000D01*
X818887Y761988D01*
X818828Y761976D01*
X818781Y761964D01*
X818680Y761923D01*
X818615Y761905D01*
X818520Y761893D01*
X818378Y761881D01*
X818260Y761869D01*
X817988Y761857D01*
X817733Y761852D01*
X817698Y761863D01*
X817420Y761881D01*
X817319Y761887D01*
X817307D01*
X817260Y761899D01*
X817183Y761917D01*
X817064Y761964D01*
X816999Y761982D01*
X816952Y761994D01*
X816828Y762023D01*
X816733Y762082D01*
X816632Y762112D01*
X816526Y762171D01*
X816502Y762195D01*
X816420Y762230D01*
X816360Y762266D01*
X816325Y762301D01*
X816301Y762313D01*
X816195Y762372D01*
X816124Y762443D01*
X816041Y762491D01*
X816023Y762508D01*
X816011Y762532D01*
X815993Y762550D01*
X815970Y762562D01*
X815946Y762585D01*
X815923Y762597D01*
X815893Y762639D01*
X815840Y762692D01*
X815816Y762704D01*
X815798Y762721D01*
X815786Y762745D01*
X815745Y762798D01*
X815721Y762810D01*
X815692Y762840D01*
X815680Y762863D01*
X815621Y762946D01*
X815585Y762982D01*
X815573Y763005D01*
X815526Y763088D01*
X815473Y763153D01*
X815455Y763171D01*
X815425Y763248D01*
X815384Y763313D01*
X815360Y763337D01*
X815337Y763396D01*
X815325Y763443D01*
X815254Y763573D01*
X815230Y763633D01*
X815207Y763727D01*
X815189Y763792D01*
X815165Y763852D01*
X815135Y763917D01*
X815112Y764011D01*
X815100Y764130D01*
X815076Y764295D01*
X815065Y764343D01*
X815047Y764479D01*
X815035Y764585D01*
X815029Y764923D01*
X815041Y764958D01*
X815053Y765136D01*
X815065Y765171D01*
X815082Y765283D01*
X815106Y765473D01*
X815118Y765544D01*
X815130Y765603D01*
X815189Y765733D01*
X815207Y765798D01*
X815224Y765875D01*
X815236Y765923D01*
X815277Y765988D01*
X815325Y766094D01*
X815354Y766171D01*
X815419Y766260D01*
X815443Y766319D01*
X815491Y766402D01*
X815538Y766449D01*
X815597Y766556D01*
X815656Y766615D01*
X815668Y766639D01*
X815721Y766704D01*
X815739Y766721D01*
X815751Y766745D01*
X815798Y766792D01*
X815810Y766816D01*
X815863Y766869D01*
X815887Y766881D01*
X815917Y766911D01*
X815928Y766934D01*
X815958Y766964D01*
X815982Y766976D01*
X816005Y766999D01*
X816029Y767011D01*
X816100Y767082D01*
X816124Y767094D01*
X816206Y767153D01*
X816254Y767201D01*
X816384Y767272D01*
X816420Y767307D01*
X816502Y767343D01*
X816550Y767355D01*
X816615Y767408D01*
X816680Y767437D01*
X816763Y767461D01*
X816840Y767491D01*
X816857Y767508D01*
X816940Y767544D01*
X816988Y767556D01*
X817070Y767568D01*
X817118Y767579D01*
X817183Y767597D01*
X817230Y767609D01*
X817283Y767627D01*
X817425Y767662D01*
X817721Y767674D01*
X818396Y767662D01*
D02*
G37*
G36*
X864657D02*
X864692Y767650D01*
X864787Y767639D01*
X864905Y767591D01*
X865047Y767568D01*
X865095Y767556D01*
X865172Y767526D01*
X865272Y767473D01*
X865355Y767449D01*
X865432Y767420D01*
X865450Y767402D01*
X865473Y767390D01*
X865497Y767366D01*
X865556Y767343D01*
X865663Y767284D01*
X865710Y767236D01*
X865757Y767224D01*
X865781Y767201D01*
X865805Y767189D01*
X865852Y767141D01*
X865876Y767130D01*
X865982Y767047D01*
X866041Y766988D01*
X866065Y766976D01*
X866107Y766934D01*
X866118Y766911D01*
X866160Y766869D01*
X866183Y766857D01*
X866201Y766840D01*
X866213Y766816D01*
X866266Y766751D01*
X866320Y766698D01*
X866379Y766591D01*
X866426Y766544D01*
X866438Y766520D01*
X866509Y766390D01*
X866544Y766355D01*
X866598Y766207D01*
X866627Y766165D01*
X866675Y766059D01*
X866686Y766011D01*
X866704Y765946D01*
X866769Y765798D01*
X866793Y765704D01*
X866805Y765562D01*
X866817Y765526D01*
X866846Y765390D01*
X866870Y765236D01*
X866888Y764887D01*
X866876Y764627D01*
X866864Y764449D01*
X866846Y764420D01*
X866787Y764396D01*
X863243Y764390D01*
X863095Y764396D01*
X863041Y764355D01*
X863030Y764284D01*
X863112Y764130D01*
X863207Y763952D01*
X863254Y763905D01*
X863266Y763881D01*
X863319Y763816D01*
X863438Y763698D01*
X863461Y763686D01*
X863527Y763633D01*
X863556Y763603D01*
X863615Y763579D01*
X863698Y763532D01*
X863734Y763496D01*
X863864Y763461D01*
X863941Y763431D01*
X864041Y763390D01*
X864136Y763366D01*
X864331Y763349D01*
X864811Y763343D01*
X864822D01*
X865118Y763378D01*
X865272Y763449D01*
X865420Y763502D01*
X865462Y763532D01*
X865485Y763556D01*
X865568Y763591D01*
X865651Y763638D01*
X865698Y763686D01*
X865722Y763698D01*
X865805Y763757D01*
X865840Y763769D01*
X865905Y763716D01*
X865976Y763645D01*
X866047Y763514D01*
X866095Y763467D01*
X866142Y763384D01*
X866201Y763325D01*
X866260Y763218D01*
X866308Y763171D01*
X866320Y763147D01*
X866367Y763065D01*
X866385Y763035D01*
X866408Y763023D01*
X866426Y763005D01*
X866438Y762982D01*
X866485Y762899D01*
X866544Y762840D01*
X866556Y762816D01*
X866604Y762710D01*
X866592Y762627D01*
X866562Y762585D01*
X866479Y762538D01*
X866408Y762467D01*
X866302Y762408D01*
X866266Y762372D01*
X866243Y762360D01*
X866089Y762278D01*
X866065Y762254D01*
X866006Y762230D01*
X865893Y762189D01*
X865876Y762171D01*
X865852Y762159D01*
X865746Y762112D01*
X865675Y762100D01*
X865592Y762053D01*
X865509Y762017D01*
X865367Y761994D01*
X865320Y761982D01*
X865166Y761923D01*
X865118Y761911D01*
X865036Y761899D01*
X864917Y761887D01*
X864763Y761875D01*
X864716Y761863D01*
X864266Y761852D01*
X864231Y761863D01*
X863899Y761875D01*
X863864Y761887D01*
X863686Y761899D01*
X863651Y761911D01*
X863603Y761923D01*
X863527Y761952D01*
X863426Y761982D01*
X863343Y761994D01*
X863296Y762005D01*
X863231Y762023D01*
X863142Y762076D01*
X863083Y762100D01*
X863006Y762118D01*
X862947Y762142D01*
X862917Y762171D01*
X862893Y762183D01*
X862787Y762230D01*
X862728Y762266D01*
X862704Y762289D01*
X862681Y762301D01*
X862657Y762325D01*
X862609Y762337D01*
X862503Y762420D01*
X862432Y762467D01*
X862408Y762479D01*
X862337Y762550D01*
X862314Y762562D01*
X862249Y762615D01*
X862237Y762639D01*
X862207Y762668D01*
X862183Y762680D01*
X862130Y762733D01*
X862118Y762757D01*
X862089Y762786D01*
X862065Y762798D01*
X862035Y762828D01*
X862024Y762852D01*
X861970Y762917D01*
X861917Y762970D01*
X861870Y763053D01*
X861834Y763088D01*
X861823Y763112D01*
X861751Y763242D01*
X861716Y763278D01*
X861681Y763360D01*
X861651Y763437D01*
X861621Y763479D01*
X861574Y763585D01*
X861550Y763680D01*
X861479Y763834D01*
X861467Y763881D01*
X861444Y764047D01*
X861432Y764094D01*
X861414Y764171D01*
X861402Y764230D01*
X861390Y764278D01*
X861379Y764349D01*
X861367Y764443D01*
X861355Y764727D01*
X861349Y764757D01*
X861361Y764792D01*
X861373Y765124D01*
X861385Y765159D01*
X861438Y765414D01*
X861456Y765574D01*
X861467Y765621D01*
X861509Y765733D01*
X861550Y765834D01*
X861586Y765976D01*
X861645Y766059D01*
X861669Y766118D01*
X861681Y766165D01*
X861740Y766272D01*
X861775Y766307D01*
X861811Y766402D01*
X861864Y766467D01*
X861882Y766485D01*
X861893Y766508D01*
X861941Y766591D01*
X862000Y766650D01*
X862012Y766674D01*
X862065Y766751D01*
X862089Y766763D01*
X862130Y766804D01*
X862142Y766828D01*
X862219Y766905D01*
X862237Y766911D01*
X862249Y766934D01*
X862314Y766999D01*
X862337Y767011D01*
X862420Y767094D01*
X862503Y767141D01*
X862550Y767189D01*
X862574Y767201D01*
X862681Y767260D01*
X862716Y767295D01*
X862740Y767307D01*
X862823Y767343D01*
X862929Y767402D01*
X862953Y767426D01*
X863118Y767473D01*
X863296Y767556D01*
X863408Y767573D01*
X863479Y767585D01*
X863651Y767639D01*
X863698Y767650D01*
X863817Y767662D01*
X863899Y767674D01*
X864657Y767662D01*
D02*
G37*
G36*
X812147D02*
X812183Y767650D01*
X812254Y767639D01*
X812313Y767615D01*
X812431Y767579D01*
X812514Y767568D01*
X812562Y767556D01*
X812627Y767538D01*
X812739Y767473D01*
X812786Y767461D01*
X812899Y767420D01*
X812916Y767402D01*
X812940Y767390D01*
X812964Y767366D01*
X813023Y767343D01*
X813100Y767313D01*
X813153Y767260D01*
X813177Y767248D01*
X813260Y767201D01*
X813289Y767183D01*
X813301Y767159D01*
X813331Y767130D01*
X813390Y767094D01*
X813455Y767041D01*
X813520Y766976D01*
X813544Y766964D01*
X813609Y766899D01*
X813621Y766875D01*
X813727Y766769D01*
X813739Y766745D01*
X813763Y766710D01*
X813769Y766704D01*
X813834Y766639D01*
X813893Y766532D01*
X813940Y766485D01*
X813964Y766426D01*
X814023Y766319D01*
X814047Y766295D01*
X814070Y766236D01*
X814094Y766153D01*
X814141Y766071D01*
X814189Y765964D01*
X814207Y765852D01*
X814242Y765757D01*
X814272Y765692D01*
X814295Y765550D01*
X814307Y765467D01*
X814319Y765278D01*
X814331Y765195D01*
X814343Y764863D01*
X814331Y764639D01*
X814319Y764437D01*
X814277Y764396D01*
X814159Y764384D01*
X814124Y764396D01*
X810550Y764384D01*
X810508Y764355D01*
X810496Y764307D01*
X810555Y764177D01*
X810585Y764100D01*
X810615Y764059D01*
X810650Y764023D01*
X810709Y763917D01*
X810757Y763869D01*
X810769Y763846D01*
X810917Y763698D01*
X810940Y763686D01*
X811005Y763633D01*
X811035Y763603D01*
X811165Y763532D01*
X811189Y763508D01*
X811248Y763485D01*
X811343Y763461D01*
X811473Y763402D01*
X811555Y763378D01*
X811603Y763366D01*
X811810Y763349D01*
X812337Y763343D01*
X812372Y763354D01*
X812556Y763372D01*
X812603Y763384D01*
X812662Y763408D01*
X812680Y763425D01*
X812763Y763461D01*
X812840Y763479D01*
X812899Y763502D01*
X812940Y763544D01*
X812964Y763556D01*
X813118Y763638D01*
X813153Y763674D01*
X813331Y763757D01*
X813372Y763739D01*
X813384Y763716D01*
X813461Y763603D01*
X813502Y763562D01*
X813550Y763479D01*
X813597Y763431D01*
X813609Y763408D01*
X813656Y763325D01*
X813692Y763289D01*
X813704Y763266D01*
X813727Y763242D01*
X813774Y763159D01*
X813834Y763100D01*
X813893Y762994D01*
X813940Y762946D01*
X813999Y762840D01*
X814058Y762781D01*
X814082Y762721D01*
X814070Y762627D01*
X814053Y762597D01*
X814029Y762585D01*
X813946Y762526D01*
X813911Y762491D01*
X813887Y762479D01*
X813804Y762431D01*
X813739Y762378D01*
X813721Y762360D01*
X813662Y762337D01*
X813579Y762289D01*
X813544Y762254D01*
X813485Y762230D01*
X813437Y762218D01*
X813307Y762147D01*
X813248Y762124D01*
X813200Y762112D01*
X813088Y762071D01*
X812999Y762017D01*
X812899Y762000D01*
X812828Y761988D01*
X812780Y761976D01*
X812662Y761929D01*
X812615Y761917D01*
X812556Y761905D01*
X812396Y761887D01*
X812278Y761875D01*
X811828Y761852D01*
X811526Y761869D01*
X811372Y761881D01*
X811230Y761893D01*
X811100Y761917D01*
X810893Y761982D01*
X810845Y761994D01*
X810745Y762011D01*
X810686Y762035D01*
X810550Y762100D01*
X810455Y762124D01*
X810372Y762183D01*
X810289Y762218D01*
X810183Y762278D01*
X810159Y762301D01*
X810135Y762313D01*
X810005Y762384D01*
X809982Y762420D01*
X809958Y762431D01*
X809875Y762491D01*
X809816Y762550D01*
X809792Y762562D01*
X809727Y762615D01*
X809526Y762816D01*
X809514Y762840D01*
X809431Y762922D01*
X809378Y763011D01*
X809354Y763023D01*
X809337Y763041D01*
X809325Y763065D01*
X809266Y763171D01*
X809230Y763207D01*
X809218Y763230D01*
X809195Y763289D01*
X809135Y763396D01*
X809112Y763420D01*
X809088Y763479D01*
X809076Y763526D01*
X809058Y763591D01*
X809011Y763662D01*
X808982Y763739D01*
X808958Y763881D01*
X808887Y764106D01*
X808875Y764153D01*
X808863Y764272D01*
X808851Y764355D01*
X808840Y764875D01*
X808851Y764911D01*
X808863Y765278D01*
X808875Y765313D01*
X808887Y765396D01*
X808910Y765455D01*
X808946Y765574D01*
X808970Y765716D01*
X809011Y765828D01*
X809076Y765976D01*
X809094Y766053D01*
X809153Y766148D01*
X809206Y766272D01*
X809218Y766295D01*
X809272Y766361D01*
X809354Y766514D01*
X809378Y766526D01*
X809443Y766627D01*
X809514Y766698D01*
X809526Y766721D01*
X809550Y766745D01*
X809561Y766769D01*
X809792Y766999D01*
X809816Y767011D01*
X809899Y767094D01*
X809922Y767106D01*
X810005Y767165D01*
X810017Y767189D01*
X810041Y767201D01*
X810171Y767272D01*
X810218Y767319D01*
X810348Y767366D01*
X810431Y767426D01*
X810514Y767449D01*
X810627Y767491D01*
X810715Y767544D01*
X810804Y767562D01*
X810946Y767585D01*
X811041Y767621D01*
X811135Y767645D01*
X811295Y767662D01*
X811343Y767674D01*
X812147Y767662D01*
D02*
G37*
G36*
X860124Y767556D02*
X860178Y767514D01*
X860166Y762023D01*
X860124Y761982D01*
X860030Y761958D01*
X858698Y761964D01*
X858562Y761958D01*
X858509Y761988D01*
X858497Y762011D01*
X858485Y762047D01*
X858473Y762118D01*
X858485Y762153D01*
X858479Y767497D01*
X858503Y767544D01*
X858562Y767568D01*
X858870D01*
X860124Y767556D01*
D02*
G37*
G36*
X843047Y769769D02*
X843100Y769715D01*
X843124Y769633D01*
X843112Y769443D01*
Y767692D01*
Y767680D01*
X843118Y762065D01*
X843094Y762005D01*
X843035Y761970D01*
X842952Y761958D01*
X841485Y761970D01*
X841432Y762023D01*
X841420Y762142D01*
X841432Y762177D01*
X841426Y769651D01*
X841438Y769710D01*
X841467Y769751D01*
X841485Y769769D01*
X841532Y769781D01*
X843047Y769769D01*
D02*
G37*
G36*
X822781Y769775D02*
X822816Y769751D01*
X822840Y769692D01*
X822846Y769591D01*
X822840Y767242D01*
X822851Y767207D01*
X822840Y767088D01*
X822851Y767005D01*
X822869Y766988D01*
X822899Y766982D01*
X822940Y766999D01*
X823035Y767094D01*
X823059Y767106D01*
X823082Y767130D01*
X823106Y767141D01*
X823177Y767213D01*
X823260Y767260D01*
X823319Y767319D01*
X823378Y767343D01*
X823437Y767378D01*
X823520Y767437D01*
X823585Y767455D01*
X823644Y767479D01*
X823715Y767526D01*
X823792Y767556D01*
X823940Y767585D01*
X824059Y767633D01*
X824124Y767650D01*
X824242Y767662D01*
X824289Y767674D01*
X824988Y767662D01*
X825023Y767650D01*
X825088Y767633D01*
X825147Y767609D01*
X825248Y767579D01*
X825295Y767568D01*
X825372Y767550D01*
X825432Y767526D01*
X825449Y767508D01*
X825473Y767497D01*
X825603Y767437D01*
X825627Y767426D01*
X825686Y767366D01*
X825710Y767355D01*
X825792Y767295D01*
X825852Y767236D01*
X825875Y767224D01*
X826000Y767100D01*
X826011Y767076D01*
X826065Y767011D01*
X826106Y766970D01*
X826130Y766911D01*
X826165Y766852D01*
X826189Y766828D01*
X826201Y766804D01*
X826236Y766721D01*
X826248Y766674D01*
X826343Y766473D01*
X826361Y766372D01*
X826372Y766313D01*
X826420Y766183D01*
X826443Y766088D01*
X826455Y765982D01*
X826467Y765816D01*
X826479Y765532D01*
X826485Y762047D01*
X826449Y761988D01*
X826431Y761970D01*
X826384Y761958D01*
X826248Y761964D01*
X824893Y761958D01*
X824858Y761970D01*
X824798Y762005D01*
X824781Y762059D01*
X824769Y765538D01*
X824757Y765574D01*
X824745Y765704D01*
X824603Y765976D01*
X824532Y766047D01*
X824526Y766065D01*
X824502Y766076D01*
X824479Y766100D01*
X824455Y766112D01*
X824390Y766165D01*
X824325Y766195D01*
X824278Y766207D01*
X824177Y766224D01*
X824082Y766248D01*
X823934Y766266D01*
X823899Y766254D01*
X823787Y766236D01*
X823692Y766224D01*
X823633Y766213D01*
X823491Y766189D01*
X823449Y766171D01*
X823343Y766100D01*
X823260Y766053D01*
X823076Y765869D01*
X823065Y765846D01*
X823017Y765763D01*
X822970Y765716D01*
X822946Y765656D01*
X822934Y765574D01*
X822911Y765479D01*
X822887Y765337D01*
X822875Y762023D01*
X822834Y761982D01*
X822751Y761958D01*
X821260Y761970D01*
X821207Y762023D01*
X821195Y762071D01*
Y763242D01*
Y763254D01*
X821207Y769715D01*
X821260Y769769D01*
X821307Y769781D01*
X822733Y769787D01*
X822781Y769775D01*
D02*
G37*
G36*
X847686Y767662D02*
X847722Y767650D01*
X847799Y767633D01*
X847846Y767621D01*
X847911Y767603D01*
X847994Y767579D01*
X848077Y767568D01*
X848124Y767556D01*
X848195Y767544D01*
X848373Y767461D01*
X848450Y767443D01*
X848509Y767420D01*
X848550Y767390D01*
X848609Y767355D01*
X848722Y767313D01*
X848740Y767295D01*
X848763Y767284D01*
X848799Y767248D01*
X848858Y767224D01*
X848941Y767177D01*
X849000Y767118D01*
X849083Y767070D01*
X849142Y767011D01*
X849166Y766999D01*
X849231Y766946D01*
X849296Y766881D01*
X849319Y766869D01*
X849491Y766698D01*
X849503Y766674D01*
X849526Y766650D01*
X849538Y766627D01*
X849562Y766603D01*
X849574Y766579D01*
X849633Y766520D01*
X849680Y766437D01*
X849739Y766378D01*
X849769Y766301D01*
X849799Y766260D01*
X849834Y766224D01*
X849870Y766142D01*
X849881Y766094D01*
X849958Y765982D01*
X849994Y765852D01*
X850029Y765757D01*
X850083Y765633D01*
X850112Y765437D01*
X850124Y765390D01*
X850136Y765331D01*
X850154Y765266D01*
X850165Y765218D01*
X850177Y765100D01*
X850189Y765053D01*
X850201Y764662D01*
X850195Y764656D01*
X850189Y764650D01*
X850177Y764355D01*
X850165Y764319D01*
X850148Y764242D01*
X850124Y764147D01*
X850100Y764029D01*
X850089Y763934D01*
X850065Y763840D01*
X850000Y763704D01*
X849976Y763609D01*
X849947Y763532D01*
X849929Y763514D01*
X849917Y763491D01*
X849893Y763467D01*
X849840Y763319D01*
X849822Y763301D01*
X849811Y763278D01*
X849775Y763242D01*
X849704Y763112D01*
X849657Y763065D01*
X849597Y762958D01*
X849526Y762887D01*
X849515Y762863D01*
X849461Y762798D01*
X849438Y762786D01*
X849420Y762769D01*
X849408Y762745D01*
X849331Y762668D01*
X849308Y762656D01*
X849290Y762639D01*
X849278Y762615D01*
X849248Y762585D01*
X849225Y762573D01*
X849160Y762520D01*
X849118Y762479D01*
X849094Y762467D01*
X848982Y762390D01*
X848952Y762360D01*
X848929Y762349D01*
X848822Y762289D01*
X848775Y762242D01*
X848662Y762201D01*
X848592Y762153D01*
X848574Y762136D01*
X848491Y762112D01*
X848378Y762071D01*
X848361Y762053D01*
X848278Y762017D01*
X848231Y762005D01*
X848094Y761976D01*
X848000Y761940D01*
X847899Y761911D01*
X847816Y761899D01*
X847769Y761887D01*
X847503Y761869D01*
X847337Y761857D01*
X847023Y761852D01*
X846988Y761863D01*
X846680Y761875D01*
X846645Y761887D01*
X846467Y761899D01*
X846432Y761911D01*
X846367Y761929D01*
X846307Y761952D01*
X846207Y761982D01*
X846159Y761994D01*
X846071Y762011D01*
X846023Y762023D01*
X845875Y762100D01*
X845828Y762112D01*
X845751Y762142D01*
X845710Y762171D01*
X845686Y762195D01*
X845627Y762218D01*
X845550Y762248D01*
X845532Y762266D01*
X845509Y762278D01*
X845473Y762313D01*
X845343Y762384D01*
X845296Y762431D01*
X845272Y762443D01*
X845189Y762502D01*
X845130Y762562D01*
X845106Y762573D01*
X845023Y762656D01*
X845000Y762668D01*
X844876Y762792D01*
X844864Y762816D01*
X844769Y762911D01*
X844757Y762934D01*
X844704Y762999D01*
X844662Y763041D01*
X844651Y763065D01*
X844603Y763147D01*
X844556Y763195D01*
X844520Y763278D01*
X844473Y763360D01*
X844438Y763396D01*
X844414Y763455D01*
X844396Y763520D01*
X844307Y763692D01*
X844278Y763828D01*
X844254Y763887D01*
X844225Y763952D01*
X844201Y764047D01*
X844189Y764130D01*
X844177Y764248D01*
X844165Y764331D01*
X844154Y764449D01*
X844142Y764532D01*
X844130Y764686D01*
X844142Y765053D01*
X844154Y765088D01*
X844183Y765354D01*
X844195Y765449D01*
X844207Y765520D01*
X844242Y765615D01*
X844272Y765680D01*
X844290Y765745D01*
X844302Y765804D01*
X844313Y765852D01*
X844337Y765911D01*
X844355Y765929D01*
X844367Y765952D01*
X844414Y766059D01*
X844426Y766106D01*
X844485Y766189D01*
X844568Y766343D01*
X844615Y766390D01*
X844674Y766497D01*
X844734Y766556D01*
X844745Y766579D01*
X844799Y766644D01*
X844852Y766698D01*
X844864Y766721D01*
X845035Y766893D01*
X845059Y766905D01*
X845100Y766946D01*
X845112Y766970D01*
X845183Y767017D01*
X845260Y767094D01*
X845367Y767153D01*
X845402Y767189D01*
X845426Y767201D01*
X845556Y767272D01*
X845592Y767307D01*
X845651Y767331D01*
X845728Y767360D01*
X845793Y767402D01*
X845899Y767449D01*
X845976Y767467D01*
X846035Y767491D01*
X846053Y767508D01*
X846136Y767544D01*
X846278Y767568D01*
X846414Y767597D01*
X846473Y767621D01*
X846568Y767645D01*
X846728Y767662D01*
X846810Y767674D01*
X847686Y767662D01*
D02*
G37*
G36*
X837793D02*
X837828Y767650D01*
X837905Y767633D01*
X837952Y767621D01*
X838017Y767603D01*
X838100Y767579D01*
X838201Y767562D01*
X838272Y767550D01*
X838367Y767514D01*
X838384Y767497D01*
X838443Y767473D01*
X838491Y767461D01*
X838574Y767437D01*
X838657Y767390D01*
X838787Y767331D01*
X838869Y767284D01*
X838905Y767248D01*
X838964Y767224D01*
X839047Y767177D01*
X839094Y767130D01*
X839118Y767118D01*
X839201Y767059D01*
X839248Y767011D01*
X839272Y766999D01*
X839337Y766946D01*
X839390Y766893D01*
X839414Y766881D01*
X839550Y766745D01*
X839562Y766721D01*
X839645Y766639D01*
X839657Y766615D01*
X839710Y766550D01*
X839751Y766508D01*
X839799Y766426D01*
X839846Y766378D01*
X839929Y766224D01*
X839964Y766189D01*
X839988Y766106D01*
X840035Y766023D01*
X840071Y765964D01*
X840094Y765881D01*
X840106Y765834D01*
X840136Y765757D01*
X840189Y765633D01*
X840201Y765585D01*
X840213Y765467D01*
X840225Y765420D01*
X840254Y765283D01*
X840266Y765224D01*
X840278Y765177D01*
X840296Y765017D01*
X840307Y764923D01*
Y764911D01*
X840296Y764449D01*
X840284Y764414D01*
X840266Y764301D01*
X840254Y764254D01*
X840242Y764195D01*
X840230Y764147D01*
X840219Y764076D01*
X840207Y763982D01*
X840195Y763923D01*
X840183Y763875D01*
X840160Y763816D01*
X840106Y763692D01*
X840094Y763645D01*
X840077Y763579D01*
X840035Y763514D01*
X839988Y763408D01*
X839929Y763301D01*
X839905Y763278D01*
X839893Y763254D01*
X839822Y763124D01*
X839775Y763076D01*
X839727Y762994D01*
X839674Y762928D01*
X839645Y762899D01*
X839633Y762875D01*
X839580Y762810D01*
X839538Y762781D01*
X839526Y762757D01*
X839355Y762585D01*
X839331Y762573D01*
X839307Y762550D01*
X839284Y762538D01*
X839225Y762479D01*
X839201Y762467D01*
X839088Y762390D01*
X839047Y762349D01*
X838941Y762289D01*
X838858Y762230D01*
X838793Y762213D01*
X838698Y762153D01*
X838680Y762136D01*
X838597Y762112D01*
X838485Y762071D01*
X838467Y762053D01*
X838361Y762005D01*
X838248Y761988D01*
X838201Y761976D01*
X838106Y761940D01*
X838006Y761911D01*
X837864Y761887D01*
X837443Y761857D01*
X837130Y761852D01*
X837094Y761863D01*
X836775Y761875D01*
X836739Y761887D01*
X836574Y761899D01*
X836538Y761911D01*
X836473Y761929D01*
X836414Y761952D01*
X836313Y761982D01*
X836266Y761994D01*
X836130Y762023D01*
X835982Y762100D01*
X835935Y762112D01*
X835858Y762142D01*
X835840Y762159D01*
X835816Y762171D01*
X835793Y762195D01*
X835733Y762218D01*
X835656Y762248D01*
X835627Y762278D01*
X835603Y762289D01*
X835579Y762313D01*
X835449Y762384D01*
X835390Y762443D01*
X835331Y762479D01*
X835284Y762526D01*
X835260Y762538D01*
X835236Y762562D01*
X835213Y762573D01*
X835106Y762680D01*
X835083Y762692D01*
X834994Y762781D01*
X834982Y762804D01*
X834887Y762899D01*
X834875Y762922D01*
X834822Y762999D01*
X834798Y763011D01*
X834781Y763029D01*
X834769Y763053D01*
X834721Y763136D01*
X834662Y763195D01*
X834639Y763254D01*
X834591Y763337D01*
X834568Y763360D01*
X834556Y763384D01*
X834532Y763443D01*
X834503Y763520D01*
X834443Y763615D01*
X834426Y763680D01*
X834390Y763822D01*
X834331Y763952D01*
X834319Y764000D01*
X834295Y764165D01*
X834278Y764301D01*
X834266Y764372D01*
X834248Y764532D01*
X834236Y764579D01*
X834248Y765065D01*
X834260Y765100D01*
X834278Y765236D01*
X834290Y765307D01*
X834301Y765414D01*
X834313Y765508D01*
X834325Y765556D01*
X834361Y765650D01*
X834390Y765716D01*
X834414Y765810D01*
X834432Y765875D01*
X834455Y765934D01*
X834485Y765964D01*
X834497Y765988D01*
X834520Y766047D01*
X834532Y766094D01*
X834579Y766177D01*
X834615Y766213D01*
X834639Y766272D01*
X834686Y766355D01*
X834721Y766390D01*
X834733Y766414D01*
X834781Y766497D01*
X834852Y766568D01*
X834863Y766591D01*
X834917Y766656D01*
X834982Y766721D01*
X834994Y766745D01*
X835035Y766786D01*
X835059Y766798D01*
X835077Y766816D01*
X835088Y766840D01*
X835142Y766893D01*
X835165Y766905D01*
X835260Y766999D01*
X835284Y767011D01*
X835325Y767041D01*
X835337Y767065D01*
X835355Y767082D01*
X835378Y767094D01*
X835461Y767141D01*
X835509Y767189D01*
X835532Y767201D01*
X835662Y767272D01*
X835698Y767307D01*
X835757Y767331D01*
X835852Y767366D01*
X835935Y767426D01*
X836017Y767449D01*
X836065Y767461D01*
X836142Y767491D01*
X836219Y767532D01*
X836301Y767556D01*
X836384Y767568D01*
X836520Y767597D01*
X836656Y767639D01*
X836739Y767650D01*
X836787Y767662D01*
X837012Y767674D01*
X837793Y767662D01*
D02*
G37*
G36*
X853923D02*
X853959Y767650D01*
X854006Y767639D01*
X854243Y767568D01*
X854343Y767550D01*
X854420Y767520D01*
X854503Y767473D01*
X854586Y767449D01*
X854663Y767420D01*
X854680Y767402D01*
X854704Y767390D01*
X854728Y767366D01*
X854811Y767331D01*
X854870Y767295D01*
X854935Y767242D01*
X855035Y767189D01*
X855065Y767159D01*
X855077Y767136D01*
X855207Y767053D01*
X855260Y767035D01*
X855290Y767065D01*
X855302Y767502D01*
X855343Y767556D01*
X855390Y767568D01*
X856882Y767556D01*
X856899Y767538D01*
X856911Y767491D01*
X856899Y761988D01*
X856888Y761952D01*
X856870Y761816D01*
X856834Y761674D01*
X856816Y761609D01*
X856805Y761526D01*
X856793Y761479D01*
X856781Y761384D01*
X856698Y761207D01*
X856686Y761159D01*
X856668Y761094D01*
X856651Y761053D01*
X856592Y760970D01*
X856568Y760887D01*
X856521Y760804D01*
X856485Y760769D01*
X856414Y760639D01*
X856355Y760579D01*
X856308Y760497D01*
X856225Y760414D01*
X856213Y760390D01*
X856030Y760207D01*
X856006Y760195D01*
X855982Y760171D01*
X855958Y760159D01*
X855893Y760106D01*
X855864Y760076D01*
X855781Y760029D01*
X855722Y759970D01*
X855645Y759940D01*
X855550Y759881D01*
X855532Y759863D01*
X855349Y759798D01*
X855331Y759781D01*
X855308Y759769D01*
X855225Y759733D01*
X855089Y759704D01*
X855029Y759680D01*
X854929Y759639D01*
X854834Y759615D01*
X854674Y759597D01*
X854603Y759585D01*
X854544Y759573D01*
X854497Y759562D01*
X854438Y759550D01*
X854367Y759538D01*
X854207Y759520D01*
X853757Y759508D01*
X853722Y759520D01*
X853402Y759532D01*
X853367Y759544D01*
X853254Y759562D01*
X853183Y759573D01*
X853136Y759585D01*
X853065Y759597D01*
X852970Y759609D01*
X852864Y759621D01*
X852805Y759633D01*
X852757Y759644D01*
X852639Y759692D01*
X852592Y759704D01*
X852414Y759739D01*
X852367Y759751D01*
X852266Y759804D01*
X852183Y759828D01*
X852136Y759840D01*
X852024Y759881D01*
X851994Y759911D01*
X851935Y759934D01*
X851852Y759958D01*
X851769Y760005D01*
X851745Y760029D01*
X851722Y760041D01*
X851663Y760065D01*
X851580Y760112D01*
X851544Y760147D01*
X851521Y760159D01*
X851438Y760218D01*
X851432Y760295D01*
X851455Y760355D01*
X851485Y760431D01*
X851515Y760473D01*
X851538Y760497D01*
X851562Y760556D01*
X851574Y760603D01*
X851633Y760709D01*
X851657Y760733D01*
X851680Y760792D01*
X851698Y760857D01*
X851740Y760922D01*
X851763Y760946D01*
X851787Y761005D01*
X851810Y761076D01*
Y761088D01*
X851870Y761171D01*
X851905Y761254D01*
X851935Y761331D01*
X851958Y761366D01*
X852006Y761378D01*
X852077Y761366D01*
X852148Y761319D01*
X852195Y761307D01*
X852278Y761260D01*
X852302Y761236D01*
X852361Y761212D01*
X852408Y761201D01*
X852485Y761171D01*
X852574Y761118D01*
X852657Y761094D01*
X852734Y761076D01*
X852828Y761053D01*
X852929Y761011D01*
X853024Y760988D01*
X853142Y760976D01*
X853290Y760958D01*
X853450Y760940D01*
X853704Y760934D01*
X853941Y760946D01*
X854101Y760964D01*
X854183Y760976D01*
X854296Y760993D01*
X854343Y761005D01*
X854467Y761070D01*
X854515Y761082D01*
X854592Y761112D01*
X854663Y761171D01*
X854757Y761230D01*
X854911Y761384D01*
X854917Y761402D01*
X854935Y761408D01*
X854947Y761431D01*
X854970Y761455D01*
X855041Y761585D01*
X855065Y761609D01*
X855089Y761692D01*
X855101Y761739D01*
X855118Y761804D01*
X855142Y761863D01*
X855171Y761940D01*
X855183Y762023D01*
X855195Y762142D01*
X855207Y762366D01*
X855195Y762568D01*
X855177Y762597D01*
X855142Y762609D01*
X855065Y762556D01*
X855053Y762532D01*
X854988Y762467D01*
X854905Y762420D01*
X854846Y762360D01*
X854787Y762337D01*
X854704Y762289D01*
X854633Y762242D01*
X854550Y762218D01*
X854420Y762147D01*
X854361Y762124D01*
X854166Y762082D01*
X854106Y762059D01*
X854006Y762029D01*
X853959Y762017D01*
X853639Y761994D01*
X853166Y762005D01*
X853130Y762017D01*
X853018Y762035D01*
X852970Y762047D01*
X852911Y762071D01*
X852816Y762094D01*
X852698Y762118D01*
X852651Y762130D01*
X852592Y762153D01*
X852491Y762207D01*
X852408Y762230D01*
X852302Y762289D01*
X852278Y762313D01*
X852219Y762337D01*
X852136Y762384D01*
X852112Y762408D01*
X852089Y762420D01*
X852006Y762467D01*
X851941Y762520D01*
X851911Y762550D01*
X851887Y762562D01*
X851822Y762615D01*
X851757Y762680D01*
X851734Y762692D01*
X851680Y762745D01*
X851668Y762769D01*
X851639Y762798D01*
X851615Y762810D01*
X851586Y762840D01*
X851574Y762863D01*
X851521Y762928D01*
X851479Y762970D01*
X851467Y762994D01*
X851420Y763076D01*
X851361Y763136D01*
X851337Y763195D01*
X851325Y763218D01*
X851272Y763283D01*
X851219Y763408D01*
X851160Y763514D01*
X851124Y763597D01*
X851100Y763692D01*
X851077Y763751D01*
X851065Y763775D01*
X851029Y763858D01*
X851006Y763952D01*
X850988Y764076D01*
X850976Y764147D01*
X850941Y764289D01*
X850929Y764360D01*
X850917Y764455D01*
X850905Y764621D01*
X850899Y764946D01*
X850911Y764982D01*
X850923Y765218D01*
X850935Y765254D01*
X850964Y765402D01*
X850976Y765449D01*
X850988Y765520D01*
X851012Y765674D01*
X851023Y765733D01*
X851059Y765828D01*
X851077Y765846D01*
X851089Y765893D01*
X851100Y765929D01*
X851124Y766023D01*
X851154Y766100D01*
X851171Y766118D01*
X851183Y766142D01*
X851231Y766248D01*
X851260Y766325D01*
X851302Y766366D01*
X851313Y766390D01*
X851385Y766520D01*
X851420Y766556D01*
X851432Y766579D01*
X851509Y766692D01*
X851550Y766733D01*
X851562Y766757D01*
X851645Y766863D01*
X851716Y766934D01*
X851728Y766958D01*
X851799Y767017D01*
X851864Y767082D01*
X851887Y767094D01*
X851994Y767177D01*
X852029Y767213D01*
X852112Y767260D01*
X852160Y767307D01*
X852183Y767319D01*
X852242Y767343D01*
X852325Y767390D01*
X852361Y767426D01*
X852544Y767491D01*
X852562Y767508D01*
X852586Y767520D01*
X852645Y767544D01*
X852740Y767568D01*
X852864Y767597D01*
X853000Y767639D01*
X853094Y767662D01*
X853284Y767674D01*
X853923Y767662D01*
D02*
G37*
%LPC*%
G36*
X782798Y778112D02*
X782762Y778100D01*
X782573Y778088D01*
X782466Y778077D01*
X782407Y778053D01*
X782360Y778041D01*
X782206Y778029D01*
X782141Y778012D01*
X782094Y778000D01*
X782034Y777988D01*
X781969Y777970D01*
X781910Y777946D01*
X781727Y777917D01*
X781632Y777881D01*
X781567Y777864D01*
X781455Y777822D01*
X781378Y777793D01*
X781295Y777781D01*
X781248Y777769D01*
X781135Y777728D01*
X781040Y777704D01*
X780981Y777680D01*
X780916Y777651D01*
X780857Y777627D01*
X780780Y777597D01*
X780721Y777574D01*
X780656Y777544D01*
X780608Y777532D01*
X780549Y777508D01*
X780419Y777449D01*
X780307Y777408D01*
X780170Y777343D01*
X780123Y777331D01*
X779946Y777248D01*
X779869Y777219D01*
X779810Y777195D01*
X779602Y777094D01*
X779520Y777047D01*
X779449Y777000D01*
X779372Y776970D01*
X779307Y776929D01*
X779236Y776881D01*
X779153Y776846D01*
X779129Y776834D01*
X779034Y776775D01*
X779011Y776763D01*
X778857Y776680D01*
X778786Y776633D01*
X778762Y776621D01*
X778632Y776550D01*
X778466Y776432D01*
X778443Y776420D01*
X778407Y776384D01*
X778389Y776378D01*
X778378Y776355D01*
X778289Y776290D01*
X778206Y776242D01*
X778141Y776189D01*
X778088Y776136D01*
X778064Y776124D01*
X777993Y776053D01*
X777969Y776041D01*
X777898Y775970D01*
X777875Y775958D01*
X777851Y775935D01*
X777827Y775923D01*
X777780Y775875D01*
X777762Y775870D01*
X777750Y775846D01*
X777662Y775757D01*
X777638Y775745D01*
X777531Y775662D01*
X777425Y775556D01*
X777401Y775544D01*
X777378Y775520D01*
X777354Y775508D01*
X777318Y775473D01*
X777295Y775461D01*
X777259Y775426D01*
X777236Y775414D01*
X777153Y775355D01*
X777011Y775213D01*
X776904Y775153D01*
X776839Y775100D01*
X776810Y775071D01*
X776786Y775059D01*
X776762Y775035D01*
X776739Y775023D01*
X776673Y774970D01*
X776573Y774869D01*
X776466Y774810D01*
X776413Y774757D01*
X776401Y774733D01*
X776366Y774698D01*
X776354Y774674D01*
X776336Y774656D01*
X776312Y774645D01*
X776200Y774568D01*
X776117Y774461D01*
X776088Y774432D01*
X776064Y774420D01*
X776028Y774384D01*
X776005Y774372D01*
X775910Y774254D01*
X775880Y774225D01*
X775869Y774201D01*
X775851Y774183D01*
X775827Y774171D01*
X775762Y774106D01*
X775750Y774083D01*
X775703Y774035D01*
X775691Y774011D01*
X775626Y773946D01*
X775602Y773935D01*
X775573Y773905D01*
X775561Y773881D01*
X775508Y773816D01*
X775372Y773680D01*
X775360Y773656D01*
X775336Y773633D01*
X775324Y773609D01*
X775206Y773491D01*
X775194Y773467D01*
X775171Y773443D01*
X775111Y773337D01*
X775028Y773230D01*
X774981Y773159D01*
X774898Y773005D01*
X774851Y772923D01*
X774804Y772852D01*
X774756Y772745D01*
X774638Y772532D01*
X774591Y772449D01*
X774555Y772367D01*
X774472Y772213D01*
X774425Y772142D01*
X774413Y772118D01*
X774366Y772035D01*
X774224Y771810D01*
X774176Y771704D01*
X774022Y771384D01*
X773987Y771301D01*
X773904Y771124D01*
X773869Y771005D01*
X773845Y770911D01*
X773815Y770834D01*
X773786Y770769D01*
X773762Y770710D01*
X773715Y770556D01*
X773502Y770118D01*
X773395Y769893D01*
X773366Y769816D01*
X773354Y769769D01*
X773324Y769692D01*
X773259Y769508D01*
X773236Y769449D01*
X773224Y769402D01*
X773206Y769337D01*
X773194Y769289D01*
X773141Y769142D01*
X773099Y769041D01*
X773088Y768994D01*
X773064Y768911D01*
X773052Y768863D01*
X773011Y768751D01*
X772922Y768473D01*
X772881Y768361D01*
X772857Y768266D01*
X772762Y768006D01*
X772739Y767911D01*
X772721Y767846D01*
X772709Y767798D01*
X772668Y767686D01*
X772638Y767621D01*
X772614Y767562D01*
X772597Y767485D01*
X772567Y767384D01*
X772537Y767307D01*
X772484Y767136D01*
X772460Y767076D01*
X772425Y766958D01*
X772377Y766804D01*
X772348Y766727D01*
X772324Y766668D01*
X772295Y766591D01*
X772277Y766514D01*
X772253Y766396D01*
X772241Y766349D01*
X772188Y766224D01*
X772164Y766130D01*
X772147Y766053D01*
X772135Y765994D01*
X772082Y765822D01*
X772064Y765745D01*
X772046Y765680D01*
X772034Y765633D01*
X772017Y765556D01*
X772005Y765508D01*
X771969Y765331D01*
X771957Y765283D01*
X771946Y765189D01*
X771934Y765118D01*
X771922Y765070D01*
X771910Y764976D01*
X771898Y764834D01*
X771886Y764727D01*
X771875Y764633D01*
X771863Y764384D01*
X771857Y764307D01*
X771869Y764272D01*
X771880Y764224D01*
X771875Y764088D01*
X771886Y764029D01*
X771898Y763958D01*
X771910Y763828D01*
X771922Y763733D01*
X771946Y763615D01*
X771957Y763567D01*
X771987Y763491D01*
X771999Y763443D01*
X772011Y763301D01*
X772034Y763242D01*
X772046Y763195D01*
X772088Y763082D01*
X772141Y762958D01*
X772182Y762846D01*
X772247Y762698D01*
X772271Y762639D01*
X772301Y762562D01*
X772342Y762461D01*
X772383Y762349D01*
X772443Y762218D01*
X772466Y762159D01*
X772484Y762118D01*
X772579Y761917D01*
X772792Y761479D01*
X772839Y761396D01*
X772922Y761266D01*
X772981Y761159D01*
X773040Y761076D01*
X773052Y761029D01*
X773111Y760922D01*
X773135Y760899D01*
X773147Y760875D01*
X773241Y760698D01*
X773265Y760674D01*
X773277Y760650D01*
X773348Y760520D01*
X773490Y760378D01*
X773549Y760272D01*
X773596Y760224D01*
X773608Y760201D01*
X773632Y760177D01*
X773644Y760153D01*
X773709Y760065D01*
X773733Y760053D01*
X773768Y760017D01*
X773792Y760005D01*
X773833Y759964D01*
X773845Y759940D01*
X773904Y759857D01*
X773946Y759816D01*
X773969Y759804D01*
X774034Y759751D01*
X774105Y759680D01*
X774117Y759656D01*
X774147Y759627D01*
X774170Y759615D01*
X774277Y759532D01*
X774324Y759485D01*
X774348Y759473D01*
X774383Y759437D01*
X774407Y759425D01*
X774514Y759366D01*
X774679Y759248D01*
X774810Y759189D01*
X774869Y759165D01*
X774999Y759106D01*
X775082Y759070D01*
X775165Y759047D01*
X775242Y759029D01*
X775360Y759005D01*
X775407Y758993D01*
X775466Y758970D01*
X775514Y758958D01*
X775573Y758946D01*
X775644Y758934D01*
X775762Y758911D01*
X775863Y758881D01*
X775946Y758857D01*
X776022Y758828D01*
X776123Y758798D01*
X776170Y758786D01*
X776525Y758680D01*
X776591Y758662D01*
X776644Y758644D01*
X776739Y758621D01*
X776881Y758597D01*
X776928Y758585D01*
X777123Y758544D01*
X777182Y758520D01*
X777242Y758508D01*
X777348Y758497D01*
X777443Y758485D01*
X777602Y758467D01*
X777750Y758449D01*
X777839Y758443D01*
X777875Y758455D01*
X778076Y758443D01*
X778111Y758431D01*
X778176Y758414D01*
X778277Y758384D01*
X778466Y758325D01*
X778525Y758301D01*
X778679Y758254D01*
X778869Y758195D01*
X779023Y758147D01*
X779165Y758124D01*
X779212Y758112D01*
X779318Y758088D01*
X779354Y758076D01*
X779401Y758065D01*
X779514Y758047D01*
X779573Y758035D01*
X779668Y758023D01*
X779827Y758005D01*
X779981Y757994D01*
X780088Y757982D01*
X780147Y757958D01*
X780200Y757952D01*
X780312Y757958D01*
X780348Y757946D01*
X780431Y757934D01*
X781123Y757917D01*
X781248Y757911D01*
X781283Y757923D01*
X781472Y757911D01*
X781614Y757923D01*
X781650Y757911D01*
X781685Y757923D01*
X782301Y757934D01*
X782336Y757946D01*
X782455Y757958D01*
X782537Y757946D01*
X782626Y757964D01*
X782762Y757970D01*
X782786Y757958D01*
X782822Y757970D01*
X782940Y757982D01*
X783182Y757999D01*
X783608Y758023D01*
X783727Y758035D01*
X783928Y758047D01*
X783999Y758059D01*
X784117Y758070D01*
X784188Y758082D01*
X784307Y758094D01*
X784401Y758106D01*
X784520Y758118D01*
X784662Y758141D01*
X784804Y758153D01*
X784875Y758165D01*
X784934Y758189D01*
X785035Y758218D01*
X785147Y758260D01*
X785236Y758349D01*
X785259Y758360D01*
X785336Y758414D01*
X785348Y758437D01*
X785425Y758514D01*
X785449Y758526D01*
X785579Y758597D01*
X785603Y758621D01*
X785626Y758633D01*
X785662Y758668D01*
X785792Y758739D01*
X785875Y758822D01*
X785898Y758834D01*
X785969Y758881D01*
X785993Y758893D01*
X786141Y759005D01*
X786236Y759064D01*
X786348Y759177D01*
X786372Y759189D01*
X786455Y759248D01*
X786478Y759260D01*
X786526Y759307D01*
X786549Y759319D01*
X786585Y759354D01*
X786609Y759366D01*
X786632Y759390D01*
X786656Y759402D01*
X786751Y759496D01*
X786774Y759508D01*
X786922Y759609D01*
X786940Y759627D01*
X786964Y759639D01*
X787023Y759698D01*
X787046Y759710D01*
X787082Y759745D01*
X787106Y759757D01*
X787153Y759804D01*
X787177Y759816D01*
X787271Y759875D01*
X787295Y759887D01*
X787360Y759940D01*
X787401Y759970D01*
X787461Y760029D01*
X787484Y760041D01*
X787520Y760076D01*
X787543Y760088D01*
X787567Y760112D01*
X787591Y760124D01*
X787626Y760159D01*
X787650Y760171D01*
X787756Y760254D01*
X787786Y760284D01*
X787798Y760307D01*
X787887Y760396D01*
X787910Y760408D01*
X787975Y760461D01*
X788088Y760609D01*
X788200Y760686D01*
X788212Y760709D01*
X788236Y760733D01*
X788247Y760757D01*
X788271Y760780D01*
X788283Y760804D01*
X788313Y760834D01*
X788336Y760846D01*
X788401Y760899D01*
X788437Y760934D01*
X788472Y760993D01*
X788526Y761059D01*
X788573Y761106D01*
X788597Y761118D01*
X788626Y761147D01*
X788638Y761171D01*
X788721Y761278D01*
X788839Y761396D01*
X788851Y761420D01*
X788904Y761485D01*
X788934Y761526D01*
X788993Y761585D01*
X789005Y761609D01*
X789041Y761644D01*
X789052Y761668D01*
X789088Y761704D01*
X789100Y761727D01*
X789153Y761792D01*
X789206Y761846D01*
X789218Y761869D01*
X789254Y761905D01*
X789265Y761929D01*
X789348Y762035D01*
X789431Y762118D01*
X789443Y762142D01*
X789466Y762165D01*
X789478Y762189D01*
X789537Y762272D01*
X789549Y762295D01*
X789585Y762331D01*
X789597Y762355D01*
X789644Y762402D01*
X789656Y762426D01*
X789715Y762520D01*
X789727Y762544D01*
X789786Y762603D01*
X789798Y762627D01*
X789833Y762662D01*
X789845Y762686D01*
X789922Y762798D01*
X789940Y762816D01*
X789952Y762840D01*
X789975Y762863D01*
X789987Y762887D01*
X790046Y762970D01*
X790058Y762994D01*
X790117Y763100D01*
X790171Y763165D01*
X790188Y763183D01*
X790200Y763207D01*
X790224Y763230D01*
X790330Y763431D01*
X790384Y763496D01*
X790437Y763585D01*
X790461Y763645D01*
X790615Y763964D01*
X790638Y764023D01*
X790662Y764106D01*
X790674Y764189D01*
X790709Y764331D01*
X790739Y764408D01*
X790762Y764467D01*
X790792Y764568D01*
X790822Y764644D01*
X790887Y764781D01*
X790910Y764840D01*
X790922Y764887D01*
X790946Y764946D01*
X791005Y765076D01*
X791029Y765136D01*
X791088Y765266D01*
X791141Y765414D01*
X791177Y765508D01*
X791230Y765597D01*
X791248Y765662D01*
X791354Y765946D01*
X791378Y766005D01*
X791390Y766053D01*
X791413Y766112D01*
X791455Y766248D01*
X791484Y766384D01*
X791496Y766432D01*
X791514Y766485D01*
X791526Y766532D01*
X791532Y766715D01*
X791514Y766875D01*
X791502Y767005D01*
X791478Y767065D01*
X791461Y767141D01*
X791449Y767189D01*
X791419Y767289D01*
X791401Y767402D01*
X791390Y767449D01*
X791360Y767526D01*
X791307Y767674D01*
X791242Y767798D01*
X791200Y767911D01*
X791183Y767929D01*
X791171Y767952D01*
X791123Y768035D01*
X791094Y768112D01*
X791064Y768153D01*
X791029Y768189D01*
X791017Y768213D01*
X790981Y768248D01*
X790970Y768272D01*
X790946Y768295D01*
X790934Y768319D01*
X790910Y768343D01*
X790899Y768366D01*
X790804Y768461D01*
X790792Y768485D01*
X790733Y768568D01*
X790662Y768615D01*
X790620Y768645D01*
X790526Y768739D01*
X790502Y768751D01*
X790466Y768786D01*
X790443Y768798D01*
X790295Y768899D01*
X790253Y768928D01*
X790182Y768976D01*
X790076Y769023D01*
X790017Y769047D01*
X789993Y769059D01*
X789910Y769106D01*
X789804Y769153D01*
X789727Y769183D01*
X789632Y769218D01*
X789585Y769230D01*
X789449Y769272D01*
X789212Y769331D01*
X789135Y769349D01*
X789088Y769360D01*
X789029Y769372D01*
X788958Y769384D01*
X788768Y769408D01*
X788703Y769426D01*
X788620Y769437D01*
X788401Y769455D01*
X788052Y769473D01*
X787839Y769485D01*
X787804Y769473D01*
X787614Y769485D01*
X787023Y769473D01*
X786987Y769461D01*
X786869Y769449D01*
X786798Y769437D01*
X786774Y769414D01*
X786751Y769402D01*
X786727Y769378D01*
X786703Y769366D01*
X786668Y769331D01*
X786644Y769319D01*
X786603Y769278D01*
X786591Y769254D01*
X786496Y769053D01*
X786467Y768976D01*
X786449Y768911D01*
X786389Y768721D01*
X786366Y768639D01*
X786318Y768520D01*
X786271Y768414D01*
X786247Y768355D01*
X786206Y768242D01*
X786153Y768153D01*
X785963Y767787D01*
X785928Y767751D01*
X785821Y767550D01*
X785745Y767437D01*
X785697Y767366D01*
X785626Y767248D01*
X785490Y767065D01*
X785443Y766982D01*
X785390Y766917D01*
X785336Y766863D01*
X785324Y766840D01*
X785188Y766644D01*
X785165Y766633D01*
X785123Y766591D01*
X785111Y766568D01*
X785088Y766544D01*
X785076Y766520D01*
X784993Y766414D01*
X784952Y766384D01*
X784922Y766355D01*
X784910Y766331D01*
X784827Y766224D01*
X784798Y766195D01*
X784774Y766183D01*
X784709Y766118D01*
X784697Y766094D01*
X784662Y766059D01*
X784650Y766035D01*
X784597Y765982D01*
X784573Y765970D01*
X784549Y765946D01*
X784526Y765934D01*
X784496Y765905D01*
X784484Y765881D01*
X784425Y765822D01*
X784419Y765804D01*
X784395Y765792D01*
X784247Y765692D01*
X784194Y765627D01*
X784171Y765603D01*
X784147Y765591D01*
X784040Y765508D01*
X783975Y765455D01*
X783857Y765396D01*
X783815Y765366D01*
X783733Y765283D01*
X783709Y765272D01*
X783626Y765212D01*
X783561Y765159D01*
X783532Y765130D01*
X783508Y765118D01*
X783330Y765023D01*
X783307Y764999D01*
X783283Y764988D01*
X783129Y764905D01*
X783070Y764846D01*
X782916Y764763D01*
X782893Y764739D01*
X782869Y764727D01*
X782762Y764680D01*
X782608Y764609D01*
X782514Y764585D01*
X782437Y764568D01*
X782360Y764538D01*
X782313Y764526D01*
X782123Y764538D01*
X782017Y764597D01*
X781975Y764639D01*
X781952Y764698D01*
X781940Y764781D01*
X781952Y765076D01*
X781963Y765112D01*
X781981Y765189D01*
X781999Y765254D01*
X782023Y765337D01*
X782088Y765520D01*
X782129Y765621D01*
X782153Y765680D01*
X782171Y765745D01*
X782230Y765875D01*
X782283Y766000D01*
X782295Y766047D01*
X782342Y766165D01*
X782389Y766331D01*
X782401Y766437D01*
X782389Y766473D01*
X782307Y766627D01*
X782265Y766668D01*
X782242Y766680D01*
X782218Y766704D01*
X782194Y766715D01*
X782028Y766881D01*
X782005Y766893D01*
X781981Y766917D01*
X781957Y766928D01*
X781928Y766958D01*
X781916Y766982D01*
X781845Y767053D01*
X781833Y767076D01*
X781774Y767136D01*
X781762Y767159D01*
X781721Y767201D01*
X781662Y767224D01*
X781579Y767213D01*
X781514Y767159D01*
X781472Y767118D01*
X781449Y767106D01*
X781372Y767053D01*
X781360Y767029D01*
X781277Y766923D01*
X781253Y766899D01*
X781242Y766875D01*
X781200Y766846D01*
X781171Y766816D01*
X781159Y766792D01*
X781106Y766727D01*
X781076Y766686D01*
X781017Y766627D01*
X781005Y766603D01*
X780934Y766532D01*
X780922Y766508D01*
X780898Y766485D01*
X780887Y766461D01*
X780833Y766408D01*
X780810Y766396D01*
X780697Y766284D01*
X780685Y766260D01*
X780620Y766195D01*
X780597Y766183D01*
X780431Y766017D01*
X780407Y766005D01*
X780324Y765946D01*
X780218Y765840D01*
X780194Y765828D01*
X780088Y765769D01*
X780023Y765716D01*
X779934Y765662D01*
X779886Y765650D01*
X779733Y765544D01*
X779656Y765514D01*
X779555Y765461D01*
X779496Y765437D01*
X779449Y765426D01*
X779372Y765396D01*
X779307Y765366D01*
X779070Y765295D01*
X779023Y765283D01*
X778857Y765272D01*
X778821Y765260D01*
X778774Y765248D01*
X778253Y765260D01*
X778218Y765272D01*
X778094Y765289D01*
X778046Y765301D01*
X777952Y765337D01*
X777875Y765366D01*
X777756Y765402D01*
X777697Y765426D01*
X777378Y765603D01*
X777295Y765650D01*
X777212Y765733D01*
X777188Y765745D01*
X777165Y765769D01*
X777141Y765781D01*
X777076Y765834D01*
X777034Y765863D01*
X776969Y765929D01*
X776958Y765952D01*
X776934Y765964D01*
X776922Y765988D01*
X776881Y766017D01*
X776827Y766071D01*
X776815Y766094D01*
X776780Y766130D01*
X776768Y766153D01*
X776733Y766189D01*
X776721Y766213D01*
X776697Y766236D01*
X776662Y766295D01*
X776638Y766319D01*
X776626Y766343D01*
X776579Y766390D01*
X776567Y766414D01*
X776508Y766473D01*
X776413Y766650D01*
X776378Y766710D01*
X776224Y767029D01*
X776141Y767207D01*
X776117Y767266D01*
X776088Y767343D01*
X776034Y767467D01*
X776005Y767591D01*
X775993Y767639D01*
X775969Y767757D01*
X775934Y767852D01*
X775910Y767911D01*
X775898Y767982D01*
X775886Y768029D01*
X775875Y768088D01*
X775839Y768301D01*
X775821Y768366D01*
X775809Y768414D01*
X775792Y768597D01*
X775780Y768668D01*
X775768Y768810D01*
X775756Y768917D01*
X775738Y769278D01*
X775750Y769313D01*
X775738Y769467D01*
X775750Y769550D01*
X775738Y769704D01*
X775750Y769739D01*
X775762Y769976D01*
X775774Y770011D01*
X775786Y770248D01*
X775798Y770284D01*
X775809Y770485D01*
X775821Y770520D01*
X775833Y770639D01*
X775857Y770698D01*
X775875Y770810D01*
X775910Y771023D01*
X775922Y771071D01*
X775946Y771189D01*
X775957Y771236D01*
X775987Y771337D01*
X775999Y771384D01*
X776017Y771461D01*
X776040Y771556D01*
X776052Y771615D01*
X776082Y771716D01*
X776093Y771763D01*
X776153Y771952D01*
X776212Y772106D01*
X776236Y772189D01*
X776289Y772337D01*
X776354Y772485D01*
X776383Y772562D01*
X776425Y772650D01*
X776484Y772757D01*
X776531Y772828D01*
X776614Y772982D01*
X776673Y773041D01*
X776685Y773065D01*
X776744Y773159D01*
X776756Y773183D01*
X776869Y773331D01*
X776946Y773408D01*
X776993Y773491D01*
X777017Y773514D01*
X777029Y773538D01*
X777159Y773668D01*
X777171Y773692D01*
X777253Y773798D01*
X777295Y773828D01*
X777348Y773881D01*
X777360Y773905D01*
X777384Y773929D01*
X777395Y773952D01*
X777460Y774017D01*
X777484Y774029D01*
X777514Y774071D01*
X777537Y774094D01*
X777549Y774118D01*
X777685Y774254D01*
X777709Y774266D01*
X777786Y774343D01*
X777798Y774367D01*
X777875Y774443D01*
X777898Y774455D01*
X777963Y774508D01*
X778011Y774556D01*
X778023Y774579D01*
X778076Y774633D01*
X778099Y774645D01*
X778123Y774668D01*
X778147Y774680D01*
X778236Y774769D01*
X778247Y774792D01*
X778301Y774846D01*
X778324Y774858D01*
X778431Y774940D01*
X778549Y775059D01*
X778573Y775071D01*
X778679Y775153D01*
X778869Y775307D01*
X778952Y775390D01*
X779058Y775449D01*
X779123Y775503D01*
X779200Y775580D01*
X779224Y775591D01*
X779247Y775615D01*
X779271Y775627D01*
X779295Y775651D01*
X779318Y775662D01*
X779354Y775698D01*
X779378Y775710D01*
X779531Y775793D01*
X779555Y775816D01*
X779579Y775828D01*
X779650Y775875D01*
X779673Y775887D01*
X779786Y775964D01*
X779815Y775994D01*
X779839Y776006D01*
X779910Y776053D01*
X780040Y776124D01*
X780147Y776171D01*
X780212Y776189D01*
X780259Y776201D01*
X780318Y776213D01*
X780472Y776236D01*
X780573Y776242D01*
X780608Y776230D01*
X780674Y776213D01*
X780733Y776189D01*
X780804Y776118D01*
X780851Y776012D01*
X780863Y775964D01*
X780845Y775864D01*
X780821Y775804D01*
X780762Y775710D01*
X780644Y775591D01*
X780620Y775580D01*
X780597Y775556D01*
X780514Y775520D01*
X780407Y775461D01*
X780384Y775437D01*
X780230Y775355D01*
X780099Y775224D01*
X780076Y775213D01*
X779928Y775100D01*
X779910Y775082D01*
X779886Y775071D01*
X779780Y774988D01*
X779739Y774946D01*
X779733Y774929D01*
X779709Y774917D01*
X779673Y774881D01*
X779650Y774869D01*
X779567Y774822D01*
X779543Y774798D01*
X779520Y774787D01*
X779484Y774751D01*
X779460Y774739D01*
X779437Y774716D01*
X779413Y774704D01*
X779307Y774621D01*
X779259Y774574D01*
X779236Y774562D01*
X779165Y774514D01*
X779105Y774479D01*
X779040Y774426D01*
X778987Y774384D01*
X778963Y774372D01*
X778857Y774290D01*
X778798Y774230D01*
X778774Y774219D01*
X778691Y774159D01*
X778668Y774148D01*
X778561Y774041D01*
X778537Y774029D01*
X778490Y773982D01*
X778466Y773970D01*
X778407Y773911D01*
X778383Y773899D01*
X778348Y773864D01*
X778324Y773852D01*
X778301Y773828D01*
X778277Y773816D01*
X778224Y773763D01*
X778212Y773739D01*
X778159Y773686D01*
X778135Y773674D01*
X778028Y773591D01*
X777987Y773550D01*
X777975Y773526D01*
X777910Y773461D01*
X777886Y773449D01*
X777821Y773396D01*
X777762Y773337D01*
X777750Y773313D01*
X777697Y773248D01*
X777673Y773236D01*
X777608Y773183D01*
X777526Y773100D01*
X777514Y773076D01*
X777425Y772988D01*
X777401Y772976D01*
X777372Y772934D01*
X777289Y772828D01*
X777236Y772763D01*
X777194Y772721D01*
X777182Y772698D01*
X777135Y772627D01*
X777088Y772544D01*
X777005Y772437D01*
X776934Y772284D01*
X776851Y772130D01*
X776780Y771976D01*
X776721Y771846D01*
X776679Y771733D01*
X776632Y771615D01*
X776620Y771568D01*
X776602Y771526D01*
Y771514D01*
X776579Y771420D01*
X776531Y771266D01*
X776520Y771218D01*
X776496Y771136D01*
X776472Y771041D01*
X776454Y770905D01*
X776443Y770846D01*
X776431Y770798D01*
X776407Y770739D01*
X776395Y770680D01*
X776383Y770562D01*
X776372Y770491D01*
X776348Y770183D01*
X776336Y769970D01*
X776330Y769396D01*
X776342Y769360D01*
X776354Y769041D01*
X776366Y769005D01*
X776378Y768816D01*
X776389Y768769D01*
X776407Y768692D01*
X776419Y768645D01*
X776443Y768503D01*
X776454Y768443D01*
X776478Y768301D01*
X776490Y768254D01*
X776520Y768177D01*
X776543Y768082D01*
X776555Y768011D01*
X776579Y767952D01*
X776620Y767769D01*
X776673Y767680D01*
X776697Y767597D01*
X776727Y767520D01*
X776744Y767502D01*
X776756Y767479D01*
X776792Y767396D01*
X776821Y767319D01*
X776881Y767224D01*
X776910Y767147D01*
X776981Y767017D01*
X777005Y766994D01*
X777034Y766917D01*
X777052Y766875D01*
X777105Y766810D01*
X777171Y766745D01*
X777182Y766721D01*
X777265Y766615D01*
X777318Y766550D01*
X777360Y766508D01*
X777407Y766426D01*
X777437Y766396D01*
X777460Y766384D01*
X777526Y766331D01*
X777567Y766301D01*
X777662Y766207D01*
X777744Y766171D01*
X777863Y766124D01*
X777928Y766106D01*
X777975Y766094D01*
X778070Y766082D01*
X778360Y766076D01*
X778395Y766088D01*
X778514Y766100D01*
X778549Y766112D01*
X778596Y766124D01*
X778656Y766148D01*
X778750Y766171D01*
X778851Y766189D01*
X779088Y766272D01*
X779212Y766337D01*
X779271Y766361D01*
X779567Y766514D01*
X779591Y766538D01*
X779614Y766550D01*
X779650Y766585D01*
X779673Y766597D01*
X779786Y766674D01*
X779804Y766692D01*
X779827Y766704D01*
X779863Y766739D01*
X779886Y766751D01*
X780017Y766822D01*
X780064Y766869D01*
X780088Y766881D01*
X780111Y766905D01*
X780135Y766917D01*
X780241Y766999D01*
X780336Y767094D01*
X780443Y767153D01*
X780508Y767218D01*
X780520Y767242D01*
X780597Y767319D01*
X780620Y767331D01*
X780685Y767384D01*
X780792Y767491D01*
X780804Y767514D01*
X780833Y767544D01*
X780857Y767556D01*
X781200Y767899D01*
X781224Y767911D01*
X781324Y768011D01*
X781336Y768035D01*
X781390Y768088D01*
X781413Y768100D01*
X781478Y768153D01*
X781537Y768213D01*
X781549Y768236D01*
X781614Y768301D01*
X781638Y768313D01*
X781744Y768396D01*
X781786Y768437D01*
X781798Y768461D01*
X781815Y768479D01*
X781839Y768491D01*
X781863Y768514D01*
X781886Y768526D01*
X781999Y768603D01*
X782064Y768668D01*
X782088Y768680D01*
X782200Y768757D01*
X782253Y768810D01*
X782431Y768905D01*
X782585Y768976D01*
X782691Y769023D01*
X782857Y769047D01*
X782940Y769035D01*
X783017Y769005D01*
X783111Y768946D01*
X783153Y768917D01*
X783182Y768863D01*
X783206Y768804D01*
X783230Y768721D01*
X783218Y768603D01*
X783135Y768497D01*
X783117Y768479D01*
X783094Y768467D01*
X783052Y768426D01*
X783040Y768402D01*
X783011Y768372D01*
X782987Y768361D01*
X782964Y768337D01*
X782940Y768325D01*
X782774Y768207D01*
X782750Y768195D01*
X782638Y768118D01*
X782573Y768053D01*
X782549Y768041D01*
X782443Y767958D01*
X782425Y767940D01*
X782413Y767917D01*
X782378Y767881D01*
X782366Y767858D01*
X782307Y767727D01*
X782318Y767633D01*
X782366Y767550D01*
X782431Y767485D01*
X782455Y767473D01*
X782561Y767390D01*
X782585Y767366D01*
X782608Y767355D01*
X782632Y767331D01*
X782739Y767272D01*
X782845Y767189D01*
X782863Y767171D01*
X782875Y767147D01*
X782904Y767118D01*
X782928Y767106D01*
X783040Y766994D01*
X783052Y766970D01*
X783111Y766887D01*
X783123Y766863D01*
X783171Y766757D01*
X783194Y766662D01*
X783206Y766579D01*
X783194Y766343D01*
X783171Y766284D01*
X783153Y766219D01*
X783088Y766082D01*
X783005Y765929D01*
X782934Y765775D01*
X782946Y765716D01*
X782964Y765698D01*
X783058Y765710D01*
X783165Y765792D01*
X783248Y765852D01*
X783378Y765923D01*
X783401Y765946D01*
X783425Y765958D01*
X783508Y766017D01*
X783532Y766029D01*
X783662Y766159D01*
X783685Y766171D01*
X783768Y766219D01*
X783833Y766272D01*
X783898Y766337D01*
X783922Y766349D01*
X784017Y766443D01*
X784034Y766449D01*
X784046Y766473D01*
X784100Y766526D01*
X784123Y766538D01*
X784188Y766591D01*
X784259Y766662D01*
X784271Y766686D01*
X784360Y766775D01*
X784384Y766786D01*
X784449Y766852D01*
X784460Y766875D01*
X784484Y766899D01*
X784496Y766923D01*
X784650Y767076D01*
X784662Y767100D01*
X784685Y767124D01*
X784697Y767147D01*
X784780Y767254D01*
X784839Y767313D01*
X784851Y767337D01*
X784875Y767360D01*
X784887Y767384D01*
X784964Y767497D01*
X784993Y767526D01*
X785005Y767550D01*
X785111Y767704D01*
X785159Y767787D01*
X785194Y767822D01*
X785206Y767846D01*
X785265Y767940D01*
X785384Y768165D01*
X785431Y768236D01*
X785461Y768313D01*
X785573Y768556D01*
X785608Y768639D01*
X785721Y768964D01*
X785739Y769029D01*
X785750Y769076D01*
X785768Y769153D01*
X785798Y769396D01*
X785810Y769443D01*
X785798Y769834D01*
X785774Y769893D01*
X785756Y770029D01*
X785739Y770071D01*
X785632Y770224D01*
X785620Y770248D01*
X785532Y770337D01*
X785508Y770349D01*
X785461Y770396D01*
X785437Y770408D01*
X785283Y770479D01*
X785141Y770514D01*
X785064Y770532D01*
X785017Y770544D01*
X784952Y770562D01*
X784857Y770585D01*
X784662Y770615D01*
X784502Y770633D01*
X784384Y770645D01*
X784218Y770656D01*
X784159Y770680D01*
X783946Y770692D01*
X783910Y770704D01*
X783466Y770721D01*
X783378Y770727D01*
X783342Y770716D01*
X783307Y770727D01*
X782348Y770716D01*
X782313Y770704D01*
X782159Y770692D01*
X781993Y770680D01*
X781957Y770668D01*
X781821Y770650D01*
X781691Y770639D01*
X781585Y770627D01*
X781537Y770615D01*
X781336Y770603D01*
X781242Y770579D01*
X781106Y770574D01*
X781070Y770585D01*
X780987Y770574D01*
X780887Y770591D01*
X780816Y770603D01*
X780768Y770615D01*
X780709Y770639D01*
X780614Y770698D01*
X780573Y770727D01*
X780532Y770769D01*
X780508Y770852D01*
X780526Y770964D01*
X780549Y771023D01*
X780620Y771142D01*
X780650Y771183D01*
X780739Y771272D01*
X780762Y771284D01*
X780798Y771319D01*
X780821Y771331D01*
X780881Y771390D01*
X780904Y771402D01*
X780963Y771426D01*
X781070Y771485D01*
X781117Y771532D01*
X781271Y771615D01*
X781342Y771686D01*
X781366Y771698D01*
X781472Y771757D01*
X781537Y771810D01*
X781579Y771840D01*
X781709Y771911D01*
X781762Y771964D01*
X781774Y771988D01*
X781875Y772088D01*
X781898Y772100D01*
X781963Y772165D01*
X781975Y772189D01*
X782011Y772224D01*
X782023Y772248D01*
X782129Y772355D01*
X782141Y772378D01*
X782200Y772461D01*
X782212Y772485D01*
X782295Y772568D01*
X782307Y772591D01*
X782354Y772639D01*
X782366Y772662D01*
X782449Y772769D01*
X782466Y772787D01*
X782484Y772792D01*
X782496Y772816D01*
X782543Y772863D01*
X782555Y772887D01*
X782579Y772911D01*
X782591Y772934D01*
X782644Y773000D01*
X782745Y773100D01*
X782756Y773124D01*
X782780Y773147D01*
X782792Y773171D01*
X782816Y773195D01*
X782827Y773218D01*
X782845Y773236D01*
X782869Y773248D01*
X782893Y773272D01*
X782916Y773284D01*
X782958Y773325D01*
X782969Y773349D01*
X783005Y773384D01*
X783017Y773408D01*
X783094Y773485D01*
X783153Y773520D01*
X783206Y773574D01*
X783218Y773597D01*
X783265Y773645D01*
X783271Y773662D01*
X783295Y773674D01*
X783342Y773722D01*
X783366Y773733D01*
X783407Y773775D01*
X783419Y773798D01*
X783443Y773822D01*
X783455Y773846D01*
X783597Y773988D01*
X783608Y774011D01*
X783656Y774094D01*
X783727Y774165D01*
X783739Y774189D01*
X783904Y774508D01*
X783928Y774532D01*
X784011Y774710D01*
X784023Y774733D01*
X784070Y774816D01*
X784129Y774899D01*
X784259Y775148D01*
X784283Y775171D01*
X784295Y775195D01*
X784318Y775219D01*
X784484Y775538D01*
X784579Y775739D01*
X784591Y775763D01*
X784650Y775893D01*
X784697Y776012D01*
X784780Y776272D01*
X784810Y776349D01*
X784845Y776526D01*
X784857Y776574D01*
X784869Y776716D01*
X784875Y776994D01*
X784863Y777029D01*
X784851Y777195D01*
X784792Y777325D01*
X784762Y777402D01*
X784715Y777473D01*
X784697Y777491D01*
X784685Y777515D01*
X784632Y777580D01*
X784602Y777621D01*
X784573Y777651D01*
X784549Y777662D01*
X784526Y777686D01*
X784502Y777698D01*
X784478Y777722D01*
X784455Y777733D01*
X784395Y777793D01*
X784372Y777804D01*
X784171Y777899D01*
X784058Y777941D01*
X783934Y777994D01*
X783673Y778041D01*
X783626Y778053D01*
X783508Y778065D01*
X783437Y778077D01*
X783378Y778100D01*
X782798Y778112D01*
D02*
G37*
G36*
X828562Y778077D02*
X828449Y778059D01*
X828343Y778047D01*
X828284Y778035D01*
X828130Y778012D01*
X828082Y778000D01*
X828023Y777976D01*
X827994Y777946D01*
X827970Y777935D01*
X827887Y777899D01*
X827828Y777864D01*
X827769Y777804D01*
X827745Y777793D01*
X827597Y777645D01*
X827585Y777621D01*
X827532Y777556D01*
X827503Y777526D01*
X827479Y777467D01*
X827431Y777384D01*
X827372Y777254D01*
X827355Y777165D01*
X827343Y777118D01*
X827289Y776946D01*
X827278Y776864D01*
X827266Y776745D01*
X827278Y776272D01*
X827289Y776236D01*
X827307Y776159D01*
X827361Y775988D01*
X827378Y775911D01*
X827390Y775864D01*
X827437Y775793D01*
X827455Y775775D01*
X827479Y775716D01*
X827526Y775633D01*
X827573Y775585D01*
X827585Y775562D01*
X827639Y775497D01*
X827745Y775390D01*
X827769Y775378D01*
X827840Y775307D01*
X827923Y775272D01*
X827946Y775260D01*
X828029Y775201D01*
X828112Y775177D01*
X828260Y775148D01*
X828325Y775130D01*
X828585Y775106D01*
X828710Y775124D01*
X828781Y775136D01*
X828875Y775159D01*
X828946Y775171D01*
X829006Y775183D01*
X829065Y775207D01*
X829082Y775224D01*
X829106Y775236D01*
X829130Y775260D01*
X829189Y775284D01*
X829272Y775331D01*
X829331Y775390D01*
X829355Y775402D01*
X829378Y775426D01*
X829396Y775432D01*
X829408Y775455D01*
X829432Y775479D01*
X829443Y775503D01*
X829461Y775520D01*
X829485Y775532D01*
X829514Y775562D01*
X829574Y775668D01*
X829609Y775704D01*
X829644Y775787D01*
X829662Y775852D01*
X829722Y775946D01*
X829733Y775982D01*
X829739Y775988D01*
X829757Y776088D01*
X829769Y776183D01*
X829792Y776325D01*
X829804Y776432D01*
X829810Y776733D01*
X829798Y776769D01*
X829786Y776911D01*
X829775Y776946D01*
X829763Y777065D01*
X829751Y777112D01*
X829739Y777183D01*
X829644Y777384D01*
X829615Y777461D01*
X829574Y777503D01*
X829562Y777526D01*
X829514Y777609D01*
X829473Y777662D01*
X829449Y777674D01*
X829432Y777692D01*
X829420Y777716D01*
X829343Y777793D01*
X829319Y777804D01*
X829290Y777822D01*
X829278Y777846D01*
X829260Y777864D01*
X829236Y777875D01*
X829059Y777970D01*
X828976Y778006D01*
X828928Y778017D01*
X828816Y778035D01*
X828656Y778053D01*
X828562Y778077D01*
D02*
G37*
G36*
X821059D02*
X821023Y778065D01*
X820922Y778047D01*
X820875Y778035D01*
X820757Y778012D01*
X820710Y778000D01*
X820686Y777988D01*
X820680Y777982D01*
X820656Y777970D01*
X820585Y777923D01*
X820455Y777852D01*
X820437Y777834D01*
X820431Y777816D01*
X820408Y777804D01*
X820384Y777781D01*
X820360Y777769D01*
X820331Y777739D01*
X820319Y777716D01*
X820224Y777621D01*
X820177Y777538D01*
X820124Y777473D01*
X820094Y777396D01*
X820076Y777331D01*
X820029Y777260D01*
X819999Y777183D01*
X819958Y776917D01*
X819946Y776858D01*
X819934Y776763D01*
X819928Y776414D01*
X819940Y776378D01*
X819958Y776266D01*
X819970Y776195D01*
X820005Y775970D01*
X820094Y775799D01*
X820112Y775733D01*
X820159Y775662D01*
X820189Y775633D01*
X820201Y775609D01*
X820260Y775526D01*
X820319Y775467D01*
X820331Y775443D01*
X820372Y775402D01*
X820396Y775390D01*
X820479Y775307D01*
X820538Y775284D01*
X820621Y775236D01*
X820644Y775213D01*
X820704Y775189D01*
X820751Y775177D01*
X820852Y775159D01*
X820899Y775148D01*
X820964Y775130D01*
X821100Y775112D01*
X821189Y775094D01*
X821224Y775106D01*
X821307Y775118D01*
X821479Y775148D01*
X821526Y775159D01*
X821585Y775171D01*
X821656Y775183D01*
X821715Y775207D01*
X821804Y775272D01*
X821852Y775284D01*
X821934Y775343D01*
X821982Y775390D01*
X822005Y775402D01*
X822130Y775526D01*
X822141Y775550D01*
X822224Y775657D01*
X822248Y775680D01*
X822260Y775728D01*
X822331Y775858D01*
X822366Y775941D01*
X822384Y776041D01*
X822396Y776100D01*
X822425Y776201D01*
X822437Y776248D01*
X822455Y776325D01*
X822467Y776491D01*
X822473Y776686D01*
X822461Y776722D01*
X822449Y776899D01*
X822437Y776935D01*
X822402Y777065D01*
X822378Y777159D01*
X822360Y777248D01*
X822337Y777307D01*
X822283Y777396D01*
X822260Y777455D01*
X822213Y777538D01*
X822177Y777574D01*
X822165Y777597D01*
X822100Y777686D01*
X822076Y777698D01*
X822059Y777716D01*
X822047Y777739D01*
X821994Y777793D01*
X821970Y777804D01*
X821899Y777875D01*
X821875Y777887D01*
X821745Y777958D01*
X821686Y777994D01*
X821591Y778017D01*
X821455Y778047D01*
X821408Y778059D01*
X821313Y778071D01*
X821059Y778077D01*
D02*
G37*
G36*
X864195Y766278D02*
X864160Y766266D01*
X864112Y766254D01*
X863959Y766242D01*
X863923Y766230D01*
X863846Y766213D01*
X863775Y766201D01*
X863716Y766189D01*
X863657Y766165D01*
X863615Y766136D01*
X863438Y766041D01*
X863379Y765982D01*
X863355Y765970D01*
X863290Y765917D01*
X863207Y765810D01*
X863183Y765787D01*
X863172Y765763D01*
X863136Y765680D01*
X863124Y765656D01*
X863065Y765574D01*
X863041Y765491D01*
X863053Y765384D01*
X863083Y765354D01*
X863130Y765343D01*
X863355Y765354D01*
X863852D01*
X865231Y765349D01*
X865278Y765372D01*
X865302Y765431D01*
X865290Y765538D01*
X865231Y765633D01*
X865219Y765680D01*
X865189Y765757D01*
X865148Y765822D01*
X865101Y765869D01*
X865065Y765929D01*
X865012Y765982D01*
X864988Y765994D01*
X864959Y766023D01*
X864947Y766047D01*
X864870Y766088D01*
X864787Y766136D01*
X864763Y766159D01*
X864680Y766195D01*
X864580Y766213D01*
X864485Y766236D01*
X864426Y766248D01*
X864284Y766272D01*
X864195Y766278D01*
D02*
G37*
G36*
X811792Y766266D02*
X811485Y766254D01*
X811449Y766242D01*
X811354Y766219D01*
X811271Y766207D01*
X811147Y766177D01*
X811076Y766130D01*
X810911Y766047D01*
X810899Y766023D01*
X810869Y765994D01*
X810845Y765982D01*
X810780Y765929D01*
X810727Y765863D01*
X810674Y765810D01*
X810627Y765727D01*
X810567Y765645D01*
X810555Y765574D01*
X810520Y765491D01*
X810508Y765443D01*
X810520Y765384D01*
X810538Y765366D01*
X810585Y765354D01*
X810703Y765343D01*
X810751Y765354D01*
X812650Y765349D01*
X812698Y765360D01*
X812739Y765390D01*
X812757Y765408D01*
X812745Y765538D01*
X812721Y765597D01*
X812704Y765686D01*
X812656Y765757D01*
X812627Y765787D01*
X812567Y765893D01*
X812467Y765994D01*
X812443Y766005D01*
X812372Y766076D01*
X812313Y766100D01*
X812289Y766112D01*
X812224Y766165D01*
X812147Y766195D01*
X812064Y766207D01*
X811922Y766242D01*
X811887Y766254D01*
X811875D01*
X811792Y766266D01*
D02*
G37*
G36*
X846964Y766219D02*
X846929Y766207D01*
X846793Y766189D01*
X846745Y766177D01*
X846597Y766100D01*
X846521Y766071D01*
X846479Y766041D01*
X846444Y766005D01*
X846420Y765994D01*
X846337Y765934D01*
X846201Y765798D01*
X846189Y765775D01*
X846118Y765704D01*
X846071Y765621D01*
X846047Y765597D01*
X846035Y765574D01*
X846000Y765491D01*
X845988Y765443D01*
X845905Y765266D01*
X845893Y765183D01*
X845881Y765065D01*
X845870Y764982D01*
X845858Y764710D01*
X845870Y764674D01*
X845881Y764390D01*
X845893Y764355D01*
X845905Y764248D01*
X845964Y764142D01*
X845988Y764082D01*
X846029Y763970D01*
X846089Y763899D01*
X846148Y763804D01*
X846201Y763751D01*
X846213Y763727D01*
X846313Y763627D01*
X846319Y763621D01*
X846337Y763603D01*
X846361Y763591D01*
X846384Y763567D01*
X846408Y763556D01*
X846467Y763496D01*
X846526Y763473D01*
X846633Y763414D01*
X846739Y763366D01*
X846852Y763349D01*
X846923Y763337D01*
X847165Y763307D01*
X847296Y763319D01*
X847331Y763331D01*
X847467Y763349D01*
X847609Y763372D01*
X847704Y763431D01*
X847870Y763514D01*
X847911Y763556D01*
X847935Y763567D01*
X848041Y763650D01*
X848100Y763721D01*
X848124Y763733D01*
X848142Y763751D01*
X848189Y763834D01*
X848242Y763899D01*
X848260Y763917D01*
X848302Y764029D01*
X848349Y764100D01*
X848378Y764165D01*
X848420Y764360D01*
X848455Y764502D01*
X848467Y764597D01*
X848473Y764923D01*
X848461Y764958D01*
X848450Y765076D01*
X848426Y765136D01*
X848408Y765212D01*
X848396Y765272D01*
X848384Y765343D01*
X848373Y765390D01*
X848313Y765485D01*
X848284Y765550D01*
X848254Y765627D01*
X848189Y765692D01*
X848177Y765716D01*
X848100Y765828D01*
X848035Y765881D01*
X847982Y765946D01*
X847958Y765958D01*
X847846Y766035D01*
X847816Y766065D01*
X847757Y766088D01*
X847680Y766118D01*
X847663Y766136D01*
X847639Y766148D01*
X847556Y766183D01*
X847509Y766195D01*
X847361Y766213D01*
X846964Y766219D01*
D02*
G37*
G36*
X837414D02*
X836988Y766207D01*
X836952Y766195D01*
X836858Y766183D01*
X836763Y766124D01*
X836704Y766100D01*
X836627Y766071D01*
X836585Y766041D01*
X836538Y765994D01*
X836455Y765946D01*
X836319Y765810D01*
X836307Y765787D01*
X836236Y765716D01*
X836189Y765633D01*
X836142Y765585D01*
X836077Y765402D01*
X836059Y765384D01*
X836047Y765360D01*
X836023Y765301D01*
X836012Y765254D01*
X835994Y765106D01*
X835976Y764946D01*
X835964Y764721D01*
X835976Y764686D01*
X835988Y764437D01*
X836000Y764402D01*
X836017Y764254D01*
X836029Y764207D01*
X836106Y764059D01*
X836142Y763964D01*
X836195Y763899D01*
X836213Y763881D01*
X836260Y763798D01*
X836313Y763733D01*
X836443Y763603D01*
X836467Y763591D01*
X836544Y763538D01*
X836550Y763520D01*
X836574Y763508D01*
X836597Y763485D01*
X836692Y763449D01*
X836775Y763390D01*
X836858Y763366D01*
X836970Y763349D01*
X837112Y763325D01*
X837272Y763307D01*
X837414Y763319D01*
X837449Y763331D01*
X837645Y763360D01*
X837716Y763372D01*
X837810Y763431D01*
X837875Y763461D01*
X837982Y763520D01*
X838017Y763556D01*
X838041Y763567D01*
X838148Y763650D01*
X838165Y763668D01*
X838177Y763692D01*
X838207Y763721D01*
X838230Y763733D01*
X838248Y763751D01*
X838260Y763775D01*
X838337Y763887D01*
X838367Y763917D01*
X838390Y763976D01*
X838420Y764053D01*
X838449Y764094D01*
X838497Y764201D01*
X838509Y764284D01*
X838520Y764331D01*
X838550Y764467D01*
X838562Y764526D01*
X838574Y764621D01*
X838580Y764899D01*
X838568Y764934D01*
X838550Y765070D01*
X838526Y765165D01*
X838515Y765224D01*
X838491Y765354D01*
X838467Y765414D01*
X838437Y765455D01*
X838390Y765562D01*
X838343Y765645D01*
X838307Y765680D01*
X838295Y765704D01*
X838236Y765787D01*
X838142Y765881D01*
X838130Y765905D01*
X838100Y765934D01*
X838077Y765946D01*
X838053Y765970D01*
X837994Y766005D01*
X837982D01*
X837923Y766065D01*
X837864Y766088D01*
X837662Y766183D01*
X837615Y766195D01*
X837497Y766207D01*
X837414Y766219D01*
D02*
G37*
G36*
X853935Y766254D02*
X853745Y766242D01*
X853710Y766230D01*
X853586Y766213D01*
X853515Y766201D01*
X853456Y766189D01*
X853396Y766165D01*
X853308Y766112D01*
X853248Y766088D01*
X853166Y766041D01*
X853154Y766017D01*
X853130Y766005D01*
X853106Y765982D01*
X853083Y765970D01*
X852923Y765810D01*
X852911Y765787D01*
X852840Y765716D01*
X852816Y765656D01*
X852769Y765574D01*
X852745Y765550D01*
X852722Y765491D01*
X852686Y765349D01*
X852639Y765230D01*
X852615Y765136D01*
X852603Y765017D01*
X852592Y764863D01*
X852603Y764473D01*
X852615Y764437D01*
X852627Y764355D01*
X852674Y764236D01*
X852698Y764153D01*
X852710Y764106D01*
X852728Y764041D01*
X852745Y764023D01*
X852757Y764000D01*
X852781Y763976D01*
X852793Y763952D01*
X852864Y763822D01*
X852923Y763763D01*
X852935Y763739D01*
X853094Y763579D01*
X853118Y763567D01*
X853189Y763496D01*
X853248Y763473D01*
X853473Y763366D01*
X853657Y763337D01*
X853763Y763325D01*
X853834Y763313D01*
X853982Y763307D01*
X854018Y763319D01*
X854177Y763337D01*
X854390Y763372D01*
X854450Y763396D01*
X854491Y763425D01*
X854669Y763520D01*
X854704Y763556D01*
X854728Y763567D01*
X854834Y763650D01*
X854864Y763680D01*
X854876Y763704D01*
X854905Y763733D01*
X854929Y763745D01*
X854959Y763787D01*
X855006Y763869D01*
X855059Y763934D01*
X855077Y763952D01*
X855095Y764017D01*
X855130Y764112D01*
X855148Y764130D01*
X855183Y764213D01*
X855195Y764260D01*
X855207Y764343D01*
X855243Y764627D01*
X855254Y764816D01*
X855243Y764934D01*
X855237Y764999D01*
X855231Y765005D01*
X855213Y765165D01*
X855201Y765260D01*
X855189Y765319D01*
X855177Y765366D01*
X855124Y765455D01*
X855071Y765603D01*
X855041Y765645D01*
X855006Y765680D01*
X854947Y765787D01*
X854929Y765816D01*
X854905Y765828D01*
X854864Y765869D01*
X854852Y765893D01*
X854787Y765958D01*
X854763Y765970D01*
X854657Y766053D01*
X854479Y766148D01*
X854373Y766195D01*
X854248Y766213D01*
X854177Y766224D01*
X853935Y766254D01*
D02*
G37*
%LPD*%
D10*
X1045138Y630905D02*
G03*
X1045138Y630905I-492J0D01*
G01*
X981791Y361260D02*
G03*
X981791Y361260I-492J0D01*
G01*
X968952Y361295D02*
G03*
X968952Y361295I-492J0D01*
G01*
X956157D02*
G03*
X956157Y361295I-492J0D01*
G01*
X1088091Y441929D02*
G03*
X1088091Y441929I-492J0D01*
G01*
Y365158D02*
G03*
X1088091Y365158I-492J0D01*
G01*
Y396654D02*
G03*
X1088091Y396654I-492J0D01*
G01*
Y350394D02*
G03*
X1088091Y350394I-492J0D01*
G01*
Y380906D02*
G03*
X1088091Y380906I-492J0D01*
G01*
Y411417D02*
G03*
X1088091Y411417I-492J0D01*
G01*
Y426181D02*
G03*
X1088091Y426181I-492J0D01*
G01*
D11*
X819415Y429078D02*
G03*
X819415Y429078I-1500J0D01*
G01*
X819415Y391732D02*
G03*
X819415Y391732I-1500J0D01*
G01*
X819415Y354126D02*
G03*
X819415Y354126I-1500J0D01*
G01*
X721302Y379388D02*
Y374056D01*
X725301D01*
Y376722D01*
Y374056D01*
X729299D01*
X721302Y382053D02*
X727966D01*
X729299Y383386D01*
Y386052D01*
X727966Y387385D01*
X721302D01*
X722635Y395382D02*
X721302Y394050D01*
Y391384D01*
X722635Y390051D01*
X723968D01*
X725301Y391384D01*
Y394050D01*
X726633Y395382D01*
X727966D01*
X729299Y394050D01*
Y391384D01*
X727966Y390051D01*
X721302Y403380D02*
Y398048D01*
X729299D01*
Y403380D01*
X725301Y398048D02*
Y400714D01*
X722635Y411377D02*
X721302Y410044D01*
Y407378D01*
X722635Y406046D01*
X723968D01*
X725301Y407378D01*
Y410044D01*
X726633Y411377D01*
X727966D01*
X729299Y410044D01*
Y407378D01*
X727966Y406046D01*
X920121Y372631D02*
X928118D01*
Y377962D01*
X920121Y384627D02*
Y381961D01*
X921454Y380628D01*
X926785D01*
X928118Y381961D01*
Y384627D01*
X926785Y385960D01*
X921454D01*
X920121Y384627D01*
X928118Y388625D02*
X922787D01*
X920121Y391291D01*
X922787Y393957D01*
X928118D01*
X924119D01*
Y388625D01*
X920121Y396623D02*
X928118D01*
Y400621D01*
X926785Y401954D01*
X921454D01*
X920121Y400621D01*
Y396623D01*
Y412617D02*
Y415283D01*
Y413950D01*
X928118D01*
Y412617D01*
Y415283D01*
Y419282D02*
X920121D01*
X928118Y424614D01*
X920121D01*
D12*
X981299Y436024D02*
Y439961D01*
X984252Y442913D01*
X987205D01*
X955709Y436024D02*
Y439961D01*
X952756Y442913D02*
X955709Y439961D01*
X950787Y442913D02*
X952756D01*
X899606Y437008D02*
X899606Y437008D01*
X831335Y391209D02*
X901807D01*
X831335Y352232D02*
Y391209D01*
Y352209D02*
X905835D01*
X901807Y391209D02*
X905835D01*
Y352209D02*
X913524Y359898D01*
X905835Y391209D02*
X913335Y383709D01*
X913524Y383520D01*
Y359898D02*
Y383520D01*
X831386Y443472D02*
X901858D01*
X831386Y404496D02*
Y443472D01*
Y404472D02*
X905886D01*
X901858Y443472D02*
X905886D01*
Y404472D02*
X913575Y412161D01*
X905886Y443472D02*
X913386Y435972D01*
X913575Y435783D01*
Y412161D02*
Y435783D01*
X754860Y574651D02*
X753860Y575651D01*
X751861D01*
X750861Y574651D01*
Y573652D01*
X751861Y572652D01*
X753860D01*
X754860Y571652D01*
Y570652D01*
X753860Y569653D01*
X751861D01*
X750861Y570652D01*
X760858Y575651D02*
X756859D01*
Y569653D01*
X760858D01*
X756859Y572652D02*
X758858D01*
X762857Y575651D02*
X766856D01*
X764856D01*
Y569653D01*
X742864Y565054D02*
X741864Y566053D01*
X739864D01*
X738865Y565054D01*
Y561055D01*
X739864Y560055D01*
X741864D01*
X742864Y561055D01*
X744863Y566053D02*
Y561055D01*
X745862Y560055D01*
X747862D01*
X748862Y561055D01*
Y566053D01*
X750861Y560055D02*
Y566053D01*
X753860D01*
X754860Y565054D01*
Y563054D01*
X753860Y562054D01*
X750861D01*
X752860D02*
X754860Y560055D01*
X756859D02*
Y566053D01*
X759858D01*
X760858Y565054D01*
Y563054D01*
X759858Y562054D01*
X756859D01*
X758858D02*
X760858Y560055D01*
X766856Y566053D02*
X762857D01*
Y560055D01*
X766856D01*
X762857Y563054D02*
X764856D01*
X768855Y560055D02*
Y566053D01*
X772854Y560055D01*
Y566053D01*
X774853D02*
X778852D01*
X776853D01*
Y560055D01*
X840304Y573667D02*
X839305Y574667D01*
X837305D01*
X836306Y573667D01*
Y569668D01*
X837305Y568669D01*
X839305D01*
X840304Y569668D01*
X842304Y574667D02*
Y569668D01*
X843303Y568669D01*
X845303D01*
X846302Y569668D01*
Y574667D01*
X848302Y568669D02*
Y574667D01*
X851301D01*
X852300Y573667D01*
Y571668D01*
X851301Y570668D01*
X848302D01*
X850301D02*
X852300Y568669D01*
X854300D02*
Y574667D01*
X857299D01*
X858299Y573667D01*
Y571668D01*
X857299Y570668D01*
X854300D01*
X856299D02*
X858299Y568669D01*
X864297Y574667D02*
X860298D01*
Y568669D01*
X864297D01*
X860298Y571668D02*
X862297D01*
X866296Y568669D02*
Y574667D01*
X870295Y568669D01*
Y574667D01*
X872294D02*
X876293D01*
X874293D01*
Y568669D01*
X843303Y565069D02*
Y559071D01*
X847302D01*
X849302Y565069D02*
X851301D01*
X850301D01*
Y559071D01*
X849302D01*
X851301D01*
X854300D02*
Y565069D01*
X856299Y563070D01*
X858299Y565069D01*
Y559071D01*
X860298Y565069D02*
X862297D01*
X861298D01*
Y559071D01*
X860298D01*
X862297D01*
X865296Y565069D02*
X869295D01*
X867296D01*
Y559071D01*
X922248Y448082D02*
Y444146D01*
X924216D01*
X924872Y444803D01*
Y447426D01*
X924216Y448082D01*
X922248D01*
X926184D02*
X927496D01*
X926840D01*
Y444146D01*
X926184D01*
X927496D01*
X932088Y447426D02*
X931432Y448082D01*
X930120D01*
X929464Y447426D01*
Y446770D01*
X930120Y446114D01*
X931432D01*
X932088Y445458D01*
Y444803D01*
X931432Y444146D01*
X930120D01*
X929464Y444803D01*
X933399Y444146D02*
Y446770D01*
X934711Y448082D01*
X936023Y446770D01*
Y444146D01*
Y446114D01*
X933399D01*
X937335Y448082D02*
Y444146D01*
X939303D01*
X939959Y444803D01*
Y445458D01*
X939303Y446114D01*
X937335D01*
X939303D01*
X939959Y446770D01*
Y447426D01*
X939303Y448082D01*
X937335D01*
X941271D02*
Y444146D01*
X943895D01*
X947830Y448082D02*
X945207D01*
Y444146D01*
X947830D01*
X945207Y446114D02*
X946519D01*
X928480Y440959D02*
X925856D01*
Y438991D01*
X927168D01*
X925856D01*
Y437024D01*
X929792D02*
Y439647D01*
X931104Y440959D01*
X932415Y439647D01*
Y437024D01*
Y438991D01*
X929792D01*
X933727Y440959D02*
Y437680D01*
X934383Y437024D01*
X935695D01*
X936351Y437680D01*
Y440959D01*
X937663D02*
Y437024D01*
X940287D01*
X941599Y440959D02*
X944223D01*
X942911D01*
Y437024D01*
X934731Y575651D02*
Y571652D01*
X936730Y569653D01*
X938730Y571652D01*
Y575651D01*
X943728D02*
X941729D01*
X940729Y574651D01*
Y570652D01*
X941729Y569653D01*
X943728D01*
X944728Y570652D01*
Y574651D01*
X943728Y575651D01*
X946727D02*
Y569653D01*
X950726D01*
X952725Y575651D02*
X956724D01*
X954724D01*
Y569653D01*
X958723D02*
Y573652D01*
X960723Y575651D01*
X962722Y573652D01*
Y569653D01*
Y572652D01*
X958723D01*
X968720Y574651D02*
X967720Y575651D01*
X965721D01*
X964721Y574651D01*
Y570652D01*
X965721Y569653D01*
X967720D01*
X968720Y570652D01*
Y572652D01*
X966720D01*
X974718Y575651D02*
X970719D01*
Y569653D01*
X974718D01*
X970719Y572652D02*
X972719D01*
X941729Y566053D02*
Y560055D01*
X945727D01*
X947727Y566053D02*
X949726D01*
X948726D01*
Y560055D01*
X947727D01*
X949726D01*
X952725D02*
Y566053D01*
X954724Y564054D01*
X956724Y566053D01*
Y560055D01*
X958723Y566053D02*
X960723D01*
X959723D01*
Y560055D01*
X958723D01*
X960723D01*
X963721Y566053D02*
X967720D01*
X965721D01*
Y560055D01*
X1022260Y575989D02*
X1026258D01*
X1024259D01*
Y569991D01*
X1032256Y575989D02*
X1028258D01*
Y569991D01*
X1032256D01*
X1028258Y572990D02*
X1030257D01*
X1034256Y569991D02*
Y575989D01*
X1036255Y573989D01*
X1038254Y575989D01*
Y569991D01*
X1040254D02*
Y575989D01*
X1043253D01*
X1044252Y574989D01*
Y572990D01*
X1043253Y571990D01*
X1040254D01*
X1050251Y575989D02*
X1046252D01*
Y569991D01*
X1050251D01*
X1046252Y572990D02*
X1048251D01*
X1052250Y569991D02*
Y575989D01*
X1055249D01*
X1056248Y574989D01*
Y572990D01*
X1055249Y571990D01*
X1052250D01*
X1054249D02*
X1056248Y569991D01*
X1058248D02*
Y573989D01*
X1060247Y575989D01*
X1062247Y573989D01*
Y569991D01*
Y572990D01*
X1058248D01*
X1064246Y575989D02*
X1068245D01*
X1066245D01*
Y569991D01*
X1070244Y575989D02*
Y570990D01*
X1071244Y569991D01*
X1073243D01*
X1074243Y570990D01*
Y575989D01*
X1076242Y569991D02*
Y575989D01*
X1079241D01*
X1080241Y574989D01*
Y572990D01*
X1079241Y571990D01*
X1076242D01*
X1078241D02*
X1080241Y569991D01*
X1086239Y575989D02*
X1082240D01*
Y569991D01*
X1086239D01*
X1082240Y572990D02*
X1084239D01*
X1041253Y566391D02*
Y560393D01*
X1045252D01*
X1047251Y566391D02*
X1049251D01*
X1048251D01*
Y560393D01*
X1047251D01*
X1049251D01*
X1052250D02*
Y566391D01*
X1054249Y564392D01*
X1056248Y566391D01*
Y560393D01*
X1058248Y566391D02*
X1060247D01*
X1059248D01*
Y560393D01*
X1058248D01*
X1060247D01*
X1063246Y566391D02*
X1067245D01*
X1065246D01*
Y560393D01*
X991473Y448082D02*
X988849D01*
Y444146D01*
X991473D01*
X988849Y446114D02*
X990161D01*
X992785Y444146D02*
Y448082D01*
X995408Y444146D01*
Y448082D01*
X996720Y444146D02*
Y446770D01*
X998032Y448082D01*
X999344Y446770D01*
Y444146D01*
Y446114D01*
X996720D01*
X1000656Y448082D02*
Y444146D01*
X1002624D01*
X1003280Y444803D01*
Y445458D01*
X1002624Y446114D01*
X1000656D01*
X1002624D01*
X1003280Y446770D01*
Y447426D01*
X1002624Y448082D01*
X1000656D01*
X1004592D02*
Y444146D01*
X1007215D01*
X1011151Y448082D02*
X1008527D01*
Y444146D01*
X1011151D01*
X1008527Y446114D02*
X1009839D01*
X993440Y440959D02*
X990817D01*
Y438991D01*
X992128D01*
X990817D01*
Y437024D01*
X994752D02*
Y439647D01*
X996064Y440959D01*
X997376Y439647D01*
Y437024D01*
Y438991D01*
X994752D01*
X998688Y440959D02*
Y437680D01*
X999344Y437024D01*
X1000656D01*
X1001312Y437680D01*
Y440959D01*
X1002624D02*
Y437024D01*
X1005248D01*
X1006560Y440959D02*
X1009183D01*
X1007872D01*
Y437024D01*
X954936Y784266D02*
X951787D01*
Y779543D01*
X954936D01*
X951787Y781905D02*
X953362D01*
X956510Y784266D02*
Y779543D01*
X959659D01*
X964382Y784266D02*
X961233D01*
Y779543D01*
X964382D01*
X961233Y781905D02*
X962807D01*
X969105Y783479D02*
X968318Y784266D01*
X966743D01*
X965956Y783479D01*
Y780331D01*
X966743Y779543D01*
X968318D01*
X969105Y780331D01*
X970679Y784266D02*
X973827D01*
X972253D01*
Y779543D01*
X975402D02*
Y784266D01*
X977763D01*
X978550Y783479D01*
Y781905D01*
X977763Y781118D01*
X975402D01*
X976976D02*
X978550Y779543D01*
X982486Y784266D02*
X980912D01*
X980125Y783479D01*
Y780331D01*
X980912Y779543D01*
X982486D01*
X983273Y780331D01*
Y783479D01*
X982486Y784266D01*
X984848Y779543D02*
Y784266D01*
X987996Y779543D01*
Y784266D01*
X989570D02*
X991145D01*
X990358D01*
Y779543D01*
X989570D01*
X991145D01*
X996655Y783479D02*
X995868Y784266D01*
X994293D01*
X993506Y783479D01*
Y780331D01*
X994293Y779543D01*
X995868D01*
X996655Y780331D01*
X1002952Y784266D02*
Y779543D01*
X1006100D01*
X1010036Y784266D02*
X1008462D01*
X1007675Y783479D01*
Y780331D01*
X1008462Y779543D01*
X1010036D01*
X1010823Y780331D01*
Y783479D01*
X1010036Y784266D01*
X1012398Y779543D02*
Y782692D01*
X1013972Y784266D01*
X1015546Y782692D01*
Y779543D01*
Y781905D01*
X1012398D01*
X1017121Y784266D02*
Y779543D01*
X1019482D01*
X1020269Y780331D01*
Y783479D01*
X1019482Y784266D01*
X1017121D01*
X715942Y594503D02*
X715351Y595093D01*
X714171D01*
X713580Y594503D01*
Y592141D01*
X714171Y591551D01*
X715351D01*
X715942Y592141D01*
X717123Y595093D02*
Y591551D01*
X719484D01*
X723026Y595093D02*
X720665D01*
Y591551D01*
X723026D01*
X720665Y593322D02*
X721845D01*
X724207Y591551D02*
Y593913D01*
X725387Y595093D01*
X726568Y593913D01*
Y591551D01*
Y593322D01*
X724207D01*
X727749Y591551D02*
Y595093D01*
X729520D01*
X730110Y594503D01*
Y593322D01*
X729520Y592732D01*
X727749D01*
X728930D02*
X730110Y591551D01*
X737195Y595093D02*
X734833D01*
Y593322D01*
X736014D01*
X734833D01*
Y591551D01*
X738375D02*
Y593913D01*
X739556Y595093D01*
X740737Y593913D01*
Y591551D01*
Y593322D01*
X738375D01*
X741918Y595093D02*
Y592141D01*
X742508Y591551D01*
X743689D01*
X744279Y592141D01*
Y595093D01*
X745460D02*
Y591551D01*
X747821D01*
X749002Y595093D02*
X751363D01*
X750183D01*
Y591551D01*
X754906Y594503D02*
X754315Y595093D01*
X753134D01*
X752544Y594503D01*
Y593913D01*
X753134Y593322D01*
X754315D01*
X754906Y592732D01*
Y592141D01*
X754315Y591551D01*
X753134D01*
X752544Y592141D01*
X1049228Y639780D02*
Y643715D01*
X1051196D01*
X1051852Y643059D01*
Y641747D01*
X1051196Y641091D01*
X1049228D01*
X1053164Y639780D02*
Y643715D01*
X1055132D01*
X1055788Y643059D01*
Y641747D01*
X1055132Y641091D01*
X1053164D01*
X1054476D02*
X1055788Y639780D01*
X1059068Y643715D02*
X1057756D01*
X1057100Y643059D01*
Y640436D01*
X1057756Y639780D01*
X1059068D01*
X1059724Y640436D01*
Y643059D01*
X1059068Y643715D01*
X1063659Y643059D02*
X1063003Y643715D01*
X1061691D01*
X1061036Y643059D01*
Y640436D01*
X1061691Y639780D01*
X1063003D01*
X1063659Y640436D01*
Y641747D01*
X1062348D01*
X1064971Y639780D02*
Y643715D01*
X1066939D01*
X1067595Y643059D01*
Y641747D01*
X1066939Y641091D01*
X1064971D01*
X1066283D02*
X1067595Y639780D01*
X1068907D02*
Y642403D01*
X1070219Y643715D01*
X1071531Y642403D01*
Y639780D01*
Y641747D01*
X1068907D01*
X1072843Y639780D02*
Y643715D01*
X1074155Y642403D01*
X1075467Y643715D01*
Y639780D01*
X1051852Y649949D02*
X1051196Y650605D01*
X1049884D01*
X1049228Y649949D01*
Y647325D01*
X1049884Y646669D01*
X1051196D01*
X1051852Y647325D01*
X1053164Y650605D02*
Y647325D01*
X1053820Y646669D01*
X1055132D01*
X1055788Y647325D01*
Y650605D01*
X1057100Y646669D02*
Y650605D01*
X1059068D01*
X1059724Y649949D01*
Y648637D01*
X1059068Y647981D01*
X1057100D01*
X1058412D02*
X1059724Y646669D01*
X1061036D02*
Y650605D01*
X1063003D01*
X1063659Y649949D01*
Y648637D01*
X1063003Y647981D01*
X1061036D01*
X1062348D02*
X1063659Y646669D01*
X1067595Y650605D02*
X1064971D01*
Y646669D01*
X1067595D01*
X1064971Y648637D02*
X1066283D01*
X1068907Y646669D02*
Y650605D01*
X1071531Y646669D01*
Y650605D01*
X1072843D02*
X1075467D01*
X1074155D01*
Y646669D01*
X1023897Y352455D02*
X1020564D01*
Y349956D01*
X1022230D01*
X1020564D01*
Y347457D01*
X1025563Y352455D02*
Y348290D01*
X1026396Y347457D01*
X1028062D01*
X1028895Y348290D01*
Y352455D01*
X1033893Y351622D02*
X1033060Y352455D01*
X1031394D01*
X1030561Y351622D01*
Y350789D01*
X1031394Y349956D01*
X1033060D01*
X1033893Y349123D01*
Y348290D01*
X1033060Y347457D01*
X1031394D01*
X1030561Y348290D01*
X1038892Y352455D02*
X1035559D01*
Y347457D01*
X1038892D01*
X1035559Y349956D02*
X1037226D01*
X1045556Y352455D02*
Y347457D01*
X1048055D01*
X1048888Y348290D01*
Y349123D01*
X1048055Y349956D01*
X1045556D01*
X1048055D01*
X1048888Y350789D01*
Y351622D01*
X1048055Y352455D01*
X1045556D01*
X1050554D02*
Y347457D01*
X1053887D01*
X1058052Y352455D02*
X1056386D01*
X1055553Y351622D01*
Y348290D01*
X1056386Y347457D01*
X1058052D01*
X1058885Y348290D01*
Y351622D01*
X1058052Y352455D01*
X1060551D02*
Y347457D01*
X1062217Y349123D01*
X1063883Y347457D01*
Y352455D01*
X1065550Y347457D02*
Y352455D01*
X1068882Y347457D01*
Y352455D01*
X850334Y398709D02*
Y394710D01*
X852333Y396709D02*
X848335D01*
X894335Y394209D02*
Y398207D01*
X850385Y450972D02*
Y446974D01*
X852384Y448973D02*
X848386D01*
X894386Y446472D02*
Y450471D01*
X1024048Y382967D02*
X1022381D01*
X1021548Y382134D01*
Y378802D01*
X1022381Y377969D01*
X1024048D01*
X1024881Y378802D01*
Y382134D01*
X1024048Y382967D01*
X1026547D02*
Y379635D01*
X1028213Y377969D01*
X1029879Y379635D01*
Y382967D01*
X1034877D02*
X1031545D01*
Y377969D01*
X1034877D01*
X1031545Y380468D02*
X1033211D01*
X1036544Y377969D02*
Y382967D01*
X1039043D01*
X1039876Y382134D01*
Y380468D01*
X1039043Y379635D01*
X1036544D01*
X1038210D02*
X1039876Y377969D01*
X1046540D02*
Y382967D01*
X1049040D01*
X1049873Y382134D01*
Y380468D01*
X1049040Y379635D01*
X1046540D01*
X1054038Y382967D02*
X1052372D01*
X1051539Y382134D01*
Y378802D01*
X1052372Y377969D01*
X1054038D01*
X1054871Y378802D01*
Y382134D01*
X1054038Y382967D01*
X1056537D02*
Y377969D01*
X1058203Y379635D01*
X1059869Y377969D01*
Y382967D01*
X1064868D02*
X1061535D01*
Y377969D01*
X1064868D01*
X1061535Y380468D02*
X1063202D01*
X1066534Y377969D02*
Y382967D01*
X1069033D01*
X1069866Y382134D01*
Y380468D01*
X1069033Y379635D01*
X1066534D01*
X1068200D02*
X1069866Y377969D01*
X1002388Y368203D02*
X1005720D01*
X1004054D01*
Y363205D01*
X1007386Y368203D02*
Y363205D01*
Y365704D01*
X1010719D01*
Y368203D01*
Y363205D01*
X1015717Y368203D02*
X1012385D01*
Y363205D01*
X1015717D01*
X1012385Y365704D02*
X1014051D01*
X1017383Y363205D02*
Y368203D01*
X1019882D01*
X1020715Y367370D01*
Y365704D01*
X1019882Y364871D01*
X1017383D01*
X1019049D02*
X1020715Y363205D01*
X1022381D02*
Y368203D01*
X1024048Y366537D01*
X1025714Y368203D01*
Y363205D01*
X1027380D02*
Y366537D01*
X1029046Y368203D01*
X1030712Y366537D01*
Y363205D01*
Y365704D01*
X1027380D01*
X1032378Y368203D02*
Y363205D01*
X1035711D01*
X1045707Y367370D02*
X1044874Y368203D01*
X1043208D01*
X1042375Y367370D01*
Y366537D01*
X1043208Y365704D01*
X1044874D01*
X1045707Y364871D01*
Y364038D01*
X1044874Y363205D01*
X1043208D01*
X1042375Y364038D01*
X1047373Y368203D02*
Y363205D01*
X1049040Y364871D01*
X1050706Y363205D01*
Y368203D01*
X1052372D02*
X1054038D01*
X1053205D01*
Y363205D01*
X1052372D01*
X1054038D01*
X1056537Y368203D02*
X1059869D01*
X1058203D01*
Y363205D01*
X1064868Y367370D02*
X1064035Y368203D01*
X1062369D01*
X1061535Y367370D01*
Y364038D01*
X1062369Y363205D01*
X1064035D01*
X1064868Y364038D01*
X1066534Y368203D02*
Y363205D01*
Y365704D01*
X1069866D01*
Y368203D01*
Y363205D01*
X1015035Y398715D02*
X1013369D01*
X1012536Y397882D01*
Y394550D01*
X1013369Y393717D01*
X1015035D01*
X1015868Y394550D01*
Y397882D01*
X1015035Y398715D01*
X1017534D02*
Y395383D01*
X1019201Y393717D01*
X1020867Y395383D01*
Y398715D01*
X1025865D02*
X1022533D01*
Y393717D01*
X1025865D01*
X1022533Y396216D02*
X1024199D01*
X1027531Y393717D02*
Y398715D01*
X1030030D01*
X1030863Y397882D01*
Y396216D01*
X1030030Y395383D01*
X1027531D01*
X1029197D02*
X1030863Y393717D01*
X1040860Y397882D02*
X1040027Y398715D01*
X1038361D01*
X1037528Y397882D01*
Y394550D01*
X1038361Y393717D01*
X1040027D01*
X1040860Y394550D01*
X1042526Y398715D02*
Y394550D01*
X1043359Y393717D01*
X1045025D01*
X1045858Y394550D01*
Y398715D01*
X1047525Y393717D02*
Y398715D01*
X1050024D01*
X1050857Y397882D01*
Y396216D01*
X1050024Y395383D01*
X1047525D01*
X1049191D02*
X1050857Y393717D01*
X1052523D02*
Y398715D01*
X1055022D01*
X1055855Y397882D01*
Y396216D01*
X1055022Y395383D01*
X1052523D01*
X1054189D02*
X1055855Y393717D01*
X1060854Y398715D02*
X1057521D01*
Y393717D01*
X1060854D01*
X1057521Y396216D02*
X1059188D01*
X1062520Y393717D02*
Y398715D01*
X1065852Y393717D01*
Y398715D01*
X1067518D02*
X1070850D01*
X1069184D01*
Y393717D01*
X1015035Y413479D02*
X1013369D01*
X1012536Y412646D01*
Y409313D01*
X1013369Y408480D01*
X1015035D01*
X1015868Y409313D01*
Y412646D01*
X1015035Y413479D01*
X1017534D02*
Y410146D01*
X1019201Y408480D01*
X1020867Y410146D01*
Y413479D01*
X1025865D02*
X1022533D01*
Y408480D01*
X1025865D01*
X1022533Y410980D02*
X1024199D01*
X1027531Y408480D02*
Y413479D01*
X1030030D01*
X1030863Y412646D01*
Y410980D01*
X1030030Y410146D01*
X1027531D01*
X1029197D02*
X1030863Y408480D01*
X1037528Y413479D02*
Y410146D01*
X1039194Y408480D01*
X1040860Y410146D01*
Y413479D01*
X1045025D02*
X1043359D01*
X1042526Y412646D01*
Y409313D01*
X1043359Y408480D01*
X1045025D01*
X1045858Y409313D01*
Y412646D01*
X1045025Y413479D01*
X1047525D02*
Y408480D01*
X1050857D01*
X1052523Y413479D02*
X1055855D01*
X1054189D01*
Y408480D01*
X1057521D02*
Y411813D01*
X1059188Y413479D01*
X1060854Y411813D01*
Y408480D01*
Y410980D01*
X1057521D01*
X1065852Y412646D02*
X1065019Y413479D01*
X1063353D01*
X1062520Y412646D01*
Y409313D01*
X1063353Y408480D01*
X1065019D01*
X1065852Y409313D01*
Y410980D01*
X1064186D01*
X1070850Y413479D02*
X1067518D01*
Y408480D01*
X1070850D01*
X1067518Y410980D02*
X1069184D01*
X1028364Y428242D02*
Y423244D01*
Y425743D01*
X1031696D01*
Y428242D01*
Y423244D01*
X1036695Y427409D02*
X1035862Y428242D01*
X1034196D01*
X1033362Y427409D01*
Y426576D01*
X1034196Y425743D01*
X1035862D01*
X1036695Y424910D01*
Y424077D01*
X1035862Y423244D01*
X1034196D01*
X1033362Y424077D01*
X1043359Y423244D02*
X1045025D01*
X1044192D01*
Y428242D01*
X1043359Y427409D01*
X1052523Y428242D02*
X1055855D01*
X1054189D01*
Y423244D01*
X1060854Y428242D02*
X1057521D01*
Y423244D01*
X1060854D01*
X1057521Y425743D02*
X1059188D01*
X1062520Y423244D02*
Y428242D01*
X1064186Y426576D01*
X1065852Y428242D01*
Y423244D01*
X1067518D02*
Y428242D01*
X1070017D01*
X1070850Y427409D01*
Y425743D01*
X1070017Y424910D01*
X1067518D01*
X1027531Y443991D02*
Y438992D01*
Y441491D01*
X1030863D01*
Y443991D01*
Y438992D01*
X1035862Y443157D02*
X1035029Y443991D01*
X1033362D01*
X1032530Y443157D01*
Y442324D01*
X1033362Y441491D01*
X1035029D01*
X1035862Y440658D01*
Y439825D01*
X1035029Y438992D01*
X1033362D01*
X1032530Y439825D01*
X1045858Y438992D02*
X1042526D01*
X1045858Y442324D01*
Y443157D01*
X1045025Y443991D01*
X1043359D01*
X1042526Y443157D01*
X1052523Y443991D02*
X1055855D01*
X1054189D01*
Y438992D01*
X1060854Y443991D02*
X1057521D01*
Y438992D01*
X1060854D01*
X1057521Y441491D02*
X1059188D01*
X1062520Y438992D02*
Y443991D01*
X1064186Y442324D01*
X1065852Y443991D01*
Y438992D01*
X1067518D02*
Y443991D01*
X1070017D01*
X1070850Y443157D01*
Y441491D01*
X1070017Y440658D01*
X1067518D01*
D13*
X1046417Y625610D02*
X1077598D01*
X1046417D02*
Y636201D01*
X1077598D01*
Y625610D02*
Y636201D01*
X1037402Y613642D02*
X1059055D01*
Y596988D02*
Y613642D01*
X1037402Y596988D02*
X1059055D01*
X1037402Y596988D02*
Y613642D01*
X1062992D02*
X1084646D01*
Y596988D02*
Y613642D01*
X1062992Y596988D02*
X1084646D01*
X1062992Y596988D02*
Y613642D01*
X986594Y363032D02*
Y434213D01*
X976004Y363032D02*
X986594D01*
X976004D02*
Y434213D01*
X986594D01*
X973755Y363066D02*
Y434247D01*
X963164Y363066D02*
X973755D01*
X963164D02*
Y434247D01*
X973755D01*
X960960Y363066D02*
Y434247D01*
X950369Y363066D02*
X960960D01*
X950369D02*
Y434247D01*
X960960D01*
X1077362Y438484D02*
X1084055D01*
X1077362Y445374D02*
X1084055D01*
X1077362Y361713D02*
X1084055D01*
X1077362Y368602D02*
X1084055D01*
X1077362Y393209D02*
X1084055D01*
X1077362Y400098D02*
X1084055D01*
X1077362Y346949D02*
X1084055D01*
X1077362Y353839D02*
X1084055D01*
X1077362Y377461D02*
X1084055D01*
X1077362Y384350D02*
X1084055D01*
X1077362Y407972D02*
X1084055D01*
X1077362Y414862D02*
X1084055D01*
X1077362Y422736D02*
X1084055D01*
X1077362Y429626D02*
X1084055D01*
X1004395Y756693D02*
X1001772D01*
X1004395Y759317D01*
Y759973D01*
X1003739Y760629D01*
X1002428D01*
X1001772Y759973D01*
X1005707Y756693D02*
Y757349D01*
X1006363D01*
Y756693D01*
X1005707D01*
X1011611Y760629D02*
X1008987D01*
Y758661D01*
X1010299Y759317D01*
X1010955D01*
X1011611Y758661D01*
Y757349D01*
X1010955Y756693D01*
X1009643D01*
X1008987Y757349D01*
X1012923Y756693D02*
Y760629D01*
Y758005D02*
X1014891Y759317D01*
X1012923Y758005D02*
X1014891Y756693D01*
X1016859Y760629D02*
Y756693D01*
X1018171Y758005D01*
X1019483Y756693D01*
Y760629D01*
X1005709Y763583D02*
X1007021D01*
X1006365D01*
Y767518D01*
X1005709Y766862D01*
X1008988D02*
X1009644Y767518D01*
X1010956D01*
X1011612Y766862D01*
Y764239D01*
X1010956Y763583D01*
X1009644D01*
X1008988Y764239D01*
Y766862D01*
X1012924D02*
X1013580Y767518D01*
X1014892D01*
X1015548Y766862D01*
Y764239D01*
X1014892Y763583D01*
X1013580D01*
X1012924Y764239D01*
Y766862D01*
X1016860Y767518D02*
Y764895D01*
X1018172Y763583D01*
X1019484Y764895D01*
Y767518D01*
X989961Y770472D02*
Y774408D01*
X991273Y773096D01*
X992584Y774408D01*
Y770472D01*
X994552Y773096D02*
X995864D01*
X996520Y772440D01*
Y770472D01*
X994552D01*
X993896Y771128D01*
X994552Y771784D01*
X996520D01*
X997832Y773096D02*
X1000456Y770472D01*
X999144Y771784D01*
X1000456Y773096D01*
X997832Y770472D01*
X1005704D02*
X1007016D01*
X1006359D01*
Y774408D01*
X1005704Y773752D01*
X1011607Y774408D02*
X1008983D01*
Y772440D01*
X1010295Y773096D01*
X1010951D01*
X1011607Y772440D01*
Y771128D01*
X1010951Y770472D01*
X1009639D01*
X1008983Y771128D01*
X1012919Y773752D02*
X1013575Y774408D01*
X1014887D01*
X1015543Y773752D01*
Y771128D01*
X1014887Y770472D01*
X1013575D01*
X1012919Y771128D01*
Y773752D01*
X1016855Y770472D02*
Y773096D01*
X1018167Y774408D01*
X1019479Y773096D01*
Y770472D01*
Y772440D01*
X1016855D01*
D14*
X815415Y421578D02*
Y449578D01*
X735915Y421578D02*
X815415D01*
X735915D02*
Y449578D01*
X815415D01*
X815415Y384232D02*
Y412232D01*
X735915Y384232D02*
X815415D01*
X735915D02*
Y412232D01*
X815415D01*
X815415Y346626D02*
Y374626D01*
X735915Y346626D02*
X815415D01*
X735915D02*
Y374626D01*
X815415D01*
D15*
X719272Y671850D02*
Y677848D01*
X722271D01*
X723271Y676849D01*
Y674849D01*
X722271Y673850D01*
X719272D01*
X728269Y677848D02*
X726270D01*
X725270Y676849D01*
Y672850D01*
X726270Y671850D01*
X728269D01*
X729269Y672850D01*
Y676849D01*
X728269Y677848D01*
X731268D02*
Y671850D01*
X733268Y673850D01*
X735267Y671850D01*
Y677848D01*
X741265D02*
X737266D01*
Y671850D01*
X741265D01*
X737266Y674849D02*
X739266D01*
X743264Y671850D02*
Y677848D01*
X746264D01*
X747263Y676849D01*
Y674849D01*
X746264Y673850D01*
X743264D01*
X745264D02*
X747263Y671850D01*
X1058146Y677753D02*
Y669882D01*
X1063393D01*
X1069953Y677753D02*
X1067329D01*
X1066017Y676441D01*
Y671194D01*
X1067329Y669882D01*
X1069953D01*
X1071265Y671194D01*
Y676441D01*
X1069953Y677753D01*
X1073889Y669882D02*
Y675130D01*
X1076513Y677753D01*
X1079136Y675130D01*
Y669882D01*
Y673818D01*
X1073889D01*
X1081760Y677753D02*
Y669882D01*
X1085696D01*
X1087008Y671194D01*
Y676441D01*
X1085696Y677753D01*
X1081760D01*
D16*
X1039764Y588976D02*
X1040420D01*
X1040092D01*
Y590944D01*
X1039764Y590616D01*
X1041404D02*
X1041732Y590944D01*
X1042388D01*
X1042716Y590616D01*
Y589304D01*
X1042388Y588976D01*
X1041732D01*
X1041404Y589304D01*
Y590616D01*
X1043371Y588976D02*
Y590288D01*
X1043699D01*
X1044028Y589960D01*
Y588976D01*
Y589960D01*
X1044355Y590288D01*
X1044683Y589960D01*
Y588976D01*
X1045339Y590944D02*
Y589632D01*
X1045995Y588976D01*
X1046651Y589632D01*
Y590944D01*
X1049275Y589632D02*
X1050587D01*
X1049275Y590288D02*
X1050587D01*
X1053211Y588976D02*
X1053867D01*
X1053539D01*
Y590944D01*
X1053211Y590616D01*
X1054851Y588976D02*
Y590288D01*
X1055507Y590944D01*
X1056163Y590288D01*
Y588976D01*
Y589960D01*
X1054851D01*
X1071587Y594553D02*
X1071259Y594881D01*
X1070604D01*
X1070276Y594553D01*
Y593241D01*
X1070604Y592913D01*
X1071259D01*
X1071587Y593241D01*
Y593897D01*
X1070932D01*
X1072243Y592913D02*
Y594881D01*
X1073555Y592913D01*
Y594881D01*
X1074211D02*
Y592913D01*
X1075195D01*
X1075523Y593241D01*
Y594553D01*
X1075195Y594881D01*
X1074211D01*
X1039764Y592913D02*
Y594225D01*
X1040420Y594881D01*
X1041076Y594225D01*
Y592913D01*
Y593897D01*
X1039764D01*
X1041732Y592913D02*
Y594881D01*
X1043044Y592913D01*
Y594881D01*
X1043699Y592913D02*
Y594225D01*
X1044355Y594881D01*
X1045011Y594225D01*
Y592913D01*
Y593897D01*
X1043699D01*
X1045667Y594881D02*
Y592913D01*
X1046979D01*
X1048619Y594881D02*
X1047963D01*
X1047635Y594553D01*
Y593241D01*
X1047963Y592913D01*
X1048619D01*
X1048947Y593241D01*
Y594553D01*
X1048619Y594881D01*
X1050915Y594553D02*
X1050587Y594881D01*
X1049931D01*
X1049603Y594553D01*
Y593241D01*
X1049931Y592913D01*
X1050587D01*
X1050915Y593241D01*
Y593897D01*
X1050259D01*
X1053539Y594881D02*
X1054195D01*
X1053867D01*
Y592913D01*
X1053539D01*
X1054195D01*
X1055179D02*
Y594881D01*
X1056491Y592913D01*
Y594881D01*
X1069291Y623424D02*
Y621457D01*
Y622113D01*
X1070603Y623424D01*
X1069619Y622441D01*
X1070603Y621457D01*
X1071259D02*
Y623424D01*
X1072571Y621457D01*
Y623424D01*
X1074211D02*
X1073555D01*
X1073227Y623097D01*
Y621785D01*
X1073555Y621457D01*
X1074211D01*
X1074539Y621785D01*
Y623097D01*
X1074211Y623424D01*
X1075195D02*
Y621457D01*
X1076179D01*
X1076507Y621785D01*
Y622113D01*
X1076179Y622441D01*
X1075195D01*
X1076179D01*
X1076507Y622769D01*
Y623097D01*
X1076179Y623424D01*
X1075195D01*
X1045669Y621457D02*
Y622769D01*
X1046325Y623424D01*
X1046981Y622769D01*
Y621457D01*
Y622441D01*
X1045669D01*
X1047637Y621457D02*
Y623424D01*
X1048949Y621457D01*
Y623424D01*
X1049605Y621457D02*
Y622769D01*
X1050261Y623424D01*
X1050917Y622769D01*
Y621457D01*
Y622441D01*
X1049605D01*
X1051573Y623424D02*
Y621457D01*
X1052885D01*
X1054525Y623424D02*
X1053869D01*
X1053541Y623097D01*
Y621785D01*
X1053869Y621457D01*
X1054525D01*
X1054853Y621785D01*
Y623097D01*
X1054525Y623424D01*
X1056820Y623097D02*
X1056493Y623424D01*
X1055837D01*
X1055509Y623097D01*
Y621785D01*
X1055837Y621457D01*
X1056493D01*
X1056820Y621785D01*
Y622441D01*
X1056164D01*
M02*
