M48
;Layer_Color=9474304
;FILE_FORMAT=2:4
INCH,TZ
;TYPE=PLATED
T01F00S00C0.0280
T02F00S00C0.0315
T03F00S00C0.0394
T04F00S00C0.0433
T05F00S00C0.0437
T06F00S00C0.0528
T07F00S00C0.0669
T08F00S00C0.2421
%
T01
X118800Y36100
X119700
X121600Y34100
X116200Y40000
X145600Y37900
X147200Y34400
X148975Y34549
X141300Y32750
X183275Y34649
X188175Y34749
X189300Y54500
X184100Y55500
X175410Y56546
X149600Y57800
X147975Y57249
X144500Y57500
X144000Y60500
X143000Y54600
X143500Y54100
X133700Y58100
X133435Y59456
X131500Y59500
X125900Y54200
X122971Y54177
X121200Y56200
X119800Y56800
X116700Y56700
X117300Y62300
X121500Y61500
X121700Y58400
X114200Y51600
X108171Y57234
X107271
X107171Y62734
X108071
X117800Y63000
X131800
T02
X119697Y58500
X124500
Y63224
X119697
T03
X185000Y37500
X184000
X183000
X183022Y52590
X184022
X185022
X149000Y52500
X148000
X147000
T04
X110200Y37900
Y38900
Y39900
Y40900
Y41900
Y45400
Y46400
X116840Y46789
Y45789
X117200Y39100
Y38100
X116700Y35100
Y34100
X115200
Y35100
X110200Y47400
Y48400
Y49400
Y52500
Y53500
Y54500
Y55500
Y56500
T05
X189545Y37500
X187545
X189460Y52577
X187460
T06
X118909Y60862
T07
X119200Y37722
Y39911
Y42100
Y45600
X154311Y37140
X156500
X158689
X176356Y37494
X178545
X180734
X180707Y52594
X178518
X176329
X158878Y52500
X156689
X154500
X119200Y49978
Y47789
T08
X124000Y35569
Y39900
M30
