G04*
G04 #@! TF.GenerationSoftware,Altium Limited,Altium Designer,24.1.2 (44)*
G04*
G04 Layer_Physical_Order=2*
G04 Layer_Color=16711680*
%FSLAX25Y25*%
%MOIN*%
G70*
G04*
G04 #@! TF.SameCoordinates,DAD59E85-0841-476F-99BD-E5F442491B29*
G04*
G04*
G04 #@! TF.FilePolarity,Positive*
G04*
G01*
G75*
%ADD15C,0.01000*%
%ADD40C,0.10236*%
%ADD41R,0.10236X0.10236*%
%ADD45R,0.10236X0.10236*%
%ADD54C,0.01500*%
%ADD55C,0.02000*%
%ADD56C,0.20000*%
%ADD60C,0.35000*%
%ADD61R,0.06299X0.06299*%
%ADD62C,0.06299*%
%ADD63R,0.06299X0.06299*%
%ADD64C,0.06299*%
%ADD65C,0.06555*%
%ADD66R,0.06555X0.06555*%
G04:AMPARAMS|DCode=67|XSize=62.99mil|YSize=62.99mil|CornerRadius=15.75mil|HoleSize=0mil|Usage=FLASHONLY|Rotation=90.000|XOffset=0mil|YOffset=0mil|HoleType=Round|Shape=RoundedRectangle|*
%AMROUNDEDRECTD67*
21,1,0.06299,0.03150,0,0,90.0*
21,1,0.03150,0.06299,0,0,90.0*
1,1,0.03150,0.01575,0.01575*
1,1,0.03150,0.01575,-0.01575*
1,1,0.03150,-0.01575,-0.01575*
1,1,0.03150,-0.01575,0.01575*
%
%ADD67ROUNDEDRECTD67*%
%ADD68C,0.07244*%
%ADD69C,0.05118*%
%ADD70C,0.05000*%
%ADD71C,1.20000*%
%ADD72C,0.45000*%
G36*
X1918000Y307000D02*
X1059000D01*
Y649000D01*
X1918000D01*
Y307000D01*
D02*
G37*
%LPC*%
G36*
X1245000Y635834D02*
X1244071Y635711D01*
X1243205Y635353D01*
X1242462Y634782D01*
X1241891Y634039D01*
X1241533Y633173D01*
X1241410Y632244D01*
X1241533Y631315D01*
X1241891Y630449D01*
X1242107Y630168D01*
X1241886Y629719D01*
X1202017D01*
X1200432Y631304D01*
X1200436Y631315D01*
X1200558Y632244D01*
X1200436Y633173D01*
X1200077Y634039D01*
X1199507Y634782D01*
X1198763Y635353D01*
X1197898Y635711D01*
X1196968Y635834D01*
X1196039Y635711D01*
X1195174Y635353D01*
X1194430Y634782D01*
X1193860Y634039D01*
X1193501Y633173D01*
X1193379Y632244D01*
X1193501Y631315D01*
X1193860Y630449D01*
X1194430Y629706D01*
X1195174Y629135D01*
X1196039Y628777D01*
X1196968Y628654D01*
X1197898Y628777D01*
X1197908Y628781D01*
X1200016Y626673D01*
X1200595Y626287D01*
X1201278Y626151D01*
X1246785D01*
X1247468Y626287D01*
X1248047Y626673D01*
X1249589Y628216D01*
X1314958D01*
X1315504Y627504D01*
X1316235Y626943D01*
X1317086Y626590D01*
X1318000Y626470D01*
X1318914Y626590D01*
X1319765Y626943D01*
X1320496Y627504D01*
X1321043Y628216D01*
X1446261D01*
X1493533Y580943D01*
X1493504Y580496D01*
X1492943Y579765D01*
X1492590Y578914D01*
X1492470Y578000D01*
X1492590Y577086D01*
X1492943Y576235D01*
X1493504Y575504D01*
X1494235Y574943D01*
X1495086Y574590D01*
X1496000Y574470D01*
X1496914Y574590D01*
X1497765Y574943D01*
X1498496Y575504D01*
X1499057Y576235D01*
X1499410Y577086D01*
X1499530Y578000D01*
X1499410Y578914D01*
X1499057Y579765D01*
X1498496Y580496D01*
X1497765Y581057D01*
X1497425Y581198D01*
Y581359D01*
X1497290Y582042D01*
X1496903Y582620D01*
X1448262Y631262D01*
X1447683Y631648D01*
X1447000Y631784D01*
X1321043D01*
X1320496Y632496D01*
X1319765Y633057D01*
X1318914Y633410D01*
X1318000Y633530D01*
X1317086Y633410D01*
X1316235Y633057D01*
X1315504Y632496D01*
X1314958Y631784D01*
X1249034D01*
X1248580Y632173D01*
X1248590Y632244D01*
X1248467Y633173D01*
X1248109Y634039D01*
X1247538Y634782D01*
X1246795Y635353D01*
X1245929Y635711D01*
X1245000Y635834D01*
D02*
G37*
G36*
X1440000Y608530D02*
X1439086Y608410D01*
X1438235Y608057D01*
X1437504Y607496D01*
X1436957Y606784D01*
X1325000D01*
X1325000Y606784D01*
X1324317Y606648D01*
X1323738Y606262D01*
X1323738Y606262D01*
X1315890Y598413D01*
X1315000Y598530D01*
X1314086Y598410D01*
X1313235Y598057D01*
X1312504Y597496D01*
X1311943Y596765D01*
X1311590Y595914D01*
X1311470Y595000D01*
X1311590Y594086D01*
X1311943Y593235D01*
X1312504Y592504D01*
X1313235Y591943D01*
X1314086Y591590D01*
X1315000Y591470D01*
X1315914Y591590D01*
X1316765Y591943D01*
X1317496Y592504D01*
X1318057Y593235D01*
X1318410Y594086D01*
X1318530Y595000D01*
X1318413Y595890D01*
X1325739Y603216D01*
X1436957D01*
X1437504Y602504D01*
X1438235Y601943D01*
X1439086Y601590D01*
X1440000Y601470D01*
X1440914Y601590D01*
X1441765Y601943D01*
X1442496Y602504D01*
X1443057Y603235D01*
X1443410Y604086D01*
X1443530Y605000D01*
X1443410Y605914D01*
X1443057Y606765D01*
X1442496Y607496D01*
X1441765Y608057D01*
X1440914Y608410D01*
X1440000Y608530D01*
D02*
G37*
G36*
X1215000Y618530D02*
X1214086Y618410D01*
X1213235Y618057D01*
X1212504Y617496D01*
X1211943Y616765D01*
X1211590Y615914D01*
X1211470Y615000D01*
X1211590Y614086D01*
X1211943Y613235D01*
X1212504Y612504D01*
X1213235Y611943D01*
X1214086Y611590D01*
X1215000Y611470D01*
X1215890Y611587D01*
X1241537Y585940D01*
X1241533Y585929D01*
X1241410Y585000D01*
X1241533Y584071D01*
X1241891Y583205D01*
X1242462Y582462D01*
X1243205Y581891D01*
X1244071Y581533D01*
X1245000Y581410D01*
X1245929Y581533D01*
X1246795Y581891D01*
X1247538Y582462D01*
X1248109Y583205D01*
X1248467Y584071D01*
X1248590Y585000D01*
X1248467Y585929D01*
X1248109Y586795D01*
X1247538Y587538D01*
X1246795Y588109D01*
X1245929Y588467D01*
X1245000Y588590D01*
X1244071Y588467D01*
X1244060Y588463D01*
X1218413Y614110D01*
X1218530Y615000D01*
X1218410Y615914D01*
X1218057Y616765D01*
X1217496Y617496D01*
X1216765Y618057D01*
X1215914Y618410D01*
X1215000Y618530D01*
D02*
G37*
G36*
X1198000Y571530D02*
X1197086Y571410D01*
X1196235Y571057D01*
X1195504Y570496D01*
X1194943Y569765D01*
X1194642Y569039D01*
X1169847D01*
X1169496Y569496D01*
X1168765Y570057D01*
X1167914Y570410D01*
X1167000Y570530D01*
X1166086Y570410D01*
X1165235Y570057D01*
X1164504Y569496D01*
X1163943Y568765D01*
X1163590Y567914D01*
X1163470Y567000D01*
X1163590Y566086D01*
X1163943Y565235D01*
X1164504Y564504D01*
X1165235Y563943D01*
X1166086Y563590D01*
X1167000Y563470D01*
X1167914Y563590D01*
X1168765Y563943D01*
X1169496Y564504D01*
X1169847Y564961D01*
X1196211D01*
X1196235Y564943D01*
X1197086Y564590D01*
X1198000Y564470D01*
X1198914Y564590D01*
X1199765Y564943D01*
X1200496Y565504D01*
X1201057Y566235D01*
X1201410Y567086D01*
X1201530Y568000D01*
X1201410Y568914D01*
X1201057Y569765D01*
X1200496Y570496D01*
X1199765Y571057D01*
X1198914Y571410D01*
X1198000Y571530D01*
D02*
G37*
G36*
X1102000Y559185D02*
X1100917Y559043D01*
X1099907Y558625D01*
X1099041Y557960D01*
X1098375Y557093D01*
X1097957Y556083D01*
X1097815Y555000D01*
X1097957Y553917D01*
X1098375Y552907D01*
X1099041Y552040D01*
X1099907Y551375D01*
X1100917Y550957D01*
X1102000Y550815D01*
X1103083Y550957D01*
X1104093Y551375D01*
X1104959Y552040D01*
X1105625Y552907D01*
X1106043Y553917D01*
X1106185Y555000D01*
X1106043Y556083D01*
X1105625Y557093D01*
X1104959Y557960D01*
X1104093Y558625D01*
X1103083Y559043D01*
X1102000Y559185D01*
D02*
G37*
G36*
X1259000Y545530D02*
X1258086Y545410D01*
X1257235Y545057D01*
X1256504Y544496D01*
X1255943Y543765D01*
X1255748Y543296D01*
X1232870D01*
X1232772Y543532D01*
X1232211Y544263D01*
X1231480Y544824D01*
X1230628Y545176D01*
X1229715Y545297D01*
X1228801Y545176D01*
X1227950Y544824D01*
X1227219Y544263D01*
X1226658Y543532D01*
X1226305Y542680D01*
X1226185Y541766D01*
X1226305Y540853D01*
X1226658Y540001D01*
X1227219Y539270D01*
X1227950Y538709D01*
X1228801Y538356D01*
X1229715Y538236D01*
X1230628Y538356D01*
X1231480Y538709D01*
X1232211Y539270D01*
X1232772Y540001D01*
X1232870Y540237D01*
X1255942D01*
X1255943Y540235D01*
X1256504Y539504D01*
X1257235Y538943D01*
X1258086Y538590D01*
X1259000Y538470D01*
X1259914Y538590D01*
X1260765Y538943D01*
X1261496Y539504D01*
X1262057Y540235D01*
X1262410Y541086D01*
X1262530Y542000D01*
X1262410Y542914D01*
X1262057Y543765D01*
X1261496Y544496D01*
X1260765Y545057D01*
X1259914Y545410D01*
X1259000Y545530D01*
D02*
G37*
G36*
X1178000Y633530D02*
X1177086Y633410D01*
X1176235Y633057D01*
X1175504Y632496D01*
X1174943Y631765D01*
X1174590Y630914D01*
X1174470Y630000D01*
X1174590Y629086D01*
X1174943Y628235D01*
X1175504Y627504D01*
X1176216Y626958D01*
Y592000D01*
X1176352Y591317D01*
X1176738Y590738D01*
X1183738Y583738D01*
X1183738Y583738D01*
X1184317Y583352D01*
X1185000Y583216D01*
X1193855D01*
X1193860Y583205D01*
X1194430Y582462D01*
X1195174Y581891D01*
X1196039Y581533D01*
X1196088Y581526D01*
X1196304Y580994D01*
X1196138Y580784D01*
X1146000D01*
X1146000Y580784D01*
X1145317Y580649D01*
X1144738Y580262D01*
X1144738Y580262D01*
X1103392Y538915D01*
X1103083Y539043D01*
X1102000Y539185D01*
X1100917Y539043D01*
X1099907Y538625D01*
X1099041Y537959D01*
X1098375Y537093D01*
X1097957Y536083D01*
X1097815Y535000D01*
X1097957Y533917D01*
X1098375Y532907D01*
X1099041Y532041D01*
X1099907Y531375D01*
X1100917Y530957D01*
X1102000Y530815D01*
X1103083Y530957D01*
X1104093Y531375D01*
X1104959Y532041D01*
X1105625Y532907D01*
X1106043Y533917D01*
X1106185Y535000D01*
X1106043Y536083D01*
X1105915Y536392D01*
X1146739Y577216D01*
X1196043D01*
X1196234Y576754D01*
X1195519Y576039D01*
X1160000D01*
X1160000Y576039D01*
X1159220Y575884D01*
X1158558Y575442D01*
X1128558Y545442D01*
X1128116Y544780D01*
X1127961Y544000D01*
Y475845D01*
X1118155Y466039D01*
X1105647D01*
X1105625Y466093D01*
X1104959Y466959D01*
X1104093Y467625D01*
X1103083Y468043D01*
X1102000Y468185D01*
X1100917Y468043D01*
X1099907Y467625D01*
X1099041Y466959D01*
X1098375Y466093D01*
X1097957Y465083D01*
X1097815Y464000D01*
X1097957Y462917D01*
X1098375Y461907D01*
X1099041Y461040D01*
X1099907Y460375D01*
X1100917Y459957D01*
X1102000Y459815D01*
X1103083Y459957D01*
X1104093Y460375D01*
X1104959Y461040D01*
X1105625Y461907D01*
X1105647Y461961D01*
X1119000D01*
X1119780Y462116D01*
X1120442Y462558D01*
X1131442Y473558D01*
X1131884Y474220D01*
X1132039Y475000D01*
Y543155D01*
X1160845Y571961D01*
X1196364D01*
X1197144Y572116D01*
X1197806Y572558D01*
X1207442Y582194D01*
X1207884Y582856D01*
X1208039Y583636D01*
Y591716D01*
X1207884Y592497D01*
X1207442Y593158D01*
X1193477Y607124D01*
X1193598Y607415D01*
X1193756Y608622D01*
X1193598Y609829D01*
X1193132Y610953D01*
X1192391Y611918D01*
X1191425Y612659D01*
X1190301Y613125D01*
X1189095Y613284D01*
X1187888Y613125D01*
X1186979Y612749D01*
X1186696Y613173D01*
X1188739Y615216D01*
X1198261D01*
X1267216Y546261D01*
Y508864D01*
X1210488Y452137D01*
X1210102Y451558D01*
X1209966Y450875D01*
Y339240D01*
X1210102Y338557D01*
X1210488Y337978D01*
X1223220Y325246D01*
X1223029Y324784D01*
X1145739D01*
X1095284Y375239D01*
Y389761D01*
X1100608Y395085D01*
X1100917Y394957D01*
X1102000Y394815D01*
X1103083Y394957D01*
X1104093Y395375D01*
X1104959Y396041D01*
X1105625Y396907D01*
X1106043Y397917D01*
X1106185Y399000D01*
X1106043Y400083D01*
X1105625Y401093D01*
X1104959Y401960D01*
X1104093Y402625D01*
X1103083Y403043D01*
X1102000Y403185D01*
X1100917Y403043D01*
X1099907Y402625D01*
X1099041Y401960D01*
X1098375Y401093D01*
X1097957Y400083D01*
X1097815Y399000D01*
X1097957Y397917D01*
X1098085Y397608D01*
X1093246Y392770D01*
X1092784Y392961D01*
Y442261D01*
X1100360Y449837D01*
X1100425Y449828D01*
X1103575D01*
X1104247Y449917D01*
X1104873Y450176D01*
X1105411Y450589D01*
X1105824Y451127D01*
X1106083Y451753D01*
X1106172Y452425D01*
Y455575D01*
X1106083Y456247D01*
X1105824Y456873D01*
X1105411Y457411D01*
X1104873Y457824D01*
X1104247Y458083D01*
X1103575Y458172D01*
X1100425D01*
X1099753Y458083D01*
X1099127Y457824D01*
X1098589Y457411D01*
X1098176Y456873D01*
X1097917Y456247D01*
X1097828Y455575D01*
Y452425D01*
X1097837Y452360D01*
X1089738Y444262D01*
X1089351Y443683D01*
X1089216Y443000D01*
Y365000D01*
X1089351Y364317D01*
X1089738Y363738D01*
X1134238Y319238D01*
X1134238Y319238D01*
X1134817Y318851D01*
X1135500Y318716D01*
X1840951D01*
X1841633Y318851D01*
X1842212Y319238D01*
X1893696Y370722D01*
X1899728D01*
Y379278D01*
X1891173D01*
Y373246D01*
X1840211Y322284D01*
X1831461D01*
X1831270Y322746D01*
X1866262Y357738D01*
X1866648Y358317D01*
X1866784Y359000D01*
X1866784Y359000D01*
Y381261D01*
X1875857Y390334D01*
X1876244Y390913D01*
X1876380Y391595D01*
X1876380Y391595D01*
Y521489D01*
X1878873D01*
Y530045D01*
X1870318D01*
Y521489D01*
X1872811D01*
Y392334D01*
X1863738Y383262D01*
X1863351Y382683D01*
X1863216Y382000D01*
Y359739D01*
X1828261Y324784D01*
X1415958D01*
X1415711Y325284D01*
X1416057Y325735D01*
X1416410Y326586D01*
X1416530Y327500D01*
X1416410Y328414D01*
X1416057Y329265D01*
X1415868Y329512D01*
X1416089Y329961D01*
X1460000D01*
X1460780Y330116D01*
X1461442Y330558D01*
X1471429Y340545D01*
X1472000Y340470D01*
X1472914Y340590D01*
X1473765Y340943D01*
X1474496Y341504D01*
X1475057Y342235D01*
X1475410Y343086D01*
X1475530Y344000D01*
X1475410Y344914D01*
X1475057Y345765D01*
X1474496Y346496D01*
X1473765Y347057D01*
X1472914Y347410D01*
X1472000Y347530D01*
X1471086Y347410D01*
X1470235Y347057D01*
X1469504Y346496D01*
X1468943Y345765D01*
X1468590Y344914D01*
X1468470Y344000D01*
X1468545Y343429D01*
X1459155Y334039D01*
X1226845D01*
X1222538Y338346D01*
X1221877Y338788D01*
X1221096Y338943D01*
X1220941D01*
X1219455Y340429D01*
X1219530Y341000D01*
X1219410Y341914D01*
X1219057Y342765D01*
X1218496Y343496D01*
X1217765Y344057D01*
X1216914Y344410D01*
X1216000Y344530D01*
X1215086Y344410D01*
X1214235Y344057D01*
X1213983Y343864D01*
X1213534Y344085D01*
Y450136D01*
X1270262Y506863D01*
X1270262Y506863D01*
X1270648Y507442D01*
X1270784Y508125D01*
X1270784Y508125D01*
Y546261D01*
X1293739Y569216D01*
X1413261D01*
X1428216Y554261D01*
Y549043D01*
X1427504Y548496D01*
X1426943Y547765D01*
X1426590Y546914D01*
X1426470Y546000D01*
X1426590Y545086D01*
X1426943Y544235D01*
X1427504Y543504D01*
X1428235Y542943D01*
X1429086Y542590D01*
X1430000Y542470D01*
X1430914Y542590D01*
X1431765Y542943D01*
X1432496Y543504D01*
X1432847Y543961D01*
X1441000D01*
X1441780Y544116D01*
X1442442Y544558D01*
X1446442Y548558D01*
X1446884Y549220D01*
X1447039Y550000D01*
Y572153D01*
X1447496Y572504D01*
X1448057Y573235D01*
X1448410Y574086D01*
X1448530Y575000D01*
X1448410Y575914D01*
X1448057Y576765D01*
X1447496Y577496D01*
X1446765Y578057D01*
X1445914Y578410D01*
X1445000Y578530D01*
X1444086Y578410D01*
X1443235Y578057D01*
X1442504Y577496D01*
X1441943Y576765D01*
X1441590Y575914D01*
X1441470Y575000D01*
X1441590Y574086D01*
X1441943Y573235D01*
X1442504Y572504D01*
X1442961Y572153D01*
Y550845D01*
X1440155Y548039D01*
X1432847D01*
X1432496Y548496D01*
X1431784Y549043D01*
Y555000D01*
X1431784Y555000D01*
X1431649Y555683D01*
X1431262Y556262D01*
X1431262Y556262D01*
X1415262Y572262D01*
X1414683Y572648D01*
X1414000Y572784D01*
X1293000D01*
X1293000Y572784D01*
X1292317Y572648D01*
X1291738Y572262D01*
X1291738Y572262D01*
X1269000Y549523D01*
X1200262Y618262D01*
X1199683Y618648D01*
X1199000Y618784D01*
X1188000D01*
X1188000Y618784D01*
X1187317Y618648D01*
X1186738Y618262D01*
X1186738Y618262D01*
X1181738Y613262D01*
X1181351Y612683D01*
X1181216Y612000D01*
Y607000D01*
X1181351Y606317D01*
X1181738Y605738D01*
X1198871Y588605D01*
X1198588Y588181D01*
X1197898Y588467D01*
X1196968Y588590D01*
X1196039Y588467D01*
X1195174Y588109D01*
X1194430Y587538D01*
X1193860Y586795D01*
X1193855Y586784D01*
X1185739D01*
X1179784Y592739D01*
Y626958D01*
X1180496Y627504D01*
X1181057Y628235D01*
X1181410Y629086D01*
X1181530Y630000D01*
X1181410Y630914D01*
X1181057Y631765D01*
X1180496Y632496D01*
X1179765Y633057D01*
X1178914Y633410D01*
X1178000Y633530D01*
D02*
G37*
G36*
X1102000Y549185D02*
X1100917Y549043D01*
X1099907Y548625D01*
X1099041Y547960D01*
X1098375Y547093D01*
X1097957Y546083D01*
X1097815Y545000D01*
X1097957Y543917D01*
X1098375Y542907D01*
X1099041Y542040D01*
X1099907Y541375D01*
X1100917Y540957D01*
X1102000Y540815D01*
X1103083Y540957D01*
X1104093Y541375D01*
X1104959Y542040D01*
X1105625Y542907D01*
X1106043Y543917D01*
X1106185Y545000D01*
X1106043Y546083D01*
X1105625Y547093D01*
X1104959Y547960D01*
X1104093Y548625D01*
X1103083Y549043D01*
X1102000Y549185D01*
D02*
G37*
G36*
X1754097Y568989D02*
X1753183Y568868D01*
X1752332Y568516D01*
X1751601Y567955D01*
X1751040Y567224D01*
X1750687Y566372D01*
X1750567Y565458D01*
X1750687Y564545D01*
X1751040Y563693D01*
X1751601Y562962D01*
X1752332Y562401D01*
X1753183Y562048D01*
X1754097Y561928D01*
X1754668Y562003D01*
X1773114Y543558D01*
X1773775Y543116D01*
X1774556Y542961D01*
X1794155D01*
X1804929Y532187D01*
X1804853Y531659D01*
X1804718Y531617D01*
X1803808Y531131D01*
X1803621Y531065D01*
X1803151Y531283D01*
X1802972Y531552D01*
X1802972Y531552D01*
X1799262Y535262D01*
X1799262Y535262D01*
X1796262Y538262D01*
X1795683Y538649D01*
X1795000Y538784D01*
X1791475D01*
X1791310Y538949D01*
X1790731Y539336D01*
X1790048Y539472D01*
X1780314D01*
X1780314Y539472D01*
X1779631Y539336D01*
X1779052Y538949D01*
X1779052Y538949D01*
X1778887Y538784D01*
X1515000D01*
X1514317Y538649D01*
X1513738Y538262D01*
X1513738Y538262D01*
X1502261Y526784D01*
X1493752D01*
X1493625Y527093D01*
X1492959Y527959D01*
X1492093Y528625D01*
X1491083Y529043D01*
X1490000Y529185D01*
X1488917Y529043D01*
X1487907Y528625D01*
X1487041Y527959D01*
X1486375Y527093D01*
X1485957Y526083D01*
X1485815Y525000D01*
X1485957Y523917D01*
X1486375Y522907D01*
X1487041Y522041D01*
X1487907Y521375D01*
X1488917Y520957D01*
X1490000Y520815D01*
X1491083Y520957D01*
X1492093Y521375D01*
X1492959Y522041D01*
X1493625Y522907D01*
X1493752Y523216D01*
X1503000D01*
X1503683Y523351D01*
X1504262Y523738D01*
X1515739Y535216D01*
X1561551D01*
X1561692Y534716D01*
X1560404Y533927D01*
X1559087Y532802D01*
X1557963Y531486D01*
X1557058Y530009D01*
X1556396Y528410D01*
X1555992Y526726D01*
X1555856Y525000D01*
Y509047D01*
X1319000D01*
X1318301Y509020D01*
X1279000D01*
X1278996Y509019D01*
X1278992Y509020D01*
X1278801Y508980D01*
X1278610Y508942D01*
X1278606Y508940D01*
X1278602Y508939D01*
X1278441Y508829D01*
X1278279Y508721D01*
X1278277Y508717D01*
X1278273Y508715D01*
X1216273Y445715D01*
X1216166Y445552D01*
X1216058Y445390D01*
X1216057Y445386D01*
X1216055Y445383D01*
X1216018Y445191D01*
X1215980Y445000D01*
Y402000D01*
Y401000D01*
Y389000D01*
X1216058Y388610D01*
X1216279Y388279D01*
X1229279Y375279D01*
X1229610Y375058D01*
X1230000Y374980D01*
X1319000D01*
X1319390Y375058D01*
X1319721Y375279D01*
X1331395Y386953D01*
X1553966D01*
Y371398D01*
X1554102Y369672D01*
X1554506Y367988D01*
X1555169Y366388D01*
X1556073Y364912D01*
X1557198Y363595D01*
X1558514Y362471D01*
X1559386Y361937D01*
X1559245Y361437D01*
X1472447D01*
X1458173Y375711D01*
X1458201Y376277D01*
X1458496Y376504D01*
X1459057Y377235D01*
X1459410Y378086D01*
X1459530Y379000D01*
X1459410Y379914D01*
X1459057Y380765D01*
X1458496Y381496D01*
X1457765Y382057D01*
X1456914Y382410D01*
X1456000Y382530D01*
X1455086Y382410D01*
X1454235Y382057D01*
X1453504Y381496D01*
X1452943Y380765D01*
X1452590Y379914D01*
X1452470Y379000D01*
X1452590Y378086D01*
X1452943Y377235D01*
X1453504Y376504D01*
X1453961Y376153D01*
Y375000D01*
X1454116Y374220D01*
X1454558Y373558D01*
X1470160Y357956D01*
X1470822Y357514D01*
X1471602Y357359D01*
X1748012D01*
X1748793Y357514D01*
X1749454Y357956D01*
X1760917Y369419D01*
X1761206Y369264D01*
X1762359Y368914D01*
X1763559Y368796D01*
X1764758Y368914D01*
X1765911Y369264D01*
X1766974Y369832D01*
X1767906Y370597D01*
X1768670Y371529D01*
X1769238Y372591D01*
X1769588Y373745D01*
X1769706Y374944D01*
X1769588Y376143D01*
X1769238Y377297D01*
X1768670Y378359D01*
X1767906Y379291D01*
X1766974Y380056D01*
X1765911Y380624D01*
X1764758Y380974D01*
X1763559Y381092D01*
X1762359Y380974D01*
X1761206Y380624D01*
X1760143Y380056D01*
X1759212Y379291D01*
X1758447Y378359D01*
X1757879Y377297D01*
X1757529Y376143D01*
X1757411Y374944D01*
X1757529Y373745D01*
X1757879Y372591D01*
X1758033Y372303D01*
X1747168Y361437D01*
X1570755D01*
X1570614Y361937D01*
X1571486Y362471D01*
X1572802Y363595D01*
X1573927Y364912D01*
X1574831Y366388D01*
X1575494Y367988D01*
X1575898Y369672D01*
X1576034Y371398D01*
Y386953D01*
X1774414D01*
Y374944D01*
X1774550Y373218D01*
X1774954Y371534D01*
X1775617Y369935D01*
X1776522Y368458D01*
X1777646Y367142D01*
X1778963Y366017D01*
X1780439Y365113D01*
X1782039Y364450D01*
X1783722Y364046D01*
X1785448Y363910D01*
X1787175Y364046D01*
X1788858Y364450D01*
X1790458Y365113D01*
X1791934Y366017D01*
X1793251Y367142D01*
X1794375Y368458D01*
X1795280Y369935D01*
X1795942Y371534D01*
X1796347Y373218D01*
X1796482Y374944D01*
Y386953D01*
X1810000D01*
X1814790Y387141D01*
X1819550Y387704D01*
X1824251Y388640D01*
X1828865Y389941D01*
X1833362Y391600D01*
X1837715Y393607D01*
X1841897Y395949D01*
X1845883Y398612D01*
X1849647Y401579D01*
X1853167Y404833D01*
X1856421Y408353D01*
X1859388Y412117D01*
X1862051Y416103D01*
X1864393Y420285D01*
X1866400Y424638D01*
X1868059Y429135D01*
X1869360Y433749D01*
X1870296Y438450D01*
X1870859Y443210D01*
X1871047Y448000D01*
X1870859Y452790D01*
X1870296Y457550D01*
X1869360Y462251D01*
X1868059Y466865D01*
X1866400Y471362D01*
X1864393Y475715D01*
X1862051Y479897D01*
X1859388Y483883D01*
X1856421Y487647D01*
X1853167Y491167D01*
X1849647Y494421D01*
X1845883Y497388D01*
X1841897Y500051D01*
X1837715Y502393D01*
X1833362Y504400D01*
X1828865Y506059D01*
X1824251Y507360D01*
X1819550Y508295D01*
X1814790Y508859D01*
X1810000Y509047D01*
X1796215D01*
Y525938D01*
X1796079Y527664D01*
X1795675Y529347D01*
X1795012Y530947D01*
X1794107Y532423D01*
X1792983Y533740D01*
X1791841Y534716D01*
X1792025Y535216D01*
X1794261D01*
X1796738Y532738D01*
X1796738Y532738D01*
X1799187Y530290D01*
X1798941Y530044D01*
X1798554Y529465D01*
X1798418Y528783D01*
Y523093D01*
X1798554Y522410D01*
X1798941Y521831D01*
X1802964Y517808D01*
X1802964Y517808D01*
X1803543Y517421D01*
X1804226Y517285D01*
X1809915D01*
X1810598Y517421D01*
X1811177Y517808D01*
X1817483Y524114D01*
X1826066D01*
Y521749D01*
X1831841D01*
X1837852Y515738D01*
X1837852Y515738D01*
X1838431Y515351D01*
X1839113Y515216D01*
X1858000D01*
X1858683Y515351D01*
X1859262Y515738D01*
X1865262Y521738D01*
X1865648Y522317D01*
X1865784Y523000D01*
Y533216D01*
X1884623D01*
X1890582Y527257D01*
X1890428Y526884D01*
X1890281Y525767D01*
X1890428Y524650D01*
X1890859Y523610D01*
X1891545Y522716D01*
X1892438Y522031D01*
X1893479Y521599D01*
X1894595Y521453D01*
X1895712Y521599D01*
X1896753Y522031D01*
X1897646Y522716D01*
X1898332Y523610D01*
X1898763Y524650D01*
X1898910Y525767D01*
X1898763Y526884D01*
X1898332Y527924D01*
X1897646Y528818D01*
X1896753Y529503D01*
X1895712Y529935D01*
X1894595Y530082D01*
X1893479Y529935D01*
X1893106Y529780D01*
X1886624Y536262D01*
X1886045Y536649D01*
X1885362Y536784D01*
X1865000D01*
X1864317Y536649D01*
X1863738Y536262D01*
X1863738Y536262D01*
X1862738Y535262D01*
X1862351Y534683D01*
X1862216Y534000D01*
Y523739D01*
X1857261Y518784D01*
X1839853D01*
X1834365Y524272D01*
Y530048D01*
X1826066D01*
Y527683D01*
X1816744D01*
X1816061Y527547D01*
X1815483Y527160D01*
X1813629Y525307D01*
X1813177Y525521D01*
X1813218Y525938D01*
X1813100Y527137D01*
X1812750Y528290D01*
X1812182Y529353D01*
X1811418Y530285D01*
X1810486Y531049D01*
X1809423Y531617D01*
X1809110Y531712D01*
Y532929D01*
X1808954Y533710D01*
X1808512Y534371D01*
X1796442Y546442D01*
X1795780Y546884D01*
X1795000Y547039D01*
X1775400D01*
X1757552Y564887D01*
X1757627Y565458D01*
X1757507Y566372D01*
X1757154Y567224D01*
X1756593Y567955D01*
X1755862Y568516D01*
X1755011Y568868D01*
X1754097Y568989D01*
D02*
G37*
G36*
X1850215Y530084D02*
X1849132Y529941D01*
X1848122Y529523D01*
X1847256Y528858D01*
X1846590Y527991D01*
X1846172Y526982D01*
X1846030Y525898D01*
X1846172Y524815D01*
X1846590Y523806D01*
X1847256Y522939D01*
X1848122Y522274D01*
X1849132Y521855D01*
X1850215Y521713D01*
X1851299Y521855D01*
X1852308Y522274D01*
X1853175Y522939D01*
X1853840Y523806D01*
X1854258Y524815D01*
X1854401Y525898D01*
X1854258Y526982D01*
X1853840Y527991D01*
X1853175Y528858D01*
X1852308Y529523D01*
X1851299Y529941D01*
X1850215Y530084D01*
D02*
G37*
G36*
X1474150Y529150D02*
X1465850D01*
Y520850D01*
X1474150D01*
Y529150D01*
D02*
G37*
G36*
X1103575Y529172D02*
X1100425D01*
X1099753Y529083D01*
X1099127Y528824D01*
X1098589Y528411D01*
X1098176Y527873D01*
X1097917Y527247D01*
X1097828Y526575D01*
Y523425D01*
X1097917Y522753D01*
X1098176Y522127D01*
X1098589Y521589D01*
X1099127Y521176D01*
X1099753Y520917D01*
X1100425Y520828D01*
X1103575D01*
X1104247Y520917D01*
X1104873Y521176D01*
X1105411Y521589D01*
X1105824Y522127D01*
X1106083Y522753D01*
X1106172Y523425D01*
Y526575D01*
X1106083Y527247D01*
X1105824Y527873D01*
X1105411Y528411D01*
X1104873Y528824D01*
X1104247Y529083D01*
X1103575Y529172D01*
D02*
G37*
G36*
X1551118Y531118D02*
X1538882D01*
Y518882D01*
X1551118D01*
Y531118D01*
D02*
G37*
G36*
X1198118Y505898D02*
X1185882D01*
Y493661D01*
X1198118D01*
Y505898D01*
D02*
G37*
G36*
X1102000Y488185D02*
X1100917Y488043D01*
X1099907Y487625D01*
X1099041Y486960D01*
X1098375Y486093D01*
X1097957Y485083D01*
X1097815Y484000D01*
X1097957Y482917D01*
X1098375Y481907D01*
X1099041Y481040D01*
X1099907Y480375D01*
X1100917Y479957D01*
X1102000Y479815D01*
X1103083Y479957D01*
X1104093Y480375D01*
X1104959Y481040D01*
X1105625Y481907D01*
X1106043Y482917D01*
X1106185Y484000D01*
X1106043Y485083D01*
X1105625Y486093D01*
X1104959Y486960D01*
X1104093Y487625D01*
X1103083Y488043D01*
X1102000Y488185D01*
D02*
G37*
G36*
X1192000Y484037D02*
X1190801Y483919D01*
X1189647Y483569D01*
X1188585Y483001D01*
X1187653Y482237D01*
X1186888Y481305D01*
X1186320Y480242D01*
X1185970Y479089D01*
X1185852Y477890D01*
X1185970Y476690D01*
X1186320Y475537D01*
X1186888Y474474D01*
X1187653Y473543D01*
X1188585Y472778D01*
X1189647Y472210D01*
X1190801Y471860D01*
X1192000Y471742D01*
X1193199Y471860D01*
X1194353Y472210D01*
X1195415Y472778D01*
X1196347Y473543D01*
X1197112Y474474D01*
X1197680Y475537D01*
X1198030Y476690D01*
X1198148Y477890D01*
X1198030Y479089D01*
X1197680Y480242D01*
X1197112Y481305D01*
X1196347Y482237D01*
X1195415Y483001D01*
X1194353Y483569D01*
X1193199Y483919D01*
X1192000Y484037D01*
D02*
G37*
G36*
X1102000Y478185D02*
X1100917Y478043D01*
X1099907Y477625D01*
X1099041Y476960D01*
X1098375Y476093D01*
X1097957Y475083D01*
X1097815Y474000D01*
X1097957Y472917D01*
X1098375Y471907D01*
X1099041Y471040D01*
X1099907Y470375D01*
X1100917Y469957D01*
X1102000Y469815D01*
X1103083Y469957D01*
X1104093Y470375D01*
X1104959Y471040D01*
X1105625Y471907D01*
X1106043Y472917D01*
X1106185Y474000D01*
X1106043Y475083D01*
X1105625Y476093D01*
X1104959Y476960D01*
X1104093Y477625D01*
X1103083Y478043D01*
X1102000Y478185D01*
D02*
G37*
G36*
X1168398Y472075D02*
X1167314Y471933D01*
X1166305Y471514D01*
X1165438Y470849D01*
X1164773Y469982D01*
X1164355Y468973D01*
X1164212Y467890D01*
X1164355Y466807D01*
X1164773Y465797D01*
X1165438Y464930D01*
X1166305Y464265D01*
X1167314Y463847D01*
X1168398Y463704D01*
X1169481Y463847D01*
X1170490Y464265D01*
X1171357Y464930D01*
X1172022Y465797D01*
X1172440Y466807D01*
X1172583Y467890D01*
X1172440Y468973D01*
X1172022Y469982D01*
X1171357Y470849D01*
X1170490Y471514D01*
X1169481Y471933D01*
X1168398Y472075D01*
D02*
G37*
G36*
X1142000Y519530D02*
X1141086Y519410D01*
X1140235Y519057D01*
X1139504Y518496D01*
X1138943Y517765D01*
X1138590Y516914D01*
X1138470Y516000D01*
X1138590Y515086D01*
X1138943Y514235D01*
X1139504Y513504D01*
X1139961Y513153D01*
Y469000D01*
X1140116Y468220D01*
X1140558Y467558D01*
X1151558Y456558D01*
X1152220Y456116D01*
X1153000Y455961D01*
X1159694D01*
X1160248Y455851D01*
X1164287D01*
X1164314Y455643D01*
X1164574Y455016D01*
X1164987Y454479D01*
X1165524Y454066D01*
X1166151Y453806D01*
X1166823Y453718D01*
X1169972D01*
X1170645Y453806D01*
X1171271Y454066D01*
X1171809Y454479D01*
X1172221Y455016D01*
X1172481Y455643D01*
X1172569Y456315D01*
Y459465D01*
X1172481Y460137D01*
X1172221Y460763D01*
X1171809Y461301D01*
X1171271Y461714D01*
X1170645Y461973D01*
X1169972Y462062D01*
X1166823D01*
X1166151Y461973D01*
X1165524Y461714D01*
X1164987Y461301D01*
X1164574Y460763D01*
X1164314Y460137D01*
X1164287Y459929D01*
X1160802D01*
X1160248Y460039D01*
X1153845D01*
X1144039Y469845D01*
Y513153D01*
X1144496Y513504D01*
X1145057Y514235D01*
X1145410Y515086D01*
X1145530Y516000D01*
X1145410Y516914D01*
X1145057Y517765D01*
X1144496Y518496D01*
X1143765Y519057D01*
X1142914Y519410D01*
X1142000Y519530D01*
D02*
G37*
G36*
X1198118Y427118D02*
X1185882D01*
Y414882D01*
X1198118D01*
Y427118D01*
D02*
G37*
G36*
X1102000Y413185D02*
X1100917Y413043D01*
X1099907Y412625D01*
X1099041Y411960D01*
X1098375Y411093D01*
X1097957Y410083D01*
X1097815Y409000D01*
X1097957Y407917D01*
X1098375Y406907D01*
X1099041Y406040D01*
X1099907Y405375D01*
X1100917Y404957D01*
X1102000Y404815D01*
X1103083Y404957D01*
X1104093Y405375D01*
X1104959Y406040D01*
X1105625Y406907D01*
X1106043Y407917D01*
X1106185Y409000D01*
X1106043Y410083D01*
X1105625Y411093D01*
X1104959Y411960D01*
X1104093Y412625D01*
X1103083Y413043D01*
X1102000Y413185D01*
D02*
G37*
G36*
X1162000Y403530D02*
X1161086Y403410D01*
X1160235Y403057D01*
X1159504Y402496D01*
X1158943Y401765D01*
X1158590Y400914D01*
X1158470Y400000D01*
X1158587Y399110D01*
X1140261Y380784D01*
X1106144D01*
X1106083Y381247D01*
X1105824Y381873D01*
X1105411Y382411D01*
X1104873Y382824D01*
X1104247Y383083D01*
X1103575Y383172D01*
X1100425D01*
X1099753Y383083D01*
X1099127Y382824D01*
X1098589Y382411D01*
X1098176Y381873D01*
X1097917Y381247D01*
X1097828Y380575D01*
Y377425D01*
X1097917Y376753D01*
X1098176Y376127D01*
X1098589Y375589D01*
X1099127Y375176D01*
X1099753Y374917D01*
X1100425Y374828D01*
X1103575D01*
X1104247Y374917D01*
X1104873Y375176D01*
X1105411Y375589D01*
X1105824Y376127D01*
X1106083Y376753D01*
X1106144Y377216D01*
X1141000D01*
X1141683Y377351D01*
X1142262Y377738D01*
X1161110Y396587D01*
X1162000Y396470D01*
X1162914Y396590D01*
X1163765Y396943D01*
X1164496Y397504D01*
X1165057Y398235D01*
X1165410Y399086D01*
X1165530Y400000D01*
X1165410Y400914D01*
X1165057Y401765D01*
X1164496Y402496D01*
X1163765Y403057D01*
X1162914Y403410D01*
X1162000Y403530D01*
D02*
G37*
G36*
X1192000Y405258D02*
X1190801Y405140D01*
X1189647Y404790D01*
X1188585Y404222D01*
X1187653Y403457D01*
X1186888Y402526D01*
X1186320Y401463D01*
X1185970Y400310D01*
X1185852Y399110D01*
X1185970Y397911D01*
X1186320Y396758D01*
X1186888Y395695D01*
X1187653Y394763D01*
X1188585Y393999D01*
X1189647Y393430D01*
X1190801Y393081D01*
X1192000Y392963D01*
X1193199Y393081D01*
X1194353Y393430D01*
X1195415Y393999D01*
X1196347Y394763D01*
X1197112Y395695D01*
X1197680Y396758D01*
X1198030Y397911D01*
X1198148Y399110D01*
X1198030Y400310D01*
X1197680Y401463D01*
X1197112Y402526D01*
X1196347Y403457D01*
X1195415Y404222D01*
X1194353Y404790D01*
X1193199Y405140D01*
X1192000Y405258D01*
D02*
G37*
G36*
X1217000Y587530D02*
X1216086Y587410D01*
X1215235Y587057D01*
X1214504Y586496D01*
X1213943Y585765D01*
X1213590Y584914D01*
X1213470Y584000D01*
X1213590Y583086D01*
X1213943Y582235D01*
X1214504Y581504D01*
X1214961Y581153D01*
Y470845D01*
X1135155Y391039D01*
X1105647D01*
X1105625Y391093D01*
X1104959Y391960D01*
X1104093Y392625D01*
X1103083Y393043D01*
X1102000Y393185D01*
X1100917Y393043D01*
X1099907Y392625D01*
X1099041Y391960D01*
X1098375Y391093D01*
X1097957Y390083D01*
X1097815Y389000D01*
X1097957Y387917D01*
X1098375Y386907D01*
X1099041Y386040D01*
X1099907Y385375D01*
X1100917Y384957D01*
X1102000Y384815D01*
X1103083Y384957D01*
X1104093Y385375D01*
X1104959Y386040D01*
X1105625Y386907D01*
X1105647Y386961D01*
X1136000D01*
X1136780Y387116D01*
X1137442Y387558D01*
X1218442Y468558D01*
X1218884Y469220D01*
X1219039Y470000D01*
Y581153D01*
X1219496Y581504D01*
X1220057Y582235D01*
X1220410Y583086D01*
X1220530Y584000D01*
X1220410Y584914D01*
X1220057Y585765D01*
X1219496Y586496D01*
X1218765Y587057D01*
X1217914Y587410D01*
X1217000Y587530D01*
D02*
G37*
G36*
X1172000Y395185D02*
X1170917Y395043D01*
X1169907Y394625D01*
X1169040Y393959D01*
X1168375Y393093D01*
X1167957Y392083D01*
X1167815Y391000D01*
X1167957Y389917D01*
X1168375Y388907D01*
X1169040Y388040D01*
X1169907Y387375D01*
X1170917Y386957D01*
X1172000Y386815D01*
X1173083Y386957D01*
X1174093Y387375D01*
X1174959Y388040D01*
X1175625Y388907D01*
X1176043Y389917D01*
X1176185Y391000D01*
X1176043Y392083D01*
X1175625Y393093D01*
X1174959Y393959D01*
X1174093Y394625D01*
X1173083Y395043D01*
X1172000Y395185D01*
D02*
G37*
G36*
X1173575Y385172D02*
X1170425D01*
X1169753Y385083D01*
X1169127Y384824D01*
X1168589Y384411D01*
X1168176Y383873D01*
X1167917Y383247D01*
X1167828Y382575D01*
Y379425D01*
X1167917Y378753D01*
X1168176Y378127D01*
X1168589Y377589D01*
X1169127Y377176D01*
X1169753Y376917D01*
X1170425Y376828D01*
X1173575D01*
X1174247Y376917D01*
X1174873Y377176D01*
X1175411Y377589D01*
X1175824Y378127D01*
X1176083Y378753D01*
X1176172Y379425D01*
Y382575D01*
X1176083Y383247D01*
X1175824Y383873D01*
X1175411Y384411D01*
X1174873Y384824D01*
X1174247Y385083D01*
X1173575Y385172D01*
D02*
G37*
G36*
X1854150Y379150D02*
X1845850D01*
Y370850D01*
X1854150D01*
Y379150D01*
D02*
G37*
G36*
X1830000Y379185D02*
X1828917Y379043D01*
X1827907Y378625D01*
X1827040Y377959D01*
X1826375Y377093D01*
X1825957Y376083D01*
X1825815Y375000D01*
X1825957Y373917D01*
X1826375Y372907D01*
X1827040Y372041D01*
X1827907Y371375D01*
X1828917Y370957D01*
X1830000Y370815D01*
X1831083Y370957D01*
X1832093Y371375D01*
X1832960Y372041D01*
X1833625Y372907D01*
X1834043Y373917D01*
X1834185Y375000D01*
X1834043Y376083D01*
X1833625Y377093D01*
X1832960Y377959D01*
X1832093Y378625D01*
X1831083Y379043D01*
X1830000Y379185D01*
D02*
G37*
G36*
X1875451Y379314D02*
X1874334Y379168D01*
X1873293Y378736D01*
X1872400Y378051D01*
X1871714Y377157D01*
X1871283Y376117D01*
X1871136Y375000D01*
X1871283Y373883D01*
X1871714Y372843D01*
X1872400Y371949D01*
X1873293Y371264D01*
X1874334Y370832D01*
X1875451Y370686D01*
X1876567Y370832D01*
X1877608Y371264D01*
X1878501Y371949D01*
X1879187Y372843D01*
X1879618Y373883D01*
X1879765Y375000D01*
X1879618Y376117D01*
X1879187Y377157D01*
X1878501Y378051D01*
X1877608Y378736D01*
X1876567Y379168D01*
X1875451Y379314D01*
D02*
G37*
G36*
X1813456Y381062D02*
X1801220D01*
Y368826D01*
X1813456D01*
Y381062D01*
D02*
G37*
G36*
X1593008Y377516D02*
X1580772D01*
Y365280D01*
X1593008D01*
Y377516D01*
D02*
G37*
G36*
X1543110Y377545D02*
X1541911Y377427D01*
X1540758Y377077D01*
X1539695Y376509D01*
X1538763Y375745D01*
X1537999Y374813D01*
X1537430Y373750D01*
X1537081Y372597D01*
X1536963Y371398D01*
X1537081Y370198D01*
X1537430Y369045D01*
X1537999Y367982D01*
X1538763Y367051D01*
X1539695Y366286D01*
X1540758Y365718D01*
X1541911Y365368D01*
X1543110Y365250D01*
X1544310Y365368D01*
X1545463Y365718D01*
X1546526Y366286D01*
X1547457Y367051D01*
X1548222Y367982D01*
X1548790Y369045D01*
X1549140Y370198D01*
X1549258Y371398D01*
X1549140Y372597D01*
X1548790Y373750D01*
X1548222Y374813D01*
X1547457Y375745D01*
X1546526Y376509D01*
X1545463Y377077D01*
X1544310Y377427D01*
X1543110Y377545D01*
D02*
G37*
G36*
X1167000Y355185D02*
X1165917Y355043D01*
X1164907Y354625D01*
X1164040Y353959D01*
X1163375Y353093D01*
X1162957Y352083D01*
X1162815Y351000D01*
X1162957Y349917D01*
X1163375Y348907D01*
X1164040Y348041D01*
X1164907Y347375D01*
X1165917Y346957D01*
X1167000Y346815D01*
X1168083Y346957D01*
X1169093Y347375D01*
X1169960Y348041D01*
X1170625Y348907D01*
X1171043Y349917D01*
X1171185Y351000D01*
X1171043Y352083D01*
X1170625Y353093D01*
X1169960Y353959D01*
X1169093Y354625D01*
X1168083Y355043D01*
X1167000Y355185D01*
D02*
G37*
G36*
X1168575Y345172D02*
X1165425D01*
X1164753Y345083D01*
X1164127Y344824D01*
X1163589Y344411D01*
X1163176Y343873D01*
X1162917Y343247D01*
X1162828Y342575D01*
Y339425D01*
X1162917Y338753D01*
X1163176Y338127D01*
X1163589Y337589D01*
X1164127Y337176D01*
X1164753Y336917D01*
X1165425Y336828D01*
X1168575D01*
X1169247Y336917D01*
X1169873Y337176D01*
X1170411Y337589D01*
X1170824Y338127D01*
X1171083Y338753D01*
X1171172Y339425D01*
Y342575D01*
X1171083Y343247D01*
X1170824Y343873D01*
X1170411Y344411D01*
X1169873Y344824D01*
X1169247Y345083D01*
X1168575Y345172D01*
D02*
G37*
G36*
X1153575D02*
X1150425D01*
X1149753Y345083D01*
X1149127Y344824D01*
X1148589Y344411D01*
X1148176Y343873D01*
X1147917Y343247D01*
X1147828Y342575D01*
Y339425D01*
X1147917Y338753D01*
X1148176Y338127D01*
X1148589Y337589D01*
X1149127Y337176D01*
X1149753Y336917D01*
X1150425Y336828D01*
X1153575D01*
X1154247Y336917D01*
X1154873Y337176D01*
X1155411Y337589D01*
X1155824Y338127D01*
X1156083Y338753D01*
X1156172Y339425D01*
Y342575D01*
X1156083Y343247D01*
X1155824Y343873D01*
X1155411Y344411D01*
X1154873Y344824D01*
X1154247Y345083D01*
X1153575Y345172D01*
D02*
G37*
%LPD*%
G36*
X1203961Y590872D02*
Y584481D01*
X1203524Y584044D01*
X1203062Y584235D01*
Y588722D01*
X1203062Y588722D01*
X1202926Y589405D01*
X1202539Y589984D01*
X1202539Y589984D01*
X1189022Y603501D01*
X1189250Y603981D01*
X1190301Y604119D01*
X1190593Y604240D01*
X1203961Y590872D01*
D02*
G37*
G36*
X1219316Y335020D02*
X1220096Y334865D01*
X1220251D01*
X1224558Y330558D01*
X1225220Y330116D01*
X1226000Y329961D01*
X1409911D01*
X1410133Y329512D01*
X1409943Y329265D01*
X1409590Y328414D01*
X1409476Y327550D01*
X1225963D01*
X1218649Y334864D01*
X1218967Y335253D01*
X1219316Y335020D01*
D02*
G37*
G36*
X1142730Y322746D02*
X1142539Y322284D01*
X1136239D01*
X1092784Y365739D01*
Y372039D01*
X1093246Y372230D01*
X1142730Y322746D01*
D02*
G37*
G36*
X1778521Y534716D02*
X1777379Y533740D01*
X1776254Y532423D01*
X1775349Y530947D01*
X1774687Y529347D01*
X1774283Y527664D01*
X1774147Y525938D01*
Y509047D01*
X1577924D01*
Y525000D01*
X1577788Y526726D01*
X1577384Y528410D01*
X1576721Y530009D01*
X1575817Y531486D01*
X1574692Y532802D01*
X1573375Y533927D01*
X1572088Y534716D01*
X1572229Y535216D01*
X1778337D01*
X1778521Y534716D01*
D02*
G37*
G36*
X1345000Y402000D02*
X1319000Y376000D01*
X1230000D01*
X1217000Y389000D01*
Y401000D01*
Y402000D01*
Y445000D01*
X1279000Y508000D01*
X1345000D01*
Y402000D01*
D02*
G37*
%LPC*%
G36*
X1769409Y532056D02*
X1757173D01*
Y519820D01*
X1769409D01*
Y532056D01*
D02*
G37*
G36*
X1588780Y531148D02*
X1587580Y531030D01*
X1586427Y530680D01*
X1585364Y530112D01*
X1584432Y529347D01*
X1583668Y528415D01*
X1583100Y527353D01*
X1582750Y526199D01*
X1582632Y525000D01*
X1582750Y523801D01*
X1583100Y522647D01*
X1583668Y521585D01*
X1584432Y520653D01*
X1585364Y519888D01*
X1586427Y519320D01*
X1587580Y518970D01*
X1588780Y518852D01*
X1589979Y518970D01*
X1591132Y519320D01*
X1592195Y519888D01*
X1593127Y520653D01*
X1593891Y521585D01*
X1594459Y522647D01*
X1594809Y523801D01*
X1594927Y525000D01*
X1594809Y526199D01*
X1594459Y527353D01*
X1593891Y528415D01*
X1593127Y529347D01*
X1592195Y530112D01*
X1591132Y530680D01*
X1589979Y531030D01*
X1588780Y531148D01*
D02*
G37*
%LPD*%
D15*
X1258766Y541766D02*
X1259000Y542000D01*
X1229715Y541766D02*
X1258766D01*
D40*
X1588780Y525000D02*
D03*
X1566890D02*
D03*
X1763559Y374944D02*
D03*
X1785448D02*
D03*
X1192000Y399110D02*
D03*
Y377221D02*
D03*
X1785181Y525938D02*
D03*
X1807071D02*
D03*
X1565000Y371398D02*
D03*
X1543110D02*
D03*
X1192000Y456000D02*
D03*
Y477890D02*
D03*
D41*
X1545000Y525000D02*
D03*
X1807338Y374944D02*
D03*
X1763291Y525938D02*
D03*
X1586890Y371398D02*
D03*
D45*
X1192000Y421000D02*
D03*
Y499780D02*
D03*
D54*
X1430000Y546000D02*
Y555000D01*
X1414000Y571000D02*
X1430000Y555000D01*
X1178000Y592000D02*
Y630000D01*
Y592000D02*
X1185000Y585000D01*
X1829000Y323000D02*
X1865000Y359000D01*
Y382000D02*
X1874595Y391595D01*
X1865000Y359000D02*
Y382000D01*
X1177148Y323000D02*
X1829000D01*
X1412106Y327500D02*
X1413000D01*
X1225224Y325765D02*
X1410371D01*
X1412106Y327500D01*
X1495641Y578359D02*
Y581359D01*
Y578359D02*
X1496000Y578000D01*
X1447000Y630000D02*
X1495641Y581359D01*
X1211750Y450875D02*
X1269000Y508125D01*
X1211750Y339240D02*
Y450875D01*
X1269000Y508125D02*
Y547000D01*
X1183000Y607000D02*
Y612000D01*
X1188000Y617000D01*
X1183000Y607000D02*
X1201278Y588722D01*
Y583215D02*
Y588722D01*
X1188000Y617000D02*
X1199000D01*
X1197062Y579000D02*
X1201278Y583215D01*
X1146000Y579000D02*
X1197062D01*
X1102000Y535000D02*
X1146000Y579000D01*
X1185000Y585000D02*
X1196968D01*
X1199000Y617000D02*
X1269000Y547000D01*
X1211750Y339240D02*
X1225224Y325765D01*
X1840951Y320500D02*
X1895451Y375000D01*
X1093500Y374500D02*
X1145000Y323000D01*
X1091000Y365000D02*
X1135500Y320500D01*
X1840951D01*
X1145000Y323000D02*
X1177148D01*
X1318000Y630000D02*
X1447000D01*
X1248850D02*
X1318000D01*
X1269000Y547000D02*
X1293000Y571000D01*
X1414000D01*
X1515000Y537000D02*
X1779626D01*
X1790735D02*
X1795000D01*
X1790048Y537688D02*
X1790735Y537000D01*
X1780314Y537688D02*
X1790048D01*
X1779626Y537000D02*
X1780314Y537688D01*
X1503000Y525000D02*
X1515000Y537000D01*
X1246785Y627935D02*
X1248850Y630000D01*
X1201278Y627935D02*
X1246785D01*
X1196968Y632244D02*
X1201278Y627935D01*
X1885362Y535000D02*
X1894595Y525767D01*
X1865000Y535000D02*
X1885362D01*
X1864000Y534000D02*
X1865000Y535000D01*
X1864000Y523000D02*
Y534000D01*
X1858000Y517000D02*
X1864000Y523000D01*
X1839113Y517000D02*
X1858000D01*
X1830215Y525898D02*
X1839113Y517000D01*
X1798000Y534000D02*
X1801710Y530290D01*
X1800202Y528783D02*
X1801710Y530290D01*
X1809915Y519070D02*
X1816744Y525898D01*
X1800202Y523093D02*
Y528783D01*
Y523093D02*
X1804226Y519070D01*
X1809915D01*
X1816744Y525898D02*
X1830215D01*
X1795000Y537000D02*
X1798000Y534000D01*
X1874595Y391595D02*
Y525767D01*
X1490000Y525000D02*
X1503000D01*
X1093500Y390500D02*
X1102000Y399000D01*
X1093500Y374500D02*
Y390500D01*
X1091000Y443000D02*
X1102000Y454000D01*
X1091000Y365000D02*
Y443000D01*
X1141000Y379000D02*
X1162000Y400000D01*
X1102000Y379000D02*
X1141000D01*
X1215000Y615000D02*
X1245000Y585000D01*
X1315000Y595000D02*
X1325000Y605000D01*
X1440000D01*
D55*
X1430000Y546000D02*
X1441000D01*
X1445000Y550000D01*
X1748012Y359398D02*
X1763559Y374944D01*
X1471602Y359398D02*
X1748012D01*
X1456000Y375000D02*
X1471602Y359398D01*
X1160000Y574000D02*
X1196364D01*
X1206000Y583636D01*
Y591716D01*
X1220096Y336904D02*
X1221096D01*
X1216000Y341000D02*
X1220096Y336904D01*
X1221096D02*
X1226000Y332000D01*
X1460000D01*
X1167000Y567000D02*
X1197000D01*
X1198000Y568000D01*
X1130000Y544000D02*
X1160000Y574000D01*
X1136000Y389000D02*
X1217000Y470000D01*
Y584000D01*
X1189095Y608622D02*
X1206000Y591716D01*
X1795000Y545000D02*
X1807071Y532929D01*
Y525938D02*
Y532929D01*
X1160248Y457890D02*
Y458000D01*
Y457890D02*
X1168398D01*
X1153000Y458000D02*
X1160248D01*
X1142000Y469000D02*
X1153000Y458000D01*
X1142000Y469000D02*
Y516000D01*
X1460000Y332000D02*
X1472000Y344000D01*
X1456000Y375000D02*
Y379000D01*
X1102000Y464000D02*
X1119000D01*
X1130000Y475000D01*
Y544000D01*
X1102000Y389000D02*
X1136000D01*
X1445000Y550000D02*
Y575000D01*
X1774556Y545000D02*
X1795000D01*
X1754097Y565458D02*
X1774556Y545000D01*
D56*
X1565000Y448000D02*
X1566890Y449890D01*
Y525000D01*
X1565000Y371398D02*
Y448000D01*
X1785448Y423449D02*
X1810000Y448000D01*
X1785448Y374944D02*
Y423449D01*
X1785181Y472819D02*
X1810000Y448000D01*
X1785181Y472819D02*
Y525938D01*
D60*
X1240000Y355693D02*
D03*
Y399000D02*
D03*
D61*
X1470000Y525000D02*
D03*
D62*
X1480000D02*
D03*
X1490000D02*
D03*
X1167000Y351000D02*
D03*
X1152000D02*
D03*
X1102000Y399000D02*
D03*
Y389000D02*
D03*
Y409000D02*
D03*
Y419000D02*
D03*
Y474000D02*
D03*
Y464000D02*
D03*
Y484000D02*
D03*
Y494000D02*
D03*
Y545000D02*
D03*
Y535000D02*
D03*
Y555000D02*
D03*
Y565000D02*
D03*
X1172000Y391000D02*
D03*
X1168398Y467890D02*
D03*
D63*
X1830215Y525898D02*
D03*
X1850000Y375000D02*
D03*
D64*
X1840215Y525898D02*
D03*
X1850215D02*
D03*
X1830000Y375000D02*
D03*
X1840000D02*
D03*
D65*
X1894595Y525767D02*
D03*
X1875451Y375000D02*
D03*
D66*
X1874595Y525767D02*
D03*
X1895451Y375000D02*
D03*
D67*
X1167000Y341000D02*
D03*
X1152000D02*
D03*
X1102000Y379000D02*
D03*
Y454000D02*
D03*
Y525000D02*
D03*
X1172000Y381000D02*
D03*
X1168398Y457890D02*
D03*
D68*
X1189095Y608622D02*
D03*
D69*
X1196968Y632244D02*
D03*
Y585000D02*
D03*
X1245000Y632244D02*
D03*
Y585000D02*
D03*
D70*
X1430000Y546000D02*
D03*
X1435000Y541000D02*
D03*
X1212000Y562000D02*
D03*
X1173000Y623000D02*
D03*
X1178000Y630000D02*
D03*
X1071713Y627338D02*
D03*
X1080713D02*
D03*
X1072713Y572338D02*
D03*
X1081713D02*
D03*
X1197000Y361000D02*
D03*
X1188000D02*
D03*
X1489747Y345486D02*
D03*
X1832747Y346486D02*
D03*
X1881747Y347486D02*
D03*
X1893000Y545000D02*
D03*
X1841000Y555000D02*
D03*
X1479747Y572486D02*
D03*
X1496000Y578000D02*
D03*
X1337000Y581000D02*
D03*
X1216000Y341000D02*
D03*
X1334350Y594558D02*
D03*
X1198000Y568000D02*
D03*
X1167000Y567000D02*
D03*
X1217000Y584000D02*
D03*
X1259000Y542000D02*
D03*
X1229715Y541766D02*
D03*
X1318000Y630000D02*
D03*
X1142000Y516000D02*
D03*
X1413000Y327500D02*
D03*
X1472000Y344000D02*
D03*
X1456000Y379000D02*
D03*
X1162000Y400000D02*
D03*
X1215000Y615000D02*
D03*
X1315000Y595000D02*
D03*
X1440000Y605000D02*
D03*
X1445000Y575000D02*
D03*
X1754097Y565458D02*
D03*
D71*
X1319000Y448000D02*
X1565000D01*
X1810000D01*
D72*
X1240000Y399000D02*
X1283000D01*
M02*
