G04*
G04 #@! TF.GenerationSoftware,Altium Limited,Altium Designer,24.1.2 (44)*
G04*
G04 Layer_Color=32768*
%FSLAX25Y25*%
%MOIN*%
G70*
G04*
G04 #@! TF.SameCoordinates,DAD59E85-0841-476F-99BD-E5F442491B29*
G04*
G04*
G04 #@! TF.FilePolarity,Positive*
G04*
G01*
G75*
%ADD14C,0.00394*%
D14*
X1162000Y336000D02*
Y356000D01*
X1172000D01*
Y336000D02*
Y356000D01*
X1162000Y336000D02*
X1172000D01*
X1147000D02*
Y356000D01*
X1157000D01*
Y336000D02*
Y356000D01*
X1147000Y336000D02*
X1157000D01*
X1097000Y374000D02*
Y424000D01*
X1107000Y374000D02*
Y424000D01*
X1097000Y374000D02*
X1107000D01*
X1097000Y424000D02*
X1107000D01*
X1097000Y449000D02*
Y499000D01*
X1107000Y449000D02*
Y499000D01*
X1097000Y449000D02*
X1107000D01*
X1097000Y499000D02*
X1107000D01*
X1097000Y520000D02*
Y570000D01*
X1107000Y520000D02*
Y570000D01*
X1097000Y520000D02*
X1107000D01*
X1097000Y570000D02*
X1107000D01*
X1167000Y376000D02*
Y396000D01*
X1177000D01*
Y376000D02*
Y396000D01*
X1167000Y376000D02*
X1177000D01*
X1163398Y452890D02*
Y472890D01*
X1173398D01*
Y452890D02*
Y472890D01*
X1163398Y452890D02*
X1173398D01*
M02*
