G04*
G04 #@! TF.GenerationSoftware,Altium Limited,Altium Designer,24.1.2 (44)*
G04*
G04 Layer_Color=2752767*
%FSLAX25Y25*%
%MOIN*%
G70*
G04*
G04 #@! TF.SameCoordinates,DAD59E85-0841-476F-99BD-E5F442491B29*
G04*
G04*
G04 #@! TF.FilePolarity,Positive*
G04*
G01*
G75*
%ADD75C,0.00667*%
%ADD76C,0.00500*%
D75*
X1590779Y525000D02*
G03*
X1590779Y525000I-2000J0D01*
G01*
X1568890D02*
G03*
X1568890Y525000I-2000J0D01*
G01*
X1547000D02*
G03*
X1547000Y525000I-2000J0D01*
G01*
X1765559Y374944D02*
G03*
X1765559Y374944I-2000J0D01*
G01*
X1787449D02*
G03*
X1787449Y374944I-2000J0D01*
G01*
X1809338D02*
G03*
X1809338Y374944I-2000J0D01*
G01*
X1194000Y421000D02*
G03*
X1194000Y421000I-2000J0D01*
G01*
Y399110D02*
G03*
X1194000Y399110I-2000J0D01*
G01*
Y377221D02*
G03*
X1194000Y377221I-2000J0D01*
G01*
X1765291Y525938D02*
G03*
X1765291Y525938I-2000J0D01*
G01*
X1787181D02*
G03*
X1787181Y525938I-2000J0D01*
G01*
X1809071D02*
G03*
X1809071Y525938I-2000J0D01*
G01*
X1588890Y371398D02*
G03*
X1588890Y371398I-2000J0D01*
G01*
X1567000D02*
G03*
X1567000Y371398I-2000J0D01*
G01*
X1545110D02*
G03*
X1545110Y371398I-2000J0D01*
G01*
X1194000Y456000D02*
G03*
X1194000Y456000I-2000J0D01*
G01*
Y477890D02*
G03*
X1194000Y477890I-2000J0D01*
G01*
Y499780D02*
G03*
X1194000Y499780I-2000J0D01*
G01*
D76*
X1238000Y353693D02*
X1239000Y355693D01*
X1238000Y357693D01*
X1240000Y356693D01*
X1242000Y357693D01*
X1241000Y355693D01*
X1242000Y353693D01*
X1240000Y354693D01*
X1238000Y353693D01*
Y397000D02*
X1239000Y399000D01*
X1238000Y401000D01*
X1240000Y400000D01*
X1242000Y401000D01*
X1241000Y399000D01*
X1242000Y397000D01*
X1240000Y398000D01*
X1238000Y397000D01*
X1470000Y523000D02*
X1471000Y524000D01*
X1472000D01*
X1471000Y525000D01*
X1472000Y526000D01*
X1471000D01*
X1470000Y527000D01*
X1469000Y526000D01*
X1468000D01*
X1469000Y525000D01*
X1468000Y524000D01*
X1469000D01*
X1470000Y523000D01*
X1480000D02*
X1481000Y524000D01*
X1482000D01*
X1481000Y525000D01*
X1482000Y526000D01*
X1481000D01*
X1480000Y527000D01*
X1479000Y526000D01*
X1478000D01*
X1479000Y525000D01*
X1478000Y524000D01*
X1479000D01*
X1480000Y523000D01*
X1490000D02*
X1491000Y524000D01*
X1492000D01*
X1491000Y525000D01*
X1492000Y526000D01*
X1491000D01*
X1490000Y527000D01*
X1489000Y526000D01*
X1488000D01*
X1489000Y525000D01*
X1488000Y524000D01*
X1489000D01*
X1490000Y523000D01*
X1830215Y523898D02*
X1831215Y524898D01*
X1832215D01*
X1831215Y525898D01*
X1832215Y526898D01*
X1831215D01*
X1830215Y527898D01*
X1829215Y526898D01*
X1828215D01*
X1829215Y525898D01*
X1828215Y524898D01*
X1829215D01*
X1830215Y523898D01*
X1840215D02*
X1841215Y524898D01*
X1842215D01*
X1841215Y525898D01*
X1842215Y526898D01*
X1841215D01*
X1840215Y527898D01*
X1839215Y526898D01*
X1838215D01*
X1839215Y525898D01*
X1838215Y524898D01*
X1839215D01*
X1840215Y523898D01*
X1850215D02*
X1851215Y524898D01*
X1852215D01*
X1851215Y525898D01*
X1852215Y526898D01*
X1851215D01*
X1850215Y527898D01*
X1849215Y526898D01*
X1848215D01*
X1849215Y525898D01*
X1848215Y524898D01*
X1849215D01*
X1850215Y523898D01*
X1894595Y523767D02*
X1892595Y527767D01*
X1896595D01*
X1894595Y523767D01*
X1874595D02*
X1872595Y527767D01*
X1876595D01*
X1874595Y523767D01*
X1895451Y373000D02*
X1893451Y377000D01*
X1897451D01*
X1895451Y373000D01*
X1875451D02*
X1873451Y377000D01*
X1877451D01*
X1875451Y373000D01*
X1165000Y349000D02*
Y353000D01*
X1169000D01*
Y349000D01*
X1165000D01*
Y339000D02*
Y343000D01*
X1169000D01*
Y339000D01*
X1165000D01*
X1150000Y349000D02*
Y353000D01*
X1154000D01*
Y349000D01*
X1150000D01*
Y339000D02*
Y343000D01*
X1154000D01*
Y339000D01*
X1150000D01*
X1100000Y397000D02*
Y401000D01*
X1104000D01*
Y397000D01*
X1100000D01*
Y377000D02*
Y381000D01*
X1104000D01*
Y377000D01*
X1100000D01*
Y387000D02*
Y391000D01*
X1104000D01*
Y387000D01*
X1100000D01*
Y407000D02*
Y411000D01*
X1104000D01*
Y407000D01*
X1100000D01*
Y417000D02*
Y421000D01*
X1104000D01*
Y417000D01*
X1100000D01*
Y472000D02*
Y476000D01*
X1104000D01*
Y472000D01*
X1100000D01*
Y452000D02*
Y456000D01*
X1104000D01*
Y452000D01*
X1100000D01*
Y462000D02*
Y466000D01*
X1104000D01*
Y462000D01*
X1100000D01*
Y482000D02*
Y486000D01*
X1104000D01*
Y482000D01*
X1100000D01*
Y492000D02*
Y496000D01*
X1104000D01*
Y492000D01*
X1100000D01*
Y543000D02*
Y547000D01*
X1104000D01*
Y543000D01*
X1100000D01*
Y523000D02*
Y527000D01*
X1104000D01*
Y523000D01*
X1100000D01*
Y533000D02*
Y537000D01*
X1104000D01*
Y533000D01*
X1100000D01*
Y553000D02*
Y557000D01*
X1104000D01*
Y553000D01*
X1100000D01*
Y563000D02*
Y567000D01*
X1104000D01*
Y563000D01*
X1100000D01*
X1170000Y389000D02*
Y393000D01*
X1174000D01*
Y389000D01*
X1170000D01*
Y379000D02*
Y383000D01*
X1174000D01*
Y379000D01*
X1170000D01*
X1166398Y465890D02*
Y469890D01*
X1170398D01*
Y465890D01*
X1166398D01*
Y455890D02*
Y459890D01*
X1170398D01*
Y455890D01*
X1166398D01*
X1830000Y373000D02*
X1831000Y374000D01*
X1832000D01*
X1831000Y375000D01*
X1832000Y376000D01*
X1831000D01*
X1830000Y377000D01*
X1829000Y376000D01*
X1828000D01*
X1829000Y375000D01*
X1828000Y374000D01*
X1829000D01*
X1830000Y373000D01*
X1840000D02*
X1841000Y374000D01*
X1842000D01*
X1841000Y375000D01*
X1842000Y376000D01*
X1841000D01*
X1840000Y377000D01*
X1839000Y376000D01*
X1838000D01*
X1839000Y375000D01*
X1838000Y374000D01*
X1839000D01*
X1840000Y373000D01*
X1850000D02*
X1851000Y374000D01*
X1852000D01*
X1851000Y375000D01*
X1852000Y376000D01*
X1851000D01*
X1850000Y377000D01*
X1849000Y376000D01*
X1848000D01*
X1849000Y375000D01*
X1848000Y374000D01*
X1849000D01*
X1850000Y373000D01*
X1188095Y607622D02*
Y606622D01*
X1190094D01*
Y607622D01*
X1191094D01*
Y609622D01*
X1190094D01*
Y610622D01*
X1188095D01*
Y609622D01*
X1187094D01*
Y607622D01*
X1188095D01*
X1194969Y630244D02*
X1195969D01*
X1196968Y631244D01*
X1197968Y630244D01*
X1198969D01*
Y631244D01*
X1197968Y632244D01*
X1198969Y633244D01*
Y634244D01*
X1197968D01*
X1196968Y633244D01*
X1195969Y634244D01*
X1194969D01*
Y633244D01*
X1195969Y632244D01*
X1194969Y631244D01*
Y630244D01*
Y583000D02*
X1195969D01*
X1196968Y584000D01*
X1197968Y583000D01*
X1198969D01*
Y584000D01*
X1197968Y585000D01*
X1198969Y586000D01*
Y587000D01*
X1197968D01*
X1196968Y586000D01*
X1195969Y587000D01*
X1194969D01*
Y586000D01*
X1195969Y585000D01*
X1194969Y584000D01*
Y583000D01*
X1243000Y630244D02*
X1244000D01*
X1245000Y631244D01*
X1246000Y630244D01*
X1247000D01*
Y631244D01*
X1246000Y632244D01*
X1247000Y633244D01*
Y634244D01*
X1246000D01*
X1245000Y633244D01*
X1244000Y634244D01*
X1243000D01*
Y633244D01*
X1244000Y632244D01*
X1243000Y631244D01*
Y630244D01*
Y583000D02*
X1244000D01*
X1245000Y584000D01*
X1246000Y583000D01*
X1247000D01*
Y584000D01*
X1246000Y585000D01*
X1247000Y586000D01*
Y587000D01*
X1246000D01*
X1245000Y586000D01*
X1244000Y587000D01*
X1243000D01*
Y586000D01*
X1244000Y585000D01*
X1243000Y584000D01*
Y583000D01*
X1428000Y546000D02*
X1430000Y548000D01*
X1432000Y546000D01*
X1430000Y544000D01*
X1428000Y546000D01*
X1433000Y541000D02*
X1435000Y543000D01*
X1437000Y541000D01*
X1435000Y539000D01*
X1433000Y541000D01*
X1210000Y562000D02*
X1212000Y564000D01*
X1214000Y562000D01*
X1212000Y560000D01*
X1210000Y562000D01*
X1171000Y623000D02*
X1173000Y625000D01*
X1175000Y623000D01*
X1173000Y621000D01*
X1171000Y623000D01*
X1176000Y630000D02*
X1178000Y632000D01*
X1180000Y630000D01*
X1178000Y628000D01*
X1176000Y630000D01*
X1069713Y627338D02*
X1071713Y629338D01*
X1073713Y627338D01*
X1071713Y625338D01*
X1069713Y627338D01*
X1078713D02*
X1080713Y629338D01*
X1082713Y627338D01*
X1080713Y625338D01*
X1078713Y627338D01*
X1070713Y572338D02*
X1072713Y574338D01*
X1074713Y572338D01*
X1072713Y570338D01*
X1070713Y572338D01*
X1079713D02*
X1081713Y574338D01*
X1083713Y572338D01*
X1081713Y570338D01*
X1079713Y572338D01*
X1195000Y361000D02*
X1197000Y363000D01*
X1199000Y361000D01*
X1197000Y359000D01*
X1195000Y361000D01*
X1186000D02*
X1188000Y363000D01*
X1190000Y361000D01*
X1188000Y359000D01*
X1186000Y361000D01*
X1487747Y345486D02*
X1489747Y347486D01*
X1491747Y345486D01*
X1489747Y343486D01*
X1487747Y345486D01*
X1830747Y346486D02*
X1832747Y348486D01*
X1834747Y346486D01*
X1832747Y344486D01*
X1830747Y346486D01*
X1879747Y347486D02*
X1881747Y349486D01*
X1883747Y347486D01*
X1881747Y345486D01*
X1879747Y347486D01*
X1891000Y545000D02*
X1893000Y547000D01*
X1895000Y545000D01*
X1893000Y543000D01*
X1891000Y545000D01*
X1839000Y555000D02*
X1841000Y557000D01*
X1843000Y555000D01*
X1841000Y553000D01*
X1839000Y555000D01*
X1477747Y572486D02*
X1479747Y574486D01*
X1481747Y572486D01*
X1479747Y570486D01*
X1477747Y572486D01*
X1494000Y578000D02*
X1496000Y580000D01*
X1498000Y578000D01*
X1496000Y576000D01*
X1494000Y578000D01*
X1335000Y581000D02*
X1337000Y583000D01*
X1339000Y581000D01*
X1337000Y579000D01*
X1335000Y581000D01*
X1214000Y341000D02*
X1216000Y343000D01*
X1218000Y341000D01*
X1216000Y339000D01*
X1214000Y341000D01*
X1332350Y594558D02*
X1334350Y596558D01*
X1336350Y594558D01*
X1334350Y592558D01*
X1332350Y594558D01*
X1196000Y568000D02*
X1198000Y570000D01*
X1200000Y568000D01*
X1198000Y566000D01*
X1196000Y568000D01*
X1165000Y567000D02*
X1167000Y569000D01*
X1169000Y567000D01*
X1167000Y565000D01*
X1165000Y567000D01*
X1215000Y584000D02*
X1217000Y586000D01*
X1219000Y584000D01*
X1217000Y582000D01*
X1215000Y584000D01*
X1257000Y542000D02*
X1259000Y544000D01*
X1261000Y542000D01*
X1259000Y540000D01*
X1257000Y542000D01*
X1227715Y541766D02*
X1229715Y543766D01*
X1231715Y541766D01*
X1229715Y539766D01*
X1227715Y541766D01*
X1316000Y630000D02*
X1318000Y632000D01*
X1320000Y630000D01*
X1318000Y628000D01*
X1316000Y630000D01*
X1140000Y516000D02*
X1142000Y518000D01*
X1144000Y516000D01*
X1142000Y514000D01*
X1140000Y516000D01*
X1411000Y327500D02*
X1413000Y329500D01*
X1415000Y327500D01*
X1413000Y325500D01*
X1411000Y327500D01*
X1470000Y344000D02*
X1472000Y346000D01*
X1474000Y344000D01*
X1472000Y342000D01*
X1470000Y344000D01*
X1454000Y379000D02*
X1456000Y381000D01*
X1458000Y379000D01*
X1456000Y377000D01*
X1454000Y379000D01*
X1160000Y400000D02*
X1162000Y402000D01*
X1164000Y400000D01*
X1162000Y398000D01*
X1160000Y400000D01*
X1213000Y615000D02*
X1215000Y617000D01*
X1217000Y615000D01*
X1215000Y613000D01*
X1213000Y615000D01*
X1313000Y595000D02*
X1315000Y597000D01*
X1317000Y595000D01*
X1315000Y593000D01*
X1313000Y595000D01*
X1438000Y605000D02*
X1440000Y607000D01*
X1442000Y605000D01*
X1440000Y603000D01*
X1438000Y605000D01*
X1443000Y575000D02*
X1445000Y577000D01*
X1447000Y575000D01*
X1445000Y573000D01*
X1443000Y575000D01*
X1752097Y565458D02*
X1754097Y567458D01*
X1756097Y565458D01*
X1754097Y563458D01*
X1752097Y565458D01*
M02*
