G04*
G04 #@! TF.GenerationSoftware,Altium Limited,Altium Designer,24.1.2 (44)*
G04*
G04 Layer_Color=16711935*
%FSLAX25Y25*%
%MOIN*%
G70*
G04*
G04 #@! TF.SameCoordinates,DAD59E85-0841-476F-99BD-E5F442491B29*
G04*
G04*
G04 #@! TF.FilePolarity,Positive*
G04*
G01*
G75*
%ADD13C,0.00787*%
%ADD14C,0.00394*%
%ADD15C,0.01000*%
D13*
X1535650Y516910D02*
X1598130D01*
Y535886D01*
X1535650D02*
X1598130D01*
X1535650Y516910D02*
Y535886D01*
X1463307Y548543D02*
X1476693D01*
Y541457D02*
Y548543D01*
X1463307Y541457D02*
X1476693D01*
X1463307D02*
Y548543D01*
Y568543D02*
X1476693D01*
Y561457D02*
Y568543D01*
X1463307Y561457D02*
X1476693D01*
X1463307D02*
Y568543D01*
Y558543D02*
X1476693D01*
Y551457D02*
Y558543D01*
X1463307Y551457D02*
X1476693D01*
X1463307D02*
Y558543D01*
X1483307Y551457D02*
X1496693D01*
X1483307D02*
Y558543D01*
X1496693D01*
Y551457D02*
Y558543D01*
X1483307Y541457D02*
X1496693D01*
X1483307D02*
Y548543D01*
X1496693D01*
Y541457D02*
Y548543D01*
X1483307Y561457D02*
X1496693D01*
X1483307D02*
Y568543D01*
X1496693D01*
Y561457D02*
Y568543D01*
X1348583Y527008D02*
Y552992D01*
X1321417D02*
X1348583D01*
X1321417Y527008D02*
Y552992D01*
Y527008D02*
X1348583D01*
X1147457Y555307D02*
X1154543D01*
Y568693D01*
X1147457D02*
X1154543D01*
X1147457Y555307D02*
Y568693D01*
X1363307Y616457D02*
X1376693D01*
X1363307D02*
Y623543D01*
X1376693D01*
Y616457D02*
Y623543D01*
X1754208Y383034D02*
X1816689D01*
X1754208Y364058D02*
Y383034D01*
Y364058D02*
X1816689D01*
Y383034D01*
X1822795Y551457D02*
Y558543D01*
Y551457D02*
X1836181D01*
Y558543D01*
X1822795D02*
X1836181D01*
X1823307Y541457D02*
Y548543D01*
Y541457D02*
X1836693D01*
Y548543D01*
X1823307D02*
X1836693D01*
X1385000Y603346D02*
X1397598D01*
Y596654D02*
Y603346D01*
X1385000Y596654D02*
X1397598D01*
X1385000D02*
Y603346D01*
X1293701Y631653D02*
X1306299D01*
X1293701D02*
Y638346D01*
X1306299D01*
Y631653D02*
Y638346D01*
X1301653Y613701D02*
Y626299D01*
X1308346D01*
Y613701D02*
Y626299D01*
X1301653Y613701D02*
X1308346D01*
X1301653Y593701D02*
Y606299D01*
X1308346D01*
Y593701D02*
Y606299D01*
X1301653Y593701D02*
X1308346D01*
X1331457Y628307D02*
Y641693D01*
X1338543D01*
Y628307D02*
Y641693D01*
X1331457Y628307D02*
X1338543D01*
X1286457Y593307D02*
Y606693D01*
X1293543D01*
Y593307D02*
Y606693D01*
X1286457Y593307D02*
X1293543D01*
X1346653Y578701D02*
Y591299D01*
X1353347D01*
Y578701D02*
Y591299D01*
X1346653Y578701D02*
X1353347D01*
X1363701Y581653D02*
X1376299D01*
X1363701D02*
Y588346D01*
X1376299D01*
Y581653D02*
Y588346D01*
X1341457Y628307D02*
Y641693D01*
X1348543D01*
Y628307D02*
Y641693D01*
X1341457Y628307D02*
X1348543D01*
X1363701Y603346D02*
X1376299D01*
Y596654D02*
Y603346D01*
X1363701Y596654D02*
X1376299D01*
X1363701D02*
Y603346D01*
X1073457Y602307D02*
Y615693D01*
X1080543D01*
Y602307D02*
Y615693D01*
X1073457Y602307D02*
X1080543D01*
X1063457D02*
Y615693D01*
X1070543D01*
Y602307D02*
Y615693D01*
X1063457Y602307D02*
X1070543D01*
X1083457D02*
Y615693D01*
X1090543D01*
Y602307D02*
Y615693D01*
X1083457Y602307D02*
X1090543D01*
X1293347Y613701D02*
Y626299D01*
X1286654Y613701D02*
X1293347D01*
X1286654D02*
Y626299D01*
X1293347D01*
X1183909Y430350D02*
X1202886D01*
Y367870D02*
Y430350D01*
X1183909Y367870D02*
X1202886D01*
X1183909D02*
Y430350D01*
X1168653Y409701D02*
Y422299D01*
X1175346D01*
Y409701D02*
Y422299D01*
X1168653Y409701D02*
X1175346D01*
X1158654D02*
Y422299D01*
X1165347D01*
Y409701D02*
Y422299D01*
X1158654Y409701D02*
X1165347D01*
X1753941Y517847D02*
Y536824D01*
X1816421D01*
Y517847D02*
Y536824D01*
X1753941Y517847D02*
X1816421D01*
X1873701Y541653D02*
X1886299D01*
X1873701D02*
Y548347D01*
X1886299D01*
Y541653D02*
Y548347D01*
X1843307Y541457D02*
X1856693D01*
X1843307D02*
Y548543D01*
X1856693D01*
Y541457D02*
Y548543D01*
X1793346Y583701D02*
Y596299D01*
X1786654Y583701D02*
X1793346D01*
X1786654D02*
Y596299D01*
X1793346D01*
X1188457Y339307D02*
X1195543D01*
Y352693D01*
X1188457D02*
X1195543D01*
X1188457Y339307D02*
Y352693D01*
X1178457Y339307D02*
X1185543D01*
Y352693D01*
X1178457D02*
X1185543D01*
X1178457Y339307D02*
Y352693D01*
X1198457Y339307D02*
X1205543D01*
Y352693D01*
X1198457D02*
X1205543D01*
X1198457Y339307D02*
Y352693D01*
X1147457Y549693D02*
X1154543D01*
X1147457Y536307D02*
Y549693D01*
Y536307D02*
X1154543D01*
Y549693D01*
X1771654Y583701D02*
X1778346D01*
Y596299D01*
X1771654D02*
X1778346D01*
X1771654Y583701D02*
Y596299D01*
X1083457Y597693D02*
X1090543D01*
X1083457Y584307D02*
Y597693D01*
Y584307D02*
X1090543D01*
Y597693D01*
X1063457Y598181D02*
X1070543D01*
X1063457Y584795D02*
Y598181D01*
Y584795D02*
X1070543D01*
Y598181D01*
X1073457Y597693D02*
X1080543D01*
X1073457Y584307D02*
Y597693D01*
Y584307D02*
X1080543D01*
Y597693D01*
X1596240Y360512D02*
Y379488D01*
X1533760Y360512D02*
X1596240D01*
X1533760D02*
Y379488D01*
X1596240D01*
X1143307Y581457D02*
Y588543D01*
Y581457D02*
X1156693D01*
Y588543D01*
X1143307D02*
X1156693D01*
X1162835Y605158D02*
Y624843D01*
X1147165D02*
X1162835D01*
X1147165Y605158D02*
Y624843D01*
Y605158D02*
X1162835D01*
X1143307Y591457D02*
Y598543D01*
Y591457D02*
X1156693D01*
Y598543D01*
X1143307D02*
X1156693D01*
X1236181Y552457D02*
Y559543D01*
X1222795D02*
X1236181D01*
X1222795Y552457D02*
Y559543D01*
Y552457D02*
X1236181D01*
X1235693Y562457D02*
Y569543D01*
X1222307D02*
X1235693D01*
X1222307Y562457D02*
Y569543D01*
Y562457D02*
X1235693D01*
X1486693Y360457D02*
Y367543D01*
X1473307D02*
X1486693D01*
X1473307Y360457D02*
Y367543D01*
Y360457D02*
X1486693D01*
Y350457D02*
Y357543D01*
X1473307D02*
X1486693D01*
X1473307Y350457D02*
Y357543D01*
Y350457D02*
X1486693D01*
X1583799Y487500D02*
X1596201D01*
Y512500D01*
X1583799D02*
X1596201D01*
X1583799Y487500D02*
Y512500D01*
X1803799Y487500D02*
X1816201D01*
Y512500D01*
X1803799D02*
X1816201D01*
X1803799Y487500D02*
Y512500D01*
X1493653Y352701D02*
X1500346D01*
Y365299D01*
X1493653D02*
X1500346D01*
X1493653Y352701D02*
Y365299D01*
X1459653Y352701D02*
X1466346D01*
Y365299D01*
X1459653D02*
X1466346D01*
X1459653Y352701D02*
Y365299D01*
X1183909Y446650D02*
Y509130D01*
Y446650D02*
X1202886D01*
Y509130D01*
X1183909D02*
X1202886D01*
X1165051Y486590D02*
X1171744D01*
Y499189D01*
X1165051D02*
X1171744D01*
X1165051Y486590D02*
Y499189D01*
X1155051Y486590D02*
X1161744D01*
Y499189D01*
X1155051D02*
X1161744D01*
X1155051Y486590D02*
Y499189D01*
X1883701Y351654D02*
Y358347D01*
Y351654D02*
X1896299D01*
Y358347D01*
X1883701D02*
X1896299D01*
X1228701Y517654D02*
Y524346D01*
Y517654D02*
X1241299D01*
Y524346D01*
X1228701D02*
X1241299D01*
X1228701Y506653D02*
Y513346D01*
Y506653D02*
X1241299D01*
Y513346D01*
X1228701D02*
X1241299D01*
X1851693Y351457D02*
Y358543D01*
X1838307D02*
X1851693D01*
X1838307Y351457D02*
Y358543D01*
Y351457D02*
X1851693D01*
X1851181Y336457D02*
Y343543D01*
X1837795D02*
X1851181D01*
X1837795Y336457D02*
Y343543D01*
Y336457D02*
X1851181D01*
X1241693Y495457D02*
Y502543D01*
X1228307D02*
X1241693D01*
X1228307Y495457D02*
Y502543D01*
Y495457D02*
X1241693D01*
X1818819Y351457D02*
Y358543D01*
Y351457D02*
X1832205D01*
Y358543D01*
X1818819D02*
X1832205D01*
X1396457Y563307D02*
X1403543D01*
Y576693D01*
X1396457D02*
X1403543D01*
X1396457Y563307D02*
Y576693D01*
X1406457Y563307D02*
X1413543D01*
Y576693D01*
X1406457D02*
X1413543D01*
X1406457Y563307D02*
Y576693D01*
X1544299Y539653D02*
Y546347D01*
X1531701D02*
X1544299D01*
X1531701Y539653D02*
Y546347D01*
Y539653D02*
X1544299D01*
X1761654Y552402D02*
X1768346D01*
Y565000D01*
X1761654D02*
X1768346D01*
X1761654Y552402D02*
Y565000D01*
X1205000Y549653D02*
Y556347D01*
X1192402D02*
X1205000D01*
X1192402Y549653D02*
Y556347D01*
Y549653D02*
X1205000D01*
X1533799Y409511D02*
X1546201D01*
X1533799Y384511D02*
Y409511D01*
Y384511D02*
X1546201D01*
Y409511D01*
X1753799Y412500D02*
X1766201D01*
X1753799Y387500D02*
Y412500D01*
Y387500D02*
X1766201D01*
Y412500D01*
X1321653Y474784D02*
X1348819D01*
X1321653D02*
Y500768D01*
X1348819D01*
Y474784D02*
Y500768D01*
X1321181Y423504D02*
X1348347D01*
X1321181D02*
Y449488D01*
X1348347D01*
Y423504D02*
Y449488D01*
X1321181Y368504D02*
X1348347D01*
X1321181D02*
Y394488D01*
X1348347D01*
Y368504D02*
Y394488D01*
X1177457Y554693D02*
X1184543D01*
X1177457Y541307D02*
Y554693D01*
Y541307D02*
X1184543D01*
Y554693D01*
X1205000Y539653D02*
Y546347D01*
X1192402D02*
X1205000D01*
X1192402Y539653D02*
Y546347D01*
Y539653D02*
X1205000D01*
X1281653Y343504D02*
X1308819D01*
X1281653D02*
Y369488D01*
X1308819D01*
Y343504D02*
Y369488D01*
X1281653Y398504D02*
X1308819D01*
X1281653D02*
Y424488D01*
X1308819D01*
Y398504D02*
Y424488D01*
X1281653Y448504D02*
X1308819D01*
X1281653D02*
Y474488D01*
X1308819D01*
Y448504D02*
Y474488D01*
X1281417Y502008D02*
X1308583D01*
X1281417D02*
Y527992D01*
X1308583D01*
Y502008D02*
Y527992D01*
X1192402Y529654D02*
Y536346D01*
Y529654D02*
X1205000D01*
Y536346D01*
X1192402D02*
X1205000D01*
X1161654Y583701D02*
X1168347D01*
Y596299D01*
X1161654D02*
X1168347D01*
X1161654Y583701D02*
Y596299D01*
X1144016Y632244D02*
X1155984D01*
Y637756D01*
X1144016D02*
X1155984D01*
X1144016Y632244D02*
Y637756D01*
D14*
X1423169Y559941D02*
G03*
X1423169Y559941I-1969J0D01*
G01*
X1332638Y616299D02*
G03*
X1332638Y616299I-1969J0D01*
G01*
X1127366Y563799D02*
G03*
X1127366Y563799I-1969J0D01*
G01*
X1486299Y375701D02*
G03*
X1486299Y375701I-1969J0D01*
G01*
X1227638Y544299D02*
G03*
X1227638Y544299I-1969J0D01*
G01*
X1417657Y556398D02*
X1437342D01*
X1417657Y572146D02*
X1437342D01*
X1417657Y556398D02*
Y572146D01*
X1437342Y556398D02*
Y572146D01*
X1269882Y614370D02*
X1280118D01*
X1269882Y631378D02*
X1280118D01*
Y614370D02*
Y631378D01*
X1269882Y614370D02*
Y631378D01*
X1426378Y594882D02*
Y605118D01*
X1409370Y594882D02*
Y605118D01*
X1426378D01*
X1409370Y594882D02*
X1426378D01*
X1327126Y600157D02*
Y619842D01*
X1342874Y600157D02*
Y619842D01*
X1327126D02*
X1342874D01*
X1327126Y600157D02*
X1342874D01*
X1459921Y516968D02*
X1500079D01*
X1459921Y535472D02*
X1500079D01*
X1459921Y516968D02*
Y535472D01*
X1500079Y516968D02*
Y535472D01*
X1459921Y530158D02*
X1500079D01*
X1121854Y547657D02*
Y567343D01*
X1137602Y547657D02*
Y567343D01*
X1121854D02*
X1137602D01*
X1121854Y547657D02*
X1137602D01*
X1819152Y532001D02*
X1861278D01*
Y518615D02*
Y537119D01*
X1819152Y518615D02*
Y537119D01*
Y518615D02*
X1861278D01*
X1819152Y537119D02*
X1861278D01*
X1864339Y527263D02*
X1874339Y537263D01*
X1864339Y517775D02*
Y537263D01*
Y517775D02*
X1904851D01*
Y537263D01*
X1864339D02*
X1904851D01*
X1865195Y363504D02*
X1905706D01*
X1865195D02*
Y382992D01*
X1905706D01*
Y363504D02*
Y382992D01*
X1895707Y363504D02*
X1905706Y373504D01*
X1472126Y391843D02*
X1487874D01*
X1472126Y372158D02*
X1487874D01*
X1472126D02*
Y391843D01*
X1487874Y372158D02*
Y391843D01*
X1818937Y363779D02*
X1861063D01*
X1818937Y382283D02*
X1861063D01*
Y363779D02*
Y382283D01*
X1818937Y363779D02*
Y382283D01*
Y368898D02*
X1861063D01*
X1212882Y501622D02*
Y518630D01*
X1223118Y501622D02*
Y518630D01*
X1212882D02*
X1223118D01*
X1212882Y501622D02*
X1223118D01*
X1222126Y528158D02*
X1237874D01*
X1222126Y547843D02*
X1237874D01*
Y528158D02*
Y547843D01*
X1222126Y528158D02*
Y547843D01*
X1162882Y535622D02*
Y552630D01*
X1173118Y535622D02*
Y552630D01*
X1162882D02*
X1173118D01*
X1162882Y535622D02*
X1173118D01*
X1128051Y614685D02*
Y625315D01*
X1121949Y614685D02*
Y625315D01*
X1128051D01*
X1121949Y614685D02*
X1128051D01*
D15*
X1183583Y639134D02*
X1258780D01*
Y578110D02*
Y639134D01*
X1183583Y578110D02*
X1258780D01*
X1183583D02*
Y639134D01*
M02*
