G04*
G04 #@! TF.GenerationSoftware,Altium Limited,Altium Designer,24.1.2 (44)*
G04*
G04 Layer_Color=0*
%FSLAX25Y25*%
%MOIN*%
G70*
G04*
G04 #@! TF.SameCoordinates,DAD59E85-0841-476F-99BD-E5F442491B29*
G04*
G04*
G04 #@! TF.FilePolarity,Positive*
G04*
G01*
G75*
%ADD14C,0.00394*%
%ADD74C,0.00197*%
D14*
X1564921Y526398D02*
X1568858D01*
X1566890Y524429D02*
Y528366D01*
X1468032Y545000D02*
X1471968D01*
X1470000Y543032D02*
Y546969D01*
X1468032Y565000D02*
X1471968D01*
X1470000Y563031D02*
Y566968D01*
X1468032Y555000D02*
X1471968D01*
X1470000Y553031D02*
Y556968D01*
X1488031Y555000D02*
X1491969D01*
X1490000Y553031D02*
Y556968D01*
X1488031Y545000D02*
X1491969D01*
X1490000Y543032D02*
Y546969D01*
X1488031Y565000D02*
X1491969D01*
X1490000Y563031D02*
Y566968D01*
X1149032Y562000D02*
X1152969D01*
X1151000Y560032D02*
Y563969D01*
X1368032Y620000D02*
X1371968D01*
X1370000Y618032D02*
Y621969D01*
X1783480Y373546D02*
X1787417D01*
X1785448Y371578D02*
Y375515D01*
X1829488Y553031D02*
Y556968D01*
X1827520Y555000D02*
X1831457D01*
X1830000Y543032D02*
Y546969D01*
X1828032Y545000D02*
X1831968D01*
X1389331Y600000D02*
X1393268D01*
X1391299Y598032D02*
Y601968D01*
X1298032Y635000D02*
X1301968D01*
X1300000Y633032D02*
Y636969D01*
X1305000Y618032D02*
Y621969D01*
X1303032Y620000D02*
X1306968D01*
X1305000Y598032D02*
Y601968D01*
X1303032Y600000D02*
X1306968D01*
X1335000Y633032D02*
Y636969D01*
X1333031Y635000D02*
X1336969D01*
X1290000Y598032D02*
Y601968D01*
X1288031Y600000D02*
X1291969D01*
X1350000Y583032D02*
Y586969D01*
X1348032Y585000D02*
X1351968D01*
X1368032D02*
X1371968D01*
X1370000Y583032D02*
Y586969D01*
X1345000Y633032D02*
Y636969D01*
X1343032Y635000D02*
X1346968D01*
X1368032Y600000D02*
X1371968D01*
X1370000Y598032D02*
Y601968D01*
X1077000Y607031D02*
Y610968D01*
X1075031Y609000D02*
X1078969D01*
X1067000Y607031D02*
Y610968D01*
X1065032Y609000D02*
X1068968D01*
X1087000Y607031D02*
Y610968D01*
X1085032Y609000D02*
X1088968D01*
X1290000Y618032D02*
Y621969D01*
X1288031Y620000D02*
X1291969D01*
X1191429Y399110D02*
X1195366D01*
X1193398Y397142D02*
Y401079D01*
X1172000Y414032D02*
Y417969D01*
X1170032Y416000D02*
X1173969D01*
X1162000Y414032D02*
Y417969D01*
X1160032Y416000D02*
X1163968D01*
X1785181Y525367D02*
Y529304D01*
X1783212Y527335D02*
X1787149D01*
X1878032Y545000D02*
X1881968D01*
X1880000Y543032D02*
Y546969D01*
X1848031Y545000D02*
X1851969D01*
X1850000Y543032D02*
Y546969D01*
X1790000Y588031D02*
Y591968D01*
X1788032Y590000D02*
X1791969D01*
X1190032Y346000D02*
X1193968D01*
X1192000Y344032D02*
Y347969D01*
X1180031Y346000D02*
X1183969D01*
X1182000Y344032D02*
Y347969D01*
X1200031Y346000D02*
X1203969D01*
X1202000Y344032D02*
Y347969D01*
X1149032Y543000D02*
X1152969D01*
X1151000Y541032D02*
Y544969D01*
X1773031Y590000D02*
X1776969D01*
X1775000Y588031D02*
Y591968D01*
X1085032Y591000D02*
X1088968D01*
X1087000Y589032D02*
Y592969D01*
X1065032Y591488D02*
X1068968D01*
X1067000Y589520D02*
Y593457D01*
X1075031Y591000D02*
X1078969D01*
X1077000Y589032D02*
Y592969D01*
X1565000Y368032D02*
Y371969D01*
X1563031Y370000D02*
X1566969D01*
X1150000Y583032D02*
Y586969D01*
X1148032Y585000D02*
X1151968D01*
X1155000Y613031D02*
Y616968D01*
X1153032Y615000D02*
X1156968D01*
X1150000Y593032D02*
Y596969D01*
X1148032Y595000D02*
X1151968D01*
X1229488Y554032D02*
Y557969D01*
X1227520Y556000D02*
X1231457D01*
X1229000Y564032D02*
Y567969D01*
X1227032Y566000D02*
X1230968D01*
X1480000Y362032D02*
Y365968D01*
X1478032Y364000D02*
X1481968D01*
X1480000Y352031D02*
Y355968D01*
X1478032Y354000D02*
X1481968D01*
X1588031Y500000D02*
X1591969D01*
X1590000Y498032D02*
Y501968D01*
X1808031Y500000D02*
X1811968D01*
X1810000Y498032D02*
Y501968D01*
X1495032Y359000D02*
X1498969D01*
X1497000Y357031D02*
Y360968D01*
X1461032Y359000D02*
X1464968D01*
X1463000Y357031D02*
Y360968D01*
X1193398Y475921D02*
Y479858D01*
X1191429Y477890D02*
X1195366D01*
X1166429Y492890D02*
X1170366D01*
X1168398Y490921D02*
Y494858D01*
X1156429Y492890D02*
X1160366D01*
X1158398Y490921D02*
Y494858D01*
X1890000Y353031D02*
Y356968D01*
X1888032Y355000D02*
X1891969D01*
X1235000Y519031D02*
Y522968D01*
X1233031Y521000D02*
X1236969D01*
X1235000Y508032D02*
Y511969D01*
X1233031Y510000D02*
X1236969D01*
X1845000Y353031D02*
Y356968D01*
X1843032Y355000D02*
X1846968D01*
X1844488Y338032D02*
Y341968D01*
X1842520Y340000D02*
X1846457D01*
X1235000Y497031D02*
Y500969D01*
X1233031Y499000D02*
X1236969D01*
X1825512Y353031D02*
Y356968D01*
X1823543Y355000D02*
X1827480D01*
X1398032Y570000D02*
X1401968D01*
X1400000Y568032D02*
Y571969D01*
X1408031Y570000D02*
X1411969D01*
X1410000Y568032D02*
Y571969D01*
X1538000Y541032D02*
Y544969D01*
X1536032Y543000D02*
X1539968D01*
X1763032Y558701D02*
X1766969D01*
X1765000Y556732D02*
Y560669D01*
X1198701Y551031D02*
Y554969D01*
X1196732Y553000D02*
X1200669D01*
X1538031Y397011D02*
X1541969D01*
X1540000Y395042D02*
Y398979D01*
X1758031Y400000D02*
X1761968D01*
X1760000Y398031D02*
Y401968D01*
X1179031Y548000D02*
X1182969D01*
X1181000Y546032D02*
Y549968D01*
X1198701Y541032D02*
Y544969D01*
X1196732Y543000D02*
X1200669D01*
X1198701Y531032D02*
Y534969D01*
X1196732Y533000D02*
X1200669D01*
X1163031Y590000D02*
X1166969D01*
X1165000Y588031D02*
Y591968D01*
X1148032Y635000D02*
X1151968D01*
X1150000Y633032D02*
Y636969D01*
D74*
X1165032Y346000D02*
X1168968D01*
X1167000Y344032D02*
Y347969D01*
X1150031Y346000D02*
X1153969D01*
X1152000Y344032D02*
Y347969D01*
X1102000Y397031D02*
Y400969D01*
X1100031Y399000D02*
X1103969D01*
X1102000Y472031D02*
Y475969D01*
X1100031Y474000D02*
X1103969D01*
X1102000Y543032D02*
Y546969D01*
X1100031Y545000D02*
X1103969D01*
X1170032Y386000D02*
X1173969D01*
X1172000Y384032D02*
Y387968D01*
X1166429Y462890D02*
X1170366D01*
X1168398Y460921D02*
Y464858D01*
M02*
