G04*
G04 #@! TF.GenerationSoftware,Altium Limited,Altium Designer,24.1.2 (44)*
G04*
G04 Layer_Color=255*
%FSLAX25Y25*%
%MOIN*%
G70*
G04*
G04 #@! TF.SameCoordinates,DAD59E85-0841-476F-99BD-E5F442491B29*
G04*
G04*
G04 #@! TF.FilePolarity,Positive*
G04*
G01*
G75*
%ADD19R,0.03740X0.06693*%
%ADD20R,0.09606X0.03504*%
%ADD21R,0.09606X0.22047*%
%ADD22R,0.06693X0.03740*%
G04:AMPARAMS|DCode=23|XSize=23.62mil|YSize=57.09mil|CornerRadius=2.01mil|HoleSize=0mil|Usage=FLASHONLY|Rotation=180.000|XOffset=0mil|YOffset=0mil|HoleType=Round|Shape=RoundedRectangle|*
%AMROUNDEDRECTD23*
21,1,0.02362,0.05307,0,0,180.0*
21,1,0.01961,0.05709,0,0,180.0*
1,1,0.00402,-0.00980,0.02653*
1,1,0.00402,0.00980,0.02653*
1,1,0.00402,0.00980,-0.02653*
1,1,0.00402,-0.00980,-0.02653*
%
%ADD23ROUNDEDRECTD23*%
%ADD24R,0.03937X0.05906*%
%ADD25R,0.07874X0.07874*%
%ADD26R,0.05906X0.03937*%
%ADD27R,0.07874X0.07874*%
G04:AMPARAMS|DCode=28|XSize=23.62mil|YSize=57.09mil|CornerRadius=2.01mil|HoleSize=0mil|Usage=FLASHONLY|Rotation=90.000|XOffset=0mil|YOffset=0mil|HoleType=Round|Shape=RoundedRectangle|*
%AMROUNDEDRECTD28*
21,1,0.02362,0.05307,0,0,90.0*
21,1,0.01961,0.05709,0,0,90.0*
1,1,0.00402,0.02653,0.00980*
1,1,0.00402,0.02653,-0.00980*
1,1,0.00402,-0.02653,-0.00980*
1,1,0.00402,-0.02653,0.00980*
%
%ADD28ROUNDEDRECTD28*%
G04:AMPARAMS|DCode=29|XSize=61.02mil|YSize=23.62mil|CornerRadius=2.01mil|HoleSize=0mil|Usage=FLASHONLY|Rotation=180.000|XOffset=0mil|YOffset=0mil|HoleType=Round|Shape=RoundedRectangle|*
%AMROUNDEDRECTD29*
21,1,0.06102,0.01961,0,0,180.0*
21,1,0.05701,0.02362,0,0,180.0*
1,1,0.00402,-0.02850,0.00980*
1,1,0.00402,0.02850,0.00980*
1,1,0.00402,0.02850,-0.00980*
1,1,0.00402,-0.02850,-0.00980*
%
%ADD29ROUNDEDRECTD29*%
%ADD30R,0.13418X0.06121*%
%ADD31R,0.03740X0.03543*%
%ADD32R,0.02200X0.02900*%
%ADD40C,0.10236*%
%ADD41R,0.10236X0.10236*%
%ADD45R,0.10236X0.10236*%
%ADD60C,0.35000*%
%ADD61R,0.06299X0.06299*%
%ADD62C,0.06299*%
%ADD63R,0.06299X0.06299*%
%ADD64C,0.06299*%
%ADD65C,0.06555*%
%ADD66R,0.06555X0.06555*%
G04:AMPARAMS|DCode=67|XSize=62.99mil|YSize=62.99mil|CornerRadius=15.75mil|HoleSize=0mil|Usage=FLASHONLY|Rotation=90.000|XOffset=0mil|YOffset=0mil|HoleType=Round|Shape=RoundedRectangle|*
%AMROUNDEDRECTD67*
21,1,0.06299,0.03150,0,0,90.0*
21,1,0.03150,0.06299,0,0,90.0*
1,1,0.03150,0.01575,0.01575*
1,1,0.03150,0.01575,-0.01575*
1,1,0.03150,-0.01575,-0.01575*
1,1,0.03150,-0.01575,0.01575*
%
%ADD67ROUNDEDRECTD67*%
%ADD68C,0.07244*%
%ADD69C,0.05118*%
D19*
X1464488Y545000D02*
D03*
X1475512D02*
D03*
X1464488Y565000D02*
D03*
X1475512D02*
D03*
X1464488Y555000D02*
D03*
X1475512D02*
D03*
X1495512D02*
D03*
X1484488D02*
D03*
X1495512Y545000D02*
D03*
X1484488D02*
D03*
X1495512Y565000D02*
D03*
X1484488D02*
D03*
X1375512Y620000D02*
D03*
X1364488D02*
D03*
X1835000Y555000D02*
D03*
X1823976D02*
D03*
X1835512Y545000D02*
D03*
X1824488D02*
D03*
X1855512D02*
D03*
X1844488D02*
D03*
X1155512Y585000D02*
D03*
X1144488D02*
D03*
X1155512Y595000D02*
D03*
X1144488D02*
D03*
X1223976Y556000D02*
D03*
X1235000D02*
D03*
X1223488Y566000D02*
D03*
X1234512D02*
D03*
X1474488Y364000D02*
D03*
X1485512D02*
D03*
X1474488Y354000D02*
D03*
X1485512D02*
D03*
X1839488Y355000D02*
D03*
X1850512D02*
D03*
X1838976Y340000D02*
D03*
X1850000D02*
D03*
X1229488Y499000D02*
D03*
X1240512D02*
D03*
X1831024Y355000D02*
D03*
X1820000D02*
D03*
D20*
X1325236Y527224D02*
D03*
X1344764D02*
D03*
X1345000Y475000D02*
D03*
X1325472D02*
D03*
X1344528Y423721D02*
D03*
X1325000D02*
D03*
X1344528Y368721D02*
D03*
X1325000D02*
D03*
X1305000Y343721D02*
D03*
X1285472D02*
D03*
X1305000Y398721D02*
D03*
X1285472D02*
D03*
X1305000Y448721D02*
D03*
X1285472D02*
D03*
X1304764Y502224D02*
D03*
X1285236D02*
D03*
D21*
X1325236Y543504D02*
D03*
X1344764D02*
D03*
X1345000Y491280D02*
D03*
X1325472D02*
D03*
X1344528Y440000D02*
D03*
X1325000D02*
D03*
X1344528Y385000D02*
D03*
X1325000D02*
D03*
X1305000Y360000D02*
D03*
X1285472D02*
D03*
X1305000Y415000D02*
D03*
X1285472D02*
D03*
X1305000Y465000D02*
D03*
X1285472D02*
D03*
X1304764Y518504D02*
D03*
X1285236D02*
D03*
D22*
X1151000Y567512D02*
D03*
Y556488D02*
D03*
X1335000Y629488D02*
D03*
Y640512D02*
D03*
X1290000Y594488D02*
D03*
Y605512D02*
D03*
X1345000Y629488D02*
D03*
Y640512D02*
D03*
X1077000Y603488D02*
D03*
Y614512D02*
D03*
X1067000Y603488D02*
D03*
Y614512D02*
D03*
X1087000Y603488D02*
D03*
Y614512D02*
D03*
X1192000Y351512D02*
D03*
Y340488D02*
D03*
X1182000Y351512D02*
D03*
Y340488D02*
D03*
X1202000Y351512D02*
D03*
Y340488D02*
D03*
X1151000Y537488D02*
D03*
Y548512D02*
D03*
X1087000Y585488D02*
D03*
Y596512D02*
D03*
X1067000Y585976D02*
D03*
Y597000D02*
D03*
X1077000Y585488D02*
D03*
Y596512D02*
D03*
X1400000Y575512D02*
D03*
Y564488D02*
D03*
X1410000Y575512D02*
D03*
Y564488D02*
D03*
X1181000Y542488D02*
D03*
Y553512D02*
D03*
D23*
X1420000Y553543D02*
D03*
X1425000D02*
D03*
X1430000D02*
D03*
X1435000D02*
D03*
X1420000Y575000D02*
D03*
X1425000D02*
D03*
X1430000D02*
D03*
X1435000D02*
D03*
D24*
X1385000Y600000D02*
D03*
X1397598D02*
D03*
X1306299Y635000D02*
D03*
X1293701D02*
D03*
X1376299Y585000D02*
D03*
X1363701D02*
D03*
Y600000D02*
D03*
X1376299D02*
D03*
X1886299Y545000D02*
D03*
X1873701D02*
D03*
X1896299Y355000D02*
D03*
X1883701D02*
D03*
X1241299Y521000D02*
D03*
X1228701D02*
D03*
X1241299Y510000D02*
D03*
X1228701D02*
D03*
X1531701Y543000D02*
D03*
X1544299D02*
D03*
X1192402Y553000D02*
D03*
X1205000D02*
D03*
X1192402Y543000D02*
D03*
X1205000D02*
D03*
Y533000D02*
D03*
X1192402D02*
D03*
D25*
X1275000Y615000D02*
D03*
Y630748D02*
D03*
X1218000Y518000D02*
D03*
Y502252D02*
D03*
X1168000Y552000D02*
D03*
Y536252D02*
D03*
D26*
X1305000Y613701D02*
D03*
Y626299D02*
D03*
Y593701D02*
D03*
Y606299D02*
D03*
X1350000Y578701D02*
D03*
Y591299D02*
D03*
X1290000Y626299D02*
D03*
Y613701D02*
D03*
X1172000Y409701D02*
D03*
Y422299D02*
D03*
X1162000Y409701D02*
D03*
Y422299D02*
D03*
X1790000Y596299D02*
D03*
Y583701D02*
D03*
X1775000Y596299D02*
D03*
Y583701D02*
D03*
X1497000Y365299D02*
D03*
Y352701D02*
D03*
X1463000Y365299D02*
D03*
Y352701D02*
D03*
X1168398Y499189D02*
D03*
Y486590D02*
D03*
X1158398Y499189D02*
D03*
Y486590D02*
D03*
X1765000Y565000D02*
D03*
Y552402D02*
D03*
X1165000Y596299D02*
D03*
Y583701D02*
D03*
D27*
X1425748Y600000D02*
D03*
X1410000D02*
D03*
D28*
X1324272Y617500D02*
D03*
Y612500D02*
D03*
Y607500D02*
D03*
Y602500D02*
D03*
X1345728Y617500D02*
D03*
Y612500D02*
D03*
Y607500D02*
D03*
Y602500D02*
D03*
X1119000Y565000D02*
D03*
Y560000D02*
D03*
Y555000D02*
D03*
Y550000D02*
D03*
X1140457Y565000D02*
D03*
Y560000D02*
D03*
Y555000D02*
D03*
Y550000D02*
D03*
X1469272Y389500D02*
D03*
Y384500D02*
D03*
Y379500D02*
D03*
Y374500D02*
D03*
X1490728Y389500D02*
D03*
Y384500D02*
D03*
Y379500D02*
D03*
Y374500D02*
D03*
X1240728Y530500D02*
D03*
Y535500D02*
D03*
Y540500D02*
D03*
Y545500D02*
D03*
X1219272Y530500D02*
D03*
Y535500D02*
D03*
Y540500D02*
D03*
Y545500D02*
D03*
D29*
X1144370Y607500D02*
D03*
Y612500D02*
D03*
Y617500D02*
D03*
Y622500D02*
D03*
X1165630D02*
D03*
Y617500D02*
D03*
Y612500D02*
D03*
Y607500D02*
D03*
D30*
X1590000Y512011D02*
D03*
Y487989D02*
D03*
X1810000Y512011D02*
D03*
Y487989D02*
D03*
X1540000Y385000D02*
D03*
Y409022D02*
D03*
X1760000Y387989D02*
D03*
Y412011D02*
D03*
D31*
X1125000Y626201D02*
D03*
X1125000Y613799D02*
D03*
D32*
X1150000Y638900D02*
D03*
X1153750Y631100D02*
D03*
X1146250D02*
D03*
D40*
X1588780Y525000D02*
D03*
X1566890D02*
D03*
X1763559Y374944D02*
D03*
X1785448D02*
D03*
X1192000Y399110D02*
D03*
Y377221D02*
D03*
X1785181Y525938D02*
D03*
X1807071D02*
D03*
X1565000Y371398D02*
D03*
X1543110D02*
D03*
X1192000Y456000D02*
D03*
Y477890D02*
D03*
D41*
X1545000Y525000D02*
D03*
X1807338Y374944D02*
D03*
X1763291Y525938D02*
D03*
X1586890Y371398D02*
D03*
D45*
X1192000Y421000D02*
D03*
Y499780D02*
D03*
D60*
X1240000Y355693D02*
D03*
Y399000D02*
D03*
D61*
X1470000Y525000D02*
D03*
D62*
X1480000D02*
D03*
X1490000D02*
D03*
X1167000Y351000D02*
D03*
X1152000D02*
D03*
X1102000Y399000D02*
D03*
Y389000D02*
D03*
Y409000D02*
D03*
Y419000D02*
D03*
Y474000D02*
D03*
Y464000D02*
D03*
Y484000D02*
D03*
Y494000D02*
D03*
Y545000D02*
D03*
Y535000D02*
D03*
Y555000D02*
D03*
Y565000D02*
D03*
X1172000Y391000D02*
D03*
X1168398Y467890D02*
D03*
D63*
X1830215Y525898D02*
D03*
X1850000Y375000D02*
D03*
D64*
X1840215Y525898D02*
D03*
X1850215D02*
D03*
X1830000Y375000D02*
D03*
X1840000D02*
D03*
D65*
X1894595Y525767D02*
D03*
X1875451Y375000D02*
D03*
D66*
X1874595Y525767D02*
D03*
X1895451Y375000D02*
D03*
D67*
X1167000Y341000D02*
D03*
X1152000D02*
D03*
X1102000Y379000D02*
D03*
Y454000D02*
D03*
Y525000D02*
D03*
X1172000Y381000D02*
D03*
X1168398Y457890D02*
D03*
D68*
X1189095Y608622D02*
D03*
D69*
X1196968Y632244D02*
D03*
Y585000D02*
D03*
X1245000Y632244D02*
D03*
Y585000D02*
D03*
M02*
