G04*
G04 #@! TF.GenerationSoftware,Altium Limited,Altium Designer,24.1.2 (44)*
G04*
G04 Layer_Color=16711935*
%FSLAX25Y25*%
%MOIN*%
G70*
G04*
G04 #@! TF.SameCoordinates,DAD59E85-0841-476F-99BD-E5F442491B29*
G04*
G04*
G04 #@! TF.FilePolarity,Positive*
G04*
G01*
G75*
%ADD13C,0.00787*%
%ADD14C,0.00394*%
%ADD15C,0.01000*%
D13*
X1829215Y529302D02*
Y524382D01*
X1830199Y523398D01*
X1832167D01*
X1833151Y524382D01*
Y529302D01*
X1835119D02*
X1839054D01*
Y528318D01*
X1835119Y524382D01*
Y523398D01*
X1851000Y371596D02*
Y376516D01*
X1850016Y377500D01*
X1848048D01*
X1847064Y376516D01*
Y371596D01*
X1845096Y372580D02*
X1844113Y371596D01*
X1842145D01*
X1841161Y372580D01*
Y373564D01*
X1842145Y374548D01*
X1843129D01*
X1842145D01*
X1841161Y375532D01*
Y376516D01*
X1842145Y377500D01*
X1844113D01*
X1845096Y376516D01*
D14*
X1426139Y558772D02*
X1428106D01*
X1428500Y559165D01*
Y559952D01*
X1428106Y560346D01*
X1426139D01*
X1428500Y562314D02*
X1426139D01*
X1427319Y561133D01*
Y562707D01*
X1329500Y611361D02*
Y609394D01*
X1329894Y609000D01*
X1330681D01*
X1331074Y609394D01*
Y611361D01*
X1333436D02*
X1332649Y610968D01*
X1331861Y610181D01*
Y609394D01*
X1332255Y609000D01*
X1333042D01*
X1333436Y609394D01*
Y609787D01*
X1333042Y610181D01*
X1331861D01*
X1124228Y558861D02*
Y556894D01*
X1124622Y556500D01*
X1125409D01*
X1125803Y556894D01*
Y558861D01*
X1126590Y558468D02*
X1126983Y558861D01*
X1127771D01*
X1128164Y558468D01*
Y558074D01*
X1127771Y557681D01*
X1128164Y557287D01*
Y556894D01*
X1127771Y556500D01*
X1126983D01*
X1126590Y556894D01*
Y557287D01*
X1126983Y557681D01*
X1126590Y558074D01*
Y558468D01*
X1126983Y557681D02*
X1127771D01*
X1485500Y380639D02*
Y382606D01*
X1485106Y383000D01*
X1484319D01*
X1483926Y382606D01*
Y380639D01*
X1481564D02*
X1483139D01*
Y381819D01*
X1482351Y381426D01*
X1481958D01*
X1481564Y381819D01*
Y382606D01*
X1481958Y383000D01*
X1482745D01*
X1483139Y382606D01*
X1224500Y539361D02*
Y537394D01*
X1224894Y537000D01*
X1225681D01*
X1226074Y537394D01*
Y539361D01*
X1226861Y537000D02*
X1227649D01*
X1227255D01*
Y539361D01*
X1226861Y538968D01*
D15*
X1059000Y307000D02*
X1918000D01*
X1059000Y649000D02*
X1918000D01*
Y307000D02*
Y649000D01*
X1059000Y307000D02*
Y649000D01*
M02*
