G04*
G04 #@! TF.GenerationSoftware,Altium Limited,Altium Designer,24.1.2 (44)*
G04*
G04 Layer_Color=255*
%FSLAX25Y25*%
%MOIN*%
G70*
G04*
G04 #@! TF.SameCoordinates,29FF4F4E-3C6D-470F-9DA1-2895E510F6E9*
G04*
G04*
G04 #@! TF.FilePolarity,Positive*
G04*
G01*
G75*
%ADD45C,0.10236*%
%ADD46R,0.10236X0.10236*%
%ADD67C,0.06299*%
G04:AMPARAMS|DCode=68|XSize=62.99mil|YSize=62.99mil|CornerRadius=15.75mil|HoleSize=0mil|Usage=FLASHONLY|Rotation=90.000|XOffset=0mil|YOffset=0mil|HoleType=Round|Shape=RoundedRectangle|*
%AMROUNDEDRECTD68*
21,1,0.06299,0.03150,0,0,90.0*
21,1,0.03150,0.06299,0,0,90.0*
1,1,0.03150,0.01575,0.01575*
1,1,0.03150,0.01575,-0.01575*
1,1,0.03150,-0.01575,-0.01575*
1,1,0.03150,-0.01575,0.01575*
%
%ADD68ROUNDEDRECTD68*%
%ADD69C,0.35000*%
%ADD70R,0.06299X0.06299*%
%ADD71R,0.06555X0.06555*%
%ADD72C,0.06555*%
%ADD73C,0.07244*%
%ADD74C,0.05118*%
%ADD75R,0.05906X0.05906*%
%ADD76C,0.05906*%
%ADD77C,0.06299*%
%ADD78R,0.06299X0.06299*%
D45*
X2175669Y381890D02*
D03*
X2153779D02*
D03*
X2248504D02*
D03*
X2226614D02*
D03*
X1665827D02*
D03*
X1643937D02*
D03*
X1592992D02*
D03*
X1571102D02*
D03*
X2059055Y641732D02*
D03*
X2080945D02*
D03*
X2204724D02*
D03*
X2226614D02*
D03*
X2030000Y381890D02*
D03*
X2008110D02*
D03*
X2102835D02*
D03*
X2080945D02*
D03*
X1884331D02*
D03*
X1862441D02*
D03*
X1957165D02*
D03*
X1935276D02*
D03*
X1738661D02*
D03*
X1716772D02*
D03*
X1811496D02*
D03*
X1789606D02*
D03*
X1447323D02*
D03*
X1425433D02*
D03*
X1520158D02*
D03*
X1498268D02*
D03*
X1300866Y381890D02*
D03*
X1278976D02*
D03*
X1374488Y381890D02*
D03*
X1352598D02*
D03*
X1155984D02*
D03*
X1134095D02*
D03*
X1228819D02*
D03*
X1206929D02*
D03*
X2131890Y641732D02*
D03*
X2153779D02*
D03*
X1986221D02*
D03*
X2008110D02*
D03*
X1767716D02*
D03*
X1789606D02*
D03*
X1694882D02*
D03*
X1716772D02*
D03*
X1913386D02*
D03*
X1935276D02*
D03*
X1840551D02*
D03*
X1862441D02*
D03*
X1622047D02*
D03*
X1643937D02*
D03*
X1549213D02*
D03*
X1571102D02*
D03*
X1476378D02*
D03*
X1498268D02*
D03*
X1403543D02*
D03*
X1425433D02*
D03*
X895905Y433642D02*
D03*
X874016D02*
D03*
X895905Y386398D02*
D03*
X874016D02*
D03*
X1330709Y641732D02*
D03*
X1352598D02*
D03*
X1257874Y641732D02*
D03*
X1279764D02*
D03*
X1185039Y641732D02*
D03*
X1206929D02*
D03*
X1112205D02*
D03*
X1134095D02*
D03*
D46*
X2131890Y381890D02*
D03*
X2204724D02*
D03*
X1622047D02*
D03*
X1549213D02*
D03*
X2102835Y641732D02*
D03*
X2248504D02*
D03*
X1986221Y381890D02*
D03*
X2059055D02*
D03*
X1840551D02*
D03*
X1913386D02*
D03*
X1694882D02*
D03*
X1767716D02*
D03*
X1403543D02*
D03*
X1476378D02*
D03*
X1257087Y381890D02*
D03*
X1330709Y381890D02*
D03*
X1112205D02*
D03*
X1185039D02*
D03*
X2175669Y641732D02*
D03*
X2030000D02*
D03*
X1811496D02*
D03*
X1738661D02*
D03*
X1957165D02*
D03*
X1884331D02*
D03*
X1665827D02*
D03*
X1592992D02*
D03*
X1520158D02*
D03*
X1447323D02*
D03*
X852126Y433642D02*
D03*
Y386398D02*
D03*
X1374488Y641732D02*
D03*
X1301653Y641732D02*
D03*
X1228819Y641732D02*
D03*
X1155984D02*
D03*
D67*
X895669Y416417D02*
D03*
Y367205D02*
D03*
X844488Y638110D02*
D03*
Y628110D02*
D03*
Y618110D02*
D03*
Y598110D02*
D03*
Y588110D02*
D03*
Y568110D02*
D03*
Y548110D02*
D03*
Y538110D02*
D03*
Y558110D02*
D03*
Y578110D02*
D03*
Y608110D02*
D03*
X874016Y416417D02*
D03*
X872047Y367205D02*
D03*
X893543Y629921D02*
D03*
X903543D02*
D03*
D68*
X895669Y406417D02*
D03*
Y357205D02*
D03*
X844488Y528110D02*
D03*
X874016Y406417D02*
D03*
X872047Y357205D02*
D03*
D69*
X998032Y437008D02*
D03*
Y393701D02*
D03*
D70*
X913543Y629921D02*
D03*
D71*
X2291339Y381890D02*
D03*
X2311339Y641732D02*
D03*
D72*
Y381890D02*
D03*
X2291339Y641732D02*
D03*
D73*
X844488Y681102D02*
D03*
D74*
X852362Y704724D02*
D03*
Y657480D02*
D03*
X900394Y704724D02*
D03*
Y657480D02*
D03*
D75*
X921890Y482283D02*
D03*
D76*
X911890D02*
D03*
X901890D02*
D03*
X881890D02*
D03*
X871890D02*
D03*
X861890D02*
D03*
X851890D02*
D03*
D77*
X2374331Y381890D02*
D03*
X2364331D02*
D03*
X2354331Y641732D02*
D03*
X2364331D02*
D03*
D78*
X2354331Y381890D02*
D03*
X2374331Y641732D02*
D03*
M02*
