G04*
G04 #@! TF.GenerationSoftware,Altium Limited,Altium Designer,24.1.2 (44)*
G04*
G04 Layer_Color=0*
%FSLAX25Y25*%
%MOIN*%
G70*
G04*
G04 #@! TF.SameCoordinates,29FF4F4E-3C6D-470F-9DA1-2895E510F6E9*
G04*
G04*
G04 #@! TF.FilePolarity,Positive*
G04*
G01*
G75*
%ADD12C,0.00394*%
%ADD82C,0.00197*%
D12*
X1123622Y663386D02*
X1127559D01*
X1125591Y661417D02*
Y665354D01*
X1103937Y663386D02*
X1107874D01*
X1105906Y661417D02*
Y665354D01*
X906378Y516850D02*
Y520787D01*
X904409Y518819D02*
X908346D01*
X868110Y517717D02*
Y521654D01*
X866142Y519685D02*
X870079D01*
X2409449Y604331D02*
Y608268D01*
X2407480Y606299D02*
X2411417D01*
X2391732Y364173D02*
X2395669D01*
X2393701Y362205D02*
Y366142D01*
X895669Y610236D02*
Y614173D01*
X893701Y612205D02*
X897638D01*
X2173228Y411417D02*
X2177165D01*
X2175197Y409449D02*
Y413386D01*
X2151811Y383287D02*
X2155748D01*
X2153779Y381319D02*
Y385256D01*
X2130315Y366142D02*
Y370079D01*
X2128346Y368110D02*
X2132284D01*
X2246063Y411417D02*
X2250000D01*
X2248031Y409449D02*
Y413386D01*
X2224646Y383287D02*
X2228583D01*
X2226614Y381319D02*
Y385256D01*
X2203150Y366142D02*
Y370079D01*
X2201181Y368110D02*
X2205118D01*
X2179134Y362205D02*
X2183071D01*
X2181102Y360236D02*
Y364173D01*
X2169291Y362205D02*
X2173228D01*
X2171260Y360236D02*
Y364173D01*
X1663386Y411617D02*
X1667323D01*
X1665354Y409649D02*
Y413586D01*
X1620472Y366142D02*
Y370079D01*
X1618504Y368110D02*
X1622441D01*
X1641969Y383287D02*
X1645905D01*
X1643937Y381319D02*
Y385256D01*
X1569134Y383287D02*
X1573071D01*
X1571102Y381319D02*
Y385256D01*
X1590551Y411417D02*
X1594488D01*
X1592520Y409449D02*
Y413386D01*
X1547638Y366142D02*
Y370079D01*
X1545669Y368110D02*
X1549606D01*
X2078976Y640335D02*
X2082913D01*
X2080945Y638366D02*
Y642303D01*
X2224646Y640335D02*
X2228583D01*
X2226614Y638366D02*
Y642303D01*
X2006142Y383287D02*
X2010079D01*
X2008110Y381319D02*
Y385256D01*
X2078976Y383287D02*
X2082913D01*
X2080945Y381319D02*
Y385256D01*
X1860472Y383287D02*
X1864409D01*
X1862441Y381319D02*
Y385256D01*
X1933307Y383287D02*
X1937244D01*
X1935276Y381319D02*
Y385256D01*
X1714803Y383287D02*
X1718740D01*
X1716772Y381319D02*
Y385256D01*
X1787638Y383287D02*
X1791575D01*
X1789606Y381319D02*
Y385256D01*
X1423465Y383287D02*
X1427402D01*
X1425433Y381319D02*
Y385256D01*
X1496299Y383287D02*
X1500236D01*
X1498268Y381319D02*
Y385256D01*
X1277008Y383287D02*
X1280945D01*
X1278976Y381319D02*
Y385256D01*
X1350630Y383287D02*
X1354567D01*
X1352598Y381319D02*
Y385256D01*
X1132126Y383287D02*
X1136063D01*
X1134095Y381319D02*
Y385256D01*
X1204961Y383287D02*
X1208898D01*
X1206929Y381319D02*
Y385256D01*
X2151811Y640335D02*
X2155748D01*
X2153779Y638366D02*
Y642303D01*
X2006142Y640335D02*
X2010079D01*
X2008110Y638366D02*
Y642303D01*
X1787638Y640335D02*
X1791575D01*
X1789606Y638366D02*
Y642303D01*
X1714803Y640335D02*
X1718740D01*
X1716772Y638366D02*
Y642303D01*
X1933307Y640335D02*
X1937244D01*
X1935276Y638366D02*
Y642303D01*
X1860472Y640335D02*
X1864409D01*
X1862441Y638366D02*
Y642303D01*
X1641969Y640335D02*
X1645905D01*
X1643937Y638366D02*
Y642303D01*
X1569134Y640335D02*
X1573071D01*
X1571102Y638366D02*
Y642303D01*
X1496299Y640335D02*
X1500236D01*
X1498268Y638366D02*
Y642303D01*
X1423465Y640335D02*
X1427402D01*
X1425433Y638366D02*
Y642303D01*
X872047Y435039D02*
X875984D01*
X874016Y433071D02*
Y437008D01*
X872047Y387795D02*
X875984D01*
X874016Y385827D02*
Y389764D01*
X1350630Y640335D02*
X1354567D01*
X1352598Y638366D02*
Y642303D01*
X1277795Y640335D02*
X1281732D01*
X1279764Y638366D02*
Y642303D01*
X1204961Y640335D02*
X1208898D01*
X1206929Y638366D02*
Y642303D01*
X1132126Y640335D02*
X1136063D01*
X1134095Y638366D02*
Y642303D01*
X895669Y600394D02*
Y604331D01*
X893701Y602362D02*
X897638D01*
X913386Y600394D02*
Y604331D01*
X911417Y602362D02*
X915354D01*
X913386Y610236D02*
Y614173D01*
X911417Y612205D02*
X915354D01*
X850787Y360236D02*
Y364173D01*
X848819Y362205D02*
X852756D01*
X850787Y405512D02*
Y409449D01*
X848819Y407480D02*
X852756D01*
X850787Y370079D02*
Y374016D01*
X848819Y372047D02*
X852756D01*
X850787Y415354D02*
Y419291D01*
X848819Y417323D02*
X852756D01*
X933071Y427165D02*
X937008D01*
X935039Y425197D02*
Y429134D01*
X923228Y427165D02*
X927165D01*
X925197Y425197D02*
Y429134D01*
X913386Y427165D02*
X917323D01*
X915354Y425197D02*
Y429134D01*
X2283465Y362205D02*
Y366142D01*
X2281496Y364173D02*
X2285433D01*
X2305118Y655512D02*
Y659449D01*
X2303150Y657480D02*
X2307087D01*
X919291Y661417D02*
X923228D01*
X921260Y659449D02*
Y663386D01*
X944882Y673228D02*
X948819D01*
X946850Y671260D02*
Y675197D01*
X1055118Y696850D02*
X1059055D01*
X1057087Y694882D02*
Y698819D01*
X1066929Y696850D02*
X1070866D01*
X1068898Y694882D02*
Y698819D01*
X956693Y673228D02*
X960630D01*
X958661Y671260D02*
Y675197D01*
X1066929Y673228D02*
X1070866D01*
X1068898Y671260D02*
Y675197D01*
X1082677Y673228D02*
Y677165D01*
X1080709Y675197D02*
X1084646D01*
X1090551Y694882D02*
Y698819D01*
X1088583Y696850D02*
X1092520D01*
X2381890Y363779D02*
X2385827D01*
X2383858Y361811D02*
Y365748D01*
X2425197Y627953D02*
X2429134D01*
X2427165Y625984D02*
Y629921D01*
X2358661Y356299D02*
Y360236D01*
X2356693Y358268D02*
X2360630D01*
X2358661Y366142D02*
Y370079D01*
X2356693Y368110D02*
X2360630D01*
X2372047Y364173D02*
X2375984D01*
X2374016Y362205D02*
Y366142D01*
X2415354Y627953D02*
X2419291D01*
X2417323Y625984D02*
Y629921D01*
X1007874Y665354D02*
X1011811D01*
X1009842Y663386D02*
Y667323D01*
X2387795Y622047D02*
X2391732D01*
X2389764Y620079D02*
Y624016D01*
X2397638Y622047D02*
X2401575D01*
X2399606Y620079D02*
Y624016D01*
X1017717Y665354D02*
X1021653D01*
X1019685Y663386D02*
Y667323D01*
X984252Y673228D02*
Y677165D01*
X982283Y675197D02*
X986220D01*
X984252Y663386D02*
Y667323D01*
X982283Y665354D02*
X986220D01*
X1007874Y685039D02*
X1011811D01*
X1009842Y683071D02*
Y687008D01*
X1017717Y685039D02*
X1021653D01*
X1019685Y683071D02*
Y687008D01*
X2334646Y659449D02*
X2338583D01*
X2336614Y657480D02*
Y661417D01*
X864173Y633858D02*
X868110D01*
X866142Y631890D02*
Y635827D01*
X2344488Y659842D02*
X2348425D01*
X2346457Y657874D02*
Y661811D01*
X2411417Y668898D02*
X2415354D01*
X2413386Y666929D02*
Y670866D01*
X2370079Y663386D02*
Y667323D01*
X2368110Y665354D02*
X2372047D01*
X2370079Y653543D02*
Y657480D01*
X2368110Y655512D02*
X2372047D01*
X864173Y612205D02*
X868110D01*
X866142Y610236D02*
Y614173D01*
X2354331Y659055D02*
X2358268D01*
X2356299Y657087D02*
Y661024D01*
X2391732Y641732D02*
X2395669D01*
X2393701Y639764D02*
Y643701D01*
X2391732Y661417D02*
X2395669D01*
X2393701Y659449D02*
Y663386D01*
X1155512Y653543D02*
Y657480D01*
X1153543Y655512D02*
X1157480D01*
X1229921Y653543D02*
Y657480D01*
X1227953Y655512D02*
X1231890D01*
X1190945Y661417D02*
X1194882D01*
X1192913Y659449D02*
Y663386D01*
X1181102Y661417D02*
X1185039D01*
X1183071Y659449D02*
Y663386D01*
X1302756Y653543D02*
Y657480D01*
X1300787Y655512D02*
X1304724D01*
X1375591Y653543D02*
Y657480D01*
X1373622Y655512D02*
X1377559D01*
X1334646Y661024D02*
X1338583D01*
X1336614Y659055D02*
Y662992D01*
X1324803Y661024D02*
X1328740D01*
X1326772Y659055D02*
Y662992D01*
X1110236Y612205D02*
X1114173D01*
X1112205Y610236D02*
Y614173D01*
X1183071Y612205D02*
X1187008D01*
X1185039Y610236D02*
Y614173D01*
X1255906Y612205D02*
X1259842D01*
X1257874Y610236D02*
Y614173D01*
X1328740Y612205D02*
X1332677D01*
X1330709Y610236D02*
Y614173D01*
X1448425Y653543D02*
Y657480D01*
X1446457Y655512D02*
X1450394D01*
X1521260Y653543D02*
Y657480D01*
X1519291Y655512D02*
X1523228D01*
X1480315Y659842D02*
X1484252D01*
X1482283Y657874D02*
Y661811D01*
X1470472Y659842D02*
X1474409D01*
X1472441Y657874D02*
Y661811D01*
X1594094Y653543D02*
Y657480D01*
X1592126Y655512D02*
X1596063D01*
X1666929Y653543D02*
Y657480D01*
X1664961Y655512D02*
X1668898D01*
X1616142Y659449D02*
X1620079D01*
X1618110Y657480D02*
Y661417D01*
X1625984Y659449D02*
X1629921D01*
X1627953Y657480D02*
Y661417D01*
X1401575Y612205D02*
X1405512D01*
X1403543Y610236D02*
Y614173D01*
X1474409Y612205D02*
X1478347D01*
X1476378Y610236D02*
Y614173D01*
X1547244Y612205D02*
X1551181D01*
X1549213Y610236D02*
Y614173D01*
X1620079Y612205D02*
X1624016D01*
X1622047Y610236D02*
Y614173D01*
X1885433Y653543D02*
Y657480D01*
X1883465Y655512D02*
X1887402D01*
X1958268Y653543D02*
Y657480D01*
X1956299Y655512D02*
X1960236D01*
X1915354Y659449D02*
X1919291D01*
X1917323Y657480D02*
Y661417D01*
X1905512Y659449D02*
X1909449D01*
X1907480Y657480D02*
Y661417D01*
X1739764Y653543D02*
Y657480D01*
X1737795Y655512D02*
X1741732D01*
X1812598Y653543D02*
Y657480D01*
X1810630Y655512D02*
X1814567D01*
X1769685Y659449D02*
X1773622D01*
X1771654Y657480D02*
Y661417D01*
X1759842Y659449D02*
X1763779D01*
X1761811Y657480D02*
Y661417D01*
X1838583Y612205D02*
X1842520D01*
X1840551Y610236D02*
Y614173D01*
X1911417Y612205D02*
X1915354D01*
X1913386Y610236D02*
Y614173D01*
X1692913Y612205D02*
X1696850D01*
X1694882Y610236D02*
Y614173D01*
X1765748Y612205D02*
X1769685D01*
X1767716Y610236D02*
Y614173D01*
X2031102Y653543D02*
Y657480D01*
X2029134Y655512D02*
X2033071D01*
X2103937Y653543D02*
Y657480D01*
X2101969Y655512D02*
X2105906D01*
X2059055Y659842D02*
X2062992D01*
X2061024Y657874D02*
Y661811D01*
X2049213Y659842D02*
X2053150D01*
X2051181Y657874D02*
Y661811D01*
X2176772Y653543D02*
Y657480D01*
X2174803Y655512D02*
X2178740D01*
X2249606Y653543D02*
Y657480D01*
X2247638Y655512D02*
X2251575D01*
X2208661Y659842D02*
X2212598D01*
X2210630Y657874D02*
Y661811D01*
X2198819Y659842D02*
X2202756D01*
X2200787Y657874D02*
Y661811D01*
X1984252Y612205D02*
X1988189D01*
X1986221Y610236D02*
Y614173D01*
X2057087Y612205D02*
X2061024D01*
X2059055Y610236D02*
Y614173D01*
X2129921Y612205D02*
X2133858D01*
X2131890Y610236D02*
Y614173D01*
X2202756Y612205D02*
X2206693D01*
X2204724Y610236D02*
Y614173D01*
X1183465Y366142D02*
Y370079D01*
X1181496Y368110D02*
X1185433D01*
X1110630Y366142D02*
Y370079D01*
X1108661Y368110D02*
X1112598D01*
X1159449Y364173D02*
X1163386D01*
X1161417Y362205D02*
Y366142D01*
X1149606Y364173D02*
X1153543D01*
X1151575Y362205D02*
Y366142D01*
X1329134Y366142D02*
Y370079D01*
X1327165Y368110D02*
X1331102D01*
X1255512Y366142D02*
Y370079D01*
X1253543Y368110D02*
X1257480D01*
X1297244Y364173D02*
X1301181D01*
X1299213Y362205D02*
Y366142D01*
X1307087Y364173D02*
X1311024D01*
X1309055Y362205D02*
Y366142D01*
X1226378Y411417D02*
X1230315D01*
X1228347Y409449D02*
Y413386D01*
X1153543Y411417D02*
X1157480D01*
X1155512Y409449D02*
Y413386D01*
X1372047Y411417D02*
X1375984D01*
X1374016Y409449D02*
Y413386D01*
X1298425Y411417D02*
X1302362D01*
X1300394Y409449D02*
Y413386D01*
X1474803Y366142D02*
Y370079D01*
X1472835Y368110D02*
X1476772D01*
X1401968Y366142D02*
Y370079D01*
X1400000Y368110D02*
X1403937D01*
X1452756Y364173D02*
X1456693D01*
X1454724Y362205D02*
Y366142D01*
X1442913Y364173D02*
X1446850D01*
X1444882Y362205D02*
Y366142D01*
X1588583Y362598D02*
X1592520D01*
X1590551Y360630D02*
Y364567D01*
X1598425Y362598D02*
X1602362D01*
X1600394Y360630D02*
Y364567D01*
X1517717Y411417D02*
X1521653D01*
X1519685Y409449D02*
Y413386D01*
X1444882Y411417D02*
X1448819D01*
X1446850Y409449D02*
Y413386D01*
X1766142Y366142D02*
Y370079D01*
X1764173Y368110D02*
X1768110D01*
X1693307Y366142D02*
Y370079D01*
X1691339Y368110D02*
X1695276D01*
X1734252Y362205D02*
X1738189D01*
X1736221Y360236D02*
Y364173D01*
X1744094Y362205D02*
X1748031D01*
X1746063Y360236D02*
Y364173D01*
X1911811Y366142D02*
Y370079D01*
X1909842Y368110D02*
X1913779D01*
X1838976Y366142D02*
Y370079D01*
X1837008Y368110D02*
X1840945D01*
X1875984Y362205D02*
X1879921D01*
X1877953Y360236D02*
Y364173D01*
X1885827Y362205D02*
X1889764D01*
X1887795Y360236D02*
Y364173D01*
X1809055Y411417D02*
X1812992D01*
X1811024Y409449D02*
Y413386D01*
X1736221Y411417D02*
X1740158D01*
X1738189Y409449D02*
Y413386D01*
X1954724Y411417D02*
X1958661D01*
X1956693Y409449D02*
Y413386D01*
X1881890Y411417D02*
X1885827D01*
X1883858Y409449D02*
Y413386D01*
X2057480Y366142D02*
Y370079D01*
X2055512Y368110D02*
X2059449D01*
X1984646Y366142D02*
Y370079D01*
X1982677Y368110D02*
X1986614D01*
X2023622Y362205D02*
X2027559D01*
X2025591Y360236D02*
Y364173D01*
X2033465Y362205D02*
X2037402D01*
X2035433Y360236D02*
Y364173D01*
X2100394Y411417D02*
X2104331D01*
X2102362Y409449D02*
Y413386D01*
X2027559Y411417D02*
X2031496D01*
X2029527Y409449D02*
Y413386D01*
D82*
X893701Y411417D02*
X897638D01*
X895669Y409449D02*
Y413386D01*
X893701Y362205D02*
X897638D01*
X895669Y360236D02*
Y364173D01*
X844488Y581142D02*
Y585079D01*
X842520Y583110D02*
X846457D01*
X872047Y411417D02*
X875984D01*
X874016Y409449D02*
Y413386D01*
X870079Y362205D02*
X874016D01*
X872047Y360236D02*
Y364173D01*
M02*
