M48
;Layer_Color=9474304
;FILE_FORMAT=2:4
INCH,TZ
;TYPE=PLATED
T01F00S00C0.0280
T02F00S00C0.0315
T03F00S00C0.0394
T04F00S00C0.0433
T05F00S00C0.0437
T06F00S00C0.0528
T07F00S00C0.0669
T08F00S00C0.1260
T09F00S00C0.2421
%
T01
X97441Y35630
X98425
X99409
X100394
X101378
X102362
X103346
X104331
X105315
X115157Y35827
X116142
X114370Y36811
X129010Y36767
X129921Y35827
X130906
X143504Y36767
X144488Y35827
X145472
X158071Y36767
X159055Y35630
X160039
X173622
X174606
X172835Y36767
X187005
X187795Y35630
X188780
X202559
X201772Y36811
X203543Y35630
X208465Y33071
X209646
X210827
X212008
X213189
X217126Y35630
X218110
X216339Y36767
X108858Y61024
X94291Y60039
Y59055
Y58071
Y57087
X92913Y55315
X92717Y61220
X85630Y60827
X85827Y52756
X85630Y64567
X90189Y68900
X96851Y68110
X96654Y63189
X94488Y64370
X106496Y64961
X108858Y65398
X109252Y69291
X104921Y70276
X111220Y70866
X113386Y69882
X118307Y66732
X119291
X119685Y65354
X132677Y66654
X133661
X134449Y65398
X147244Y66535
X148228
X148819Y65398
X161811Y66535
X162795
X163386Y65354
X176181Y66535
X177165
X177953Y65354
X190748Y66496
X191732Y66535
X192520Y65354
X205118Y66535
X206102
X206890Y65398
X220079Y66535
X221063
X221793Y65433
X224213Y68898
X242735Y66771
T02
X85236Y65748
Y70472
X90039
Y65748
T03
X237433Y38189
X236433
X235433
X92189Y48228
X91189
X90189
X88189
X87189
X86189
X85189
X89354Y62992
X90354
X91354
X235433Y64173
X236433
X237433
T04
X87205Y35720
Y36720
X89567
Y35720
Y40642
Y41642
X87402
Y40642
X84449Y52811
Y53811
Y54811
Y55811
Y56811
Y57811
Y58811
Y59811
Y60811
Y61811
Y62811
Y63811
T05
X231134Y38189
X229134
Y64173
X231134
T06
X84449Y68110
T07
X85213Y38640
X87402
X89591
Y43364
X87402
X85213
X111220Y38189
X113409
X115598
X118504
X120693
X122882
X125709Y38189
X127898
X130087
X133071Y38189
X135260
X137449
X140354
X142543
X144732
X147638
X149827
X152016
X154921
X157110
X159299
X162205
X164394
X166583
X169488
X171677
X173866
X176772
X178961
X181150
X184055
X186244
X188433
X191339
X193528
X195717
X198622
X200811
X203000
X205906
X208094
X210283
X213189
X215378
X217567
X220472
X222661
X224850
X122882Y64173
X120693
X118504
X115598
X113409
X111220
X125787Y64173
X127976
X130165
X133071Y64173
X135260
X137449
X140354
X142543
X144732
X147638
X149827
X152016
X154921
X157110
X159299
X162205
X164394
X166583
X169488
X171677
X173866
X176772
X178961
X181150
X184055
X186244
X188433
X191339
X193528
X195717
X198622
X200811
X203000
X205906
X208094
X210283
X213189
X215378
X217567
X220472
X222661
X224850
T08
X120693Y46063
X168035
X215378
Y56299
X168035
X120693
T09
X99803Y39370
Y43701
M30
