G04*
G04 #@! TF.GenerationSoftware,Altium Limited,Altium Designer,24.1.2 (44)*
G04*
G04 Layer_Color=16711935*
%FSLAX25Y25*%
%MOIN*%
G70*
G04*
G04 #@! TF.SameCoordinates,29FF4F4E-3C6D-470F-9DA1-2895E510F6E9*
G04*
G04*
G04 #@! TF.FilePolarity,Positive*
G04*
G01*
G75*
%ADD12C,0.00394*%
%ADD14C,0.00787*%
%ADD15C,0.01000*%
D12*
X916929Y568504D02*
G03*
X916929Y568504I-1969J0D01*
G01*
X2157087Y346850D02*
G03*
X2157087Y346850I-1969J0D01*
G01*
X2422539Y641870D02*
G03*
X2422539Y641870I-1969J0D01*
G01*
X992520Y686614D02*
G03*
X992520Y686614I-1969J0D01*
G01*
X1211024Y674803D02*
G03*
X1211024Y674803I-1969J0D01*
G01*
X1354724D02*
G03*
X1354724Y674803I-1969J0D01*
G01*
X1500394D02*
G03*
X1500394Y674803I-1969J0D01*
G01*
X1644094D02*
G03*
X1644094Y674803I-1969J0D01*
G01*
X1935433D02*
G03*
X1935433Y674803I-1969J0D01*
G01*
X1789764D02*
G03*
X1789764Y674803I-1969J0D01*
G01*
X2079134D02*
G03*
X2079134Y674803I-1969J0D01*
G01*
X2226772D02*
G03*
X2226772Y674803I-1969J0D01*
G01*
X1137402Y348819D02*
G03*
X1137402Y348819I-1969J0D01*
G01*
X1285039D02*
G03*
X1285039Y348819I-1969J0D01*
G01*
X1430709D02*
G03*
X1430709Y348819I-1969J0D01*
G01*
X1576378Y346850D02*
G03*
X1576378Y346850I-1969J0D01*
G01*
X1724016D02*
G03*
X1724016Y346850I-1969J0D01*
G01*
X1863779D02*
G03*
X1863779Y346850I-1969J0D01*
G01*
X2011417D02*
G03*
X2011417Y346850I-1969J0D01*
G01*
X931102Y564961D02*
Y580709D01*
X911417Y564961D02*
Y580709D01*
X931102D01*
X911417Y564961D02*
X931102D01*
X919665Y397559D02*
X934665D01*
X919665D02*
Y405590D01*
X934665D01*
Y397559D02*
Y405590D01*
X917697Y450709D02*
X932697D01*
X917697D02*
Y458740D01*
X932697D01*
Y450709D02*
Y458740D01*
X919665Y362283D02*
X934665D01*
Y354252D02*
Y362283D01*
X919665Y354252D02*
X934665D01*
X919665D02*
Y362283D01*
X947224D02*
X962224D01*
Y354252D02*
Y362283D01*
X947224Y354252D02*
X962224D01*
X947224D02*
Y362283D01*
X2397008Y696063D02*
X2414016D01*
X2397008Y685827D02*
X2414016D01*
Y696063D01*
X2397008Y685827D02*
Y696063D01*
X2151575Y330709D02*
X2167323D01*
X2151575Y350394D02*
X2167323D01*
Y330709D02*
Y350394D01*
X2151575Y330709D02*
Y350394D01*
X883465Y624764D02*
X923622D01*
X883465Y619449D02*
Y637953D01*
X923622Y619449D02*
Y637953D01*
X883465Y619449D02*
X923622D01*
X883465Y637953D02*
X923622D01*
X2281083Y393386D02*
X2321594D01*
Y373898D02*
Y393386D01*
X2281083Y373898D02*
X2321594D01*
X2281083D02*
Y393386D01*
Y383386D02*
X2291083Y393386D01*
X2281083Y630236D02*
X2321594D01*
X2281083D02*
Y649724D01*
X2321594D01*
Y630236D02*
Y649724D01*
X2311595Y630236D02*
X2321594Y640236D01*
X938189Y666693D02*
Y683701D01*
X927953Y666693D02*
Y683701D01*
Y666693D02*
X938189D01*
X927953Y683701D02*
X938189D01*
X1054035Y671850D02*
Y682480D01*
X1060138Y671850D02*
Y682480D01*
X1054035Y671850D02*
X1060138D01*
X1054035Y682480D02*
X1060138D01*
X843583Y471654D02*
X930197D01*
X843583D02*
Y509055D01*
X930197D01*
Y471654D02*
Y509055D01*
X2408366Y658012D02*
X2424114D01*
X2408366Y638327D02*
X2424114D01*
X2408366D02*
Y658012D01*
X2424114Y638327D02*
Y658012D01*
X2343268Y393110D02*
X2385394D01*
X2343268Y374606D02*
X2385394D01*
X2343268D02*
Y393110D01*
X2385394Y374606D02*
Y393110D01*
X2343268Y387992D02*
X2385394D01*
X2422047Y593858D02*
Y610866D01*
X2432284Y593858D02*
Y610866D01*
X2422047D02*
X2432284D01*
X2422047Y593858D02*
X2432284D01*
X978347Y702756D02*
X994094D01*
X978347Y683071D02*
X994094D01*
X978347D02*
Y702756D01*
X994094Y683071D02*
Y702756D01*
X981653Y658661D02*
X998661D01*
X981653Y648425D02*
X998661D01*
Y658661D01*
X981653Y648425D02*
Y658661D01*
X2343268Y630512D02*
X2385394D01*
X2343268Y649016D02*
X2385394D01*
Y630512D02*
Y649016D01*
X2343268Y630512D02*
Y649016D01*
Y635630D02*
X2385394D01*
X1196850Y690945D02*
X1212598D01*
X1196850Y671260D02*
X1212598D01*
X1196850D02*
Y690945D01*
X1212598Y671260D02*
Y690945D01*
X1340551D02*
X1356299D01*
X1340551Y671260D02*
X1356299D01*
X1340551D02*
Y690945D01*
X1356299Y671260D02*
Y690945D01*
X1486220D02*
X1501968D01*
X1486220Y671260D02*
X1501968D01*
X1486220D02*
Y690945D01*
X1501968Y671260D02*
Y690945D01*
X1629921D02*
X1645669D01*
X1629921Y671260D02*
X1645669D01*
X1629921D02*
Y690945D01*
X1645669Y671260D02*
Y690945D01*
X1921260D02*
X1937008D01*
X1921260Y671260D02*
X1937008D01*
X1921260D02*
Y690945D01*
X1937008Y671260D02*
Y690945D01*
X1775591D02*
X1791339D01*
X1775591Y671260D02*
X1791339D01*
X1775591D02*
Y690945D01*
X1791339Y671260D02*
Y690945D01*
X2064961D02*
X2080709D01*
X2064961Y671260D02*
X2080709D01*
X2064961D02*
Y690945D01*
X2080709Y671260D02*
Y690945D01*
X2212598D02*
X2228346D01*
X2212598Y671260D02*
X2228346D01*
X2212598D02*
Y690945D01*
X2228346Y671260D02*
Y690945D01*
X1131890Y332677D02*
X1147638D01*
X1131890Y352362D02*
X1147638D01*
Y332677D02*
Y352362D01*
X1131890Y332677D02*
Y352362D01*
X1279527Y332677D02*
X1295276D01*
X1279527Y352362D02*
X1295276D01*
Y332677D02*
Y352362D01*
X1279527Y332677D02*
Y352362D01*
X1425197Y332677D02*
X1440945D01*
X1425197Y352362D02*
X1440945D01*
Y332677D02*
Y352362D01*
X1425197Y332677D02*
Y352362D01*
X1570866Y330709D02*
X1586614D01*
X1570866Y350394D02*
X1586614D01*
Y330709D02*
Y350394D01*
X1570866Y330709D02*
Y350394D01*
X1718504Y330709D02*
X1734252D01*
X1718504Y350394D02*
X1734252D01*
Y330709D02*
Y350394D01*
X1718504Y330709D02*
Y350394D01*
X1858268Y330709D02*
X1874016D01*
X1858268Y350394D02*
X1874016D01*
Y330709D02*
Y350394D01*
X1858268Y330709D02*
Y350394D01*
X2005906Y330709D02*
X2021654D01*
X2005906Y350394D02*
X2021654D01*
Y330709D02*
Y350394D01*
X2005906Y330709D02*
Y350394D01*
D14*
X1065079Y394921D02*
X1092244D01*
X1065079D02*
Y420905D01*
X1092244D01*
Y394921D02*
Y420905D01*
X1119291Y660039D02*
X1131890D01*
X1119291D02*
Y666732D01*
X1131890D01*
Y660039D02*
Y666732D01*
X1099606Y660039D02*
X1112205D01*
X1099606D02*
Y666732D01*
X1112205D01*
Y660039D02*
Y666732D01*
X913071Y515276D02*
Y522362D01*
X899685D02*
X913071D01*
X899685Y515276D02*
Y522362D01*
Y515276D02*
X913071D01*
X861417Y516142D02*
Y523228D01*
Y516142D02*
X874803D01*
Y523228D01*
X861417D02*
X874803D01*
X2403150Y602953D02*
Y609646D01*
Y602953D02*
X2415748D01*
Y609646D01*
X2403150D02*
X2415748D01*
X2390158Y370866D02*
X2397244D01*
X2390158Y357480D02*
Y370866D01*
Y357480D02*
X2397244D01*
Y370866D01*
X888976Y608661D02*
Y615748D01*
Y608661D02*
X902362D01*
Y615748D01*
X888976D02*
X902362D01*
X1065079Y576555D02*
X1092244D01*
X1065079D02*
Y602539D01*
X1092244D01*
Y576555D02*
Y602539D01*
X1027835Y546496D02*
X1055000D01*
X1027835D02*
Y572480D01*
X1055000D01*
Y546496D02*
Y572480D01*
X1065079Y515000D02*
X1092244D01*
X1065079D02*
Y540984D01*
X1092244D01*
Y515000D02*
Y540984D01*
X1027835Y484035D02*
X1055000D01*
X1027835D02*
Y510020D01*
X1055000D01*
Y484035D02*
Y510020D01*
X1065079Y453976D02*
X1092244D01*
X1065079D02*
Y479961D01*
X1092244D01*
Y453976D02*
Y479961D01*
X1027677Y424449D02*
X1054842D01*
X1027677D02*
Y450433D01*
X1054842D01*
Y424449D02*
Y450433D01*
X1027835Y606083D02*
X1055000D01*
X1027835D02*
Y632067D01*
X1055000D01*
Y606083D02*
Y632067D01*
X2168996Y423917D02*
X2181398D01*
X2168996Y398917D02*
Y423917D01*
Y398917D02*
X2181398D01*
Y423917D01*
X2122539Y373799D02*
X2185020D01*
Y392776D01*
X2122539D02*
X2185020D01*
X2122539Y373799D02*
Y392776D01*
X2124016Y364764D02*
Y371457D01*
Y364764D02*
X2136614D01*
Y371457D01*
X2124016D02*
X2136614D01*
X2241831Y423917D02*
X2254232D01*
X2241831Y398917D02*
Y423917D01*
Y398917D02*
X2254232D01*
Y423917D01*
X2195374Y373799D02*
X2257854D01*
Y392776D01*
X2195374D02*
X2257854D01*
X2195374Y373799D02*
Y392776D01*
X2196850Y364764D02*
Y371457D01*
Y364764D02*
X2209449D01*
Y371457D01*
X2196850D02*
X2209449D01*
X2177559Y368898D02*
X2184646D01*
X2177559Y355512D02*
Y368898D01*
Y355512D02*
X2184646D01*
Y368898D01*
X2167716D02*
X2174803D01*
X2167716Y355512D02*
Y368898D01*
Y355512D02*
X2174803D01*
Y368898D01*
X1659154Y424117D02*
X1671555D01*
X1659154Y399117D02*
Y424117D01*
Y399117D02*
X1671555D01*
Y424117D01*
X1614173Y364764D02*
Y371457D01*
Y364764D02*
X1626772D01*
Y371457D01*
X1614173D02*
X1626772D01*
X1612697Y373799D02*
X1675177D01*
Y392776D01*
X1612697D02*
X1675177D01*
X1612697Y373799D02*
Y392776D01*
X1539862Y373799D02*
X1602342D01*
Y392776D01*
X1539862D02*
X1602342D01*
X1539862Y373799D02*
Y392776D01*
X1586319Y423917D02*
X1598720D01*
X1586319Y398917D02*
Y423917D01*
Y398917D02*
X1598720D01*
Y423917D01*
X1541339Y364764D02*
Y371457D01*
Y364764D02*
X1553937D01*
Y371457D01*
X1541339D02*
X1553937D01*
X2049705Y649823D02*
X2112185D01*
X2049705Y630847D02*
Y649823D01*
Y630847D02*
X2112185D01*
Y649823D01*
X2195374D02*
X2257854D01*
X2195374Y630847D02*
Y649823D01*
Y630847D02*
X2257854D01*
Y649823D01*
X1976870Y373799D02*
X2039350D01*
Y392776D01*
X1976870D02*
X2039350D01*
X1976870Y373799D02*
Y392776D01*
X2049705Y373799D02*
X2112185D01*
Y392776D01*
X2049705D02*
X2112185D01*
X2049705Y373799D02*
Y392776D01*
X1831201Y373799D02*
X1893681D01*
Y392776D01*
X1831201D02*
X1893681D01*
X1831201Y373799D02*
Y392776D01*
X1904035Y373799D02*
X1966516D01*
Y392776D01*
X1904035D02*
X1966516D01*
X1904035Y373799D02*
Y392776D01*
X1685531Y373799D02*
X1748012D01*
Y392776D01*
X1685531D02*
X1748012D01*
X1685531Y373799D02*
Y392776D01*
X1758366Y373799D02*
X1820846D01*
Y392776D01*
X1758366D02*
X1820846D01*
X1758366Y373799D02*
Y392776D01*
X1394193Y373799D02*
X1456673D01*
Y392776D01*
X1394193D02*
X1456673D01*
X1394193Y373799D02*
Y392776D01*
X1467028Y373799D02*
X1529508D01*
Y392776D01*
X1467028D02*
X1529508D01*
X1467028Y373799D02*
Y392776D01*
X1247736Y373799D02*
X1310217D01*
Y392776D01*
X1247736D02*
X1310217D01*
X1247736Y373799D02*
Y392776D01*
X1321358Y373799D02*
X1383839D01*
Y392776D01*
X1321358D02*
X1383839D01*
X1321358Y373799D02*
Y392776D01*
X1102854Y373799D02*
X1165335D01*
Y392776D01*
X1102854D02*
X1165335D01*
X1102854Y373799D02*
Y392776D01*
X1175689Y373799D02*
X1238169D01*
Y392776D01*
X1175689D02*
X1238169D01*
X1175689Y373799D02*
Y392776D01*
X2122539Y649823D02*
X2185020D01*
X2122539Y630847D02*
Y649823D01*
Y630847D02*
X2185020D01*
Y649823D01*
X1976870D02*
X2039350D01*
X1976870Y630847D02*
Y649823D01*
Y630847D02*
X2039350D01*
Y649823D01*
X1758366D02*
X1820847D01*
X1758366Y630847D02*
Y649823D01*
Y630847D02*
X1820847D01*
Y649823D01*
X1685531D02*
X1748012D01*
X1685531Y630847D02*
Y649823D01*
Y630847D02*
X1748012D01*
Y649823D01*
X1904035D02*
X1966516D01*
X1904035Y630847D02*
Y649823D01*
Y630847D02*
X1966516D01*
Y649823D01*
X1831201D02*
X1893681D01*
X1831201Y630847D02*
Y649823D01*
Y630847D02*
X1893681D01*
Y649823D01*
X1612697D02*
X1675177D01*
X1612697Y630847D02*
Y649823D01*
Y630847D02*
X1675177D01*
Y649823D01*
X1539862D02*
X1602342D01*
X1539862Y630847D02*
Y649823D01*
Y630847D02*
X1602342D01*
Y649823D01*
X1467027D02*
X1529508D01*
X1467027Y630847D02*
Y649823D01*
Y630847D02*
X1529508D01*
Y649823D01*
X1394193D02*
X1456673D01*
X1394193Y630847D02*
Y649823D01*
Y630847D02*
X1456673D01*
Y649823D01*
X842776Y425551D02*
X905256D01*
Y444528D01*
X842776D02*
X905256D01*
X842776Y425551D02*
Y444528D01*
Y378307D02*
X905256D01*
Y397284D01*
X842776D02*
X905256D01*
X842776Y378307D02*
Y397284D01*
X1321358Y649823D02*
X1383839D01*
X1321358Y630847D02*
Y649823D01*
Y630847D02*
X1383839D01*
Y649823D01*
X1248524Y649823D02*
X1311004D01*
X1248524Y630847D02*
Y649823D01*
Y630847D02*
X1311004D01*
Y649823D01*
X1175689Y649823D02*
X1238169D01*
X1175689Y630847D02*
Y649823D01*
Y630847D02*
X1238169D01*
Y649823D01*
X1102854D02*
X1165335D01*
X1102854Y630847D02*
Y649823D01*
Y630847D02*
X1165335D01*
Y649823D01*
X888976Y598819D02*
Y605905D01*
Y598819D02*
X902362D01*
Y605905D01*
X888976D02*
X902362D01*
X920079Y598819D02*
Y605905D01*
X906693D02*
X920079D01*
X906693Y598819D02*
Y605905D01*
Y598819D02*
X920079D01*
Y608661D02*
Y615748D01*
X906693D02*
X920079D01*
X906693Y608661D02*
Y615748D01*
Y608661D02*
X920079D01*
X857087Y358858D02*
Y365551D01*
X844488D02*
X857087D01*
X844488Y358858D02*
Y365551D01*
Y358858D02*
X857087D01*
Y404134D02*
Y410827D01*
X844488D02*
X857087D01*
X844488Y404134D02*
Y410827D01*
Y404134D02*
X857087D01*
Y368701D02*
Y375394D01*
X844488D02*
X857087D01*
X844488Y368701D02*
Y375394D01*
Y368701D02*
X857087D01*
Y413976D02*
Y420669D01*
X844488D02*
X857087D01*
X844488Y413976D02*
Y420669D01*
Y413976D02*
X857087D01*
X931496Y420472D02*
X938583D01*
Y433858D01*
X931496D02*
X938583D01*
X931496Y420472D02*
Y433858D01*
X921653Y420472D02*
X928740D01*
Y433858D01*
X921653D02*
X928740D01*
X921653Y420472D02*
Y433858D01*
X911811Y420472D02*
X918898D01*
Y433858D01*
X911811D02*
X918898D01*
X911811Y420472D02*
Y433858D01*
X2277165Y360827D02*
Y367520D01*
Y360827D02*
X2289764D01*
Y367520D01*
X2277165D02*
X2289764D01*
X2298819Y654134D02*
Y660827D01*
Y654134D02*
X2311417D01*
Y660827D01*
X2298819D02*
X2311417D01*
X917913Y667717D02*
X924606D01*
X917913Y655118D02*
Y667717D01*
Y655118D02*
X924606D01*
Y667717D01*
X943504Y679528D02*
X950197D01*
X943504Y666929D02*
Y679528D01*
Y666929D02*
X950197D01*
Y679528D01*
X1053543Y690158D02*
X1060630D01*
Y703543D01*
X1053543D02*
X1060630D01*
X1053543Y690158D02*
Y703543D01*
X1065354Y690158D02*
X1072441D01*
Y703543D01*
X1065354D02*
X1072441D01*
X1065354Y690158D02*
Y703543D01*
X955118Y666535D02*
X962205D01*
Y679921D01*
X955118D02*
X962205D01*
X955118Y666535D02*
Y679921D01*
X1065551Y679528D02*
X1072244D01*
X1065551Y666929D02*
Y679528D01*
Y666929D02*
X1072244D01*
Y679528D01*
X1085433Y669213D02*
Y681181D01*
X1079921D02*
X1085433D01*
X1079921Y669213D02*
Y681181D01*
Y669213D02*
X1085433D01*
X1098386Y687008D02*
Y706693D01*
X1082716D02*
X1098386D01*
X1082716Y687008D02*
Y706693D01*
Y687008D02*
X1098386D01*
X2380512Y370079D02*
X2387205D01*
X2380512Y357480D02*
Y370079D01*
Y357480D02*
X2387205D01*
Y370079D01*
X2423819Y634252D02*
X2430512D01*
X2423819Y621654D02*
Y634252D01*
Y621654D02*
X2430512D01*
Y634252D01*
X2351969Y354724D02*
Y361811D01*
Y354724D02*
X2365354D01*
Y361811D01*
X2351969D02*
X2365354D01*
X2351969Y364567D02*
Y371654D01*
Y364567D02*
X2365354D01*
Y371654D01*
X2351969D02*
X2365354D01*
X2370472Y370866D02*
X2377559D01*
X2370472Y357480D02*
Y370866D01*
Y357480D02*
X2377559D01*
Y370866D01*
X2413976Y621654D02*
X2420669D01*
Y634252D01*
X2413976D02*
X2420669D01*
X2413976Y621654D02*
Y634252D01*
X1006496Y671654D02*
X1013189D01*
X1006496Y659055D02*
Y671654D01*
Y659055D02*
X1013189D01*
Y671654D01*
X2386221Y628740D02*
X2393307D01*
X2386221Y615354D02*
Y628740D01*
Y615354D02*
X2393307D01*
Y628740D01*
X2396063D02*
X2403150D01*
X2396063Y615354D02*
Y628740D01*
Y615354D02*
X2403150D01*
Y628740D01*
X1016142Y658661D02*
X1023228D01*
Y672047D01*
X1016142D02*
X1023228D01*
X1016142Y658661D02*
Y672047D01*
X977559Y671654D02*
Y678740D01*
Y671654D02*
X990945D01*
Y678740D01*
X977559D02*
X990945D01*
X977559Y661811D02*
Y668898D01*
Y661811D02*
X990945D01*
Y668898D01*
X977559D02*
X990945D01*
X1006496Y691339D02*
X1013189D01*
X1006496Y678740D02*
Y691339D01*
Y678740D02*
X1013189D01*
Y691339D01*
X1016339Y678740D02*
X1023032D01*
Y691339D01*
X1016339D02*
X1023032D01*
X1016339Y678740D02*
Y691339D01*
X2333071Y652756D02*
X2340158D01*
Y666142D01*
X2333071D02*
X2340158D01*
X2333071Y652756D02*
Y666142D01*
X862598Y627165D02*
X869685D01*
Y640551D01*
X862598D02*
X869685D01*
X862598Y627165D02*
Y640551D01*
X2343110Y653543D02*
X2349803D01*
Y666142D01*
X2343110D02*
X2349803D01*
X2343110Y653543D02*
Y666142D01*
X2410039Y662598D02*
X2416732D01*
Y675197D01*
X2410039D02*
X2416732D01*
X2410039Y662598D02*
Y675197D01*
X2376772Y661811D02*
Y668898D01*
X2363386D02*
X2376772D01*
X2363386Y661811D02*
Y668898D01*
Y661811D02*
X2376772D01*
Y651968D02*
Y659055D01*
X2363386D02*
X2376772D01*
X2363386Y651968D02*
Y659055D01*
Y651968D02*
X2376772D01*
X862598Y618898D02*
X869685D01*
X862598Y605512D02*
Y618898D01*
Y605512D02*
X869685D01*
Y618898D01*
X2352756Y652362D02*
X2359842D01*
Y665748D01*
X2352756D02*
X2359842D01*
X2352756Y652362D02*
Y665748D01*
X2390354Y648032D02*
X2397047D01*
X2390354Y635433D02*
Y648032D01*
Y635433D02*
X2397047D01*
Y648032D01*
X2390354Y667717D02*
X2397047D01*
X2390354Y655118D02*
Y667717D01*
Y655118D02*
X2397047D01*
Y667717D01*
X1161811Y652165D02*
Y658858D01*
X1149213D02*
X1161811D01*
X1149213Y652165D02*
Y658858D01*
Y652165D02*
X1161811D01*
X1236220D02*
Y658858D01*
X1223622D02*
X1236220D01*
X1223622Y652165D02*
Y658858D01*
Y652165D02*
X1236220D01*
X1189370Y654724D02*
X1196457D01*
Y668110D01*
X1189370D02*
X1196457D01*
X1189370Y654724D02*
Y668110D01*
X1179528Y654724D02*
X1186614D01*
Y668110D01*
X1179528D02*
X1186614D01*
X1179528Y654724D02*
Y668110D01*
X1309055Y652165D02*
Y658858D01*
X1296457D02*
X1309055D01*
X1296457Y652165D02*
Y658858D01*
Y652165D02*
X1309055D01*
X1381890Y652165D02*
Y658858D01*
X1369291D02*
X1381890D01*
X1369291Y652165D02*
Y658858D01*
Y652165D02*
X1381890D01*
X1333071Y654331D02*
X1340158D01*
Y667717D01*
X1333071D02*
X1340158D01*
X1333071Y654331D02*
Y667717D01*
X1323228Y654331D02*
X1330315D01*
Y667717D01*
X1323228D02*
X1330315D01*
X1323228Y654331D02*
Y667717D01*
X1106004Y599705D02*
X1118406D01*
Y624705D01*
X1106004D02*
X1118406D01*
X1106004Y599705D02*
Y624705D01*
X1178839Y599705D02*
X1191240D01*
Y624705D01*
X1178839D02*
X1191240D01*
X1178839Y599705D02*
Y624705D01*
X1251673Y599705D02*
X1264075D01*
Y624705D01*
X1251673D02*
X1264075D01*
X1251673Y599705D02*
Y624705D01*
X1324508Y599705D02*
X1336909D01*
Y624705D01*
X1324508D02*
X1336909D01*
X1324508Y599705D02*
Y624705D01*
X1454724Y652165D02*
Y658858D01*
X1442126D02*
X1454724D01*
X1442126Y652165D02*
Y658858D01*
Y652165D02*
X1454724D01*
X1527559D02*
Y658858D01*
X1514961D02*
X1527559D01*
X1514961Y652165D02*
Y658858D01*
Y652165D02*
X1527559D01*
X1478740Y653150D02*
X1485827D01*
Y666535D01*
X1478740D02*
X1485827D01*
X1478740Y653150D02*
Y666535D01*
X1468898Y653150D02*
X1475984D01*
Y666535D01*
X1468898D02*
X1475984D01*
X1468898Y653150D02*
Y666535D01*
X1600394Y652165D02*
Y658858D01*
X1587795D02*
X1600394D01*
X1587795Y652165D02*
Y658858D01*
Y652165D02*
X1600394D01*
X1673228D02*
Y658858D01*
X1660630D02*
X1673228D01*
X1660630Y652165D02*
Y658858D01*
Y652165D02*
X1673228D01*
X1614567Y652756D02*
X1621654D01*
Y666142D01*
X1614567D02*
X1621654D01*
X1614567Y652756D02*
Y666142D01*
X1624409Y652756D02*
X1631496D01*
Y666142D01*
X1624409D02*
X1631496D01*
X1624409Y652756D02*
Y666142D01*
X1397342Y599705D02*
X1409744D01*
Y624705D01*
X1397342D02*
X1409744D01*
X1397342Y599705D02*
Y624705D01*
X1470177Y599705D02*
X1482579D01*
Y624705D01*
X1470177D02*
X1482579D01*
X1470177Y599705D02*
Y624705D01*
X1543012Y599705D02*
X1555413D01*
Y624705D01*
X1543012D02*
X1555413D01*
X1543012Y599705D02*
Y624705D01*
X1615846Y599705D02*
X1628248D01*
Y624705D01*
X1615846D02*
X1628248D01*
X1615846Y599705D02*
Y624705D01*
X1891732Y652165D02*
Y658858D01*
X1879134D02*
X1891732D01*
X1879134Y652165D02*
Y658858D01*
Y652165D02*
X1891732D01*
X1964567D02*
Y658858D01*
X1951969D02*
X1964567D01*
X1951969Y652165D02*
Y658858D01*
Y652165D02*
X1964567D01*
X1913779Y652756D02*
X1920866D01*
Y666142D01*
X1913779D02*
X1920866D01*
X1913779Y652756D02*
Y666142D01*
X1903937Y652756D02*
X1911024D01*
Y666142D01*
X1903937D02*
X1911024D01*
X1903937Y652756D02*
Y666142D01*
X1746063Y652165D02*
Y658858D01*
X1733465D02*
X1746063D01*
X1733465Y652165D02*
Y658858D01*
Y652165D02*
X1746063D01*
X1818898D02*
Y658858D01*
X1806299D02*
X1818898D01*
X1806299Y652165D02*
Y658858D01*
Y652165D02*
X1818898D01*
X1768110Y652756D02*
X1775197D01*
Y666142D01*
X1768110D02*
X1775197D01*
X1768110Y652756D02*
Y666142D01*
X1758268Y652756D02*
X1765354D01*
Y666142D01*
X1758268D02*
X1765354D01*
X1758268Y652756D02*
Y666142D01*
X1834350Y599705D02*
X1846752D01*
Y624705D01*
X1834350D02*
X1846752D01*
X1834350Y599705D02*
Y624705D01*
X1907185Y599705D02*
X1919587D01*
Y624705D01*
X1907185D02*
X1919587D01*
X1907185Y599705D02*
Y624705D01*
X1688681Y599705D02*
X1701083D01*
Y624705D01*
X1688681D02*
X1701083D01*
X1688681Y599705D02*
Y624705D01*
X1761516Y599705D02*
X1773917D01*
Y624705D01*
X1761516D02*
X1773917D01*
X1761516Y599705D02*
Y624705D01*
X2037402Y652165D02*
Y658858D01*
X2024803D02*
X2037402D01*
X2024803Y652165D02*
Y658858D01*
Y652165D02*
X2037402D01*
X2110236D02*
Y658858D01*
X2097638D02*
X2110236D01*
X2097638Y652165D02*
Y658858D01*
Y652165D02*
X2110236D01*
X2057480Y653150D02*
X2064567D01*
Y666535D01*
X2057480D02*
X2064567D01*
X2057480Y653150D02*
Y666535D01*
X2047638Y653150D02*
X2054724D01*
Y666535D01*
X2047638D02*
X2054724D01*
X2047638Y653150D02*
Y666535D01*
X2183071Y652165D02*
Y658858D01*
X2170473D02*
X2183071D01*
X2170473Y652165D02*
Y658858D01*
Y652165D02*
X2183071D01*
X2255906D02*
Y658858D01*
X2243307D02*
X2255906D01*
X2243307Y652165D02*
Y658858D01*
Y652165D02*
X2255906D01*
X2207087Y653150D02*
X2214173D01*
Y666535D01*
X2207087D02*
X2214173D01*
X2207087Y653150D02*
Y666535D01*
X2197244Y653150D02*
X2204331D01*
Y666535D01*
X2197244D02*
X2204331D01*
X2197244Y653150D02*
Y666535D01*
X1980020Y599705D02*
X1992421D01*
Y624705D01*
X1980020D02*
X1992421D01*
X1980020Y599705D02*
Y624705D01*
X2052854Y599705D02*
X2065256D01*
Y624705D01*
X2052854D02*
X2065256D01*
X2052854Y599705D02*
Y624705D01*
X2125689Y599705D02*
X2138091D01*
Y624705D01*
X2125689D02*
X2138091D01*
X2125689Y599705D02*
Y624705D01*
X2198524Y599705D02*
X2210925D01*
Y624705D01*
X2198524D02*
X2210925D01*
X2198524Y599705D02*
Y624705D01*
X1177165Y364764D02*
Y371457D01*
Y364764D02*
X1189764D01*
Y371457D01*
X1177165D02*
X1189764D01*
X1104331Y364764D02*
Y371457D01*
Y364764D02*
X1116929D01*
Y371457D01*
X1104331D02*
X1116929D01*
X1157874Y370866D02*
X1164961D01*
X1157874Y357480D02*
Y370866D01*
Y357480D02*
X1164961D01*
Y370866D01*
X1148032D02*
X1155118D01*
X1148032Y357480D02*
Y370866D01*
Y357480D02*
X1155118D01*
Y370866D01*
X1322835Y364764D02*
Y371457D01*
Y364764D02*
X1335433D01*
Y371457D01*
X1322835D02*
X1335433D01*
X1249213Y364764D02*
Y371457D01*
Y364764D02*
X1261811D01*
Y371457D01*
X1249213D02*
X1261811D01*
X1295669Y370866D02*
X1302756D01*
X1295669Y357480D02*
Y370866D01*
Y357480D02*
X1302756D01*
Y370866D01*
X1305512D02*
X1312598D01*
X1305512Y357480D02*
Y370866D01*
Y357480D02*
X1312598D01*
Y370866D01*
X1222146Y423917D02*
X1234547D01*
X1222146Y398917D02*
Y423917D01*
Y398917D02*
X1234547D01*
Y423917D01*
X1149311D02*
X1161713D01*
X1149311Y398917D02*
Y423917D01*
Y398917D02*
X1161713D01*
Y423917D01*
X1367815D02*
X1380217D01*
X1367815Y398917D02*
Y423917D01*
Y398917D02*
X1380217D01*
Y423917D01*
X1294193Y423917D02*
X1306594D01*
X1294193Y398917D02*
Y423917D01*
Y398917D02*
X1306594D01*
Y423917D01*
X1468504Y364764D02*
Y371457D01*
Y364764D02*
X1481102D01*
Y371457D01*
X1468504D02*
X1481102D01*
X1395669Y364764D02*
Y371457D01*
Y364764D02*
X1408268D01*
Y371457D01*
X1395669D02*
X1408268D01*
X1451181Y370866D02*
X1458268D01*
X1451181Y357480D02*
Y370866D01*
Y357480D02*
X1458268D01*
Y370866D01*
X1441339D02*
X1448425D01*
X1441339Y357480D02*
Y370866D01*
Y357480D02*
X1448425D01*
Y370866D01*
X1587008Y369291D02*
X1594094D01*
X1587008Y355906D02*
Y369291D01*
Y355906D02*
X1594094D01*
Y369291D01*
X1596850D02*
X1603937D01*
X1596850Y355906D02*
Y369291D01*
Y355906D02*
X1603937D01*
Y369291D01*
X1513484Y423917D02*
X1525886D01*
X1513484Y398917D02*
Y423917D01*
Y398917D02*
X1525886D01*
Y423917D01*
X1440650D02*
X1453051D01*
X1440650Y398917D02*
Y423917D01*
Y398917D02*
X1453051D01*
Y423917D01*
X1759842Y364764D02*
Y371457D01*
Y364764D02*
X1772441D01*
Y371457D01*
X1759842D02*
X1772441D01*
X1687008Y364764D02*
Y371457D01*
Y364764D02*
X1699606D01*
Y371457D01*
X1687008D02*
X1699606D01*
X1732677Y368898D02*
X1739764D01*
X1732677Y355512D02*
Y368898D01*
Y355512D02*
X1739764D01*
Y368898D01*
X1742520D02*
X1749606D01*
X1742520Y355512D02*
Y368898D01*
Y355512D02*
X1749606D01*
Y368898D01*
X1905512Y364764D02*
Y371457D01*
Y364764D02*
X1918110D01*
Y371457D01*
X1905512D02*
X1918110D01*
X1832677Y364764D02*
Y371457D01*
Y364764D02*
X1845276D01*
Y371457D01*
X1832677D02*
X1845276D01*
X1874409Y368898D02*
X1881496D01*
X1874409Y355512D02*
Y368898D01*
Y355512D02*
X1881496D01*
Y368898D01*
X1884252D02*
X1891339D01*
X1884252Y355512D02*
Y368898D01*
Y355512D02*
X1891339D01*
Y368898D01*
X1804823Y423917D02*
X1817224D01*
X1804823Y398917D02*
Y423917D01*
Y398917D02*
X1817224D01*
Y423917D01*
X1731988D02*
X1744390D01*
X1731988Y398917D02*
Y423917D01*
Y398917D02*
X1744390D01*
Y423917D01*
X1950492D02*
X1962894D01*
X1950492Y398917D02*
Y423917D01*
Y398917D02*
X1962894D01*
Y423917D01*
X1877658D02*
X1890059D01*
X1877658Y398917D02*
Y423917D01*
Y398917D02*
X1890059D01*
Y423917D01*
X2051181Y364764D02*
Y371457D01*
Y364764D02*
X2063779D01*
Y371457D01*
X2051181D02*
X2063779D01*
X1978346Y364764D02*
Y371457D01*
Y364764D02*
X1990945D01*
Y371457D01*
X1978346D02*
X1990945D01*
X2022047Y368898D02*
X2029134D01*
X2022047Y355512D02*
Y368898D01*
Y355512D02*
X2029134D01*
Y368898D01*
X2031890D02*
X2038976D01*
X2031890Y355512D02*
Y368898D01*
Y355512D02*
X2038976D01*
Y368898D01*
X2096161Y423917D02*
X2108563D01*
X2096161Y398917D02*
Y423917D01*
Y398917D02*
X2108563D01*
Y423917D01*
X2023327D02*
X2035728D01*
X2023327Y398917D02*
Y423917D01*
Y398917D02*
X2035728D01*
Y423917D01*
D15*
X838976Y711614D02*
X914173D01*
Y650591D02*
Y711614D01*
X838976Y650591D02*
X914173D01*
X838976D02*
Y711614D01*
M02*
