G04*
G04 #@! TF.GenerationSoftware,Altium Limited,Altium Designer,24.1.2 (44)*
G04*
G04 Layer_Color=255*
%FSLAX25Y25*%
%MOIN*%
G70*
G04*
G04 #@! TF.SameCoordinates,29FF4F4E-3C6D-470F-9DA1-2895E510F6E9*
G04*
G04*
G04 #@! TF.FilePolarity,Positive*
G04*
G01*
G75*
%ADD19R,0.09606X0.22047*%
%ADD20R,0.09606X0.03504*%
G04:AMPARAMS|DCode=21|XSize=23.62mil|YSize=57.09mil|CornerRadius=2.01mil|HoleSize=0mil|Usage=FLASHONLY|Rotation=180.000|XOffset=0mil|YOffset=0mil|HoleType=Round|Shape=RoundedRectangle|*
%AMROUNDEDRECTD21*
21,1,0.02362,0.05307,0,0,180.0*
21,1,0.01961,0.05709,0,0,180.0*
1,1,0.00402,-0.00980,0.02653*
1,1,0.00402,0.00980,0.02653*
1,1,0.00402,0.00980,-0.02653*
1,1,0.00402,-0.00980,-0.02653*
%
%ADD21ROUNDEDRECTD21*%
%ADD22R,0.03937X0.05906*%
%ADD23R,0.18504X0.13504*%
%ADD24R,0.03740X0.06693*%
%ADD25R,0.07874X0.07874*%
%ADD26R,0.06693X0.03740*%
%ADD27R,0.13418X0.06121*%
G04:AMPARAMS|DCode=28|XSize=23.62mil|YSize=57.09mil|CornerRadius=2.01mil|HoleSize=0mil|Usage=FLASHONLY|Rotation=90.000|XOffset=0mil|YOffset=0mil|HoleType=Round|Shape=RoundedRectangle|*
%AMROUNDEDRECTD28*
21,1,0.02362,0.05307,0,0,90.0*
21,1,0.01961,0.05709,0,0,90.0*
1,1,0.00402,0.02653,0.00980*
1,1,0.00402,0.02653,-0.00980*
1,1,0.00402,-0.02653,-0.00980*
1,1,0.00402,-0.02653,0.00980*
%
%ADD28ROUNDEDRECTD28*%
%ADD29R,0.05906X0.03937*%
%ADD30R,0.07874X0.07874*%
%ADD31R,0.03740X0.03543*%
%ADD32R,0.02900X0.02200*%
G04:AMPARAMS|DCode=33|XSize=61.02mil|YSize=23.62mil|CornerRadius=2.01mil|HoleSize=0mil|Usage=FLASHONLY|Rotation=180.000|XOffset=0mil|YOffset=0mil|HoleType=Round|Shape=RoundedRectangle|*
%AMROUNDEDRECTD33*
21,1,0.06102,0.01961,0,0,180.0*
21,1,0.05701,0.02362,0,0,180.0*
1,1,0.00402,-0.02850,0.00980*
1,1,0.00402,0.02850,0.00980*
1,1,0.00402,0.02850,-0.00980*
1,1,0.00402,-0.02850,-0.00980*
%
%ADD33ROUNDEDRECTD33*%
%ADD45C,0.10236*%
%ADD46R,0.10236X0.10236*%
%ADD67C,0.06299*%
G04:AMPARAMS|DCode=68|XSize=62.99mil|YSize=62.99mil|CornerRadius=15.75mil|HoleSize=0mil|Usage=FLASHONLY|Rotation=90.000|XOffset=0mil|YOffset=0mil|HoleType=Round|Shape=RoundedRectangle|*
%AMROUNDEDRECTD68*
21,1,0.06299,0.03150,0,0,90.0*
21,1,0.03150,0.06299,0,0,90.0*
1,1,0.03150,0.01575,0.01575*
1,1,0.03150,0.01575,-0.01575*
1,1,0.03150,-0.01575,-0.01575*
1,1,0.03150,-0.01575,0.01575*
%
%ADD68ROUNDEDRECTD68*%
%ADD69C,0.35000*%
%ADD70R,0.06299X0.06299*%
%ADD71R,0.06555X0.06555*%
%ADD72C,0.06555*%
%ADD73C,0.07244*%
%ADD74C,0.05118*%
%ADD75R,0.05906X0.05906*%
%ADD76C,0.05906*%
%ADD77C,0.06299*%
%ADD78R,0.06299X0.06299*%
D19*
X1088425Y411417D02*
D03*
X1068898D02*
D03*
X1088425Y593051D02*
D03*
X1068898D02*
D03*
X1051181Y562992D02*
D03*
X1031653D02*
D03*
X1088425Y531496D02*
D03*
X1068898D02*
D03*
X1051181Y500531D02*
D03*
X1031653D02*
D03*
X1088425Y470472D02*
D03*
X1068898D02*
D03*
X1051024Y440945D02*
D03*
X1031496D02*
D03*
X1051181Y622579D02*
D03*
X1031653D02*
D03*
D20*
X1088425Y395138D02*
D03*
X1068898D02*
D03*
X1088425Y576772D02*
D03*
X1068898D02*
D03*
X1051181Y546713D02*
D03*
X1031653D02*
D03*
X1088425Y515216D02*
D03*
X1068898D02*
D03*
X1051181Y484252D02*
D03*
X1031653D02*
D03*
X1088425Y454193D02*
D03*
X1068898D02*
D03*
X1051024Y424665D02*
D03*
X1031496D02*
D03*
X1051181Y606299D02*
D03*
X1031653D02*
D03*
D21*
X928760Y583563D02*
D03*
X923760D02*
D03*
X918760D02*
D03*
X913760D02*
D03*
X928760Y562106D02*
D03*
X923760D02*
D03*
X918760D02*
D03*
X913760D02*
D03*
D22*
X1131890Y663386D02*
D03*
X1119291D02*
D03*
X1112205D02*
D03*
X1099606D02*
D03*
X2415748Y606299D02*
D03*
X2403150D02*
D03*
X2136614Y368110D02*
D03*
X2124016D02*
D03*
X2209449D02*
D03*
X2196850D02*
D03*
X1626772D02*
D03*
X1614173D02*
D03*
X1553937D02*
D03*
X1541339D02*
D03*
X844488Y362205D02*
D03*
X857087D02*
D03*
X844488Y407480D02*
D03*
X857087D02*
D03*
X844488Y372047D02*
D03*
X857087D02*
D03*
X844488Y417323D02*
D03*
X857087D02*
D03*
X2289764Y364173D02*
D03*
X2277165D02*
D03*
X2311417Y657480D02*
D03*
X2298819D02*
D03*
X1149213Y655512D02*
D03*
X1161811D02*
D03*
X1223622D02*
D03*
X1236220D02*
D03*
X1296457Y655512D02*
D03*
X1309055D02*
D03*
X1369291Y655512D02*
D03*
X1381890D02*
D03*
X1442126D02*
D03*
X1454724D02*
D03*
X1514961D02*
D03*
X1527559D02*
D03*
X1587795D02*
D03*
X1600394D02*
D03*
X1660630D02*
D03*
X1673228D02*
D03*
X1879134D02*
D03*
X1891732D02*
D03*
X1951969D02*
D03*
X1964567D02*
D03*
X1733465D02*
D03*
X1746063D02*
D03*
X1806299D02*
D03*
X1818898D02*
D03*
X2024803D02*
D03*
X2037402D02*
D03*
X2097638D02*
D03*
X2110236D02*
D03*
X2170473D02*
D03*
X2183071D02*
D03*
X2243307D02*
D03*
X2255906D02*
D03*
X1189764Y368110D02*
D03*
X1177165D02*
D03*
X1116929D02*
D03*
X1104331D02*
D03*
X1335433D02*
D03*
X1322835D02*
D03*
X1261811Y368110D02*
D03*
X1249213D02*
D03*
X1481102Y368110D02*
D03*
X1468504D02*
D03*
X1408268D02*
D03*
X1395669D02*
D03*
X1772441D02*
D03*
X1759842D02*
D03*
X1699606D02*
D03*
X1687008D02*
D03*
X1918110D02*
D03*
X1905512D02*
D03*
X1845276D02*
D03*
X1832677D02*
D03*
X2063779D02*
D03*
X2051181D02*
D03*
X1990945D02*
D03*
X1978346D02*
D03*
D23*
X927165Y401575D02*
D03*
X925197Y454724D02*
D03*
X927165Y358268D02*
D03*
X954724D02*
D03*
D24*
X900866Y518819D02*
D03*
X911890D02*
D03*
X873622Y519685D02*
D03*
X862598D02*
D03*
X901181Y612205D02*
D03*
X890158D02*
D03*
X901181Y602362D02*
D03*
X890158D02*
D03*
X907874D02*
D03*
X918898D02*
D03*
X907874Y612205D02*
D03*
X918898D02*
D03*
X2364173Y358268D02*
D03*
X2353150D02*
D03*
X2364173Y368110D02*
D03*
X2353150D02*
D03*
X989764Y675197D02*
D03*
X978740D02*
D03*
X989764Y665354D02*
D03*
X978740D02*
D03*
X2364567D02*
D03*
X2375591D02*
D03*
X2364567Y655512D02*
D03*
X2375591D02*
D03*
D25*
X2413386Y690945D02*
D03*
X2397638D02*
D03*
X998032Y653543D02*
D03*
X982283D02*
D03*
D26*
X2393701Y358661D02*
D03*
Y369685D02*
D03*
X2181102Y356693D02*
D03*
Y367717D02*
D03*
X2171260Y356693D02*
D03*
Y367717D02*
D03*
X935039Y432677D02*
D03*
Y421654D02*
D03*
X925197Y432677D02*
D03*
Y421654D02*
D03*
X915354Y432677D02*
D03*
Y421654D02*
D03*
X1057087Y702362D02*
D03*
Y691339D02*
D03*
X1068898Y702362D02*
D03*
Y691339D02*
D03*
X958661Y678740D02*
D03*
Y667717D02*
D03*
X2374016Y358661D02*
D03*
Y369685D02*
D03*
X2389764Y616535D02*
D03*
Y627559D02*
D03*
X2399606Y616535D02*
D03*
Y627559D02*
D03*
X1019685Y670866D02*
D03*
Y659842D02*
D03*
X2336614Y664961D02*
D03*
Y653937D02*
D03*
X866142Y639370D02*
D03*
Y628346D02*
D03*
Y606693D02*
D03*
Y617717D02*
D03*
X2356299Y664567D02*
D03*
Y653543D02*
D03*
X1192913Y666929D02*
D03*
Y655905D02*
D03*
X1183071Y666929D02*
D03*
Y655905D02*
D03*
X1336614Y666535D02*
D03*
Y655512D02*
D03*
X1326772Y666535D02*
D03*
Y655512D02*
D03*
X1482283Y665354D02*
D03*
Y654331D02*
D03*
X1472441Y665354D02*
D03*
Y654331D02*
D03*
X1618110Y664961D02*
D03*
Y653937D02*
D03*
X1627953Y664961D02*
D03*
Y653937D02*
D03*
X1917323Y664961D02*
D03*
Y653937D02*
D03*
X1907480Y664961D02*
D03*
Y653937D02*
D03*
X1771654Y664961D02*
D03*
Y653937D02*
D03*
X1761811Y664961D02*
D03*
Y653937D02*
D03*
X2061024Y665354D02*
D03*
Y654331D02*
D03*
X2051181Y665354D02*
D03*
Y654331D02*
D03*
X2210630Y665354D02*
D03*
Y654331D02*
D03*
X2200787Y665354D02*
D03*
Y654331D02*
D03*
X1161417Y358661D02*
D03*
Y369685D02*
D03*
X1151575Y358661D02*
D03*
Y369685D02*
D03*
X1299213Y358661D02*
D03*
Y369685D02*
D03*
X1309055Y358661D02*
D03*
Y369685D02*
D03*
X1454724Y358661D02*
D03*
Y369685D02*
D03*
X1444882Y358661D02*
D03*
Y369685D02*
D03*
X1590551Y357087D02*
D03*
Y368110D02*
D03*
X1600394Y357087D02*
D03*
Y368110D02*
D03*
X1736221Y356693D02*
D03*
Y367717D02*
D03*
X1746063Y356693D02*
D03*
Y367717D02*
D03*
X1877953Y356693D02*
D03*
Y367717D02*
D03*
X1887795Y356693D02*
D03*
Y367717D02*
D03*
X2025591Y356693D02*
D03*
Y367717D02*
D03*
X2035433Y356693D02*
D03*
Y367717D02*
D03*
D27*
X2175197Y399406D02*
D03*
Y423428D02*
D03*
X2248031Y399406D02*
D03*
Y423428D02*
D03*
X1665354Y399606D02*
D03*
Y423628D02*
D03*
X1592520Y399406D02*
D03*
Y423428D02*
D03*
X1112205Y624216D02*
D03*
Y600194D02*
D03*
X1185039Y624216D02*
D03*
Y600194D02*
D03*
X1257874Y624216D02*
D03*
Y600194D02*
D03*
X1330709Y624216D02*
D03*
Y600194D02*
D03*
X1403543Y624216D02*
D03*
Y600194D02*
D03*
X1476378Y624216D02*
D03*
Y600194D02*
D03*
X1549213Y624216D02*
D03*
Y600194D02*
D03*
X1622047Y624216D02*
D03*
Y600194D02*
D03*
X1840551Y624216D02*
D03*
Y600194D02*
D03*
X1913386Y624216D02*
D03*
Y600194D02*
D03*
X1694882Y624216D02*
D03*
Y600194D02*
D03*
X1767716Y624216D02*
D03*
Y600194D02*
D03*
X1986221Y624216D02*
D03*
Y600194D02*
D03*
X2059055Y624216D02*
D03*
Y600194D02*
D03*
X2131890Y624216D02*
D03*
Y600194D02*
D03*
X2204724Y624216D02*
D03*
Y600194D02*
D03*
X1228347Y399406D02*
D03*
Y423428D02*
D03*
X1155512Y399406D02*
D03*
Y423428D02*
D03*
X1374016Y399406D02*
D03*
Y423428D02*
D03*
X1300394Y399406D02*
D03*
Y423428D02*
D03*
X1519685Y399406D02*
D03*
Y423428D02*
D03*
X1446850Y399406D02*
D03*
Y423428D02*
D03*
X1811024Y399406D02*
D03*
Y423428D02*
D03*
X1738189Y399406D02*
D03*
Y423428D02*
D03*
X1956693Y399406D02*
D03*
Y423428D02*
D03*
X1883858Y399406D02*
D03*
Y423428D02*
D03*
X2102362Y399406D02*
D03*
Y423428D02*
D03*
X2029527Y399406D02*
D03*
Y423428D02*
D03*
D28*
X2170177Y333051D02*
D03*
Y338051D02*
D03*
Y343051D02*
D03*
Y348051D02*
D03*
X2148721Y333051D02*
D03*
Y338051D02*
D03*
Y343051D02*
D03*
Y348051D02*
D03*
X2405512Y655669D02*
D03*
Y650669D02*
D03*
Y645669D02*
D03*
Y640669D02*
D03*
X2426969Y655669D02*
D03*
Y650669D02*
D03*
Y645669D02*
D03*
Y640669D02*
D03*
X975492Y700413D02*
D03*
Y695413D02*
D03*
Y690413D02*
D03*
Y685413D02*
D03*
X996949Y700413D02*
D03*
Y695413D02*
D03*
Y690413D02*
D03*
Y685413D02*
D03*
X1193996Y688602D02*
D03*
Y683602D02*
D03*
Y678602D02*
D03*
Y673602D02*
D03*
X1215453Y688602D02*
D03*
Y683602D02*
D03*
Y678602D02*
D03*
Y673602D02*
D03*
X1337697Y688602D02*
D03*
Y683602D02*
D03*
Y678602D02*
D03*
Y673602D02*
D03*
X1359153Y688602D02*
D03*
Y683602D02*
D03*
Y678602D02*
D03*
Y673602D02*
D03*
X1483366Y688602D02*
D03*
Y683602D02*
D03*
Y678602D02*
D03*
Y673602D02*
D03*
X1504823Y688602D02*
D03*
Y683602D02*
D03*
Y678602D02*
D03*
Y673602D02*
D03*
X1627067Y688602D02*
D03*
Y683602D02*
D03*
Y678602D02*
D03*
Y673602D02*
D03*
X1648524Y688602D02*
D03*
Y683602D02*
D03*
Y678602D02*
D03*
Y673602D02*
D03*
X1918406Y688602D02*
D03*
Y683602D02*
D03*
Y678602D02*
D03*
Y673602D02*
D03*
X1939862Y688602D02*
D03*
Y683602D02*
D03*
Y678602D02*
D03*
Y673602D02*
D03*
X1772736Y688602D02*
D03*
Y683602D02*
D03*
Y678602D02*
D03*
Y673602D02*
D03*
X1794193Y688602D02*
D03*
Y683602D02*
D03*
Y678602D02*
D03*
Y673602D02*
D03*
X2062106Y688602D02*
D03*
Y683602D02*
D03*
Y678602D02*
D03*
Y673602D02*
D03*
X2083563Y688602D02*
D03*
Y683602D02*
D03*
Y678602D02*
D03*
Y673602D02*
D03*
X2209744Y688602D02*
D03*
Y683602D02*
D03*
Y678602D02*
D03*
Y673602D02*
D03*
X2231201Y688602D02*
D03*
Y683602D02*
D03*
Y678602D02*
D03*
Y673602D02*
D03*
X1150492Y335020D02*
D03*
Y340020D02*
D03*
Y345020D02*
D03*
Y350020D02*
D03*
X1129035Y335020D02*
D03*
Y340020D02*
D03*
Y345020D02*
D03*
Y350020D02*
D03*
X1298130Y335020D02*
D03*
Y340020D02*
D03*
Y345020D02*
D03*
Y350020D02*
D03*
X1276673Y335020D02*
D03*
Y340020D02*
D03*
Y345020D02*
D03*
Y350020D02*
D03*
X1443799Y335020D02*
D03*
Y340020D02*
D03*
Y345020D02*
D03*
Y350020D02*
D03*
X1422342Y335020D02*
D03*
Y340020D02*
D03*
Y345020D02*
D03*
Y350020D02*
D03*
X1589468Y333051D02*
D03*
Y338051D02*
D03*
Y343051D02*
D03*
Y348051D02*
D03*
X1568012Y333051D02*
D03*
Y338051D02*
D03*
Y343051D02*
D03*
Y348051D02*
D03*
X1737106Y333051D02*
D03*
Y338051D02*
D03*
Y343051D02*
D03*
Y348051D02*
D03*
X1715650Y333051D02*
D03*
Y338051D02*
D03*
Y343051D02*
D03*
Y348051D02*
D03*
X1876870Y333051D02*
D03*
Y338051D02*
D03*
Y343051D02*
D03*
Y348051D02*
D03*
X1855413Y333051D02*
D03*
Y338051D02*
D03*
Y343051D02*
D03*
Y348051D02*
D03*
X2024508Y333051D02*
D03*
Y338051D02*
D03*
Y343051D02*
D03*
Y348051D02*
D03*
X2003051Y333051D02*
D03*
Y338051D02*
D03*
Y343051D02*
D03*
Y348051D02*
D03*
D29*
X921260Y655118D02*
D03*
Y667717D02*
D03*
X946850Y666929D02*
D03*
Y679528D02*
D03*
X1068898Y666929D02*
D03*
Y679528D02*
D03*
X2383858Y357480D02*
D03*
Y370079D02*
D03*
X2427165Y621654D02*
D03*
Y634252D02*
D03*
X2417323D02*
D03*
Y621654D02*
D03*
X1009842Y659055D02*
D03*
Y671654D02*
D03*
Y678740D02*
D03*
Y691339D02*
D03*
X1019685D02*
D03*
Y678740D02*
D03*
X2346457Y666142D02*
D03*
Y653543D02*
D03*
X2413386Y675197D02*
D03*
Y662598D02*
D03*
X2393701Y635433D02*
D03*
Y648032D02*
D03*
Y655118D02*
D03*
Y667717D02*
D03*
D30*
X933071Y667323D02*
D03*
Y683071D02*
D03*
X2427165Y610236D02*
D03*
Y594488D02*
D03*
D31*
X1057087Y670965D02*
D03*
X1057087Y683366D02*
D03*
D32*
X1078777Y675197D02*
D03*
X1086577Y678947D02*
D03*
Y671447D02*
D03*
D33*
X1079921Y689350D02*
D03*
Y694350D02*
D03*
Y699350D02*
D03*
Y704350D02*
D03*
X1101181D02*
D03*
Y699350D02*
D03*
Y694350D02*
D03*
Y689350D02*
D03*
D45*
X2175669Y381890D02*
D03*
X2153779D02*
D03*
X2248504D02*
D03*
X2226614D02*
D03*
X1665827D02*
D03*
X1643937D02*
D03*
X1592992D02*
D03*
X1571102D02*
D03*
X2059055Y641732D02*
D03*
X2080945D02*
D03*
X2204724D02*
D03*
X2226614D02*
D03*
X2030000Y381890D02*
D03*
X2008110D02*
D03*
X2102835D02*
D03*
X2080945D02*
D03*
X1884331D02*
D03*
X1862441D02*
D03*
X1957165D02*
D03*
X1935276D02*
D03*
X1738661D02*
D03*
X1716772D02*
D03*
X1811496D02*
D03*
X1789606D02*
D03*
X1447323D02*
D03*
X1425433D02*
D03*
X1520158D02*
D03*
X1498268D02*
D03*
X1300866Y381890D02*
D03*
X1278976D02*
D03*
X1374488Y381890D02*
D03*
X1352598D02*
D03*
X1155984D02*
D03*
X1134095D02*
D03*
X1228819D02*
D03*
X1206929D02*
D03*
X2131890Y641732D02*
D03*
X2153779D02*
D03*
X1986221D02*
D03*
X2008110D02*
D03*
X1767716D02*
D03*
X1789606D02*
D03*
X1694882D02*
D03*
X1716772D02*
D03*
X1913386D02*
D03*
X1935276D02*
D03*
X1840551D02*
D03*
X1862441D02*
D03*
X1622047D02*
D03*
X1643937D02*
D03*
X1549213D02*
D03*
X1571102D02*
D03*
X1476378D02*
D03*
X1498268D02*
D03*
X1403543D02*
D03*
X1425433D02*
D03*
X895905Y433642D02*
D03*
X874016D02*
D03*
X895905Y386398D02*
D03*
X874016D02*
D03*
X1330709Y641732D02*
D03*
X1352598D02*
D03*
X1257874Y641732D02*
D03*
X1279764D02*
D03*
X1185039Y641732D02*
D03*
X1206929D02*
D03*
X1112205D02*
D03*
X1134095D02*
D03*
D46*
X2131890Y381890D02*
D03*
X2204724D02*
D03*
X1622047D02*
D03*
X1549213D02*
D03*
X2102835Y641732D02*
D03*
X2248504D02*
D03*
X1986221Y381890D02*
D03*
X2059055D02*
D03*
X1840551D02*
D03*
X1913386D02*
D03*
X1694882D02*
D03*
X1767716D02*
D03*
X1403543D02*
D03*
X1476378D02*
D03*
X1257087Y381890D02*
D03*
X1330709Y381890D02*
D03*
X1112205D02*
D03*
X1185039D02*
D03*
X2175669Y641732D02*
D03*
X2030000D02*
D03*
X1811496D02*
D03*
X1738661D02*
D03*
X1957165D02*
D03*
X1884331D02*
D03*
X1665827D02*
D03*
X1592992D02*
D03*
X1520158D02*
D03*
X1447323D02*
D03*
X852126Y433642D02*
D03*
Y386398D02*
D03*
X1374488Y641732D02*
D03*
X1301653Y641732D02*
D03*
X1228819Y641732D02*
D03*
X1155984D02*
D03*
D67*
X895669Y416417D02*
D03*
Y367205D02*
D03*
X844488Y638110D02*
D03*
Y628110D02*
D03*
Y618110D02*
D03*
Y598110D02*
D03*
Y588110D02*
D03*
Y568110D02*
D03*
Y548110D02*
D03*
Y538110D02*
D03*
Y558110D02*
D03*
Y578110D02*
D03*
Y608110D02*
D03*
X874016Y416417D02*
D03*
X872047Y367205D02*
D03*
X893543Y629921D02*
D03*
X903543D02*
D03*
D68*
X895669Y406417D02*
D03*
Y357205D02*
D03*
X844488Y528110D02*
D03*
X874016Y406417D02*
D03*
X872047Y357205D02*
D03*
D69*
X998032Y437008D02*
D03*
Y393701D02*
D03*
D70*
X913543Y629921D02*
D03*
D71*
X2291339Y381890D02*
D03*
X2311339Y641732D02*
D03*
D72*
Y381890D02*
D03*
X2291339Y641732D02*
D03*
D73*
X844488Y681102D02*
D03*
D74*
X852362Y704724D02*
D03*
Y657480D02*
D03*
X900394Y704724D02*
D03*
Y657480D02*
D03*
D75*
X921890Y482283D02*
D03*
D76*
X911890D02*
D03*
X901890D02*
D03*
X881890D02*
D03*
X871890D02*
D03*
X861890D02*
D03*
X851890D02*
D03*
D77*
X2374331Y381890D02*
D03*
X2364331D02*
D03*
X2354331Y641732D02*
D03*
X2364331D02*
D03*
D78*
X2354331Y381890D02*
D03*
X2374331Y641732D02*
D03*
M02*
