G04*
G04 #@! TF.GenerationSoftware,Altium Limited,Altium Designer,24.1.2 (44)*
G04*
G04 Layer_Physical_Order=2*
G04 Layer_Color=16711680*
%FSLAX25Y25*%
%MOIN*%
G70*
G04*
G04 #@! TF.SameCoordinates,29FF4F4E-3C6D-470F-9DA1-2895E510F6E9*
G04*
G04*
G04 #@! TF.FilePolarity,Positive*
G04*
G01*
G75*
%ADD15C,0.01000*%
%ADD45C,0.10236*%
%ADD46R,0.10236X0.10236*%
%ADD58C,0.03937*%
%ADD59C,0.02000*%
%ADD60C,0.01500*%
%ADD61C,0.07874*%
%ADD62C,0.15748*%
%ADD67C,0.06299*%
G04:AMPARAMS|DCode=68|XSize=62.99mil|YSize=62.99mil|CornerRadius=15.75mil|HoleSize=0mil|Usage=FLASHONLY|Rotation=90.000|XOffset=0mil|YOffset=0mil|HoleType=Round|Shape=RoundedRectangle|*
%AMROUNDEDRECTD68*
21,1,0.06299,0.03150,0,0,90.0*
21,1,0.03150,0.06299,0,0,90.0*
1,1,0.03150,0.01575,0.01575*
1,1,0.03150,0.01575,-0.01575*
1,1,0.03150,-0.01575,-0.01575*
1,1,0.03150,-0.01575,0.01575*
%
%ADD68ROUNDEDRECTD68*%
%ADD69C,0.35000*%
%ADD70R,0.06299X0.06299*%
%ADD71R,0.06555X0.06555*%
%ADD72C,0.06555*%
%ADD73C,0.07244*%
%ADD74C,0.05118*%
%ADD75R,0.05906X0.05906*%
%ADD76C,0.05906*%
%ADD77C,0.06299*%
%ADD78R,0.06299X0.06299*%
%ADD79C,0.05000*%
%ADD80C,0.23622*%
G36*
X2440945Y316929D02*
X830709D01*
Y718504D01*
X2440945D01*
Y316929D01*
D02*
G37*
%LPC*%
G36*
X900394Y708314D02*
X899465Y708192D01*
X898599Y707833D01*
X897855Y707263D01*
X897285Y706519D01*
X896926Y705653D01*
X896804Y704724D01*
X896926Y703795D01*
X897285Y702929D01*
X897855Y702186D01*
X898599Y701616D01*
X899465Y701257D01*
X900394Y701135D01*
X901323Y701257D01*
X902189Y701616D01*
X902932Y702186D01*
X903502Y702929D01*
X903861Y703795D01*
X903983Y704724D01*
X903861Y705653D01*
X903502Y706519D01*
X902932Y707263D01*
X902189Y707833D01*
X901323Y708192D01*
X900394Y708314D01*
D02*
G37*
G36*
X852362D02*
X851433Y708192D01*
X850567Y707833D01*
X849824Y707263D01*
X849253Y706519D01*
X848895Y705653D01*
X848772Y704724D01*
X848895Y703795D01*
X849253Y702929D01*
X849824Y702186D01*
X850567Y701616D01*
X851433Y701257D01*
X852362Y701135D01*
X853291Y701257D01*
X854157Y701616D01*
X854900Y702186D01*
X855471Y702929D01*
X855830Y703795D01*
X855952Y704724D01*
X855830Y705653D01*
X855471Y706519D01*
X854900Y707263D01*
X854157Y707833D01*
X853291Y708192D01*
X852362Y708314D01*
D02*
G37*
G36*
X1133858Y702349D02*
X1132945Y702229D01*
X1132093Y701876D01*
X1131362Y701315D01*
X1130816Y700603D01*
X1053150D01*
X1053150Y700603D01*
X1052467Y700467D01*
X1051888Y700081D01*
X1050129Y698322D01*
X1046224D01*
X1045958Y698499D01*
X1045276Y698635D01*
X927165D01*
X926482Y698499D01*
X925904Y698112D01*
X864880Y637088D01*
X864493Y636510D01*
X864357Y635827D01*
Y605070D01*
X849182Y589894D01*
X848241D01*
X848113Y590203D01*
X847448Y591070D01*
X846581Y591735D01*
X845572Y592153D01*
X844488Y592296D01*
X843405Y592153D01*
X842395Y591735D01*
X841529Y591070D01*
X840864Y590203D01*
X840445Y589193D01*
X840303Y588110D01*
X840445Y587027D01*
X840864Y586018D01*
X841529Y585151D01*
X842395Y584486D01*
X843405Y584067D01*
X844488Y583925D01*
X845572Y584067D01*
X846581Y584486D01*
X847448Y585151D01*
X848113Y586018D01*
X848241Y586326D01*
X849921D01*
X850604Y586462D01*
X851183Y586849D01*
X867403Y603069D01*
X867403Y603069D01*
X867790Y603648D01*
X867926Y604331D01*
Y635088D01*
X927904Y695066D01*
X1044641D01*
X1044906Y694889D01*
X1045589Y694753D01*
X1050868D01*
X1051551Y694889D01*
X1052130Y695276D01*
X1053889Y697035D01*
X1130816D01*
X1131362Y696323D01*
X1132093Y695762D01*
X1132945Y695409D01*
X1133858Y695289D01*
X1134772Y695409D01*
X1135623Y695762D01*
X1136355Y696323D01*
X1136915Y697054D01*
X1137268Y697905D01*
X1137389Y698819D01*
X1137268Y699733D01*
X1136915Y700584D01*
X1136355Y701315D01*
X1135623Y701876D01*
X1134772Y702229D01*
X1133858Y702349D01*
D02*
G37*
G36*
X2226352Y686082D02*
X2226352Y686082D01*
X956693D01*
X956693Y686082D01*
X955404Y685912D01*
X954203Y685415D01*
X953172Y684623D01*
X953172Y684623D01*
X919197Y650649D01*
X901575D01*
X901575Y650649D01*
X900286Y650479D01*
X899085Y649982D01*
X898054Y649190D01*
X898054Y649190D01*
X890022Y641159D01*
X889231Y640128D01*
X888733Y638927D01*
X888564Y637638D01*
X888564Y637638D01*
Y629921D01*
X888733Y628632D01*
X889231Y627431D01*
X890022Y626400D01*
X891053Y625609D01*
X892255Y625111D01*
X893543Y624942D01*
X894832Y625111D01*
X896033Y625609D01*
X897064Y626400D01*
X897856Y627431D01*
X898353Y628632D01*
X898523Y629921D01*
Y635575D01*
X903637Y640690D01*
X921260D01*
X921260Y640690D01*
X922549Y640859D01*
X923750Y641357D01*
X924781Y642148D01*
X958755Y676123D01*
X2224289D01*
X2252100Y648312D01*
X2251908Y647850D01*
X2242386D01*
Y635614D01*
X2254622D01*
Y645137D01*
X2255084Y645328D01*
X2262201Y638211D01*
X2263232Y637420D01*
X2264433Y636922D01*
X2265722Y636753D01*
X2291339D01*
X2292627Y636922D01*
X2293828Y637420D01*
X2294860Y638211D01*
X2295651Y639243D01*
X2296148Y640444D01*
X2296318Y641732D01*
X2296148Y643021D01*
X2295651Y644222D01*
X2294860Y645253D01*
X2293828Y646045D01*
X2292627Y646542D01*
X2291339Y646712D01*
X2267785D01*
X2229873Y684623D01*
X2228842Y685415D01*
X2227641Y685912D01*
X2226352Y686082D01*
D02*
G37*
G36*
X901891Y692534D02*
X900977Y692414D01*
X900126Y692061D01*
X899395Y691500D01*
X898834Y690769D01*
X898481Y689917D01*
X898361Y689004D01*
X898478Y688114D01*
X869629Y659265D01*
X855475D01*
X855471Y659275D01*
X854900Y660019D01*
X854157Y660589D01*
X853291Y660948D01*
X852362Y661070D01*
X851433Y660948D01*
X850567Y660589D01*
X849824Y660019D01*
X849253Y659275D01*
X848895Y658409D01*
X848772Y657480D01*
X848895Y656551D01*
X849253Y655685D01*
X849824Y654942D01*
X850567Y654372D01*
X851433Y654013D01*
X852362Y653891D01*
X853291Y654013D01*
X854157Y654372D01*
X854900Y654942D01*
X855471Y655685D01*
X855475Y655696D01*
X870368D01*
X871050Y655832D01*
X871629Y656219D01*
X901001Y685591D01*
X901891Y685473D01*
X902805Y685594D01*
X903656Y685946D01*
X904387Y686507D01*
X904948Y687239D01*
X905301Y688090D01*
X905421Y689004D01*
X905301Y689917D01*
X904948Y690769D01*
X904387Y691500D01*
X903656Y692061D01*
X902805Y692414D01*
X901891Y692534D01*
D02*
G37*
G36*
X844488Y685764D02*
X843282Y685605D01*
X842157Y685140D01*
X841192Y684399D01*
X840451Y683433D01*
X839985Y682309D01*
X839826Y681102D01*
X839985Y679896D01*
X840451Y678771D01*
X841192Y677806D01*
X842157Y677065D01*
X843282Y676599D01*
X844488Y676440D01*
X845695Y676599D01*
X846819Y677065D01*
X847785Y677806D01*
X848526Y678771D01*
X848991Y679896D01*
X849150Y681102D01*
X848991Y682309D01*
X848526Y683433D01*
X847785Y684399D01*
X846819Y685140D01*
X845695Y685605D01*
X844488Y685764D01*
D02*
G37*
G36*
X900394Y661070D02*
X899465Y660948D01*
X898599Y660589D01*
X897855Y660019D01*
X897285Y659275D01*
X896926Y658409D01*
X896804Y657480D01*
X896926Y656551D01*
X897285Y655685D01*
X897855Y654942D01*
X898599Y654372D01*
X899465Y654013D01*
X900394Y653891D01*
X901323Y654013D01*
X902189Y654372D01*
X902932Y654942D01*
X903502Y655685D01*
X903861Y656551D01*
X903983Y657480D01*
X903861Y658409D01*
X903502Y659275D01*
X902932Y660019D01*
X902189Y660589D01*
X901323Y660948D01*
X900394Y661070D01*
D02*
G37*
G36*
X984252Y674271D02*
X982512Y674100D01*
X980840Y673593D01*
X979298Y672768D01*
X977947Y671660D01*
X977947Y671660D01*
X957074Y650787D01*
X956870Y650678D01*
X955519Y649569D01*
X955519Y649569D01*
X948856Y642906D01*
X948803Y642842D01*
X948326Y643049D01*
X948412Y643701D01*
X948292Y644615D01*
X947939Y645466D01*
X947378Y646197D01*
X946647Y646758D01*
X945796Y647111D01*
X944882Y647231D01*
X943968Y647111D01*
X943117Y646758D01*
X942386Y646197D01*
X941825Y645466D01*
X941472Y644615D01*
X941352Y643701D01*
X941427Y643130D01*
X931629Y633332D01*
X931187Y632670D01*
X931032Y631890D01*
Y628264D01*
X931000Y628106D01*
Y613399D01*
X930500Y613300D01*
X930223Y613970D01*
X929662Y614701D01*
X928930Y615262D01*
X928079Y615615D01*
X927165Y615735D01*
X926252Y615615D01*
X926213Y615599D01*
X925880Y615822D01*
X925197Y615957D01*
X887795D01*
X887795Y615957D01*
X887113Y615822D01*
X886534Y615435D01*
X874723Y603624D01*
X874336Y603045D01*
X874200Y602362D01*
Y590345D01*
X845880Y562025D01*
X845572Y562153D01*
X844488Y562296D01*
X843405Y562153D01*
X842395Y561735D01*
X841529Y561070D01*
X840864Y560203D01*
X840445Y559194D01*
X840303Y558110D01*
X840445Y557027D01*
X840864Y556017D01*
X841529Y555151D01*
X842395Y554486D01*
X843405Y554067D01*
X844488Y553925D01*
X845572Y554067D01*
X846581Y554486D01*
X847448Y555151D01*
X848113Y556017D01*
X848531Y557027D01*
X848674Y558110D01*
X848531Y559194D01*
X848403Y559502D01*
X877246Y588345D01*
X877246Y588345D01*
X877633Y588924D01*
X877769Y589606D01*
X877769Y589606D01*
Y601623D01*
X888534Y612389D01*
X923474D01*
X923635Y612205D01*
X923755Y611291D01*
X924108Y610440D01*
X924669Y609708D01*
X925400Y609148D01*
X926252Y608795D01*
X927165Y608674D01*
X928079Y608795D01*
X928930Y609148D01*
X929662Y609708D01*
X930223Y610440D01*
X930500Y611110D01*
X931000Y611010D01*
Y583490D01*
X897659Y550149D01*
X848135D01*
X848113Y550203D01*
X847448Y551070D01*
X846581Y551735D01*
X845572Y552153D01*
X844488Y552296D01*
X843405Y552153D01*
X842395Y551735D01*
X841529Y551070D01*
X840864Y550203D01*
X840445Y549193D01*
X840303Y548110D01*
X840445Y547027D01*
X840864Y546018D01*
X841529Y545151D01*
X842395Y544486D01*
X843405Y544067D01*
X844488Y543925D01*
X845572Y544067D01*
X846581Y544486D01*
X847448Y545151D01*
X848113Y546018D01*
X848135Y546071D01*
X898504D01*
X899284Y546226D01*
X899946Y546668D01*
X933496Y580219D01*
X933996Y580012D01*
Y570866D01*
Y514822D01*
X925197D01*
X925197Y514822D01*
X923908Y514652D01*
X922707Y514155D01*
X921676Y513364D01*
X921676Y513364D01*
X908369Y500057D01*
X907577Y499025D01*
X907080Y497824D01*
X906910Y496535D01*
X906910Y496535D01*
Y487263D01*
X901890D01*
X900601Y487093D01*
X899400Y486596D01*
X898369Y485805D01*
X897577Y484773D01*
X897080Y483572D01*
X896910Y482283D01*
X897080Y480995D01*
X897577Y479794D01*
X898369Y478762D01*
X899400Y477971D01*
X900601Y477473D01*
X901890Y477304D01*
X911890D01*
X913179Y477473D01*
X914380Y477971D01*
X915411Y478762D01*
X916202Y479794D01*
X916700Y480995D01*
X916869Y482283D01*
Y494473D01*
X927260Y504863D01*
X933996D01*
Y372047D01*
X933996Y372047D01*
X934168Y370308D01*
X934675Y368635D01*
X935499Y367093D01*
X936608Y365742D01*
X952356Y349994D01*
X952356Y349994D01*
X953707Y348885D01*
X955249Y348061D01*
X956922Y347554D01*
X958661Y347382D01*
X958661Y347382D01*
X2181102D01*
X2182842Y347554D01*
X2184515Y348061D01*
X2186056Y348885D01*
X2187408Y349994D01*
X2188516Y351345D01*
X2189341Y352887D01*
X2189848Y354560D01*
X2190019Y356299D01*
X2189848Y358039D01*
X2189341Y359712D01*
X2188516Y361253D01*
X2187408Y362604D01*
X2186056Y363713D01*
X2184515Y364537D01*
X2182842Y365045D01*
X2181102Y365216D01*
X2165707D01*
X2165334Y365716D01*
X2165425Y366173D01*
Y367673D01*
X2165270Y368454D01*
X2164828Y369115D01*
X2164166Y369557D01*
X2163386Y369712D01*
X2162605Y369557D01*
X2161944Y369115D01*
X2161502Y368454D01*
X2161347Y367673D01*
Y366173D01*
X2161438Y365716D01*
X2161064Y365216D01*
X1872241D01*
X1871957Y365716D01*
X1872085Y366362D01*
Y367673D01*
X1871930Y368454D01*
X1871488Y369115D01*
X1870826Y369557D01*
X1870046Y369712D01*
X1869266Y369557D01*
X1868604Y369115D01*
X1868162Y368454D01*
X1868007Y367673D01*
Y366362D01*
X1868135Y365716D01*
X1867851Y365216D01*
X1730668D01*
X1730295Y365716D01*
X1730386Y366173D01*
Y367673D01*
X1730230Y368454D01*
X1729788Y369115D01*
X1729127Y369557D01*
X1728346Y369712D01*
X1727566Y369557D01*
X1726904Y369115D01*
X1726463Y368454D01*
X1726307Y367673D01*
Y366173D01*
X1726398Y365716D01*
X1726025Y365216D01*
X1583030D01*
X1582657Y365716D01*
X1582748Y366173D01*
Y367673D01*
X1582593Y368454D01*
X1582151Y369115D01*
X1581489Y369557D01*
X1580709Y369712D01*
X1579928Y369557D01*
X1579267Y369115D01*
X1578825Y368454D01*
X1578669Y367673D01*
Y366173D01*
X1578760Y365716D01*
X1578387Y365216D01*
X1437361D01*
X1436988Y365716D01*
X1437078Y366173D01*
Y367673D01*
X1436923Y368454D01*
X1436481Y369115D01*
X1435820Y369557D01*
X1435039Y369712D01*
X1434259Y369557D01*
X1433597Y369115D01*
X1433155Y368454D01*
X1433000Y367673D01*
Y366173D01*
X1433091Y365716D01*
X1432718Y365216D01*
X1291980D01*
X1291713Y365716D01*
X1291980Y366117D01*
X1292135Y366897D01*
Y367673D01*
X1291980Y368454D01*
X1291538Y369115D01*
X1290877Y369557D01*
X1290096Y369712D01*
X1289316Y369557D01*
X1288654Y369115D01*
X1288212Y368454D01*
X1288057Y367673D01*
Y366897D01*
X1288212Y366117D01*
X1288480Y365716D01*
X1288213Y365216D01*
X962355D01*
X951830Y375741D01*
Y509842D01*
Y570866D01*
Y580709D01*
Y590551D01*
Y600394D01*
Y620322D01*
X961467Y629958D01*
X961467Y629958D01*
X962576Y631310D01*
X962577Y631312D01*
X963094Y631218D01*
X963126Y630976D01*
X963478Y630125D01*
X964039Y629393D01*
X964770Y628832D01*
X965622Y628480D01*
X966535Y628360D01*
X967449Y628480D01*
X968301Y628832D01*
X969032Y629393D01*
X969593Y630125D01*
X969945Y630976D01*
X970066Y631890D01*
X969945Y632803D01*
X969848Y633039D01*
X990791Y653982D01*
X1076138D01*
X1079033Y651088D01*
X1078841Y650626D01*
X1068461D01*
X1068337Y650601D01*
X1068018Y651371D01*
X1067457Y652103D01*
X1066726Y652664D01*
X1065874Y653016D01*
X1064961Y653136D01*
X1064047Y653016D01*
X1063196Y652664D01*
X1062464Y652103D01*
X1061903Y651371D01*
X1061551Y650520D01*
X1061430Y649606D01*
X1061551Y648693D01*
X1061903Y647841D01*
X1062464Y647110D01*
X1063196Y646549D01*
X1064047Y646196D01*
X1064961Y646076D01*
X1065739Y646179D01*
X1066039Y645985D01*
X1066161Y645472D01*
X1065987Y645212D01*
X1065909Y644822D01*
Y445324D01*
X1035030Y416374D01*
X978347D01*
X977956Y416296D01*
X977625Y416075D01*
X963846Y402296D01*
X963625Y401965D01*
X963547Y401575D01*
Y387795D01*
X963625Y387405D01*
X963846Y387074D01*
X977625Y373295D01*
X977956Y373074D01*
X978347Y372996D01*
X2238189D01*
X2238579Y373074D01*
X2238910Y373295D01*
X2239131Y373626D01*
X2239209Y374016D01*
Y649606D01*
X2239131Y649997D01*
X2238910Y650327D01*
X2238579Y650548D01*
X2238189Y650626D01*
X1129037D01*
X1128646Y650548D01*
X1128316Y650327D01*
X1127693Y650296D01*
X1127302Y650688D01*
X1126806Y651019D01*
X1126221Y651136D01*
X1083311D01*
X1078471Y655975D01*
X1078662Y656437D01*
X1086261D01*
X1086634Y655937D01*
X1086543Y655480D01*
Y653980D01*
X1086699Y653200D01*
X1087141Y652538D01*
X1087802Y652096D01*
X1088583Y651941D01*
X1089363Y652096D01*
X1090025Y652538D01*
X1090467Y653200D01*
X1090622Y653980D01*
Y655480D01*
X1090531Y655937D01*
X1090904Y656437D01*
X1342167D01*
X1342540Y655937D01*
X1342449Y655480D01*
Y653980D01*
X1342604Y653200D01*
X1343046Y652538D01*
X1343708Y652096D01*
X1344488Y651941D01*
X1345269Y652096D01*
X1345930Y652538D01*
X1346372Y653200D01*
X1346527Y653980D01*
Y655480D01*
X1346437Y655937D01*
X1346810Y656437D01*
X1485868D01*
X1486241Y655937D01*
X1486150Y655480D01*
Y653980D01*
X1486305Y653200D01*
X1486747Y652538D01*
X1487409Y652096D01*
X1488189Y651941D01*
X1488969Y652096D01*
X1489631Y652538D01*
X1490073Y653200D01*
X1490228Y653980D01*
Y655480D01*
X1490137Y655937D01*
X1490510Y656437D01*
X2210630D01*
X2212370Y656609D01*
X2214042Y657116D01*
X2215584Y657940D01*
X2216935Y659049D01*
X2218044Y660400D01*
X2218868Y661942D01*
X2219375Y663615D01*
X2219547Y665354D01*
X2219375Y667094D01*
X2218868Y668767D01*
X2218044Y670308D01*
X2216935Y671660D01*
X2215584Y672768D01*
X2214042Y673593D01*
X2212370Y674100D01*
X2210630Y674271D01*
X984252D01*
X984252Y674271D01*
D02*
G37*
G36*
X2378480Y645882D02*
X2370181D01*
Y637583D01*
X2378480D01*
Y645882D01*
D02*
G37*
G36*
X2354331Y645918D02*
X2353247Y645775D01*
X2352238Y645357D01*
X2351371Y644692D01*
X2350706Y643825D01*
X2350288Y642815D01*
X2350145Y641732D01*
X2350288Y640649D01*
X2350706Y639640D01*
X2351371Y638773D01*
X2352238Y638108D01*
X2353247Y637689D01*
X2354331Y637547D01*
X2355414Y637689D01*
X2356423Y638108D01*
X2357290Y638773D01*
X2357955Y639640D01*
X2358373Y640649D01*
X2358516Y641732D01*
X2358373Y642815D01*
X2357955Y643825D01*
X2357290Y644692D01*
X2356423Y645357D01*
X2355414Y645775D01*
X2354331Y645918D01*
D02*
G37*
G36*
X2315616Y646010D02*
X2307061D01*
Y637455D01*
X2315616D01*
Y646010D01*
D02*
G37*
G36*
X917693Y634071D02*
X909394D01*
Y625772D01*
X917693D01*
Y634071D01*
D02*
G37*
G36*
X844488Y632296D02*
X843405Y632153D01*
X842395Y631735D01*
X841529Y631070D01*
X840864Y630203D01*
X840445Y629193D01*
X840303Y628110D01*
X840445Y627027D01*
X840864Y626018D01*
X841529Y625151D01*
X842395Y624486D01*
X843405Y624067D01*
X844488Y623925D01*
X845572Y624067D01*
X846581Y624486D01*
X847448Y625151D01*
X848113Y626018D01*
X848531Y627027D01*
X848674Y628110D01*
X848531Y629193D01*
X848113Y630203D01*
X847448Y631070D01*
X846581Y631735D01*
X845572Y632153D01*
X844488Y632296D01*
D02*
G37*
G36*
Y622296D02*
X843405Y622153D01*
X842395Y621735D01*
X841529Y621070D01*
X840864Y620203D01*
X840445Y619194D01*
X840303Y618110D01*
X840445Y617027D01*
X840864Y616017D01*
X841529Y615151D01*
X842395Y614486D01*
X843405Y614067D01*
X844488Y613925D01*
X845572Y614067D01*
X846581Y614486D01*
X847448Y615151D01*
X848113Y616017D01*
X848531Y617027D01*
X848674Y618110D01*
X848531Y619194D01*
X848113Y620203D01*
X847448Y621070D01*
X846581Y621735D01*
X845572Y622153D01*
X844488Y622296D01*
D02*
G37*
G36*
Y612296D02*
X843405Y612153D01*
X842395Y611735D01*
X841529Y611070D01*
X840864Y610203D01*
X840445Y609194D01*
X840303Y608110D01*
X840445Y607027D01*
X840864Y606017D01*
X841529Y605151D01*
X842395Y604486D01*
X843405Y604067D01*
X844488Y603925D01*
X845572Y604067D01*
X846581Y604486D01*
X847448Y605151D01*
X848113Y606017D01*
X848531Y607027D01*
X848674Y608110D01*
X848531Y609194D01*
X848113Y610203D01*
X847448Y611070D01*
X846581Y611735D01*
X845572Y612153D01*
X844488Y612296D01*
D02*
G37*
G36*
Y602296D02*
X843405Y602153D01*
X842395Y601735D01*
X841529Y601070D01*
X840864Y600203D01*
X840445Y599193D01*
X840303Y598110D01*
X840445Y597027D01*
X840864Y596018D01*
X841529Y595151D01*
X842395Y594486D01*
X843405Y594067D01*
X844488Y593925D01*
X845572Y594067D01*
X846581Y594486D01*
X847448Y595151D01*
X848113Y596018D01*
X848531Y597027D01*
X848674Y598110D01*
X848531Y599193D01*
X848113Y600203D01*
X847448Y601070D01*
X846581Y601735D01*
X845572Y602153D01*
X844488Y602296D01*
D02*
G37*
G36*
Y582296D02*
X843405Y582153D01*
X842395Y581735D01*
X841529Y581070D01*
X840864Y580203D01*
X840445Y579193D01*
X840303Y578110D01*
X840445Y577027D01*
X840864Y576018D01*
X841529Y575151D01*
X842395Y574486D01*
X843405Y574067D01*
X844488Y573925D01*
X845572Y574067D01*
X846581Y574486D01*
X847448Y575151D01*
X848113Y576018D01*
X848531Y577027D01*
X848674Y578110D01*
X848531Y579193D01*
X848113Y580203D01*
X847448Y581070D01*
X846581Y581735D01*
X845572Y582153D01*
X844488Y582296D01*
D02*
G37*
G36*
Y572296D02*
X843405Y572153D01*
X842395Y571735D01*
X841529Y571070D01*
X840864Y570203D01*
X840445Y569194D01*
X840303Y568110D01*
X840445Y567027D01*
X840864Y566017D01*
X841529Y565151D01*
X842395Y564486D01*
X843405Y564067D01*
X844488Y563925D01*
X845572Y564067D01*
X846581Y564486D01*
X847448Y565151D01*
X848113Y566017D01*
X848531Y567027D01*
X848674Y568110D01*
X848531Y569194D01*
X848113Y570203D01*
X847448Y571070D01*
X846581Y571735D01*
X845572Y572153D01*
X844488Y572296D01*
D02*
G37*
G36*
Y542296D02*
X843405Y542153D01*
X842395Y541735D01*
X841529Y541070D01*
X840864Y540203D01*
X840445Y539193D01*
X840303Y538110D01*
X840445Y537027D01*
X840864Y536018D01*
X841529Y535151D01*
X842395Y534486D01*
X843405Y534067D01*
X844488Y533925D01*
X845572Y534067D01*
X846581Y534486D01*
X847448Y535151D01*
X848113Y536018D01*
X848531Y537027D01*
X848674Y538110D01*
X848531Y539193D01*
X848113Y540203D01*
X847448Y541070D01*
X846581Y541735D01*
X845572Y542153D01*
X844488Y542296D01*
D02*
G37*
G36*
X929134Y556680D02*
X928220Y556560D01*
X927369Y556207D01*
X926638Y555646D01*
X926077Y554915D01*
X925724Y554063D01*
X925710Y553961D01*
X914114Y542364D01*
X870079D01*
X869304Y542262D01*
X868582Y541963D01*
X867962Y541487D01*
X857457Y530982D01*
X857354Y530969D01*
X856503Y530616D01*
X855772Y530055D01*
X855210Y529324D01*
X854858Y528473D01*
X854737Y527559D01*
X854858Y526645D01*
X855210Y525794D01*
X855772Y525063D01*
X856503Y524502D01*
X857354Y524149D01*
X858268Y524029D01*
X859181Y524149D01*
X860033Y524502D01*
X860764Y525063D01*
X861325Y525794D01*
X861678Y526645D01*
X861691Y526748D01*
X871319Y536376D01*
X915354D01*
X916129Y536478D01*
X916851Y536777D01*
X917472Y537253D01*
X929945Y549726D01*
X930048Y549740D01*
X930899Y550092D01*
X931630Y550653D01*
X932191Y551384D01*
X932544Y552236D01*
X932664Y553150D01*
X932544Y554063D01*
X932191Y554915D01*
X931630Y555646D01*
X930899Y556207D01*
X930048Y556560D01*
X929134Y556680D01*
D02*
G37*
G36*
X846063Y532282D02*
X842913D01*
X842241Y532194D01*
X841615Y531934D01*
X841077Y531521D01*
X840664Y530984D01*
X840405Y530357D01*
X840316Y529685D01*
Y526535D01*
X840405Y525863D01*
X840664Y525237D01*
X841077Y524699D01*
X841615Y524286D01*
X842241Y524027D01*
X842913Y523938D01*
X846063D01*
X846735Y524027D01*
X847361Y524286D01*
X847899Y524699D01*
X848312Y525237D01*
X848571Y525863D01*
X848660Y526535D01*
Y529685D01*
X848571Y530357D01*
X848312Y530984D01*
X847899Y531521D01*
X847361Y531934D01*
X846735Y532194D01*
X846063Y532282D01*
D02*
G37*
G36*
X881890Y486270D02*
X880858Y486134D01*
X879896Y485736D01*
X879071Y485103D01*
X878437Y484277D01*
X878039Y483315D01*
X877903Y482283D01*
X878039Y481252D01*
X878437Y480290D01*
X879071Y479464D01*
X879896Y478831D01*
X880858Y478433D01*
X881890Y478297D01*
X882922Y478433D01*
X883883Y478831D01*
X884709Y479464D01*
X885343Y480290D01*
X885741Y481252D01*
X885877Y482283D01*
X885741Y483315D01*
X885343Y484277D01*
X884709Y485103D01*
X883883Y485736D01*
X882922Y486134D01*
X881890Y486270D01*
D02*
G37*
G36*
X861890D02*
X860858Y486134D01*
X859896Y485736D01*
X859071Y485103D01*
X858437Y484277D01*
X858039Y483315D01*
X857903Y482283D01*
X858039Y481252D01*
X858437Y480290D01*
X859071Y479464D01*
X859896Y478831D01*
X860858Y478433D01*
X861890Y478297D01*
X862922Y478433D01*
X863883Y478831D01*
X864709Y479464D01*
X865343Y480290D01*
X865741Y481252D01*
X865877Y482283D01*
X865741Y483315D01*
X865343Y484277D01*
X864709Y485103D01*
X863883Y485736D01*
X862922Y486134D01*
X861890Y486270D01*
D02*
G37*
G36*
X851890D02*
X850858Y486134D01*
X849896Y485736D01*
X849071Y485103D01*
X848437Y484277D01*
X848039Y483315D01*
X847903Y482283D01*
X848039Y481252D01*
X848437Y480290D01*
X849071Y479464D01*
X849896Y478831D01*
X850858Y478433D01*
X851890Y478297D01*
X852922Y478433D01*
X853883Y478831D01*
X854709Y479464D01*
X855342Y480290D01*
X855741Y481252D01*
X855877Y482283D01*
X855741Y483315D01*
X855342Y484277D01*
X854709Y485103D01*
X853883Y485736D01*
X852922Y486134D01*
X851890Y486270D01*
D02*
G37*
G36*
X858244Y439760D02*
X846008D01*
Y427524D01*
X858244D01*
Y439760D01*
D02*
G37*
G36*
X874016Y439789D02*
X872816Y439671D01*
X871663Y439322D01*
X870600Y438753D01*
X869669Y437989D01*
X868904Y437057D01*
X868336Y435994D01*
X867986Y434841D01*
X867868Y433642D01*
X867986Y432442D01*
X868336Y431289D01*
X868904Y430226D01*
X869669Y429295D01*
X870600Y428530D01*
X871663Y427962D01*
X872816Y427612D01*
X874016Y427494D01*
X875215Y427612D01*
X876368Y427962D01*
X877431Y428530D01*
X878363Y429295D01*
X879127Y430226D01*
X879696Y431289D01*
X880045Y432442D01*
X880163Y433642D01*
X880045Y434841D01*
X879696Y435994D01*
X879127Y437057D01*
X878363Y437989D01*
X877431Y438753D01*
X876368Y439322D01*
X875215Y439671D01*
X874016Y439789D01*
D02*
G37*
G36*
X895669Y420603D02*
X894586Y420460D01*
X893577Y420042D01*
X892710Y419377D01*
X892045Y418510D01*
X891626Y417501D01*
X891484Y416417D01*
X891626Y415334D01*
X892045Y414325D01*
X892710Y413458D01*
X893577Y412793D01*
X894586Y412374D01*
X895669Y412232D01*
X896752Y412374D01*
X897762Y412793D01*
X898629Y413458D01*
X899294Y414325D01*
X899712Y415334D01*
X899855Y416417D01*
X899712Y417501D01*
X899294Y418510D01*
X898629Y419377D01*
X897762Y420042D01*
X896752Y420460D01*
X895669Y420603D01*
D02*
G37*
G36*
X874016D02*
X872933Y420460D01*
X871923Y420042D01*
X871056Y419377D01*
X870391Y418510D01*
X869973Y417501D01*
X869830Y416417D01*
X869973Y415334D01*
X870391Y414325D01*
X871056Y413458D01*
X871923Y412793D01*
X872933Y412374D01*
X874016Y412232D01*
X875099Y412374D01*
X876108Y412793D01*
X876975Y413458D01*
X877640Y414325D01*
X878059Y415334D01*
X878201Y416417D01*
X878059Y417501D01*
X877640Y418510D01*
X876975Y419377D01*
X876108Y420042D01*
X875099Y420460D01*
X874016Y420603D01*
D02*
G37*
G36*
X897244Y410589D02*
X894094D01*
X893422Y410501D01*
X892796Y410241D01*
X892258Y409829D01*
X891845Y409291D01*
X891586Y408664D01*
X891498Y407992D01*
Y404843D01*
X891586Y404170D01*
X891845Y403544D01*
X892258Y403006D01*
X892796Y402593D01*
X893422Y402334D01*
X894094Y402246D01*
X897244D01*
X897916Y402334D01*
X898543Y402593D01*
X899080Y403006D01*
X899493Y403544D01*
X899753Y404170D01*
X899841Y404843D01*
Y407992D01*
X899753Y408664D01*
X899493Y409291D01*
X899080Y409829D01*
X898543Y410241D01*
X897916Y410501D01*
X897244Y410589D01*
D02*
G37*
G36*
X875591D02*
X872441D01*
X871769Y410501D01*
X871142Y410241D01*
X870605Y409829D01*
X870192Y409291D01*
X869932Y408664D01*
X869844Y407992D01*
Y404843D01*
X869932Y404170D01*
X870192Y403544D01*
X870605Y403006D01*
X871142Y402593D01*
X871769Y402334D01*
X872441Y402246D01*
X875591D01*
X876263Y402334D01*
X876889Y402593D01*
X877427Y403006D01*
X877840Y403544D01*
X878099Y404170D01*
X878188Y404843D01*
Y407992D01*
X878099Y408664D01*
X877840Y409291D01*
X877427Y409829D01*
X876889Y410241D01*
X876263Y410501D01*
X875591Y410589D01*
D02*
G37*
G36*
X858244Y392516D02*
X846008D01*
Y380279D01*
X858244D01*
Y392516D01*
D02*
G37*
G36*
X874016Y392545D02*
X872816Y392427D01*
X871663Y392077D01*
X870600Y391509D01*
X869669Y390745D01*
X868904Y389813D01*
X868336Y388750D01*
X867986Y387597D01*
X867868Y386398D01*
X867986Y385198D01*
X868336Y384045D01*
X868904Y382982D01*
X869669Y382051D01*
X870600Y381286D01*
X871663Y380718D01*
X872816Y380368D01*
X874016Y380250D01*
X875215Y380368D01*
X876368Y380718D01*
X877431Y381286D01*
X878363Y382051D01*
X879127Y382982D01*
X879696Y384045D01*
X880045Y385198D01*
X880163Y386398D01*
X880045Y387597D01*
X879696Y388750D01*
X879127Y389813D01*
X878363Y390745D01*
X877431Y391509D01*
X876368Y392077D01*
X875215Y392427D01*
X874016Y392545D01*
D02*
G37*
G36*
X2358480Y386039D02*
X2350181D01*
Y377740D01*
X2358480D01*
Y386039D01*
D02*
G37*
G36*
X2374331Y386075D02*
X2373248Y385933D01*
X2372238Y385514D01*
X2371371Y384849D01*
X2370706Y383982D01*
X2370288Y382973D01*
X2370145Y381890D01*
X2370288Y380806D01*
X2370706Y379797D01*
X2371371Y378930D01*
X2372238Y378265D01*
X2373248Y377847D01*
X2374331Y377704D01*
X2375414Y377847D01*
X2376423Y378265D01*
X2377290Y378930D01*
X2377955Y379797D01*
X2378374Y380806D01*
X2378516Y381890D01*
X2378374Y382973D01*
X2377955Y383982D01*
X2377290Y384849D01*
X2376423Y385514D01*
X2375414Y385933D01*
X2374331Y386075D01*
D02*
G37*
G36*
X2295616Y386167D02*
X2287061D01*
Y377612D01*
X2295616D01*
Y386167D01*
D02*
G37*
G36*
X2311339Y386204D02*
X2310222Y386057D01*
X2309181Y385626D01*
X2308288Y384941D01*
X2307602Y384047D01*
X2307171Y383006D01*
X2307024Y381890D01*
X2307171Y380773D01*
X2307602Y379732D01*
X2308288Y378839D01*
X2309181Y378153D01*
X2310222Y377722D01*
X2311339Y377575D01*
X2312455Y377722D01*
X2313496Y378153D01*
X2314389Y378839D01*
X2315075Y379732D01*
X2315506Y380773D01*
X2315653Y381890D01*
X2315506Y383006D01*
X2315075Y384047D01*
X2314389Y384941D01*
X2313496Y385626D01*
X2312455Y386057D01*
X2311339Y386204D01*
D02*
G37*
G36*
X2248504Y388037D02*
X2247305Y387919D01*
X2246151Y387569D01*
X2245089Y387001D01*
X2244157Y386237D01*
X2243392Y385305D01*
X2242824Y384242D01*
X2242474Y383089D01*
X2242356Y381890D01*
X2242474Y380690D01*
X2242824Y379537D01*
X2243392Y378474D01*
X2244157Y377543D01*
X2245089Y376778D01*
X2246151Y376210D01*
X2247305Y375860D01*
X2248504Y375742D01*
X2249703Y375860D01*
X2250857Y376210D01*
X2251919Y376778D01*
X2252851Y377543D01*
X2253616Y378474D01*
X2254184Y379537D01*
X2254534Y380690D01*
X2254652Y381890D01*
X2254534Y383089D01*
X2254184Y384242D01*
X2253616Y385305D01*
X2252851Y386237D01*
X2251919Y387001D01*
X2250857Y387569D01*
X2249703Y387919D01*
X2248504Y388037D01*
D02*
G37*
G36*
X895669Y371390D02*
X894586Y371248D01*
X893577Y370829D01*
X892710Y370164D01*
X892045Y369297D01*
X891626Y368288D01*
X891484Y367205D01*
X891626Y366122D01*
X892045Y365112D01*
X892710Y364245D01*
X893577Y363580D01*
X894586Y363162D01*
X895669Y363019D01*
X896752Y363162D01*
X897762Y363580D01*
X898629Y364245D01*
X899294Y365112D01*
X899712Y366122D01*
X899855Y367205D01*
X899712Y368288D01*
X899294Y369297D01*
X898629Y370164D01*
X897762Y370829D01*
X896752Y371248D01*
X895669Y371390D01*
D02*
G37*
G36*
X872047D02*
X870964Y371248D01*
X869954Y370829D01*
X869088Y370164D01*
X868423Y369297D01*
X868004Y368288D01*
X867862Y367205D01*
X868004Y366122D01*
X868423Y365112D01*
X869088Y364245D01*
X869954Y363580D01*
X870964Y363162D01*
X872047Y363019D01*
X873131Y363162D01*
X874140Y363580D01*
X875007Y364245D01*
X875672Y365112D01*
X876090Y366122D01*
X876233Y367205D01*
X876090Y368288D01*
X875672Y369297D01*
X875007Y370164D01*
X874140Y370829D01*
X873131Y371248D01*
X872047Y371390D01*
D02*
G37*
G36*
X897244Y361377D02*
X894094D01*
X893422Y361288D01*
X892796Y361029D01*
X892258Y360616D01*
X891845Y360078D01*
X891586Y359452D01*
X891498Y358780D01*
Y355630D01*
X891586Y354958D01*
X891845Y354331D01*
X892258Y353794D01*
X892796Y353381D01*
X893422Y353121D01*
X894094Y353033D01*
X897244D01*
X897916Y353121D01*
X898543Y353381D01*
X899080Y353794D01*
X899493Y354331D01*
X899753Y354958D01*
X899841Y355630D01*
Y358780D01*
X899753Y359452D01*
X899493Y360078D01*
X899080Y360616D01*
X898543Y361029D01*
X897916Y361288D01*
X897244Y361377D01*
D02*
G37*
G36*
X873622D02*
X870473D01*
X869800Y361288D01*
X869174Y361029D01*
X868636Y360616D01*
X868223Y360078D01*
X867964Y359452D01*
X867875Y358780D01*
Y355630D01*
X867964Y354958D01*
X868223Y354331D01*
X868636Y353794D01*
X869174Y353381D01*
X869800Y353121D01*
X870473Y353033D01*
X873622D01*
X874294Y353121D01*
X874921Y353381D01*
X875458Y353794D01*
X875871Y354331D01*
X876131Y354958D01*
X876219Y355630D01*
Y358780D01*
X876131Y359452D01*
X875871Y360078D01*
X875458Y360616D01*
X874921Y361029D01*
X874294Y361288D01*
X873622Y361377D01*
D02*
G37*
G36*
X2242126Y692507D02*
X2241212Y692386D01*
X2240361Y692034D01*
X2239630Y691473D01*
X2239069Y690741D01*
X2238716Y689890D01*
X2238596Y688976D01*
X2238716Y688063D01*
X2239069Y687211D01*
X2239630Y686480D01*
X2240361Y685919D01*
X2241212Y685567D01*
X2241315Y685553D01*
X2253788Y673080D01*
X2254408Y672604D01*
X2255131Y672305D01*
X2255906Y672203D01*
X2418616D01*
X2423924Y666895D01*
X2423937Y666792D01*
X2424290Y665941D01*
X2424353Y665858D01*
Y367564D01*
X2390492Y333703D01*
X2133737D01*
X2133655Y333766D01*
X2132803Y334119D01*
X2131890Y334239D01*
X2130976Y334119D01*
X2130125Y333766D01*
X2130042Y333703D01*
X2121926D01*
X2121844Y333766D01*
X2120992Y334119D01*
X2120079Y334239D01*
X2119165Y334119D01*
X2118314Y333766D01*
X2118231Y333703D01*
X2110115D01*
X2110033Y333766D01*
X2109181Y334119D01*
X2108268Y334239D01*
X2107354Y334119D01*
X2106503Y333766D01*
X2106420Y333703D01*
X2098304D01*
X2098222Y333766D01*
X2097370Y334119D01*
X2096457Y334239D01*
X2095543Y334119D01*
X2094692Y333766D01*
X2094609Y333703D01*
X2086493D01*
X2086411Y333766D01*
X2085559Y334119D01*
X2084646Y334239D01*
X2083732Y334119D01*
X2082881Y333766D01*
X2082798Y333703D01*
X2081823D01*
X2081048Y333601D01*
X2080326Y333302D01*
X2079706Y332826D01*
X2079230Y332206D01*
X2078931Y331484D01*
X2078829Y330709D01*
X2078931Y329934D01*
X2079230Y329212D01*
X2079706Y328591D01*
X2080326Y328116D01*
X2081048Y327817D01*
X2081823Y327714D01*
X2082798D01*
X2082881Y327651D01*
X2083732Y327299D01*
X2084646Y327179D01*
X2085559Y327299D01*
X2086411Y327651D01*
X2086493Y327714D01*
X2094609D01*
X2094692Y327651D01*
X2095543Y327299D01*
X2096457Y327179D01*
X2097370Y327299D01*
X2098222Y327651D01*
X2098304Y327714D01*
X2106420D01*
X2106503Y327651D01*
X2107354Y327299D01*
X2108268Y327179D01*
X2109181Y327299D01*
X2110033Y327651D01*
X2110115Y327714D01*
X2118231D01*
X2118314Y327651D01*
X2119165Y327299D01*
X2120079Y327179D01*
X2120992Y327299D01*
X2121844Y327651D01*
X2121926Y327714D01*
X2130042D01*
X2130125Y327651D01*
X2130976Y327299D01*
X2131890Y327179D01*
X2132803Y327299D01*
X2133655Y327651D01*
X2133737Y327714D01*
X2391732D01*
X2392507Y327817D01*
X2393229Y328116D01*
X2393849Y328591D01*
X2429465Y364207D01*
X2429940Y364827D01*
X2430239Y365549D01*
X2430342Y366324D01*
Y665858D01*
X2430405Y665941D01*
X2430757Y666792D01*
X2430878Y667706D01*
X2430757Y668619D01*
X2430405Y669471D01*
X2429844Y670202D01*
X2429112Y670763D01*
X2428261Y671115D01*
X2428158Y671129D01*
X2421973Y677314D01*
X2421353Y677790D01*
X2420631Y678089D01*
X2419856Y678191D01*
X2257146D01*
X2245549Y689787D01*
X2245536Y689890D01*
X2245183Y690741D01*
X2244622Y691473D01*
X2243891Y692034D01*
X2243040Y692386D01*
X2242126Y692507D01*
D02*
G37*
%LPD*%
G36*
X2238189Y374016D02*
X978347D01*
X964567Y387795D01*
Y401575D01*
X978347Y415354D01*
X1035433D01*
X1066929Y444882D01*
Y644822D01*
X1067391Y645013D01*
X1087053Y625351D01*
Y613395D01*
X1086434Y613037D01*
X1085782Y612385D01*
X1085321Y611587D01*
X1085083Y610697D01*
Y609775D01*
X1085321Y608885D01*
X1085782Y608087D01*
X1086434Y607436D01*
X1087232Y606975D01*
X1088122Y606736D01*
X1089044D01*
X1089934Y606975D01*
X1090732Y607436D01*
X1091383Y608087D01*
X1091844Y608885D01*
X1092083Y609775D01*
Y610697D01*
X1091844Y611587D01*
X1091383Y612385D01*
X1090732Y613037D01*
X1090112Y613395D01*
Y625984D01*
X1089996Y626570D01*
X1089664Y627066D01*
X1068275Y648454D01*
X1068461Y649146D01*
Y649606D01*
X1080514D01*
X1081596Y648525D01*
X1082092Y648193D01*
X1082677Y648077D01*
X1110228D01*
X1110328Y647577D01*
X1109307Y647154D01*
X1108305Y646485D01*
X1107452Y645632D01*
X1106783Y644630D01*
X1106322Y643517D01*
X1106087Y642335D01*
Y641130D01*
X1106322Y639948D01*
X1106783Y638834D01*
X1107452Y637832D01*
X1108305Y636980D01*
X1109307Y636310D01*
X1110420Y635849D01*
X1111602Y635614D01*
X1112807D01*
X1113989Y635849D01*
X1115103Y636310D01*
X1116105Y636980D01*
X1116957Y637832D01*
X1117626Y638834D01*
X1118088Y639948D01*
X1118323Y641130D01*
Y642335D01*
X1118088Y643517D01*
X1117626Y644630D01*
X1116957Y645632D01*
X1116105Y646485D01*
X1115103Y647154D01*
X1114082Y647577D01*
X1114181Y648077D01*
X1125587D01*
X1133013Y640651D01*
X1133509Y640319D01*
X1134095Y640203D01*
X1134680Y640319D01*
X1135176Y640651D01*
X1135507Y641147D01*
X1135624Y641732D01*
X1135507Y642318D01*
X1135176Y642814D01*
X1128845Y649144D01*
X1129037Y649606D01*
X2238189D01*
Y374016D01*
D02*
G37*
%LPC*%
G36*
X1307772Y647850D02*
X1295535D01*
Y635614D01*
X1307772D01*
Y647850D01*
D02*
G37*
G36*
X1258477D02*
X1257271D01*
X1256089Y647615D01*
X1254976Y647154D01*
X1253974Y646485D01*
X1253122Y645632D01*
X1252452Y644630D01*
X1251991Y643517D01*
X1251756Y642335D01*
Y641130D01*
X1251991Y639948D01*
X1252452Y638834D01*
X1253122Y637832D01*
X1253974Y636980D01*
X1254976Y636310D01*
X1256089Y635849D01*
X1257271Y635614D01*
X1258477D01*
X1259659Y635849D01*
X1260772Y636310D01*
X1261774Y636980D01*
X1262626Y637832D01*
X1263296Y638834D01*
X1263757Y639948D01*
X1263992Y641130D01*
Y642335D01*
X1263757Y643517D01*
X1263296Y644630D01*
X1262626Y645632D01*
X1261774Y646485D01*
X1260772Y647154D01*
X1259659Y647615D01*
X1258477Y647850D01*
D02*
G37*
G36*
X2205327Y647850D02*
X2204122D01*
X2202940Y647615D01*
X2201826Y647154D01*
X2200824Y646485D01*
X2199972Y645632D01*
X2199303Y644630D01*
X2198841Y643517D01*
X2198606Y642335D01*
Y641130D01*
X2198841Y639948D01*
X2199303Y638834D01*
X2199972Y637832D01*
X2200824Y636980D01*
X2201826Y636310D01*
X2202940Y635849D01*
X2204122Y635614D01*
X2205327D01*
X2206509Y635849D01*
X2207622Y636310D01*
X2208624Y636980D01*
X2209477Y637832D01*
X2210146Y638834D01*
X2210607Y639948D01*
X2210843Y641130D01*
Y642335D01*
X2210607Y643517D01*
X2210146Y644630D01*
X2209477Y645632D01*
X2208624Y646485D01*
X2207622Y647154D01*
X2206509Y647615D01*
X2205327Y647850D01*
D02*
G37*
G36*
X2181787D02*
X2169551D01*
Y635614D01*
X2181787D01*
Y647850D01*
D02*
G37*
G36*
X2132492D02*
X2131287D01*
X2130105Y647615D01*
X2128992Y647154D01*
X2127990Y646485D01*
X2127138Y645632D01*
X2126468Y644630D01*
X2126007Y643517D01*
X2125772Y642335D01*
Y641130D01*
X2126007Y639948D01*
X2126468Y638834D01*
X2127138Y637832D01*
X2127990Y636980D01*
X2128992Y636310D01*
X2130105Y635849D01*
X2131287Y635614D01*
X2132492D01*
X2133674Y635849D01*
X2134788Y636310D01*
X2135790Y636980D01*
X2136642Y637832D01*
X2137312Y638834D01*
X2137773Y639948D01*
X2138008Y641130D01*
Y642335D01*
X2137773Y643517D01*
X2137312Y644630D01*
X2136642Y645632D01*
X2135790Y646485D01*
X2134788Y647154D01*
X2133674Y647615D01*
X2132492Y647850D01*
D02*
G37*
G36*
X2108953D02*
X2096716D01*
Y635614D01*
X2108953D01*
Y647850D01*
D02*
G37*
G36*
X2059658D02*
X2058452D01*
X2057270Y647615D01*
X2056157Y647154D01*
X2055155Y646485D01*
X2054303Y645632D01*
X2053633Y644630D01*
X2053172Y643517D01*
X2052937Y642335D01*
Y641130D01*
X2053172Y639948D01*
X2053633Y638834D01*
X2054303Y637832D01*
X2055155Y636980D01*
X2056157Y636310D01*
X2057270Y635849D01*
X2058452Y635614D01*
X2059658D01*
X2060840Y635849D01*
X2061953Y636310D01*
X2062955Y636980D01*
X2063807Y637832D01*
X2064477Y638834D01*
X2064938Y639948D01*
X2065173Y641130D01*
Y642335D01*
X2064938Y643517D01*
X2064477Y644630D01*
X2063807Y645632D01*
X2062955Y646485D01*
X2061953Y647154D01*
X2060840Y647615D01*
X2059658Y647850D01*
D02*
G37*
G36*
X2036118D02*
X2023882D01*
Y635614D01*
X2036118D01*
Y647850D01*
D02*
G37*
G36*
X1986823D02*
X1985618D01*
X1984436Y647615D01*
X1983323Y647154D01*
X1982320Y646485D01*
X1981468Y645632D01*
X1980799Y644630D01*
X1980338Y643517D01*
X1980102Y642335D01*
Y641130D01*
X1980338Y639948D01*
X1980799Y638834D01*
X1981468Y637832D01*
X1982320Y636980D01*
X1983323Y636310D01*
X1984436Y635849D01*
X1985618Y635614D01*
X1986823D01*
X1988005Y635849D01*
X1989119Y636310D01*
X1990121Y636980D01*
X1990973Y637832D01*
X1991642Y638834D01*
X1992104Y639948D01*
X1992339Y641130D01*
Y642335D01*
X1992104Y643517D01*
X1991642Y644630D01*
X1990973Y645632D01*
X1990121Y646485D01*
X1989119Y647154D01*
X1988005Y647615D01*
X1986823Y647850D01*
D02*
G37*
G36*
X1963284D02*
X1951047D01*
Y635614D01*
X1963284D01*
Y647850D01*
D02*
G37*
G36*
X1913988D02*
X1912783D01*
X1911601Y647615D01*
X1910488Y647154D01*
X1909486Y646485D01*
X1908634Y645632D01*
X1907964Y644630D01*
X1907503Y643517D01*
X1907268Y642335D01*
Y641130D01*
X1907503Y639948D01*
X1907964Y638834D01*
X1908634Y637832D01*
X1909486Y636980D01*
X1910488Y636310D01*
X1911601Y635849D01*
X1912783Y635614D01*
X1913988D01*
X1915170Y635849D01*
X1916284Y636310D01*
X1917286Y636980D01*
X1918138Y637832D01*
X1918808Y638834D01*
X1919269Y639948D01*
X1919504Y641130D01*
Y642335D01*
X1919269Y643517D01*
X1918808Y644630D01*
X1918138Y645632D01*
X1917286Y646485D01*
X1916284Y647154D01*
X1915170Y647615D01*
X1913988Y647850D01*
D02*
G37*
G36*
X1890449D02*
X1878213D01*
Y635614D01*
X1890449D01*
Y647850D01*
D02*
G37*
G36*
X1841154D02*
X1839949D01*
X1838767Y647615D01*
X1837653Y647154D01*
X1836651Y646485D01*
X1835799Y645632D01*
X1835129Y644630D01*
X1834668Y643517D01*
X1834433Y642335D01*
Y641130D01*
X1834668Y639948D01*
X1835129Y638834D01*
X1835799Y637832D01*
X1836651Y636980D01*
X1837653Y636310D01*
X1838767Y635849D01*
X1839949Y635614D01*
X1841154D01*
X1842336Y635849D01*
X1843449Y636310D01*
X1844451Y636980D01*
X1845303Y637832D01*
X1845973Y638834D01*
X1846434Y639948D01*
X1846669Y641130D01*
Y642335D01*
X1846434Y643517D01*
X1845973Y644630D01*
X1845303Y645632D01*
X1844451Y646485D01*
X1843449Y647154D01*
X1842336Y647615D01*
X1841154Y647850D01*
D02*
G37*
G36*
X1817614D02*
X1805378D01*
Y635614D01*
X1817614D01*
Y647850D01*
D02*
G37*
G36*
X1768319D02*
X1767114D01*
X1765932Y647615D01*
X1764819Y647154D01*
X1763816Y646485D01*
X1762964Y645632D01*
X1762295Y644630D01*
X1761834Y643517D01*
X1761598Y642335D01*
Y641130D01*
X1761834Y639948D01*
X1762295Y638834D01*
X1762964Y637832D01*
X1763816Y636980D01*
X1764819Y636310D01*
X1765932Y635849D01*
X1767114Y635614D01*
X1768319D01*
X1769501Y635849D01*
X1770615Y636310D01*
X1771617Y636980D01*
X1772469Y637832D01*
X1773138Y638834D01*
X1773599Y639948D01*
X1773835Y641130D01*
Y642335D01*
X1773599Y643517D01*
X1773138Y644630D01*
X1772469Y645632D01*
X1771617Y646485D01*
X1770615Y647154D01*
X1769501Y647615D01*
X1768319Y647850D01*
D02*
G37*
G36*
X1744780D02*
X1732543D01*
Y635614D01*
X1744780D01*
Y647850D01*
D02*
G37*
G36*
X1695485D02*
X1694279D01*
X1693097Y647615D01*
X1691984Y647154D01*
X1690982Y646485D01*
X1690130Y645632D01*
X1689460Y644630D01*
X1688999Y643517D01*
X1688764Y642335D01*
Y641130D01*
X1688999Y639948D01*
X1689460Y638834D01*
X1690130Y637832D01*
X1690982Y636980D01*
X1691984Y636310D01*
X1693097Y635849D01*
X1694279Y635614D01*
X1695485D01*
X1696667Y635849D01*
X1697780Y636310D01*
X1698782Y636980D01*
X1699634Y637832D01*
X1700304Y638834D01*
X1700765Y639948D01*
X1701000Y641130D01*
Y642335D01*
X1700765Y643517D01*
X1700304Y644630D01*
X1699634Y645632D01*
X1698782Y646485D01*
X1697780Y647154D01*
X1696667Y647615D01*
X1695485Y647850D01*
D02*
G37*
G36*
X1671945D02*
X1659709D01*
Y635614D01*
X1671945D01*
Y647850D01*
D02*
G37*
G36*
X1622650D02*
X1621445D01*
X1620263Y647615D01*
X1619149Y647154D01*
X1618147Y646485D01*
X1617295Y645632D01*
X1616625Y644630D01*
X1616164Y643517D01*
X1615929Y642335D01*
Y641130D01*
X1616164Y639948D01*
X1616625Y638834D01*
X1617295Y637832D01*
X1618147Y636980D01*
X1619149Y636310D01*
X1620263Y635849D01*
X1621445Y635614D01*
X1622650D01*
X1623832Y635849D01*
X1624945Y636310D01*
X1625947Y636980D01*
X1626800Y637832D01*
X1627469Y638834D01*
X1627930Y639948D01*
X1628165Y641130D01*
Y642335D01*
X1627930Y643517D01*
X1627469Y644630D01*
X1626800Y645632D01*
X1625947Y646485D01*
X1624945Y647154D01*
X1623832Y647615D01*
X1622650Y647850D01*
D02*
G37*
G36*
X1599110D02*
X1586874D01*
Y635614D01*
X1599110D01*
Y647850D01*
D02*
G37*
G36*
X1549815D02*
X1548610D01*
X1547428Y647615D01*
X1546315Y647154D01*
X1545312Y646485D01*
X1544460Y645632D01*
X1543791Y644630D01*
X1543330Y643517D01*
X1543095Y642335D01*
Y641130D01*
X1543330Y639948D01*
X1543791Y638834D01*
X1544460Y637832D01*
X1545312Y636980D01*
X1546315Y636310D01*
X1547428Y635849D01*
X1548610Y635614D01*
X1549815D01*
X1550997Y635849D01*
X1552111Y636310D01*
X1553113Y636980D01*
X1553965Y637832D01*
X1554634Y638834D01*
X1555096Y639948D01*
X1555331Y641130D01*
Y642335D01*
X1555096Y643517D01*
X1554634Y644630D01*
X1553965Y645632D01*
X1553113Y646485D01*
X1552111Y647154D01*
X1550997Y647615D01*
X1549815Y647850D01*
D02*
G37*
G36*
X1526276D02*
X1514039D01*
Y635614D01*
X1526276D01*
Y647850D01*
D02*
G37*
G36*
X1476980D02*
X1475775D01*
X1474593Y647615D01*
X1473480Y647154D01*
X1472478Y646485D01*
X1471626Y645632D01*
X1470956Y644630D01*
X1470495Y643517D01*
X1470260Y642335D01*
Y641130D01*
X1470495Y639948D01*
X1470956Y638834D01*
X1471626Y637832D01*
X1472478Y636980D01*
X1473480Y636310D01*
X1474593Y635849D01*
X1475775Y635614D01*
X1476980D01*
X1478162Y635849D01*
X1479276Y636310D01*
X1480278Y636980D01*
X1481130Y637832D01*
X1481800Y638834D01*
X1482261Y639948D01*
X1482496Y641130D01*
Y642335D01*
X1482261Y643517D01*
X1481800Y644630D01*
X1481130Y645632D01*
X1480278Y646485D01*
X1479276Y647154D01*
X1478162Y647615D01*
X1476980Y647850D01*
D02*
G37*
G36*
X1453441D02*
X1441205D01*
Y635614D01*
X1453441D01*
Y647850D01*
D02*
G37*
G36*
X1404146D02*
X1402941D01*
X1401759Y647615D01*
X1400645Y647154D01*
X1399643Y646485D01*
X1398791Y645632D01*
X1398121Y644630D01*
X1397660Y643517D01*
X1397425Y642335D01*
Y641130D01*
X1397660Y639948D01*
X1398121Y638834D01*
X1398791Y637832D01*
X1399643Y636980D01*
X1400645Y636310D01*
X1401759Y635849D01*
X1402941Y635614D01*
X1404146D01*
X1405328Y635849D01*
X1406441Y636310D01*
X1407443Y636980D01*
X1408296Y637832D01*
X1408965Y638834D01*
X1409426Y639948D01*
X1409661Y641130D01*
Y642335D01*
X1409426Y643517D01*
X1408965Y644630D01*
X1408296Y645632D01*
X1407443Y646485D01*
X1406441Y647154D01*
X1405328Y647615D01*
X1404146Y647850D01*
D02*
G37*
G36*
X1380606D02*
X1368370D01*
Y635614D01*
X1380606D01*
Y647850D01*
D02*
G37*
G36*
X1331311D02*
X1330106D01*
X1328924Y647615D01*
X1327811Y647154D01*
X1326809Y646485D01*
X1325956Y645632D01*
X1325287Y644630D01*
X1324826Y643517D01*
X1324591Y642335D01*
Y641130D01*
X1324826Y639948D01*
X1325287Y638834D01*
X1325956Y637832D01*
X1326809Y636980D01*
X1327811Y636310D01*
X1328924Y635849D01*
X1330106Y635614D01*
X1331311D01*
X1332493Y635849D01*
X1333607Y636310D01*
X1334609Y636980D01*
X1335461Y637832D01*
X1336131Y638834D01*
X1336592Y639948D01*
X1336827Y641130D01*
Y642335D01*
X1336592Y643517D01*
X1336131Y644630D01*
X1335461Y645632D01*
X1334609Y646485D01*
X1333607Y647154D01*
X1332493Y647615D01*
X1331311Y647850D01*
D02*
G37*
G36*
X1234937D02*
X1222701D01*
Y635614D01*
X1234937D01*
Y647850D01*
D02*
G37*
G36*
X1185642D02*
X1184437D01*
X1183255Y647615D01*
X1182141Y647154D01*
X1181139Y646485D01*
X1180287Y645632D01*
X1179618Y644630D01*
X1179156Y643517D01*
X1178921Y642335D01*
Y641130D01*
X1179156Y639948D01*
X1179618Y638834D01*
X1180287Y637832D01*
X1181139Y636980D01*
X1182141Y636310D01*
X1183255Y635849D01*
X1184437Y635614D01*
X1185642D01*
X1186824Y635849D01*
X1187937Y636310D01*
X1188939Y636980D01*
X1189792Y637832D01*
X1190461Y638834D01*
X1190922Y639948D01*
X1191158Y641130D01*
Y642335D01*
X1190922Y643517D01*
X1190461Y644630D01*
X1189792Y645632D01*
X1188939Y646485D01*
X1187937Y647154D01*
X1186824Y647615D01*
X1185642Y647850D01*
D02*
G37*
G36*
X1162102D02*
X1149866D01*
Y635614D01*
X1162102D01*
Y647850D01*
D02*
G37*
G36*
X2154788Y575803D02*
X2152771D01*
X2150780Y575488D01*
X2148862Y574865D01*
X2147065Y573949D01*
X2145434Y572764D01*
X2144008Y571338D01*
X2142823Y569707D01*
X2141907Y567910D01*
X2141284Y565992D01*
X2140969Y564000D01*
Y561984D01*
X2141284Y559992D01*
X2141907Y558074D01*
X2142823Y556278D01*
X2144008Y554646D01*
X2145434Y553220D01*
X2147065Y552035D01*
X2148862Y551120D01*
X2150780Y550497D01*
X2152771Y550181D01*
X2154788D01*
X2156779Y550497D01*
X2158697Y551120D01*
X2160494Y552035D01*
X2162125Y553220D01*
X2163551Y554646D01*
X2164737Y556278D01*
X2165652Y558074D01*
X2166275Y559992D01*
X2166591Y561984D01*
Y564000D01*
X2166275Y565992D01*
X2165652Y567910D01*
X2164737Y569707D01*
X2163551Y571338D01*
X2162125Y572764D01*
X2160494Y573949D01*
X2158697Y574865D01*
X2156779Y575488D01*
X2154788Y575803D01*
D02*
G37*
G36*
X1681363D02*
X1679346D01*
X1677354Y575488D01*
X1675437Y574865D01*
X1673640Y573949D01*
X1672009Y572764D01*
X1670583Y571338D01*
X1669397Y569707D01*
X1668482Y567910D01*
X1667859Y565992D01*
X1667543Y564000D01*
Y561984D01*
X1667859Y559992D01*
X1668482Y558074D01*
X1669397Y556278D01*
X1670583Y554646D01*
X1672009Y553220D01*
X1673640Y552035D01*
X1675437Y551120D01*
X1677354Y550497D01*
X1679346Y550181D01*
X1681363D01*
X1683354Y550497D01*
X1685272Y551120D01*
X1687069Y552035D01*
X1688700Y553220D01*
X1690126Y554646D01*
X1691311Y556278D01*
X1692227Y558074D01*
X1692850Y559992D01*
X1693165Y561984D01*
Y564000D01*
X1692850Y565992D01*
X1692227Y567910D01*
X1691311Y569707D01*
X1690126Y571338D01*
X1688700Y572764D01*
X1687069Y573949D01*
X1685272Y574865D01*
X1683354Y575488D01*
X1681363Y575803D01*
D02*
G37*
G36*
X1207937D02*
X1205921D01*
X1203929Y575488D01*
X1202011Y574865D01*
X1200215Y573949D01*
X1198583Y572764D01*
X1197157Y571338D01*
X1195972Y569707D01*
X1195057Y567910D01*
X1194434Y565992D01*
X1194118Y564000D01*
Y561984D01*
X1194434Y559992D01*
X1195057Y558074D01*
X1195972Y556278D01*
X1197157Y554646D01*
X1198583Y553220D01*
X1200215Y552035D01*
X1202011Y551120D01*
X1203929Y550497D01*
X1205921Y550181D01*
X1207937D01*
X1209929Y550497D01*
X1211847Y551120D01*
X1213644Y552035D01*
X1215275Y553220D01*
X1216701Y554646D01*
X1217886Y556278D01*
X1218802Y558074D01*
X1219425Y559992D01*
X1219740Y561984D01*
Y564000D01*
X1219425Y565992D01*
X1218802Y567910D01*
X1217886Y569707D01*
X1216701Y571338D01*
X1215275Y572764D01*
X1213644Y573949D01*
X1211847Y574865D01*
X1209929Y575488D01*
X1207937Y575803D01*
D02*
G37*
G36*
X2154788Y473441D02*
X2152771D01*
X2150780Y473126D01*
X2148862Y472502D01*
X2147065Y471587D01*
X2145434Y470402D01*
X2144008Y468976D01*
X2142823Y467344D01*
X2141907Y465548D01*
X2141284Y463630D01*
X2140969Y461638D01*
Y459622D01*
X2141284Y457630D01*
X2141907Y455712D01*
X2142823Y453916D01*
X2144008Y452284D01*
X2145434Y450858D01*
X2147065Y449673D01*
X2148862Y448758D01*
X2150780Y448134D01*
X2152771Y447819D01*
X2154788D01*
X2156779Y448134D01*
X2158697Y448758D01*
X2160494Y449673D01*
X2162125Y450858D01*
X2163551Y452284D01*
X2164737Y453916D01*
X2165652Y455712D01*
X2166275Y457630D01*
X2166591Y459622D01*
Y461638D01*
X2166275Y463630D01*
X2165652Y465548D01*
X2164737Y467344D01*
X2163551Y468976D01*
X2162125Y470402D01*
X2160494Y471587D01*
X2158697Y472502D01*
X2156779Y473126D01*
X2154788Y473441D01*
D02*
G37*
G36*
X1681363D02*
X1679346D01*
X1677354Y473126D01*
X1675437Y472502D01*
X1673640Y471587D01*
X1672009Y470402D01*
X1670583Y468976D01*
X1669397Y467344D01*
X1668482Y465548D01*
X1667859Y463630D01*
X1667543Y461638D01*
Y459622D01*
X1667859Y457630D01*
X1668482Y455712D01*
X1669397Y453916D01*
X1670583Y452284D01*
X1672009Y450858D01*
X1673640Y449673D01*
X1675437Y448758D01*
X1677354Y448134D01*
X1679346Y447819D01*
X1681363D01*
X1683354Y448134D01*
X1685272Y448758D01*
X1687069Y449673D01*
X1688700Y450858D01*
X1690126Y452284D01*
X1691311Y453916D01*
X1692227Y455712D01*
X1692850Y457630D01*
X1693165Y459622D01*
Y461638D01*
X1692850Y463630D01*
X1692227Y465548D01*
X1691311Y467344D01*
X1690126Y468976D01*
X1688700Y470402D01*
X1687069Y471587D01*
X1685272Y472502D01*
X1683354Y473126D01*
X1681363Y473441D01*
D02*
G37*
G36*
X1207937D02*
X1205921D01*
X1203929Y473126D01*
X1202011Y472502D01*
X1200215Y471587D01*
X1198583Y470402D01*
X1197157Y468976D01*
X1195972Y467344D01*
X1195057Y465548D01*
X1194434Y463630D01*
X1194118Y461638D01*
Y459622D01*
X1194434Y457630D01*
X1195057Y455712D01*
X1195972Y453916D01*
X1197157Y452284D01*
X1198583Y450858D01*
X1200215Y449673D01*
X1202011Y448758D01*
X1203929Y448134D01*
X1205921Y447819D01*
X1207937D01*
X1209929Y448134D01*
X1211847Y448758D01*
X1213644Y449673D01*
X1215275Y450858D01*
X1216701Y452284D01*
X1217886Y453916D01*
X1218802Y455712D01*
X1219425Y457630D01*
X1219740Y459622D01*
Y461638D01*
X1219425Y463630D01*
X1218802Y465548D01*
X1217886Y467344D01*
X1216701Y468976D01*
X1215275Y470402D01*
X1213644Y471587D01*
X1211847Y472502D01*
X1209929Y473126D01*
X1207937Y473441D01*
D02*
G37*
G36*
X2210843Y388008D02*
X2198606D01*
Y375772D01*
X2210843D01*
Y388008D01*
D02*
G37*
G36*
X2176272D02*
X2175067D01*
X2173885Y387773D01*
X2172771Y387312D01*
X2171769Y386642D01*
X2170917Y385790D01*
X2170247Y384788D01*
X2169786Y383674D01*
X2169551Y382492D01*
Y381287D01*
X2169786Y380105D01*
X2170247Y378992D01*
X2170917Y377990D01*
X2171769Y377137D01*
X2172771Y376468D01*
X2173885Y376007D01*
X2175067Y375772D01*
X2176272D01*
X2177454Y376007D01*
X2178567Y376468D01*
X2179569Y377137D01*
X2180421Y377990D01*
X2181091Y378992D01*
X2181552Y380105D01*
X2181787Y381287D01*
Y382492D01*
X2181552Y383674D01*
X2181091Y384788D01*
X2180421Y385790D01*
X2179569Y386642D01*
X2178567Y387312D01*
X2177454Y387773D01*
X2176272Y388008D01*
D02*
G37*
G36*
X2138008D02*
X2125772D01*
Y375772D01*
X2138008D01*
Y388008D01*
D02*
G37*
G36*
X2103437D02*
X2102232D01*
X2101050Y387773D01*
X2099937Y387312D01*
X2098935Y386642D01*
X2098082Y385790D01*
X2097413Y384788D01*
X2096952Y383674D01*
X2096716Y382492D01*
Y381287D01*
X2096952Y380105D01*
X2097413Y378992D01*
X2098082Y377990D01*
X2098935Y377137D01*
X2099937Y376468D01*
X2101050Y376007D01*
X2102232Y375772D01*
X2103437D01*
X2104619Y376007D01*
X2105733Y376468D01*
X2106735Y377137D01*
X2107587Y377990D01*
X2108256Y378992D01*
X2108718Y380105D01*
X2108953Y381287D01*
Y382492D01*
X2108718Y383674D01*
X2108256Y384788D01*
X2107587Y385790D01*
X2106735Y386642D01*
X2105733Y387312D01*
X2104619Y387773D01*
X2103437Y388008D01*
D02*
G37*
G36*
X2065173D02*
X2052937D01*
Y375772D01*
X2065173D01*
Y388008D01*
D02*
G37*
G36*
X2030603D02*
X2029397D01*
X2028215Y387773D01*
X2027102Y387312D01*
X2026100Y386642D01*
X2025248Y385790D01*
X2024578Y384788D01*
X2024117Y383674D01*
X2023882Y382492D01*
Y381287D01*
X2024117Y380105D01*
X2024578Y378992D01*
X2025248Y377990D01*
X2026100Y377137D01*
X2027102Y376468D01*
X2028215Y376007D01*
X2029397Y375772D01*
X2030603D01*
X2031785Y376007D01*
X2032898Y376468D01*
X2033900Y377137D01*
X2034752Y377990D01*
X2035422Y378992D01*
X2035883Y380105D01*
X2036118Y381287D01*
Y382492D01*
X2035883Y383674D01*
X2035422Y384788D01*
X2034752Y385790D01*
X2033900Y386642D01*
X2032898Y387312D01*
X2031785Y387773D01*
X2030603Y388008D01*
D02*
G37*
G36*
X1992339D02*
X1980102D01*
Y375772D01*
X1992339D01*
Y388008D01*
D02*
G37*
G36*
X1957768D02*
X1956563D01*
X1955381Y387773D01*
X1954267Y387312D01*
X1953265Y386642D01*
X1952413Y385790D01*
X1951744Y384788D01*
X1951282Y383674D01*
X1951047Y382492D01*
Y381287D01*
X1951282Y380105D01*
X1951744Y378992D01*
X1952413Y377990D01*
X1953265Y377137D01*
X1954267Y376468D01*
X1955381Y376007D01*
X1956563Y375772D01*
X1957768D01*
X1958950Y376007D01*
X1960063Y376468D01*
X1961065Y377137D01*
X1961918Y377990D01*
X1962587Y378992D01*
X1963048Y380105D01*
X1963284Y381287D01*
Y382492D01*
X1963048Y383674D01*
X1962587Y384788D01*
X1961918Y385790D01*
X1961065Y386642D01*
X1960063Y387312D01*
X1958950Y387773D01*
X1957768Y388008D01*
D02*
G37*
G36*
X1919504D02*
X1907268D01*
Y375772D01*
X1919504D01*
Y388008D01*
D02*
G37*
G36*
X1884933D02*
X1883728D01*
X1882546Y387773D01*
X1881433Y387312D01*
X1880431Y386642D01*
X1879579Y385790D01*
X1878909Y384788D01*
X1878448Y383674D01*
X1878213Y382492D01*
Y381287D01*
X1878448Y380105D01*
X1878909Y378992D01*
X1879579Y377990D01*
X1880431Y377137D01*
X1881433Y376468D01*
X1882546Y376007D01*
X1883728Y375772D01*
X1884933D01*
X1886115Y376007D01*
X1887229Y376468D01*
X1888231Y377137D01*
X1889083Y377990D01*
X1889753Y378992D01*
X1890214Y380105D01*
X1890449Y381287D01*
Y382492D01*
X1890214Y383674D01*
X1889753Y384788D01*
X1889083Y385790D01*
X1888231Y386642D01*
X1887229Y387312D01*
X1886115Y387773D01*
X1884933Y388008D01*
D02*
G37*
G36*
X1846669D02*
X1834433D01*
Y375772D01*
X1846669D01*
Y388008D01*
D02*
G37*
G36*
X1812099D02*
X1810893D01*
X1809711Y387773D01*
X1808598Y387312D01*
X1807596Y386642D01*
X1806744Y385790D01*
X1806074Y384788D01*
X1805613Y383674D01*
X1805378Y382492D01*
Y381287D01*
X1805613Y380105D01*
X1806074Y378992D01*
X1806744Y377990D01*
X1807596Y377137D01*
X1808598Y376468D01*
X1809711Y376007D01*
X1810893Y375772D01*
X1812099D01*
X1813281Y376007D01*
X1814394Y376468D01*
X1815396Y377137D01*
X1816248Y377990D01*
X1816918Y378992D01*
X1817379Y380105D01*
X1817614Y381287D01*
Y382492D01*
X1817379Y383674D01*
X1816918Y384788D01*
X1816248Y385790D01*
X1815396Y386642D01*
X1814394Y387312D01*
X1813281Y387773D01*
X1812099Y388008D01*
D02*
G37*
G36*
X1773835D02*
X1761598D01*
Y375772D01*
X1773835D01*
Y388008D01*
D02*
G37*
G36*
X1739264D02*
X1738059D01*
X1736877Y387773D01*
X1735763Y387312D01*
X1734761Y386642D01*
X1733909Y385790D01*
X1733240Y384788D01*
X1732778Y383674D01*
X1732543Y382492D01*
Y381287D01*
X1732778Y380105D01*
X1733240Y378992D01*
X1733909Y377990D01*
X1734761Y377137D01*
X1735763Y376468D01*
X1736877Y376007D01*
X1738059Y375772D01*
X1739264D01*
X1740446Y376007D01*
X1741559Y376468D01*
X1742562Y377137D01*
X1743414Y377990D01*
X1744083Y378992D01*
X1744544Y380105D01*
X1744780Y381287D01*
Y382492D01*
X1744544Y383674D01*
X1744083Y384788D01*
X1743414Y385790D01*
X1742562Y386642D01*
X1741559Y387312D01*
X1740446Y387773D01*
X1739264Y388008D01*
D02*
G37*
G36*
X1701000D02*
X1688764D01*
Y375772D01*
X1701000D01*
Y388008D01*
D02*
G37*
G36*
X1666429D02*
X1665224D01*
X1664042Y387773D01*
X1662929Y387312D01*
X1661927Y386642D01*
X1661074Y385790D01*
X1660405Y384788D01*
X1659944Y383674D01*
X1659709Y382492D01*
Y381287D01*
X1659944Y380105D01*
X1660405Y378992D01*
X1661074Y377990D01*
X1661927Y377137D01*
X1662929Y376468D01*
X1664042Y376007D01*
X1665224Y375772D01*
X1666429D01*
X1667611Y376007D01*
X1668725Y376468D01*
X1669727Y377137D01*
X1670579Y377990D01*
X1671249Y378992D01*
X1671710Y380105D01*
X1671945Y381287D01*
Y382492D01*
X1671710Y383674D01*
X1671249Y384788D01*
X1670579Y385790D01*
X1669727Y386642D01*
X1668725Y387312D01*
X1667611Y387773D01*
X1666429Y388008D01*
D02*
G37*
G36*
X1628165D02*
X1615929D01*
Y375772D01*
X1628165D01*
Y388008D01*
D02*
G37*
G36*
X1593595D02*
X1592389D01*
X1591208Y387773D01*
X1590094Y387312D01*
X1589092Y386642D01*
X1588240Y385790D01*
X1587570Y384788D01*
X1587109Y383674D01*
X1586874Y382492D01*
Y381287D01*
X1587109Y380105D01*
X1587570Y378992D01*
X1588240Y377990D01*
X1589092Y377137D01*
X1590094Y376468D01*
X1591208Y376007D01*
X1592389Y375772D01*
X1593595D01*
X1594777Y376007D01*
X1595890Y376468D01*
X1596892Y377137D01*
X1597744Y377990D01*
X1598414Y378992D01*
X1598875Y380105D01*
X1599110Y381287D01*
Y382492D01*
X1598875Y383674D01*
X1598414Y384788D01*
X1597744Y385790D01*
X1596892Y386642D01*
X1595890Y387312D01*
X1594777Y387773D01*
X1593595Y388008D01*
D02*
G37*
G36*
X1555331D02*
X1543095D01*
Y375772D01*
X1555331D01*
Y388008D01*
D02*
G37*
G36*
X1520760D02*
X1519555D01*
X1518373Y387773D01*
X1517260Y387312D01*
X1516257Y386642D01*
X1515405Y385790D01*
X1514736Y384788D01*
X1514275Y383674D01*
X1514039Y382492D01*
Y381287D01*
X1514275Y380105D01*
X1514736Y378992D01*
X1515405Y377990D01*
X1516257Y377137D01*
X1517260Y376468D01*
X1518373Y376007D01*
X1519555Y375772D01*
X1520760D01*
X1521942Y376007D01*
X1523055Y376468D01*
X1524058Y377137D01*
X1524910Y377990D01*
X1525579Y378992D01*
X1526040Y380105D01*
X1526276Y381287D01*
Y382492D01*
X1526040Y383674D01*
X1525579Y384788D01*
X1524910Y385790D01*
X1524058Y386642D01*
X1523055Y387312D01*
X1521942Y387773D01*
X1520760Y388008D01*
D02*
G37*
G36*
X1482496D02*
X1470260D01*
Y375772D01*
X1482496D01*
Y388008D01*
D02*
G37*
G36*
X1447925D02*
X1446720D01*
X1445538Y387773D01*
X1444425Y387312D01*
X1443423Y386642D01*
X1442571Y385790D01*
X1441901Y384788D01*
X1441440Y383674D01*
X1441205Y382492D01*
Y381287D01*
X1441440Y380105D01*
X1441901Y378992D01*
X1442571Y377990D01*
X1443423Y377137D01*
X1444425Y376468D01*
X1445538Y376007D01*
X1446720Y375772D01*
X1447925D01*
X1449107Y376007D01*
X1450221Y376468D01*
X1451223Y377137D01*
X1452075Y377990D01*
X1452745Y378992D01*
X1453206Y380105D01*
X1453441Y381287D01*
Y382492D01*
X1453206Y383674D01*
X1452745Y384788D01*
X1452075Y385790D01*
X1451223Y386642D01*
X1450221Y387312D01*
X1449107Y387773D01*
X1447925Y388008D01*
D02*
G37*
G36*
X1409661D02*
X1397425D01*
Y375772D01*
X1409661D01*
Y388008D01*
D02*
G37*
G36*
X1375091D02*
X1373886D01*
X1372704Y387773D01*
X1371590Y387312D01*
X1370588Y386642D01*
X1369736Y385790D01*
X1369066Y384788D01*
X1368605Y383674D01*
X1368370Y382492D01*
Y381287D01*
X1368605Y380105D01*
X1369066Y378992D01*
X1369736Y377990D01*
X1370588Y377137D01*
X1371590Y376468D01*
X1372704Y376007D01*
X1373886Y375772D01*
X1375091D01*
X1376273Y376007D01*
X1377386Y376468D01*
X1378388Y377137D01*
X1379240Y377990D01*
X1379910Y378992D01*
X1380371Y380105D01*
X1380606Y381287D01*
Y382492D01*
X1380371Y383674D01*
X1379910Y384788D01*
X1379240Y385790D01*
X1378388Y386642D01*
X1377386Y387312D01*
X1376273Y387773D01*
X1375091Y388008D01*
D02*
G37*
G36*
X1336827D02*
X1324591D01*
Y375772D01*
X1336827D01*
Y388008D01*
D02*
G37*
G36*
X1229422D02*
X1228216D01*
X1227034Y387773D01*
X1225921Y387312D01*
X1224919Y386642D01*
X1224067Y385790D01*
X1223397Y384788D01*
X1222936Y383674D01*
X1222701Y382492D01*
Y381287D01*
X1222936Y380105D01*
X1223397Y378992D01*
X1224067Y377990D01*
X1224919Y377137D01*
X1225921Y376468D01*
X1227034Y376007D01*
X1228216Y375772D01*
X1229422D01*
X1230604Y376007D01*
X1231717Y376468D01*
X1232719Y377137D01*
X1233571Y377990D01*
X1234241Y378992D01*
X1234702Y380105D01*
X1234937Y381287D01*
Y382492D01*
X1234702Y383674D01*
X1234241Y384788D01*
X1233571Y385790D01*
X1232719Y386642D01*
X1231717Y387312D01*
X1230604Y387773D01*
X1229422Y388008D01*
D02*
G37*
G36*
X1191158D02*
X1178921D01*
Y375772D01*
X1191158D01*
Y388008D01*
D02*
G37*
G36*
X1156587D02*
X1155382D01*
X1154200Y387773D01*
X1153086Y387312D01*
X1152084Y386642D01*
X1151232Y385790D01*
X1150562Y384788D01*
X1150101Y383674D01*
X1149866Y382492D01*
Y381287D01*
X1150101Y380105D01*
X1150562Y378992D01*
X1151232Y377990D01*
X1152084Y377137D01*
X1153086Y376468D01*
X1154200Y376007D01*
X1155382Y375772D01*
X1156587D01*
X1157769Y376007D01*
X1158882Y376468D01*
X1159884Y377137D01*
X1160736Y377990D01*
X1161406Y378992D01*
X1161867Y380105D01*
X1162102Y381287D01*
Y382492D01*
X1161867Y383674D01*
X1161406Y384788D01*
X1160736Y385790D01*
X1159884Y386642D01*
X1158882Y387312D01*
X1157769Y387773D01*
X1156587Y388008D01*
D02*
G37*
G36*
X1118323D02*
X1106087D01*
Y375772D01*
X1118323D01*
Y388008D01*
D02*
G37*
G36*
X1301469Y388008D02*
X1300264D01*
X1299082Y387773D01*
X1297968Y387312D01*
X1296966Y386642D01*
X1296114Y385790D01*
X1295444Y384788D01*
X1294983Y383674D01*
X1294748Y382492D01*
Y381287D01*
X1294983Y380105D01*
X1295444Y378992D01*
X1296114Y377990D01*
X1296966Y377137D01*
X1297968Y376468D01*
X1299082Y376007D01*
X1300264Y375772D01*
X1301469D01*
X1302651Y376007D01*
X1303764Y376468D01*
X1304766Y377137D01*
X1305618Y377990D01*
X1306288Y378992D01*
X1306749Y380105D01*
X1306984Y381287D01*
Y382492D01*
X1306749Y383674D01*
X1306288Y384788D01*
X1305618Y385790D01*
X1304766Y386642D01*
X1303764Y387312D01*
X1302651Y387773D01*
X1301469Y388008D01*
D02*
G37*
G36*
X1263205D02*
X1250968D01*
Y375772D01*
X1263205D01*
Y388008D01*
D02*
G37*
%LPD*%
D15*
X1126221Y649606D02*
X1134095Y641732D01*
X1082677Y649606D02*
X1126221D01*
X1076772Y655512D02*
X1082677Y649606D01*
X966535Y631890D02*
X990158Y655512D01*
X1076772D01*
X1064961Y649606D02*
X1088583Y625984D01*
X1064961Y649606D02*
X1064961D01*
X1088583Y610236D02*
Y625984D01*
D45*
X2175669Y381890D02*
D03*
X2153779D02*
D03*
X2248504D02*
D03*
X2226614D02*
D03*
X1665827D02*
D03*
X1643937D02*
D03*
X1592992D02*
D03*
X1571102D02*
D03*
X2059055Y641732D02*
D03*
X2080945D02*
D03*
X2204724D02*
D03*
X2226614D02*
D03*
X2030000Y381890D02*
D03*
X2008110D02*
D03*
X2102835D02*
D03*
X2080945D02*
D03*
X1884331D02*
D03*
X1862441D02*
D03*
X1957165D02*
D03*
X1935276D02*
D03*
X1738661D02*
D03*
X1716772D02*
D03*
X1811496D02*
D03*
X1789606D02*
D03*
X1447323D02*
D03*
X1425433D02*
D03*
X1520158D02*
D03*
X1498268D02*
D03*
X1300866Y381890D02*
D03*
X1278976D02*
D03*
X1374488Y381890D02*
D03*
X1352598D02*
D03*
X1155984D02*
D03*
X1134095D02*
D03*
X1228819D02*
D03*
X1206929D02*
D03*
X2131890Y641732D02*
D03*
X2153779D02*
D03*
X1986221D02*
D03*
X2008110D02*
D03*
X1767716D02*
D03*
X1789606D02*
D03*
X1694882D02*
D03*
X1716772D02*
D03*
X1913386D02*
D03*
X1935276D02*
D03*
X1840551D02*
D03*
X1862441D02*
D03*
X1622047D02*
D03*
X1643937D02*
D03*
X1549213D02*
D03*
X1571102D02*
D03*
X1476378D02*
D03*
X1498268D02*
D03*
X1403543D02*
D03*
X1425433D02*
D03*
X895905Y433642D02*
D03*
X874016D02*
D03*
X895905Y386398D02*
D03*
X874016D02*
D03*
X1330709Y641732D02*
D03*
X1352598D02*
D03*
X1257874Y641732D02*
D03*
X1279764D02*
D03*
X1185039Y641732D02*
D03*
X1206929D02*
D03*
X1112205D02*
D03*
X1134095D02*
D03*
D46*
X2131890Y381890D02*
D03*
X2204724D02*
D03*
X1622047D02*
D03*
X1549213D02*
D03*
X2102835Y641732D02*
D03*
X2248504D02*
D03*
X1986221Y381890D02*
D03*
X2059055D02*
D03*
X1840551D02*
D03*
X1913386D02*
D03*
X1694882D02*
D03*
X1767716D02*
D03*
X1403543D02*
D03*
X1476378D02*
D03*
X1257087Y381890D02*
D03*
X1330709Y381890D02*
D03*
X1112205D02*
D03*
X1185039D02*
D03*
X2175669Y641732D02*
D03*
X2030000D02*
D03*
X1811496D02*
D03*
X1738661D02*
D03*
X1957165D02*
D03*
X1884331D02*
D03*
X1665827D02*
D03*
X1592992D02*
D03*
X1520158D02*
D03*
X1447323D02*
D03*
X852126Y433642D02*
D03*
Y386398D02*
D03*
X1374488Y641732D02*
D03*
X1301653Y641732D02*
D03*
X1228819Y641732D02*
D03*
X1155984D02*
D03*
D58*
X915354Y539370D02*
X929134Y553150D01*
X870079Y539370D02*
X915354D01*
X858268Y527559D02*
X870079Y539370D01*
X2242126Y688976D02*
X2255906Y675197D01*
X2419856D02*
X2427347Y667706D01*
X2255906Y675197D02*
X2419856D01*
X2391732Y330709D02*
X2427347Y366324D01*
X2131890Y330709D02*
X2391732D01*
X2427347Y366324D02*
Y667706D01*
X2120079Y330709D02*
X2131890D01*
X2108268D02*
X2120079D01*
X2096457D02*
X2108268D01*
X2084646D02*
X2096457D01*
X2081823D02*
X2084646D01*
D59*
X844488Y548110D02*
X898504D01*
X933039Y582646D01*
X1088583Y653980D02*
Y655480D01*
X2163386Y366173D02*
Y367673D01*
X1870046Y366362D02*
Y367673D01*
X1728346Y366173D02*
Y367673D01*
X1580709Y366173D02*
Y367673D01*
X1435039Y366173D02*
Y367673D01*
X1290096Y366897D02*
Y367673D01*
X1344488Y653980D02*
Y655480D01*
X1488189Y653980D02*
Y655480D01*
X933071Y631890D02*
X944882Y643701D01*
X933039Y628106D02*
X933071Y628137D01*
X933039Y582646D02*
Y628106D01*
X933071Y628137D02*
Y631890D01*
D60*
X1045276Y696850D02*
X1045589Y696537D01*
X1050868D02*
X1053150Y698819D01*
X1045589Y696537D02*
X1050868D01*
X866142Y635827D02*
X927165Y696850D01*
X1045276D01*
X1053150Y698819D02*
X1133858D01*
X852362Y657480D02*
X870368D01*
X901891Y689004D01*
X887795Y614173D02*
X925197D01*
X927165Y612205D01*
X866142Y604331D02*
Y635827D01*
X849921Y588110D02*
X866142Y604331D01*
X844488Y588110D02*
X849921D01*
X844488Y558110D02*
X875984Y589606D01*
Y602362D01*
X887795Y614173D01*
D61*
X2265722Y641732D02*
X2291339D01*
X2226352Y681102D02*
X2265722Y641732D01*
X956693Y681102D02*
X2226352D01*
X921260Y645669D02*
X956693Y681102D01*
X893543Y637638D02*
X901575Y645669D01*
X921260D01*
X893543Y629921D02*
Y637638D01*
X901890Y482283D02*
X911890D01*
Y496535D02*
X925197Y509842D01*
X911890Y482283D02*
Y496535D01*
X925197Y509842D02*
X942913D01*
D62*
Y624016D02*
X955161Y636264D01*
X962161Y643264D02*
X984252Y665354D01*
X955161Y636601D02*
X961824Y643264D01*
X955161Y636264D02*
Y636601D01*
X961824Y643264D02*
X962161D01*
X2025591Y356299D02*
X2035433D01*
X1746063D02*
X1877953D01*
X1887795D02*
X2025591D01*
X1877953D02*
X1887795D01*
X984252Y665354D02*
X1472441D01*
X1618110D01*
X942913Y600394D02*
Y624016D01*
Y590551D02*
Y600394D01*
Y580709D02*
Y590551D01*
Y570866D02*
Y580709D01*
Y509842D02*
Y570866D01*
Y372047D02*
Y509842D01*
X1013780Y356299D02*
X1023622D01*
X1003937D02*
X1013780D01*
X994094D02*
X1003937D01*
X984252D02*
X994094D01*
X974409D02*
X984252D01*
X958661D02*
X974409D01*
X1023622D02*
X1033465D01*
X1043307D01*
X1053150D01*
X1590551D01*
X942913Y372047D02*
X958661Y356299D01*
X2171260D02*
X2181102D01*
X2035433D02*
X2171260D01*
X1736221D02*
X1746063D01*
X1600394D02*
X1736221D01*
X1590551D02*
X1600394D01*
X1618110Y665354D02*
X1761811D01*
X2051181D01*
X2210630D01*
D67*
X895669Y416417D02*
D03*
Y367205D02*
D03*
X844488Y638110D02*
D03*
Y628110D02*
D03*
Y618110D02*
D03*
Y598110D02*
D03*
Y588110D02*
D03*
Y568110D02*
D03*
Y548110D02*
D03*
Y538110D02*
D03*
Y558110D02*
D03*
Y578110D02*
D03*
Y608110D02*
D03*
X874016Y416417D02*
D03*
X872047Y367205D02*
D03*
X893543Y629921D02*
D03*
X903543D02*
D03*
D68*
X895669Y406417D02*
D03*
Y357205D02*
D03*
X844488Y528110D02*
D03*
X874016Y406417D02*
D03*
X872047Y357205D02*
D03*
D69*
X998032Y437008D02*
D03*
Y393701D02*
D03*
D70*
X913543Y629921D02*
D03*
D71*
X2291339Y381890D02*
D03*
X2311339Y641732D02*
D03*
D72*
Y381890D02*
D03*
X2291339Y641732D02*
D03*
D73*
X844488Y681102D02*
D03*
D74*
X852362Y704724D02*
D03*
Y657480D02*
D03*
X900394Y704724D02*
D03*
Y657480D02*
D03*
D75*
X921890Y482283D02*
D03*
D76*
X911890D02*
D03*
X901890D02*
D03*
X881890D02*
D03*
X871890D02*
D03*
X861890D02*
D03*
X851890D02*
D03*
D77*
X2374331Y381890D02*
D03*
X2364331D02*
D03*
X2354331Y641732D02*
D03*
X2364331D02*
D03*
D78*
X2354331Y381890D02*
D03*
X2374331Y641732D02*
D03*
D79*
X1064961Y649606D02*
D03*
X1088583Y610236D02*
D03*
X966535Y631890D02*
D03*
X929134Y553150D02*
D03*
X858268Y527559D02*
D03*
X942913Y570866D02*
D03*
X1887795Y356299D02*
D03*
X1088583Y653980D02*
D03*
X2017716Y368110D02*
D03*
X1092520Y692913D02*
D03*
X856299Y608268D02*
D03*
Y645669D02*
D03*
X1112205Y708661D02*
D03*
X1049213Y702756D02*
D03*
X901891Y689004D02*
D03*
X2163386Y367673D02*
D03*
X1870046D02*
D03*
X1728346D02*
D03*
X1580709D02*
D03*
X1435039D02*
D03*
X1290096D02*
D03*
X1143701Y368110D02*
D03*
X1196850Y653543D02*
D03*
X1344488Y653980D02*
D03*
X1488189D02*
D03*
X1633858Y653543D02*
D03*
X1779528D02*
D03*
X1925197D02*
D03*
X2068898Y653980D02*
D03*
X2217927Y654334D02*
D03*
X927165Y612205D02*
D03*
X942913Y600394D02*
D03*
X944882Y643701D02*
D03*
X968508Y681102D02*
D03*
X2242126Y688976D02*
D03*
X1133858Y698819D02*
D03*
X2131890Y330709D02*
D03*
X2120079D02*
D03*
X2108268D02*
D03*
X2096457D02*
D03*
X2084646D02*
D03*
X942913Y590551D02*
D03*
Y580709D02*
D03*
X974409Y356299D02*
D03*
X984252D02*
D03*
X994094D02*
D03*
X1003937D02*
D03*
X1013780D02*
D03*
X1023622D02*
D03*
X1033465D02*
D03*
X1043307D02*
D03*
X1053150D02*
D03*
X2427347Y667706D02*
D03*
X2171260Y356299D02*
D03*
X2025591D02*
D03*
X2035433D02*
D03*
X1877953D02*
D03*
X1736221D02*
D03*
X1746063D02*
D03*
X1590551D02*
D03*
X1600394D02*
D03*
X1444882Y358268D02*
D03*
X1454724D02*
D03*
X1299213D02*
D03*
X1309055D02*
D03*
X1161417D02*
D03*
X1151575D02*
D03*
X2181102Y356299D02*
D03*
X2200787Y665354D02*
D03*
X2061024D02*
D03*
X1917323D02*
D03*
X1771654D02*
D03*
X1627953D02*
D03*
X1482283D02*
D03*
X1192913Y667323D02*
D03*
X1618110Y665354D02*
D03*
X1183071Y667323D02*
D03*
X1326772Y666535D02*
D03*
X1336614D02*
D03*
X1472441Y665354D02*
D03*
X1761811D02*
D03*
X1907480Y664961D02*
D03*
X2051181Y665354D02*
D03*
X2210630D02*
D03*
D80*
X1680354Y460630D02*
D03*
Y562992D02*
D03*
X1206929D02*
D03*
Y460630D02*
D03*
X2153779D02*
D03*
Y562992D02*
D03*
M02*
