G04*
G04 #@! TF.GenerationSoftware,Altium Limited,Altium Designer,24.1.2 (44)*
G04*
G04 Layer_Color=65535*
%FSLAX25Y25*%
%MOIN*%
G70*
G04*
G04 #@! TF.SameCoordinates,29FF4F4E-3C6D-470F-9DA1-2895E510F6E9*
G04*
G04*
G04 #@! TF.FilePolarity,Positive*
G04*
G01*
G75*
%ADD10C,0.02362*%
%ADD11C,0.00984*%
%ADD12C,0.00394*%
%ADD13C,0.01968*%
%ADD14C,0.00787*%
%ADD15C,0.01000*%
%ADD16R,0.03062X0.10236*%
%ADD17R,0.10236X0.03062*%
%ADD18R,0.06248X0.02000*%
D10*
X916535Y570472D02*
G03*
X916535Y570472I-1181J0D01*
G01*
X2158268Y346457D02*
G03*
X2158268Y346457I-1181J0D01*
G01*
X2419784Y642264D02*
G03*
X2419784Y642264I-1181J0D01*
G01*
X989764Y687008D02*
G03*
X989764Y687008I-1181J0D01*
G01*
X1208268Y675197D02*
G03*
X1208268Y675197I-1181J0D01*
G01*
X1351968D02*
G03*
X1351968Y675197I-1181J0D01*
G01*
X1497638D02*
G03*
X1497638Y675197I-1181J0D01*
G01*
X1641339D02*
G03*
X1641339Y675197I-1181J0D01*
G01*
X1932677D02*
G03*
X1932677Y675197I-1181J0D01*
G01*
X1787008D02*
G03*
X1787008Y675197I-1181J0D01*
G01*
X2076378D02*
G03*
X2076378Y675197I-1181J0D01*
G01*
X2224016D02*
G03*
X2224016Y675197I-1181J0D01*
G01*
X1138583Y348425D02*
G03*
X1138583Y348425I-1181J0D01*
G01*
X1286220D02*
G03*
X1286220Y348425I-1181J0D01*
G01*
X1431890D02*
G03*
X1431890Y348425I-1181J0D01*
G01*
X1577559Y346457D02*
G03*
X1577559Y346457I-1181J0D01*
G01*
X1725197D02*
G03*
X1725197Y346457I-1181J0D01*
G01*
X1864961D02*
G03*
X1864961Y346457I-1181J0D01*
G01*
X2012598D02*
G03*
X2012598Y346457I-1181J0D01*
G01*
D11*
X910905Y562106D02*
G03*
X910905Y562106I-492J0D01*
G01*
X896161Y399055D02*
G03*
X896161Y399055I-492J0D01*
G01*
Y349843D02*
G03*
X896161Y349843I-492J0D01*
G01*
X2419980Y690945D02*
G03*
X2419980Y690945I-492J0D01*
G01*
X844980Y520748D02*
G03*
X844980Y520748I-492J0D01*
G01*
X2120965Y382106D02*
G03*
X2120965Y382106I-492J0D01*
G01*
X2193799D02*
G03*
X2193799Y382106I-492J0D01*
G01*
X2149213Y351398D02*
G03*
X2149213Y351398I-492J0D01*
G01*
X1611122Y382106D02*
G03*
X1611122Y382106I-492J0D01*
G01*
X1538287D02*
G03*
X1538287Y382106I-492J0D01*
G01*
X2114744Y641516D02*
G03*
X2114744Y641516I-492J0D01*
G01*
X2260413D02*
G03*
X2260413Y641516I-492J0D01*
G01*
X1975295Y382106D02*
G03*
X1975295Y382106I-492J0D01*
G01*
X2048130D02*
G03*
X2048130Y382106I-492J0D01*
G01*
X1829626D02*
G03*
X1829626Y382106I-492J0D01*
G01*
X1902461D02*
G03*
X1902461Y382106I-492J0D01*
G01*
X1683957D02*
G03*
X1683957Y382106I-492J0D01*
G01*
X1756791D02*
G03*
X1756791Y382106I-492J0D01*
G01*
X1392618D02*
G03*
X1392618Y382106I-492J0D01*
G01*
X1465453D02*
G03*
X1465453Y382106I-492J0D01*
G01*
X1246161Y382106D02*
G03*
X1246161Y382106I-492J0D01*
G01*
X1319783Y382106D02*
G03*
X1319783Y382106I-492J0D01*
G01*
X1101280D02*
G03*
X1101280Y382106I-492J0D01*
G01*
X1174114D02*
G03*
X1174114Y382106I-492J0D01*
G01*
X2187579Y641516D02*
G03*
X2187579Y641516I-492J0D01*
G01*
X2041909D02*
G03*
X2041909Y641516I-492J0D01*
G01*
X1823405D02*
G03*
X1823405Y641516I-492J0D01*
G01*
X1750571D02*
G03*
X1750571Y641516I-492J0D01*
G01*
X1969075D02*
G03*
X1969075Y641516I-492J0D01*
G01*
X1896240D02*
G03*
X1896240Y641516I-492J0D01*
G01*
X1677736D02*
G03*
X1677736Y641516I-492J0D01*
G01*
X1604902D02*
G03*
X1604902Y641516I-492J0D01*
G01*
X1532067D02*
G03*
X1532067Y641516I-492J0D01*
G01*
X1459232D02*
G03*
X1459232Y641516I-492J0D01*
G01*
X841201Y433858D02*
G03*
X841201Y433858I-492J0D01*
G01*
Y386614D02*
G03*
X841201Y386614I-492J0D01*
G01*
X1386398Y641516D02*
G03*
X1386398Y641516I-492J0D01*
G01*
X1313563Y641516D02*
G03*
X1313563Y641516I-492J0D01*
G01*
X1240728Y641516D02*
G03*
X1240728Y641516I-492J0D01*
G01*
X1167894D02*
G03*
X1167894Y641516I-492J0D01*
G01*
X874508Y399055D02*
G03*
X874508Y399055I-492J0D01*
G01*
X872539Y349843D02*
G03*
X872539Y349843I-492J0D01*
G01*
X926673Y629921D02*
G03*
X926673Y629921I-492J0D01*
G01*
X933563Y661221D02*
G03*
X933563Y661221I-492J0D01*
G01*
X1106988Y689350D02*
G03*
X1106988Y689350I-492J0D01*
G01*
X2427461Y637323D02*
G03*
X2427461Y637323I-492J0D01*
G01*
X2346319Y377165D02*
G03*
X2346319Y377165I-492J0D01*
G01*
X2427658Y616339D02*
G03*
X2427658Y616339I-492J0D01*
G01*
X997441Y682067D02*
G03*
X997441Y682067I-492J0D01*
G01*
X1004626Y653543D02*
G03*
X1004626Y653543I-492J0D01*
G01*
X2383327Y646457D02*
G03*
X2383327Y646457I-492J0D01*
G01*
X1215945Y670256D02*
G03*
X1215945Y670256I-492J0D01*
G01*
X1359646D02*
G03*
X1359646Y670256I-492J0D01*
G01*
X1505315D02*
G03*
X1505315Y670256I-492J0D01*
G01*
X1649016D02*
G03*
X1649016Y670256I-492J0D01*
G01*
X1940354D02*
G03*
X1940354Y670256I-492J0D01*
G01*
X1794685D02*
G03*
X1794685Y670256I-492J0D01*
G01*
X2084055D02*
G03*
X2084055Y670256I-492J0D01*
G01*
X2231693D02*
G03*
X2231693Y670256I-492J0D01*
G01*
X1129528Y353366D02*
G03*
X1129528Y353366I-492J0D01*
G01*
X1277165D02*
G03*
X1277165Y353366I-492J0D01*
G01*
X1422835D02*
G03*
X1422835Y353366I-492J0D01*
G01*
X1568504Y351398D02*
G03*
X1568504Y351398I-492J0D01*
G01*
X1716142D02*
G03*
X1716142Y351398I-492J0D01*
G01*
X1855906D02*
G03*
X1855906Y351398I-492J0D01*
G01*
X2003543D02*
G03*
X2003543Y351398I-492J0D01*
G01*
D12*
X932520Y482283D02*
G03*
X932126Y482283I-197J0D01*
G01*
D02*
G03*
X932520Y482283I197J0D01*
G01*
X1074724Y420905D02*
X1082598D01*
X1074724Y394921D02*
X1082598D01*
X1074724Y602539D02*
X1082598D01*
X1074724Y576555D02*
X1082598D01*
X1037480Y572480D02*
X1045354D01*
X1037480Y546496D02*
X1045354D01*
X1074724Y540984D02*
X1082598D01*
X1074724Y515000D02*
X1082598D01*
X1037480Y510020D02*
X1045354D01*
X1037480Y484035D02*
X1045354D01*
X1074724Y479961D02*
X1082598D01*
X1074724Y453976D02*
X1082598D01*
X1037323Y450433D02*
X1045197D01*
X1037323Y424449D02*
X1045197D01*
X1037480Y632067D02*
X1045354D01*
X1037480Y606083D02*
X1045354D01*
D13*
X1094390Y690059D02*
G03*
X1094390Y690059I-984J0D01*
G01*
D14*
X931102Y566535D02*
Y579134D01*
X911417Y566535D02*
Y579134D01*
X931102D01*
X911417Y566535D02*
X931102D01*
X890374Y422008D02*
X900965D01*
X890374Y400827D02*
Y422008D01*
Y400827D02*
X900965D01*
Y422008D01*
X890374Y372795D02*
X900965D01*
X890374Y351614D02*
Y372795D01*
Y351614D02*
X900965D01*
Y372795D01*
X1122736Y660039D02*
X1128445D01*
X1122736Y666732D02*
X1128445D01*
X1103051Y660039D02*
X1108760D01*
X1103051Y666732D02*
X1108760D01*
X916339Y393248D02*
X937992D01*
X916339D02*
Y409902D01*
Y409902D02*
X937992D01*
Y393248D02*
Y409902D01*
X914370Y446398D02*
X936024D01*
X914370D02*
Y463051D01*
Y463051D02*
X936024D01*
Y446398D02*
Y463051D01*
X916339Y366595D02*
X937992D01*
Y349941D02*
Y366595D01*
X916339Y349941D02*
X937992D01*
X916339Y349941D02*
Y366595D01*
X943898D02*
X965551D01*
Y349941D02*
Y366595D01*
X943898Y349941D02*
X965551D01*
X943898Y349941D02*
Y366595D01*
X904213Y522362D02*
X908543D01*
X904213Y515276D02*
X908543D01*
X865945Y516142D02*
X870276D01*
X865945Y523228D02*
X870276D01*
X2406594Y602953D02*
X2412303D01*
X2406594Y609646D02*
X2412303D01*
X2402614Y685827D02*
X2407874D01*
X2407874Y685827D01*
X2402614Y696063D02*
X2407874D01*
Y685827D02*
Y696063D01*
X2390158Y362008D02*
Y366339D01*
X2397244Y362008D02*
Y366339D01*
X839193Y643701D02*
X849784D01*
X839193Y522520D02*
Y643701D01*
Y522520D02*
X849784D01*
Y643701D01*
X893504Y608661D02*
X897835D01*
X893504Y615748D02*
X897835D01*
X2181906Y403648D02*
Y419187D01*
X2168488Y403648D02*
Y419187D01*
X2122539Y373799D02*
X2185020D01*
Y392776D01*
X2122539D02*
X2185020D01*
X2122539Y373799D02*
Y392776D01*
X2127461Y364764D02*
X2133169D01*
X2127461Y371457D02*
X2133169D01*
X2254741Y403648D02*
Y419187D01*
X2241322Y403648D02*
Y419187D01*
X2195374Y373799D02*
X2257854D01*
Y392776D01*
X2195374D02*
X2257854D01*
X2195374Y373799D02*
Y392776D01*
X2200295Y364764D02*
X2206004D01*
X2200295Y371457D02*
X2206004D01*
X2153150Y330709D02*
X2165748D01*
X2153150Y350394D02*
X2165748D01*
Y330709D02*
Y350394D01*
X2153150Y330709D02*
Y350394D01*
X2177559Y360039D02*
Y364370D01*
X2184646Y360039D02*
Y364370D01*
X2167716Y360039D02*
Y364370D01*
X2174803Y360039D02*
Y364370D01*
X1672063Y403848D02*
Y419387D01*
X1658645Y403848D02*
Y419387D01*
X1617618Y364764D02*
X1623327D01*
X1617618Y371457D02*
X1623327D01*
X1612697Y373799D02*
X1675177D01*
Y392776D01*
X1612697D02*
X1675177D01*
X1612697Y373799D02*
Y392776D01*
X1539862Y373799D02*
X1602342D01*
Y392776D01*
X1539862D02*
X1602342D01*
X1539862Y373799D02*
Y392776D01*
X1599229Y403648D02*
Y419187D01*
X1585811Y403648D02*
Y419187D01*
X1544783Y364764D02*
X1550492D01*
X1544783Y371457D02*
X1550492D01*
X2049705Y649823D02*
X2112185D01*
X2049705Y630847D02*
Y649823D01*
Y630847D02*
X2112185D01*
Y649823D01*
X2195374D02*
X2257854D01*
X2195374Y630847D02*
Y649823D01*
Y630847D02*
X2257854D01*
Y649823D01*
X1976870Y373799D02*
X2039350D01*
Y392776D01*
X1976870D02*
X2039350D01*
X1976870Y373799D02*
Y392776D01*
X2049705Y373799D02*
X2112185D01*
Y392776D01*
X2049705D02*
X2112185D01*
X2049705Y373799D02*
Y392776D01*
X1831201Y373799D02*
X1893681D01*
Y392776D01*
X1831201D02*
X1893681D01*
X1831201Y373799D02*
Y392776D01*
X1904035Y373799D02*
X1966516D01*
Y392776D01*
X1904035D02*
X1966516D01*
X1904035Y373799D02*
Y392776D01*
X1685531Y373799D02*
X1748012D01*
Y392776D01*
X1685531D02*
X1748012D01*
X1685531Y373799D02*
Y392776D01*
X1758366Y373799D02*
X1820846D01*
Y392776D01*
X1758366D02*
X1820846D01*
X1758366Y373799D02*
Y392776D01*
X1394193Y373799D02*
X1456673D01*
Y392776D01*
X1394193D02*
X1456673D01*
X1394193Y373799D02*
Y392776D01*
X1467028Y373799D02*
X1529508D01*
Y392776D01*
X1467028D02*
X1529508D01*
X1467028Y373799D02*
Y392776D01*
X1247736Y373799D02*
X1310217D01*
Y392776D01*
X1247736D02*
X1310217D01*
X1247736Y373799D02*
Y392776D01*
X1321358Y373799D02*
X1383839D01*
Y392776D01*
X1321358D02*
X1383839D01*
X1321358Y373799D02*
Y392776D01*
X1102854Y373799D02*
X1165335D01*
Y392776D01*
X1102854D02*
X1165335D01*
X1102854Y373799D02*
Y392776D01*
X1175689Y373799D02*
X1238169D01*
Y392776D01*
X1175689D02*
X1238169D01*
X1175689Y373799D02*
Y392776D01*
X2122539Y649823D02*
X2185020D01*
X2122539Y630847D02*
Y649823D01*
Y630847D02*
X2185020D01*
Y649823D01*
X1976870D02*
X2039350D01*
X1976870Y630847D02*
Y649823D01*
Y630847D02*
X2039350D01*
Y649823D01*
X1758366D02*
X1820847D01*
X1758366Y630847D02*
Y649823D01*
Y630847D02*
X1820847D01*
Y649823D01*
X1685531D02*
X1748012D01*
X1685531Y630847D02*
Y649823D01*
Y630847D02*
X1748012D01*
Y649823D01*
X1904035D02*
X1966516D01*
X1904035Y630847D02*
Y649823D01*
Y630847D02*
X1966516D01*
Y649823D01*
X1831201D02*
X1893681D01*
X1831201Y630847D02*
Y649823D01*
Y630847D02*
X1893681D01*
Y649823D01*
X1612697D02*
X1675177D01*
X1612697Y630847D02*
Y649823D01*
Y630847D02*
X1675177D01*
Y649823D01*
X1539862D02*
X1602342D01*
X1539862Y630847D02*
Y649823D01*
Y630847D02*
X1602342D01*
Y649823D01*
X1467027D02*
X1529508D01*
X1467027Y630847D02*
Y649823D01*
Y630847D02*
X1529508D01*
Y649823D01*
X1394193D02*
X1456673D01*
X1394193Y630847D02*
Y649823D01*
Y630847D02*
X1456673D01*
Y649823D01*
X842776Y425551D02*
X905256D01*
Y444528D01*
X842776D02*
X905256D01*
X842776Y425551D02*
Y444528D01*
Y378307D02*
X905256D01*
Y397284D01*
X842776D02*
X905256D01*
X842776Y378307D02*
Y397284D01*
X1321358Y649823D02*
X1383839D01*
X1321358Y630847D02*
Y649823D01*
Y630847D02*
X1383839D01*
Y649823D01*
X1248524Y649823D02*
X1311004D01*
X1248524Y630847D02*
Y649823D01*
Y630847D02*
X1311004D01*
Y649823D01*
X1175689Y649823D02*
X1238169D01*
X1175689Y630847D02*
Y649823D01*
Y630847D02*
X1238169D01*
Y649823D01*
X1102854D02*
X1165335D01*
X1102854Y630847D02*
Y649823D01*
Y630847D02*
X1165335D01*
Y649823D01*
X868721Y422008D02*
X879311D01*
X868721Y400827D02*
Y422008D01*
Y400827D02*
X879311D01*
Y422008D01*
X866752Y372795D02*
X877343D01*
X866752Y351614D02*
Y372795D01*
Y351614D02*
X877343D01*
Y372795D01*
X883465Y621417D02*
X923622D01*
X883465Y619449D02*
X923622D01*
X883465Y637953D02*
X923622D01*
X883465Y619449D02*
Y637953D01*
X923622Y619449D02*
Y637953D01*
X893504Y598819D02*
X897835D01*
X893504Y605905D02*
X897835D01*
X911220D02*
X915551D01*
X911220Y598819D02*
X915551D01*
X911220Y615748D02*
X915551D01*
X911220Y608661D02*
X915551D01*
X847933Y365551D02*
X853642D01*
X847933Y358858D02*
X853642D01*
X847933Y410827D02*
X853642D01*
X847933Y404134D02*
X853642D01*
X847933Y375394D02*
X853642D01*
X847933Y368701D02*
X853642D01*
X847933Y420669D02*
X853642D01*
X847933Y413976D02*
X853642D01*
X938583Y425000D02*
Y429331D01*
X931496Y425000D02*
Y429331D01*
X928740Y425000D02*
Y429331D01*
X921653Y425000D02*
Y429331D01*
X918898Y425000D02*
Y429331D01*
X911811Y425000D02*
Y429331D01*
X2321594Y373898D02*
Y393386D01*
X2281083D02*
X2321594D01*
X2281083Y381890D02*
Y393386D01*
Y630236D02*
Y649724D01*
Y630236D02*
X2321594D01*
Y641732D01*
X2280610Y360827D02*
X2286319D01*
X2280610Y367520D02*
X2286319D01*
X2302264Y654134D02*
X2307972D01*
X2302264Y660827D02*
X2307972D01*
X917913Y658563D02*
Y664272D01*
X924606Y658563D02*
Y664272D01*
X943504Y670374D02*
Y676083D01*
X950197Y670374D02*
Y676083D01*
X927953Y672835D02*
Y678094D01*
Y672835D02*
X927953Y672835D01*
X938189D02*
Y678094D01*
X927953Y672835D02*
X938189D01*
X1060630Y694685D02*
Y699016D01*
X1053543Y694685D02*
Y699016D01*
X1072441Y694685D02*
Y699016D01*
X1065354Y694685D02*
Y699016D01*
X962205Y671063D02*
Y675394D01*
X955118Y671063D02*
Y675394D01*
X1054035Y679665D02*
X1060138D01*
Y674665D02*
Y679665D01*
X1054035Y674665D02*
Y679665D01*
X1065551Y670374D02*
Y676083D01*
X1072244Y670374D02*
Y676083D01*
X843583Y509055D02*
X930197D01*
X843583Y471654D02*
Y509055D01*
Y471654D02*
X930197D01*
Y509055D01*
X1085433Y674023D02*
Y676370D01*
X1079921Y681181D02*
X1083651D01*
X1079921Y669213D02*
Y672620D01*
Y677773D02*
Y681181D01*
Y669213D02*
X1083651D01*
X1096457Y687008D02*
Y706693D01*
X1084646D02*
X1096457D01*
X1084646Y687008D02*
Y706693D01*
Y687008D02*
X1096457D01*
X2409941Y658012D02*
X2422539D01*
X2409941Y638327D02*
X2422539D01*
X2409941D02*
Y658012D01*
X2422539Y638327D02*
Y658012D01*
X2380512Y360925D02*
Y366634D01*
X2387205Y360925D02*
Y366634D01*
X2385394Y374606D02*
Y393110D01*
X2343268Y374606D02*
Y393110D01*
Y374606D02*
X2385394D01*
X2343268Y393110D02*
X2385394D01*
X2343268Y391142D02*
X2385394D01*
X2423819Y625098D02*
Y630807D01*
X2430512Y625098D02*
Y630807D01*
X2356496Y354724D02*
X2360827D01*
X2356496Y361811D02*
X2360827D01*
X2356496Y364567D02*
X2360827D01*
X2356496Y371654D02*
X2360827D01*
X2432284Y599465D02*
Y604724D01*
X2432284Y604724D02*
X2432284Y604724D01*
X2422047Y599465D02*
Y604724D01*
X2432284D01*
X2370472Y362008D02*
Y366339D01*
X2377559Y362008D02*
Y366339D01*
X979921Y702756D02*
X992520D01*
X979921Y683071D02*
X992520D01*
X979921D02*
Y702756D01*
X992520Y683071D02*
Y702756D01*
X2420669Y625098D02*
Y630807D01*
X2413976Y625098D02*
Y630807D01*
X1006496Y662500D02*
Y668209D01*
X1013189Y662500D02*
Y668209D01*
X2386221Y619882D02*
Y624213D01*
X2393307Y619882D02*
Y624213D01*
X2396063Y619882D02*
Y624213D01*
X2403150Y619882D02*
Y624213D01*
X1023228Y663189D02*
Y667520D01*
X1016142Y663189D02*
Y667520D01*
X987260Y648425D02*
X992520D01*
X992520Y648425D01*
X987260Y658661D02*
X992520D01*
Y648425D02*
Y658661D01*
X982087Y671654D02*
X986417D01*
X982087Y678740D02*
X986417D01*
X982087Y661811D02*
X986417D01*
X982087Y668898D02*
X986417D01*
X1006496Y682185D02*
Y687894D01*
X1013189Y682185D02*
Y687894D01*
X1023032Y682185D02*
Y687894D01*
X1016339Y682185D02*
Y687894D01*
X2340158Y657283D02*
Y661614D01*
X2333071Y657283D02*
Y661614D01*
X869685Y631693D02*
Y636024D01*
X862598Y631693D02*
Y636024D01*
X2349803Y656988D02*
Y662697D01*
X2343110Y656988D02*
Y662697D01*
X2343268Y630512D02*
Y649016D01*
X2385394Y630512D02*
Y649016D01*
X2343268D02*
X2385394D01*
X2343268Y630512D02*
X2385394D01*
X2343268Y632480D02*
X2385394D01*
X2416732Y666043D02*
Y671752D01*
X2410039Y666043D02*
Y671752D01*
X2367913Y668898D02*
X2372244D01*
X2367913Y661811D02*
X2372244D01*
X2367913Y659055D02*
X2372244D01*
X2367913Y651968D02*
X2372244D01*
X862598Y610039D02*
Y614370D01*
X869685Y610039D02*
Y614370D01*
X2359842Y656890D02*
Y661221D01*
X2352756Y656890D02*
Y661221D01*
X2390354Y638878D02*
Y644587D01*
X2397047Y638878D02*
Y644587D01*
X2390354Y658563D02*
Y664272D01*
X2397047Y658563D02*
Y664272D01*
X1152658Y658858D02*
X1158366D01*
X1152658Y652165D02*
X1158366D01*
X1198425Y690945D02*
X1211024D01*
X1198425Y671260D02*
X1211024D01*
X1198425D02*
Y690945D01*
X1211024Y671260D02*
Y690945D01*
X1227067Y658858D02*
X1232776D01*
X1227067Y652165D02*
X1232776D01*
X1196457Y659252D02*
Y663583D01*
X1189370Y659252D02*
Y663583D01*
X1186614Y659252D02*
Y663583D01*
X1179528Y659252D02*
Y663583D01*
X1299902Y658858D02*
X1305610D01*
X1299902Y652165D02*
X1305610D01*
X1342126Y690945D02*
X1354724D01*
X1342126Y671260D02*
X1354724D01*
X1342126D02*
Y690945D01*
X1354724Y671260D02*
Y690945D01*
X1372736Y658858D02*
X1378445D01*
X1372736Y652165D02*
X1378445D01*
X1340158Y658858D02*
Y663189D01*
X1333071Y658858D02*
Y663189D01*
X1330315Y658858D02*
Y663189D01*
X1323228Y658858D02*
Y663189D01*
X1105496Y604435D02*
Y619974D01*
X1118914Y604435D02*
Y619974D01*
X1178330Y604435D02*
Y619974D01*
X1191749Y604435D02*
Y619974D01*
X1251165Y604435D02*
Y619974D01*
X1264583Y604435D02*
Y619974D01*
X1324000Y604435D02*
Y619974D01*
X1337418Y604435D02*
Y619974D01*
X1445571Y658858D02*
X1451280D01*
X1445571Y652165D02*
X1451280D01*
X1487795Y690945D02*
X1500394D01*
X1487795Y671260D02*
X1500394D01*
X1487795D02*
Y690945D01*
X1500394Y671260D02*
Y690945D01*
X1518406Y658858D02*
X1524114D01*
X1518406Y652165D02*
X1524114D01*
X1485827Y657677D02*
Y662008D01*
X1478740Y657677D02*
Y662008D01*
X1475984Y657677D02*
Y662008D01*
X1468898Y657677D02*
Y662008D01*
X1591240Y658858D02*
X1596949D01*
X1591240Y652165D02*
X1596949D01*
X1631496Y690945D02*
X1644094D01*
X1631496Y671260D02*
X1644094D01*
X1631496D02*
Y690945D01*
X1644094Y671260D02*
Y690945D01*
X1664075Y658858D02*
X1669784D01*
X1664075Y652165D02*
X1669784D01*
X1621654Y657283D02*
Y661614D01*
X1614567Y657283D02*
Y661614D01*
X1631496Y657283D02*
Y661614D01*
X1624409Y657283D02*
Y661614D01*
X1396834Y604435D02*
Y619974D01*
X1410252Y604435D02*
Y619974D01*
X1469669Y604435D02*
Y619974D01*
X1483087Y604435D02*
Y619974D01*
X1542504Y604435D02*
Y619974D01*
X1555922Y604435D02*
Y619974D01*
X1615338Y604435D02*
Y619974D01*
X1628756Y604435D02*
Y619974D01*
X1882579Y658858D02*
X1888287D01*
X1882579Y652165D02*
X1888287D01*
X1922835Y690945D02*
X1935433D01*
X1922835Y671260D02*
X1935433D01*
X1922835D02*
Y690945D01*
X1935433Y671260D02*
Y690945D01*
X1955413Y658858D02*
X1961122D01*
X1955413Y652165D02*
X1961122D01*
X1920866Y657283D02*
Y661614D01*
X1913779Y657283D02*
Y661614D01*
X1911024Y657283D02*
Y661614D01*
X1903937Y657283D02*
Y661614D01*
X1736909Y658858D02*
X1742618D01*
X1736909Y652165D02*
X1742618D01*
X1777165Y690945D02*
X1789764D01*
X1777165Y671260D02*
X1789764D01*
X1777165D02*
Y690945D01*
X1789764Y671260D02*
Y690945D01*
X1809744Y658858D02*
X1815453D01*
X1809744Y652165D02*
X1815453D01*
X1775197Y657283D02*
Y661614D01*
X1768110Y657283D02*
Y661614D01*
X1765354Y657283D02*
Y661614D01*
X1758268Y657283D02*
Y661614D01*
X1833842Y604435D02*
Y619974D01*
X1847260Y604435D02*
Y619974D01*
X1906677Y604435D02*
Y619974D01*
X1920095Y604435D02*
Y619974D01*
X1688173Y604435D02*
Y619974D01*
X1701591Y604435D02*
Y619974D01*
X1761007Y604435D02*
Y619974D01*
X1774426Y604435D02*
Y619974D01*
X2028248Y658858D02*
X2033957D01*
X2028248Y652165D02*
X2033957D01*
X2066535Y690945D02*
X2079134D01*
X2066535Y671260D02*
X2079134D01*
X2066535D02*
Y690945D01*
X2079134Y671260D02*
Y690945D01*
X2101083Y658858D02*
X2106791D01*
X2101083Y652165D02*
X2106791D01*
X2064567Y657677D02*
Y662008D01*
X2057480Y657677D02*
Y662008D01*
X2054724Y657677D02*
Y662008D01*
X2047638Y657677D02*
Y662008D01*
X2173917Y658858D02*
X2179626D01*
X2173917Y652165D02*
X2179626D01*
X2214173Y690945D02*
X2226772D01*
X2214173Y671260D02*
X2226772D01*
X2214173D02*
Y690945D01*
X2226772Y671260D02*
Y690945D01*
X2246752Y658858D02*
X2252461D01*
X2246752Y652165D02*
X2252461D01*
X2214173Y657677D02*
Y662008D01*
X2207087Y657677D02*
Y662008D01*
X2204331Y657677D02*
Y662008D01*
X2197244Y657677D02*
Y662008D01*
X1979511Y604435D02*
Y619974D01*
X1992930Y604435D02*
Y619974D01*
X2052346Y604435D02*
Y619974D01*
X2065764Y604435D02*
Y619974D01*
X2125181Y604435D02*
Y619974D01*
X2138599Y604435D02*
Y619974D01*
X2198015Y604435D02*
Y619974D01*
X2211433Y604435D02*
Y619974D01*
X1180610Y364764D02*
X1186319D01*
X1180610Y371457D02*
X1186319D01*
X1133465Y332677D02*
X1146063D01*
X1133465Y352362D02*
X1146063D01*
Y332677D02*
Y352362D01*
X1133465Y332677D02*
Y352362D01*
X1107776Y364764D02*
X1113484D01*
X1107776Y371457D02*
X1113484D01*
X1157874Y362008D02*
Y366339D01*
X1164961Y362008D02*
Y366339D01*
X1148032Y362008D02*
Y366339D01*
X1155118Y362008D02*
Y366339D01*
X1326280Y364764D02*
X1331988D01*
X1326280Y371457D02*
X1331988D01*
X1281102Y332677D02*
X1293701D01*
X1281102Y352362D02*
X1293701D01*
Y332677D02*
Y352362D01*
X1281102Y332677D02*
Y352362D01*
X1252658Y364764D02*
X1258366D01*
X1252658Y371457D02*
X1258366D01*
X1295669Y362008D02*
Y366339D01*
X1302756Y362008D02*
Y366339D01*
X1305512Y362008D02*
Y366339D01*
X1312598Y362008D02*
Y366339D01*
X1235056Y403648D02*
Y419187D01*
X1221637Y403648D02*
Y419187D01*
X1162221Y403648D02*
Y419187D01*
X1148803Y403648D02*
Y419187D01*
X1380725Y403648D02*
Y419187D01*
X1367307Y403648D02*
Y419187D01*
X1307103Y403648D02*
Y419187D01*
X1293685Y403648D02*
Y419187D01*
X1471949Y364764D02*
X1477658D01*
X1471949Y371457D02*
X1477658D01*
X1426772Y332677D02*
X1439370D01*
X1426772Y352362D02*
X1439370D01*
Y332677D02*
Y352362D01*
X1426772Y332677D02*
Y352362D01*
X1399114Y364764D02*
X1404823D01*
X1399114Y371457D02*
X1404823D01*
X1451181Y362008D02*
Y366339D01*
X1458268Y362008D02*
Y366339D01*
X1441339Y362008D02*
Y366339D01*
X1448425Y362008D02*
Y366339D01*
X1572441Y330709D02*
X1585039D01*
X1572441Y350394D02*
X1585039D01*
Y330709D02*
Y350394D01*
X1572441Y330709D02*
Y350394D01*
X1587008Y360433D02*
Y364764D01*
X1594094Y360433D02*
Y364764D01*
X1596850Y360433D02*
Y364764D01*
X1603937Y360433D02*
Y364764D01*
X1526394Y403648D02*
Y419187D01*
X1512976Y403648D02*
Y419187D01*
X1453559Y403648D02*
Y419187D01*
X1440141Y403648D02*
Y419187D01*
X1763287Y364764D02*
X1768996D01*
X1763287Y371457D02*
X1768996D01*
X1720079Y330709D02*
X1732677D01*
X1720079Y350394D02*
X1732677D01*
Y330709D02*
Y350394D01*
X1720079Y330709D02*
Y350394D01*
X1690453Y364764D02*
X1696161D01*
X1690453Y371457D02*
X1696161D01*
X1732677Y360039D02*
Y364370D01*
X1739764Y360039D02*
Y364370D01*
X1742520Y360039D02*
Y364370D01*
X1749606Y360039D02*
Y364370D01*
X1908957Y364764D02*
X1914665D01*
X1908957Y371457D02*
X1914665D01*
X1859842Y330709D02*
X1872441D01*
X1859842Y350394D02*
X1872441D01*
Y330709D02*
Y350394D01*
X1859842Y330709D02*
Y350394D01*
X1836122Y364764D02*
X1841831D01*
X1836122Y371457D02*
X1841831D01*
X1874409Y360039D02*
Y364370D01*
X1881496Y360039D02*
Y364370D01*
X1884252Y360039D02*
Y364370D01*
X1891339Y360039D02*
Y364370D01*
X1817733Y403648D02*
Y419187D01*
X1804314Y403648D02*
Y419187D01*
X1744898Y403648D02*
Y419187D01*
X1731480Y403648D02*
Y419187D01*
X1963402Y403648D02*
Y419187D01*
X1949984Y403648D02*
Y419187D01*
X1890567Y403648D02*
Y419187D01*
X1877149Y403648D02*
Y419187D01*
X2054626Y364764D02*
X2060335D01*
X2054626Y371457D02*
X2060335D01*
X2007480Y330709D02*
X2020079D01*
X2007480Y350394D02*
X2020079D01*
Y330709D02*
Y350394D01*
X2007480Y330709D02*
Y350394D01*
X1981791Y364764D02*
X1987500D01*
X1981791Y371457D02*
X1987500D01*
X2022047Y360039D02*
Y364370D01*
X2029134Y360039D02*
Y364370D01*
X2031890Y360039D02*
Y364370D01*
X2038976Y360039D02*
Y364370D01*
X2109071Y403648D02*
Y419187D01*
X2095653Y403648D02*
Y419187D01*
X2036237Y403648D02*
Y419187D01*
X2022819Y403648D02*
Y419187D01*
D15*
X986220Y456390D02*
X1009842D01*
X986032Y456201D02*
X986220Y456390D01*
X978531Y448701D02*
X986032Y456201D01*
X1009842Y456390D02*
X1017531Y448701D01*
X978531Y444673D02*
Y448701D01*
X1017531Y374201D02*
Y448701D01*
X978531Y374201D02*
X1017508D01*
X978531D02*
Y444673D01*
X838976Y711614D02*
X914173D01*
Y650591D02*
Y711614D01*
X838976Y650591D02*
X914173D01*
X838976D02*
Y711614D01*
X1070375Y382382D02*
Y385334D01*
X1071851D01*
X1072343Y384842D01*
Y383858D01*
X1071851Y383366D01*
X1070375D01*
X1071359D02*
X1072343Y382382D01*
X1073327Y384842D02*
X1073819Y385334D01*
X1074802D01*
X1075294Y384842D01*
Y384350D01*
X1074802Y383858D01*
X1075294Y383366D01*
Y382874D01*
X1074802Y382382D01*
X1073819D01*
X1073327Y382874D01*
Y383366D01*
X1073819Y383858D01*
X1073327Y384350D01*
Y384842D01*
X1073819Y383858D02*
X1074802D01*
X945882Y371079D02*
Y374078D01*
X947381D01*
X947881Y373578D01*
Y372578D01*
X947381Y372078D01*
X945882D01*
X949381Y371079D02*
X950380D01*
X950880Y371579D01*
Y372578D01*
X950380Y373078D01*
X949381D01*
X948881Y372578D01*
Y371579D01*
X949381Y371079D01*
X951880Y373078D02*
Y371579D01*
X952380Y371079D01*
X952880Y371579D01*
X953380Y371079D01*
X953879Y371579D01*
Y373078D01*
X956378Y371079D02*
X955379D01*
X954879Y371579D01*
Y372578D01*
X955379Y373078D01*
X956378D01*
X956878Y372578D01*
Y372078D01*
X954879D01*
X957878Y373078D02*
Y371079D01*
Y372078D01*
X958378Y372578D01*
X958878Y373078D01*
X959377D01*
X965875Y373578D02*
X965376Y374078D01*
X964376D01*
X963876Y373578D01*
Y373078D01*
X964376Y372578D01*
X965376D01*
X965875Y372078D01*
Y371579D01*
X965376Y371079D01*
X964376D01*
X963876Y371579D01*
X966875Y374078D02*
Y371079D01*
X967875Y372078D01*
X968874Y371079D01*
Y374078D01*
X916354Y371079D02*
Y374078D01*
X917854D01*
X918354Y373578D01*
Y372578D01*
X917854Y372078D01*
X916354D01*
X919853Y371079D02*
X920853D01*
X921353Y371579D01*
Y372578D01*
X920853Y373078D01*
X919853D01*
X919353Y372578D01*
Y371579D01*
X919853Y371079D01*
X922352Y373078D02*
Y371579D01*
X922852Y371079D01*
X923352Y371579D01*
X923852Y371079D01*
X924352Y371579D01*
Y373078D01*
X926851Y371079D02*
X925851D01*
X925351Y371579D01*
Y372578D01*
X925851Y373078D01*
X926851D01*
X927351Y372578D01*
Y372078D01*
X925351D01*
X928350Y373078D02*
Y371079D01*
Y372078D01*
X928850Y372578D01*
X929350Y373078D01*
X929850D01*
X936348Y373578D02*
X935848Y374078D01*
X934848D01*
X934348Y373578D01*
Y373078D01*
X934848Y372578D01*
X935848D01*
X936348Y372078D01*
Y371579D01*
X935848Y371079D01*
X934848D01*
X934348Y371579D01*
X937348Y374078D02*
Y371079D01*
X938347Y372078D01*
X939347Y371079D01*
Y374078D01*
X941976Y456255D02*
X941476Y456755D01*
X940476D01*
X939976Y456255D01*
Y454256D01*
X940476Y453756D01*
X941476D01*
X941976Y454256D01*
Y455255D01*
X940976D01*
X942975Y453756D02*
Y456755D01*
X944975Y453756D01*
Y456755D01*
X945974D02*
Y453756D01*
X947474D01*
X947974Y454256D01*
Y456255D01*
X947474Y456755D01*
X945974D01*
X941945Y398638D02*
X942945D01*
X942445D01*
Y401637D01*
X941945Y401137D01*
X946443Y398638D02*
X944444D01*
X946443Y400637D01*
Y401137D01*
X945944Y401637D01*
X944944D01*
X944444Y401137D01*
X947443Y401637D02*
Y399638D01*
X948443Y398638D01*
X949442Y399638D01*
Y401637D01*
X953441D02*
X954441D01*
X953941D01*
Y398638D01*
X953441D01*
X954441D01*
X955940D02*
Y401637D01*
X957940Y398638D01*
Y401637D01*
X832066Y529175D02*
Y526176D01*
X833566D01*
X834065Y526676D01*
Y528675D01*
X833566Y529175D01*
X832066D01*
X835065D02*
X837064D01*
Y528675D01*
X835065Y526676D01*
Y526176D01*
X853362Y536433D02*
Y538432D01*
X854362Y539432D01*
X855361Y538432D01*
Y536433D01*
Y537933D01*
X853362D01*
X856361Y536433D02*
X857361D01*
X856861D01*
Y539432D01*
X856361Y538932D01*
X853362Y546276D02*
Y548275D01*
X854362Y549275D01*
X855361Y548275D01*
Y546276D01*
Y547775D01*
X853362D01*
X858361Y546276D02*
X856361D01*
X858361Y548275D01*
Y548775D01*
X857861Y549275D01*
X856861D01*
X856361Y548775D01*
X853362Y558087D02*
Y560086D01*
X854362Y561086D01*
X855361Y560086D01*
Y558087D01*
Y559586D01*
X853362D01*
X856361Y560586D02*
X856861Y561086D01*
X857861D01*
X858361Y560586D01*
Y558586D01*
X857861Y558087D01*
X856861D01*
X856361Y558586D01*
Y560586D01*
X853362Y570928D02*
Y567929D01*
X854862D01*
X855361Y568429D01*
Y570428D01*
X854862Y570928D01*
X853362D01*
X858361D02*
X857361Y570428D01*
X856361Y569429D01*
Y568429D01*
X856861Y567929D01*
X857861D01*
X858361Y568429D01*
Y568929D01*
X857861Y569429D01*
X856361D01*
X853362Y580771D02*
Y577772D01*
X854862D01*
X855361Y578271D01*
Y580271D01*
X854862Y580771D01*
X853362D01*
X858361D02*
X856361D01*
Y579271D01*
X857361Y579771D01*
X857861D01*
X858361Y579271D01*
Y578271D01*
X857861Y577772D01*
X856861D01*
X856361Y578271D01*
X853362Y590613D02*
Y587614D01*
X854862D01*
X855361Y588114D01*
Y590113D01*
X854862Y590613D01*
X853362D01*
X857861Y587614D02*
Y590613D01*
X856361Y589114D01*
X858361D01*
X853362Y600456D02*
Y597457D01*
X855361D01*
X856861D02*
X857861D01*
X858361Y597957D01*
Y598956D01*
X857861Y599456D01*
X856861D01*
X856361Y598956D01*
Y597957D01*
X856861Y597457D01*
X859860Y599456D02*
X860860D01*
X861360Y598956D01*
Y597457D01*
X859860D01*
X859360Y597957D01*
X859860Y598456D01*
X861360D01*
X864359Y600456D02*
Y597457D01*
X862859D01*
X862359Y597957D01*
Y598956D01*
X862859Y599456D01*
X864359D01*
X865358Y598956D02*
X867358D01*
X866358Y599956D02*
Y597957D01*
X833071Y603966D02*
X835071D01*
X836070Y604966D01*
X835071Y605966D01*
X833071D01*
X836070Y606965D02*
Y608465D01*
X835570Y608965D01*
X835071Y608465D01*
Y607465D01*
X834571Y606965D01*
X834071Y607465D01*
Y608965D01*
X836070Y609964D02*
Y610964D01*
Y610464D01*
X834071D01*
Y609964D01*
X837070Y613463D02*
Y613963D01*
X836570Y614463D01*
X834071D01*
Y612963D01*
X834571Y612464D01*
X835570D01*
X836070Y612963D01*
Y614463D01*
X853362Y617142D02*
X854362D01*
X853862D01*
Y620141D01*
X853362Y619641D01*
X857861Y617142D02*
X855861D01*
X857861Y619141D01*
Y619641D01*
X857361Y620141D01*
X856361D01*
X855861Y619641D01*
X858860Y620141D02*
Y618141D01*
X859860Y617142D01*
X860860Y618141D01*
Y620141D01*
X855361Y629983D02*
X853362D01*
Y628484D01*
X854362Y628984D01*
X854862D01*
X855361Y628484D01*
Y627484D01*
X854862Y626984D01*
X853862D01*
X853362Y627484D01*
X856361Y629983D02*
Y627984D01*
X857361Y626984D01*
X858361Y627984D01*
Y629983D01*
X854409Y639233D02*
X853909Y639733D01*
X852909D01*
X852409Y639233D01*
Y637234D01*
X852909Y636734D01*
X853909D01*
X854409Y637234D01*
Y638233D01*
X853409D01*
X855408Y636734D02*
Y639733D01*
X857408Y636734D01*
Y639733D01*
X858407D02*
Y636734D01*
X859907D01*
X860407Y637234D01*
Y639233D01*
X859907Y639733D01*
X858407D01*
X903481Y359299D02*
Y357299D01*
X904981D01*
Y358299D01*
Y357299D01*
X906480D01*
Y360298D02*
X904481D01*
X903481Y361298D01*
X904481Y362298D01*
X906480D01*
X904981D01*
Y360298D01*
X906480Y363297D02*
X903481D01*
X906480Y365297D01*
X903481D01*
X903981Y368296D02*
X903481Y367796D01*
Y366796D01*
X903981Y366296D01*
X904481D01*
X904981Y366796D01*
Y367796D01*
X905481Y368296D01*
X905980D01*
X906480Y367796D01*
Y366796D01*
X905980Y366296D01*
X903481Y406543D02*
Y404543D01*
X904981D01*
Y405543D01*
Y404543D01*
X906480D01*
Y407542D02*
X904481D01*
X903481Y408542D01*
X904481Y409542D01*
X906480D01*
X904981D01*
Y407542D01*
X906480Y410541D02*
X903481D01*
X906480Y412541D01*
X903481D01*
X903981Y415540D02*
X903481Y415040D01*
Y414040D01*
X903981Y413540D01*
X904481D01*
X904981Y414040D01*
Y415040D01*
X905481Y415540D01*
X905980D01*
X906480Y415040D01*
Y414040D01*
X905980Y413540D01*
X884858Y416354D02*
X886858D01*
X882890Y367142D02*
X884889D01*
X882890Y356330D02*
X884889D01*
X883889Y357330D02*
Y355331D01*
X884858Y405543D02*
X886858D01*
X885858Y406543D02*
Y404543D01*
X975531Y437201D02*
X973564D01*
X971031Y392185D02*
X972999D01*
X972015Y393169D02*
Y391201D01*
X987031Y463653D02*
X988999Y460701D01*
Y463653D02*
X987031Y460701D01*
X989983Y463653D02*
X991951D01*
X990967D01*
Y460701D01*
X992935Y461193D02*
X993427Y460701D01*
X994411D01*
X994903Y461193D01*
Y463161D01*
X994411Y463653D01*
X993427D01*
X992935Y463161D01*
Y462669D01*
X993427Y462177D01*
X994903D01*
X995887Y463161D02*
X996379Y463653D01*
X997363D01*
X997855Y463161D01*
Y461193D01*
X997363Y460701D01*
X996379D01*
X995887Y461193D01*
Y463161D01*
X900412Y559185D02*
X905410D01*
X906410Y560184D01*
Y562184D01*
X905410Y563183D01*
X900412D01*
X906410Y569181D02*
Y565183D01*
X902411Y569181D01*
X901412D01*
X900412Y568182D01*
Y566182D01*
X901412Y565183D01*
Y571181D02*
X900412Y572181D01*
Y574180D01*
X901412Y575179D01*
X902411D01*
X903411Y574180D01*
Y573180D01*
Y574180D01*
X904410Y575179D01*
X905410D01*
X906410Y574180D01*
Y572181D01*
X905410Y571181D01*
X866142Y530512D02*
X865650Y531004D01*
X864666D01*
X864174Y530512D01*
Y528544D01*
X864666Y528052D01*
X865650D01*
X866142Y528544D01*
X869094Y531004D02*
X868110Y530512D01*
X867126Y529528D01*
Y528544D01*
X867618Y528052D01*
X868602D01*
X869094Y528544D01*
Y529036D01*
X868602Y529528D01*
X867126D01*
X872046Y531004D02*
X870078D01*
Y529528D01*
X871062Y530020D01*
X871554D01*
X872046Y529528D01*
Y528544D01*
X871554Y528052D01*
X870570D01*
X870078Y528544D01*
X903544Y528543D02*
X903052Y529035D01*
X902068D01*
X901576Y528543D01*
Y526575D01*
X902068Y526083D01*
X903052D01*
X903544Y526575D01*
X906496Y529035D02*
X905512Y528543D01*
X904528Y527559D01*
Y526575D01*
X905020Y526083D01*
X906004D01*
X906496Y526575D01*
Y527067D01*
X906004Y527559D01*
X904528D01*
X908956Y526083D02*
Y529035D01*
X907480Y527559D01*
X909448D01*
X2147639Y326279D02*
Y323819D01*
X2148131Y323327D01*
X2149115D01*
X2149607Y323819D01*
Y326279D01*
X2152559Y323327D02*
X2150591D01*
X2152559Y325295D01*
Y325787D01*
X2152067Y326279D01*
X2151083D01*
X2150591Y325787D01*
X2155511Y323327D02*
X2153543D01*
X2155511Y325295D01*
Y325787D01*
X2155019Y326279D01*
X2154035D01*
X2153543Y325787D01*
X2259844Y409941D02*
Y412893D01*
X2261320D01*
X2261812Y412401D01*
Y411417D01*
X2261320Y410925D01*
X2259844D01*
X2260828D02*
X2261812Y409941D01*
X2262796Y410433D02*
X2263288Y409941D01*
X2264272D01*
X2264763Y410433D01*
Y412401D01*
X2264272Y412893D01*
X2263288D01*
X2262796Y412401D01*
Y411909D01*
X2263288Y411417D01*
X2264763D01*
X2267223Y409941D02*
Y412893D01*
X2265747Y411417D01*
X2267715D01*
X2198820Y358760D02*
Y361712D01*
X2200296D01*
X2200788Y361220D01*
Y360236D01*
X2200296Y359744D01*
X2198820D01*
X2199804D02*
X2200788Y358760D01*
X2201772Y359252D02*
X2202264Y358760D01*
X2203248D01*
X2203740Y359252D01*
Y361220D01*
X2203248Y361712D01*
X2202264D01*
X2201772Y361220D01*
Y360728D01*
X2202264Y360236D01*
X2203740D01*
X2204724Y361220D02*
X2205216Y361712D01*
X2206200D01*
X2206692Y361220D01*
Y360728D01*
X2206200Y360236D01*
X2205708D01*
X2206200D01*
X2206692Y359744D01*
Y359252D01*
X2206200Y358760D01*
X2205216D01*
X2204724Y359252D01*
X2187009Y409941D02*
Y412893D01*
X2188485D01*
X2188977Y412401D01*
Y411417D01*
X2188485Y410925D01*
X2187009D01*
X2187993D02*
X2188977Y409941D01*
X2189961Y410433D02*
X2190453Y409941D01*
X2191437D01*
X2191929Y410433D01*
Y412401D01*
X2191437Y412893D01*
X2190453D01*
X2189961Y412401D01*
Y411909D01*
X2190453Y411417D01*
X2191929D01*
X2194881Y409941D02*
X2192913D01*
X2194881Y411909D01*
Y412401D01*
X2194389Y412893D01*
X2193405D01*
X2192913Y412401D01*
X2126477Y358760D02*
Y361712D01*
X2127953D01*
X2128445Y361220D01*
Y360236D01*
X2127953Y359744D01*
X2126477D01*
X2127461D02*
X2128445Y358760D01*
X2129429Y359252D02*
X2129921Y358760D01*
X2130905D01*
X2131397Y359252D01*
Y361220D01*
X2130905Y361712D01*
X2129921D01*
X2129429Y361220D01*
Y360728D01*
X2129921Y360236D01*
X2131397D01*
X2132381Y358760D02*
X2133365D01*
X2132873D01*
Y361712D01*
X2132381Y361220D01*
X2200788Y396654D02*
Y398622D01*
X2200296Y399114D01*
X2199312D01*
X2198820Y398622D01*
Y396654D01*
X2199312Y396162D01*
X2200296D01*
X2199804Y397146D02*
X2200788Y396162D01*
X2200296D02*
X2200788Y396654D01*
X2201772Y398622D02*
X2202264Y399114D01*
X2203248D01*
X2203740Y398622D01*
Y398130D01*
X2203248Y397638D01*
X2202756D01*
X2203248D01*
X2203740Y397146D01*
Y396654D01*
X2203248Y396162D01*
X2202264D01*
X2201772Y396654D01*
X2204724Y399114D02*
X2206692D01*
Y398622D01*
X2204724Y396654D01*
Y396162D01*
X2131890Y398622D02*
Y400590D01*
X2131398Y401082D01*
X2130415D01*
X2129922Y400590D01*
Y398622D01*
X2130415Y398130D01*
X2131398D01*
X2130906Y399114D02*
X2131890Y398130D01*
X2131398D02*
X2131890Y398622D01*
X2132874Y400590D02*
X2133366Y401082D01*
X2134350D01*
X2134842Y400590D01*
Y400098D01*
X2134350Y399606D01*
X2133858D01*
X2134350D01*
X2134842Y399114D01*
Y398622D01*
X2134350Y398130D01*
X2133366D01*
X2132874Y398622D01*
X2137794Y401082D02*
X2136810Y400590D01*
X2135826Y399606D01*
Y398622D01*
X2136318Y398130D01*
X2137302D01*
X2137794Y398622D01*
Y399114D01*
X2137302Y399606D01*
X2135826D01*
X2188977Y361220D02*
X2188485Y361712D01*
X2187501D01*
X2187009Y361220D01*
Y359252D01*
X2187501Y358760D01*
X2188485D01*
X2188977Y359252D01*
X2191929Y361712D02*
X2190945Y361220D01*
X2189961Y360236D01*
Y359252D01*
X2190453Y358760D01*
X2191437D01*
X2191929Y359252D01*
Y359744D01*
X2191437Y360236D01*
X2189961D01*
X2192913Y361220D02*
X2193405Y361712D01*
X2194389D01*
X2194881Y361220D01*
Y360728D01*
X2194389Y360236D01*
X2193897D01*
X2194389D01*
X2194881Y359744D01*
Y359252D01*
X2194389Y358760D01*
X2193405D01*
X2192913Y359252D01*
X2159450Y363189D02*
X2158957Y363681D01*
X2157973D01*
X2157482Y363189D01*
Y361221D01*
X2157973Y360729D01*
X2158957D01*
X2159450Y361221D01*
X2162401Y363681D02*
X2161417Y363189D01*
X2160433Y362205D01*
Y361221D01*
X2160925Y360729D01*
X2161909D01*
X2162401Y361221D01*
Y361713D01*
X2161909Y362205D01*
X2160433D01*
X2165353Y360729D02*
X2163385D01*
X2165353Y362697D01*
Y363189D01*
X2164861Y363681D01*
X2163877D01*
X2163385Y363189D01*
X2002462Y326279D02*
Y323819D01*
X2002954Y323327D01*
X2003938D01*
X2004430Y323819D01*
Y326279D01*
X2007381Y323327D02*
X2005413D01*
X2007381Y325295D01*
Y325787D01*
X2006889Y326279D01*
X2005906D01*
X2005413Y325787D01*
X2008365Y323327D02*
X2009349D01*
X2008857D01*
Y326279D01*
X2008365Y325787D01*
X1856301Y324311D02*
Y321851D01*
X1856792Y321359D01*
X1857776D01*
X1858268Y321851D01*
Y324311D01*
X1861220Y321359D02*
X1859252D01*
X1861220Y323327D01*
Y323819D01*
X1860728Y324311D01*
X1859744D01*
X1859252Y323819D01*
X1862204D02*
X1862696Y324311D01*
X1863680D01*
X1864172Y323819D01*
Y321851D01*
X1863680Y321359D01*
X1862696D01*
X1862204Y321851D01*
Y323819D01*
X1712846Y326279D02*
Y323819D01*
X1713338Y323327D01*
X1714322D01*
X1714813Y323819D01*
Y326279D01*
X1715797Y323327D02*
X1716781D01*
X1716289D01*
Y326279D01*
X1715797Y325787D01*
X1718257Y323819D02*
X1718749Y323327D01*
X1719733D01*
X1720225Y323819D01*
Y325787D01*
X1719733Y326279D01*
X1718749D01*
X1718257Y325787D01*
Y325295D01*
X1718749Y324803D01*
X1720225D01*
X1563239Y326279D02*
Y323819D01*
X1563731Y323327D01*
X1564715D01*
X1565207Y323819D01*
Y326279D01*
X1566191Y323327D02*
X1567175D01*
X1566683D01*
Y326279D01*
X1566191Y325787D01*
X1568651D02*
X1569143Y326279D01*
X1570127D01*
X1570619Y325787D01*
Y325295D01*
X1570127Y324803D01*
X1570619Y324311D01*
Y323819D01*
X1570127Y323327D01*
X1569143D01*
X1568651Y323819D01*
Y324311D01*
X1569143Y324803D01*
X1568651Y325295D01*
Y325787D01*
X1569143Y324803D02*
X1570127D01*
X1419539Y328248D02*
Y325788D01*
X1420031Y325296D01*
X1421014D01*
X1421507Y325788D01*
Y328248D01*
X1422490Y325296D02*
X1423474D01*
X1422982D01*
Y328248D01*
X1422490Y327756D01*
X1424950Y328248D02*
X1426918D01*
Y327756D01*
X1424950Y325788D01*
Y325296D01*
X1273869Y328248D02*
Y325788D01*
X1274361Y325296D01*
X1275345D01*
X1275837Y325788D01*
Y328248D01*
X1276821Y325296D02*
X1277805D01*
X1277313D01*
Y328248D01*
X1276821Y327756D01*
X1281249Y328248D02*
X1280265Y327756D01*
X1279281Y326772D01*
Y325788D01*
X1279773Y325296D01*
X1280757D01*
X1281249Y325788D01*
Y326280D01*
X1280757Y326772D01*
X1279281D01*
X1114421Y347933D02*
Y345473D01*
X1114912Y344981D01*
X1115896D01*
X1116388Y345473D01*
Y347933D01*
X1117372Y344981D02*
X1118356D01*
X1117864D01*
Y347933D01*
X1117372Y347441D01*
X1121800Y347933D02*
X1119832D01*
Y346457D01*
X1120816Y346949D01*
X1121308D01*
X1121800Y346457D01*
Y345473D01*
X1121308Y344981D01*
X1120324D01*
X1119832Y345473D01*
X2216783Y698326D02*
Y695866D01*
X2217275Y695374D01*
X2218259D01*
X2218751Y695866D01*
Y698326D01*
X2219735Y695374D02*
X2220718D01*
X2220226D01*
Y698326D01*
X2219735Y697834D01*
X2223670Y695374D02*
Y698326D01*
X2222194Y696850D01*
X2224162D01*
X2069145Y698326D02*
Y695866D01*
X2069637Y695374D01*
X2070621D01*
X2071113Y695866D01*
Y698326D01*
X2072097Y695374D02*
X2073081D01*
X2072589D01*
Y698326D01*
X2072097Y697834D01*
X2074557D02*
X2075048Y698326D01*
X2076032D01*
X2076524Y697834D01*
Y697342D01*
X2076032Y696850D01*
X2075541D01*
X2076032D01*
X2076524Y696358D01*
Y695866D01*
X2076032Y695374D01*
X2075048D01*
X2074557Y695866D01*
X1779775Y698326D02*
Y695866D01*
X1780267Y695374D01*
X1781251D01*
X1781743Y695866D01*
Y698326D01*
X1782727Y695374D02*
X1783711D01*
X1783219D01*
Y698326D01*
X1782727Y697834D01*
X1787154Y695374D02*
X1785187D01*
X1787154Y697342D01*
Y697834D01*
X1786662Y698326D01*
X1785678D01*
X1785187Y697834D01*
X1923968Y698326D02*
Y695866D01*
X1924459Y695374D01*
X1925443D01*
X1925935Y695866D01*
Y698326D01*
X1926919Y695374D02*
X1927903D01*
X1927411D01*
Y698326D01*
X1926919Y697834D01*
X1929379Y695374D02*
X1930363D01*
X1929871D01*
Y698326D01*
X1929379Y697834D01*
X1636074Y698326D02*
Y695866D01*
X1636566Y695374D01*
X1637550D01*
X1638042Y695866D01*
Y698326D01*
X1639026Y695374D02*
X1640010D01*
X1639518D01*
Y698326D01*
X1639026Y697834D01*
X1641486D02*
X1641978Y698326D01*
X1642962D01*
X1643453Y697834D01*
Y695866D01*
X1642962Y695374D01*
X1641978D01*
X1641486Y695866D01*
Y697834D01*
X1097934Y714074D02*
Y711615D01*
X1098426Y711123D01*
X1099410D01*
X1099902Y711615D01*
Y714074D01*
X1100886Y711615D02*
X1101378Y711123D01*
X1102362D01*
X1102853Y711615D01*
Y713582D01*
X1102362Y714074D01*
X1101378D01*
X1100886Y713582D01*
Y713090D01*
X1101378Y712598D01*
X1102853D01*
X1493603Y698326D02*
Y695866D01*
X1494095Y695374D01*
X1495079D01*
X1495571Y695866D01*
Y698326D01*
X1496555Y697834D02*
X1497047Y698326D01*
X1498031D01*
X1498523Y697834D01*
Y697342D01*
X1498031Y696850D01*
X1498523Y696358D01*
Y695866D01*
X1498031Y695374D01*
X1497047D01*
X1496555Y695866D01*
Y696358D01*
X1497047Y696850D01*
X1496555Y697342D01*
Y697834D01*
X1497047Y696850D02*
X1498031D01*
X2336123Y643208D02*
Y640748D01*
X2336615Y640256D01*
X2337599D01*
X2338091Y640748D01*
Y643208D01*
X2339075D02*
X2341043D01*
Y642716D01*
X2339075Y640748D01*
Y640256D01*
X2418800Y662893D02*
Y660433D01*
X2419292Y659941D01*
X2420276D01*
X2420768Y660433D01*
Y662893D01*
X2423720D02*
X2422736Y662401D01*
X2421752Y661417D01*
Y660433D01*
X2422244Y659941D01*
X2423228D01*
X2423720Y660433D01*
Y660925D01*
X2423228Y661417D01*
X2421752D01*
X1351871Y698326D02*
Y695866D01*
X1352363Y695374D01*
X1353347D01*
X1353839Y695866D01*
Y698326D01*
X1356791D02*
X1354823D01*
Y696850D01*
X1355807Y697342D01*
X1356299D01*
X1356791Y696850D01*
Y695866D01*
X1356299Y695374D01*
X1355315D01*
X1354823Y695866D01*
X1202265Y698326D02*
Y695866D01*
X1202757Y695374D01*
X1203741D01*
X1204232Y695866D01*
Y698326D01*
X1206692Y695374D02*
Y698326D01*
X1205216Y696850D01*
X1207184D01*
X2389272Y381397D02*
Y378937D01*
X2389764Y378445D01*
X2390748D01*
X2391240Y378937D01*
Y381397D01*
X2392224Y380905D02*
X2392716Y381397D01*
X2393700D01*
X2394192Y380905D01*
Y380413D01*
X2393700Y379921D01*
X2393208D01*
X2393700D01*
X2394192Y379429D01*
Y378937D01*
X2393700Y378445D01*
X2392716D01*
X2392224Y378937D01*
X926674Y637303D02*
Y634843D01*
X927166Y634351D01*
X928150D01*
X928642Y634843D01*
Y637303D01*
X931594Y634351D02*
X929626D01*
X931594Y636319D01*
Y636811D01*
X931102Y637303D01*
X930118D01*
X929626Y636811D01*
X982284Y710137D02*
Y707678D01*
X982776Y707186D01*
X983760D01*
X984252Y707678D01*
Y710137D01*
X985236Y707186D02*
X986220D01*
X985728D01*
Y710137D01*
X985236Y709645D01*
X2039371Y407973D02*
Y410925D01*
X2040847D01*
X2041339Y410433D01*
Y409449D01*
X2040847Y408957D01*
X2039371D01*
X2040355D02*
X2041339Y407973D01*
X2042323Y408465D02*
X2042815Y407973D01*
X2043799D01*
X2044291Y408465D01*
Y410433D01*
X2043799Y410925D01*
X2042815D01*
X2042323Y410433D01*
Y409941D01*
X2042815Y409449D01*
X2044291D01*
X2045275Y410433D02*
X2045767Y410925D01*
X2046751D01*
X2047243Y410433D01*
Y408465D01*
X2046751Y407973D01*
X2045767D01*
X2045275Y408465D01*
Y410433D01*
X2112206Y411910D02*
Y414862D01*
X2113682D01*
X2114174Y414370D01*
Y413386D01*
X2113682Y412894D01*
X2112206D01*
X2113190D02*
X2114174Y411910D01*
X2115158Y414370D02*
X2115650Y414862D01*
X2116634D01*
X2117126Y414370D01*
Y413878D01*
X2116634Y413386D01*
X2117126Y412894D01*
Y412402D01*
X2116634Y411910D01*
X2115650D01*
X2115158Y412402D01*
Y412894D01*
X2115650Y413386D01*
X2115158Y413878D01*
Y414370D01*
X2115650Y413386D02*
X2116634D01*
X2118110Y412402D02*
X2118602Y411910D01*
X2119585D01*
X2120078Y412402D01*
Y414370D01*
X2119585Y414862D01*
X2118602D01*
X2118110Y414370D01*
Y413878D01*
X2118602Y413386D01*
X2120078D01*
X1980316Y356792D02*
Y359744D01*
X1981792D01*
X1982284Y359252D01*
Y358268D01*
X1981792Y357776D01*
X1980316D01*
X1981300D02*
X1982284Y356792D01*
X1983268Y359252D02*
X1983760Y359744D01*
X1984744D01*
X1985236Y359252D01*
Y358760D01*
X1984744Y358268D01*
X1985236Y357776D01*
Y357284D01*
X1984744Y356792D01*
X1983760D01*
X1983268Y357284D01*
Y357776D01*
X1983760Y358268D01*
X1983268Y358760D01*
Y359252D01*
X1983760Y358268D02*
X1984744D01*
X1986220Y359252D02*
X1986712Y359744D01*
X1987696D01*
X1988188Y359252D01*
Y358760D01*
X1987696Y358268D01*
X1988188Y357776D01*
Y357284D01*
X1987696Y356792D01*
X1986712D01*
X1986220Y357284D01*
Y357776D01*
X1986712Y358268D01*
X1986220Y358760D01*
Y359252D01*
X1986712Y358268D02*
X1987696D01*
X2055119Y358760D02*
Y361712D01*
X2056595D01*
X2057087Y361220D01*
Y360236D01*
X2056595Y359744D01*
X2055119D01*
X2056103D02*
X2057087Y358760D01*
X2058071Y361220D02*
X2058563Y361712D01*
X2059547D01*
X2060039Y361220D01*
Y360728D01*
X2059547Y360236D01*
X2060039Y359744D01*
Y359252D01*
X2059547Y358760D01*
X2058563D01*
X2058071Y359252D01*
Y359744D01*
X2058563Y360236D01*
X2058071Y360728D01*
Y361220D01*
X2058563Y360236D02*
X2059547D01*
X2061023Y361712D02*
X2062991D01*
Y361220D01*
X2061023Y359252D01*
Y358760D01*
X1893702Y411910D02*
Y414862D01*
X1895178D01*
X1895670Y414370D01*
Y413386D01*
X1895178Y412894D01*
X1893702D01*
X1894686D02*
X1895670Y411910D01*
X1896654Y414370D02*
X1897146Y414862D01*
X1898130D01*
X1898622Y414370D01*
Y413878D01*
X1898130Y413386D01*
X1898622Y412894D01*
Y412402D01*
X1898130Y411910D01*
X1897146D01*
X1896654Y412402D01*
Y412894D01*
X1897146Y413386D01*
X1896654Y413878D01*
Y414370D01*
X1897146Y413386D02*
X1898130D01*
X1901574Y414862D02*
X1900590Y414370D01*
X1899606Y413386D01*
Y412402D01*
X1900098Y411910D01*
X1901082D01*
X1901574Y412402D01*
Y412894D01*
X1901082Y413386D01*
X1899606D01*
X1968505Y411910D02*
Y414862D01*
X1969981D01*
X1970473Y414370D01*
Y413386D01*
X1969981Y412894D01*
X1968505D01*
X1969489D02*
X1970473Y411910D01*
X1971457Y414370D02*
X1971949Y414862D01*
X1972933D01*
X1973425Y414370D01*
Y413878D01*
X1972933Y413386D01*
X1973425Y412894D01*
Y412402D01*
X1972933Y411910D01*
X1971949D01*
X1971457Y412402D01*
Y412894D01*
X1971949Y413386D01*
X1971457Y413878D01*
Y414370D01*
X1971949Y413386D02*
X1972933D01*
X1976377Y414862D02*
X1974409D01*
Y413386D01*
X1975393Y413878D01*
X1975885D01*
X1976377Y413386D01*
Y412402D01*
X1975885Y411910D01*
X1974901D01*
X1974409Y412402D01*
X1748033Y409941D02*
Y412893D01*
X1749509D01*
X1750001Y412401D01*
Y411417D01*
X1749509Y410925D01*
X1748033D01*
X1749017D02*
X1750001Y409941D01*
X1750985Y412401D02*
X1751476Y412893D01*
X1752460D01*
X1752952Y412401D01*
Y411909D01*
X1752460Y411417D01*
X1752952Y410925D01*
Y410433D01*
X1752460Y409941D01*
X1751476D01*
X1750985Y410433D01*
Y410925D01*
X1751476Y411417D01*
X1750985Y411909D01*
Y412401D01*
X1751476Y411417D02*
X1752460D01*
X1755412Y409941D02*
Y412893D01*
X1753936Y411417D01*
X1755904D01*
X1820867Y409941D02*
Y412893D01*
X1822343D01*
X1822835Y412401D01*
Y411417D01*
X1822343Y410925D01*
X1820867D01*
X1821851D02*
X1822835Y409941D01*
X1823819Y412401D02*
X1824311Y412893D01*
X1825295D01*
X1825787Y412401D01*
Y411909D01*
X1825295Y411417D01*
X1825787Y410925D01*
Y410433D01*
X1825295Y409941D01*
X1824311D01*
X1823819Y410433D01*
Y410925D01*
X1824311Y411417D01*
X1823819Y411909D01*
Y412401D01*
X1824311Y411417D02*
X1825295D01*
X1826771Y412401D02*
X1827263Y412893D01*
X1828247D01*
X1828739Y412401D01*
Y411909D01*
X1828247Y411417D01*
X1827755D01*
X1828247D01*
X1828739Y410925D01*
Y410433D01*
X1828247Y409941D01*
X1827263D01*
X1826771Y410433D01*
X1832678Y358760D02*
Y361712D01*
X1834154D01*
X1834646Y361220D01*
Y360236D01*
X1834154Y359744D01*
X1832678D01*
X1833662D02*
X1834646Y358760D01*
X1835630Y361220D02*
X1836122Y361712D01*
X1837106D01*
X1837598Y361220D01*
Y360728D01*
X1837106Y360236D01*
X1837598Y359744D01*
Y359252D01*
X1837106Y358760D01*
X1836122D01*
X1835630Y359252D01*
Y359744D01*
X1836122Y360236D01*
X1835630Y360728D01*
Y361220D01*
X1836122Y360236D02*
X1837106D01*
X1840550Y358760D02*
X1838582D01*
X1840550Y360728D01*
Y361220D01*
X1840058Y361712D01*
X1839074D01*
X1838582Y361220D01*
X1907973Y358760D02*
Y361712D01*
X1909449D01*
X1909941Y361220D01*
Y360236D01*
X1909449Y359744D01*
X1907973D01*
X1908957D02*
X1909941Y358760D01*
X1910925Y361220D02*
X1911417Y361712D01*
X1912401D01*
X1912893Y361220D01*
Y360728D01*
X1912401Y360236D01*
X1912893Y359744D01*
Y359252D01*
X1912401Y358760D01*
X1911417D01*
X1910925Y359252D01*
Y359744D01*
X1911417Y360236D01*
X1910925Y360728D01*
Y361220D01*
X1911417Y360236D02*
X1912401D01*
X1913877Y358760D02*
X1914861D01*
X1914369D01*
Y361712D01*
X1913877Y361220D01*
X1688978Y358760D02*
Y361712D01*
X1690454D01*
X1690945Y361220D01*
Y360236D01*
X1690454Y359744D01*
X1688978D01*
X1689962D02*
X1690945Y358760D01*
X1691929Y361220D02*
X1692421Y361712D01*
X1693405D01*
X1693897Y361220D01*
Y360728D01*
X1693405Y360236D01*
X1693897Y359744D01*
Y359252D01*
X1693405Y358760D01*
X1692421D01*
X1691929Y359252D01*
Y359744D01*
X1692421Y360236D01*
X1691929Y360728D01*
Y361220D01*
X1692421Y360236D02*
X1693405D01*
X1694881Y361220D02*
X1695373Y361712D01*
X1696357D01*
X1696849Y361220D01*
Y359252D01*
X1696357Y358760D01*
X1695373D01*
X1694881Y359252D01*
Y361220D01*
X1763781Y358760D02*
Y361712D01*
X1765257D01*
X1765749Y361220D01*
Y360236D01*
X1765257Y359744D01*
X1763781D01*
X1764765D02*
X1765749Y358760D01*
X1766733Y361712D02*
X1768700D01*
Y361220D01*
X1766733Y359252D01*
Y358760D01*
X1769684Y359252D02*
X1770176Y358760D01*
X1771160D01*
X1771652Y359252D01*
Y361220D01*
X1771160Y361712D01*
X1770176D01*
X1769684Y361220D01*
Y360728D01*
X1770176Y360236D01*
X1771652D01*
X1602364Y409941D02*
Y412893D01*
X1603839D01*
X1604331Y412401D01*
Y411417D01*
X1603839Y410925D01*
X1602364D01*
X1603347D02*
X1604331Y409941D01*
X1605315Y412893D02*
X1607283D01*
Y412401D01*
X1605315Y410433D01*
Y409941D01*
X1608267Y412401D02*
X1608759Y412893D01*
X1609743D01*
X1610235Y412401D01*
Y411909D01*
X1609743Y411417D01*
X1610235Y410925D01*
Y410433D01*
X1609743Y409941D01*
X1608759D01*
X1608267Y410433D01*
Y410925D01*
X1608759Y411417D01*
X1608267Y411909D01*
Y412401D01*
X1608759Y411417D02*
X1609743D01*
X1677167Y411910D02*
Y414862D01*
X1678642D01*
X1679135Y414370D01*
Y413386D01*
X1678642Y412894D01*
X1677167D01*
X1678151D02*
X1679135Y411910D01*
X1680118Y414862D02*
X1682086D01*
Y414370D01*
X1680118Y412402D01*
Y411910D01*
X1683070Y414862D02*
X1685038D01*
Y414370D01*
X1683070Y412402D01*
Y411910D01*
X1456694Y409941D02*
Y412893D01*
X1458170D01*
X1458662Y412401D01*
Y411417D01*
X1458170Y410925D01*
X1456694D01*
X1457678D02*
X1458662Y409941D01*
X1459646Y412893D02*
X1461614D01*
Y412401D01*
X1459646Y410433D01*
Y409941D01*
X1464566Y412893D02*
X1463582Y412401D01*
X1462598Y411417D01*
Y410433D01*
X1463090Y409941D01*
X1464074D01*
X1464566Y410433D01*
Y410925D01*
X1464074Y411417D01*
X1462598D01*
X1529529Y411910D02*
Y414862D01*
X1531005D01*
X1531497Y414370D01*
Y413386D01*
X1531005Y412894D01*
X1529529D01*
X1530513D02*
X1531497Y411910D01*
X1532481Y414862D02*
X1534449D01*
Y414370D01*
X1532481Y412402D01*
Y411910D01*
X1537400Y414862D02*
X1535433D01*
Y413386D01*
X1536416Y413878D01*
X1536908D01*
X1537400Y413386D01*
Y412402D01*
X1536908Y411910D01*
X1535924D01*
X1535433Y412402D01*
X1543308Y356792D02*
Y359744D01*
X1544784D01*
X1545276Y359252D01*
Y358268D01*
X1544784Y357776D01*
X1543308D01*
X1544292D02*
X1545276Y356792D01*
X1546260Y359744D02*
X1548228D01*
Y359252D01*
X1546260Y357284D01*
Y356792D01*
X1550688D02*
Y359744D01*
X1549212Y358268D01*
X1551180D01*
X1618111Y358760D02*
Y361712D01*
X1619587D01*
X1620079Y361220D01*
Y360236D01*
X1619587Y359744D01*
X1618111D01*
X1619095D02*
X1620079Y358760D01*
X1621063Y361712D02*
X1623031D01*
Y361220D01*
X1621063Y359252D01*
Y358760D01*
X1624015Y361220D02*
X1624507Y361712D01*
X1625491D01*
X1625983Y361220D01*
Y360728D01*
X1625491Y360236D01*
X1624999D01*
X1625491D01*
X1625983Y359744D01*
Y359252D01*
X1625491Y358760D01*
X1624507D01*
X1624015Y359252D01*
X1397639Y358760D02*
Y361712D01*
X1399115D01*
X1399607Y361220D01*
Y360236D01*
X1399115Y359744D01*
X1397639D01*
X1398623D02*
X1399607Y358760D01*
X1400591Y361712D02*
X1402559D01*
Y361220D01*
X1400591Y359252D01*
Y358760D01*
X1405511D02*
X1403543D01*
X1405511Y360728D01*
Y361220D01*
X1405019Y361712D01*
X1404035D01*
X1403543Y361220D01*
X1470966Y358760D02*
Y361712D01*
X1472442D01*
X1472933Y361220D01*
Y360236D01*
X1472442Y359744D01*
X1470966D01*
X1471950D02*
X1472933Y358760D01*
X1473917Y361712D02*
X1475885D01*
Y361220D01*
X1473917Y359252D01*
Y358760D01*
X1476869D02*
X1477853D01*
X1477361D01*
Y361712D01*
X1476869Y361220D01*
X1311025Y409941D02*
Y412893D01*
X1312501D01*
X1312993Y412401D01*
Y411417D01*
X1312501Y410925D01*
X1311025D01*
X1312009D02*
X1312993Y409941D01*
X1313977Y412893D02*
X1315945D01*
Y412401D01*
X1313977Y410433D01*
Y409941D01*
X1316928Y412401D02*
X1317420Y412893D01*
X1318404D01*
X1318896Y412401D01*
Y410433D01*
X1318404Y409941D01*
X1317420D01*
X1316928Y410433D01*
Y412401D01*
X1383860Y411910D02*
Y414862D01*
X1385335D01*
X1385827Y414370D01*
Y413386D01*
X1385335Y412894D01*
X1383860D01*
X1384844D02*
X1385827Y411910D01*
X1388779Y414862D02*
X1387795Y414370D01*
X1386811Y413386D01*
Y412402D01*
X1387303Y411910D01*
X1388287D01*
X1388779Y412402D01*
Y412894D01*
X1388287Y413386D01*
X1386811D01*
X1389763Y412402D02*
X1390255Y411910D01*
X1391239D01*
X1391731Y412402D01*
Y414370D01*
X1391239Y414862D01*
X1390255D01*
X1389763Y414370D01*
Y413878D01*
X1390255Y413386D01*
X1391731D01*
X1133860Y409941D02*
Y412893D01*
X1135335D01*
X1135827Y412401D01*
Y411417D01*
X1135335Y410925D01*
X1133860D01*
X1134844D02*
X1135827Y409941D01*
X1138779Y412893D02*
X1137795Y412401D01*
X1136811Y411417D01*
Y410433D01*
X1137303Y409941D01*
X1138287D01*
X1138779Y410433D01*
Y410925D01*
X1138287Y411417D01*
X1136811D01*
X1139763Y412401D02*
X1140255Y412893D01*
X1141239D01*
X1141731Y412401D01*
Y411909D01*
X1141239Y411417D01*
X1141731Y410925D01*
Y410433D01*
X1141239Y409941D01*
X1140255D01*
X1139763Y410433D01*
Y410925D01*
X1140255Y411417D01*
X1139763Y411909D01*
Y412401D01*
X1140255Y411417D02*
X1141239D01*
X1238190Y409941D02*
Y412893D01*
X1239666D01*
X1240158Y412401D01*
Y411417D01*
X1239666Y410925D01*
X1238190D01*
X1239174D02*
X1240158Y409941D01*
X1243110Y412893D02*
X1242126Y412401D01*
X1241142Y411417D01*
Y410433D01*
X1241634Y409941D01*
X1242618D01*
X1243110Y410433D01*
Y410925D01*
X1242618Y411417D01*
X1241142D01*
X1244094Y412893D02*
X1246062D01*
Y412401D01*
X1244094Y410433D01*
Y409941D01*
X1250001Y358760D02*
Y361712D01*
X1251477D01*
X1251969Y361220D01*
Y360236D01*
X1251477Y359744D01*
X1250001D01*
X1250985D02*
X1251969Y358760D01*
X1254921Y361712D02*
X1253937Y361220D01*
X1252953Y360236D01*
Y359252D01*
X1253445Y358760D01*
X1254429D01*
X1254921Y359252D01*
Y359744D01*
X1254429Y360236D01*
X1252953D01*
X1257873Y361712D02*
X1256889Y361220D01*
X1255905Y360236D01*
Y359252D01*
X1256397Y358760D01*
X1257381D01*
X1257873Y359252D01*
Y359744D01*
X1257381Y360236D01*
X1255905D01*
X1324804Y358760D02*
Y361712D01*
X1326280D01*
X1326772Y361220D01*
Y360236D01*
X1326280Y359744D01*
X1324804D01*
X1325788D02*
X1326772Y358760D01*
X1329724Y361712D02*
X1328740Y361220D01*
X1327756Y360236D01*
Y359252D01*
X1328248Y358760D01*
X1329232D01*
X1329724Y359252D01*
Y359744D01*
X1329232Y360236D01*
X1327756D01*
X1332676Y361712D02*
X1330708D01*
Y360236D01*
X1331692Y360728D01*
X1332184D01*
X1332676Y360236D01*
Y359252D01*
X1332184Y358760D01*
X1331200D01*
X1330708Y359252D01*
X1106301Y358760D02*
Y361712D01*
X1107776D01*
X1108268Y361220D01*
Y360236D01*
X1107776Y359744D01*
X1106301D01*
X1107284D02*
X1108268Y358760D01*
X1111220Y361712D02*
X1110236Y361220D01*
X1109252Y360236D01*
Y359252D01*
X1109744Y358760D01*
X1110728D01*
X1111220Y359252D01*
Y359744D01*
X1110728Y360236D01*
X1109252D01*
X1113680Y358760D02*
Y361712D01*
X1112204Y360236D01*
X1114172D01*
X1179135Y358760D02*
Y361712D01*
X1180611D01*
X1181103Y361220D01*
Y360236D01*
X1180611Y359744D01*
X1179135D01*
X1180119D02*
X1181103Y358760D01*
X1184055Y361712D02*
X1183071Y361220D01*
X1182087Y360236D01*
Y359252D01*
X1182579Y358760D01*
X1183563D01*
X1184055Y359252D01*
Y359744D01*
X1183563Y360236D01*
X1182087D01*
X1185039Y361220D02*
X1185531Y361712D01*
X1186515D01*
X1187007Y361220D01*
Y360728D01*
X1186515Y360236D01*
X1186023D01*
X1186515D01*
X1187007Y359744D01*
Y359252D01*
X1186515Y358760D01*
X1185531D01*
X1185039Y359252D01*
X2214568Y610729D02*
Y613681D01*
X2216044D01*
X2216536Y613189D01*
Y612205D01*
X2216044Y611713D01*
X2214568D01*
X2215552D02*
X2216536Y610729D01*
X2219488Y613681D02*
X2218504Y613189D01*
X2217520Y612205D01*
Y611221D01*
X2218012Y610729D01*
X2218996D01*
X2219488Y611221D01*
Y611713D01*
X2218996Y612205D01*
X2217520D01*
X2222440Y610729D02*
X2220472D01*
X2222440Y612697D01*
Y613189D01*
X2221948Y613681D01*
X2220964D01*
X2220472Y613189D01*
X2144194Y610729D02*
Y613681D01*
X2145670D01*
X2146162Y613189D01*
Y612205D01*
X2145670Y611713D01*
X2144194D01*
X2145178D02*
X2146162Y610729D01*
X2149114Y613681D02*
X2148130Y613189D01*
X2147146Y612205D01*
Y611221D01*
X2147638Y610729D01*
X2148622D01*
X2149114Y611221D01*
Y611713D01*
X2148622Y612205D01*
X2147146D01*
X2150098Y610729D02*
X2151082D01*
X2150590D01*
Y613681D01*
X2150098Y613189D01*
X2068899Y608760D02*
Y611712D01*
X2070375D01*
X2070867Y611220D01*
Y610236D01*
X2070375Y609744D01*
X2068899D01*
X2069883D02*
X2070867Y608760D01*
X2073819Y611712D02*
X2072835Y611220D01*
X2071851Y610236D01*
Y609252D01*
X2072343Y608760D01*
X2073327D01*
X2073819Y609252D01*
Y609744D01*
X2073327Y610236D01*
X2071851D01*
X2074803Y611220D02*
X2075294Y611712D01*
X2076278D01*
X2076770Y611220D01*
Y609252D01*
X2076278Y608760D01*
X2075294D01*
X2074803Y609252D01*
Y611220D01*
X1998033Y610729D02*
Y613681D01*
X1999509D01*
X2000001Y613189D01*
Y612205D01*
X1999509Y611713D01*
X1998033D01*
X1999017D02*
X2000001Y610729D01*
X2002952Y613681D02*
X2000985D01*
Y612205D01*
X2001969Y612697D01*
X2002460D01*
X2002952Y612205D01*
Y611221D01*
X2002460Y610729D01*
X2001476D01*
X2000985Y611221D01*
X2003936D02*
X2004428Y610729D01*
X2005412D01*
X2005904Y611221D01*
Y613189D01*
X2005412Y613681D01*
X2004428D01*
X2003936Y613189D01*
Y612697D01*
X2004428Y612205D01*
X2005904D01*
X2246064Y661910D02*
Y664862D01*
X2247540D01*
X2248032Y664370D01*
Y663386D01*
X2247540Y662894D01*
X2246064D01*
X2247048D02*
X2248032Y661910D01*
X2250984Y664862D02*
X2249016D01*
Y663386D01*
X2250000Y663878D01*
X2250492D01*
X2250984Y663386D01*
Y662402D01*
X2250492Y661910D01*
X2249508D01*
X2249016Y662402D01*
X2251968Y664370D02*
X2252460Y664862D01*
X2253444D01*
X2253936Y664370D01*
Y663878D01*
X2253444Y663386D01*
X2253936Y662894D01*
Y662402D01*
X2253444Y661910D01*
X2252460D01*
X2251968Y662402D01*
Y662894D01*
X2252460Y663386D01*
X2251968Y663878D01*
Y664370D01*
X2252460Y663386D02*
X2253444D01*
X2171261Y661910D02*
Y664862D01*
X2172737D01*
X2173229Y664370D01*
Y663386D01*
X2172737Y662894D01*
X2171261D01*
X2172245D02*
X2173229Y661910D01*
X2176181Y664862D02*
X2174213D01*
Y663386D01*
X2175197Y663878D01*
X2175689D01*
X2176181Y663386D01*
Y662402D01*
X2175689Y661910D01*
X2174705D01*
X2174213Y662402D01*
X2177165Y664862D02*
X2179133D01*
Y664370D01*
X2177165Y662402D01*
Y661910D01*
X2100395D02*
Y664862D01*
X2101871D01*
X2102363Y664370D01*
Y663386D01*
X2101871Y662894D01*
X2100395D01*
X2101379D02*
X2102363Y661910D01*
X2105315Y664862D02*
X2103347D01*
Y663386D01*
X2104331Y663878D01*
X2104823D01*
X2105315Y663386D01*
Y662402D01*
X2104823Y661910D01*
X2103839D01*
X2103347Y662402D01*
X2108266Y664862D02*
X2107282Y664370D01*
X2106299Y663386D01*
Y662402D01*
X2106791Y661910D01*
X2107775D01*
X2108266Y662402D01*
Y662894D01*
X2107775Y663386D01*
X2106299D01*
X2023623Y661910D02*
Y664862D01*
X2025099D01*
X2025591Y664370D01*
Y663386D01*
X2025099Y662894D01*
X2023623D01*
X2024607D02*
X2025591Y661910D01*
X2028543Y664862D02*
X2026575D01*
Y663386D01*
X2027559Y663878D01*
X2028051D01*
X2028543Y663386D01*
Y662402D01*
X2028051Y661910D01*
X2027067D01*
X2026575Y662402D01*
X2031495Y664862D02*
X2029527D01*
Y663386D01*
X2030511Y663878D01*
X2031003D01*
X2031495Y663386D01*
Y662402D01*
X2031003Y661910D01*
X2030019D01*
X2029527Y662402D01*
X1779529Y608760D02*
Y611712D01*
X1781005D01*
X1781497Y611220D01*
Y610236D01*
X1781005Y609744D01*
X1779529D01*
X1780513D02*
X1781497Y608760D01*
X1784448Y611712D02*
X1782481D01*
Y610236D01*
X1783465Y610728D01*
X1783957D01*
X1784448Y610236D01*
Y609252D01*
X1783957Y608760D01*
X1782973D01*
X1782481Y609252D01*
X1786908Y608760D02*
Y611712D01*
X1785432Y610236D01*
X1787400D01*
X1704726Y610729D02*
Y613681D01*
X1706202D01*
X1706693Y613189D01*
Y612205D01*
X1706202Y611713D01*
X1704726D01*
X1705710D02*
X1706693Y610729D01*
X1709645Y613681D02*
X1707677D01*
Y612205D01*
X1708661Y612697D01*
X1709153D01*
X1709645Y612205D01*
Y611221D01*
X1709153Y610729D01*
X1708170D01*
X1707677Y611221D01*
X1710629Y613189D02*
X1711121Y613681D01*
X1712105D01*
X1712597Y613189D01*
Y612697D01*
X1712105Y612205D01*
X1711613D01*
X1712105D01*
X1712597Y611713D01*
Y611221D01*
X1712105Y610729D01*
X1711121D01*
X1710629Y611221D01*
X1923230Y608760D02*
Y611712D01*
X1924706D01*
X1925197Y611220D01*
Y610236D01*
X1924706Y609744D01*
X1923230D01*
X1924214D02*
X1925197Y608760D01*
X1928149Y611712D02*
X1926181D01*
Y610236D01*
X1927165Y610728D01*
X1927657D01*
X1928149Y610236D01*
Y609252D01*
X1927657Y608760D01*
X1926673D01*
X1926181Y609252D01*
X1931101Y608760D02*
X1929133D01*
X1931101Y610728D01*
Y611220D01*
X1930609Y611712D01*
X1929625D01*
X1929133Y611220D01*
X1836055Y634178D02*
Y637130D01*
X1837531D01*
X1838023Y636638D01*
Y635654D01*
X1837531Y635162D01*
X1836055D01*
X1837039D02*
X1838023Y634178D01*
X1840975Y637130D02*
X1839007D01*
Y635654D01*
X1839991Y636146D01*
X1840483D01*
X1840975Y635654D01*
Y634670D01*
X1840483Y634178D01*
X1839499D01*
X1839007Y634670D01*
X1841959Y634178D02*
X1842943D01*
X1842451D01*
Y637130D01*
X1841959Y636638D01*
X1809056Y663878D02*
Y666830D01*
X1810532D01*
X1811024Y666338D01*
Y665354D01*
X1810532Y664862D01*
X1809056D01*
X1810040D02*
X1811024Y663878D01*
X1813976Y666830D02*
X1812008D01*
Y665354D01*
X1812992Y665846D01*
X1813484D01*
X1813976Y665354D01*
Y664370D01*
X1813484Y663878D01*
X1812500D01*
X1812008Y664370D01*
X1814960Y666338D02*
X1815452Y666830D01*
X1816436D01*
X1816928Y666338D01*
Y664370D01*
X1816436Y663878D01*
X1815452D01*
X1814960Y664370D01*
Y666338D01*
X1736222Y661910D02*
Y664862D01*
X1737698D01*
X1738190Y664370D01*
Y663386D01*
X1737698Y662894D01*
X1736222D01*
X1737206D02*
X1738190Y661910D01*
X1740649D02*
Y664862D01*
X1739174Y663386D01*
X1741141D01*
X1742125Y662402D02*
X1742617Y661910D01*
X1743601D01*
X1744093Y662402D01*
Y664370D01*
X1743601Y664862D01*
X1742617D01*
X1742125Y664370D01*
Y663878D01*
X1742617Y663386D01*
X1744093D01*
X1954726Y661910D02*
Y664862D01*
X1956202D01*
X1956693Y664370D01*
Y663386D01*
X1956202Y662894D01*
X1954726D01*
X1955710D02*
X1956693Y661910D01*
X1959153D02*
Y664862D01*
X1957677Y663386D01*
X1959645D01*
X1960629Y664370D02*
X1961121Y664862D01*
X1962105D01*
X1962597Y664370D01*
Y663878D01*
X1962105Y663386D01*
X1962597Y662894D01*
Y662402D01*
X1962105Y661910D01*
X1961121D01*
X1960629Y662402D01*
Y662894D01*
X1961121Y663386D01*
X1960629Y663878D01*
Y664370D01*
X1961121Y663386D02*
X1962105D01*
X1879922Y661910D02*
Y664862D01*
X1881398D01*
X1881890Y664370D01*
Y663386D01*
X1881398Y662894D01*
X1879922D01*
X1880906D02*
X1881890Y661910D01*
X1884350D02*
Y664862D01*
X1882874Y663386D01*
X1884842D01*
X1885826Y664862D02*
X1887794D01*
Y664370D01*
X1885826Y662402D01*
Y661910D01*
X1631891Y608760D02*
Y611712D01*
X1633367D01*
X1633859Y611220D01*
Y610236D01*
X1633367Y609744D01*
X1631891D01*
X1632875D02*
X1633859Y608760D01*
X1636319D02*
Y611712D01*
X1634843Y610236D01*
X1636811D01*
X1639762Y611712D02*
X1638779Y611220D01*
X1637795Y610236D01*
Y609252D01*
X1638287Y608760D01*
X1639271D01*
X1639762Y609252D01*
Y609744D01*
X1639271Y610236D01*
X1637795D01*
X1561025Y610729D02*
Y613681D01*
X1562501D01*
X1562993Y613189D01*
Y612205D01*
X1562501Y611713D01*
X1561025D01*
X1562009D02*
X1562993Y610729D01*
X1565453D02*
Y613681D01*
X1563977Y612205D01*
X1565945D01*
X1568896Y613681D02*
X1566928D01*
Y612205D01*
X1567912Y612697D01*
X1568404D01*
X1568896Y612205D01*
Y611221D01*
X1568404Y610729D01*
X1567420D01*
X1566928Y611221D01*
X1488190Y608760D02*
Y611712D01*
X1489666D01*
X1490158Y611220D01*
Y610236D01*
X1489666Y609744D01*
X1488190D01*
X1489174D02*
X1490158Y608760D01*
X1492618D02*
Y611712D01*
X1491142Y610236D01*
X1493110D01*
X1495570Y608760D02*
Y611712D01*
X1494094Y610236D01*
X1496062D01*
X1415356Y610729D02*
Y613681D01*
X1416831D01*
X1417323Y613189D01*
Y612205D01*
X1416831Y611713D01*
X1415356D01*
X1416339D02*
X1417323Y610729D01*
X1419783D02*
Y613681D01*
X1418307Y612205D01*
X1420275D01*
X1421259Y613189D02*
X1421751Y613681D01*
X1422735D01*
X1423227Y613189D01*
Y612697D01*
X1422735Y612205D01*
X1422243D01*
X1422735D01*
X1423227Y611713D01*
Y611221D01*
X1422735Y610729D01*
X1421751D01*
X1421259Y611221D01*
X1663387Y663878D02*
Y666830D01*
X1664863D01*
X1665355Y666338D01*
Y665354D01*
X1664863Y664862D01*
X1663387D01*
X1664371D02*
X1665355Y663878D01*
X1667815D02*
Y666830D01*
X1666339Y665354D01*
X1668307D01*
X1671259Y663878D02*
X1669291D01*
X1671259Y665846D01*
Y666338D01*
X1670767Y666830D01*
X1669783D01*
X1669291Y666338D01*
X1589076Y661910D02*
Y664862D01*
X1590552D01*
X1591044Y664370D01*
Y663386D01*
X1590552Y662894D01*
X1589076D01*
X1590060D02*
X1591044Y661910D01*
X1593504D02*
Y664862D01*
X1592028Y663386D01*
X1593996D01*
X1594979Y661910D02*
X1595963D01*
X1595471D01*
Y664862D01*
X1594979Y664370D01*
X1517718Y661910D02*
Y664862D01*
X1519194D01*
X1519686Y664370D01*
Y663386D01*
X1519194Y662894D01*
X1517718D01*
X1518702D02*
X1519686Y661910D01*
X1522145D02*
Y664862D01*
X1520670Y663386D01*
X1522637D01*
X1523621Y664370D02*
X1524113Y664862D01*
X1525097D01*
X1525589Y664370D01*
Y662402D01*
X1525097Y661910D01*
X1524113D01*
X1523621Y662402D01*
Y664370D01*
X1444883Y661910D02*
Y664862D01*
X1446359D01*
X1446851Y664370D01*
Y663386D01*
X1446359Y662894D01*
X1444883D01*
X1445867D02*
X1446851Y661910D01*
X1447835Y664370D02*
X1448327Y664862D01*
X1449311D01*
X1449803Y664370D01*
Y663878D01*
X1449311Y663386D01*
X1448819D01*
X1449311D01*
X1449803Y662894D01*
Y662402D01*
X1449311Y661910D01*
X1448327D01*
X1447835Y662402D01*
X1450787D02*
X1451279Y661910D01*
X1452263D01*
X1452755Y662402D01*
Y664370D01*
X1452263Y664862D01*
X1451279D01*
X1450787Y664370D01*
Y663878D01*
X1451279Y663386D01*
X1452755D01*
X1064962Y659941D02*
Y662893D01*
X1066438D01*
X1066930Y662401D01*
Y661417D01*
X1066438Y660925D01*
X1064962D01*
X1065946D02*
X1066930Y659941D01*
X1067914Y662401D02*
X1068406Y662893D01*
X1069390D01*
X1069882Y662401D01*
Y661909D01*
X1069390Y661417D01*
X1068898D01*
X1069390D01*
X1069882Y660925D01*
Y660433D01*
X1069390Y659941D01*
X1068406D01*
X1067914Y660433D01*
X1070866Y662401D02*
X1071358Y662893D01*
X1072341D01*
X1072833Y662401D01*
Y661909D01*
X1072341Y661417D01*
X1072833Y660925D01*
Y660433D01*
X1072341Y659941D01*
X1071358D01*
X1070866Y660433D01*
Y660925D01*
X1071358Y661417D01*
X1070866Y661909D01*
Y662401D01*
X1071358Y661417D02*
X1072341D01*
X1100395Y654036D02*
Y656988D01*
X1101871D01*
X1102363Y656496D01*
Y655512D01*
X1101871Y655020D01*
X1100395D01*
X1101379D02*
X1102363Y654036D01*
X1103347Y656496D02*
X1103839Y656988D01*
X1104823D01*
X1105315Y656496D01*
Y656004D01*
X1104823Y655512D01*
X1104331D01*
X1104823D01*
X1105315Y655020D01*
Y654528D01*
X1104823Y654036D01*
X1103839D01*
X1103347Y654528D01*
X1106299Y656988D02*
X1108267D01*
Y656496D01*
X1106299Y654528D01*
Y654036D01*
X1122048D02*
Y656988D01*
X1123524D01*
X1124016Y656496D01*
Y655512D01*
X1123524Y655020D01*
X1122048D01*
X1123032D02*
X1124016Y654036D01*
X1125000Y656496D02*
X1125492Y656988D01*
X1126476D01*
X1126968Y656496D01*
Y656004D01*
X1126476Y655512D01*
X1125984D01*
X1126476D01*
X1126968Y655020D01*
Y654528D01*
X1126476Y654036D01*
X1125492D01*
X1125000Y654528D01*
X1129920Y656988D02*
X1128936Y656496D01*
X1127952Y655512D01*
Y654528D01*
X1128444Y654036D01*
X1129428D01*
X1129920Y654528D01*
Y655020D01*
X1129428Y655512D01*
X1127952D01*
X832678Y406004D02*
Y408956D01*
X834154D01*
X834646Y408464D01*
Y407480D01*
X834154Y406988D01*
X832678D01*
X833662D02*
X834646Y406004D01*
X835630Y408464D02*
X836122Y408956D01*
X837106D01*
X837598Y408464D01*
Y407972D01*
X837106Y407480D01*
X836614D01*
X837106D01*
X837598Y406988D01*
Y406496D01*
X837106Y406004D01*
X836122D01*
X835630Y406496D01*
X840550Y408956D02*
X838582D01*
Y407480D01*
X839566Y407972D01*
X840058D01*
X840550Y407480D01*
Y406496D01*
X840058Y406004D01*
X839074D01*
X838582Y406496D01*
X2389765Y673721D02*
Y676673D01*
X2391241D01*
X2391733Y676181D01*
Y675197D01*
X2391241Y674705D01*
X2389765D01*
X2390749D02*
X2391733Y673721D01*
X2392717Y676181D02*
X2393209Y676673D01*
X2394193D01*
X2394685Y676181D01*
Y675689D01*
X2394193Y675197D01*
X2393701D01*
X2394193D01*
X2394685Y674705D01*
Y674213D01*
X2394193Y673721D01*
X2393209D01*
X2392717Y674213D01*
X2397145Y673721D02*
Y676673D01*
X2395669Y675197D01*
X2397636D01*
X2301182Y665847D02*
Y668799D01*
X2302658D01*
X2303150Y668307D01*
Y667323D01*
X2302658Y666831D01*
X2301182D01*
X2302166D02*
X2303150Y665847D01*
X2304134Y668307D02*
X2304626Y668799D01*
X2305610D01*
X2306102Y668307D01*
Y667815D01*
X2305610Y667323D01*
X2305118D01*
X2305610D01*
X2306102Y666831D01*
Y666339D01*
X2305610Y665847D01*
X2304626D01*
X2304134Y666339D01*
X2307086Y668307D02*
X2307578Y668799D01*
X2308562D01*
X2309054Y668307D01*
Y667815D01*
X2308562Y667323D01*
X2308070D01*
X2308562D01*
X2309054Y666831D01*
Y666339D01*
X2308562Y665847D01*
X2307578D01*
X2307086Y666339D01*
X1326720Y634178D02*
Y637130D01*
X1328196D01*
X1328688Y636638D01*
Y635654D01*
X1328196Y635162D01*
X1326720D01*
X1327704D02*
X1328688Y634178D01*
X1329672Y636638D02*
X1330164Y637130D01*
X1331148D01*
X1331640Y636638D01*
Y636146D01*
X1331148Y635654D01*
X1330656D01*
X1331148D01*
X1331640Y635162D01*
Y634670D01*
X1331148Y634178D01*
X1330164D01*
X1329672Y634670D01*
X1334592Y634178D02*
X1332624D01*
X1334592Y636146D01*
Y636638D01*
X1334100Y637130D01*
X1333116D01*
X1332624Y636638D01*
X1268210Y608760D02*
Y611712D01*
X1269686D01*
X1270178Y611220D01*
Y610236D01*
X1269686Y609744D01*
X1268210D01*
X1269194D02*
X1270178Y608760D01*
X1271162Y611220D02*
X1271653Y611712D01*
X1272637D01*
X1273129Y611220D01*
Y610728D01*
X1272637Y610236D01*
X1272145D01*
X1272637D01*
X1273129Y609744D01*
Y609252D01*
X1272637Y608760D01*
X1271653D01*
X1271162Y609252D01*
X1274113Y608760D02*
X1275097D01*
X1274605D01*
Y611712D01*
X1274113Y611220D01*
X2402197Y630847D02*
X2399245D01*
Y632323D01*
X2399737Y632815D01*
X2400721D01*
X2401213Y632323D01*
Y630847D01*
Y631831D02*
X2402197Y632815D01*
X2399737Y633799D02*
X2399245Y634291D01*
Y635275D01*
X2399737Y635767D01*
X2400229D01*
X2400721Y635275D01*
Y634783D01*
Y635275D01*
X2401213Y635767D01*
X2401705D01*
X2402197Y635275D01*
Y634291D01*
X2401705Y633799D01*
X2399737Y636750D02*
X2399245Y637242D01*
Y638226D01*
X2399737Y638718D01*
X2401705D01*
X2402197Y638226D01*
Y637242D01*
X2401705Y636750D01*
X2399737D01*
X2419293Y673721D02*
Y676673D01*
X2420769D01*
X2421260Y676181D01*
Y675197D01*
X2420769Y674705D01*
X2419293D01*
X2420277D02*
X2421260Y673721D01*
X2424212D02*
X2422244D01*
X2424212Y675689D01*
Y676181D01*
X2423720Y676673D01*
X2422736D01*
X2422244Y676181D01*
X2425196Y674213D02*
X2425688Y673721D01*
X2426672D01*
X2427164Y674213D01*
Y676181D01*
X2426672Y676673D01*
X2425688D01*
X2425196Y676181D01*
Y675689D01*
X2425688Y675197D01*
X2427164D01*
X2342521Y671753D02*
Y674704D01*
X2343997D01*
X2344489Y674212D01*
Y673228D01*
X2343997Y672736D01*
X2342521D01*
X2343505D02*
X2344489Y671753D01*
X2347441D02*
X2345473D01*
X2347441Y673720D01*
Y674212D01*
X2346949Y674704D01*
X2345965D01*
X2345473Y674212D01*
X2348425D02*
X2348916Y674704D01*
X2349900D01*
X2350392Y674212D01*
Y673720D01*
X2349900Y673228D01*
X2350392Y672736D01*
Y672244D01*
X2349900Y671753D01*
X2348916D01*
X2348425Y672244D01*
Y672736D01*
X2348916Y673228D01*
X2348425Y673720D01*
Y674212D01*
X2348916Y673228D02*
X2349900D01*
X832678Y415847D02*
Y418799D01*
X834154D01*
X834646Y418307D01*
Y417323D01*
X834154Y416831D01*
X832678D01*
X833662D02*
X834646Y415847D01*
X837598D02*
X835630D01*
X837598Y417815D01*
Y418307D01*
X837106Y418799D01*
X836122D01*
X835630Y418307D01*
X838582Y418799D02*
X840550D01*
Y418307D01*
X838582Y416339D01*
Y415847D01*
X832678Y370571D02*
Y373523D01*
X834154D01*
X834646Y373031D01*
Y372047D01*
X834154Y371555D01*
X832678D01*
X833662D02*
X834646Y370571D01*
X837598D02*
X835630D01*
X837598Y372539D01*
Y373031D01*
X837106Y373523D01*
X836122D01*
X835630Y373031D01*
X840550Y373523D02*
X839566Y373031D01*
X838582Y372047D01*
Y371063D01*
X839074Y370571D01*
X840058D01*
X840550Y371063D01*
Y371555D01*
X840058Y372047D01*
X838582D01*
X956694Y659941D02*
Y662893D01*
X958170D01*
X958662Y662401D01*
Y661417D01*
X958170Y660925D01*
X956694D01*
X957678D02*
X958662Y659941D01*
X961614D02*
X959646D01*
X961614Y661909D01*
Y662401D01*
X961122Y662893D01*
X960138D01*
X959646Y662401D01*
X964566Y662893D02*
X962598D01*
Y661417D01*
X963582Y661909D01*
X964074D01*
X964566Y661417D01*
Y660433D01*
X964074Y659941D01*
X963090D01*
X962598Y660433D01*
X919293Y648130D02*
Y651082D01*
X920769D01*
X921261Y650590D01*
Y649606D01*
X920769Y649114D01*
X919293D01*
X920277D02*
X921261Y648130D01*
X924212D02*
X922244D01*
X924212Y650098D01*
Y650590D01*
X923720Y651082D01*
X922736D01*
X922244Y650590D01*
X926672Y648130D02*
Y651082D01*
X925196Y649606D01*
X927164D01*
X2405513Y596949D02*
Y599901D01*
X2406989D01*
X2407481Y599409D01*
Y598425D01*
X2406989Y597933D01*
X2405513D01*
X2406497D02*
X2407481Y596949D01*
X2410433D02*
X2408465D01*
X2410433Y598917D01*
Y599409D01*
X2409941Y599901D01*
X2408957D01*
X2408465Y599409D01*
X2411417D02*
X2411909Y599901D01*
X2412893D01*
X2413385Y599409D01*
Y598917D01*
X2412893Y598425D01*
X2412401D01*
X2412893D01*
X2413385Y597933D01*
Y597441D01*
X2412893Y596949D01*
X2411909D01*
X2411417Y597441D01*
X2410925Y622049D02*
X2407973D01*
Y623524D01*
X2408465Y624016D01*
X2409449D01*
X2409941Y623524D01*
Y622049D01*
Y623032D02*
X2410925Y624016D01*
Y626968D02*
Y625000D01*
X2408957Y626968D01*
X2408465D01*
X2407973Y626476D01*
Y625492D01*
X2408465Y625000D01*
X2410925Y629920D02*
Y627952D01*
X2408957Y629920D01*
X2408465D01*
X2407973Y629428D01*
Y628444D01*
X2408465Y627952D01*
X846950Y350886D02*
Y353838D01*
X848426D01*
X848918Y353346D01*
Y352362D01*
X848426Y351870D01*
X846950D01*
X847934D02*
X848918Y350886D01*
X851870D02*
X849902D01*
X851870Y352854D01*
Y353346D01*
X851378Y353838D01*
X850394D01*
X849902Y353346D01*
X852853Y350886D02*
X853837D01*
X853345D01*
Y353838D01*
X852853Y353346D01*
X2438484Y622049D02*
X2435532D01*
Y623524D01*
X2436024Y624016D01*
X2437008D01*
X2437500Y623524D01*
Y622049D01*
Y623032D02*
X2438484Y624016D01*
Y626968D02*
Y625000D01*
X2436516Y626968D01*
X2436024D01*
X2435532Y626476D01*
Y625492D01*
X2436024Y625000D01*
Y627952D02*
X2435532Y628444D01*
Y629428D01*
X2436024Y629920D01*
X2437992D01*
X2438484Y629428D01*
Y628444D01*
X2437992Y627952D01*
X2436024D01*
X2380169Y348918D02*
Y351870D01*
X2381644D01*
X2382136Y351378D01*
Y350394D01*
X2381644Y349902D01*
X2380169D01*
X2381152D02*
X2382136Y348918D01*
X2383120D02*
X2384104D01*
X2383612D01*
Y351870D01*
X2383120Y351378D01*
X2385580Y349410D02*
X2386072Y348918D01*
X2387056D01*
X2387548Y349410D01*
Y351378D01*
X2387056Y351870D01*
X2386072D01*
X2385580Y351378D01*
Y350886D01*
X2386072Y350394D01*
X2387548D01*
X2277806Y354823D02*
Y357775D01*
X2279282D01*
X2279774Y357283D01*
Y356299D01*
X2279282Y355807D01*
X2277806D01*
X2278790D02*
X2279774Y354823D01*
X2280758D02*
X2281742D01*
X2281250D01*
Y357775D01*
X2280758Y357283D01*
X2283218D02*
X2283710Y357775D01*
X2284694D01*
X2285186Y357283D01*
Y356791D01*
X2284694Y356299D01*
X2285186Y355807D01*
Y355315D01*
X2284694Y354823D01*
X2283710D01*
X2283218Y355315D01*
Y355807D01*
X2283710Y356299D01*
X2283218Y356791D01*
Y357283D01*
X2283710Y356299D02*
X2284694D01*
X1006153Y695374D02*
Y698326D01*
X1007629D01*
X1008121Y697834D01*
Y696850D01*
X1007629Y696358D01*
X1006153D01*
X1007137D02*
X1008121Y695374D01*
X1009105D02*
X1010089D01*
X1009597D01*
Y698326D01*
X1009105Y697834D01*
X1011564Y698326D02*
X1013532D01*
Y697834D01*
X1011564Y695866D01*
Y695374D01*
X1015995D02*
Y698326D01*
X1017471D01*
X1017963Y697834D01*
Y696850D01*
X1017471Y696358D01*
X1015995D01*
X1016979D02*
X1017963Y695374D01*
X1018947D02*
X1019931D01*
X1019439D01*
Y698326D01*
X1018947Y697834D01*
X1023375Y698326D02*
X1022391Y697834D01*
X1021407Y696850D01*
Y695866D01*
X1021899Y695374D01*
X1022883D01*
X1023375Y695866D01*
Y696358D01*
X1022883Y696850D01*
X1021407D01*
X1010090Y604823D02*
Y607775D01*
X1011566D01*
X1012058Y607283D01*
Y606299D01*
X1011566Y605807D01*
X1010090D01*
X1011074D02*
X1012058Y604823D01*
X1013042D02*
X1014025D01*
X1013533D01*
Y607775D01*
X1013042Y607283D01*
X1017469Y607775D02*
X1015501D01*
Y606299D01*
X1016485Y606791D01*
X1016977D01*
X1017469Y606299D01*
Y605315D01*
X1016977Y604823D01*
X1015993D01*
X1015501Y605315D01*
X1012058Y557579D02*
Y560531D01*
X1013534D01*
X1014026Y560039D01*
Y559055D01*
X1013534Y558563D01*
X1012058D01*
X1013042D02*
X1014026Y557579D01*
X1015010D02*
X1015994D01*
X1015502D01*
Y560531D01*
X1015010Y560039D01*
X1018946Y557579D02*
Y560531D01*
X1017470Y559055D01*
X1019438D01*
X1010090Y496556D02*
Y499507D01*
X1011566D01*
X1012058Y499015D01*
Y498032D01*
X1011566Y497540D01*
X1010090D01*
X1011074D02*
X1012058Y496556D01*
X1013042D02*
X1014025D01*
X1013533D01*
Y499507D01*
X1013042Y499015D01*
X1015501D02*
X1015993Y499507D01*
X1016977D01*
X1017469Y499015D01*
Y498524D01*
X1016977Y498032D01*
X1016485D01*
X1016977D01*
X1017469Y497540D01*
Y497048D01*
X1016977Y496556D01*
X1015993D01*
X1015501Y497048D01*
X1025838Y461123D02*
Y464074D01*
X1027314D01*
X1027806Y463582D01*
Y462598D01*
X1027314Y462107D01*
X1025838D01*
X1026822D02*
X1027806Y461123D01*
X1028790D02*
X1029774D01*
X1029282D01*
Y464074D01*
X1028790Y463582D01*
X1033217Y461123D02*
X1031250D01*
X1033217Y463090D01*
Y463582D01*
X1032725Y464074D01*
X1031741D01*
X1031250Y463582D01*
X1051920Y587107D02*
Y590059D01*
X1053396D01*
X1053888Y589567D01*
Y588583D01*
X1053396Y588091D01*
X1051920D01*
X1052904D02*
X1053888Y587107D01*
X1054872D02*
X1055856D01*
X1055364D01*
Y590059D01*
X1054872Y589567D01*
X1057332Y587107D02*
X1058316D01*
X1057824D01*
Y590059D01*
X1057332Y589567D01*
X1098672Y530020D02*
Y532972D01*
X1100148D01*
X1100640Y532480D01*
Y531496D01*
X1100148Y531004D01*
X1098672D01*
X1099656D02*
X1100640Y530020D01*
X1101624D02*
X1102608D01*
X1102116D01*
Y532972D01*
X1101624Y532480D01*
X1104084D02*
X1104576Y532972D01*
X1105560D01*
X1106052Y532480D01*
Y530512D01*
X1105560Y530020D01*
X1104576D01*
X1104084Y530512D01*
Y532480D01*
X1099902Y467028D02*
Y469980D01*
X1101378D01*
X1101870Y469488D01*
Y468504D01*
X1101378Y468012D01*
X1099902D01*
X1100886D02*
X1101870Y467028D01*
X1102854Y467520D02*
X1103346Y467028D01*
X1104330D01*
X1104822Y467520D01*
Y469488D01*
X1104330Y469980D01*
X1103346D01*
X1102854Y469488D01*
Y468996D01*
X1103346Y468504D01*
X1104822D01*
X1007383Y652067D02*
Y655019D01*
X1008859D01*
X1009350Y654527D01*
Y653543D01*
X1008859Y653051D01*
X1007383D01*
X1008367D02*
X1009350Y652067D01*
X1010334Y655019D02*
X1012302D01*
Y654527D01*
X1010334Y652559D01*
Y652067D01*
X1196359Y608760D02*
Y611712D01*
X1197835D01*
X1198327Y611220D01*
Y610236D01*
X1197835Y609744D01*
X1196359D01*
X1197343D02*
X1198327Y608760D01*
X1201279Y611712D02*
X1200295Y611220D01*
X1199311Y610236D01*
Y609252D01*
X1199803Y608760D01*
X1200787D01*
X1201279Y609252D01*
Y609744D01*
X1200787Y610236D01*
X1199311D01*
X1123524Y608760D02*
Y611712D01*
X1125000D01*
X1125492Y611220D01*
Y610236D01*
X1125000Y609744D01*
X1123524D01*
X1124508D02*
X1125492Y608760D01*
X1128444Y611712D02*
X1126476D01*
Y610236D01*
X1127460Y610728D01*
X1127952D01*
X1128444Y610236D01*
Y609252D01*
X1127952Y608760D01*
X1126968D01*
X1126476Y609252D01*
X1377461Y663878D02*
Y666830D01*
X1378937D01*
X1379429Y666338D01*
Y665354D01*
X1378937Y664862D01*
X1377461D01*
X1378445D02*
X1379429Y663878D01*
X1381889D02*
Y666830D01*
X1380413Y665354D01*
X1382381D01*
X1302658Y661910D02*
Y664862D01*
X1304134D01*
X1304626Y664370D01*
Y663386D01*
X1304134Y662894D01*
X1302658D01*
X1303642D02*
X1304626Y661910D01*
X1305610Y664370D02*
X1306102Y664862D01*
X1307086D01*
X1307578Y664370D01*
Y663878D01*
X1307086Y663386D01*
X1306594D01*
X1307086D01*
X1307578Y662894D01*
Y662402D01*
X1307086Y661910D01*
X1306102D01*
X1305610Y662402D01*
X1227855Y661910D02*
Y664862D01*
X1229331D01*
X1229823Y664370D01*
Y663386D01*
X1229331Y662894D01*
X1227855D01*
X1228839D02*
X1229823Y661910D01*
X1232775D02*
X1230807D01*
X1232775Y663878D01*
Y664370D01*
X1232283Y664862D01*
X1231299D01*
X1230807Y664370D01*
X1153544Y661910D02*
Y664862D01*
X1155020D01*
X1155512Y664370D01*
Y663386D01*
X1155020Y662894D01*
X1153544D01*
X1154528D02*
X1155512Y661910D01*
X1156496D02*
X1157480D01*
X1156988D01*
Y664862D01*
X1156496Y664370D01*
X1982284Y396654D02*
Y398622D01*
X1981792Y399114D01*
X1980808D01*
X1980316Y398622D01*
Y396654D01*
X1980808Y396162D01*
X1981792D01*
X1981300Y397146D02*
X1982284Y396162D01*
X1981792D02*
X1982284Y396654D01*
X1983268Y398622D02*
X1983760Y399114D01*
X1984744D01*
X1985236Y398622D01*
Y398130D01*
X1984744Y397638D01*
X1984252D01*
X1984744D01*
X1985236Y397146D01*
Y396654D01*
X1984744Y396162D01*
X1983760D01*
X1983268Y396654D01*
X1988188Y399114D02*
X1986220D01*
Y397638D01*
X1987204Y398130D01*
X1987696D01*
X1988188Y397638D01*
Y396654D01*
X1987696Y396162D01*
X1986712D01*
X1986220Y396654D01*
X2053150D02*
Y398622D01*
X2052658Y399114D01*
X2051674D01*
X2051182Y398622D01*
Y396654D01*
X2051674Y396162D01*
X2052658D01*
X2052166Y397146D02*
X2053150Y396162D01*
X2052658D02*
X2053150Y396654D01*
X2054134Y398622D02*
X2054626Y399114D01*
X2055610D01*
X2056102Y398622D01*
Y398130D01*
X2055610Y397638D01*
X2055118D01*
X2055610D01*
X2056102Y397146D01*
Y396654D01*
X2055610Y396162D01*
X2054626D01*
X2054134Y396654D01*
X2058562Y396162D02*
Y399114D01*
X2057086Y397638D01*
X2059054D01*
X1836615Y398622D02*
Y400590D01*
X1836123Y401082D01*
X1835139D01*
X1834647Y400590D01*
Y398622D01*
X1835139Y398130D01*
X1836123D01*
X1835631Y399114D02*
X1836615Y398130D01*
X1836123D02*
X1836615Y398622D01*
X1837599Y400590D02*
X1838091Y401082D01*
X1839075D01*
X1839567Y400590D01*
Y400098D01*
X1839075Y399606D01*
X1838583D01*
X1839075D01*
X1839567Y399114D01*
Y398622D01*
X1839075Y398130D01*
X1838091D01*
X1837599Y398622D01*
X1840551Y400590D02*
X1841043Y401082D01*
X1842027D01*
X1842518Y400590D01*
Y400098D01*
X1842027Y399606D01*
X1841534D01*
X1842027D01*
X1842518Y399114D01*
Y398622D01*
X1842027Y398130D01*
X1841043D01*
X1840551Y398622D01*
X1907481D02*
Y400590D01*
X1906989Y401082D01*
X1906005D01*
X1905513Y400590D01*
Y398622D01*
X1906005Y398130D01*
X1906989D01*
X1906497Y399114D02*
X1907481Y398130D01*
X1906989D02*
X1907481Y398622D01*
X1908465Y400590D02*
X1908957Y401082D01*
X1909941D01*
X1910433Y400590D01*
Y400098D01*
X1909941Y399606D01*
X1909449D01*
X1909941D01*
X1910433Y399114D01*
Y398622D01*
X1909941Y398130D01*
X1908957D01*
X1908465Y398622D01*
X1913385Y398130D02*
X1911417D01*
X1913385Y400098D01*
Y400590D01*
X1912893Y401082D01*
X1911909D01*
X1911417Y400590D01*
X1691438Y398622D02*
Y400590D01*
X1690945Y401082D01*
X1689962D01*
X1689470Y400590D01*
Y398622D01*
X1689962Y398130D01*
X1690945D01*
X1690454Y399114D02*
X1691438Y398130D01*
X1690945D02*
X1691438Y398622D01*
X1692421Y400590D02*
X1692913Y401082D01*
X1693897D01*
X1694389Y400590D01*
Y400098D01*
X1693897Y399606D01*
X1693405D01*
X1693897D01*
X1694389Y399114D01*
Y398622D01*
X1693897Y398130D01*
X1692913D01*
X1692421Y398622D01*
X1695373Y398130D02*
X1696357D01*
X1695865D01*
Y401082D01*
X1695373Y400590D01*
X1763780Y398622D02*
Y400590D01*
X1763288Y401082D01*
X1762304D01*
X1761812Y400590D01*
Y398622D01*
X1762304Y398130D01*
X1763288D01*
X1762796Y399114D02*
X1763780Y398130D01*
X1763288D02*
X1763780Y398622D01*
X1764764Y400590D02*
X1765256Y401082D01*
X1766240D01*
X1766732Y400590D01*
Y400098D01*
X1766240Y399606D01*
X1765748D01*
X1766240D01*
X1766732Y399114D01*
Y398622D01*
X1766240Y398130D01*
X1765256D01*
X1764764Y398622D01*
X1767716Y400590D02*
X1768208Y401082D01*
X1769192D01*
X1769684Y400590D01*
Y398622D01*
X1769192Y398130D01*
X1768208D01*
X1767716Y398622D01*
Y400590D01*
X1543308Y398622D02*
Y400590D01*
X1542816Y401082D01*
X1541832D01*
X1541340Y400590D01*
Y398622D01*
X1541832Y398130D01*
X1542816D01*
X1542324Y399114D02*
X1543308Y398130D01*
X1542816D02*
X1543308Y398622D01*
X1546259Y398130D02*
X1544292D01*
X1546259Y400098D01*
Y400590D01*
X1545768Y401082D01*
X1544784D01*
X1544292Y400590D01*
X1547243Y398622D02*
X1547735Y398130D01*
X1548719D01*
X1549211Y398622D01*
Y400590D01*
X1548719Y401082D01*
X1547735D01*
X1547243Y400590D01*
Y400098D01*
X1547735Y399606D01*
X1549211D01*
X1620079Y400591D02*
Y402559D01*
X1619587Y403051D01*
X1618604D01*
X1618111Y402559D01*
Y400591D01*
X1618604Y400099D01*
X1619587D01*
X1619095Y401083D02*
X1620079Y400099D01*
X1619587D02*
X1620079Y400591D01*
X1623031Y400099D02*
X1621063D01*
X1623031Y402067D01*
Y402559D01*
X1622539Y403051D01*
X1621555D01*
X1621063Y402559D01*
X1624015D02*
X1624507Y403051D01*
X1625491D01*
X1625983Y402559D01*
Y402067D01*
X1625491Y401575D01*
X1625983Y401083D01*
Y400591D01*
X1625491Y400099D01*
X1624507D01*
X1624015Y400591D01*
Y401083D01*
X1624507Y401575D01*
X1624015Y402067D01*
Y402559D01*
X1624507Y401575D02*
X1625491D01*
X1397638Y398622D02*
Y400590D01*
X1397147Y401082D01*
X1396163D01*
X1395671Y400590D01*
Y398622D01*
X1396163Y398130D01*
X1397147D01*
X1396655Y399114D02*
X1397638Y398130D01*
X1397147D02*
X1397638Y398622D01*
X1400590Y398130D02*
X1398622D01*
X1400590Y400098D01*
Y400590D01*
X1400098Y401082D01*
X1399114D01*
X1398622Y400590D01*
X1401574Y401082D02*
X1403542D01*
Y400590D01*
X1401574Y398622D01*
Y398130D01*
X1472442Y398622D02*
Y400590D01*
X1471950Y401082D01*
X1470966D01*
X1470474Y400590D01*
Y398622D01*
X1470966Y398130D01*
X1471950D01*
X1471458Y399114D02*
X1472442Y398130D01*
X1471950D02*
X1472442Y398622D01*
X1475393Y398130D02*
X1473425D01*
X1475393Y400098D01*
Y400590D01*
X1474901Y401082D01*
X1473917D01*
X1473425Y400590D01*
X1478345Y401082D02*
X1477361Y400590D01*
X1476377Y399606D01*
Y398622D01*
X1476869Y398130D01*
X1477853D01*
X1478345Y398622D01*
Y399114D01*
X1477853Y399606D01*
X1476377D01*
X1251969Y398622D02*
Y400590D01*
X1251477Y401082D01*
X1250493D01*
X1250001Y400590D01*
Y398622D01*
X1250493Y398130D01*
X1251477D01*
X1250985Y399114D02*
X1251969Y398130D01*
X1251477D02*
X1251969Y398622D01*
X1254921Y398130D02*
X1252953D01*
X1254921Y400098D01*
Y400590D01*
X1254429Y401082D01*
X1253445D01*
X1252953Y400590D01*
X1257873Y401082D02*
X1255905D01*
Y399606D01*
X1256889Y400098D01*
X1257381D01*
X1257873Y399606D01*
Y398622D01*
X1257381Y398130D01*
X1256397D01*
X1255905Y398622D01*
X1324804Y396654D02*
Y398622D01*
X1324312Y399114D01*
X1323328D01*
X1322836Y398622D01*
Y396654D01*
X1323328Y396162D01*
X1324312D01*
X1323820Y397146D02*
X1324804Y396162D01*
X1324312D02*
X1324804Y396654D01*
X1327756Y396162D02*
X1325788D01*
X1327756Y398130D01*
Y398622D01*
X1327264Y399114D01*
X1326280D01*
X1325788Y398622D01*
X1330215Y396162D02*
Y399114D01*
X1328739Y397638D01*
X1330707D01*
X1112205Y400591D02*
Y402559D01*
X1111713Y403051D01*
X1110730D01*
X1110238Y402559D01*
Y400591D01*
X1110730Y400099D01*
X1111713D01*
X1111221Y401083D02*
X1112205Y400099D01*
X1111713D02*
X1112205Y400591D01*
X1115157Y400099D02*
X1113189D01*
X1115157Y402067D01*
Y402559D01*
X1114665Y403051D01*
X1113681D01*
X1113189Y402559D01*
X1116141D02*
X1116633Y403051D01*
X1117617D01*
X1118109Y402559D01*
Y402067D01*
X1117617Y401575D01*
X1117125D01*
X1117617D01*
X1118109Y401083D01*
Y400591D01*
X1117617Y400099D01*
X1116633D01*
X1116141Y400591D01*
X1179134Y396654D02*
Y398622D01*
X1178642Y399114D01*
X1177659D01*
X1177167Y398622D01*
Y396654D01*
X1177659Y396162D01*
X1178642D01*
X1178151Y397146D02*
X1179134Y396162D01*
X1178642D02*
X1179134Y396654D01*
X1182086Y396162D02*
X1180118D01*
X1182086Y398130D01*
Y398622D01*
X1181594Y399114D01*
X1180610D01*
X1180118Y398622D01*
X1185038Y396162D02*
X1183070D01*
X1185038Y398130D01*
Y398622D01*
X1184546Y399114D01*
X1183562D01*
X1183070Y398622D01*
X2250493Y625000D02*
Y626968D01*
X2250001Y627460D01*
X2249017D01*
X2248525Y626968D01*
Y625000D01*
X2249017Y624508D01*
X2250001D01*
X2249509Y625492D02*
X2250493Y624508D01*
X2250001D02*
X2250493Y625000D01*
X2253444Y624508D02*
X2251476D01*
X2253444Y626476D01*
Y626968D01*
X2252952Y627460D01*
X2251969D01*
X2251476Y626968D01*
X2254428Y624508D02*
X2255412D01*
X2254920D01*
Y627460D01*
X2254428Y626968D01*
X2179135Y625000D02*
Y626968D01*
X2178642Y627460D01*
X2177659D01*
X2177167Y626968D01*
Y625000D01*
X2177659Y624508D01*
X2178642D01*
X2178151Y625492D02*
X2179135Y624508D01*
X2178642D02*
X2179135Y625000D01*
X2182086Y624508D02*
X2180118D01*
X2182086Y626476D01*
Y626968D01*
X2181594Y627460D01*
X2180610D01*
X2180118Y626968D01*
X2183070D02*
X2183562Y627460D01*
X2184546D01*
X2185038Y626968D01*
Y625000D01*
X2184546Y624508D01*
X2183562D01*
X2183070Y625000D01*
Y626968D01*
X2106546Y625000D02*
Y626968D01*
X2106054Y627460D01*
X2105070D01*
X2104578Y626968D01*
Y625000D01*
X2105070Y624508D01*
X2106054D01*
X2105562Y625492D02*
X2106546Y624508D01*
X2106054D02*
X2106546Y625000D01*
X2107530Y624508D02*
X2108514D01*
X2108022D01*
Y627460D01*
X2107530Y626968D01*
X2109990Y625000D02*
X2110482Y624508D01*
X2111465D01*
X2111958Y625000D01*
Y626968D01*
X2111465Y627460D01*
X2110482D01*
X2109990Y626968D01*
Y626476D01*
X2110482Y625984D01*
X2111958D01*
X2031743Y625000D02*
Y626968D01*
X2031251Y627460D01*
X2030267D01*
X2029775Y626968D01*
Y625000D01*
X2030267Y624508D01*
X2031251D01*
X2030759Y625492D02*
X2031743Y624508D01*
X2031251D02*
X2031743Y625000D01*
X2032727Y624508D02*
X2033711D01*
X2033219D01*
Y627460D01*
X2032727Y626968D01*
X2035187D02*
X2035678Y627460D01*
X2036662D01*
X2037154Y626968D01*
Y626476D01*
X2036662Y625984D01*
X2037154Y625492D01*
Y625000D01*
X2036662Y624508D01*
X2035678D01*
X2035187Y625000D01*
Y625492D01*
X2035678Y625984D01*
X2035187Y626476D01*
Y626968D01*
X2035678Y625984D02*
X2036662D01*
X1813239Y625000D02*
Y626968D01*
X1812747Y627460D01*
X1811763D01*
X1811271Y626968D01*
Y625000D01*
X1811763Y624508D01*
X1812747D01*
X1812255Y625492D02*
X1813239Y624508D01*
X1812747D02*
X1813239Y625000D01*
X1814223Y624508D02*
X1815207D01*
X1814715D01*
Y627460D01*
X1814223Y626968D01*
X1816682Y627460D02*
X1818650D01*
Y626968D01*
X1816682Y625000D01*
Y624508D01*
X1742373Y625000D02*
Y626968D01*
X1741881Y627460D01*
X1740897D01*
X1740405Y626968D01*
Y625000D01*
X1740897Y624508D01*
X1741881D01*
X1741389Y625492D02*
X1742373Y624508D01*
X1741881D02*
X1742373Y625000D01*
X1743357Y624508D02*
X1744341D01*
X1743848D01*
Y627460D01*
X1743357Y626968D01*
X1747784Y627460D02*
X1746800Y626968D01*
X1745816Y625984D01*
Y625000D01*
X1746308Y624508D01*
X1747292D01*
X1747784Y625000D01*
Y625492D01*
X1747292Y625984D01*
X1745816D01*
X1958908Y625000D02*
Y626968D01*
X1958416Y627460D01*
X1957432D01*
X1956940Y626968D01*
Y625000D01*
X1957432Y624508D01*
X1958416D01*
X1957924Y625492D02*
X1958908Y624508D01*
X1958416D02*
X1958908Y625000D01*
X1959892Y624508D02*
X1960876D01*
X1960384D01*
Y627460D01*
X1959892Y626968D01*
X1964320Y627460D02*
X1962352D01*
Y625984D01*
X1963336Y626476D01*
X1963828D01*
X1964320Y625984D01*
Y625000D01*
X1963828Y624508D01*
X1962844D01*
X1962352Y625000D01*
X1886073Y623032D02*
Y625000D01*
X1885581Y625492D01*
X1884598D01*
X1884105Y625000D01*
Y623032D01*
X1884598Y622540D01*
X1885581D01*
X1885089Y623524D02*
X1886073Y622540D01*
X1885581D02*
X1886073Y623032D01*
X1887057Y622540D02*
X1888041D01*
X1887549D01*
Y625492D01*
X1887057Y625000D01*
X1890993Y622540D02*
Y625492D01*
X1889517Y624016D01*
X1891485D01*
X1667570Y625000D02*
Y626968D01*
X1667077Y627460D01*
X1666093D01*
X1665602Y626968D01*
Y625000D01*
X1666093Y624508D01*
X1667077D01*
X1666586Y625492D02*
X1667570Y624508D01*
X1667077D02*
X1667570Y625000D01*
X1668553Y624508D02*
X1669537D01*
X1669045D01*
Y627460D01*
X1668553Y626968D01*
X1671013D02*
X1671505Y627460D01*
X1672489D01*
X1672981Y626968D01*
Y626476D01*
X1672489Y625984D01*
X1671997D01*
X1672489D01*
X1672981Y625492D01*
Y625000D01*
X1672489Y624508D01*
X1671505D01*
X1671013Y625000D01*
X1092766Y674213D02*
Y676181D01*
X1092274Y676673D01*
X1091290D01*
X1090798Y676181D01*
Y674213D01*
X1091290Y673721D01*
X1092274D01*
X1091782Y674705D02*
X1092766Y673721D01*
X1092274D02*
X1092766Y674213D01*
X1093750Y673721D02*
X1094734D01*
X1094242D01*
Y676673D01*
X1093750Y676181D01*
X1098178Y673721D02*
X1096210D01*
X1098178Y675689D01*
Y676181D01*
X1097686Y676673D01*
X1096702D01*
X1096210Y676181D01*
X1597195Y625000D02*
Y626968D01*
X1596703Y627460D01*
X1595719D01*
X1595227Y626968D01*
Y625000D01*
X1595719Y624508D01*
X1596703D01*
X1596211Y625492D02*
X1597195Y624508D01*
X1596703D02*
X1597195Y625000D01*
X1598179Y624508D02*
X1599163D01*
X1598671D01*
Y627460D01*
X1598179Y626968D01*
X1600639Y624508D02*
X1601623D01*
X1601131D01*
Y627460D01*
X1600639Y626968D01*
X1521900Y625000D02*
Y626968D01*
X1521408Y627460D01*
X1520424D01*
X1519932Y626968D01*
Y625000D01*
X1520424Y624508D01*
X1521408D01*
X1520916Y625492D02*
X1521900Y624508D01*
X1521408D02*
X1521900Y625000D01*
X1522884Y624508D02*
X1523868D01*
X1523376D01*
Y627460D01*
X1522884Y626968D01*
X1525344D02*
X1525836Y627460D01*
X1526820D01*
X1527312Y626968D01*
Y625000D01*
X1526820Y624508D01*
X1525836D01*
X1525344Y625000D01*
Y626968D01*
X1450295Y625000D02*
Y626968D01*
X1449804Y627460D01*
X1448820D01*
X1448328Y626968D01*
Y625000D01*
X1448820Y624508D01*
X1449804D01*
X1449312Y625492D02*
X1450295Y624508D01*
X1449804D02*
X1450295Y625000D01*
X1451279D02*
X1451771Y624508D01*
X1452755D01*
X1453247Y625000D01*
Y626968D01*
X1452755Y627460D01*
X1451771D01*
X1451279Y626968D01*
Y626476D01*
X1451771Y625984D01*
X1453247D01*
X845965Y447835D02*
Y449803D01*
X845473Y450295D01*
X844489D01*
X843997Y449803D01*
Y447835D01*
X844489Y447343D01*
X845473D01*
X844981Y448327D02*
X845965Y447343D01*
X845473D02*
X845965Y447835D01*
X846949Y449803D02*
X847441Y450295D01*
X848425D01*
X848917Y449803D01*
Y449311D01*
X848425Y448819D01*
X848917Y448327D01*
Y447835D01*
X848425Y447343D01*
X847441D01*
X846949Y447835D01*
Y448327D01*
X847441Y448819D01*
X846949Y449311D01*
Y449803D01*
X847441Y448819D02*
X848425D01*
X836122Y392717D02*
Y394685D01*
X835630Y395177D01*
X834646D01*
X834154Y394685D01*
Y392717D01*
X834646Y392225D01*
X835630D01*
X835138Y393209D02*
X836122Y392225D01*
X835630D02*
X836122Y392717D01*
X837106Y395177D02*
X839074D01*
Y394685D01*
X837106Y392717D01*
Y392225D01*
X2316437Y623032D02*
Y625000D01*
X2315945Y625492D01*
X2314961D01*
X2314469Y625000D01*
Y623032D01*
X2314961Y622540D01*
X2315945D01*
X2315453Y623524D02*
X2316437Y622540D01*
X2315945D02*
X2316437Y623032D01*
X2319389Y625492D02*
X2318405Y625000D01*
X2317421Y624016D01*
Y623032D01*
X2317913Y622540D01*
X2318897D01*
X2319389Y623032D01*
Y623524D01*
X2318897Y624016D01*
X2317421D01*
X2316437Y369095D02*
Y371063D01*
X2315945Y371555D01*
X2314961D01*
X2314469Y371063D01*
Y369095D01*
X2314961Y368603D01*
X2315945D01*
X2315453Y369587D02*
X2316437Y368603D01*
X2315945D02*
X2316437Y369095D01*
X2319389Y371555D02*
X2317421D01*
Y370079D01*
X2318405Y370571D01*
X2318897D01*
X2319389Y370079D01*
Y369095D01*
X2318897Y368603D01*
X2317913D01*
X2317421Y369095D01*
X1377461Y625000D02*
Y626968D01*
X1376969Y627460D01*
X1375985D01*
X1375493Y626968D01*
Y625000D01*
X1375985Y624508D01*
X1376969D01*
X1376477Y625492D02*
X1377461Y624508D01*
X1376969D02*
X1377461Y625000D01*
X1379921Y624508D02*
Y627460D01*
X1378445Y625984D01*
X1380413D01*
X1304626Y625000D02*
Y626968D01*
X1304134Y627460D01*
X1303150D01*
X1302658Y626968D01*
Y625000D01*
X1303150Y624508D01*
X1304134D01*
X1303642Y625492D02*
X1304626Y624508D01*
X1304134D02*
X1304626Y625000D01*
X1305610Y626968D02*
X1306102Y627460D01*
X1307086D01*
X1307578Y626968D01*
Y626476D01*
X1307086Y625984D01*
X1306594D01*
X1307086D01*
X1307578Y625492D01*
Y625000D01*
X1307086Y624508D01*
X1306102D01*
X1305610Y625000D01*
X1231791D02*
Y626968D01*
X1231299Y627460D01*
X1230316D01*
X1229824Y626968D01*
Y625000D01*
X1230316Y624508D01*
X1231299D01*
X1230808Y625492D02*
X1231791Y624508D01*
X1231299D02*
X1231791Y625000D01*
X1234743Y624508D02*
X1232775D01*
X1234743Y626476D01*
Y626968D01*
X1234251Y627460D01*
X1233267D01*
X1232775Y626968D01*
X1159449Y625000D02*
Y626968D01*
X1158957Y627460D01*
X1157973D01*
X1157481Y626968D01*
Y625000D01*
X1157973Y624508D01*
X1158957D01*
X1158465Y625492D02*
X1159449Y624508D01*
X1158957D02*
X1159449Y625000D01*
X1160433Y624508D02*
X1161417D01*
X1160925D01*
Y627460D01*
X1160433Y626968D01*
X843013Y461123D02*
Y464074D01*
X844489D01*
X844981Y463582D01*
Y462598D01*
X844489Y462107D01*
X843013D01*
X847933Y463582D02*
X847441Y464074D01*
X846457D01*
X845965Y463582D01*
Y463090D01*
X846457Y462598D01*
X847441D01*
X847933Y462107D01*
Y461615D01*
X847441Y461123D01*
X846457D01*
X845965Y461615D01*
X848917Y461123D02*
X849901D01*
X849409D01*
Y464074D01*
X848917Y463582D01*
X832630Y645579D02*
Y648531D01*
X834106D01*
X834598Y648039D01*
Y647055D01*
X834106Y646563D01*
X832630D01*
X835582Y645579D02*
X836566D01*
X836074D01*
Y648531D01*
X835582Y648039D01*
X881890Y698326D02*
Y695374D01*
Y696358D01*
X883858Y698326D01*
X882382Y696850D01*
X883858Y695374D01*
X884842D02*
X885826D01*
X885334D01*
Y698326D01*
X884842Y697834D01*
X1044784Y676673D02*
Y673721D01*
X1046260D01*
X1046752Y674213D01*
Y676181D01*
X1046260Y676673D01*
X1044784D01*
X1049704D02*
X1047736D01*
Y675197D01*
X1048720Y675689D01*
X1049212D01*
X1049704Y675197D01*
Y674213D01*
X1049212Y673721D01*
X1048228D01*
X1047736Y674213D01*
X2385335Y692421D02*
Y689469D01*
X2386811D01*
X2387303Y689961D01*
Y691929D01*
X2386811Y692421D01*
X2385335D01*
X2389763Y689469D02*
Y692421D01*
X2388287Y690945D01*
X2390255D01*
X930611Y692421D02*
Y689469D01*
X932087D01*
X932579Y689961D01*
Y691929D01*
X932087Y692421D01*
X930611D01*
X933563Y691929D02*
X934055Y692421D01*
X935039D01*
X935531Y691929D01*
Y691437D01*
X935039Y690945D01*
X934547D01*
X935039D01*
X935531Y690453D01*
Y689961D01*
X935039Y689469D01*
X934055D01*
X933563Y689961D01*
X2434548Y601870D02*
Y598918D01*
X2436024D01*
X2436516Y599410D01*
Y601378D01*
X2436024Y601870D01*
X2434548D01*
X2439468Y598918D02*
X2437500D01*
X2439468Y600886D01*
Y601378D01*
X2438976Y601870D01*
X2437992D01*
X2437500Y601378D01*
X982284Y645177D02*
Y642225D01*
X983760D01*
X984252Y642717D01*
Y644685D01*
X983760Y645177D01*
X982284D01*
X985236Y642225D02*
X986220D01*
X985728D01*
Y645177D01*
X985236Y644685D01*
X2012304Y361220D02*
X2011812Y361712D01*
X2010828D01*
X2010336Y361220D01*
Y359252D01*
X2010828Y358760D01*
X2011812D01*
X2012304Y359252D01*
X2015255Y361712D02*
X2014272Y361220D01*
X2013288Y360236D01*
Y359252D01*
X2013779Y358760D01*
X2014763D01*
X2015255Y359252D01*
Y359744D01*
X2014763Y360236D01*
X2013288D01*
X2016239Y358760D02*
X2017223D01*
X2016731D01*
Y361712D01*
X2016239Y361220D01*
X2043308Y351378D02*
X2042816Y351870D01*
X2041832D01*
X2041340Y351378D01*
Y349410D01*
X2041832Y348918D01*
X2042816D01*
X2043308Y349410D01*
X2046259Y351870D02*
X2045276Y351378D01*
X2044292Y350394D01*
Y349410D01*
X2044784Y348918D01*
X2045768D01*
X2046259Y349410D01*
Y349902D01*
X2045768Y350394D01*
X2044292D01*
X2047243Y351378D02*
X2047735Y351870D01*
X2048719D01*
X2049211Y351378D01*
Y349410D01*
X2048719Y348918D01*
X2047735D01*
X2047243Y349410D01*
Y351378D01*
X1864174Y361220D02*
X1863682Y361712D01*
X1862698D01*
X1862206Y361220D01*
Y359252D01*
X1862698Y358760D01*
X1863682D01*
X1864174Y359252D01*
X1867126Y361712D02*
X1865158D01*
Y360236D01*
X1866142Y360728D01*
X1866634D01*
X1867126Y360236D01*
Y359252D01*
X1866634Y358760D01*
X1865650D01*
X1865158Y359252D01*
X1868110D02*
X1868602Y358760D01*
X1869585D01*
X1870078Y359252D01*
Y361220D01*
X1869585Y361712D01*
X1868602D01*
X1868110Y361220D01*
Y360728D01*
X1868602Y360236D01*
X1870078D01*
X1895670Y361220D02*
X1895178Y361712D01*
X1894194D01*
X1893702Y361220D01*
Y359252D01*
X1894194Y358760D01*
X1895178D01*
X1895670Y359252D01*
X1898622Y361712D02*
X1896654D01*
Y360236D01*
X1897638Y360728D01*
X1898130D01*
X1898622Y360236D01*
Y359252D01*
X1898130Y358760D01*
X1897146D01*
X1896654Y359252D01*
X1899606Y361220D02*
X1900098Y361712D01*
X1901082D01*
X1901574Y361220D01*
Y360728D01*
X1901082Y360236D01*
X1901574Y359744D01*
Y359252D01*
X1901082Y358760D01*
X1900098D01*
X1899606Y359252D01*
Y359744D01*
X1900098Y360236D01*
X1899606Y360728D01*
Y361220D01*
X1900098Y360236D02*
X1901082D01*
X1724410Y355315D02*
X1723918Y355807D01*
X1722934D01*
X1722442Y355315D01*
Y353347D01*
X1722934Y352855D01*
X1723918D01*
X1724410Y353347D01*
X1727362Y355807D02*
X1725394D01*
Y354331D01*
X1726378Y354823D01*
X1726870D01*
X1727362Y354331D01*
Y353347D01*
X1726870Y352855D01*
X1725886D01*
X1725394Y353347D01*
X1728346Y355807D02*
X1730314D01*
Y355315D01*
X1728346Y353347D01*
Y352855D01*
X1753938Y361220D02*
X1753446Y361712D01*
X1752462D01*
X1751970Y361220D01*
Y359252D01*
X1752462Y358760D01*
X1753446D01*
X1753938Y359252D01*
X1756889Y361712D02*
X1754922D01*
Y360236D01*
X1755906Y360728D01*
X1756397D01*
X1756889Y360236D01*
Y359252D01*
X1756397Y358760D01*
X1755414D01*
X1754922Y359252D01*
X1759841Y361712D02*
X1758857Y361220D01*
X1757873Y360236D01*
Y359252D01*
X1758365Y358760D01*
X1759349D01*
X1759841Y359252D01*
Y359744D01*
X1759349Y360236D01*
X1757873D01*
X1578741Y363189D02*
X1578249Y363681D01*
X1577265D01*
X1576773Y363189D01*
Y361221D01*
X1577265Y360729D01*
X1578249D01*
X1578741Y361221D01*
X1581693Y363681D02*
X1579725D01*
Y362205D01*
X1580709Y362697D01*
X1581201D01*
X1581693Y362205D01*
Y361221D01*
X1581201Y360729D01*
X1580217D01*
X1579725Y361221D01*
X1584644Y363681D02*
X1582677D01*
Y362205D01*
X1583661Y362697D01*
X1584152D01*
X1584644Y362205D01*
Y361221D01*
X1584152Y360729D01*
X1583169D01*
X1582677Y361221D01*
X1608268Y361220D02*
X1607776Y361712D01*
X1606792D01*
X1606301Y361220D01*
Y359252D01*
X1606792Y358760D01*
X1607776D01*
X1608268Y359252D01*
X1611220Y361712D02*
X1609252D01*
Y360236D01*
X1610236Y360728D01*
X1610728D01*
X1611220Y360236D01*
Y359252D01*
X1610728Y358760D01*
X1609744D01*
X1609252Y359252D01*
X1613680Y358760D02*
Y361712D01*
X1612204Y360236D01*
X1614172D01*
X1460631Y353346D02*
X1460139Y353838D01*
X1459155D01*
X1458663Y353346D01*
Y351378D01*
X1459155Y350886D01*
X1460139D01*
X1460631Y351378D01*
X1463582Y353838D02*
X1461615D01*
Y352362D01*
X1462598Y352854D01*
X1463090D01*
X1463582Y352362D01*
Y351378D01*
X1463090Y350886D01*
X1462107D01*
X1461615Y351378D01*
X1464566Y353346D02*
X1465058Y353838D01*
X1466042D01*
X1466534Y353346D01*
Y352854D01*
X1466042Y352362D01*
X1465550D01*
X1466042D01*
X1466534Y351870D01*
Y351378D01*
X1466042Y350886D01*
X1465058D01*
X1464566Y351378D01*
X1431103Y359252D02*
X1430611Y359744D01*
X1429627D01*
X1429135Y359252D01*
Y357284D01*
X1429627Y356792D01*
X1430611D01*
X1431103Y357284D01*
X1434055Y359744D02*
X1432087D01*
Y358268D01*
X1433071Y358760D01*
X1433563D01*
X1434055Y358268D01*
Y357284D01*
X1433563Y356792D01*
X1432579D01*
X1432087Y357284D01*
X1437007Y356792D02*
X1435039D01*
X1437007Y358760D01*
Y359252D01*
X1436515Y359744D01*
X1435531D01*
X1435039Y359252D01*
X1285926Y361220D02*
X1285434Y361712D01*
X1284450D01*
X1283958Y361220D01*
Y359252D01*
X1284450Y358760D01*
X1285434D01*
X1285926Y359252D01*
X1288877Y361712D02*
X1286910D01*
Y360236D01*
X1287893Y360728D01*
X1288385D01*
X1288877Y360236D01*
Y359252D01*
X1288385Y358760D01*
X1287402D01*
X1286910Y359252D01*
X1289861Y358760D02*
X1290845D01*
X1290353D01*
Y361712D01*
X1289861Y361220D01*
X1314961Y353346D02*
X1314469Y353838D01*
X1313485D01*
X1312993Y353346D01*
Y351378D01*
X1313485Y350886D01*
X1314469D01*
X1314961Y351378D01*
X1317913Y353838D02*
X1315945D01*
Y352362D01*
X1316929Y352854D01*
X1317421D01*
X1317913Y352362D01*
Y351378D01*
X1317421Y350886D01*
X1316437D01*
X1315945Y351378D01*
X1318897Y353346D02*
X1319389Y353838D01*
X1320373D01*
X1320865Y353346D01*
Y351378D01*
X1320373Y350886D01*
X1319389D01*
X1318897Y351378D01*
Y353346D01*
X1161418D02*
X1160926Y353838D01*
X1159942D01*
X1159450Y353346D01*
Y351378D01*
X1159942Y350886D01*
X1160926D01*
X1161418Y351378D01*
X1163878Y350886D02*
Y353838D01*
X1162402Y352362D01*
X1164370D01*
X1165354Y351378D02*
X1165846Y350886D01*
X1166830D01*
X1167322Y351378D01*
Y353346D01*
X1166830Y353838D01*
X1165846D01*
X1165354Y353346D01*
Y352854D01*
X1165846Y352362D01*
X1167322D01*
X1139764Y363189D02*
X1139272Y363681D01*
X1138288D01*
X1137796Y363189D01*
Y361221D01*
X1138288Y360729D01*
X1139272D01*
X1139764Y361221D01*
X1142224Y360729D02*
Y363681D01*
X1140748Y362205D01*
X1142716D01*
X1143700Y363189D02*
X1144192Y363681D01*
X1145176D01*
X1145668Y363189D01*
Y362697D01*
X1145176Y362205D01*
X1145668Y361713D01*
Y361221D01*
X1145176Y360729D01*
X1144192D01*
X1143700Y361221D01*
Y361713D01*
X1144192Y362205D01*
X1143700Y362697D01*
Y363189D01*
X1144192Y362205D02*
X1145176D01*
X2218505Y662401D02*
X2218013Y662893D01*
X2217029D01*
X2216537Y662401D01*
Y660433D01*
X2217029Y659941D01*
X2218013D01*
X2218505Y660433D01*
X2220964Y659941D02*
Y662893D01*
X2219489Y661417D01*
X2221456D01*
X2222440Y662893D02*
X2224408D01*
Y662401D01*
X2222440Y660433D01*
Y659941D01*
X2188977Y664370D02*
X2188485Y664862D01*
X2187501D01*
X2187009Y664370D01*
Y662402D01*
X2187501Y661910D01*
X2188485D01*
X2188977Y662402D01*
X2191437Y661910D02*
Y664862D01*
X2189961Y663386D01*
X2191929D01*
X2194881Y664862D02*
X2193897Y664370D01*
X2192913Y663386D01*
Y662402D01*
X2193405Y661910D01*
X2194389D01*
X2194881Y662402D01*
Y662894D01*
X2194389Y663386D01*
X2192913D01*
X2068898Y662401D02*
X2068406Y662893D01*
X2067422D01*
X2066930Y662401D01*
Y660433D01*
X2067422Y659941D01*
X2068406D01*
X2068898Y660433D01*
X2071358Y659941D02*
Y662893D01*
X2069882Y661417D01*
X2071850D01*
X2074802Y662893D02*
X2072834D01*
Y661417D01*
X2073818Y661909D01*
X2074310D01*
X2074802Y661417D01*
Y660433D01*
X2074310Y659941D01*
X2073326D01*
X2072834Y660433D01*
X2039371Y664370D02*
X2038879Y664862D01*
X2037895D01*
X2037403Y664370D01*
Y662402D01*
X2037895Y661910D01*
X2038879D01*
X2039371Y662402D01*
X2041830Y661910D02*
Y664862D01*
X2040355Y663386D01*
X2042323D01*
X2044782Y661910D02*
Y664862D01*
X2043307Y663386D01*
X2045274D01*
X1779528Y660433D02*
X1779036Y660925D01*
X1778052D01*
X1777560Y660433D01*
Y658465D01*
X1778052Y657973D01*
X1779036D01*
X1779528Y658465D01*
X1781988Y657973D02*
Y660925D01*
X1780512Y659449D01*
X1782480D01*
X1783464Y660433D02*
X1783956Y660925D01*
X1784940D01*
X1785432Y660433D01*
Y659941D01*
X1784940Y659449D01*
X1784448D01*
X1784940D01*
X1785432Y658957D01*
Y658465D01*
X1784940Y657973D01*
X1783956D01*
X1783464Y658465D01*
X1750001Y664370D02*
X1749509Y664862D01*
X1748525D01*
X1748033Y664370D01*
Y662402D01*
X1748525Y661910D01*
X1749509D01*
X1750001Y662402D01*
X1752460Y661910D02*
Y664862D01*
X1750985Y663386D01*
X1752952D01*
X1755904Y661910D02*
X1753936D01*
X1755904Y663878D01*
Y664370D01*
X1755412Y664862D01*
X1754428D01*
X1753936Y664370D01*
X1925689Y662401D02*
X1925197Y662893D01*
X1924213D01*
X1923722Y662401D01*
Y660433D01*
X1924213Y659941D01*
X1925197D01*
X1925689Y660433D01*
X1928149Y659941D02*
Y662893D01*
X1926673Y661417D01*
X1928641D01*
X1929625Y659941D02*
X1930609D01*
X1930117D01*
Y662893D01*
X1929625Y662401D01*
X1895670Y666338D02*
X1895178Y666830D01*
X1894194D01*
X1893702Y666338D01*
Y664370D01*
X1894194Y663878D01*
X1895178D01*
X1895670Y664370D01*
X1898130Y663878D02*
Y666830D01*
X1896654Y665354D01*
X1898622D01*
X1899606Y666338D02*
X1900098Y666830D01*
X1901082D01*
X1901574Y666338D01*
Y664370D01*
X1901082Y663878D01*
X1900098D01*
X1899606Y664370D01*
Y666338D01*
X1606300Y662401D02*
X1605808Y662893D01*
X1604824D01*
X1604332Y662401D01*
Y660433D01*
X1604824Y659941D01*
X1605808D01*
X1606300Y660433D01*
X1607284Y662401D02*
X1607776Y662893D01*
X1608760D01*
X1609252Y662401D01*
Y661909D01*
X1608760Y661417D01*
X1608268D01*
X1608760D01*
X1609252Y660925D01*
Y660433D01*
X1608760Y659941D01*
X1607776D01*
X1607284Y660433D01*
X1610236D02*
X1610728Y659941D01*
X1611712D01*
X1612203Y660433D01*
Y662401D01*
X1611712Y662893D01*
X1610728D01*
X1610236Y662401D01*
Y661909D01*
X1610728Y661417D01*
X1612203D01*
X1635827Y660433D02*
X1635335Y660925D01*
X1634352D01*
X1633859Y660433D01*
Y658465D01*
X1634352Y657973D01*
X1635335D01*
X1635827Y658465D01*
X1636811Y660433D02*
X1637303Y660925D01*
X1638287D01*
X1638779Y660433D01*
Y659941D01*
X1638287Y659449D01*
X1637795D01*
X1638287D01*
X1638779Y658957D01*
Y658465D01*
X1638287Y657973D01*
X1637303D01*
X1636811Y658465D01*
X1639763Y660433D02*
X1640255Y660925D01*
X1641239D01*
X1641731Y660433D01*
Y659941D01*
X1641239Y659449D01*
X1641731Y658957D01*
Y658465D01*
X1641239Y657973D01*
X1640255D01*
X1639763Y658465D01*
Y658957D01*
X1640255Y659449D01*
X1639763Y659941D01*
Y660433D01*
X1640255Y659449D02*
X1641239D01*
X873861Y606882D02*
X873369Y607374D01*
X872385D01*
X871893Y606882D01*
Y604914D01*
X872385Y604422D01*
X873369D01*
X873861Y604914D01*
X874845Y606882D02*
X875337Y607374D01*
X876321D01*
X876813Y606882D01*
Y606390D01*
X876321Y605898D01*
X875829D01*
X876321D01*
X876813Y605406D01*
Y604914D01*
X876321Y604422D01*
X875337D01*
X874845Y604914D01*
X877797Y607374D02*
X879765D01*
Y606882D01*
X877797Y604914D01*
Y604422D01*
X874016Y634842D02*
X873524Y635334D01*
X872540D01*
X872048Y634842D01*
Y632874D01*
X872540Y632382D01*
X873524D01*
X874016Y632874D01*
X875000Y634842D02*
X875492Y635334D01*
X876476D01*
X876968Y634842D01*
Y634350D01*
X876476Y633858D01*
X875984D01*
X876476D01*
X876968Y633366D01*
Y632874D01*
X876476Y632382D01*
X875492D01*
X875000Y632874D01*
X879428Y632382D02*
Y635334D01*
X877952Y633858D01*
X879920D01*
X2378445Y623031D02*
X2377953Y623523D01*
X2376970D01*
X2376477Y623031D01*
Y621063D01*
X2376970Y620571D01*
X2377953D01*
X2378445Y621063D01*
X2379429Y623031D02*
X2379921Y623523D01*
X2380905D01*
X2381397Y623031D01*
Y622539D01*
X2380905Y622047D01*
X2380413D01*
X2380905D01*
X2381397Y621555D01*
Y621063D01*
X2380905Y620571D01*
X2379921D01*
X2379429Y621063D01*
X2382381Y620571D02*
X2383365D01*
X2382873D01*
Y623523D01*
X2382381Y623031D01*
X2407481Y617126D02*
X2406989Y617618D01*
X2406005D01*
X2405513Y617126D01*
Y615158D01*
X2406005Y614666D01*
X2406989D01*
X2407481Y615158D01*
X2408465Y617126D02*
X2408957Y617618D01*
X2409941D01*
X2410433Y617126D01*
Y616634D01*
X2409941Y616142D01*
X2409449D01*
X2409941D01*
X2410433Y615650D01*
Y615158D01*
X2409941Y614666D01*
X2408957D01*
X2408465Y615158D01*
X2411417Y617126D02*
X2411909Y617618D01*
X2412893D01*
X2413385Y617126D01*
Y615158D01*
X2412893Y614666D01*
X2411909D01*
X2411417Y615158D01*
Y617126D01*
X2324804Y662401D02*
X2324312Y662893D01*
X2323328D01*
X2322836Y662401D01*
Y660433D01*
X2323328Y659941D01*
X2324312D01*
X2324804Y660433D01*
X2327756Y659941D02*
X2325788D01*
X2327756Y661909D01*
Y662401D01*
X2327264Y662893D01*
X2326280D01*
X2325788Y662401D01*
X2328740Y660433D02*
X2329231Y659941D01*
X2330215D01*
X2330707Y660433D01*
Y662401D01*
X2330215Y662893D01*
X2329231D01*
X2328740Y662401D01*
Y661909D01*
X2329231Y661417D01*
X2330707D01*
X2393701Y353346D02*
X2393209Y353838D01*
X2392225D01*
X2391734Y353346D01*
Y351378D01*
X2392225Y350886D01*
X2393209D01*
X2393701Y351378D01*
X2396653Y350886D02*
X2394685D01*
X2396653Y352854D01*
Y353346D01*
X2396161Y353838D01*
X2395177D01*
X2394685Y353346D01*
X2397637D02*
X2398129Y353838D01*
X2399113D01*
X2399605Y353346D01*
Y352854D01*
X2399113Y352362D01*
X2399605Y351870D01*
Y351378D01*
X2399113Y350886D01*
X2398129D01*
X2397637Y351378D01*
Y351870D01*
X2398129Y352362D01*
X2397637Y352854D01*
Y353346D01*
X2398129Y352362D02*
X2399113D01*
X935040Y439960D02*
X934548Y440452D01*
X933564D01*
X933072Y439960D01*
Y437992D01*
X933564Y437500D01*
X934548D01*
X935040Y437992D01*
X937992Y437500D02*
X936024D01*
X937992Y439468D01*
Y439960D01*
X937500Y440452D01*
X936516D01*
X936024Y439960D01*
X938976Y440452D02*
X940944D01*
Y439960D01*
X938976Y437992D01*
Y437500D01*
X923229Y439960D02*
X922737Y440452D01*
X921753D01*
X921261Y439960D01*
Y437992D01*
X921753Y437500D01*
X922737D01*
X923229Y437992D01*
X926181Y437500D02*
X924213D01*
X926181Y439468D01*
Y439960D01*
X925689Y440452D01*
X924705D01*
X924213Y439960D01*
X929133Y440452D02*
X928149Y439960D01*
X927165Y438976D01*
Y437992D01*
X927657Y437500D01*
X928641D01*
X929133Y437992D01*
Y438484D01*
X928641Y438976D01*
X927165D01*
X911418Y439960D02*
X910926Y440452D01*
X909942D01*
X909450Y439960D01*
Y437992D01*
X909942Y437500D01*
X910926D01*
X911418Y437992D01*
X914370Y437500D02*
X912402D01*
X914370Y439468D01*
Y439960D01*
X913878Y440452D01*
X912894D01*
X912402Y439960D01*
X917322Y440452D02*
X915354D01*
Y438976D01*
X916338Y439468D01*
X916830D01*
X917322Y438976D01*
Y437992D01*
X916830Y437500D01*
X915846D01*
X915354Y437992D01*
X879922Y613189D02*
X879430Y613681D01*
X878446D01*
X877954Y613189D01*
Y611221D01*
X878446Y610729D01*
X879430D01*
X879922Y611221D01*
X882874Y610729D02*
X880906D01*
X882874Y612697D01*
Y613189D01*
X882382Y613681D01*
X881398D01*
X880906Y613189D01*
X885334Y610729D02*
Y613681D01*
X883858Y612205D01*
X885826D01*
X880129Y600816D02*
X879637Y601308D01*
X878653D01*
X878161Y600816D01*
Y598848D01*
X878653Y598356D01*
X879637D01*
X880129Y598848D01*
X883081Y598356D02*
X881113D01*
X883081Y600324D01*
Y600816D01*
X882589Y601308D01*
X881605D01*
X881113Y600816D01*
X886032Y598356D02*
X884065D01*
X886032Y600324D01*
Y600816D01*
X885540Y601308D01*
X884557D01*
X884065Y600816D01*
X927658Y603346D02*
X927166Y603838D01*
X926182D01*
X925690Y603346D01*
Y601378D01*
X926182Y600886D01*
X927166D01*
X927658Y601378D01*
X930610Y600886D02*
X928642D01*
X930610Y602854D01*
Y603346D01*
X930118Y603838D01*
X929134D01*
X928642Y603346D01*
X931594Y600886D02*
X932578D01*
X932086D01*
Y603838D01*
X931594Y603346D01*
X929381Y619094D02*
X928889Y619586D01*
X927905D01*
X927413Y619094D01*
Y617126D01*
X927905Y616634D01*
X928889D01*
X929381Y617126D01*
X930364Y616634D02*
X931348D01*
X930856D01*
Y619586D01*
X930364Y619094D01*
X932824Y617126D02*
X933316Y616634D01*
X934300D01*
X934792Y617126D01*
Y619094D01*
X934300Y619586D01*
X933316D01*
X932824Y619094D01*
Y618602D01*
X933316Y618110D01*
X934792D01*
X1492373Y662401D02*
X1491881Y662893D01*
X1490897D01*
X1490405Y662401D01*
Y660433D01*
X1490897Y659941D01*
X1491881D01*
X1492373Y660433D01*
X1493357Y659941D02*
X1494341D01*
X1493849D01*
Y662893D01*
X1493357Y662401D01*
X1495816D02*
X1496308Y662893D01*
X1497292D01*
X1497784Y662401D01*
Y661909D01*
X1497292Y661417D01*
X1497784Y660925D01*
Y660433D01*
X1497292Y659941D01*
X1496308D01*
X1495816Y660433D01*
Y660925D01*
X1496308Y661417D01*
X1495816Y661909D01*
Y662401D01*
X1496308Y661417D02*
X1497292D01*
X1460876Y662401D02*
X1460385Y662893D01*
X1459401D01*
X1458909Y662401D01*
Y660433D01*
X1459401Y659941D01*
X1460385D01*
X1460876Y660433D01*
X1461860Y659941D02*
X1462844D01*
X1462352D01*
Y662893D01*
X1461860Y662401D01*
X1464320Y662893D02*
X1466288D01*
Y662401D01*
X1464320Y660433D01*
Y659941D01*
X996310Y676181D02*
X995818Y676673D01*
X994834D01*
X994342Y676181D01*
Y674213D01*
X994834Y673721D01*
X995818D01*
X996310Y674213D01*
X997293Y673721D02*
X998277D01*
X997785D01*
Y676673D01*
X997293Y676181D01*
X1001721Y676673D02*
X1000737Y676181D01*
X999753Y675197D01*
Y674213D01*
X1000245Y673721D01*
X1001229D01*
X1001721Y674213D01*
Y674705D01*
X1001229Y675197D01*
X999753D01*
X996310Y666338D02*
X995818Y666830D01*
X994834D01*
X994342Y666338D01*
Y664370D01*
X994834Y663878D01*
X995818D01*
X996310Y664370D01*
X997293Y663878D02*
X998277D01*
X997785D01*
Y666830D01*
X997293Y666338D01*
X1001721Y666830D02*
X999753D01*
Y665354D01*
X1000737Y665846D01*
X1001229D01*
X1001721Y665354D01*
Y664370D01*
X1001229Y663878D01*
X1000245D01*
X999753Y664370D01*
X1045522Y697834D02*
X1045030Y698326D01*
X1044046D01*
X1043554Y697834D01*
Y695866D01*
X1044046Y695374D01*
X1045030D01*
X1045522Y695866D01*
X1046506Y695374D02*
X1047490D01*
X1046998D01*
Y698326D01*
X1046506Y697834D01*
X1050442Y695374D02*
Y698326D01*
X1048966Y696850D01*
X1050934D01*
X1067176Y709645D02*
X1066684Y710137D01*
X1065700D01*
X1065208Y709645D01*
Y707678D01*
X1065700Y707186D01*
X1066684D01*
X1067176Y707678D01*
X1068160Y707186D02*
X1069144D01*
X1068652D01*
Y710137D01*
X1068160Y709645D01*
X1070619D02*
X1071111Y710137D01*
X1072095D01*
X1072587Y709645D01*
Y709153D01*
X1072095Y708661D01*
X1071603D01*
X1072095D01*
X1072587Y708170D01*
Y707678D01*
X1072095Y707186D01*
X1071111D01*
X1070619Y707678D01*
X1017963Y654527D02*
X1017471Y655019D01*
X1016487D01*
X1015995Y654527D01*
Y652559D01*
X1016487Y652067D01*
X1017471D01*
X1017963Y652559D01*
X1018947Y652067D02*
X1019931D01*
X1019439D01*
Y655019D01*
X1018947Y654527D01*
X1023375Y652067D02*
X1021407D01*
X1023375Y654035D01*
Y654527D01*
X1022883Y655019D01*
X1021899D01*
X1021407Y654527D01*
X1345227Y662401D02*
X1344735Y662893D01*
X1343751D01*
X1343259Y662401D01*
Y660433D01*
X1343751Y659941D01*
X1344735D01*
X1345227Y660433D01*
X1346211Y659941D02*
X1347195D01*
X1346703D01*
Y662893D01*
X1346211Y662401D01*
X1348671Y659941D02*
X1349654D01*
X1349162D01*
Y662893D01*
X1348671Y662401D01*
X1321113Y674212D02*
X1320621Y674704D01*
X1319637D01*
X1319145Y674212D01*
Y672244D01*
X1319637Y671753D01*
X1320621D01*
X1321113Y672244D01*
X1322097Y671753D02*
X1323081D01*
X1322589D01*
Y674704D01*
X1322097Y674212D01*
X1324557D02*
X1325049Y674704D01*
X1326032D01*
X1326524Y674212D01*
Y672244D01*
X1326032Y671753D01*
X1325049D01*
X1324557Y672244D01*
Y674212D01*
X2381398Y666338D02*
X2380906Y666830D01*
X2379922D01*
X2379430Y666338D01*
Y664370D01*
X2379922Y663878D01*
X2380906D01*
X2381398Y664370D01*
X2382382D02*
X2382874Y663878D01*
X2383858D01*
X2384350Y664370D01*
Y666338D01*
X2383858Y666830D01*
X2382874D01*
X2382382Y666338D01*
Y665846D01*
X2382874Y665354D01*
X2384350D01*
X2381398Y656496D02*
X2380906Y656988D01*
X2379922D01*
X2379430Y656496D01*
Y654528D01*
X2379922Y654036D01*
X2380906D01*
X2381398Y654528D01*
X2382382Y656496D02*
X2382874Y656988D01*
X2383858D01*
X2384350Y656496D01*
Y656004D01*
X2383858Y655512D01*
X2384350Y655020D01*
Y654528D01*
X2383858Y654036D01*
X2382874D01*
X2382382Y654528D01*
Y655020D01*
X2382874Y655512D01*
X2382382Y656004D01*
Y656496D01*
X2382874Y655512D02*
X2383858D01*
X2343996Y359252D02*
X2343504Y359744D01*
X2342520D01*
X2342028Y359252D01*
Y357284D01*
X2342520Y356792D01*
X2343504D01*
X2343996Y357284D01*
X2344980Y359744D02*
X2346948D01*
Y359252D01*
X2344980Y357284D01*
Y356792D01*
X2343996Y369094D02*
X2343504Y369586D01*
X2342520D01*
X2342028Y369094D01*
Y367126D01*
X2342520Y366634D01*
X2343504D01*
X2343996Y367126D01*
X2346948Y369586D02*
X2345964Y369094D01*
X2344980Y368110D01*
Y367126D01*
X2345472Y366634D01*
X2346456D01*
X2346948Y367126D01*
Y367618D01*
X2346456Y368110D01*
X2344980D01*
X1202264Y662401D02*
X1201772Y662893D01*
X1200788D01*
X1200296Y662401D01*
Y660433D01*
X1200788Y659941D01*
X1201772D01*
X1202264Y660433D01*
X1205216Y662893D02*
X1203248D01*
Y661417D01*
X1204232Y661909D01*
X1204724D01*
X1205216Y661417D01*
Y660433D01*
X1204724Y659941D01*
X1203740D01*
X1203248Y660433D01*
X1172736Y662401D02*
X1172244Y662893D01*
X1171261D01*
X1170769Y662401D01*
Y660433D01*
X1171261Y659941D01*
X1172244D01*
X1172736Y660433D01*
X1175196Y659941D02*
Y662893D01*
X1173720Y661417D01*
X1175688D01*
X2355807Y672244D02*
X2355315Y672736D01*
X2354331D01*
X2353839Y672244D01*
Y670276D01*
X2354331Y669784D01*
X2355315D01*
X2355807Y670276D01*
X2356791Y672244D02*
X2357283Y672736D01*
X2358267D01*
X2358759Y672244D01*
Y671752D01*
X2358267Y671260D01*
X2357775D01*
X2358267D01*
X2358759Y670768D01*
Y670276D01*
X2358267Y669784D01*
X2357283D01*
X2356791Y670276D01*
X946358Y662401D02*
X945866Y662893D01*
X944882D01*
X944391Y662401D01*
Y660433D01*
X944882Y659941D01*
X945866D01*
X946358Y660433D01*
X949310Y659941D02*
X947342D01*
X949310Y661909D01*
Y662401D01*
X948818Y662893D01*
X947834D01*
X947342Y662401D01*
X2374016Y353346D02*
X2373524Y353838D01*
X2372540D01*
X2372048Y353346D01*
Y351378D01*
X2372540Y350886D01*
X2373524D01*
X2374016Y351378D01*
X2375000Y350886D02*
X2375984D01*
X2375492D01*
Y353838D01*
X2375000Y353346D01*
D16*
X2406256Y690945D02*
D03*
X990901Y653543D02*
D03*
D17*
X933071Y674453D02*
D03*
X2427165Y603104D02*
D03*
D18*
X1057211Y678665D02*
D03*
M02*
