G04*
G04 #@! TF.GenerationSoftware,Altium Limited,Altium Designer,24.1.2 (44)*
G04*
G04 Layer_Color=32768*
%FSLAX25Y25*%
%MOIN*%
G70*
G04*
G04 #@! TF.SameCoordinates,29FF4F4E-3C6D-470F-9DA1-2895E510F6E9*
G04*
G04*
G04 #@! TF.FilePolarity,Positive*
G04*
G01*
G75*
%ADD12C,0.00394*%
%ADD14C,0.00787*%
%ADD82C,0.00197*%
D12*
X1060157Y389449D02*
X1097165D01*
X1060157D02*
Y426378D01*
X1097165D01*
Y389449D02*
Y426378D01*
X919291Y572835D02*
X923228D01*
X921260Y570866D02*
Y574803D01*
X927165Y399606D02*
Y403543D01*
X925197Y401575D02*
X929134D01*
X925197Y452756D02*
Y456693D01*
X923228Y454724D02*
X927165D01*
Y356299D02*
Y360236D01*
X925197Y358268D02*
X929134D01*
X954724Y356299D02*
Y360236D01*
X952756Y358268D02*
X956693D01*
X2403543Y690945D02*
X2407480D01*
X2405512Y688976D02*
Y692913D01*
X1060157Y571083D02*
X1097165D01*
X1060157D02*
Y608012D01*
X1097165D01*
Y571083D02*
Y608012D01*
X1022913Y541024D02*
X1059921D01*
X1022913D02*
Y577953D01*
X1059921D01*
Y541024D02*
Y577953D01*
X1060157Y509528D02*
X1097165D01*
X1060157D02*
Y546457D01*
X1097165D01*
Y509528D02*
Y546457D01*
X1022913Y478563D02*
X1059921D01*
X1022913D02*
Y515492D01*
X1059921D01*
Y478563D02*
Y515492D01*
X1060157Y448504D02*
X1097165D01*
X1060157D02*
Y485433D01*
X1097165D01*
Y448504D02*
Y485433D01*
X1022756Y418976D02*
X1059764D01*
X1022756D02*
Y455905D01*
X1059764D01*
Y418976D02*
Y455905D01*
X1022913Y600610D02*
X1059921D01*
X1022913D02*
Y637539D01*
X1059921D01*
Y600610D02*
Y637539D01*
X2159449Y338583D02*
Y342520D01*
X2157480Y340551D02*
X2161417D01*
X901575Y629921D02*
X905512D01*
X903543Y627953D02*
Y631890D01*
X933071Y673228D02*
Y677165D01*
X931102Y675197D02*
X935039D01*
X1057087D02*
Y679134D01*
X1055118Y677165D02*
X1059055D01*
X839646Y512992D02*
X934134D01*
X839646Y467717D02*
Y512992D01*
Y467717D02*
X934134D01*
Y512992D01*
X2416240Y646201D02*
Y650138D01*
X2414272Y648169D02*
X2418209D01*
X2364331Y379921D02*
Y383858D01*
X2362362Y381890D02*
X2366299D01*
X2427165Y600394D02*
Y604331D01*
X2425197Y602362D02*
X2429134D01*
X986220Y690945D02*
Y694882D01*
X984252Y692913D02*
X988189D01*
X988189Y653543D02*
X992126D01*
X990158Y651575D02*
Y655512D01*
X2364331Y639764D02*
Y643701D01*
X2362362Y641732D02*
X2366299D01*
X1204724Y679134D02*
Y683071D01*
X1202756Y681102D02*
X1206693D01*
X1348425Y679134D02*
Y683071D01*
X1346457Y681102D02*
X1350394D01*
X1494094Y679134D02*
Y683071D01*
X1492126Y681102D02*
X1496063D01*
X1637795Y679134D02*
Y683071D01*
X1635827Y681102D02*
X1639764D01*
X1929134Y679134D02*
Y683071D01*
X1927165Y681102D02*
X1931102D01*
X1783465Y679134D02*
Y683071D01*
X1781496Y681102D02*
X1785433D01*
X2072835Y679134D02*
Y683071D01*
X2070866Y681102D02*
X2074803D01*
X2220472Y679134D02*
Y683071D01*
X2218504Y681102D02*
X2222441D01*
X1139764Y340551D02*
Y344488D01*
X1137795Y342520D02*
X1141732D01*
X1287402Y340551D02*
Y344488D01*
X1285433Y342520D02*
X1289370D01*
X1433071Y340551D02*
Y344488D01*
X1431102Y342520D02*
X1435039D01*
X1578740Y338583D02*
Y342520D01*
X1576772Y340551D02*
X1580709D01*
X1726378Y338583D02*
Y342520D01*
X1724409Y340551D02*
X1728346D01*
X1866142Y338583D02*
Y342520D01*
X1864173Y340551D02*
X1868110D01*
X2013779Y338583D02*
Y342520D01*
X2011811Y340551D02*
X2015748D01*
D14*
X1116929Y659646D02*
X1134252D01*
X1116929D02*
Y667126D01*
X1134252D01*
Y659646D02*
Y667126D01*
X1097244Y659646D02*
X1114567D01*
X1097244D02*
Y667126D01*
X1114567D01*
Y659646D02*
Y667126D01*
X914252Y514882D02*
Y522756D01*
X898504D02*
X914252D01*
X898504Y514882D02*
Y522756D01*
Y514882D02*
X914252D01*
X860236Y515748D02*
Y523622D01*
Y515748D02*
X875984D01*
Y523622D01*
X860236D02*
X875984D01*
X2400787Y602559D02*
Y610039D01*
Y602559D02*
X2418110D01*
Y610039D01*
X2400787D02*
X2418110D01*
X2389764Y372047D02*
X2397638D01*
X2389764Y356299D02*
Y372047D01*
Y356299D02*
X2397638D01*
Y372047D01*
X887795Y608268D02*
Y616142D01*
Y608268D02*
X903543D01*
Y616142D01*
X887795D02*
X903543D01*
X2166519Y428457D02*
X2183875D01*
X2166519Y394378D02*
Y428457D01*
Y394378D02*
X2183875D01*
Y428457D01*
X2122146Y373406D02*
X2185413D01*
Y393169D01*
X2122146D02*
X2185413D01*
X2122146Y373406D02*
Y393169D01*
X2121654Y364370D02*
Y371850D01*
Y364370D02*
X2138976D01*
Y371850D01*
X2121654D02*
X2138976D01*
X2239354Y428457D02*
X2256709D01*
X2239354Y394378D02*
Y428457D01*
Y394378D02*
X2256709D01*
Y428457D01*
X2194980Y373406D02*
X2258248D01*
Y393169D01*
X2194980D02*
X2258248D01*
X2194980Y373406D02*
Y393169D01*
X2194488Y364370D02*
Y371850D01*
Y364370D02*
X2211811D01*
Y371850D01*
X2194488D02*
X2211811D01*
X2177165Y370079D02*
X2185039D01*
X2177165Y354331D02*
Y370079D01*
Y354331D02*
X2185039D01*
Y370079D01*
X2167323D02*
X2175197D01*
X2167323Y354331D02*
Y370079D01*
Y354331D02*
X2175197D01*
Y370079D01*
X1656677Y428657D02*
X1674032D01*
X1656677Y394578D02*
Y428657D01*
Y394578D02*
X1674032D01*
Y428657D01*
X1611811Y364370D02*
Y371850D01*
Y364370D02*
X1629134D01*
Y371850D01*
X1611811D02*
X1629134D01*
X1612303Y373406D02*
X1675571D01*
Y393169D01*
X1612303D02*
X1675571D01*
X1612303Y373406D02*
Y393169D01*
X1539468Y373406D02*
X1602736D01*
Y393169D01*
X1539468D02*
X1602736D01*
X1539468Y373406D02*
Y393169D01*
X1583842Y428457D02*
X1601197D01*
X1583842Y394378D02*
Y428457D01*
Y394378D02*
X1601197D01*
Y428457D01*
X1538976Y364370D02*
Y371850D01*
Y364370D02*
X1556299D01*
Y371850D01*
X1538976D02*
X1556299D01*
X2049311Y650216D02*
X2112579D01*
X2049311Y630453D02*
Y650216D01*
Y630453D02*
X2112579D01*
Y650216D01*
X2194980D02*
X2258248D01*
X2194980Y630453D02*
Y650216D01*
Y630453D02*
X2258248D01*
Y650216D01*
X1976476Y373406D02*
X2039744D01*
Y393169D01*
X1976476D02*
X2039744D01*
X1976476Y373406D02*
Y393169D01*
X2049311Y373406D02*
X2112579D01*
Y393169D01*
X2049311D02*
X2112579D01*
X2049311Y373406D02*
Y393169D01*
X1830807Y373406D02*
X1894075D01*
Y393169D01*
X1830807D02*
X1894075D01*
X1830807Y373406D02*
Y393169D01*
X1903642Y373406D02*
X1966909D01*
Y393169D01*
X1903642D02*
X1966909D01*
X1903642Y373406D02*
Y393169D01*
X1685138Y373406D02*
X1748405D01*
Y393169D01*
X1685138D02*
X1748405D01*
X1685138Y373406D02*
Y393169D01*
X1757972Y373406D02*
X1821240D01*
Y393169D01*
X1757972D02*
X1821240D01*
X1757972Y373406D02*
Y393169D01*
X1393799Y373406D02*
X1457067D01*
Y393169D01*
X1393799D02*
X1457067D01*
X1393799Y373406D02*
Y393169D01*
X1466634Y373406D02*
X1529902D01*
Y393169D01*
X1466634D02*
X1529902D01*
X1466634Y373406D02*
Y393169D01*
X1247342Y373406D02*
X1310610D01*
Y393169D01*
X1247342D02*
X1310610D01*
X1247342Y373406D02*
Y393169D01*
X1320965Y373406D02*
X1384232D01*
Y393169D01*
X1320965D02*
X1384232D01*
X1320965Y373406D02*
Y393169D01*
X1102461Y373406D02*
X1165728D01*
Y393169D01*
X1102461D02*
X1165728D01*
X1102461Y373406D02*
Y393169D01*
X1175295Y373406D02*
X1238563D01*
Y393169D01*
X1175295D02*
X1238563D01*
X1175295Y373406D02*
Y393169D01*
X2122146Y650216D02*
X2185413D01*
X2122146Y630453D02*
Y650216D01*
Y630453D02*
X2185413D01*
Y650216D01*
X1976476D02*
X2039744D01*
X1976476Y630453D02*
Y650216D01*
Y630453D02*
X2039744D01*
Y650216D01*
X1757973D02*
X1821240D01*
X1757973Y630453D02*
Y650216D01*
Y630453D02*
X1821240D01*
Y650216D01*
X1685138D02*
X1748405D01*
X1685138Y630453D02*
Y650216D01*
Y630453D02*
X1748405D01*
Y650216D01*
X1903642D02*
X1966909D01*
X1903642Y630453D02*
Y650216D01*
Y630453D02*
X1966909D01*
Y650216D01*
X1830807D02*
X1894075D01*
X1830807Y630453D02*
Y650216D01*
Y630453D02*
X1894075D01*
Y650216D01*
X1612303D02*
X1675571D01*
X1612303Y630453D02*
Y650216D01*
Y630453D02*
X1675571D01*
Y650216D01*
X1539468D02*
X1602736D01*
X1539468Y630453D02*
Y650216D01*
Y630453D02*
X1602736D01*
Y650216D01*
X1466634D02*
X1529902D01*
X1466634Y630453D02*
Y650216D01*
Y630453D02*
X1529902D01*
Y650216D01*
X1393799D02*
X1457067D01*
X1393799Y630453D02*
Y650216D01*
Y630453D02*
X1457067D01*
Y650216D01*
X842382Y425157D02*
X905650D01*
Y444921D01*
X842382D02*
X905650D01*
X842382Y425157D02*
Y444921D01*
Y377913D02*
X905650D01*
Y397677D01*
X842382D02*
X905650D01*
X842382Y377913D02*
Y397677D01*
X1320965Y650216D02*
X1384232D01*
X1320965Y630453D02*
Y650216D01*
Y630453D02*
X1384232D01*
Y650216D01*
X1248130Y650216D02*
X1311398D01*
X1248130Y630453D02*
Y650216D01*
Y630453D02*
X1311398D01*
Y650216D01*
X1175295Y650216D02*
X1238563D01*
X1175295Y630453D02*
Y650216D01*
Y630453D02*
X1238563D01*
Y650216D01*
X1102461D02*
X1165728D01*
X1102461Y630453D02*
Y650216D01*
Y630453D02*
X1165728D01*
Y650216D01*
X887795Y598425D02*
Y606299D01*
Y598425D02*
X903543D01*
Y606299D01*
X887795D02*
X903543D01*
X921260Y598425D02*
Y606299D01*
X905512D02*
X921260D01*
X905512Y598425D02*
Y606299D01*
Y598425D02*
X921260D01*
Y608268D02*
Y616142D01*
X905512D02*
X921260D01*
X905512Y608268D02*
Y616142D01*
Y608268D02*
X921260D01*
X859449Y358465D02*
Y365945D01*
X842126D02*
X859449D01*
X842126Y358465D02*
Y365945D01*
Y358465D02*
X859449D01*
Y403740D02*
Y411221D01*
X842126D02*
X859449D01*
X842126Y403740D02*
Y411221D01*
Y403740D02*
X859449D01*
Y368307D02*
Y375787D01*
X842126D02*
X859449D01*
X842126Y368307D02*
Y375787D01*
Y368307D02*
X859449D01*
Y413583D02*
Y421063D01*
X842126D02*
X859449D01*
X842126Y413583D02*
Y421063D01*
Y413583D02*
X859449D01*
X931102Y419291D02*
X938976D01*
Y435039D01*
X931102D02*
X938976D01*
X931102Y419291D02*
Y435039D01*
X921260Y419291D02*
X929134D01*
Y435039D01*
X921260D02*
X929134D01*
X921260Y419291D02*
Y435039D01*
X911417Y419291D02*
X919291D01*
Y435039D01*
X911417D02*
X919291D01*
X911417Y419291D02*
Y435039D01*
X2274803Y360433D02*
Y367913D01*
Y360433D02*
X2292126D01*
Y367913D01*
X2274803D02*
X2292126D01*
X2296457Y653740D02*
Y661221D01*
Y653740D02*
X2313779D01*
Y661221D01*
X2296457D02*
X2313779D01*
X917520Y670079D02*
X925000D01*
X917520Y652756D02*
Y670079D01*
Y652756D02*
X925000D01*
Y670079D01*
X943110Y681890D02*
X950591D01*
X943110Y664567D02*
Y681890D01*
Y664567D02*
X950591D01*
Y681890D01*
X1053150Y688976D02*
X1061024D01*
Y704724D01*
X1053150D02*
X1061024D01*
X1053150Y688976D02*
Y704724D01*
X1064961Y688976D02*
X1072835D01*
Y704724D01*
X1064961D02*
X1072835D01*
X1064961Y688976D02*
Y704724D01*
X954724Y665354D02*
X962598D01*
Y681102D01*
X954724D02*
X962598D01*
X954724Y665354D02*
Y681102D01*
X1065158Y681890D02*
X1072638D01*
X1065158Y664567D02*
Y681890D01*
Y664567D02*
X1072638D01*
Y681890D01*
X1088421Y668819D02*
Y681575D01*
X1076933D02*
X1088421D01*
X1076933Y668819D02*
Y681575D01*
Y668819D02*
X1088421D01*
X1104626Y686024D02*
Y707677D01*
X1076476D02*
X1104626D01*
X1076476Y686024D02*
Y707677D01*
Y686024D02*
X1104626D01*
X2380118Y372441D02*
X2387598D01*
X2380118Y355118D02*
Y372441D01*
Y355118D02*
X2387598D01*
Y372441D01*
X2423425Y636614D02*
X2430906D01*
X2423425Y619291D02*
Y636614D01*
Y619291D02*
X2430906D01*
Y636614D01*
X2350787Y354331D02*
Y362205D01*
Y354331D02*
X2366535D01*
Y362205D01*
X2350787D02*
X2366535D01*
X2350787Y364173D02*
Y372047D01*
Y364173D02*
X2366535D01*
Y372047D01*
X2350787D02*
X2366535D01*
X2370079D02*
X2377953D01*
X2370079Y356299D02*
Y372047D01*
Y356299D02*
X2377953D01*
Y372047D01*
X2413583Y619291D02*
X2421063D01*
Y636614D01*
X2413583D02*
X2421063D01*
X2413583Y619291D02*
Y636614D01*
X1006102Y674016D02*
X1013583D01*
X1006102Y656693D02*
Y674016D01*
Y656693D02*
X1013583D01*
Y674016D01*
X2385827Y629921D02*
X2393701D01*
X2385827Y614173D02*
Y629921D01*
Y614173D02*
X2393701D01*
Y629921D01*
X2395669D02*
X2403543D01*
X2395669Y614173D02*
Y629921D01*
Y614173D02*
X2403543D01*
Y629921D01*
X1015748Y657480D02*
X1023622D01*
Y673228D01*
X1015748D02*
X1023622D01*
X1015748Y657480D02*
Y673228D01*
X976378Y671260D02*
Y679134D01*
Y671260D02*
X992126D01*
Y679134D01*
X976378D02*
X992126D01*
X976378Y661417D02*
Y669291D01*
Y661417D02*
X992126D01*
Y669291D01*
X976378D02*
X992126D01*
X1006102Y693701D02*
X1013583D01*
X1006102Y676378D02*
Y693701D01*
Y676378D02*
X1013583D01*
Y693701D01*
X1015945Y676378D02*
X1023425D01*
Y693701D01*
X1015945D02*
X1023425D01*
X1015945Y676378D02*
Y693701D01*
X2332677Y651575D02*
X2340551D01*
Y667323D01*
X2332677D02*
X2340551D01*
X2332677Y651575D02*
Y667323D01*
X862205Y625984D02*
X870079D01*
Y641732D01*
X862205D02*
X870079D01*
X862205Y625984D02*
Y641732D01*
X2342716Y651181D02*
X2350197D01*
Y668504D01*
X2342716D02*
X2350197D01*
X2342716Y651181D02*
Y668504D01*
X2409646Y660236D02*
X2417126D01*
Y677559D01*
X2409646D02*
X2417126D01*
X2409646Y660236D02*
Y677559D01*
X2377953Y661417D02*
Y669291D01*
X2362205D02*
X2377953D01*
X2362205Y661417D02*
Y669291D01*
Y661417D02*
X2377953D01*
Y651575D02*
Y659449D01*
X2362205D02*
X2377953D01*
X2362205Y651575D02*
Y659449D01*
Y651575D02*
X2377953D01*
X862205Y620079D02*
X870079D01*
X862205Y604331D02*
Y620079D01*
Y604331D02*
X870079D01*
Y620079D01*
X2352362Y651181D02*
X2360236D01*
Y666929D01*
X2352362D02*
X2360236D01*
X2352362Y651181D02*
Y666929D01*
X2389961Y650394D02*
X2397441D01*
X2389961Y633071D02*
Y650394D01*
Y633071D02*
X2397441D01*
Y650394D01*
X2389961Y670079D02*
X2397441D01*
X2389961Y652756D02*
Y670079D01*
Y652756D02*
X2397441D01*
Y670079D01*
X1164173Y651772D02*
Y659252D01*
X1146850D02*
X1164173D01*
X1146850Y651772D02*
Y659252D01*
Y651772D02*
X1164173D01*
X1238583D02*
Y659252D01*
X1221260D02*
X1238583D01*
X1221260Y651772D02*
Y659252D01*
Y651772D02*
X1238583D01*
X1188976Y653543D02*
X1196850D01*
Y669291D01*
X1188976D02*
X1196850D01*
X1188976Y653543D02*
Y669291D01*
X1179134Y653543D02*
X1187008D01*
Y669291D01*
X1179134D02*
X1187008D01*
X1179134Y653543D02*
Y669291D01*
X1311417Y651772D02*
Y659252D01*
X1294094D02*
X1311417D01*
X1294094Y651772D02*
Y659252D01*
Y651772D02*
X1311417D01*
X1384252Y651772D02*
Y659252D01*
X1366929D02*
X1384252D01*
X1366929Y651772D02*
Y659252D01*
Y651772D02*
X1384252D01*
X1332677Y653150D02*
X1340551D01*
Y668898D01*
X1332677D02*
X1340551D01*
X1332677Y653150D02*
Y668898D01*
X1322835Y653150D02*
X1330709D01*
Y668898D01*
X1322835D02*
X1330709D01*
X1322835Y653150D02*
Y668898D01*
X1103527Y595165D02*
X1120882D01*
Y629245D01*
X1103527D02*
X1120882D01*
X1103527Y595165D02*
Y629245D01*
X1176362Y595165D02*
X1193717D01*
Y629245D01*
X1176362D02*
X1193717D01*
X1176362Y595165D02*
Y629245D01*
X1249196Y595165D02*
X1266552D01*
Y629245D01*
X1249196D02*
X1266552D01*
X1249196Y595165D02*
Y629245D01*
X1322031Y595165D02*
X1339386D01*
Y629245D01*
X1322031D02*
X1339386D01*
X1322031Y595165D02*
Y629245D01*
X1457087Y651772D02*
Y659252D01*
X1439764D02*
X1457087D01*
X1439764Y651772D02*
Y659252D01*
Y651772D02*
X1457087D01*
X1529921D02*
Y659252D01*
X1512598D02*
X1529921D01*
X1512598Y651772D02*
Y659252D01*
Y651772D02*
X1529921D01*
X1478347Y651968D02*
X1486220D01*
Y667717D01*
X1478347D02*
X1486220D01*
X1478347Y651968D02*
Y667717D01*
X1468504Y651968D02*
X1476378D01*
Y667717D01*
X1468504D02*
X1476378D01*
X1468504Y651968D02*
Y667717D01*
X1602756Y651772D02*
Y659252D01*
X1585433D02*
X1602756D01*
X1585433Y651772D02*
Y659252D01*
Y651772D02*
X1602756D01*
X1675591D02*
Y659252D01*
X1658268D02*
X1675591D01*
X1658268Y651772D02*
Y659252D01*
Y651772D02*
X1675591D01*
X1614173Y651575D02*
X1622047D01*
Y667323D01*
X1614173D02*
X1622047D01*
X1614173Y651575D02*
Y667323D01*
X1624016Y651575D02*
X1631890D01*
Y667323D01*
X1624016D02*
X1631890D01*
X1624016Y651575D02*
Y667323D01*
X1394866Y595165D02*
X1412221D01*
Y629245D01*
X1394866D02*
X1412221D01*
X1394866Y595165D02*
Y629245D01*
X1467700Y595165D02*
X1485056D01*
Y629245D01*
X1467700D02*
X1485056D01*
X1467700Y595165D02*
Y629245D01*
X1540535Y595165D02*
X1557890D01*
Y629245D01*
X1540535D02*
X1557890D01*
X1540535Y595165D02*
Y629245D01*
X1613370Y595165D02*
X1630725D01*
Y629245D01*
X1613370D02*
X1630725D01*
X1613370Y595165D02*
Y629245D01*
X1894094Y651772D02*
Y659252D01*
X1876772D02*
X1894094D01*
X1876772Y651772D02*
Y659252D01*
Y651772D02*
X1894094D01*
X1966929D02*
Y659252D01*
X1949606D02*
X1966929D01*
X1949606Y651772D02*
Y659252D01*
Y651772D02*
X1966929D01*
X1913386Y651575D02*
X1921260D01*
Y667323D01*
X1913386D02*
X1921260D01*
X1913386Y651575D02*
Y667323D01*
X1903543Y651575D02*
X1911417D01*
Y667323D01*
X1903543D02*
X1911417D01*
X1903543Y651575D02*
Y667323D01*
X1748425Y651772D02*
Y659252D01*
X1731102D02*
X1748425D01*
X1731102Y651772D02*
Y659252D01*
Y651772D02*
X1748425D01*
X1821260D02*
Y659252D01*
X1803937D02*
X1821260D01*
X1803937Y651772D02*
Y659252D01*
Y651772D02*
X1821260D01*
X1767716Y651575D02*
X1775591D01*
Y667323D01*
X1767716D02*
X1775591D01*
X1767716Y651575D02*
Y667323D01*
X1757874Y651575D02*
X1765748D01*
Y667323D01*
X1757874D02*
X1765748D01*
X1757874Y651575D02*
Y667323D01*
X1831874Y595165D02*
X1849229D01*
Y629245D01*
X1831874D02*
X1849229D01*
X1831874Y595165D02*
Y629245D01*
X1904708Y595165D02*
X1922063D01*
Y629245D01*
X1904708D02*
X1922063D01*
X1904708Y595165D02*
Y629245D01*
X1686204Y595165D02*
X1703559D01*
Y629245D01*
X1686204D02*
X1703559D01*
X1686204Y595165D02*
Y629245D01*
X1759039Y595165D02*
X1776394D01*
Y629245D01*
X1759039D02*
X1776394D01*
X1759039Y595165D02*
Y629245D01*
X2039764Y651772D02*
Y659252D01*
X2022441D02*
X2039764D01*
X2022441Y651772D02*
Y659252D01*
Y651772D02*
X2039764D01*
X2112598D02*
Y659252D01*
X2095276D02*
X2112598D01*
X2095276Y651772D02*
Y659252D01*
Y651772D02*
X2112598D01*
X2057087Y651968D02*
X2064961D01*
Y667717D01*
X2057087D02*
X2064961D01*
X2057087Y651968D02*
Y667717D01*
X2047244Y651968D02*
X2055118D01*
Y667717D01*
X2047244D02*
X2055118D01*
X2047244Y651968D02*
Y667717D01*
X2185433Y651772D02*
Y659252D01*
X2168110D02*
X2185433D01*
X2168110Y651772D02*
Y659252D01*
Y651772D02*
X2185433D01*
X2258268D02*
Y659252D01*
X2240945D02*
X2258268D01*
X2240945Y651772D02*
Y659252D01*
Y651772D02*
X2258268D01*
X2206693Y651968D02*
X2214567D01*
Y667717D01*
X2206693D02*
X2214567D01*
X2206693Y651968D02*
Y667717D01*
X2196850Y651968D02*
X2204724D01*
Y667717D01*
X2196850D02*
X2204724D01*
X2196850Y651968D02*
Y667717D01*
X1977543Y595165D02*
X1994898D01*
Y629245D01*
X1977543D02*
X1994898D01*
X1977543Y595165D02*
Y629245D01*
X2050377Y595165D02*
X2067733D01*
Y629245D01*
X2050377D02*
X2067733D01*
X2050377Y595165D02*
Y629245D01*
X2123212Y595165D02*
X2140567D01*
Y629245D01*
X2123212D02*
X2140567D01*
X2123212Y595165D02*
Y629245D01*
X2196047Y595165D02*
X2213402D01*
Y629245D01*
X2196047D02*
X2213402D01*
X2196047Y595165D02*
Y629245D01*
X1174803Y364370D02*
Y371850D01*
Y364370D02*
X1192126D01*
Y371850D01*
X1174803D02*
X1192126D01*
X1101968Y364370D02*
Y371850D01*
Y364370D02*
X1119291D01*
Y371850D01*
X1101968D02*
X1119291D01*
X1157480Y372047D02*
X1165354D01*
X1157480Y356299D02*
Y372047D01*
Y356299D02*
X1165354D01*
Y372047D01*
X1147638D02*
X1155512D01*
X1147638Y356299D02*
Y372047D01*
Y356299D02*
X1155512D01*
Y372047D01*
X1320472Y364370D02*
Y371850D01*
Y364370D02*
X1337795D01*
Y371850D01*
X1320472D02*
X1337795D01*
X1246850Y364370D02*
Y371850D01*
Y364370D02*
X1264173D01*
Y371850D01*
X1246850D02*
X1264173D01*
X1295276Y372047D02*
X1303150D01*
X1295276Y356299D02*
Y372047D01*
Y356299D02*
X1303150D01*
Y372047D01*
X1305118D02*
X1312992D01*
X1305118Y356299D02*
Y372047D01*
Y356299D02*
X1312992D01*
Y372047D01*
X1219669Y428457D02*
X1237024D01*
X1219669Y394378D02*
Y428457D01*
Y394378D02*
X1237024D01*
Y428457D01*
X1146834D02*
X1164189D01*
X1146834Y394378D02*
Y428457D01*
Y394378D02*
X1164189D01*
Y428457D01*
X1365338D02*
X1382693D01*
X1365338Y394378D02*
Y428457D01*
Y394378D02*
X1382693D01*
Y428457D01*
X1291716Y428457D02*
X1309071D01*
X1291716Y394377D02*
Y428457D01*
Y394377D02*
X1309071D01*
Y428457D01*
X1466142Y364370D02*
Y371850D01*
Y364370D02*
X1483465D01*
Y371850D01*
X1466142D02*
X1483465D01*
X1393307Y364370D02*
Y371850D01*
Y364370D02*
X1410630D01*
Y371850D01*
X1393307D02*
X1410630D01*
X1450787Y372047D02*
X1458661D01*
X1450787Y356299D02*
Y372047D01*
Y356299D02*
X1458661D01*
Y372047D01*
X1440945D02*
X1448819D01*
X1440945Y356299D02*
Y372047D01*
Y356299D02*
X1448819D01*
Y372047D01*
X1586614Y370472D02*
X1594488D01*
X1586614Y354724D02*
Y370472D01*
Y354724D02*
X1594488D01*
Y370472D01*
X1596457D02*
X1604331D01*
X1596457Y354724D02*
Y370472D01*
Y354724D02*
X1604331D01*
Y370472D01*
X1511007Y428457D02*
X1528363D01*
X1511007Y394378D02*
Y428457D01*
Y394378D02*
X1528363D01*
Y428457D01*
X1438173D02*
X1455528D01*
X1438173Y394378D02*
Y428457D01*
Y394378D02*
X1455528D01*
Y428457D01*
X1757480Y364370D02*
Y371850D01*
Y364370D02*
X1774803D01*
Y371850D01*
X1757480D02*
X1774803D01*
X1684646Y364370D02*
Y371850D01*
Y364370D02*
X1701969D01*
Y371850D01*
X1684646D02*
X1701969D01*
X1732284Y370079D02*
X1740158D01*
X1732284Y354331D02*
Y370079D01*
Y354331D02*
X1740158D01*
Y370079D01*
X1742126D02*
X1750000D01*
X1742126Y354331D02*
Y370079D01*
Y354331D02*
X1750000D01*
Y370079D01*
X1903150Y364370D02*
Y371850D01*
Y364370D02*
X1920473D01*
Y371850D01*
X1903150D02*
X1920473D01*
X1830315Y364370D02*
Y371850D01*
Y364370D02*
X1847638D01*
Y371850D01*
X1830315D02*
X1847638D01*
X1874016Y370079D02*
X1881890D01*
X1874016Y354331D02*
Y370079D01*
Y354331D02*
X1881890D01*
Y370079D01*
X1883858D02*
X1891732D01*
X1883858Y354331D02*
Y370079D01*
Y354331D02*
X1891732D01*
Y370079D01*
X1802346Y428457D02*
X1819701D01*
X1802346Y394378D02*
Y428457D01*
Y394378D02*
X1819701D01*
Y428457D01*
X1729511D02*
X1746867D01*
X1729511Y394378D02*
Y428457D01*
Y394378D02*
X1746867D01*
Y428457D01*
X1948015D02*
X1965371D01*
X1948015Y394378D02*
Y428457D01*
Y394378D02*
X1965371D01*
Y428457D01*
X1875181D02*
X1892536D01*
X1875181Y394378D02*
Y428457D01*
Y394378D02*
X1892536D01*
Y428457D01*
X2048819Y364370D02*
Y371850D01*
Y364370D02*
X2066142D01*
Y371850D01*
X2048819D02*
X2066142D01*
X1975984Y364370D02*
Y371850D01*
Y364370D02*
X1993307D01*
Y371850D01*
X1975984D02*
X1993307D01*
X2021654Y370079D02*
X2029528D01*
X2021654Y354331D02*
Y370079D01*
Y354331D02*
X2029528D01*
Y370079D01*
X2031496D02*
X2039370D01*
X2031496Y354331D02*
Y370079D01*
Y354331D02*
X2039370D01*
Y370079D01*
X2093685Y428457D02*
X2111040D01*
X2093685Y394378D02*
Y428457D01*
Y394378D02*
X2111040D01*
Y428457D01*
X2020850D02*
X2038205D01*
X2020850Y394378D02*
Y428457D01*
Y394378D02*
X2038205D01*
Y428457D01*
D82*
X932087Y558268D02*
Y587402D01*
X910433Y558268D02*
Y587402D01*
X932087D01*
X910433Y558268D02*
X932087D01*
X889587Y400039D02*
Y422795D01*
X901752D01*
Y400039D02*
Y422795D01*
X889587Y400039D02*
X901752D01*
X889587Y350827D02*
Y373583D01*
X901752D01*
Y350827D02*
Y373583D01*
X889587Y350827D02*
X901752D01*
X915945Y392854D02*
Y410295D01*
Y392854D02*
X938386D01*
X915945Y410295D02*
X938386D01*
Y392854D02*
Y410295D01*
X913976Y446004D02*
Y463445D01*
Y446004D02*
X936417D01*
X913976Y463445D02*
X936417D01*
Y446004D02*
Y463445D01*
X938386Y349547D02*
Y366988D01*
X915945D02*
X938386D01*
X915945Y349547D02*
X938386D01*
X915945D02*
Y366988D01*
X965945Y349547D02*
Y366988D01*
X943504D02*
X965945D01*
X943504Y349547D02*
X965945D01*
X943504D02*
Y366988D01*
X2417716Y685433D02*
Y696457D01*
X2393307Y685433D02*
Y696457D01*
Y685433D02*
X2417716D01*
X2393307Y696457D02*
X2417716D01*
X838406Y521732D02*
Y644488D01*
X850571D01*
Y521732D02*
Y644488D01*
X838406Y521732D02*
X850571D01*
X2144882Y329724D02*
X2174016D01*
X2144882Y351378D02*
X2174016D01*
Y329724D02*
Y351378D01*
X2144882Y329724D02*
Y351378D01*
X867933Y400039D02*
Y422795D01*
X880098D01*
Y400039D02*
Y422795D01*
X867933Y400039D02*
X880098D01*
X865965Y350827D02*
Y373583D01*
X878130D01*
Y350827D02*
Y373583D01*
X865965Y350827D02*
X878130D01*
X882480Y618465D02*
Y638937D01*
X924606Y618465D02*
Y638937D01*
X882480Y618465D02*
X924606D01*
X882480Y638937D02*
X924606D01*
X2280098Y394370D02*
X2322579D01*
Y372913D02*
Y394370D01*
X2280098Y372913D02*
X2322579D01*
X2280098D02*
Y394370D01*
Y629252D02*
X2322579D01*
X2280098D02*
Y650709D01*
X2322579D01*
Y629252D02*
Y650709D01*
X927559Y662992D02*
X938583D01*
X927559Y687402D02*
X938583D01*
X927559Y662992D02*
Y687402D01*
X938583Y662992D02*
Y687402D01*
X1053642Y668799D02*
Y685532D01*
X1060532D01*
Y668799D02*
Y685532D01*
X1053642Y668799D02*
X1060532D01*
X2401673Y658996D02*
X2430807D01*
X2401673Y637343D02*
X2430807D01*
X2401673D02*
Y658996D01*
X2430807Y637343D02*
Y658996D01*
X2385787Y374213D02*
Y393504D01*
X2342874D02*
X2385787D01*
X2342874Y374213D02*
X2385787D01*
X2342874D02*
Y393504D01*
X2421654Y614567D02*
X2432677D01*
X2421654Y590158D02*
X2432677D01*
Y614567D01*
X2421654Y590158D02*
Y614567D01*
X971653Y703740D02*
X1000787D01*
X971653Y682087D02*
X1000787D01*
X971653D02*
Y703740D01*
X1000787Y682087D02*
Y703740D01*
X1002362Y648032D02*
Y659055D01*
X977953Y648032D02*
Y659055D01*
Y648032D02*
X1002362D01*
X977953Y659055D02*
X1002362D01*
X2342874Y630118D02*
Y649409D01*
Y630118D02*
X2385787D01*
X2342874Y649409D02*
X2385787D01*
Y630118D02*
Y649409D01*
X1190158Y691929D02*
X1219291D01*
X1190158Y670276D02*
X1219291D01*
X1190158D02*
Y691929D01*
X1219291Y670276D02*
Y691929D01*
X1333858D02*
X1362992D01*
X1333858Y670276D02*
X1362992D01*
X1333858D02*
Y691929D01*
X1362992Y670276D02*
Y691929D01*
X1479528D02*
X1508661D01*
X1479528Y670276D02*
X1508661D01*
X1479528D02*
Y691929D01*
X1508661Y670276D02*
Y691929D01*
X1623228D02*
X1652362D01*
X1623228Y670276D02*
X1652362D01*
X1623228D02*
Y691929D01*
X1652362Y670276D02*
Y691929D01*
X1914567D02*
X1943701D01*
X1914567Y670276D02*
X1943701D01*
X1914567D02*
Y691929D01*
X1943701Y670276D02*
Y691929D01*
X1768898D02*
X1798031D01*
X1768898Y670276D02*
X1798031D01*
X1768898D02*
Y691929D01*
X1798031Y670276D02*
Y691929D01*
X2058268D02*
X2087402D01*
X2058268Y670276D02*
X2087402D01*
X2058268D02*
Y691929D01*
X2087402Y670276D02*
Y691929D01*
X2205906D02*
X2235039D01*
X2205906Y670276D02*
X2235039D01*
X2205906D02*
Y691929D01*
X2235039Y670276D02*
Y691929D01*
X1125197Y331693D02*
X1154331D01*
X1125197Y353346D02*
X1154331D01*
Y331693D02*
Y353346D01*
X1125197Y331693D02*
Y353346D01*
X1272835Y331693D02*
X1301968D01*
X1272835Y353346D02*
X1301968D01*
Y331693D02*
Y353346D01*
X1272835Y331693D02*
Y353346D01*
X1418504Y331693D02*
X1447638D01*
X1418504Y353346D02*
X1447638D01*
Y331693D02*
Y353346D01*
X1418504Y331693D02*
Y353346D01*
X1564173Y329724D02*
X1593307D01*
X1564173Y351378D02*
X1593307D01*
Y329724D02*
Y351378D01*
X1564173Y329724D02*
Y351378D01*
X1711811Y329724D02*
X1740945D01*
X1711811Y351378D02*
X1740945D01*
Y329724D02*
Y351378D01*
X1711811Y329724D02*
Y351378D01*
X1851575Y329724D02*
X1880709D01*
X1851575Y351378D02*
X1880709D01*
Y329724D02*
Y351378D01*
X1851575Y329724D02*
Y351378D01*
X1999213Y329724D02*
X2028346D01*
X1999213Y351378D02*
X2028346D01*
Y329724D02*
Y351378D01*
X1999213Y329724D02*
Y351378D01*
M02*
