G04*
G04 #@! TF.GenerationSoftware,Altium Limited,Altium Designer,24.1.2 (44)*
G04*
G04 Layer_Color=32896*
%FSLAX25Y25*%
%MOIN*%
G70*
G04*
G04 #@! TF.SameCoordinates,E3FF4B23-F407-445B-9987-FD0FFFC61A21*
G04*
G04*
G04 #@! TF.FilePolarity,Positive*
G04*
G01*
G75*
%ADD12C,0.00787*%
G36*
X517967Y373745D02*
X517116D01*
Y373418D01*
X517119Y373388D01*
Y373366D01*
X517122Y373346D01*
X517125Y373333D01*
Y373321D01*
X517128Y373316D01*
Y373313D01*
X517141Y373269D01*
X517150Y373249D01*
X517158Y373233D01*
X517166Y373216D01*
X517172Y373205D01*
X517175Y373200D01*
X517177Y373197D01*
X517194Y373175D01*
X517213Y373152D01*
X517255Y373111D01*
X517274Y373092D01*
X517291Y373078D01*
X517302Y373069D01*
X517305Y373067D01*
X517344Y373039D01*
X517385Y373008D01*
X517429Y372978D01*
X517471Y372948D01*
X517510Y372922D01*
X517540Y372903D01*
X517551Y372895D01*
X517560Y372889D01*
X517565Y372884D01*
X517568D01*
X517967Y372632D01*
Y372316D01*
X517446Y372645D01*
X517391Y372684D01*
X517341Y372720D01*
X517299Y372756D01*
X517261Y372787D01*
X517233Y372814D01*
X517211Y372837D01*
X517197Y372850D01*
X517191Y372856D01*
X517175Y372878D01*
X517155Y372903D01*
X517125Y372953D01*
X517114Y372975D01*
X517103Y372992D01*
X517097Y373003D01*
X517094Y373008D01*
X517086Y372958D01*
X517078Y372912D01*
X517064Y372870D01*
X517053Y372828D01*
X517039Y372792D01*
X517022Y372759D01*
X517008Y372729D01*
X516994Y372701D01*
X516978Y372679D01*
X516964Y372657D01*
X516953Y372640D01*
X516942Y372626D01*
X516934Y372615D01*
X516925Y372607D01*
X516923Y372604D01*
X516920Y372601D01*
X516892Y372579D01*
X516864Y372557D01*
X516806Y372524D01*
X516748Y372501D01*
X516693Y372485D01*
X516645Y372474D01*
X516626Y372471D01*
X516607D01*
X516593Y372468D01*
X516582D01*
X516576D01*
X516573D01*
X516515Y372471D01*
X516463Y372479D01*
X516413Y372493D01*
X516371Y372507D01*
X516335Y372524D01*
X516308Y372535D01*
X516291Y372546D01*
X516288Y372549D01*
X516285D01*
X516241Y372582D01*
X516202Y372615D01*
X516169Y372651D01*
X516144Y372684D01*
X516125Y372715D01*
X516114Y372740D01*
X516105Y372756D01*
X516103Y372759D01*
Y372762D01*
X516094Y372787D01*
X516086Y372817D01*
X516072Y372878D01*
X516064Y372945D01*
X516055Y373006D01*
X516053Y373064D01*
Y373089D01*
X516050Y373111D01*
Y374000D01*
X517967D01*
Y373745D01*
D02*
G37*
G36*
X516734Y371945D02*
X516715Y371903D01*
X516695Y371862D01*
X516676Y371823D01*
X516659Y371790D01*
X516645Y371762D01*
X516634Y371745D01*
X516632Y371743D01*
Y371740D01*
X516601Y371690D01*
X516571Y371646D01*
X516543Y371607D01*
X516518Y371576D01*
X516499Y371549D01*
X516482Y371532D01*
X516471Y371518D01*
X516468Y371515D01*
X517967D01*
Y371280D01*
X516042D01*
Y371432D01*
X516089Y371460D01*
X516133Y371490D01*
X516177Y371527D01*
X516216Y371560D01*
X516249Y371593D01*
X516277Y371618D01*
X516285Y371629D01*
X516294Y371637D01*
X516296Y371640D01*
X516299Y371643D01*
X516346Y371701D01*
X516391Y371759D01*
X516429Y371814D01*
X516460Y371870D01*
X516488Y371917D01*
X516499Y371936D01*
X516507Y371953D01*
X516515Y371967D01*
X516518Y371978D01*
X516524Y371984D01*
Y371986D01*
X516751D01*
X516734Y371945D01*
D02*
G37*
G36*
X517504Y370668D02*
X517546Y370659D01*
X517623Y370635D01*
X517690Y370604D01*
X517718Y370587D01*
X517745Y370571D01*
X517770Y370554D01*
X517790Y370538D01*
X517809Y370524D01*
X517823Y370510D01*
X517834Y370501D01*
X517842Y370493D01*
X517848Y370488D01*
X517850Y370485D01*
X517875Y370452D01*
X517900Y370418D01*
X517920Y370385D01*
X517936Y370349D01*
X517964Y370280D01*
X517981Y370214D01*
X517986Y370183D01*
X517992Y370155D01*
X517994Y370130D01*
X517997Y370108D01*
X518000Y370092D01*
Y370067D01*
X517997Y370014D01*
X517992Y369967D01*
X517983Y369920D01*
X517972Y369876D01*
X517958Y369834D01*
X517945Y369798D01*
X517928Y369762D01*
X517911Y369731D01*
X517898Y369701D01*
X517881Y369676D01*
X517867Y369654D01*
X517853Y369637D01*
X517842Y369623D01*
X517834Y369612D01*
X517828Y369607D01*
X517826Y369604D01*
X517792Y369571D01*
X517756Y369543D01*
X517720Y369518D01*
X517684Y369496D01*
X517651Y369479D01*
X517615Y369463D01*
X517549Y369441D01*
X517518Y369435D01*
X517490Y369430D01*
X517465Y369424D01*
X517443Y369421D01*
X517427Y369419D01*
X517413D01*
X517405D01*
X517402D01*
X517335Y369421D01*
X517274Y369432D01*
X517222Y369449D01*
X517177Y369466D01*
X517141Y369482D01*
X517114Y369499D01*
X517097Y369510D01*
X517092Y369513D01*
X517050Y369551D01*
X517014Y369593D01*
X516986Y369637D01*
X516964Y369682D01*
X516947Y369720D01*
X516936Y369751D01*
X516934Y369762D01*
X516931Y369770D01*
X516928Y369776D01*
Y369779D01*
X516903Y369731D01*
X516878Y369693D01*
X516851Y369659D01*
X516826Y369632D01*
X516803Y369610D01*
X516784Y369593D01*
X516773Y369585D01*
X516767Y369582D01*
X516729Y369560D01*
X516690Y369543D01*
X516651Y369529D01*
X516615Y369521D01*
X516585Y369515D01*
X516562Y369513D01*
X516546D01*
X516540D01*
X516493Y369515D01*
X516446Y369524D01*
X516404Y369535D01*
X516368Y369549D01*
X516338Y369563D01*
X516313Y369574D01*
X516299Y369582D01*
X516294Y369585D01*
X516252Y369612D01*
X516216Y369646D01*
X516186Y369679D01*
X516158Y369712D01*
X516139Y369740D01*
X516122Y369765D01*
X516114Y369781D01*
X516111Y369784D01*
Y369787D01*
X516089Y369837D01*
X516072Y369887D01*
X516058Y369936D01*
X516050Y369981D01*
X516044Y370017D01*
X516042Y370047D01*
Y370116D01*
X516047Y370155D01*
X516061Y370230D01*
X516083Y370294D01*
X516105Y370349D01*
X516119Y370374D01*
X516130Y370393D01*
X516141Y370413D01*
X516152Y370427D01*
X516161Y370438D01*
X516166Y370446D01*
X516169Y370452D01*
X516172Y370455D01*
X516224Y370507D01*
X516283Y370549D01*
X516344Y370582D01*
X516404Y370610D01*
X516457Y370626D01*
X516479Y370635D01*
X516499Y370640D01*
X516515Y370643D01*
X516526Y370646D01*
X516535Y370648D01*
X516538D01*
X516579Y370413D01*
X516518Y370402D01*
X516466Y370385D01*
X516421Y370366D01*
X516385Y370346D01*
X516357Y370327D01*
X516338Y370310D01*
X516324Y370299D01*
X516321Y370297D01*
X516294Y370261D01*
X516272Y370222D01*
X516258Y370186D01*
X516247Y370150D01*
X516241Y370116D01*
X516235Y370092D01*
Y370069D01*
X516238Y370020D01*
X516249Y369975D01*
X516263Y369936D01*
X516277Y369903D01*
X516294Y369878D01*
X516308Y369859D01*
X516319Y369845D01*
X516321Y369842D01*
X516355Y369812D01*
X516391Y369790D01*
X516427Y369776D01*
X516460Y369765D01*
X516490Y369759D01*
X516513Y369754D01*
X516529D01*
X516532D01*
X516535D01*
X516565D01*
X516593Y369759D01*
X516640Y369773D01*
X516681Y369792D01*
X516717Y369815D01*
X516743Y369837D01*
X516762Y369856D01*
X516773Y369870D01*
X516776Y369873D01*
Y369876D01*
X516801Y369923D01*
X516820Y369967D01*
X516834Y370014D01*
X516842Y370056D01*
X516848Y370092D01*
X516853Y370122D01*
Y370158D01*
X516851Y370169D01*
Y370183D01*
X517058Y370211D01*
X517050Y370175D01*
X517044Y370141D01*
X517039Y370114D01*
X517036Y370089D01*
X517033Y370069D01*
Y370044D01*
X517039Y369986D01*
X517050Y369934D01*
X517067Y369887D01*
X517086Y369848D01*
X517105Y369817D01*
X517122Y369795D01*
X517133Y369781D01*
X517139Y369776D01*
X517180Y369740D01*
X517224Y369712D01*
X517269Y369693D01*
X517313Y369682D01*
X517349Y369673D01*
X517380Y369671D01*
X517391Y369668D01*
X517399D01*
X517405D01*
X517407D01*
X517468Y369673D01*
X517524Y369687D01*
X517571Y369704D01*
X517612Y369726D01*
X517646Y369748D01*
X517670Y369765D01*
X517687Y369779D01*
X517693Y369784D01*
X517731Y369828D01*
X517759Y369876D01*
X517778Y369923D01*
X517792Y369967D01*
X517801Y370006D01*
X517803Y370036D01*
X517806Y370047D01*
Y370064D01*
X517803Y370114D01*
X517792Y370161D01*
X517778Y370202D01*
X517762Y370236D01*
X517748Y370263D01*
X517734Y370286D01*
X517723Y370297D01*
X517720Y370302D01*
X517682Y370335D01*
X517637Y370363D01*
X517590Y370388D01*
X517540Y370407D01*
X517499Y370421D01*
X517479Y370427D01*
X517463Y370429D01*
X517449Y370432D01*
X517438Y370435D01*
X517432Y370438D01*
X517429D01*
X517460Y370673D01*
X517504Y370668D01*
D02*
G37*
G36*
X359094Y351994D02*
X359191Y351983D01*
X359277Y351970D01*
X359319Y351958D01*
X359355Y351950D01*
X359388Y351942D01*
X359418Y351931D01*
X359446Y351922D01*
X359468Y351917D01*
X359485Y351909D01*
X359499Y351906D01*
X359507Y351900D01*
X359510D01*
X359593Y351859D01*
X359668Y351812D01*
X359731Y351762D01*
X359756Y351737D01*
X359781Y351715D01*
X359803Y351693D01*
X359823Y351670D01*
X359839Y351651D01*
X359851Y351634D01*
X359861Y351623D01*
X359870Y351612D01*
X359873Y351607D01*
X359875Y351604D01*
X359897Y351565D01*
X359917Y351526D01*
X359947Y351443D01*
X359970Y351360D01*
X359983Y351280D01*
X359989Y351241D01*
X359995Y351208D01*
X359997Y351177D01*
Y351152D01*
X360000Y351130D01*
Y351100D01*
X359997Y351044D01*
X359992Y350992D01*
X359986Y350942D01*
X359975Y350895D01*
X359961Y350851D01*
X359947Y350809D01*
X359934Y350770D01*
X359917Y350734D01*
X359903Y350704D01*
X359889Y350673D01*
X359875Y350651D01*
X359861Y350629D01*
X359851Y350615D01*
X359845Y350601D01*
X359839Y350596D01*
X359837Y350593D01*
X359803Y350554D01*
X359770Y350521D01*
X359731Y350490D01*
X359693Y350460D01*
X359615Y350410D01*
X359537Y350371D01*
X359501Y350355D01*
X359468Y350341D01*
X359438Y350330D01*
X359413Y350321D01*
X359391Y350313D01*
X359374Y350308D01*
X359363Y350305D01*
X359360D01*
X359296Y350560D01*
X359341Y350571D01*
X359382Y350585D01*
X359421Y350598D01*
X359457Y350612D01*
X359490Y350629D01*
X359518Y350645D01*
X359546Y350665D01*
X359571Y350681D01*
X359593Y350695D01*
X359610Y350712D01*
X359626Y350726D01*
X359640Y350737D01*
X359648Y350748D01*
X359657Y350756D01*
X359659Y350759D01*
X359662Y350762D01*
X359684Y350790D01*
X359701Y350820D01*
X359731Y350881D01*
X359753Y350939D01*
X359767Y350997D01*
X359778Y351047D01*
X359781Y351067D01*
Y351086D01*
X359784Y351103D01*
Y351122D01*
X359781Y351186D01*
X359770Y351247D01*
X359756Y351302D01*
X359740Y351352D01*
X359723Y351391D01*
X359715Y351407D01*
X359709Y351421D01*
X359704Y351432D01*
X359698Y351441D01*
X359695Y351446D01*
Y351449D01*
X359657Y351501D01*
X359615Y351546D01*
X359568Y351585D01*
X359524Y351615D01*
X359485Y351640D01*
X359452Y351657D01*
X359438Y351662D01*
X359429Y351668D01*
X359424Y351670D01*
X359421D01*
X359349Y351693D01*
X359277Y351709D01*
X359205Y351723D01*
X359139Y351731D01*
X359108Y351734D01*
X359080Y351737D01*
X359055D01*
X359036Y351740D01*
X359019D01*
X359006D01*
X358997D01*
X358995D01*
X358923Y351737D01*
X358856Y351731D01*
X358795Y351720D01*
X358740Y351709D01*
X358693Y351701D01*
X358673Y351695D01*
X358657Y351690D01*
X358643Y351687D01*
X358634Y351684D01*
X358629Y351681D01*
X358626D01*
X358562Y351654D01*
X358504Y351623D01*
X358457Y351590D01*
X358416Y351554D01*
X358382Y351524D01*
X358360Y351499D01*
X358346Y351479D01*
X358341Y351477D01*
Y351474D01*
X358305Y351416D01*
X358277Y351352D01*
X358258Y351291D01*
X358247Y351233D01*
X358238Y351180D01*
X358236Y351158D01*
Y351139D01*
X358233Y351125D01*
Y351103D01*
X358236Y351033D01*
X358247Y350970D01*
X358263Y350917D01*
X358280Y350870D01*
X358299Y350834D01*
X358313Y350806D01*
X358324Y350790D01*
X358330Y350784D01*
X358371Y350740D01*
X358418Y350698D01*
X358468Y350665D01*
X358518Y350637D01*
X358562Y350615D01*
X358585Y350607D01*
X358601Y350601D01*
X358615Y350596D01*
X358626Y350590D01*
X358632Y350587D01*
X358634D01*
X358576Y350338D01*
X358526Y350355D01*
X358482Y350371D01*
X358440Y350393D01*
X358399Y350413D01*
X358363Y350435D01*
X358330Y350460D01*
X358296Y350482D01*
X358269Y350504D01*
X358247Y350526D01*
X358225Y350546D01*
X358205Y350565D01*
X358191Y350579D01*
X358177Y350593D01*
X358169Y350604D01*
X358166Y350609D01*
X358163Y350612D01*
X358139Y350651D01*
X358114Y350690D01*
X358094Y350729D01*
X358078Y350770D01*
X358053Y350853D01*
X358036Y350928D01*
X358028Y350964D01*
X358025Y350994D01*
X358022Y351025D01*
X358019Y351050D01*
X358017Y351069D01*
Y351097D01*
X358022Y351188D01*
X358036Y351277D01*
X358053Y351355D01*
X358064Y351391D01*
X358075Y351424D01*
X358086Y351454D01*
X358097Y351482D01*
X358105Y351504D01*
X358114Y351526D01*
X358122Y351540D01*
X358127Y351551D01*
X358130Y351560D01*
X358133Y351562D01*
X358180Y351637D01*
X358236Y351701D01*
X358291Y351756D01*
X358346Y351803D01*
X358396Y351839D01*
X358418Y351853D01*
X358438Y351864D01*
X358452Y351875D01*
X358463Y351881D01*
X358471Y351884D01*
X358474Y351887D01*
X358560Y351925D01*
X358648Y351953D01*
X358737Y351972D01*
X358817Y351986D01*
X358853Y351992D01*
X358889Y351994D01*
X358917Y351997D01*
X358945D01*
X358964Y352000D01*
X358981D01*
X358992D01*
X358995D01*
X359094Y351994D01*
D02*
G37*
G36*
X359504Y350080D02*
X359546Y350072D01*
X359623Y350047D01*
X359690Y350017D01*
X359717Y350000D01*
X359745Y349984D01*
X359770Y349967D01*
X359789Y349950D01*
X359809Y349936D01*
X359823Y349923D01*
X359834Y349914D01*
X359842Y349906D01*
X359848Y349900D01*
X359851Y349898D01*
X359875Y349864D01*
X359900Y349831D01*
X359920Y349798D01*
X359936Y349762D01*
X359964Y349693D01*
X359981Y349626D01*
X359986Y349596D01*
X359992Y349568D01*
X359995Y349543D01*
X359997Y349521D01*
X360000Y349504D01*
Y349479D01*
X359997Y349427D01*
X359992Y349380D01*
X359983Y349332D01*
X359972Y349288D01*
X359959Y349247D01*
X359945Y349211D01*
X359928Y349175D01*
X359911Y349144D01*
X359897Y349114D01*
X359881Y349089D01*
X359867Y349067D01*
X359853Y349050D01*
X359842Y349036D01*
X359834Y349025D01*
X359828Y349020D01*
X359825Y349017D01*
X359792Y348984D01*
X359756Y348956D01*
X359720Y348931D01*
X359684Y348909D01*
X359651Y348892D01*
X359615Y348875D01*
X359548Y348853D01*
X359518Y348848D01*
X359490Y348842D01*
X359465Y348837D01*
X359443Y348834D01*
X359427Y348831D01*
X359413D01*
X359404D01*
X359402D01*
X359335Y348834D01*
X359274Y348845D01*
X359222Y348862D01*
X359177Y348878D01*
X359141Y348895D01*
X359114Y348911D01*
X359097Y348923D01*
X359091Y348925D01*
X359050Y348964D01*
X359014Y349006D01*
X358986Y349050D01*
X358964Y349094D01*
X358947Y349133D01*
X358936Y349164D01*
X358934Y349175D01*
X358931Y349183D01*
X358928Y349188D01*
Y349191D01*
X358903Y349144D01*
X358878Y349105D01*
X358851Y349072D01*
X358826Y349044D01*
X358803Y349022D01*
X358784Y349006D01*
X358773Y348997D01*
X358767Y348995D01*
X358729Y348972D01*
X358690Y348956D01*
X358651Y348942D01*
X358615Y348934D01*
X358585Y348928D01*
X358562Y348925D01*
X358546D01*
X358540D01*
X358493Y348928D01*
X358446Y348936D01*
X358404Y348948D01*
X358368Y348961D01*
X358338Y348975D01*
X358313Y348986D01*
X358299Y348995D01*
X358294Y348997D01*
X358252Y349025D01*
X358216Y349058D01*
X358186Y349092D01*
X358158Y349125D01*
X358139Y349152D01*
X358122Y349177D01*
X358114Y349194D01*
X358111Y349197D01*
Y349200D01*
X358089Y349249D01*
X358072Y349299D01*
X358058Y349349D01*
X358050Y349394D01*
X358044Y349429D01*
X358042Y349460D01*
Y349529D01*
X358047Y349568D01*
X358061Y349643D01*
X358083Y349707D01*
X358105Y349762D01*
X358119Y349787D01*
X358130Y349806D01*
X358141Y349826D01*
X358152Y349839D01*
X358161Y349851D01*
X358166Y349859D01*
X358169Y349864D01*
X358172Y349867D01*
X358225Y349920D01*
X358283Y349961D01*
X358344Y349995D01*
X358404Y350022D01*
X358457Y350039D01*
X358479Y350047D01*
X358499Y350053D01*
X358515Y350056D01*
X358526Y350058D01*
X358535Y350061D01*
X358538D01*
X358579Y349826D01*
X358518Y349815D01*
X358466Y349798D01*
X358421Y349779D01*
X358385Y349759D01*
X358357Y349740D01*
X358338Y349723D01*
X358324Y349712D01*
X358321Y349709D01*
X358294Y349673D01*
X358272Y349635D01*
X358258Y349599D01*
X358247Y349562D01*
X358241Y349529D01*
X358236Y349504D01*
Y349482D01*
X358238Y349432D01*
X358249Y349388D01*
X358263Y349349D01*
X358277Y349316D01*
X358294Y349291D01*
X358308Y349272D01*
X358319Y349258D01*
X358321Y349255D01*
X358355Y349224D01*
X358391Y349202D01*
X358427Y349188D01*
X358460Y349177D01*
X358490Y349172D01*
X358512Y349166D01*
X358529D01*
X358532D01*
X358535D01*
X358565D01*
X358593Y349172D01*
X358640Y349186D01*
X358682Y349205D01*
X358717Y349227D01*
X358742Y349249D01*
X358762Y349269D01*
X358773Y349283D01*
X358776Y349285D01*
Y349288D01*
X358801Y349335D01*
X358820Y349380D01*
X358834Y349427D01*
X358842Y349468D01*
X358848Y349504D01*
X358853Y349535D01*
Y349571D01*
X358851Y349582D01*
Y349596D01*
X359058Y349623D01*
X359050Y349587D01*
X359044Y349554D01*
X359039Y349526D01*
X359036Y349501D01*
X359033Y349482D01*
Y349457D01*
X359039Y349399D01*
X359050Y349346D01*
X359067Y349299D01*
X359086Y349260D01*
X359105Y349230D01*
X359122Y349208D01*
X359133Y349194D01*
X359139Y349188D01*
X359180Y349152D01*
X359224Y349125D01*
X359269Y349105D01*
X359313Y349094D01*
X359349Y349086D01*
X359380Y349083D01*
X359391Y349080D01*
X359399D01*
X359404D01*
X359407D01*
X359468Y349086D01*
X359524Y349100D01*
X359571Y349116D01*
X359612Y349139D01*
X359646Y349161D01*
X359670Y349177D01*
X359687Y349191D01*
X359693Y349197D01*
X359731Y349241D01*
X359759Y349288D01*
X359778Y349335D01*
X359792Y349380D01*
X359801Y349418D01*
X359803Y349449D01*
X359806Y349460D01*
Y349477D01*
X359803Y349526D01*
X359792Y349573D01*
X359778Y349615D01*
X359762Y349648D01*
X359748Y349676D01*
X359734Y349698D01*
X359723Y349709D01*
X359720Y349715D01*
X359682Y349748D01*
X359637Y349776D01*
X359590Y349801D01*
X359540Y349820D01*
X359499Y349834D01*
X359479Y349839D01*
X359463Y349842D01*
X359449Y349845D01*
X359438Y349848D01*
X359432Y349851D01*
X359429D01*
X359460Y350086D01*
X359504Y350080D01*
D02*
G37*
G36*
X273094Y307995D02*
X273191Y307983D01*
X273277Y307970D01*
X273319Y307959D01*
X273355Y307950D01*
X273388Y307942D01*
X273418Y307931D01*
X273446Y307923D01*
X273468Y307917D01*
X273485Y307909D01*
X273499Y307906D01*
X273507Y307900D01*
X273510D01*
X273593Y307859D01*
X273668Y307812D01*
X273731Y307762D01*
X273756Y307737D01*
X273781Y307715D01*
X273803Y307693D01*
X273823Y307670D01*
X273839Y307651D01*
X273850Y307634D01*
X273862Y307623D01*
X273870Y307612D01*
X273873Y307607D01*
X273875Y307604D01*
X273898Y307565D01*
X273917Y307526D01*
X273947Y307443D01*
X273970Y307360D01*
X273983Y307280D01*
X273989Y307241D01*
X273994Y307208D01*
X273997Y307177D01*
Y307152D01*
X274000Y307130D01*
Y307100D01*
X273997Y307044D01*
X273992Y306992D01*
X273986Y306942D01*
X273975Y306895D01*
X273961Y306851D01*
X273947Y306809D01*
X273934Y306770D01*
X273917Y306734D01*
X273903Y306704D01*
X273889Y306673D01*
X273875Y306651D01*
X273862Y306629D01*
X273850Y306615D01*
X273845Y306601D01*
X273839Y306596D01*
X273837Y306593D01*
X273803Y306554D01*
X273770Y306521D01*
X273731Y306490D01*
X273693Y306460D01*
X273615Y306410D01*
X273537Y306371D01*
X273501Y306355D01*
X273468Y306341D01*
X273438Y306330D01*
X273413Y306321D01*
X273391Y306313D01*
X273374Y306308D01*
X273363Y306305D01*
X273360D01*
X273296Y306560D01*
X273341Y306571D01*
X273382Y306585D01*
X273421Y306598D01*
X273457Y306612D01*
X273490Y306629D01*
X273518Y306645D01*
X273546Y306665D01*
X273571Y306681D01*
X273593Y306695D01*
X273609Y306712D01*
X273626Y306726D01*
X273640Y306737D01*
X273648Y306748D01*
X273657Y306756D01*
X273659Y306759D01*
X273662Y306762D01*
X273684Y306790D01*
X273701Y306820D01*
X273731Y306881D01*
X273753Y306939D01*
X273767Y306997D01*
X273778Y307047D01*
X273781Y307067D01*
Y307086D01*
X273784Y307103D01*
Y307122D01*
X273781Y307186D01*
X273770Y307247D01*
X273756Y307302D01*
X273740Y307352D01*
X273723Y307391D01*
X273715Y307407D01*
X273709Y307421D01*
X273704Y307432D01*
X273698Y307440D01*
X273695Y307446D01*
Y307449D01*
X273657Y307501D01*
X273615Y307546D01*
X273568Y307585D01*
X273524Y307615D01*
X273485Y307640D01*
X273452Y307657D01*
X273438Y307662D01*
X273429Y307668D01*
X273424Y307670D01*
X273421D01*
X273349Y307693D01*
X273277Y307709D01*
X273205Y307723D01*
X273139Y307731D01*
X273108Y307734D01*
X273080Y307737D01*
X273056D01*
X273036Y307740D01*
X273020D01*
X273006D01*
X272997D01*
X272994D01*
X272922Y307737D01*
X272856Y307731D01*
X272795Y307720D01*
X272740Y307709D01*
X272693Y307701D01*
X272673Y307695D01*
X272657Y307690D01*
X272643Y307687D01*
X272634Y307684D01*
X272629Y307681D01*
X272626D01*
X272562Y307654D01*
X272504Y307623D01*
X272457Y307590D01*
X272416Y307554D01*
X272382Y307524D01*
X272360Y307499D01*
X272346Y307479D01*
X272341Y307476D01*
Y307474D01*
X272305Y307416D01*
X272277Y307352D01*
X272258Y307291D01*
X272247Y307233D01*
X272238Y307180D01*
X272236Y307158D01*
Y307139D01*
X272233Y307125D01*
Y307103D01*
X272236Y307033D01*
X272247Y306970D01*
X272263Y306917D01*
X272280Y306870D01*
X272299Y306834D01*
X272313Y306806D01*
X272324Y306790D01*
X272330Y306784D01*
X272371Y306740D01*
X272418Y306698D01*
X272468Y306665D01*
X272518Y306637D01*
X272562Y306615D01*
X272585Y306607D01*
X272601Y306601D01*
X272615Y306596D01*
X272626Y306590D01*
X272632Y306587D01*
X272634D01*
X272576Y306338D01*
X272526Y306355D01*
X272482Y306371D01*
X272441Y306393D01*
X272399Y306413D01*
X272363Y306435D01*
X272330Y306460D01*
X272297Y306482D01*
X272269Y306504D01*
X272247Y306526D01*
X272224Y306546D01*
X272205Y306565D01*
X272191Y306579D01*
X272177Y306593D01*
X272169Y306604D01*
X272166Y306610D01*
X272164Y306612D01*
X272139Y306651D01*
X272114Y306690D01*
X272094Y306729D01*
X272078Y306770D01*
X272053Y306853D01*
X272036Y306928D01*
X272028Y306964D01*
X272025Y306995D01*
X272022Y307025D01*
X272020Y307050D01*
X272017Y307069D01*
Y307097D01*
X272022Y307188D01*
X272036Y307277D01*
X272053Y307355D01*
X272064Y307391D01*
X272075Y307424D01*
X272086Y307454D01*
X272097Y307482D01*
X272105Y307504D01*
X272114Y307526D01*
X272122Y307540D01*
X272128Y307551D01*
X272130Y307560D01*
X272133Y307562D01*
X272180Y307637D01*
X272236Y307701D01*
X272291Y307756D01*
X272346Y307803D01*
X272396Y307839D01*
X272418Y307853D01*
X272438Y307864D01*
X272452Y307875D01*
X272463Y307881D01*
X272471Y307884D01*
X272474Y307887D01*
X272560Y307925D01*
X272648Y307953D01*
X272737Y307972D01*
X272817Y307986D01*
X272853Y307992D01*
X272889Y307995D01*
X272917Y307997D01*
X272945D01*
X272964Y308000D01*
X272981D01*
X272992D01*
X272994D01*
X273094Y307995D01*
D02*
G37*
G36*
X273460Y306089D02*
X273504Y306083D01*
X273546Y306075D01*
X273587Y306064D01*
X273657Y306036D01*
X273690Y306022D01*
X273717Y306006D01*
X273745Y305989D01*
X273767Y305975D01*
X273787Y305959D01*
X273803Y305947D01*
X273817Y305936D01*
X273826Y305928D01*
X273831Y305923D01*
X273834Y305920D01*
X273864Y305887D01*
X273889Y305851D01*
X273911Y305812D01*
X273931Y305773D01*
X273945Y305737D01*
X273958Y305698D01*
X273978Y305623D01*
X273986Y305590D01*
X273992Y305560D01*
X273994Y305532D01*
X273997Y305507D01*
X274000Y305488D01*
Y305460D01*
X273997Y305407D01*
X273992Y305360D01*
X273983Y305313D01*
X273975Y305269D01*
X273961Y305230D01*
X273947Y305191D01*
X273934Y305155D01*
X273917Y305125D01*
X273900Y305097D01*
X273886Y305072D01*
X273873Y305053D01*
X273859Y305033D01*
X273850Y305019D01*
X273842Y305011D01*
X273837Y305006D01*
X273834Y305003D01*
X273801Y304972D01*
X273767Y304945D01*
X273734Y304923D01*
X273698Y304903D01*
X273665Y304884D01*
X273629Y304870D01*
X273565Y304851D01*
X273535Y304842D01*
X273507Y304837D01*
X273482Y304834D01*
X273463Y304831D01*
X273446Y304828D01*
X273432D01*
X273424D01*
X273421D01*
X273357Y304831D01*
X273299Y304842D01*
X273247Y304859D01*
X273202Y304875D01*
X273166Y304892D01*
X273139Y304909D01*
X273122Y304920D01*
X273119Y304923D01*
X273116D01*
X273072Y304961D01*
X273033Y305003D01*
X273003Y305047D01*
X272975Y305089D01*
X272956Y305128D01*
X272942Y305161D01*
X272936Y305172D01*
X272934Y305180D01*
X272931Y305186D01*
Y305188D01*
X272909Y305139D01*
X272884Y305097D01*
X272859Y305061D01*
X272834Y305031D01*
X272812Y305008D01*
X272795Y304992D01*
X272784Y304981D01*
X272779Y304978D01*
X272740Y304953D01*
X272701Y304936D01*
X272662Y304923D01*
X272623Y304914D01*
X272593Y304909D01*
X272568Y304906D01*
X272551D01*
X272549D01*
X272546D01*
X272507Y304909D01*
X272471Y304911D01*
X272402Y304931D01*
X272341Y304956D01*
X272288Y304983D01*
X272247Y305011D01*
X272230Y305025D01*
X272213Y305036D01*
X272202Y305047D01*
X272194Y305055D01*
X272191Y305058D01*
X272188Y305061D01*
X272164Y305092D01*
X272139Y305122D01*
X272119Y305155D01*
X272103Y305188D01*
X272078Y305255D01*
X272061Y305322D01*
X272053Y305349D01*
X272050Y305377D01*
X272047Y305402D01*
X272044Y305424D01*
X272042Y305441D01*
Y305466D01*
X272044Y305510D01*
X272047Y305554D01*
X272064Y305632D01*
X272075Y305668D01*
X272086Y305701D01*
X272100Y305731D01*
X272114Y305759D01*
X272128Y305781D01*
X272141Y305803D01*
X272152Y305823D01*
X272164Y305837D01*
X272172Y305848D01*
X272180Y305856D01*
X272183Y305862D01*
X272186Y305864D01*
X272213Y305889D01*
X272241Y305914D01*
X272272Y305934D01*
X272302Y305950D01*
X272360Y305978D01*
X272416Y305995D01*
X272463Y306006D01*
X272485Y306008D01*
X272501Y306011D01*
X272518Y306014D01*
X272529D01*
X272535D01*
X272537D01*
X272587Y306011D01*
X272634Y306003D01*
X272676Y305992D01*
X272712Y305978D01*
X272740Y305967D01*
X272762Y305956D01*
X272773Y305947D01*
X272779Y305945D01*
X272812Y305914D01*
X272842Y305881D01*
X272870Y305845D01*
X272892Y305809D01*
X272909Y305776D01*
X272920Y305751D01*
X272925Y305740D01*
X272928Y305731D01*
X272931Y305729D01*
Y305726D01*
X272950Y305790D01*
X272975Y305842D01*
X273006Y305889D01*
X273033Y305928D01*
X273061Y305959D01*
X273083Y305981D01*
X273097Y305992D01*
X273100Y305997D01*
X273103D01*
X273152Y306028D01*
X273205Y306053D01*
X273255Y306069D01*
X273305Y306080D01*
X273349Y306086D01*
X273369Y306089D01*
X273385D01*
X273396Y306091D01*
X273407D01*
X273413D01*
X273416D01*
X273460Y306089D01*
D02*
G37*
G36*
X324000Y307745D02*
X323150D01*
Y307418D01*
X323152Y307388D01*
Y307366D01*
X323155Y307346D01*
X323158Y307332D01*
Y307321D01*
X323161Y307316D01*
Y307313D01*
X323175Y307269D01*
X323183Y307249D01*
X323191Y307233D01*
X323200Y307216D01*
X323205Y307205D01*
X323208Y307200D01*
X323211Y307197D01*
X323227Y307175D01*
X323247Y307152D01*
X323288Y307111D01*
X323307Y307091D01*
X323324Y307078D01*
X323335Y307069D01*
X323338Y307067D01*
X323377Y307039D01*
X323418Y307008D01*
X323463Y306978D01*
X323504Y306947D01*
X323543Y306923D01*
X323573Y306903D01*
X323585Y306895D01*
X323593Y306889D01*
X323598Y306884D01*
X323601D01*
X324000Y306632D01*
Y306316D01*
X323479Y306645D01*
X323424Y306684D01*
X323374Y306720D01*
X323333Y306756D01*
X323294Y306787D01*
X323266Y306815D01*
X323244Y306837D01*
X323230Y306851D01*
X323224Y306856D01*
X323208Y306878D01*
X323188Y306903D01*
X323158Y306953D01*
X323147Y306975D01*
X323136Y306992D01*
X323130Y307003D01*
X323128Y307008D01*
X323119Y306959D01*
X323111Y306911D01*
X323097Y306870D01*
X323086Y306828D01*
X323072Y306792D01*
X323056Y306759D01*
X323042Y306729D01*
X323028Y306701D01*
X323011Y306679D01*
X322997Y306657D01*
X322986Y306640D01*
X322975Y306626D01*
X322967Y306615D01*
X322958Y306607D01*
X322956Y306604D01*
X322953Y306601D01*
X322925Y306579D01*
X322898Y306557D01*
X322839Y306524D01*
X322781Y306502D01*
X322726Y306485D01*
X322679Y306474D01*
X322659Y306471D01*
X322640D01*
X322626Y306468D01*
X322615D01*
X322609D01*
X322607D01*
X322549Y306471D01*
X322496Y306479D01*
X322446Y306493D01*
X322405Y306507D01*
X322369Y306524D01*
X322341Y306535D01*
X322324Y306546D01*
X322321Y306549D01*
X322319D01*
X322274Y306582D01*
X322236Y306615D01*
X322202Y306651D01*
X322177Y306684D01*
X322158Y306715D01*
X322147Y306740D01*
X322139Y306756D01*
X322136Y306759D01*
Y306762D01*
X322128Y306787D01*
X322119Y306817D01*
X322105Y306878D01*
X322097Y306945D01*
X322089Y307006D01*
X322086Y307064D01*
Y307089D01*
X322083Y307111D01*
Y308000D01*
X324000D01*
Y307745D01*
D02*
G37*
G36*
X322767Y305945D02*
X322748Y305903D01*
X322729Y305862D01*
X322709Y305823D01*
X322693Y305790D01*
X322679Y305762D01*
X322668Y305745D01*
X322665Y305743D01*
Y305740D01*
X322634Y305690D01*
X322604Y305646D01*
X322576Y305607D01*
X322551Y305576D01*
X322532Y305549D01*
X322515Y305532D01*
X322504Y305518D01*
X322501Y305515D01*
X324000D01*
Y305280D01*
X322075D01*
Y305432D01*
X322122Y305460D01*
X322166Y305490D01*
X322211Y305526D01*
X322249Y305560D01*
X322283Y305593D01*
X322310Y305618D01*
X322319Y305629D01*
X322327Y305637D01*
X322330Y305640D01*
X322333Y305643D01*
X322380Y305701D01*
X322424Y305759D01*
X322463Y305815D01*
X322493Y305870D01*
X322521Y305917D01*
X322532Y305936D01*
X322540Y305953D01*
X322549Y305967D01*
X322551Y305978D01*
X322557Y305983D01*
Y305986D01*
X322784D01*
X322767Y305945D01*
D02*
G37*
G36*
X322335Y303720D02*
X322416Y303787D01*
X322501Y303851D01*
X322585Y303906D01*
X322665Y303959D01*
X322701Y303981D01*
X322734Y304000D01*
X322765Y304020D01*
X322790Y304033D01*
X322812Y304045D01*
X322826Y304053D01*
X322837Y304058D01*
X322839Y304061D01*
X322950Y304117D01*
X323061Y304166D01*
X323166Y304208D01*
X323213Y304224D01*
X323260Y304241D01*
X323302Y304258D01*
X323341Y304269D01*
X323374Y304280D01*
X323402Y304288D01*
X323427Y304297D01*
X323443Y304302D01*
X323454Y304305D01*
X323457D01*
X323571Y304333D01*
X323626Y304344D01*
X323676Y304352D01*
X323723Y304360D01*
X323770Y304369D01*
X323809Y304374D01*
X323848Y304380D01*
X323881Y304382D01*
X323911Y304385D01*
X323939Y304388D01*
X323961D01*
X323978Y304391D01*
X323989D01*
X323997D01*
X324000D01*
Y304150D01*
X323895Y304141D01*
X323798Y304128D01*
X323709Y304114D01*
X323668Y304105D01*
X323629Y304097D01*
X323596Y304092D01*
X323565Y304083D01*
X323537Y304078D01*
X323515Y304072D01*
X323499Y304067D01*
X323485Y304064D01*
X323477Y304061D01*
X323474D01*
X323346Y304020D01*
X323227Y303975D01*
X323169Y303953D01*
X323114Y303931D01*
X323064Y303906D01*
X323014Y303884D01*
X322970Y303864D01*
X322931Y303845D01*
X322898Y303828D01*
X322867Y303815D01*
X322842Y303801D01*
X322826Y303792D01*
X322814Y303787D01*
X322812Y303784D01*
X322754Y303751D01*
X322695Y303718D01*
X322643Y303684D01*
X322593Y303651D01*
X322549Y303621D01*
X322504Y303590D01*
X322465Y303560D01*
X322432Y303535D01*
X322399Y303510D01*
X322371Y303488D01*
X322349Y303466D01*
X322330Y303449D01*
X322313Y303438D01*
X322302Y303427D01*
X322297Y303421D01*
X322294Y303418D01*
X322108D01*
Y304659D01*
X322335D01*
Y303720D01*
D02*
G37*
G36*
X443460Y321911D02*
X443490Y321867D01*
X443526Y321823D01*
X443560Y321784D01*
X443593Y321751D01*
X443618Y321723D01*
X443629Y321715D01*
X443637Y321706D01*
X443640Y321704D01*
X443643Y321701D01*
X443701Y321654D01*
X443759Y321609D01*
X443815Y321570D01*
X443870Y321540D01*
X443917Y321512D01*
X443936Y321501D01*
X443953Y321493D01*
X443967Y321485D01*
X443978Y321482D01*
X443984Y321476D01*
X443986D01*
Y321249D01*
X443945Y321266D01*
X443903Y321285D01*
X443862Y321305D01*
X443823Y321324D01*
X443790Y321341D01*
X443762Y321355D01*
X443745Y321366D01*
X443743Y321368D01*
X443740D01*
X443690Y321399D01*
X443646Y321429D01*
X443607Y321457D01*
X443576Y321482D01*
X443549Y321501D01*
X443532Y321518D01*
X443518Y321529D01*
X443515Y321532D01*
Y320033D01*
X443280D01*
Y321958D01*
X443432D01*
X443460Y321911D01*
D02*
G37*
G36*
X442053Y321956D02*
X442105Y321950D01*
X442155Y321939D01*
X442202Y321925D01*
X442244Y321906D01*
X442285Y321889D01*
X442321Y321867D01*
X442355Y321848D01*
X442382Y321828D01*
X442410Y321806D01*
X442432Y321789D01*
X442449Y321773D01*
X442463Y321756D01*
X442474Y321745D01*
X442479Y321740D01*
X442482Y321737D01*
X442518Y321687D01*
X442549Y321629D01*
X442576Y321568D01*
X442601Y321504D01*
X442621Y321438D01*
X442637Y321371D01*
X442651Y321302D01*
X442662Y321238D01*
X442670Y321174D01*
X442676Y321116D01*
X442682Y321064D01*
X442684Y321019D01*
Y320981D01*
X442687Y320953D01*
Y320942D01*
Y320933D01*
Y320931D01*
Y320928D01*
X442684Y320839D01*
X442679Y320756D01*
X442670Y320679D01*
X442657Y320607D01*
X442643Y320543D01*
X442629Y320485D01*
X442612Y320432D01*
X442593Y320385D01*
X442576Y320346D01*
X442560Y320310D01*
X442546Y320283D01*
X442529Y320258D01*
X442518Y320238D01*
X442510Y320227D01*
X442504Y320219D01*
X442501Y320216D01*
X442465Y320177D01*
X442427Y320144D01*
X442388Y320116D01*
X442349Y320091D01*
X442308Y320069D01*
X442269Y320053D01*
X442230Y320039D01*
X442191Y320028D01*
X442158Y320019D01*
X442125Y320011D01*
X442097Y320005D01*
X442072Y320003D01*
X442050D01*
X442036Y320000D01*
X442022D01*
X441959Y320003D01*
X441900Y320014D01*
X441848Y320025D01*
X441801Y320041D01*
X441765Y320055D01*
X441737Y320069D01*
X441726Y320072D01*
X441718Y320077D01*
X441715Y320080D01*
X441712D01*
X441665Y320113D01*
X441621Y320152D01*
X441585Y320191D01*
X441554Y320230D01*
X441529Y320266D01*
X441513Y320294D01*
X441507Y320305D01*
X441502Y320313D01*
X441499Y320316D01*
Y320319D01*
X441471Y320377D01*
X441452Y320438D01*
X441438Y320493D01*
X441430Y320546D01*
X441421Y320590D01*
Y320607D01*
X441419Y320623D01*
Y320637D01*
Y320645D01*
Y320651D01*
Y320654D01*
X441421Y320704D01*
X441427Y320751D01*
X441435Y320798D01*
X441443Y320839D01*
X441457Y320878D01*
X441471Y320917D01*
X441485Y320950D01*
X441502Y320981D01*
X441518Y321008D01*
X441532Y321033D01*
X441546Y321053D01*
X441560Y321072D01*
X441568Y321086D01*
X441576Y321094D01*
X441582Y321100D01*
X441585Y321102D01*
X441615Y321133D01*
X441648Y321161D01*
X441684Y321183D01*
X441718Y321202D01*
X441751Y321221D01*
X441784Y321235D01*
X441848Y321255D01*
X441876Y321263D01*
X441903Y321269D01*
X441925Y321271D01*
X441948Y321274D01*
X441964Y321277D01*
X441986D01*
X442036Y321274D01*
X442083Y321266D01*
X442128Y321257D01*
X442166Y321247D01*
X442200Y321233D01*
X442225Y321224D01*
X442241Y321216D01*
X442244Y321213D01*
X442247D01*
X442291Y321185D01*
X442330Y321155D01*
X442366Y321125D01*
X442393Y321091D01*
X442418Y321064D01*
X442438Y321041D01*
X442449Y321025D01*
X442452Y321022D01*
Y321072D01*
X442449Y321122D01*
X442446Y321166D01*
X442441Y321210D01*
X442438Y321249D01*
X442432Y321285D01*
X442427Y321319D01*
X442418Y321349D01*
X442413Y321377D01*
X442407Y321399D01*
X442402Y321418D01*
X442399Y321435D01*
X442393Y321446D01*
X442391Y321454D01*
X442388Y321460D01*
Y321462D01*
X442360Y321518D01*
X442333Y321568D01*
X442302Y321607D01*
X442274Y321640D01*
X442249Y321668D01*
X442230Y321687D01*
X442216Y321698D01*
X442211Y321701D01*
X442177Y321723D01*
X442144Y321737D01*
X442111Y321748D01*
X442078Y321756D01*
X442053Y321762D01*
X442031Y321764D01*
X442011D01*
X441961Y321759D01*
X441914Y321748D01*
X441876Y321731D01*
X441840Y321715D01*
X441812Y321695D01*
X441792Y321679D01*
X441781Y321668D01*
X441776Y321662D01*
X441756Y321637D01*
X441737Y321607D01*
X441720Y321573D01*
X441709Y321540D01*
X441698Y321510D01*
X441690Y321485D01*
X441687Y321468D01*
X441684Y321465D01*
Y321462D01*
X441449Y321482D01*
X441466Y321560D01*
X441491Y321629D01*
X441518Y321690D01*
X441549Y321740D01*
X441579Y321778D01*
X441590Y321795D01*
X441604Y321809D01*
X441612Y321817D01*
X441621Y321825D01*
X441623Y321828D01*
X441626Y321831D01*
X441654Y321853D01*
X441684Y321872D01*
X441745Y321906D01*
X441806Y321928D01*
X441864Y321942D01*
X441917Y321953D01*
X441939Y321956D01*
X441959D01*
X441975Y321958D01*
X441997D01*
X442053Y321956D01*
D02*
G37*
G36*
X446000Y320033D02*
X445745D01*
Y320884D01*
X445418D01*
X445388Y320881D01*
X445366D01*
X445346Y320878D01*
X445332Y320875D01*
X445321D01*
X445316Y320872D01*
X445313D01*
X445269Y320859D01*
X445249Y320850D01*
X445233Y320842D01*
X445216Y320834D01*
X445205Y320828D01*
X445199Y320825D01*
X445197Y320823D01*
X445175Y320806D01*
X445152Y320787D01*
X445111Y320745D01*
X445091Y320726D01*
X445078Y320709D01*
X445069Y320698D01*
X445067Y320695D01*
X445039Y320656D01*
X445008Y320615D01*
X444978Y320571D01*
X444947Y320529D01*
X444922Y320490D01*
X444903Y320460D01*
X444895Y320449D01*
X444889Y320440D01*
X444884Y320435D01*
Y320432D01*
X444632Y320033D01*
X444316D01*
X444646Y320554D01*
X444684Y320609D01*
X444720Y320659D01*
X444756Y320701D01*
X444787Y320740D01*
X444814Y320767D01*
X444837Y320789D01*
X444850Y320803D01*
X444856Y320809D01*
X444878Y320825D01*
X444903Y320845D01*
X444953Y320875D01*
X444975Y320886D01*
X444992Y320897D01*
X445003Y320903D01*
X445008Y320906D01*
X444958Y320914D01*
X444911Y320922D01*
X444870Y320936D01*
X444828Y320947D01*
X444792Y320961D01*
X444759Y320978D01*
X444729Y320992D01*
X444701Y321006D01*
X444679Y321022D01*
X444657Y321036D01*
X444640Y321047D01*
X444626Y321058D01*
X444615Y321066D01*
X444607Y321075D01*
X444604Y321077D01*
X444601Y321080D01*
X444579Y321108D01*
X444557Y321136D01*
X444524Y321194D01*
X444501Y321252D01*
X444485Y321307D01*
X444474Y321355D01*
X444471Y321374D01*
Y321393D01*
X444468Y321407D01*
Y321418D01*
Y321424D01*
Y321427D01*
X444471Y321485D01*
X444479Y321537D01*
X444493Y321587D01*
X444507Y321629D01*
X444524Y321665D01*
X444535Y321692D01*
X444546Y321709D01*
X444549Y321712D01*
Y321715D01*
X444582Y321759D01*
X444615Y321798D01*
X444651Y321831D01*
X444684Y321856D01*
X444715Y321875D01*
X444740Y321886D01*
X444756Y321895D01*
X444759Y321897D01*
X444762D01*
X444787Y321906D01*
X444817Y321914D01*
X444878Y321928D01*
X444945Y321936D01*
X445006Y321944D01*
X445064Y321947D01*
X445089D01*
X445111Y321950D01*
X446000D01*
Y320033D01*
D02*
G37*
G36*
X593094Y373994D02*
X593191Y373983D01*
X593277Y373970D01*
X593319Y373958D01*
X593355Y373950D01*
X593388Y373942D01*
X593418Y373931D01*
X593446Y373922D01*
X593468Y373917D01*
X593485Y373909D01*
X593499Y373906D01*
X593507Y373900D01*
X593510D01*
X593593Y373859D01*
X593668Y373812D01*
X593731Y373762D01*
X593756Y373737D01*
X593781Y373715D01*
X593803Y373693D01*
X593823Y373670D01*
X593839Y373651D01*
X593851Y373634D01*
X593861Y373623D01*
X593870Y373612D01*
X593873Y373607D01*
X593875Y373604D01*
X593897Y373565D01*
X593917Y373526D01*
X593947Y373443D01*
X593970Y373360D01*
X593983Y373280D01*
X593989Y373241D01*
X593995Y373208D01*
X593997Y373177D01*
Y373152D01*
X594000Y373130D01*
Y373100D01*
X593997Y373044D01*
X593992Y372992D01*
X593986Y372942D01*
X593975Y372895D01*
X593961Y372850D01*
X593947Y372809D01*
X593934Y372770D01*
X593917Y372734D01*
X593903Y372704D01*
X593889Y372673D01*
X593875Y372651D01*
X593861Y372629D01*
X593851Y372615D01*
X593845Y372601D01*
X593839Y372596D01*
X593837Y372593D01*
X593803Y372554D01*
X593770Y372521D01*
X593731Y372490D01*
X593693Y372460D01*
X593615Y372410D01*
X593537Y372371D01*
X593501Y372355D01*
X593468Y372341D01*
X593438Y372330D01*
X593413Y372321D01*
X593391Y372313D01*
X593374Y372308D01*
X593363Y372305D01*
X593360D01*
X593296Y372560D01*
X593341Y372571D01*
X593382Y372585D01*
X593421Y372598D01*
X593457Y372612D01*
X593490Y372629D01*
X593518Y372645D01*
X593546Y372665D01*
X593571Y372681D01*
X593593Y372695D01*
X593610Y372712D01*
X593626Y372726D01*
X593640Y372737D01*
X593648Y372748D01*
X593656Y372756D01*
X593659Y372759D01*
X593662Y372762D01*
X593684Y372790D01*
X593701Y372820D01*
X593731Y372881D01*
X593753Y372939D01*
X593767Y372997D01*
X593778Y373047D01*
X593781Y373067D01*
Y373086D01*
X593784Y373103D01*
Y373122D01*
X593781Y373186D01*
X593770Y373247D01*
X593756Y373302D01*
X593740Y373352D01*
X593723Y373391D01*
X593715Y373407D01*
X593709Y373421D01*
X593704Y373432D01*
X593698Y373441D01*
X593695Y373446D01*
Y373449D01*
X593656Y373501D01*
X593615Y373546D01*
X593568Y373585D01*
X593524Y373615D01*
X593485Y373640D01*
X593452Y373657D01*
X593438Y373662D01*
X593429Y373668D01*
X593424Y373670D01*
X593421D01*
X593349Y373693D01*
X593277Y373709D01*
X593205Y373723D01*
X593139Y373731D01*
X593108Y373734D01*
X593080Y373737D01*
X593055D01*
X593036Y373740D01*
X593019D01*
X593006D01*
X592997D01*
X592994D01*
X592922Y373737D01*
X592856Y373731D01*
X592795Y373720D01*
X592740Y373709D01*
X592693Y373701D01*
X592673Y373695D01*
X592657Y373690D01*
X592643Y373687D01*
X592634Y373684D01*
X592629Y373681D01*
X592626D01*
X592562Y373654D01*
X592504Y373623D01*
X592457Y373590D01*
X592416Y373554D01*
X592382Y373524D01*
X592360Y373499D01*
X592346Y373479D01*
X592341Y373477D01*
Y373474D01*
X592305Y373416D01*
X592277Y373352D01*
X592258Y373291D01*
X592247Y373233D01*
X592238Y373180D01*
X592236Y373158D01*
Y373139D01*
X592233Y373125D01*
Y373103D01*
X592236Y373033D01*
X592247Y372970D01*
X592263Y372917D01*
X592280Y372870D01*
X592299Y372834D01*
X592313Y372806D01*
X592324Y372790D01*
X592330Y372784D01*
X592371Y372740D01*
X592418Y372698D01*
X592468Y372665D01*
X592518Y372637D01*
X592562Y372615D01*
X592585Y372607D01*
X592601Y372601D01*
X592615Y372596D01*
X592626Y372590D01*
X592632Y372587D01*
X592634D01*
X592576Y372338D01*
X592526Y372355D01*
X592482Y372371D01*
X592441Y372393D01*
X592399Y372413D01*
X592363Y372435D01*
X592330Y372460D01*
X592297Y372482D01*
X592269Y372504D01*
X592247Y372526D01*
X592225Y372546D01*
X592205Y372565D01*
X592191Y372579D01*
X592177Y372593D01*
X592169Y372604D01*
X592166Y372609D01*
X592164Y372612D01*
X592139Y372651D01*
X592114Y372690D01*
X592094Y372729D01*
X592078Y372770D01*
X592053Y372853D01*
X592036Y372928D01*
X592028Y372964D01*
X592025Y372994D01*
X592022Y373025D01*
X592020Y373050D01*
X592017Y373069D01*
Y373097D01*
X592022Y373188D01*
X592036Y373277D01*
X592053Y373355D01*
X592064Y373391D01*
X592075Y373424D01*
X592086Y373454D01*
X592097Y373482D01*
X592105Y373504D01*
X592114Y373526D01*
X592122Y373540D01*
X592128Y373551D01*
X592130Y373560D01*
X592133Y373562D01*
X592180Y373637D01*
X592236Y373701D01*
X592291Y373756D01*
X592346Y373803D01*
X592396Y373839D01*
X592418Y373853D01*
X592438Y373864D01*
X592452Y373875D01*
X592463Y373881D01*
X592471Y373884D01*
X592474Y373886D01*
X592560Y373925D01*
X592648Y373953D01*
X592737Y373972D01*
X592817Y373986D01*
X592853Y373992D01*
X592889Y373994D01*
X592917Y373997D01*
X592945D01*
X592964Y374000D01*
X592981D01*
X592992D01*
X592994D01*
X593094Y373994D01*
D02*
G37*
G36*
X593161Y372097D02*
X593244Y372092D01*
X593321Y372083D01*
X593393Y372069D01*
X593457Y372056D01*
X593515Y372042D01*
X593568Y372025D01*
X593615Y372006D01*
X593654Y371989D01*
X593690Y371972D01*
X593717Y371959D01*
X593742Y371942D01*
X593762Y371931D01*
X593773Y371923D01*
X593781Y371917D01*
X593784Y371914D01*
X593823Y371878D01*
X593856Y371839D01*
X593884Y371801D01*
X593909Y371762D01*
X593931Y371720D01*
X593947Y371682D01*
X593961Y371643D01*
X593972Y371604D01*
X593981Y371571D01*
X593989Y371537D01*
X593995Y371510D01*
X593997Y371485D01*
Y371463D01*
X594000Y371449D01*
Y371435D01*
X593997Y371371D01*
X593986Y371313D01*
X593975Y371260D01*
X593959Y371213D01*
X593945Y371177D01*
X593931Y371150D01*
X593928Y371139D01*
X593923Y371130D01*
X593920Y371128D01*
Y371125D01*
X593887Y371078D01*
X593848Y371033D01*
X593809Y370997D01*
X593770Y370967D01*
X593734Y370942D01*
X593706Y370925D01*
X593695Y370920D01*
X593687Y370914D01*
X593684Y370912D01*
X593681D01*
X593623Y370884D01*
X593562Y370864D01*
X593507Y370851D01*
X593454Y370842D01*
X593410Y370834D01*
X593393D01*
X593377Y370831D01*
X593363D01*
X593355D01*
X593349D01*
X593346D01*
X593296Y370834D01*
X593249Y370840D01*
X593202Y370848D01*
X593161Y370856D01*
X593122Y370870D01*
X593083Y370884D01*
X593050Y370898D01*
X593019Y370914D01*
X592992Y370931D01*
X592967Y370945D01*
X592947Y370959D01*
X592928Y370972D01*
X592914Y370981D01*
X592906Y370989D01*
X592900Y370995D01*
X592898Y370997D01*
X592867Y371028D01*
X592839Y371061D01*
X592817Y371097D01*
X592798Y371130D01*
X592778Y371164D01*
X592765Y371197D01*
X592745Y371260D01*
X592737Y371288D01*
X592731Y371316D01*
X592729Y371338D01*
X592726Y371360D01*
X592723Y371377D01*
Y371399D01*
X592726Y371449D01*
X592734Y371496D01*
X592742Y371540D01*
X592754Y371579D01*
X592767Y371612D01*
X592776Y371637D01*
X592784Y371654D01*
X592787Y371657D01*
Y371659D01*
X592814Y371704D01*
X592845Y371743D01*
X592875Y371778D01*
X592909Y371806D01*
X592936Y371831D01*
X592958Y371850D01*
X592975Y371862D01*
X592978Y371864D01*
X592928D01*
X592878Y371862D01*
X592834Y371859D01*
X592790Y371853D01*
X592751Y371850D01*
X592715Y371845D01*
X592682Y371839D01*
X592651Y371831D01*
X592623Y371826D01*
X592601Y371820D01*
X592582Y371814D01*
X592565Y371812D01*
X592554Y371806D01*
X592546Y371803D01*
X592540Y371801D01*
X592537D01*
X592482Y371773D01*
X592432Y371745D01*
X592393Y371715D01*
X592360Y371687D01*
X592333Y371662D01*
X592313Y371643D01*
X592302Y371629D01*
X592299Y371623D01*
X592277Y371590D01*
X592263Y371557D01*
X592252Y371524D01*
X592244Y371490D01*
X592238Y371465D01*
X592236Y371443D01*
Y371424D01*
X592241Y371374D01*
X592252Y371327D01*
X592269Y371288D01*
X592285Y371252D01*
X592305Y371224D01*
X592321Y371205D01*
X592333Y371194D01*
X592338Y371188D01*
X592363Y371169D01*
X592393Y371150D01*
X592427Y371133D01*
X592460Y371122D01*
X592490Y371111D01*
X592515Y371103D01*
X592532Y371100D01*
X592535Y371097D01*
X592537D01*
X592518Y370862D01*
X592441Y370878D01*
X592371Y370903D01*
X592310Y370931D01*
X592261Y370961D01*
X592222Y370992D01*
X592205Y371003D01*
X592191Y371017D01*
X592183Y371025D01*
X592175Y371033D01*
X592172Y371036D01*
X592169Y371039D01*
X592147Y371067D01*
X592128Y371097D01*
X592094Y371158D01*
X592072Y371219D01*
X592058Y371277D01*
X592047Y371330D01*
X592044Y371352D01*
Y371371D01*
X592042Y371388D01*
Y371410D01*
X592044Y371465D01*
X592050Y371518D01*
X592061Y371568D01*
X592075Y371615D01*
X592094Y371657D01*
X592111Y371698D01*
X592133Y371734D01*
X592152Y371767D01*
X592172Y371795D01*
X592194Y371823D01*
X592211Y371845D01*
X592227Y371862D01*
X592244Y371876D01*
X592255Y371886D01*
X592261Y371892D01*
X592263Y371895D01*
X592313Y371931D01*
X592371Y371961D01*
X592432Y371989D01*
X592496Y372014D01*
X592562Y372033D01*
X592629Y372050D01*
X592698Y372064D01*
X592762Y372075D01*
X592826Y372083D01*
X592884Y372089D01*
X592936Y372094D01*
X592981Y372097D01*
X593019D01*
X593047Y372100D01*
X593058D01*
X593067D01*
X593069D01*
X593072D01*
X593161Y372097D01*
D02*
G37*
G36*
X527094Y373994D02*
X527191Y373983D01*
X527277Y373970D01*
X527319Y373958D01*
X527355Y373950D01*
X527388Y373942D01*
X527418Y373931D01*
X527446Y373922D01*
X527468Y373917D01*
X527485Y373909D01*
X527499Y373906D01*
X527507Y373900D01*
X527510D01*
X527593Y373859D01*
X527668Y373812D01*
X527731Y373762D01*
X527756Y373737D01*
X527781Y373715D01*
X527803Y373693D01*
X527823Y373670D01*
X527839Y373651D01*
X527850Y373634D01*
X527861Y373623D01*
X527870Y373612D01*
X527873Y373607D01*
X527875Y373604D01*
X527898Y373565D01*
X527917Y373526D01*
X527947Y373443D01*
X527970Y373360D01*
X527983Y373280D01*
X527989Y373241D01*
X527994Y373208D01*
X527997Y373177D01*
Y373152D01*
X528000Y373130D01*
Y373100D01*
X527997Y373044D01*
X527992Y372992D01*
X527986Y372942D01*
X527975Y372895D01*
X527961Y372850D01*
X527947Y372809D01*
X527934Y372770D01*
X527917Y372734D01*
X527903Y372704D01*
X527889Y372673D01*
X527875Y372651D01*
X527861Y372629D01*
X527850Y372615D01*
X527845Y372601D01*
X527839Y372596D01*
X527837Y372593D01*
X527803Y372554D01*
X527770Y372521D01*
X527731Y372490D01*
X527693Y372460D01*
X527615Y372410D01*
X527537Y372371D01*
X527501Y372355D01*
X527468Y372341D01*
X527438Y372330D01*
X527413Y372321D01*
X527391Y372313D01*
X527374Y372308D01*
X527363Y372305D01*
X527360D01*
X527296Y372560D01*
X527341Y372571D01*
X527382Y372585D01*
X527421Y372598D01*
X527457Y372612D01*
X527490Y372629D01*
X527518Y372645D01*
X527546Y372665D01*
X527571Y372681D01*
X527593Y372695D01*
X527609Y372712D01*
X527626Y372726D01*
X527640Y372737D01*
X527648Y372748D01*
X527657Y372756D01*
X527659Y372759D01*
X527662Y372762D01*
X527684Y372790D01*
X527701Y372820D01*
X527731Y372881D01*
X527753Y372939D01*
X527767Y372997D01*
X527778Y373047D01*
X527781Y373067D01*
Y373086D01*
X527784Y373103D01*
Y373122D01*
X527781Y373186D01*
X527770Y373247D01*
X527756Y373302D01*
X527740Y373352D01*
X527723Y373391D01*
X527715Y373407D01*
X527709Y373421D01*
X527704Y373432D01*
X527698Y373441D01*
X527695Y373446D01*
Y373449D01*
X527657Y373501D01*
X527615Y373546D01*
X527568Y373585D01*
X527524Y373615D01*
X527485Y373640D01*
X527452Y373657D01*
X527438Y373662D01*
X527429Y373668D01*
X527424Y373670D01*
X527421D01*
X527349Y373693D01*
X527277Y373709D01*
X527205Y373723D01*
X527139Y373731D01*
X527108Y373734D01*
X527080Y373737D01*
X527056D01*
X527036Y373740D01*
X527020D01*
X527006D01*
X526997D01*
X526995D01*
X526923Y373737D01*
X526856Y373731D01*
X526795Y373720D01*
X526740Y373709D01*
X526693Y373701D01*
X526673Y373695D01*
X526657Y373690D01*
X526643Y373687D01*
X526634Y373684D01*
X526629Y373681D01*
X526626D01*
X526562Y373654D01*
X526504Y373623D01*
X526457Y373590D01*
X526416Y373554D01*
X526382Y373524D01*
X526360Y373499D01*
X526346Y373479D01*
X526341Y373477D01*
Y373474D01*
X526305Y373416D01*
X526277Y373352D01*
X526258Y373291D01*
X526247Y373233D01*
X526238Y373180D01*
X526235Y373158D01*
Y373139D01*
X526233Y373125D01*
Y373103D01*
X526235Y373033D01*
X526247Y372970D01*
X526263Y372917D01*
X526280Y372870D01*
X526299Y372834D01*
X526313Y372806D01*
X526324Y372790D01*
X526330Y372784D01*
X526371Y372740D01*
X526418Y372698D01*
X526468Y372665D01*
X526518Y372637D01*
X526562Y372615D01*
X526585Y372607D01*
X526601Y372601D01*
X526615Y372596D01*
X526626Y372590D01*
X526632Y372587D01*
X526634D01*
X526576Y372338D01*
X526526Y372355D01*
X526482Y372371D01*
X526440Y372393D01*
X526399Y372413D01*
X526363Y372435D01*
X526330Y372460D01*
X526297Y372482D01*
X526269Y372504D01*
X526247Y372526D01*
X526225Y372546D01*
X526205Y372565D01*
X526191Y372579D01*
X526177Y372593D01*
X526169Y372604D01*
X526166Y372609D01*
X526163Y372612D01*
X526139Y372651D01*
X526114Y372690D01*
X526094Y372729D01*
X526078Y372770D01*
X526053Y372853D01*
X526036Y372928D01*
X526028Y372964D01*
X526025Y372994D01*
X526022Y373025D01*
X526019Y373050D01*
X526017Y373069D01*
Y373097D01*
X526022Y373188D01*
X526036Y373277D01*
X526053Y373355D01*
X526064Y373391D01*
X526075Y373424D01*
X526086Y373454D01*
X526097Y373482D01*
X526105Y373504D01*
X526114Y373526D01*
X526122Y373540D01*
X526127Y373551D01*
X526130Y373560D01*
X526133Y373562D01*
X526180Y373637D01*
X526235Y373701D01*
X526291Y373756D01*
X526346Y373803D01*
X526396Y373839D01*
X526418Y373853D01*
X526438Y373864D01*
X526452Y373875D01*
X526463Y373881D01*
X526471Y373884D01*
X526474Y373886D01*
X526560Y373925D01*
X526648Y373953D01*
X526737Y373972D01*
X526817Y373986D01*
X526853Y373992D01*
X526889Y373994D01*
X526917Y373997D01*
X526945D01*
X526964Y374000D01*
X526981D01*
X526992D01*
X526995D01*
X527094Y373994D01*
D02*
G37*
G36*
X527510Y372083D02*
X527551Y372075D01*
X527629Y372050D01*
X527695Y372020D01*
X527726Y372003D01*
X527751Y371986D01*
X527776Y371972D01*
X527798Y371956D01*
X527814Y371942D01*
X527828Y371928D01*
X527839Y371917D01*
X527850Y371912D01*
X527853Y371906D01*
X527856Y371903D01*
X527881Y371870D01*
X527903Y371837D01*
X527922Y371801D01*
X527939Y371765D01*
X527964Y371695D01*
X527981Y371626D01*
X527989Y371596D01*
X527992Y371565D01*
X527994Y371540D01*
X527997Y371518D01*
X528000Y371499D01*
Y371474D01*
X527997Y371416D01*
X527989Y371360D01*
X527978Y371308D01*
X527964Y371260D01*
X527945Y371216D01*
X527925Y371175D01*
X527906Y371136D01*
X527884Y371103D01*
X527861Y371072D01*
X527842Y371044D01*
X527820Y371022D01*
X527803Y371003D01*
X527789Y370989D01*
X527778Y370978D01*
X527770Y370972D01*
X527767Y370970D01*
X527731Y370942D01*
X527693Y370920D01*
X527657Y370898D01*
X527618Y370881D01*
X527543Y370853D01*
X527471Y370837D01*
X527441Y370831D01*
X527410Y370826D01*
X527385Y370823D01*
X527363Y370820D01*
X527344Y370817D01*
X527330D01*
X527321D01*
X527319D01*
X527269Y370820D01*
X527222Y370826D01*
X527175Y370834D01*
X527133Y370845D01*
X527094Y370859D01*
X527056Y370873D01*
X527022Y370889D01*
X526992Y370903D01*
X526964Y370920D01*
X526939Y370936D01*
X526920Y370950D01*
X526900Y370964D01*
X526887Y370975D01*
X526878Y370984D01*
X526873Y370989D01*
X526870Y370992D01*
X526839Y371025D01*
X526812Y371058D01*
X526790Y371094D01*
X526770Y371130D01*
X526751Y371166D01*
X526737Y371202D01*
X526718Y371269D01*
X526709Y371299D01*
X526704Y371327D01*
X526701Y371352D01*
X526698Y371374D01*
X526695Y371391D01*
Y371452D01*
X526701Y371485D01*
X526715Y371551D01*
X526734Y371612D01*
X526756Y371668D01*
X526779Y371712D01*
X526790Y371731D01*
X526798Y371748D01*
X526806Y371762D01*
X526812Y371770D01*
X526815Y371776D01*
X526817Y371778D01*
X526299Y371676D01*
Y370909D01*
X526075D01*
Y371862D01*
X527061Y372047D01*
X527092Y371826D01*
X527061Y371806D01*
X527036Y371781D01*
X527011Y371759D01*
X526992Y371737D01*
X526978Y371715D01*
X526964Y371698D01*
X526959Y371687D01*
X526956Y371684D01*
X526939Y371648D01*
X526925Y371612D01*
X526917Y371579D01*
X526909Y371546D01*
X526906Y371518D01*
X526903Y371496D01*
Y371443D01*
X526909Y371410D01*
X526923Y371352D01*
X526942Y371302D01*
X526961Y371258D01*
X526983Y371224D01*
X527003Y371200D01*
X527017Y371186D01*
X527020Y371180D01*
X527022D01*
X527069Y371141D01*
X527119Y371114D01*
X527172Y371094D01*
X527224Y371080D01*
X527269Y371072D01*
X527288Y371069D01*
X527305D01*
X527319Y371067D01*
X527330D01*
X527335D01*
X527338D01*
X527377D01*
X527413Y371072D01*
X527482Y371086D01*
X527540Y371105D01*
X527587Y371125D01*
X527626Y371147D01*
X527657Y371166D01*
X527665Y371175D01*
X527673Y371180D01*
X527676Y371183D01*
X527679Y371186D01*
X527701Y371208D01*
X527720Y371230D01*
X527753Y371280D01*
X527776Y371327D01*
X527789Y371374D01*
X527801Y371413D01*
X527803Y371446D01*
X527806Y371457D01*
Y371474D01*
X527803Y371526D01*
X527792Y371573D01*
X527778Y371615D01*
X527762Y371648D01*
X527745Y371679D01*
X527731Y371701D01*
X527720Y371712D01*
X527717Y371718D01*
X527679Y371751D01*
X527637Y371778D01*
X527590Y371801D01*
X527549Y371817D01*
X527507Y371828D01*
X527477Y371837D01*
X527463Y371839D01*
X527454Y371842D01*
X527449D01*
X527446D01*
X527465Y372089D01*
X527510Y372083D01*
D02*
G37*
G36*
X459094Y373994D02*
X459191Y373983D01*
X459277Y373970D01*
X459319Y373958D01*
X459355Y373950D01*
X459388Y373942D01*
X459418Y373931D01*
X459446Y373922D01*
X459468Y373917D01*
X459485Y373909D01*
X459499Y373906D01*
X459507Y373900D01*
X459510D01*
X459593Y373859D01*
X459668Y373812D01*
X459731Y373762D01*
X459756Y373737D01*
X459781Y373715D01*
X459803Y373693D01*
X459823Y373670D01*
X459839Y373651D01*
X459851Y373634D01*
X459862Y373623D01*
X459870Y373612D01*
X459873Y373607D01*
X459875Y373604D01*
X459898Y373565D01*
X459917Y373526D01*
X459947Y373443D01*
X459970Y373360D01*
X459983Y373280D01*
X459989Y373241D01*
X459995Y373208D01*
X459997Y373177D01*
Y373152D01*
X460000Y373130D01*
Y373100D01*
X459997Y373044D01*
X459992Y372992D01*
X459986Y372942D01*
X459975Y372895D01*
X459961Y372850D01*
X459947Y372809D01*
X459934Y372770D01*
X459917Y372734D01*
X459903Y372704D01*
X459889Y372673D01*
X459875Y372651D01*
X459862Y372629D01*
X459851Y372615D01*
X459845Y372601D01*
X459839Y372596D01*
X459837Y372593D01*
X459803Y372554D01*
X459770Y372521D01*
X459731Y372490D01*
X459693Y372460D01*
X459615Y372410D01*
X459537Y372371D01*
X459501Y372355D01*
X459468Y372341D01*
X459438Y372330D01*
X459413Y372321D01*
X459391Y372313D01*
X459374Y372308D01*
X459363Y372305D01*
X459360D01*
X459297Y372560D01*
X459341Y372571D01*
X459382Y372585D01*
X459421Y372598D01*
X459457Y372612D01*
X459490Y372629D01*
X459518Y372645D01*
X459546Y372665D01*
X459571Y372681D01*
X459593Y372695D01*
X459610Y372712D01*
X459626Y372726D01*
X459640Y372737D01*
X459648Y372748D01*
X459657Y372756D01*
X459659Y372759D01*
X459662Y372762D01*
X459684Y372790D01*
X459701Y372820D01*
X459731Y372881D01*
X459754Y372939D01*
X459767Y372997D01*
X459778Y373047D01*
X459781Y373067D01*
Y373086D01*
X459784Y373103D01*
Y373122D01*
X459781Y373186D01*
X459770Y373247D01*
X459756Y373302D01*
X459740Y373352D01*
X459723Y373391D01*
X459715Y373407D01*
X459709Y373421D01*
X459704Y373432D01*
X459698Y373441D01*
X459695Y373446D01*
Y373449D01*
X459657Y373501D01*
X459615Y373546D01*
X459568Y373585D01*
X459524Y373615D01*
X459485Y373640D01*
X459452Y373657D01*
X459438Y373662D01*
X459429Y373668D01*
X459424Y373670D01*
X459421D01*
X459349Y373693D01*
X459277Y373709D01*
X459205Y373723D01*
X459139Y373731D01*
X459108Y373734D01*
X459080Y373737D01*
X459056D01*
X459036Y373740D01*
X459020D01*
X459006D01*
X458997D01*
X458994D01*
X458922Y373737D01*
X458856Y373731D01*
X458795Y373720D01*
X458740Y373709D01*
X458693Y373701D01*
X458673Y373695D01*
X458657Y373690D01*
X458643Y373687D01*
X458634Y373684D01*
X458629Y373681D01*
X458626D01*
X458562Y373654D01*
X458504Y373623D01*
X458457Y373590D01*
X458416Y373554D01*
X458382Y373524D01*
X458360Y373499D01*
X458346Y373479D01*
X458341Y373477D01*
Y373474D01*
X458305Y373416D01*
X458277Y373352D01*
X458258Y373291D01*
X458247Y373233D01*
X458238Y373180D01*
X458236Y373158D01*
Y373139D01*
X458233Y373125D01*
Y373103D01*
X458236Y373033D01*
X458247Y372970D01*
X458263Y372917D01*
X458280Y372870D01*
X458299Y372834D01*
X458313Y372806D01*
X458324Y372790D01*
X458330Y372784D01*
X458371Y372740D01*
X458418Y372698D01*
X458468Y372665D01*
X458518Y372637D01*
X458562Y372615D01*
X458585Y372607D01*
X458601Y372601D01*
X458615Y372596D01*
X458626Y372590D01*
X458632Y372587D01*
X458634D01*
X458576Y372338D01*
X458526Y372355D01*
X458482Y372371D01*
X458440Y372393D01*
X458399Y372413D01*
X458363Y372435D01*
X458330Y372460D01*
X458296Y372482D01*
X458269Y372504D01*
X458247Y372526D01*
X458224Y372546D01*
X458205Y372565D01*
X458191Y372579D01*
X458177Y372593D01*
X458169Y372604D01*
X458166Y372609D01*
X458163Y372612D01*
X458139Y372651D01*
X458114Y372690D01*
X458094Y372729D01*
X458078Y372770D01*
X458053Y372853D01*
X458036Y372928D01*
X458028Y372964D01*
X458025Y372994D01*
X458022Y373025D01*
X458019Y373050D01*
X458017Y373069D01*
Y373097D01*
X458022Y373188D01*
X458036Y373277D01*
X458053Y373355D01*
X458064Y373391D01*
X458075Y373424D01*
X458086Y373454D01*
X458097Y373482D01*
X458105Y373504D01*
X458114Y373526D01*
X458122Y373540D01*
X458127Y373551D01*
X458130Y373560D01*
X458133Y373562D01*
X458180Y373637D01*
X458236Y373701D01*
X458291Y373756D01*
X458346Y373803D01*
X458396Y373839D01*
X458418Y373853D01*
X458438Y373864D01*
X458452Y373875D01*
X458463Y373881D01*
X458471Y373884D01*
X458474Y373886D01*
X458560Y373925D01*
X458648Y373953D01*
X458737Y373972D01*
X458817Y373986D01*
X458853Y373992D01*
X458889Y373994D01*
X458917Y373997D01*
X458945D01*
X458964Y374000D01*
X458981D01*
X458992D01*
X458994D01*
X459094Y373994D01*
D02*
G37*
G36*
X459507Y371335D02*
X459967D01*
Y371100D01*
X459507D01*
Y370840D01*
X459291D01*
Y371100D01*
X458050D01*
Y371291D01*
X459291Y372169D01*
X459507D01*
Y371335D01*
D02*
G37*
G36*
X583967Y373745D02*
X583116D01*
Y373418D01*
X583119Y373388D01*
Y373366D01*
X583122Y373346D01*
X583125Y373333D01*
Y373321D01*
X583127Y373316D01*
Y373313D01*
X583141Y373269D01*
X583150Y373249D01*
X583158Y373233D01*
X583166Y373216D01*
X583172Y373205D01*
X583175Y373200D01*
X583177Y373197D01*
X583194Y373175D01*
X583213Y373152D01*
X583255Y373111D01*
X583274Y373092D01*
X583291Y373078D01*
X583302Y373069D01*
X583305Y373067D01*
X583344Y373039D01*
X583385Y373008D01*
X583429Y372978D01*
X583471Y372947D01*
X583510Y372922D01*
X583540Y372903D01*
X583551Y372895D01*
X583560Y372889D01*
X583565Y372884D01*
X583568D01*
X583967Y372632D01*
Y372316D01*
X583446Y372645D01*
X583391Y372684D01*
X583341Y372720D01*
X583299Y372756D01*
X583260Y372787D01*
X583233Y372814D01*
X583211Y372837D01*
X583197Y372850D01*
X583191Y372856D01*
X583175Y372878D01*
X583155Y372903D01*
X583125Y372953D01*
X583114Y372975D01*
X583103Y372992D01*
X583097Y373003D01*
X583094Y373008D01*
X583086Y372958D01*
X583078Y372911D01*
X583064Y372870D01*
X583053Y372828D01*
X583039Y372792D01*
X583022Y372759D01*
X583008Y372729D01*
X582995Y372701D01*
X582978Y372679D01*
X582964Y372657D01*
X582953Y372640D01*
X582942Y372626D01*
X582934Y372615D01*
X582925Y372607D01*
X582923Y372604D01*
X582920Y372601D01*
X582892Y372579D01*
X582864Y372557D01*
X582806Y372524D01*
X582748Y372501D01*
X582693Y372485D01*
X582646Y372474D01*
X582626Y372471D01*
X582607D01*
X582593Y372468D01*
X582582D01*
X582576D01*
X582574D01*
X582515Y372471D01*
X582463Y372479D01*
X582413Y372493D01*
X582371Y372507D01*
X582335Y372524D01*
X582308Y372535D01*
X582291Y372546D01*
X582288Y372549D01*
X582285D01*
X582241Y372582D01*
X582202Y372615D01*
X582169Y372651D01*
X582144Y372684D01*
X582125Y372715D01*
X582114Y372740D01*
X582105Y372756D01*
X582103Y372759D01*
Y372762D01*
X582094Y372787D01*
X582086Y372817D01*
X582072Y372878D01*
X582064Y372945D01*
X582056Y373006D01*
X582053Y373064D01*
Y373089D01*
X582050Y373111D01*
Y374000D01*
X583967D01*
Y373745D01*
D02*
G37*
G36*
X582734Y371945D02*
X582715Y371903D01*
X582695Y371862D01*
X582676Y371823D01*
X582659Y371790D01*
X582646Y371762D01*
X582634Y371745D01*
X582632Y371743D01*
Y371740D01*
X582601Y371690D01*
X582571Y371646D01*
X582543Y371607D01*
X582518Y371576D01*
X582499Y371549D01*
X582482Y371532D01*
X582471Y371518D01*
X582468Y371515D01*
X583967D01*
Y371280D01*
X582042D01*
Y371432D01*
X582089Y371460D01*
X582133Y371490D01*
X582177Y371526D01*
X582216Y371560D01*
X582249Y371593D01*
X582277Y371618D01*
X582285Y371629D01*
X582294Y371637D01*
X582297Y371640D01*
X582299Y371643D01*
X582346Y371701D01*
X582391Y371759D01*
X582430Y371814D01*
X582460Y371870D01*
X582488Y371917D01*
X582499Y371936D01*
X582507Y371953D01*
X582515Y371967D01*
X582518Y371978D01*
X582524Y371984D01*
Y371986D01*
X582751D01*
X582734Y371945D01*
D02*
G37*
G36*
X583460Y370676D02*
X583504Y370671D01*
X583546Y370662D01*
X583587Y370651D01*
X583657Y370623D01*
X583690Y370610D01*
X583717Y370593D01*
X583745Y370576D01*
X583767Y370563D01*
X583787Y370546D01*
X583803Y370535D01*
X583817Y370524D01*
X583825Y370515D01*
X583831Y370510D01*
X583834Y370507D01*
X583864Y370474D01*
X583889Y370438D01*
X583911Y370399D01*
X583931Y370360D01*
X583945Y370324D01*
X583958Y370286D01*
X583978Y370211D01*
X583986Y370177D01*
X583992Y370147D01*
X583994Y370119D01*
X583997Y370094D01*
X584000Y370075D01*
Y370047D01*
X583997Y369995D01*
X583992Y369948D01*
X583983Y369900D01*
X583975Y369856D01*
X583961Y369817D01*
X583947Y369779D01*
X583934Y369743D01*
X583917Y369712D01*
X583900Y369684D01*
X583886Y369659D01*
X583873Y369640D01*
X583859Y369621D01*
X583850Y369607D01*
X583842Y369599D01*
X583837Y369593D01*
X583834Y369590D01*
X583801Y369560D01*
X583767Y369532D01*
X583734Y369510D01*
X583698Y369491D01*
X583665Y369471D01*
X583629Y369457D01*
X583565Y369438D01*
X583535Y369430D01*
X583507Y369424D01*
X583482Y369421D01*
X583463Y369419D01*
X583446Y369416D01*
X583432D01*
X583424D01*
X583421D01*
X583357Y369419D01*
X583299Y369430D01*
X583247Y369446D01*
X583202Y369463D01*
X583166Y369479D01*
X583139Y369496D01*
X583122Y369507D01*
X583119Y369510D01*
X583116D01*
X583072Y369549D01*
X583033Y369590D01*
X583003Y369635D01*
X582975Y369676D01*
X582956Y369715D01*
X582942Y369748D01*
X582936Y369759D01*
X582934Y369767D01*
X582931Y369773D01*
Y369776D01*
X582909Y369726D01*
X582884Y369684D01*
X582859Y369648D01*
X582834Y369618D01*
X582812Y369596D01*
X582795Y369579D01*
X582784Y369568D01*
X582779Y369565D01*
X582740Y369540D01*
X582701Y369524D01*
X582662Y369510D01*
X582623Y369502D01*
X582593Y369496D01*
X582568Y369493D01*
X582551D01*
X582549D01*
X582546D01*
X582507Y369496D01*
X582471Y369499D01*
X582402Y369518D01*
X582341Y369543D01*
X582288Y369571D01*
X582247Y369599D01*
X582230Y369612D01*
X582213Y369623D01*
X582202Y369635D01*
X582194Y369643D01*
X582191Y369646D01*
X582189Y369648D01*
X582163Y369679D01*
X582139Y369709D01*
X582119Y369743D01*
X582103Y369776D01*
X582078Y369842D01*
X582061Y369909D01*
X582053Y369936D01*
X582050Y369964D01*
X582047Y369989D01*
X582044Y370011D01*
X582042Y370028D01*
Y370053D01*
X582044Y370097D01*
X582047Y370141D01*
X582064Y370219D01*
X582075Y370255D01*
X582086Y370288D01*
X582100Y370319D01*
X582114Y370346D01*
X582128Y370369D01*
X582141Y370391D01*
X582153Y370410D01*
X582163Y370424D01*
X582172Y370435D01*
X582180Y370443D01*
X582183Y370449D01*
X582186Y370452D01*
X582213Y370477D01*
X582241Y370501D01*
X582272Y370521D01*
X582302Y370538D01*
X582360Y370565D01*
X582416Y370582D01*
X582463Y370593D01*
X582485Y370596D01*
X582502Y370599D01*
X582518Y370601D01*
X582529D01*
X582535D01*
X582538D01*
X582587Y370599D01*
X582634Y370590D01*
X582676Y370579D01*
X582712Y370565D01*
X582740Y370554D01*
X582762Y370543D01*
X582773Y370535D01*
X582779Y370532D01*
X582812Y370501D01*
X582842Y370468D01*
X582870Y370432D01*
X582892Y370396D01*
X582909Y370363D01*
X582920Y370338D01*
X582925Y370327D01*
X582928Y370319D01*
X582931Y370316D01*
Y370313D01*
X582950Y370377D01*
X582975Y370429D01*
X583006Y370477D01*
X583033Y370515D01*
X583061Y370546D01*
X583083Y370568D01*
X583097Y370579D01*
X583100Y370585D01*
X583103D01*
X583152Y370615D01*
X583205Y370640D01*
X583255Y370657D01*
X583305Y370668D01*
X583349Y370673D01*
X583368Y370676D01*
X583385D01*
X583396Y370679D01*
X583407D01*
X583413D01*
X583416D01*
X583460Y370676D01*
D02*
G37*
G36*
X450000Y373745D02*
X449150D01*
Y373418D01*
X449152Y373388D01*
Y373366D01*
X449155Y373346D01*
X449158Y373333D01*
Y373321D01*
X449161Y373316D01*
Y373313D01*
X449175Y373269D01*
X449183Y373249D01*
X449191Y373233D01*
X449199Y373216D01*
X449205Y373205D01*
X449208Y373200D01*
X449211Y373197D01*
X449227Y373175D01*
X449247Y373152D01*
X449288Y373111D01*
X449307Y373092D01*
X449324Y373078D01*
X449335Y373069D01*
X449338Y373067D01*
X449377Y373039D01*
X449418Y373008D01*
X449463Y372978D01*
X449504Y372947D01*
X449543Y372922D01*
X449574Y372903D01*
X449585Y372895D01*
X449593Y372889D01*
X449598Y372884D01*
X449601D01*
X450000Y372632D01*
Y372316D01*
X449479Y372645D01*
X449424Y372684D01*
X449374Y372720D01*
X449333Y372756D01*
X449294Y372787D01*
X449266Y372814D01*
X449244Y372837D01*
X449230Y372850D01*
X449224Y372856D01*
X449208Y372878D01*
X449188Y372903D01*
X449158Y372953D01*
X449147Y372975D01*
X449136Y372992D01*
X449130Y373003D01*
X449127Y373008D01*
X449119Y372958D01*
X449111Y372911D01*
X449097Y372870D01*
X449086Y372828D01*
X449072Y372792D01*
X449055Y372759D01*
X449042Y372729D01*
X449028Y372701D01*
X449011Y372679D01*
X448997Y372657D01*
X448986Y372640D01*
X448975Y372626D01*
X448967Y372615D01*
X448958Y372607D01*
X448956Y372604D01*
X448953Y372601D01*
X448925Y372579D01*
X448898Y372557D01*
X448839Y372524D01*
X448781Y372501D01*
X448726Y372485D01*
X448679Y372474D01*
X448659Y372471D01*
X448640D01*
X448626Y372468D01*
X448615D01*
X448609D01*
X448607D01*
X448549Y372471D01*
X448496Y372479D01*
X448446Y372493D01*
X448405Y372507D01*
X448369Y372524D01*
X448341Y372535D01*
X448324Y372546D01*
X448321Y372549D01*
X448319D01*
X448274Y372582D01*
X448236Y372615D01*
X448202Y372651D01*
X448177Y372684D01*
X448158Y372715D01*
X448147Y372740D01*
X448139Y372756D01*
X448136Y372759D01*
Y372762D01*
X448128Y372787D01*
X448119Y372817D01*
X448105Y372878D01*
X448097Y372945D01*
X448089Y373006D01*
X448086Y373064D01*
Y373089D01*
X448083Y373111D01*
Y374000D01*
X450000D01*
Y373745D01*
D02*
G37*
G36*
X448767Y371945D02*
X448748Y371903D01*
X448729Y371862D01*
X448709Y371823D01*
X448693Y371790D01*
X448679Y371762D01*
X448668Y371745D01*
X448665Y371743D01*
Y371740D01*
X448634Y371690D01*
X448604Y371646D01*
X448576Y371607D01*
X448551Y371576D01*
X448532Y371549D01*
X448515Y371532D01*
X448504Y371518D01*
X448501Y371515D01*
X450000D01*
Y371280D01*
X448075D01*
Y371432D01*
X448122Y371460D01*
X448166Y371490D01*
X448211Y371526D01*
X448249Y371560D01*
X448283Y371593D01*
X448310Y371618D01*
X448319Y371629D01*
X448327Y371637D01*
X448330Y371640D01*
X448333Y371643D01*
X448380Y371701D01*
X448424Y371759D01*
X448463Y371814D01*
X448493Y371870D01*
X448521Y371917D01*
X448532Y371936D01*
X448540Y371953D01*
X448549Y371967D01*
X448551Y371978D01*
X448557Y371984D01*
Y371986D01*
X448784D01*
X448767Y371945D01*
D02*
G37*
G36*
X450000Y369438D02*
X449773D01*
Y370382D01*
X449726Y370349D01*
X449706Y370333D01*
X449687Y370319D01*
X449670Y370305D01*
X449659Y370294D01*
X449651Y370286D01*
X449648Y370283D01*
X449634Y370269D01*
X449621Y370252D01*
X449585Y370214D01*
X449543Y370169D01*
X449502Y370122D01*
X449465Y370078D01*
X449449Y370058D01*
X449432Y370042D01*
X449421Y370028D01*
X449413Y370017D01*
X449407Y370011D01*
X449404Y370008D01*
X449366Y369964D01*
X449330Y369920D01*
X449294Y369881D01*
X449263Y369845D01*
X449233Y369812D01*
X449205Y369784D01*
X449180Y369756D01*
X449158Y369734D01*
X449136Y369712D01*
X449119Y369695D01*
X449105Y369682D01*
X449091Y369668D01*
X449075Y369654D01*
X449069Y369648D01*
X449022Y369610D01*
X448981Y369576D01*
X448939Y369549D01*
X448906Y369527D01*
X448875Y369510D01*
X448853Y369499D01*
X448839Y369493D01*
X448834Y369491D01*
X448792Y369474D01*
X448751Y369463D01*
X448712Y369452D01*
X448679Y369446D01*
X448648Y369443D01*
X448626Y369441D01*
X448612D01*
X448607D01*
X448565Y369443D01*
X448526Y369449D01*
X448488Y369455D01*
X448454Y369466D01*
X448388Y369493D01*
X448335Y369521D01*
X448310Y369538D01*
X448291Y369551D01*
X448272Y369565D01*
X448258Y369579D01*
X448247Y369590D01*
X448236Y369596D01*
X448233Y369601D01*
X448230Y369604D01*
X448202Y369635D01*
X448177Y369668D01*
X448158Y369704D01*
X448141Y369740D01*
X448114Y369812D01*
X448094Y369884D01*
X448089Y369914D01*
X448083Y369945D01*
X448080Y369972D01*
X448078Y369995D01*
X448075Y370014D01*
Y370042D01*
X448078Y370092D01*
X448080Y370139D01*
X448089Y370183D01*
X448097Y370224D01*
X448108Y370263D01*
X448119Y370299D01*
X448133Y370333D01*
X448147Y370363D01*
X448161Y370391D01*
X448175Y370413D01*
X448186Y370432D01*
X448197Y370449D01*
X448205Y370463D01*
X448213Y370471D01*
X448216Y370477D01*
X448219Y370479D01*
X448247Y370507D01*
X448277Y370532D01*
X448310Y370557D01*
X448344Y370576D01*
X448410Y370610D01*
X448477Y370632D01*
X448507Y370640D01*
X448537Y370648D01*
X448562Y370654D01*
X448585Y370659D01*
X448604Y370662D01*
X448618D01*
X448626Y370665D01*
X448629D01*
X448654Y370424D01*
X448590Y370418D01*
X448535Y370407D01*
X448485Y370391D01*
X448446Y370371D01*
X448413Y370355D01*
X448391Y370338D01*
X448377Y370327D01*
X448371Y370321D01*
X448338Y370280D01*
X448313Y370236D01*
X448294Y370188D01*
X448283Y370147D01*
X448274Y370108D01*
X448272Y370075D01*
X448269Y370064D01*
Y370047D01*
X448272Y369989D01*
X448283Y369936D01*
X448299Y369892D01*
X448316Y369853D01*
X448335Y369823D01*
X448349Y369804D01*
X448360Y369790D01*
X448366Y369784D01*
X448405Y369751D01*
X448443Y369726D01*
X448482Y369707D01*
X448521Y369695D01*
X448551Y369687D01*
X448579Y369684D01*
X448596Y369682D01*
X448598D01*
X448601D01*
X448651Y369687D01*
X448704Y369698D01*
X448751Y369718D01*
X448795Y369737D01*
X448831Y369759D01*
X448862Y369779D01*
X448873Y369784D01*
X448881Y369790D01*
X448884Y369795D01*
X448886D01*
X448917Y369817D01*
X448947Y369845D01*
X448981Y369876D01*
X449014Y369909D01*
X449080Y369978D01*
X449147Y370047D01*
X449177Y370083D01*
X449205Y370114D01*
X449230Y370144D01*
X449252Y370169D01*
X449269Y370188D01*
X449283Y370205D01*
X449291Y370216D01*
X449294Y370219D01*
X449352Y370288D01*
X449407Y370352D01*
X449457Y370405D01*
X449499Y370446D01*
X449535Y370482D01*
X449560Y370507D01*
X449576Y370521D01*
X449579Y370527D01*
X449582D01*
X449629Y370565D01*
X449673Y370596D01*
X449718Y370623D01*
X449756Y370646D01*
X449789Y370662D01*
X449815Y370673D01*
X449831Y370679D01*
X449834Y370682D01*
X449837D01*
X449867Y370693D01*
X449895Y370698D01*
X449923Y370704D01*
X449947Y370707D01*
X449970Y370709D01*
X449986D01*
X449997D01*
X450000D01*
Y369438D01*
D02*
G37*
G36*
X397582Y327922D02*
X397629Y327920D01*
X397673Y327911D01*
X397715Y327903D01*
X397754Y327892D01*
X397790Y327881D01*
X397823Y327867D01*
X397853Y327853D01*
X397881Y327839D01*
X397903Y327825D01*
X397923Y327814D01*
X397939Y327803D01*
X397953Y327795D01*
X397961Y327787D01*
X397967Y327784D01*
X397970Y327781D01*
X397997Y327753D01*
X398022Y327723D01*
X398047Y327690D01*
X398067Y327656D01*
X398100Y327590D01*
X398122Y327523D01*
X398130Y327493D01*
X398139Y327463D01*
X398144Y327438D01*
X398150Y327415D01*
X398152Y327396D01*
Y327382D01*
X398155Y327374D01*
Y327371D01*
X397914Y327346D01*
X397909Y327410D01*
X397898Y327465D01*
X397881Y327515D01*
X397862Y327554D01*
X397845Y327587D01*
X397828Y327609D01*
X397817Y327623D01*
X397812Y327629D01*
X397770Y327662D01*
X397726Y327687D01*
X397679Y327706D01*
X397637Y327717D01*
X397599Y327726D01*
X397565Y327728D01*
X397554Y327731D01*
X397537D01*
X397479Y327728D01*
X397427Y327717D01*
X397382Y327701D01*
X397344Y327684D01*
X397313Y327665D01*
X397294Y327651D01*
X397280Y327640D01*
X397274Y327634D01*
X397241Y327595D01*
X397216Y327557D01*
X397197Y327518D01*
X397186Y327479D01*
X397177Y327449D01*
X397175Y327421D01*
X397172Y327404D01*
Y327402D01*
Y327399D01*
X397177Y327349D01*
X397188Y327296D01*
X397208Y327249D01*
X397227Y327205D01*
X397249Y327169D01*
X397269Y327138D01*
X397274Y327127D01*
X397280Y327119D01*
X397285Y327116D01*
Y327114D01*
X397308Y327083D01*
X397335Y327053D01*
X397366Y327019D01*
X397399Y326986D01*
X397468Y326920D01*
X397537Y326853D01*
X397573Y326823D01*
X397604Y326795D01*
X397635Y326770D01*
X397659Y326748D01*
X397679Y326731D01*
X397695Y326717D01*
X397707Y326709D01*
X397709Y326706D01*
X397779Y326648D01*
X397842Y326593D01*
X397895Y326543D01*
X397936Y326501D01*
X397972Y326465D01*
X397997Y326440D01*
X398011Y326424D01*
X398017Y326421D01*
Y326418D01*
X398056Y326371D01*
X398086Y326327D01*
X398114Y326283D01*
X398136Y326244D01*
X398152Y326210D01*
X398164Y326185D01*
X398169Y326169D01*
X398172Y326166D01*
Y326163D01*
X398183Y326133D01*
X398188Y326105D01*
X398194Y326078D01*
X398197Y326053D01*
X398200Y326030D01*
Y326014D01*
Y326003D01*
Y326000D01*
X396928D01*
Y326227D01*
X397873D01*
X397839Y326274D01*
X397823Y326294D01*
X397809Y326313D01*
X397795Y326330D01*
X397784Y326341D01*
X397776Y326349D01*
X397773Y326352D01*
X397759Y326366D01*
X397743Y326379D01*
X397704Y326415D01*
X397659Y326457D01*
X397612Y326499D01*
X397568Y326535D01*
X397549Y326551D01*
X397532Y326568D01*
X397518Y326579D01*
X397507Y326587D01*
X397501Y326593D01*
X397499Y326595D01*
X397454Y326634D01*
X397410Y326670D01*
X397371Y326706D01*
X397335Y326737D01*
X397302Y326767D01*
X397274Y326795D01*
X397247Y326820D01*
X397224Y326842D01*
X397202Y326864D01*
X397186Y326881D01*
X397172Y326895D01*
X397158Y326908D01*
X397144Y326925D01*
X397139Y326931D01*
X397100Y326978D01*
X397067Y327019D01*
X397039Y327061D01*
X397017Y327094D01*
X397000Y327125D01*
X396989Y327147D01*
X396984Y327161D01*
X396981Y327166D01*
X396964Y327208D01*
X396953Y327249D01*
X396942Y327288D01*
X396936Y327321D01*
X396934Y327352D01*
X396931Y327374D01*
Y327388D01*
Y327393D01*
X396934Y327435D01*
X396939Y327474D01*
X396945Y327512D01*
X396956Y327546D01*
X396984Y327612D01*
X397011Y327665D01*
X397028Y327690D01*
X397042Y327709D01*
X397056Y327728D01*
X397069Y327742D01*
X397080Y327753D01*
X397086Y327764D01*
X397092Y327767D01*
X397094Y327770D01*
X397125Y327798D01*
X397158Y327823D01*
X397194Y327842D01*
X397230Y327859D01*
X397302Y327886D01*
X397374Y327906D01*
X397405Y327911D01*
X397435Y327917D01*
X397463Y327920D01*
X397485Y327922D01*
X397504Y327925D01*
X397532D01*
X397582Y327922D01*
D02*
G37*
G36*
X400000Y326000D02*
X399745D01*
Y326850D01*
X399418D01*
X399388Y326848D01*
X399366D01*
X399346Y326845D01*
X399332Y326842D01*
X399321D01*
X399316Y326839D01*
X399313D01*
X399269Y326825D01*
X399249Y326817D01*
X399233Y326809D01*
X399216Y326800D01*
X399205Y326795D01*
X399200Y326792D01*
X399197Y326789D01*
X399175Y326773D01*
X399152Y326753D01*
X399111Y326712D01*
X399092Y326693D01*
X399078Y326676D01*
X399069Y326665D01*
X399067Y326662D01*
X399039Y326623D01*
X399008Y326582D01*
X398978Y326537D01*
X398947Y326496D01*
X398922Y326457D01*
X398903Y326427D01*
X398895Y326415D01*
X398889Y326407D01*
X398884Y326402D01*
Y326399D01*
X398632Y326000D01*
X398316D01*
X398645Y326521D01*
X398684Y326576D01*
X398720Y326626D01*
X398756Y326667D01*
X398787Y326706D01*
X398815Y326734D01*
X398837Y326756D01*
X398850Y326770D01*
X398856Y326776D01*
X398878Y326792D01*
X398903Y326812D01*
X398953Y326842D01*
X398975Y326853D01*
X398992Y326864D01*
X399003Y326870D01*
X399008Y326872D01*
X398958Y326881D01*
X398911Y326889D01*
X398870Y326903D01*
X398828Y326914D01*
X398792Y326928D01*
X398759Y326944D01*
X398729Y326958D01*
X398701Y326972D01*
X398679Y326989D01*
X398657Y327003D01*
X398640Y327014D01*
X398626Y327025D01*
X398615Y327033D01*
X398607Y327042D01*
X398604Y327044D01*
X398601Y327047D01*
X398579Y327075D01*
X398557Y327102D01*
X398524Y327161D01*
X398501Y327219D01*
X398485Y327274D01*
X398474Y327321D01*
X398471Y327341D01*
Y327360D01*
X398468Y327374D01*
Y327385D01*
Y327391D01*
Y327393D01*
X398471Y327451D01*
X398479Y327504D01*
X398493Y327554D01*
X398507Y327595D01*
X398524Y327631D01*
X398535Y327659D01*
X398546Y327676D01*
X398549Y327679D01*
Y327681D01*
X398582Y327726D01*
X398615Y327764D01*
X398651Y327798D01*
X398684Y327823D01*
X398715Y327842D01*
X398740Y327853D01*
X398756Y327861D01*
X398759Y327864D01*
X398762D01*
X398787Y327872D01*
X398817Y327881D01*
X398878Y327895D01*
X398945Y327903D01*
X399006Y327911D01*
X399064Y327914D01*
X399089D01*
X399111Y327917D01*
X400000D01*
Y326000D01*
D02*
G37*
G36*
X289582Y365956D02*
X289629Y365953D01*
X289673Y365945D01*
X289715Y365936D01*
X289754Y365925D01*
X289790Y365914D01*
X289823Y365900D01*
X289853Y365886D01*
X289881Y365873D01*
X289903Y365859D01*
X289923Y365847D01*
X289939Y365837D01*
X289953Y365828D01*
X289961Y365820D01*
X289967Y365817D01*
X289970Y365814D01*
X289997Y365787D01*
X290022Y365756D01*
X290047Y365723D01*
X290067Y365690D01*
X290100Y365623D01*
X290122Y365557D01*
X290130Y365526D01*
X290139Y365496D01*
X290144Y365471D01*
X290150Y365449D01*
X290153Y365429D01*
Y365415D01*
X290155Y365407D01*
Y365404D01*
X289914Y365379D01*
X289909Y365443D01*
X289898Y365498D01*
X289881Y365548D01*
X289862Y365587D01*
X289845Y365620D01*
X289828Y365643D01*
X289817Y365656D01*
X289812Y365662D01*
X289770Y365695D01*
X289726Y365720D01*
X289679Y365739D01*
X289637Y365751D01*
X289598Y365759D01*
X289565Y365762D01*
X289554Y365764D01*
X289538D01*
X289479Y365762D01*
X289427Y365751D01*
X289382Y365734D01*
X289344Y365717D01*
X289313Y365698D01*
X289294Y365684D01*
X289280Y365673D01*
X289274Y365668D01*
X289241Y365629D01*
X289216Y365590D01*
X289197Y365551D01*
X289186Y365512D01*
X289177Y365482D01*
X289175Y365454D01*
X289172Y365438D01*
Y365435D01*
Y365432D01*
X289177Y365382D01*
X289189Y365330D01*
X289208Y365283D01*
X289227Y365238D01*
X289249Y365202D01*
X289269Y365172D01*
X289274Y365161D01*
X289280Y365152D01*
X289285Y365149D01*
Y365147D01*
X289308Y365116D01*
X289335Y365086D01*
X289366Y365053D01*
X289399Y365019D01*
X289468Y364953D01*
X289538Y364886D01*
X289574Y364856D01*
X289604Y364828D01*
X289634Y364803D01*
X289659Y364781D01*
X289679Y364764D01*
X289695Y364751D01*
X289706Y364742D01*
X289709Y364739D01*
X289778Y364681D01*
X289842Y364626D01*
X289895Y364576D01*
X289936Y364535D01*
X289972Y364498D01*
X289997Y364474D01*
X290011Y364457D01*
X290017Y364454D01*
Y364452D01*
X290055Y364404D01*
X290086Y364360D01*
X290114Y364316D01*
X290136Y364277D01*
X290153Y364244D01*
X290163Y364219D01*
X290169Y364202D01*
X290172Y364199D01*
Y364197D01*
X290183Y364166D01*
X290189Y364139D01*
X290194Y364111D01*
X290197Y364086D01*
X290199Y364064D01*
Y364047D01*
Y364036D01*
Y364033D01*
X288928D01*
Y364260D01*
X289873D01*
X289839Y364307D01*
X289823Y364327D01*
X289809Y364346D01*
X289795Y364363D01*
X289784Y364374D01*
X289776Y364382D01*
X289773Y364385D01*
X289759Y364399D01*
X289742Y364413D01*
X289704Y364449D01*
X289659Y364490D01*
X289612Y364532D01*
X289568Y364568D01*
X289549Y364584D01*
X289532Y364601D01*
X289518Y364612D01*
X289507Y364620D01*
X289502Y364626D01*
X289499Y364629D01*
X289454Y364668D01*
X289410Y364703D01*
X289371Y364739D01*
X289335Y364770D01*
X289302Y364801D01*
X289274Y364828D01*
X289247Y364853D01*
X289225Y364875D01*
X289202Y364897D01*
X289186Y364914D01*
X289172Y364928D01*
X289158Y364942D01*
X289144Y364958D01*
X289139Y364964D01*
X289100Y365011D01*
X289067Y365053D01*
X289039Y365094D01*
X289017Y365127D01*
X289000Y365158D01*
X288989Y365180D01*
X288983Y365194D01*
X288981Y365199D01*
X288964Y365241D01*
X288953Y365283D01*
X288942Y365321D01*
X288936Y365354D01*
X288934Y365385D01*
X288931Y365407D01*
Y365421D01*
Y365426D01*
X288934Y365468D01*
X288939Y365507D01*
X288945Y365546D01*
X288956Y365579D01*
X288983Y365645D01*
X289011Y365698D01*
X289028Y365723D01*
X289042Y365742D01*
X289055Y365762D01*
X289069Y365775D01*
X289081Y365787D01*
X289086Y365798D01*
X289092Y365800D01*
X289094Y365803D01*
X289125Y365831D01*
X289158Y365856D01*
X289194Y365875D01*
X289230Y365892D01*
X289302Y365920D01*
X289374Y365939D01*
X289405Y365945D01*
X289435Y365950D01*
X289463Y365953D01*
X289485Y365956D01*
X289504Y365958D01*
X289532D01*
X289582Y365956D01*
D02*
G37*
G36*
X288053D02*
X288105Y365950D01*
X288155Y365939D01*
X288202Y365925D01*
X288244Y365906D01*
X288285Y365889D01*
X288321Y365867D01*
X288355Y365847D01*
X288382Y365828D01*
X288410Y365806D01*
X288432Y365789D01*
X288449Y365773D01*
X288463Y365756D01*
X288474Y365745D01*
X288479Y365739D01*
X288482Y365737D01*
X288518Y365687D01*
X288549Y365629D01*
X288576Y365568D01*
X288601Y365504D01*
X288621Y365438D01*
X288637Y365371D01*
X288651Y365302D01*
X288662Y365238D01*
X288670Y365174D01*
X288676Y365116D01*
X288682Y365064D01*
X288684Y365019D01*
Y364981D01*
X288687Y364953D01*
Y364942D01*
Y364933D01*
Y364931D01*
Y364928D01*
X288684Y364839D01*
X288679Y364756D01*
X288670Y364679D01*
X288657Y364607D01*
X288643Y364543D01*
X288629Y364485D01*
X288612Y364432D01*
X288593Y364385D01*
X288576Y364346D01*
X288560Y364310D01*
X288546Y364282D01*
X288529Y364258D01*
X288518Y364238D01*
X288510Y364227D01*
X288504Y364219D01*
X288502Y364216D01*
X288465Y364177D01*
X288427Y364144D01*
X288388Y364116D01*
X288349Y364091D01*
X288308Y364069D01*
X288269Y364053D01*
X288230Y364039D01*
X288191Y364028D01*
X288158Y364019D01*
X288125Y364011D01*
X288097Y364005D01*
X288072Y364003D01*
X288050D01*
X288036Y364000D01*
X288022D01*
X287959Y364003D01*
X287900Y364014D01*
X287848Y364025D01*
X287801Y364041D01*
X287765Y364055D01*
X287737Y364069D01*
X287726Y364072D01*
X287718Y364077D01*
X287715Y364080D01*
X287712D01*
X287665Y364113D01*
X287621Y364152D01*
X287585Y364191D01*
X287554Y364230D01*
X287529Y364266D01*
X287513Y364294D01*
X287507Y364305D01*
X287502Y364313D01*
X287499Y364316D01*
Y364318D01*
X287471Y364377D01*
X287452Y364438D01*
X287438Y364493D01*
X287430Y364546D01*
X287421Y364590D01*
Y364607D01*
X287419Y364623D01*
Y364637D01*
Y364645D01*
Y364651D01*
Y364654D01*
X287421Y364703D01*
X287427Y364751D01*
X287435Y364798D01*
X287443Y364839D01*
X287457Y364878D01*
X287471Y364917D01*
X287485Y364950D01*
X287502Y364981D01*
X287518Y365008D01*
X287532Y365033D01*
X287546Y365053D01*
X287560Y365072D01*
X287568Y365086D01*
X287576Y365094D01*
X287582Y365100D01*
X287585Y365102D01*
X287615Y365133D01*
X287648Y365161D01*
X287684Y365183D01*
X287718Y365202D01*
X287751Y365222D01*
X287784Y365235D01*
X287848Y365255D01*
X287876Y365263D01*
X287903Y365269D01*
X287925Y365271D01*
X287948Y365274D01*
X287964Y365277D01*
X287986D01*
X288036Y365274D01*
X288083Y365266D01*
X288128Y365258D01*
X288166Y365247D01*
X288200Y365233D01*
X288225Y365224D01*
X288241Y365216D01*
X288244Y365213D01*
X288247D01*
X288291Y365185D01*
X288330Y365155D01*
X288366Y365125D01*
X288393Y365091D01*
X288418Y365064D01*
X288438Y365041D01*
X288449Y365025D01*
X288452Y365022D01*
Y365072D01*
X288449Y365122D01*
X288446Y365166D01*
X288441Y365210D01*
X288438Y365249D01*
X288432Y365285D01*
X288427Y365318D01*
X288418Y365349D01*
X288413Y365377D01*
X288407Y365399D01*
X288402Y365418D01*
X288399Y365435D01*
X288393Y365446D01*
X288391Y365454D01*
X288388Y365460D01*
Y365462D01*
X288360Y365518D01*
X288333Y365568D01*
X288302Y365607D01*
X288274Y365640D01*
X288249Y365668D01*
X288230Y365687D01*
X288216Y365698D01*
X288211Y365701D01*
X288177Y365723D01*
X288144Y365737D01*
X288111Y365748D01*
X288078Y365756D01*
X288053Y365762D01*
X288031Y365764D01*
X288011D01*
X287961Y365759D01*
X287914Y365748D01*
X287876Y365731D01*
X287840Y365715D01*
X287812Y365695D01*
X287792Y365679D01*
X287781Y365668D01*
X287776Y365662D01*
X287756Y365637D01*
X287737Y365607D01*
X287720Y365573D01*
X287709Y365540D01*
X287698Y365510D01*
X287690Y365485D01*
X287687Y365468D01*
X287684Y365465D01*
Y365462D01*
X287449Y365482D01*
X287466Y365560D01*
X287491Y365629D01*
X287518Y365690D01*
X287549Y365739D01*
X287579Y365778D01*
X287590Y365795D01*
X287604Y365809D01*
X287612Y365817D01*
X287621Y365825D01*
X287624Y365828D01*
X287626Y365831D01*
X287654Y365853D01*
X287684Y365873D01*
X287745Y365906D01*
X287806Y365928D01*
X287864Y365942D01*
X287917Y365953D01*
X287939Y365956D01*
X287959D01*
X287975Y365958D01*
X287997D01*
X288053Y365956D01*
D02*
G37*
G36*
X292000Y364033D02*
X291745D01*
Y364884D01*
X291418D01*
X291388Y364881D01*
X291366D01*
X291346Y364878D01*
X291333Y364875D01*
X291321D01*
X291316Y364873D01*
X291313D01*
X291269Y364859D01*
X291249Y364850D01*
X291233Y364842D01*
X291216Y364834D01*
X291205Y364828D01*
X291199Y364825D01*
X291197Y364823D01*
X291175Y364806D01*
X291152Y364787D01*
X291111Y364745D01*
X291091Y364726D01*
X291078Y364709D01*
X291069Y364698D01*
X291067Y364695D01*
X291039Y364656D01*
X291008Y364615D01*
X290978Y364571D01*
X290947Y364529D01*
X290922Y364490D01*
X290903Y364460D01*
X290895Y364449D01*
X290889Y364440D01*
X290884Y364435D01*
Y364432D01*
X290632Y364033D01*
X290316D01*
X290646Y364554D01*
X290684Y364609D01*
X290720Y364659D01*
X290756Y364701D01*
X290787Y364739D01*
X290814Y364767D01*
X290837Y364789D01*
X290850Y364803D01*
X290856Y364809D01*
X290878Y364825D01*
X290903Y364845D01*
X290953Y364875D01*
X290975Y364886D01*
X290992Y364897D01*
X291003Y364903D01*
X291008Y364906D01*
X290958Y364914D01*
X290911Y364922D01*
X290870Y364936D01*
X290828Y364947D01*
X290792Y364961D01*
X290759Y364978D01*
X290729Y364992D01*
X290701Y365005D01*
X290679Y365022D01*
X290657Y365036D01*
X290640Y365047D01*
X290626Y365058D01*
X290615Y365066D01*
X290607Y365075D01*
X290604Y365077D01*
X290601Y365080D01*
X290579Y365108D01*
X290557Y365136D01*
X290524Y365194D01*
X290501Y365252D01*
X290485Y365307D01*
X290474Y365354D01*
X290471Y365374D01*
Y365393D01*
X290468Y365407D01*
Y365418D01*
Y365424D01*
Y365426D01*
X290471Y365485D01*
X290479Y365537D01*
X290493Y365587D01*
X290507Y365629D01*
X290524Y365665D01*
X290535Y365692D01*
X290546Y365709D01*
X290549Y365712D01*
Y365715D01*
X290582Y365759D01*
X290615Y365798D01*
X290651Y365831D01*
X290684Y365856D01*
X290715Y365875D01*
X290740Y365886D01*
X290756Y365895D01*
X290759Y365897D01*
X290762D01*
X290787Y365906D01*
X290817Y365914D01*
X290878Y365928D01*
X290945Y365936D01*
X291006Y365945D01*
X291064Y365947D01*
X291089D01*
X291111Y365950D01*
X292000D01*
Y364033D01*
D02*
G37*
G36*
X289582Y355956D02*
X289629Y355953D01*
X289673Y355944D01*
X289715Y355936D01*
X289754Y355925D01*
X289790Y355914D01*
X289823Y355900D01*
X289853Y355886D01*
X289881Y355873D01*
X289903Y355859D01*
X289923Y355848D01*
X289939Y355837D01*
X289953Y355828D01*
X289961Y355820D01*
X289967Y355817D01*
X289970Y355814D01*
X289997Y355787D01*
X290022Y355756D01*
X290047Y355723D01*
X290067Y355690D01*
X290100Y355623D01*
X290122Y355557D01*
X290130Y355526D01*
X290139Y355496D01*
X290144Y355471D01*
X290150Y355449D01*
X290153Y355429D01*
Y355415D01*
X290155Y355407D01*
Y355404D01*
X289914Y355379D01*
X289909Y355443D01*
X289898Y355499D01*
X289881Y355548D01*
X289862Y355587D01*
X289845Y355620D01*
X289828Y355643D01*
X289817Y355656D01*
X289812Y355662D01*
X289770Y355695D01*
X289726Y355720D01*
X289679Y355739D01*
X289637Y355751D01*
X289598Y355759D01*
X289565Y355762D01*
X289554Y355764D01*
X289538D01*
X289479Y355762D01*
X289427Y355751D01*
X289382Y355734D01*
X289344Y355717D01*
X289313Y355698D01*
X289294Y355684D01*
X289280Y355673D01*
X289274Y355667D01*
X289241Y355629D01*
X289216Y355590D01*
X289197Y355551D01*
X289186Y355512D01*
X289177Y355482D01*
X289175Y355454D01*
X289172Y355438D01*
Y355435D01*
Y355432D01*
X289177Y355382D01*
X289189Y355330D01*
X289208Y355282D01*
X289227Y355238D01*
X289249Y355202D01*
X289269Y355172D01*
X289274Y355161D01*
X289280Y355152D01*
X289285Y355150D01*
Y355147D01*
X289308Y355116D01*
X289335Y355086D01*
X289366Y355053D01*
X289399Y355019D01*
X289468Y354953D01*
X289538Y354886D01*
X289574Y354856D01*
X289604Y354828D01*
X289634Y354803D01*
X289659Y354781D01*
X289679Y354765D01*
X289695Y354751D01*
X289706Y354742D01*
X289709Y354739D01*
X289778Y354681D01*
X289842Y354626D01*
X289895Y354576D01*
X289936Y354535D01*
X289972Y354499D01*
X289997Y354474D01*
X290011Y354457D01*
X290017Y354454D01*
Y354451D01*
X290055Y354404D01*
X290086Y354360D01*
X290114Y354316D01*
X290136Y354277D01*
X290153Y354244D01*
X290163Y354219D01*
X290169Y354202D01*
X290172Y354199D01*
Y354197D01*
X290183Y354166D01*
X290189Y354138D01*
X290194Y354111D01*
X290197Y354086D01*
X290199Y354064D01*
Y354047D01*
Y354036D01*
Y354033D01*
X288928D01*
Y354260D01*
X289873D01*
X289839Y354307D01*
X289823Y354327D01*
X289809Y354346D01*
X289795Y354363D01*
X289784Y354374D01*
X289776Y354382D01*
X289773Y354385D01*
X289759Y354399D01*
X289742Y354413D01*
X289704Y354449D01*
X289659Y354490D01*
X289612Y354532D01*
X289568Y354568D01*
X289549Y354584D01*
X289532Y354601D01*
X289518Y354612D01*
X289507Y354620D01*
X289502Y354626D01*
X289499Y354629D01*
X289454Y354667D01*
X289410Y354703D01*
X289371Y354739D01*
X289335Y354770D01*
X289302Y354801D01*
X289274Y354828D01*
X289247Y354853D01*
X289225Y354875D01*
X289202Y354897D01*
X289186Y354914D01*
X289172Y354928D01*
X289158Y354942D01*
X289144Y354958D01*
X289139Y354964D01*
X289100Y355011D01*
X289067Y355053D01*
X289039Y355094D01*
X289017Y355127D01*
X289000Y355158D01*
X288989Y355180D01*
X288983Y355194D01*
X288981Y355199D01*
X288964Y355241D01*
X288953Y355282D01*
X288942Y355321D01*
X288936Y355354D01*
X288934Y355385D01*
X288931Y355407D01*
Y355421D01*
Y355427D01*
X288934Y355468D01*
X288939Y355507D01*
X288945Y355546D01*
X288956Y355579D01*
X288983Y355645D01*
X289011Y355698D01*
X289028Y355723D01*
X289042Y355742D01*
X289055Y355762D01*
X289069Y355775D01*
X289081Y355787D01*
X289086Y355798D01*
X289092Y355801D01*
X289094Y355803D01*
X289125Y355831D01*
X289158Y355856D01*
X289194Y355875D01*
X289230Y355892D01*
X289302Y355920D01*
X289374Y355939D01*
X289405Y355944D01*
X289435Y355950D01*
X289463Y355953D01*
X289485Y355956D01*
X289504Y355958D01*
X289532D01*
X289582Y355956D01*
D02*
G37*
G36*
X288634Y354939D02*
X288413Y354908D01*
X288393Y354939D01*
X288369Y354964D01*
X288346Y354989D01*
X288324Y355008D01*
X288302Y355022D01*
X288285Y355036D01*
X288274Y355042D01*
X288272Y355044D01*
X288236Y355061D01*
X288200Y355075D01*
X288166Y355083D01*
X288133Y355091D01*
X288105Y355094D01*
X288083Y355097D01*
X288031D01*
X287997Y355091D01*
X287939Y355078D01*
X287889Y355058D01*
X287845Y355039D01*
X287812Y355016D01*
X287787Y354997D01*
X287773Y354983D01*
X287768Y354980D01*
Y354978D01*
X287729Y354931D01*
X287701Y354881D01*
X287682Y354828D01*
X287668Y354776D01*
X287660Y354731D01*
X287657Y354712D01*
Y354695D01*
X287654Y354681D01*
Y354670D01*
Y354665D01*
Y354662D01*
Y354623D01*
X287660Y354587D01*
X287673Y354518D01*
X287693Y354460D01*
X287712Y354413D01*
X287734Y354374D01*
X287754Y354343D01*
X287762Y354335D01*
X287768Y354327D01*
X287770Y354324D01*
X287773Y354321D01*
X287795Y354299D01*
X287817Y354280D01*
X287867Y354246D01*
X287914Y354224D01*
X287961Y354210D01*
X288000Y354199D01*
X288033Y354197D01*
X288045Y354194D01*
X288061D01*
X288114Y354197D01*
X288161Y354208D01*
X288202Y354222D01*
X288236Y354238D01*
X288266Y354255D01*
X288288Y354269D01*
X288299Y354280D01*
X288305Y354282D01*
X288338Y354321D01*
X288366Y354363D01*
X288388Y354410D01*
X288405Y354451D01*
X288416Y354493D01*
X288424Y354523D01*
X288427Y354537D01*
X288429Y354546D01*
Y354551D01*
Y354554D01*
X288676Y354535D01*
X288670Y354490D01*
X288662Y354449D01*
X288637Y354371D01*
X288607Y354305D01*
X288590Y354274D01*
X288574Y354249D01*
X288560Y354224D01*
X288543Y354202D01*
X288529Y354186D01*
X288515Y354172D01*
X288504Y354161D01*
X288499Y354150D01*
X288493Y354147D01*
X288491Y354144D01*
X288457Y354119D01*
X288424Y354097D01*
X288388Y354078D01*
X288352Y354061D01*
X288283Y354036D01*
X288213Y354019D01*
X288183Y354011D01*
X288153Y354008D01*
X288128Y354006D01*
X288105Y354003D01*
X288086Y354000D01*
X288061D01*
X288003Y354003D01*
X287948Y354011D01*
X287895Y354022D01*
X287848Y354036D01*
X287804Y354055D01*
X287762Y354075D01*
X287723Y354094D01*
X287690Y354116D01*
X287660Y354138D01*
X287632Y354158D01*
X287610Y354180D01*
X287590Y354197D01*
X287576Y354210D01*
X287565Y354222D01*
X287560Y354230D01*
X287557Y354233D01*
X287529Y354269D01*
X287507Y354307D01*
X287485Y354343D01*
X287468Y354382D01*
X287441Y354457D01*
X287424Y354529D01*
X287419Y354559D01*
X287413Y354590D01*
X287410Y354615D01*
X287407Y354637D01*
X287405Y354656D01*
Y354670D01*
Y354679D01*
Y354681D01*
X287407Y354731D01*
X287413Y354778D01*
X287421Y354825D01*
X287432Y354867D01*
X287446Y354906D01*
X287460Y354944D01*
X287477Y354978D01*
X287491Y355008D01*
X287507Y355036D01*
X287524Y355061D01*
X287538Y355080D01*
X287551Y355100D01*
X287562Y355114D01*
X287571Y355122D01*
X287576Y355127D01*
X287579Y355130D01*
X287612Y355161D01*
X287646Y355188D01*
X287682Y355210D01*
X287718Y355230D01*
X287754Y355249D01*
X287790Y355263D01*
X287856Y355282D01*
X287887Y355291D01*
X287914Y355296D01*
X287939Y355299D01*
X287961Y355302D01*
X287978Y355305D01*
X288039D01*
X288072Y355299D01*
X288139Y355285D01*
X288200Y355266D01*
X288255Y355244D01*
X288299Y355222D01*
X288319Y355210D01*
X288335Y355202D01*
X288349Y355194D01*
X288357Y355188D01*
X288363Y355186D01*
X288366Y355183D01*
X288263Y355701D01*
X287496D01*
Y355925D01*
X288449D01*
X288634Y354939D01*
D02*
G37*
G36*
X292000Y354033D02*
X291745D01*
Y354884D01*
X291418D01*
X291388Y354881D01*
X291366D01*
X291346Y354878D01*
X291333Y354875D01*
X291321D01*
X291316Y354872D01*
X291313D01*
X291269Y354859D01*
X291249Y354850D01*
X291233Y354842D01*
X291216Y354834D01*
X291205Y354828D01*
X291199Y354825D01*
X291197Y354823D01*
X291175Y354806D01*
X291152Y354787D01*
X291111Y354745D01*
X291091Y354726D01*
X291078Y354709D01*
X291069Y354698D01*
X291067Y354695D01*
X291039Y354656D01*
X291008Y354615D01*
X290978Y354571D01*
X290947Y354529D01*
X290922Y354490D01*
X290903Y354460D01*
X290895Y354449D01*
X290889Y354440D01*
X290884Y354435D01*
Y354432D01*
X290632Y354033D01*
X290316D01*
X290646Y354554D01*
X290684Y354609D01*
X290720Y354659D01*
X290756Y354701D01*
X290787Y354739D01*
X290814Y354767D01*
X290837Y354789D01*
X290850Y354803D01*
X290856Y354809D01*
X290878Y354825D01*
X290903Y354845D01*
X290953Y354875D01*
X290975Y354886D01*
X290992Y354897D01*
X291003Y354903D01*
X291008Y354906D01*
X290958Y354914D01*
X290911Y354922D01*
X290870Y354936D01*
X290828Y354947D01*
X290792Y354961D01*
X290759Y354978D01*
X290729Y354992D01*
X290701Y355006D01*
X290679Y355022D01*
X290657Y355036D01*
X290640Y355047D01*
X290626Y355058D01*
X290615Y355066D01*
X290607Y355075D01*
X290604Y355078D01*
X290601Y355080D01*
X290579Y355108D01*
X290557Y355136D01*
X290524Y355194D01*
X290501Y355252D01*
X290485Y355307D01*
X290474Y355354D01*
X290471Y355374D01*
Y355393D01*
X290468Y355407D01*
Y355418D01*
Y355424D01*
Y355427D01*
X290471Y355485D01*
X290479Y355537D01*
X290493Y355587D01*
X290507Y355629D01*
X290524Y355665D01*
X290535Y355692D01*
X290546Y355709D01*
X290549Y355712D01*
Y355715D01*
X290582Y355759D01*
X290615Y355798D01*
X290651Y355831D01*
X290684Y355856D01*
X290715Y355875D01*
X290740Y355886D01*
X290756Y355895D01*
X290759Y355897D01*
X290762D01*
X290787Y355906D01*
X290817Y355914D01*
X290878Y355928D01*
X290945Y355936D01*
X291006Y355944D01*
X291064Y355947D01*
X291089D01*
X291111Y355950D01*
X292000D01*
Y354033D01*
D02*
G37*
G36*
X289582Y345922D02*
X289629Y345920D01*
X289673Y345911D01*
X289715Y345903D01*
X289754Y345892D01*
X289790Y345881D01*
X289823Y345867D01*
X289853Y345853D01*
X289881Y345839D01*
X289903Y345825D01*
X289923Y345814D01*
X289939Y345803D01*
X289953Y345795D01*
X289961Y345787D01*
X289967Y345784D01*
X289970Y345781D01*
X289997Y345753D01*
X290022Y345723D01*
X290047Y345690D01*
X290067Y345656D01*
X290100Y345590D01*
X290122Y345524D01*
X290130Y345493D01*
X290139Y345462D01*
X290144Y345438D01*
X290150Y345415D01*
X290153Y345396D01*
Y345382D01*
X290155Y345374D01*
Y345371D01*
X289914Y345346D01*
X289909Y345410D01*
X289898Y345465D01*
X289881Y345515D01*
X289862Y345554D01*
X289845Y345587D01*
X289828Y345609D01*
X289817Y345623D01*
X289812Y345629D01*
X289770Y345662D01*
X289726Y345687D01*
X289679Y345706D01*
X289637Y345717D01*
X289598Y345726D01*
X289565Y345728D01*
X289554Y345731D01*
X289538D01*
X289479Y345728D01*
X289427Y345717D01*
X289382Y345701D01*
X289344Y345684D01*
X289313Y345665D01*
X289294Y345651D01*
X289280Y345640D01*
X289274Y345634D01*
X289241Y345596D01*
X289216Y345557D01*
X289197Y345518D01*
X289186Y345479D01*
X289177Y345449D01*
X289175Y345421D01*
X289172Y345404D01*
Y345402D01*
Y345399D01*
X289177Y345349D01*
X289189Y345296D01*
X289208Y345249D01*
X289227Y345205D01*
X289249Y345169D01*
X289269Y345138D01*
X289274Y345127D01*
X289280Y345119D01*
X289285Y345116D01*
Y345113D01*
X289308Y345083D01*
X289335Y345053D01*
X289366Y345019D01*
X289399Y344986D01*
X289468Y344920D01*
X289538Y344853D01*
X289574Y344823D01*
X289604Y344795D01*
X289634Y344770D01*
X289659Y344748D01*
X289679Y344731D01*
X289695Y344717D01*
X289706Y344709D01*
X289709Y344706D01*
X289778Y344648D01*
X289842Y344593D01*
X289895Y344543D01*
X289936Y344501D01*
X289972Y344465D01*
X289997Y344440D01*
X290011Y344424D01*
X290017Y344421D01*
Y344418D01*
X290055Y344371D01*
X290086Y344327D01*
X290114Y344283D01*
X290136Y344244D01*
X290153Y344211D01*
X290163Y344185D01*
X290169Y344169D01*
X290172Y344166D01*
Y344163D01*
X290183Y344133D01*
X290189Y344105D01*
X290194Y344077D01*
X290197Y344053D01*
X290199Y344030D01*
Y344014D01*
Y344003D01*
Y344000D01*
X288928D01*
Y344227D01*
X289873D01*
X289839Y344274D01*
X289823Y344294D01*
X289809Y344313D01*
X289795Y344330D01*
X289784Y344341D01*
X289776Y344349D01*
X289773Y344352D01*
X289759Y344366D01*
X289742Y344379D01*
X289704Y344415D01*
X289659Y344457D01*
X289612Y344498D01*
X289568Y344535D01*
X289549Y344551D01*
X289532Y344568D01*
X289518Y344579D01*
X289507Y344587D01*
X289502Y344593D01*
X289499Y344596D01*
X289454Y344634D01*
X289410Y344670D01*
X289371Y344706D01*
X289335Y344737D01*
X289302Y344767D01*
X289274Y344795D01*
X289247Y344820D01*
X289225Y344842D01*
X289202Y344864D01*
X289186Y344881D01*
X289172Y344895D01*
X289158Y344908D01*
X289144Y344925D01*
X289139Y344931D01*
X289100Y344978D01*
X289067Y345019D01*
X289039Y345061D01*
X289017Y345094D01*
X289000Y345125D01*
X288989Y345147D01*
X288983Y345161D01*
X288981Y345166D01*
X288964Y345208D01*
X288953Y345249D01*
X288942Y345288D01*
X288936Y345321D01*
X288934Y345352D01*
X288931Y345374D01*
Y345388D01*
Y345393D01*
X288934Y345435D01*
X288939Y345474D01*
X288945Y345512D01*
X288956Y345546D01*
X288983Y345612D01*
X289011Y345665D01*
X289028Y345690D01*
X289042Y345709D01*
X289055Y345728D01*
X289069Y345742D01*
X289081Y345753D01*
X289086Y345764D01*
X289092Y345767D01*
X289094Y345770D01*
X289125Y345798D01*
X289158Y345823D01*
X289194Y345842D01*
X289230Y345859D01*
X289302Y345886D01*
X289374Y345906D01*
X289405Y345911D01*
X289435Y345917D01*
X289463Y345920D01*
X289485Y345922D01*
X289504Y345925D01*
X289532D01*
X289582Y345922D01*
D02*
G37*
G36*
X292000Y344000D02*
X291745D01*
Y344850D01*
X291418D01*
X291388Y344848D01*
X291366D01*
X291346Y344845D01*
X291333Y344842D01*
X291321D01*
X291316Y344839D01*
X291313D01*
X291269Y344825D01*
X291249Y344817D01*
X291233Y344809D01*
X291216Y344800D01*
X291205Y344795D01*
X291199Y344792D01*
X291197Y344789D01*
X291175Y344773D01*
X291152Y344753D01*
X291111Y344712D01*
X291091Y344692D01*
X291078Y344676D01*
X291069Y344665D01*
X291067Y344662D01*
X291039Y344623D01*
X291008Y344582D01*
X290978Y344537D01*
X290947Y344496D01*
X290922Y344457D01*
X290903Y344426D01*
X290895Y344415D01*
X290889Y344407D01*
X290884Y344402D01*
Y344399D01*
X290632Y344000D01*
X290316D01*
X290646Y344521D01*
X290684Y344576D01*
X290720Y344626D01*
X290756Y344668D01*
X290787Y344706D01*
X290814Y344734D01*
X290837Y344756D01*
X290850Y344770D01*
X290856Y344776D01*
X290878Y344792D01*
X290903Y344812D01*
X290953Y344842D01*
X290975Y344853D01*
X290992Y344864D01*
X291003Y344870D01*
X291008Y344872D01*
X290958Y344881D01*
X290911Y344889D01*
X290870Y344903D01*
X290828Y344914D01*
X290792Y344928D01*
X290759Y344945D01*
X290729Y344958D01*
X290701Y344972D01*
X290679Y344989D01*
X290657Y345003D01*
X290640Y345014D01*
X290626Y345025D01*
X290615Y345033D01*
X290607Y345041D01*
X290604Y345044D01*
X290601Y345047D01*
X290579Y345075D01*
X290557Y345102D01*
X290524Y345161D01*
X290501Y345219D01*
X290485Y345274D01*
X290474Y345321D01*
X290471Y345341D01*
Y345360D01*
X290468Y345374D01*
Y345385D01*
Y345391D01*
Y345393D01*
X290471Y345451D01*
X290479Y345504D01*
X290493Y345554D01*
X290507Y345596D01*
X290524Y345632D01*
X290535Y345659D01*
X290546Y345676D01*
X290549Y345679D01*
Y345681D01*
X290582Y345726D01*
X290615Y345764D01*
X290651Y345798D01*
X290684Y345823D01*
X290715Y345842D01*
X290740Y345853D01*
X290756Y345861D01*
X290759Y345864D01*
X290762D01*
X290787Y345872D01*
X290817Y345881D01*
X290878Y345895D01*
X290945Y345903D01*
X291006Y345911D01*
X291064Y345914D01*
X291089D01*
X291111Y345917D01*
X292000D01*
Y344000D01*
D02*
G37*
G36*
X288756Y344676D02*
Y344460D01*
X287923D01*
Y344000D01*
X287687D01*
Y344460D01*
X287427D01*
Y344676D01*
X287687D01*
Y345917D01*
X287878D01*
X288756Y344676D01*
D02*
G37*
G36*
X289582Y375922D02*
X289629Y375920D01*
X289673Y375911D01*
X289715Y375903D01*
X289754Y375892D01*
X289790Y375881D01*
X289823Y375867D01*
X289853Y375853D01*
X289881Y375839D01*
X289903Y375825D01*
X289923Y375814D01*
X289939Y375803D01*
X289953Y375795D01*
X289961Y375787D01*
X289967Y375784D01*
X289970Y375781D01*
X289997Y375753D01*
X290022Y375723D01*
X290047Y375690D01*
X290067Y375656D01*
X290100Y375590D01*
X290122Y375523D01*
X290130Y375493D01*
X290139Y375463D01*
X290144Y375438D01*
X290150Y375415D01*
X290153Y375396D01*
Y375382D01*
X290155Y375374D01*
Y375371D01*
X289914Y375346D01*
X289909Y375410D01*
X289898Y375465D01*
X289881Y375515D01*
X289862Y375554D01*
X289845Y375587D01*
X289828Y375609D01*
X289817Y375623D01*
X289812Y375629D01*
X289770Y375662D01*
X289726Y375687D01*
X289679Y375706D01*
X289637Y375717D01*
X289598Y375726D01*
X289565Y375728D01*
X289554Y375731D01*
X289538D01*
X289479Y375728D01*
X289427Y375717D01*
X289382Y375701D01*
X289344Y375684D01*
X289313Y375665D01*
X289294Y375651D01*
X289280Y375640D01*
X289274Y375634D01*
X289241Y375595D01*
X289216Y375557D01*
X289197Y375518D01*
X289186Y375479D01*
X289177Y375449D01*
X289175Y375421D01*
X289172Y375404D01*
Y375402D01*
Y375399D01*
X289177Y375349D01*
X289189Y375296D01*
X289208Y375249D01*
X289227Y375205D01*
X289249Y375169D01*
X289269Y375138D01*
X289274Y375127D01*
X289280Y375119D01*
X289285Y375116D01*
Y375114D01*
X289308Y375083D01*
X289335Y375053D01*
X289366Y375019D01*
X289399Y374986D01*
X289468Y374920D01*
X289538Y374853D01*
X289574Y374823D01*
X289604Y374795D01*
X289634Y374770D01*
X289659Y374748D01*
X289679Y374731D01*
X289695Y374717D01*
X289706Y374709D01*
X289709Y374706D01*
X289778Y374648D01*
X289842Y374593D01*
X289895Y374543D01*
X289936Y374501D01*
X289972Y374465D01*
X289997Y374440D01*
X290011Y374424D01*
X290017Y374421D01*
Y374418D01*
X290055Y374371D01*
X290086Y374327D01*
X290114Y374283D01*
X290136Y374244D01*
X290153Y374211D01*
X290163Y374185D01*
X290169Y374169D01*
X290172Y374166D01*
Y374163D01*
X290183Y374133D01*
X290189Y374105D01*
X290194Y374078D01*
X290197Y374053D01*
X290199Y374030D01*
Y374014D01*
Y374003D01*
Y374000D01*
X288928D01*
Y374227D01*
X289873D01*
X289839Y374274D01*
X289823Y374294D01*
X289809Y374313D01*
X289795Y374330D01*
X289784Y374341D01*
X289776Y374349D01*
X289773Y374352D01*
X289759Y374366D01*
X289742Y374379D01*
X289704Y374415D01*
X289659Y374457D01*
X289612Y374499D01*
X289568Y374535D01*
X289549Y374551D01*
X289532Y374568D01*
X289518Y374579D01*
X289507Y374587D01*
X289502Y374593D01*
X289499Y374595D01*
X289454Y374634D01*
X289410Y374670D01*
X289371Y374706D01*
X289335Y374737D01*
X289302Y374767D01*
X289274Y374795D01*
X289247Y374820D01*
X289225Y374842D01*
X289202Y374864D01*
X289186Y374881D01*
X289172Y374895D01*
X289158Y374908D01*
X289144Y374925D01*
X289139Y374931D01*
X289100Y374978D01*
X289067Y375019D01*
X289039Y375061D01*
X289017Y375094D01*
X289000Y375125D01*
X288989Y375147D01*
X288983Y375161D01*
X288981Y375166D01*
X288964Y375208D01*
X288953Y375249D01*
X288942Y375288D01*
X288936Y375321D01*
X288934Y375352D01*
X288931Y375374D01*
Y375388D01*
Y375393D01*
X288934Y375435D01*
X288939Y375474D01*
X288945Y375512D01*
X288956Y375546D01*
X288983Y375612D01*
X289011Y375665D01*
X289028Y375690D01*
X289042Y375709D01*
X289055Y375728D01*
X289069Y375742D01*
X289081Y375753D01*
X289086Y375764D01*
X289092Y375767D01*
X289094Y375770D01*
X289125Y375798D01*
X289158Y375823D01*
X289194Y375842D01*
X289230Y375859D01*
X289302Y375886D01*
X289374Y375906D01*
X289405Y375911D01*
X289435Y375917D01*
X289463Y375920D01*
X289485Y375922D01*
X289504Y375925D01*
X289532D01*
X289582Y375922D01*
D02*
G37*
G36*
X292000Y374000D02*
X291745D01*
Y374850D01*
X291418D01*
X291388Y374848D01*
X291366D01*
X291346Y374845D01*
X291333Y374842D01*
X291321D01*
X291316Y374839D01*
X291313D01*
X291269Y374825D01*
X291249Y374817D01*
X291233Y374809D01*
X291216Y374800D01*
X291205Y374795D01*
X291199Y374792D01*
X291197Y374789D01*
X291175Y374773D01*
X291152Y374753D01*
X291111Y374712D01*
X291091Y374693D01*
X291078Y374676D01*
X291069Y374665D01*
X291067Y374662D01*
X291039Y374623D01*
X291008Y374582D01*
X290978Y374537D01*
X290947Y374496D01*
X290922Y374457D01*
X290903Y374427D01*
X290895Y374415D01*
X290889Y374407D01*
X290884Y374402D01*
Y374399D01*
X290632Y374000D01*
X290316D01*
X290646Y374521D01*
X290684Y374576D01*
X290720Y374626D01*
X290756Y374668D01*
X290787Y374706D01*
X290814Y374734D01*
X290837Y374756D01*
X290850Y374770D01*
X290856Y374776D01*
X290878Y374792D01*
X290903Y374812D01*
X290953Y374842D01*
X290975Y374853D01*
X290992Y374864D01*
X291003Y374870D01*
X291008Y374872D01*
X290958Y374881D01*
X290911Y374889D01*
X290870Y374903D01*
X290828Y374914D01*
X290792Y374928D01*
X290759Y374944D01*
X290729Y374958D01*
X290701Y374972D01*
X290679Y374989D01*
X290657Y375003D01*
X290640Y375014D01*
X290626Y375025D01*
X290615Y375033D01*
X290607Y375042D01*
X290604Y375044D01*
X290601Y375047D01*
X290579Y375075D01*
X290557Y375102D01*
X290524Y375161D01*
X290501Y375219D01*
X290485Y375274D01*
X290474Y375321D01*
X290471Y375341D01*
Y375360D01*
X290468Y375374D01*
Y375385D01*
Y375391D01*
Y375393D01*
X290471Y375451D01*
X290479Y375504D01*
X290493Y375554D01*
X290507Y375595D01*
X290524Y375631D01*
X290535Y375659D01*
X290546Y375676D01*
X290549Y375679D01*
Y375681D01*
X290582Y375726D01*
X290615Y375764D01*
X290651Y375798D01*
X290684Y375823D01*
X290715Y375842D01*
X290740Y375853D01*
X290756Y375861D01*
X290759Y375864D01*
X290762D01*
X290787Y375872D01*
X290817Y375881D01*
X290878Y375895D01*
X290945Y375903D01*
X291006Y375911D01*
X291064Y375914D01*
X291089D01*
X291111Y375917D01*
X292000D01*
Y374000D01*
D02*
G37*
G36*
X288659Y375665D02*
X287720D01*
X287787Y375584D01*
X287851Y375499D01*
X287906Y375415D01*
X287959Y375335D01*
X287981Y375299D01*
X288000Y375266D01*
X288020Y375235D01*
X288033Y375210D01*
X288045Y375188D01*
X288053Y375174D01*
X288058Y375163D01*
X288061Y375161D01*
X288117Y375050D01*
X288166Y374939D01*
X288208Y374834D01*
X288225Y374787D01*
X288241Y374740D01*
X288258Y374698D01*
X288269Y374659D01*
X288280Y374626D01*
X288288Y374598D01*
X288297Y374573D01*
X288302Y374557D01*
X288305Y374546D01*
Y374543D01*
X288333Y374429D01*
X288344Y374374D01*
X288352Y374324D01*
X288360Y374277D01*
X288369Y374230D01*
X288374Y374191D01*
X288380Y374152D01*
X288382Y374119D01*
X288385Y374089D01*
X288388Y374061D01*
Y374039D01*
X288391Y374022D01*
Y374011D01*
Y374003D01*
Y374000D01*
X288150D01*
X288141Y374105D01*
X288128Y374202D01*
X288114Y374291D01*
X288105Y374332D01*
X288097Y374371D01*
X288092Y374404D01*
X288083Y374435D01*
X288078Y374463D01*
X288072Y374485D01*
X288067Y374501D01*
X288064Y374515D01*
X288061Y374523D01*
Y374526D01*
X288020Y374654D01*
X287975Y374773D01*
X287953Y374831D01*
X287931Y374886D01*
X287906Y374936D01*
X287884Y374986D01*
X287864Y375030D01*
X287845Y375069D01*
X287828Y375102D01*
X287815Y375133D01*
X287801Y375158D01*
X287792Y375174D01*
X287787Y375185D01*
X287784Y375188D01*
X287751Y375247D01*
X287718Y375305D01*
X287684Y375357D01*
X287651Y375407D01*
X287621Y375451D01*
X287590Y375496D01*
X287560Y375535D01*
X287535Y375568D01*
X287510Y375601D01*
X287488Y375629D01*
X287466Y375651D01*
X287449Y375670D01*
X287438Y375687D01*
X287427Y375698D01*
X287421Y375704D01*
X287419Y375706D01*
Y375892D01*
X288659D01*
Y375665D01*
D02*
G37*
G36*
X289582Y385956D02*
X289629Y385953D01*
X289673Y385945D01*
X289715Y385936D01*
X289754Y385925D01*
X289790Y385914D01*
X289823Y385900D01*
X289853Y385886D01*
X289881Y385873D01*
X289903Y385859D01*
X289923Y385847D01*
X289939Y385837D01*
X289953Y385828D01*
X289961Y385820D01*
X289967Y385817D01*
X289970Y385814D01*
X289997Y385787D01*
X290022Y385756D01*
X290047Y385723D01*
X290067Y385690D01*
X290100Y385623D01*
X290122Y385557D01*
X290130Y385526D01*
X290139Y385496D01*
X290144Y385471D01*
X290150Y385449D01*
X290153Y385429D01*
Y385415D01*
X290155Y385407D01*
Y385404D01*
X289914Y385379D01*
X289909Y385443D01*
X289898Y385498D01*
X289881Y385548D01*
X289862Y385587D01*
X289845Y385620D01*
X289828Y385643D01*
X289817Y385656D01*
X289812Y385662D01*
X289770Y385695D01*
X289726Y385720D01*
X289679Y385739D01*
X289637Y385751D01*
X289598Y385759D01*
X289565Y385762D01*
X289554Y385764D01*
X289538D01*
X289479Y385762D01*
X289427Y385751D01*
X289382Y385734D01*
X289344Y385717D01*
X289313Y385698D01*
X289294Y385684D01*
X289280Y385673D01*
X289274Y385667D01*
X289241Y385629D01*
X289216Y385590D01*
X289197Y385551D01*
X289186Y385512D01*
X289177Y385482D01*
X289175Y385454D01*
X289172Y385438D01*
Y385435D01*
Y385432D01*
X289177Y385382D01*
X289189Y385330D01*
X289208Y385282D01*
X289227Y385238D01*
X289249Y385202D01*
X289269Y385172D01*
X289274Y385161D01*
X289280Y385152D01*
X289285Y385150D01*
Y385147D01*
X289308Y385116D01*
X289335Y385086D01*
X289366Y385053D01*
X289399Y385019D01*
X289468Y384953D01*
X289538Y384886D01*
X289574Y384856D01*
X289604Y384828D01*
X289634Y384803D01*
X289659Y384781D01*
X289679Y384765D01*
X289695Y384751D01*
X289706Y384742D01*
X289709Y384739D01*
X289778Y384681D01*
X289842Y384626D01*
X289895Y384576D01*
X289936Y384535D01*
X289972Y384499D01*
X289997Y384474D01*
X290011Y384457D01*
X290017Y384454D01*
Y384452D01*
X290055Y384404D01*
X290086Y384360D01*
X290114Y384316D01*
X290136Y384277D01*
X290153Y384244D01*
X290163Y384219D01*
X290169Y384202D01*
X290172Y384199D01*
Y384197D01*
X290183Y384166D01*
X290189Y384138D01*
X290194Y384111D01*
X290197Y384086D01*
X290199Y384064D01*
Y384047D01*
Y384036D01*
Y384033D01*
X288928D01*
Y384260D01*
X289873D01*
X289839Y384307D01*
X289823Y384327D01*
X289809Y384346D01*
X289795Y384363D01*
X289784Y384374D01*
X289776Y384382D01*
X289773Y384385D01*
X289759Y384399D01*
X289742Y384413D01*
X289704Y384449D01*
X289659Y384490D01*
X289612Y384532D01*
X289568Y384568D01*
X289549Y384584D01*
X289532Y384601D01*
X289518Y384612D01*
X289507Y384620D01*
X289502Y384626D01*
X289499Y384629D01*
X289454Y384667D01*
X289410Y384703D01*
X289371Y384739D01*
X289335Y384770D01*
X289302Y384801D01*
X289274Y384828D01*
X289247Y384853D01*
X289225Y384875D01*
X289202Y384897D01*
X289186Y384914D01*
X289172Y384928D01*
X289158Y384942D01*
X289144Y384958D01*
X289139Y384964D01*
X289100Y385011D01*
X289067Y385053D01*
X289039Y385094D01*
X289017Y385127D01*
X289000Y385158D01*
X288989Y385180D01*
X288983Y385194D01*
X288981Y385199D01*
X288964Y385241D01*
X288953Y385282D01*
X288942Y385321D01*
X288936Y385354D01*
X288934Y385385D01*
X288931Y385407D01*
Y385421D01*
Y385426D01*
X288934Y385468D01*
X288939Y385507D01*
X288945Y385546D01*
X288956Y385579D01*
X288983Y385645D01*
X289011Y385698D01*
X289028Y385723D01*
X289042Y385742D01*
X289055Y385762D01*
X289069Y385775D01*
X289081Y385787D01*
X289086Y385798D01*
X289092Y385801D01*
X289094Y385803D01*
X289125Y385831D01*
X289158Y385856D01*
X289194Y385875D01*
X289230Y385892D01*
X289302Y385920D01*
X289374Y385939D01*
X289405Y385945D01*
X289435Y385950D01*
X289463Y385953D01*
X289485Y385956D01*
X289504Y385958D01*
X289532D01*
X289582Y385956D01*
D02*
G37*
G36*
X292000Y384033D02*
X291745D01*
Y384884D01*
X291418D01*
X291388Y384881D01*
X291366D01*
X291346Y384878D01*
X291333Y384875D01*
X291321D01*
X291316Y384873D01*
X291313D01*
X291269Y384859D01*
X291249Y384850D01*
X291233Y384842D01*
X291216Y384834D01*
X291205Y384828D01*
X291199Y384825D01*
X291197Y384823D01*
X291175Y384806D01*
X291152Y384787D01*
X291111Y384745D01*
X291091Y384726D01*
X291078Y384709D01*
X291069Y384698D01*
X291067Y384695D01*
X291039Y384656D01*
X291008Y384615D01*
X290978Y384571D01*
X290947Y384529D01*
X290922Y384490D01*
X290903Y384460D01*
X290895Y384449D01*
X290889Y384440D01*
X290884Y384435D01*
Y384432D01*
X290632Y384033D01*
X290316D01*
X290646Y384554D01*
X290684Y384609D01*
X290720Y384659D01*
X290756Y384701D01*
X290787Y384739D01*
X290814Y384767D01*
X290837Y384789D01*
X290850Y384803D01*
X290856Y384809D01*
X290878Y384825D01*
X290903Y384845D01*
X290953Y384875D01*
X290975Y384886D01*
X290992Y384897D01*
X291003Y384903D01*
X291008Y384906D01*
X290958Y384914D01*
X290911Y384922D01*
X290870Y384936D01*
X290828Y384947D01*
X290792Y384961D01*
X290759Y384978D01*
X290729Y384992D01*
X290701Y385005D01*
X290679Y385022D01*
X290657Y385036D01*
X290640Y385047D01*
X290626Y385058D01*
X290615Y385066D01*
X290607Y385075D01*
X290604Y385078D01*
X290601Y385080D01*
X290579Y385108D01*
X290557Y385136D01*
X290524Y385194D01*
X290501Y385252D01*
X290485Y385307D01*
X290474Y385354D01*
X290471Y385374D01*
Y385393D01*
X290468Y385407D01*
Y385418D01*
Y385424D01*
Y385426D01*
X290471Y385485D01*
X290479Y385537D01*
X290493Y385587D01*
X290507Y385629D01*
X290524Y385665D01*
X290535Y385692D01*
X290546Y385709D01*
X290549Y385712D01*
Y385715D01*
X290582Y385759D01*
X290615Y385798D01*
X290651Y385831D01*
X290684Y385856D01*
X290715Y385875D01*
X290740Y385886D01*
X290756Y385895D01*
X290759Y385897D01*
X290762D01*
X290787Y385906D01*
X290817Y385914D01*
X290878Y385928D01*
X290945Y385936D01*
X291006Y385945D01*
X291064Y385947D01*
X291089D01*
X291111Y385950D01*
X292000D01*
Y384033D01*
D02*
G37*
G36*
X288125Y385953D02*
X288194Y385942D01*
X288252Y385922D01*
X288302Y385903D01*
X288344Y385881D01*
X288360Y385873D01*
X288374Y385861D01*
X288385Y385856D01*
X288393Y385850D01*
X288396Y385845D01*
X288399D01*
X288449Y385801D01*
X288491Y385748D01*
X288527Y385695D01*
X288554Y385645D01*
X288576Y385598D01*
X288587Y385579D01*
X288593Y385560D01*
X288598Y385546D01*
X288604Y385535D01*
X288607Y385529D01*
Y385526D01*
X288618Y385485D01*
X288629Y385443D01*
X288646Y385352D01*
X288659Y385260D01*
X288668Y385174D01*
X288670Y385133D01*
X288673Y385097D01*
Y385064D01*
X288676Y385033D01*
Y385011D01*
Y384992D01*
Y384981D01*
Y384978D01*
X288673Y384881D01*
X288668Y384789D01*
X288659Y384706D01*
X288646Y384629D01*
X288632Y384557D01*
X288615Y384493D01*
X288598Y384435D01*
X288582Y384385D01*
X288565Y384341D01*
X288546Y384302D01*
X288532Y384269D01*
X288518Y384244D01*
X288504Y384222D01*
X288496Y384208D01*
X288491Y384199D01*
X288488Y384197D01*
X288457Y384163D01*
X288424Y384133D01*
X288388Y384105D01*
X288352Y384083D01*
X288316Y384064D01*
X288280Y384047D01*
X288244Y384036D01*
X288211Y384025D01*
X288177Y384017D01*
X288147Y384011D01*
X288119Y384005D01*
X288097Y384003D01*
X288078Y384000D01*
X288050D01*
X287975Y384005D01*
X287906Y384017D01*
X287848Y384036D01*
X287798Y384055D01*
X287756Y384075D01*
X287743Y384086D01*
X287729Y384094D01*
X287718Y384100D01*
X287709Y384105D01*
X287707Y384111D01*
X287704D01*
X287654Y384158D01*
X287612Y384208D01*
X287576Y384263D01*
X287549Y384313D01*
X287526Y384360D01*
X287515Y384379D01*
X287510Y384399D01*
X287504Y384413D01*
X287499Y384424D01*
X287496Y384429D01*
Y384432D01*
X287482Y384474D01*
X287471Y384515D01*
X287455Y384604D01*
X287441Y384695D01*
X287432Y384784D01*
X287430Y384823D01*
X287427Y384859D01*
Y384892D01*
X287424Y384922D01*
Y384945D01*
Y384964D01*
Y384975D01*
Y384978D01*
Y385030D01*
X287427Y385080D01*
Y385125D01*
X287430Y385169D01*
X287435Y385208D01*
X287438Y385246D01*
X287441Y385280D01*
X287446Y385310D01*
X287449Y385338D01*
X287455Y385363D01*
X287457Y385382D01*
X287460Y385399D01*
X287463Y385413D01*
X287466Y385421D01*
X287468Y385426D01*
Y385429D01*
X287485Y385490D01*
X287504Y385546D01*
X287526Y385593D01*
X287543Y385634D01*
X287562Y385670D01*
X287574Y385695D01*
X287585Y385709D01*
X287587Y385715D01*
X287618Y385756D01*
X287648Y385792D01*
X287682Y385823D01*
X287712Y385850D01*
X287740Y385870D01*
X287762Y385884D01*
X287776Y385892D01*
X287779Y385895D01*
X287781D01*
X287826Y385917D01*
X287873Y385931D01*
X287917Y385942D01*
X287959Y385950D01*
X287995Y385956D01*
X288025Y385958D01*
X288050D01*
X288125Y385953D01*
D02*
G37*
G36*
X288155Y395953D02*
X288230Y395939D01*
X288294Y395917D01*
X288349Y395895D01*
X288374Y395881D01*
X288393Y395870D01*
X288413Y395859D01*
X288427Y395848D01*
X288438Y395839D01*
X288446Y395834D01*
X288452Y395831D01*
X288454Y395828D01*
X288507Y395776D01*
X288549Y395717D01*
X288582Y395656D01*
X288610Y395596D01*
X288626Y395543D01*
X288634Y395521D01*
X288640Y395501D01*
X288643Y395485D01*
X288646Y395474D01*
X288648Y395465D01*
Y395462D01*
X288413Y395421D01*
X288402Y395482D01*
X288385Y395534D01*
X288366Y395579D01*
X288346Y395615D01*
X288327Y395643D01*
X288310Y395662D01*
X288299Y395676D01*
X288297Y395679D01*
X288261Y395706D01*
X288222Y395728D01*
X288186Y395742D01*
X288150Y395753D01*
X288117Y395759D01*
X288092Y395764D01*
X288069D01*
X288020Y395762D01*
X287975Y395751D01*
X287936Y395737D01*
X287903Y395723D01*
X287878Y395706D01*
X287859Y395692D01*
X287845Y395681D01*
X287842Y395679D01*
X287812Y395645D01*
X287790Y395609D01*
X287776Y395573D01*
X287765Y395540D01*
X287759Y395510D01*
X287754Y395487D01*
Y395471D01*
Y395468D01*
Y395465D01*
Y395435D01*
X287759Y395407D01*
X287773Y395360D01*
X287792Y395319D01*
X287815Y395283D01*
X287837Y395257D01*
X287856Y395238D01*
X287870Y395227D01*
X287873Y395224D01*
X287876D01*
X287923Y395199D01*
X287967Y395180D01*
X288014Y395166D01*
X288056Y395158D01*
X288092Y395152D01*
X288122Y395147D01*
X288158D01*
X288169Y395149D01*
X288183D01*
X288211Y394942D01*
X288175Y394950D01*
X288141Y394956D01*
X288114Y394961D01*
X288089Y394964D01*
X288069Y394967D01*
X288045D01*
X287986Y394961D01*
X287934Y394950D01*
X287887Y394933D01*
X287848Y394914D01*
X287817Y394895D01*
X287795Y394878D01*
X287781Y394867D01*
X287776Y394861D01*
X287740Y394820D01*
X287712Y394776D01*
X287693Y394731D01*
X287682Y394687D01*
X287673Y394651D01*
X287670Y394620D01*
X287668Y394609D01*
Y394601D01*
Y394596D01*
Y394593D01*
X287673Y394532D01*
X287687Y394476D01*
X287704Y394429D01*
X287726Y394388D01*
X287748Y394355D01*
X287765Y394330D01*
X287779Y394313D01*
X287784Y394307D01*
X287828Y394269D01*
X287876Y394241D01*
X287923Y394221D01*
X287967Y394208D01*
X288006Y394199D01*
X288036Y394197D01*
X288047Y394194D01*
X288064D01*
X288114Y394197D01*
X288161Y394208D01*
X288202Y394221D01*
X288236Y394238D01*
X288263Y394252D01*
X288285Y394266D01*
X288297Y394277D01*
X288302Y394280D01*
X288335Y394319D01*
X288363Y394363D01*
X288388Y394410D01*
X288407Y394460D01*
X288421Y394501D01*
X288427Y394521D01*
X288429Y394537D01*
X288432Y394551D01*
X288435Y394562D01*
X288438Y394568D01*
Y394571D01*
X288673Y394540D01*
X288668Y394496D01*
X288659Y394454D01*
X288634Y394377D01*
X288604Y394310D01*
X288587Y394283D01*
X288571Y394255D01*
X288554Y394230D01*
X288538Y394211D01*
X288524Y394191D01*
X288510Y394177D01*
X288502Y394166D01*
X288493Y394158D01*
X288488Y394152D01*
X288485Y394149D01*
X288452Y394125D01*
X288418Y394100D01*
X288385Y394080D01*
X288349Y394064D01*
X288280Y394036D01*
X288213Y394019D01*
X288183Y394014D01*
X288155Y394008D01*
X288130Y394005D01*
X288108Y394003D01*
X288092Y394000D01*
X288067D01*
X288014Y394003D01*
X287967Y394008D01*
X287920Y394017D01*
X287876Y394028D01*
X287834Y394041D01*
X287798Y394055D01*
X287762Y394072D01*
X287732Y394089D01*
X287701Y394102D01*
X287676Y394119D01*
X287654Y394133D01*
X287637Y394147D01*
X287624Y394158D01*
X287612Y394166D01*
X287607Y394172D01*
X287604Y394175D01*
X287571Y394208D01*
X287543Y394244D01*
X287518Y394280D01*
X287496Y394316D01*
X287479Y394349D01*
X287463Y394385D01*
X287441Y394451D01*
X287435Y394482D01*
X287430Y394510D01*
X287424Y394535D01*
X287421Y394557D01*
X287419Y394573D01*
Y394587D01*
Y394596D01*
Y394598D01*
X287421Y394665D01*
X287432Y394726D01*
X287449Y394778D01*
X287466Y394823D01*
X287482Y394859D01*
X287499Y394886D01*
X287510Y394903D01*
X287513Y394908D01*
X287551Y394950D01*
X287593Y394986D01*
X287637Y395014D01*
X287682Y395036D01*
X287720Y395053D01*
X287751Y395064D01*
X287762Y395066D01*
X287770Y395069D01*
X287776Y395072D01*
X287779D01*
X287732Y395097D01*
X287693Y395122D01*
X287660Y395149D01*
X287632Y395174D01*
X287610Y395197D01*
X287593Y395216D01*
X287585Y395227D01*
X287582Y395233D01*
X287560Y395271D01*
X287543Y395310D01*
X287529Y395349D01*
X287521Y395385D01*
X287515Y395415D01*
X287513Y395438D01*
Y395454D01*
Y395460D01*
X287515Y395507D01*
X287524Y395554D01*
X287535Y395596D01*
X287549Y395632D01*
X287562Y395662D01*
X287574Y395687D01*
X287582Y395701D01*
X287585Y395706D01*
X287612Y395748D01*
X287646Y395784D01*
X287679Y395814D01*
X287712Y395842D01*
X287740Y395861D01*
X287765Y395878D01*
X287781Y395886D01*
X287784Y395889D01*
X287787D01*
X287837Y395911D01*
X287887Y395928D01*
X287936Y395942D01*
X287981Y395950D01*
X288017Y395956D01*
X288047Y395958D01*
X288117D01*
X288155Y395953D01*
D02*
G37*
G36*
X289582Y395956D02*
X289629Y395953D01*
X289673Y395944D01*
X289715Y395936D01*
X289754Y395925D01*
X289790Y395914D01*
X289823Y395900D01*
X289853Y395886D01*
X289881Y395872D01*
X289903Y395859D01*
X289923Y395848D01*
X289939Y395836D01*
X289953Y395828D01*
X289961Y395820D01*
X289967Y395817D01*
X289970Y395814D01*
X289997Y395787D01*
X290022Y395756D01*
X290047Y395723D01*
X290067Y395690D01*
X290100Y395623D01*
X290122Y395557D01*
X290130Y395526D01*
X290139Y395496D01*
X290144Y395471D01*
X290150Y395449D01*
X290153Y395429D01*
Y395415D01*
X290155Y395407D01*
Y395404D01*
X289914Y395379D01*
X289909Y395443D01*
X289898Y395498D01*
X289881Y395548D01*
X289862Y395587D01*
X289845Y395620D01*
X289828Y395643D01*
X289817Y395656D01*
X289812Y395662D01*
X289770Y395695D01*
X289726Y395720D01*
X289679Y395740D01*
X289637Y395751D01*
X289598Y395759D01*
X289565Y395762D01*
X289554Y395764D01*
X289538D01*
X289479Y395762D01*
X289427Y395751D01*
X289382Y395734D01*
X289344Y395717D01*
X289313Y395698D01*
X289294Y395684D01*
X289280Y395673D01*
X289274Y395668D01*
X289241Y395629D01*
X289216Y395590D01*
X289197Y395551D01*
X289186Y395512D01*
X289177Y395482D01*
X289175Y395454D01*
X289172Y395438D01*
Y395435D01*
Y395432D01*
X289177Y395382D01*
X289189Y395330D01*
X289208Y395283D01*
X289227Y395238D01*
X289249Y395202D01*
X289269Y395172D01*
X289274Y395161D01*
X289280Y395152D01*
X289285Y395149D01*
Y395147D01*
X289308Y395116D01*
X289335Y395086D01*
X289366Y395053D01*
X289399Y395019D01*
X289468Y394953D01*
X289538Y394886D01*
X289574Y394856D01*
X289604Y394828D01*
X289634Y394803D01*
X289659Y394781D01*
X289679Y394764D01*
X289695Y394751D01*
X289706Y394742D01*
X289709Y394740D01*
X289778Y394681D01*
X289842Y394626D01*
X289895Y394576D01*
X289936Y394535D01*
X289972Y394498D01*
X289997Y394474D01*
X290011Y394457D01*
X290017Y394454D01*
Y394451D01*
X290055Y394404D01*
X290086Y394360D01*
X290114Y394316D01*
X290136Y394277D01*
X290153Y394244D01*
X290163Y394219D01*
X290169Y394202D01*
X290172Y394199D01*
Y394197D01*
X290183Y394166D01*
X290189Y394139D01*
X290194Y394111D01*
X290197Y394086D01*
X290199Y394064D01*
Y394047D01*
Y394036D01*
Y394033D01*
X288928D01*
Y394260D01*
X289873D01*
X289839Y394307D01*
X289823Y394327D01*
X289809Y394346D01*
X289795Y394363D01*
X289784Y394374D01*
X289776Y394382D01*
X289773Y394385D01*
X289759Y394399D01*
X289742Y394413D01*
X289704Y394449D01*
X289659Y394490D01*
X289612Y394532D01*
X289568Y394568D01*
X289549Y394584D01*
X289532Y394601D01*
X289518Y394612D01*
X289507Y394620D01*
X289502Y394626D01*
X289499Y394629D01*
X289454Y394668D01*
X289410Y394704D01*
X289371Y394740D01*
X289335Y394770D01*
X289302Y394800D01*
X289274Y394828D01*
X289247Y394853D01*
X289225Y394875D01*
X289202Y394897D01*
X289186Y394914D01*
X289172Y394928D01*
X289158Y394942D01*
X289144Y394958D01*
X289139Y394964D01*
X289100Y395011D01*
X289067Y395053D01*
X289039Y395094D01*
X289017Y395127D01*
X289000Y395158D01*
X288989Y395180D01*
X288983Y395194D01*
X288981Y395199D01*
X288964Y395241D01*
X288953Y395283D01*
X288942Y395321D01*
X288936Y395355D01*
X288934Y395385D01*
X288931Y395407D01*
Y395421D01*
Y395427D01*
X288934Y395468D01*
X288939Y395507D01*
X288945Y395546D01*
X288956Y395579D01*
X288983Y395645D01*
X289011Y395698D01*
X289028Y395723D01*
X289042Y395742D01*
X289055Y395762D01*
X289069Y395776D01*
X289081Y395787D01*
X289086Y395798D01*
X289092Y395800D01*
X289094Y395803D01*
X289125Y395831D01*
X289158Y395856D01*
X289194Y395875D01*
X289230Y395892D01*
X289302Y395920D01*
X289374Y395939D01*
X289405Y395944D01*
X289435Y395950D01*
X289463Y395953D01*
X289485Y395956D01*
X289504Y395958D01*
X289532D01*
X289582Y395956D01*
D02*
G37*
G36*
X292000Y394033D02*
X291745D01*
Y394884D01*
X291418D01*
X291388Y394881D01*
X291366D01*
X291346Y394878D01*
X291333Y394875D01*
X291321D01*
X291316Y394872D01*
X291313D01*
X291269Y394859D01*
X291249Y394850D01*
X291233Y394842D01*
X291216Y394834D01*
X291205Y394828D01*
X291199Y394825D01*
X291197Y394823D01*
X291175Y394806D01*
X291152Y394787D01*
X291111Y394745D01*
X291091Y394726D01*
X291078Y394709D01*
X291069Y394698D01*
X291067Y394695D01*
X291039Y394656D01*
X291008Y394615D01*
X290978Y394571D01*
X290947Y394529D01*
X290922Y394490D01*
X290903Y394460D01*
X290895Y394449D01*
X290889Y394440D01*
X290884Y394435D01*
Y394432D01*
X290632Y394033D01*
X290316D01*
X290646Y394554D01*
X290684Y394609D01*
X290720Y394659D01*
X290756Y394701D01*
X290787Y394740D01*
X290814Y394767D01*
X290837Y394789D01*
X290850Y394803D01*
X290856Y394809D01*
X290878Y394825D01*
X290903Y394845D01*
X290953Y394875D01*
X290975Y394886D01*
X290992Y394897D01*
X291003Y394903D01*
X291008Y394906D01*
X290958Y394914D01*
X290911Y394922D01*
X290870Y394936D01*
X290828Y394947D01*
X290792Y394961D01*
X290759Y394978D01*
X290729Y394992D01*
X290701Y395005D01*
X290679Y395022D01*
X290657Y395036D01*
X290640Y395047D01*
X290626Y395058D01*
X290615Y395066D01*
X290607Y395075D01*
X290604Y395077D01*
X290601Y395080D01*
X290579Y395108D01*
X290557Y395136D01*
X290524Y395194D01*
X290501Y395252D01*
X290485Y395307D01*
X290474Y395355D01*
X290471Y395374D01*
Y395393D01*
X290468Y395407D01*
Y395418D01*
Y395424D01*
Y395427D01*
X290471Y395485D01*
X290479Y395537D01*
X290493Y395587D01*
X290507Y395629D01*
X290524Y395665D01*
X290535Y395692D01*
X290546Y395709D01*
X290549Y395712D01*
Y395715D01*
X290582Y395759D01*
X290615Y395798D01*
X290651Y395831D01*
X290684Y395856D01*
X290715Y395875D01*
X290740Y395886D01*
X290756Y395895D01*
X290759Y395897D01*
X290762D01*
X290787Y395906D01*
X290817Y395914D01*
X290878Y395928D01*
X290945Y395936D01*
X291006Y395944D01*
X291064Y395947D01*
X291089D01*
X291111Y395950D01*
X292000D01*
Y394033D01*
D02*
G37*
G36*
X289460Y405878D02*
X289490Y405834D01*
X289526Y405789D01*
X289560Y405751D01*
X289593Y405717D01*
X289618Y405690D01*
X289629Y405681D01*
X289637Y405673D01*
X289640Y405670D01*
X289643Y405667D01*
X289701Y405620D01*
X289759Y405576D01*
X289814Y405537D01*
X289870Y405507D01*
X289917Y405479D01*
X289936Y405468D01*
X289953Y405460D01*
X289967Y405451D01*
X289978Y405449D01*
X289984Y405443D01*
X289986D01*
Y405216D01*
X289945Y405233D01*
X289903Y405252D01*
X289862Y405271D01*
X289823Y405291D01*
X289790Y405307D01*
X289762Y405321D01*
X289745Y405332D01*
X289742Y405335D01*
X289740D01*
X289690Y405366D01*
X289646Y405396D01*
X289607Y405424D01*
X289576Y405449D01*
X289549Y405468D01*
X289532Y405485D01*
X289518Y405496D01*
X289515Y405499D01*
Y404000D01*
X289280D01*
Y405925D01*
X289432D01*
X289460Y405878D01*
D02*
G37*
G36*
X292000Y404000D02*
X291745D01*
Y404850D01*
X291418D01*
X291388Y404848D01*
X291366D01*
X291346Y404845D01*
X291333Y404842D01*
X291321D01*
X291316Y404839D01*
X291313D01*
X291269Y404825D01*
X291249Y404817D01*
X291233Y404809D01*
X291216Y404801D01*
X291205Y404795D01*
X291199Y404792D01*
X291197Y404789D01*
X291175Y404773D01*
X291152Y404753D01*
X291111Y404712D01*
X291091Y404693D01*
X291078Y404676D01*
X291069Y404665D01*
X291067Y404662D01*
X291039Y404623D01*
X291008Y404582D01*
X290978Y404537D01*
X290947Y404496D01*
X290922Y404457D01*
X290903Y404426D01*
X290895Y404416D01*
X290889Y404407D01*
X290884Y404402D01*
Y404399D01*
X290632Y404000D01*
X290316D01*
X290646Y404521D01*
X290684Y404576D01*
X290720Y404626D01*
X290756Y404668D01*
X290787Y404706D01*
X290814Y404734D01*
X290837Y404756D01*
X290850Y404770D01*
X290856Y404776D01*
X290878Y404792D01*
X290903Y404812D01*
X290953Y404842D01*
X290975Y404853D01*
X290992Y404864D01*
X291003Y404870D01*
X291008Y404873D01*
X290958Y404881D01*
X290911Y404889D01*
X290870Y404903D01*
X290828Y404914D01*
X290792Y404928D01*
X290759Y404945D01*
X290729Y404958D01*
X290701Y404972D01*
X290679Y404989D01*
X290657Y405003D01*
X290640Y405014D01*
X290626Y405025D01*
X290615Y405033D01*
X290607Y405042D01*
X290604Y405044D01*
X290601Y405047D01*
X290579Y405075D01*
X290557Y405102D01*
X290524Y405161D01*
X290501Y405219D01*
X290485Y405274D01*
X290474Y405321D01*
X290471Y405341D01*
Y405360D01*
X290468Y405374D01*
Y405385D01*
Y405391D01*
Y405393D01*
X290471Y405451D01*
X290479Y405504D01*
X290493Y405554D01*
X290507Y405595D01*
X290524Y405631D01*
X290535Y405659D01*
X290546Y405676D01*
X290549Y405679D01*
Y405681D01*
X290582Y405726D01*
X290615Y405764D01*
X290651Y405798D01*
X290684Y405823D01*
X290715Y405842D01*
X290740Y405853D01*
X290756Y405861D01*
X290759Y405864D01*
X290762D01*
X290787Y405872D01*
X290817Y405881D01*
X290878Y405895D01*
X290945Y405903D01*
X291006Y405911D01*
X291064Y405914D01*
X291089D01*
X291111Y405917D01*
X292000D01*
Y404000D01*
D02*
G37*
%LPC*%
G36*
X516898Y373745D02*
X516263D01*
Y373141D01*
X516266Y373067D01*
X516277Y373003D01*
X516291Y372948D01*
X516308Y372906D01*
X516324Y372870D01*
X516338Y372848D01*
X516349Y372834D01*
X516352Y372828D01*
X516388Y372795D01*
X516424Y372770D01*
X516463Y372754D01*
X516496Y372740D01*
X516529Y372734D01*
X516554Y372731D01*
X516571Y372729D01*
X516573D01*
X516576D01*
X516609Y372731D01*
X516643Y372737D01*
X516670Y372745D01*
X516695Y372754D01*
X516717Y372765D01*
X516734Y372773D01*
X516745Y372779D01*
X516748Y372781D01*
X516776Y372801D01*
X516801Y372826D01*
X516820Y372850D01*
X516837Y372875D01*
X516848Y372898D01*
X516856Y372914D01*
X516862Y372925D01*
X516864Y372931D01*
X516875Y372970D01*
X516884Y373014D01*
X516889Y373058D01*
X516892Y373103D01*
X516895Y373141D01*
X516898Y373175D01*
Y373745D01*
D02*
G37*
G36*
X272537Y305773D02*
X272535D01*
X272532D01*
X272488Y305770D01*
X272449Y305759D01*
X272413Y305745D01*
X272382Y305729D01*
X272357Y305715D01*
X272338Y305701D01*
X272327Y305690D01*
X272324Y305687D01*
X272294Y305651D01*
X272272Y305615D01*
X272258Y305576D01*
X272247Y305540D01*
X272241Y305507D01*
X272236Y305482D01*
Y305460D01*
X272238Y305413D01*
X272249Y305368D01*
X272263Y305332D01*
X272280Y305299D01*
X272297Y305274D01*
X272310Y305255D01*
X272321Y305241D01*
X272324Y305238D01*
X272360Y305208D01*
X272396Y305186D01*
X272432Y305169D01*
X272465Y305158D01*
X272496Y305153D01*
X272521Y305147D01*
X272537D01*
X272540D01*
X272543D01*
X272587Y305150D01*
X272629Y305161D01*
X272665Y305175D01*
X272695Y305191D01*
X272720Y305208D01*
X272737Y305222D01*
X272751Y305233D01*
X272754Y305236D01*
X272781Y305269D01*
X272803Y305308D01*
X272817Y305344D01*
X272828Y305380D01*
X272834Y305413D01*
X272837Y305438D01*
X272839Y305454D01*
Y305460D01*
X272837Y305510D01*
X272826Y305554D01*
X272812Y305593D01*
X272795Y305626D01*
X272781Y305651D01*
X272767Y305670D01*
X272756Y305684D01*
X272754Y305687D01*
X272720Y305715D01*
X272681Y305737D01*
X272645Y305751D01*
X272609Y305762D01*
X272579Y305767D01*
X272554Y305770D01*
X272537Y305773D01*
D02*
G37*
G36*
X273432Y305851D02*
X273421D01*
X273416D01*
X273357Y305845D01*
X273305Y305834D01*
X273258Y305817D01*
X273216Y305795D01*
X273186Y305776D01*
X273161Y305759D01*
X273147Y305748D01*
X273141Y305743D01*
X273105Y305701D01*
X273078Y305654D01*
X273058Y305609D01*
X273044Y305565D01*
X273036Y305526D01*
X273033Y305496D01*
X273030Y305485D01*
Y305468D01*
X273036Y305407D01*
X273047Y305352D01*
X273067Y305302D01*
X273086Y305260D01*
X273108Y305227D01*
X273128Y305202D01*
X273139Y305188D01*
X273144Y305183D01*
X273188Y305144D01*
X273236Y305117D01*
X273283Y305097D01*
X273324Y305083D01*
X273366Y305075D01*
X273396Y305072D01*
X273407Y305069D01*
X273416D01*
X273421D01*
X273424D01*
X273482Y305075D01*
X273537Y305086D01*
X273585Y305105D01*
X273623Y305125D01*
X273654Y305144D01*
X273679Y305164D01*
X273693Y305175D01*
X273698Y305180D01*
X273734Y305224D01*
X273762Y305269D01*
X273778Y305316D01*
X273792Y305360D01*
X273801Y305399D01*
X273803Y305432D01*
X273806Y305443D01*
Y305460D01*
X273803Y305499D01*
X273798Y305538D01*
X273790Y305574D01*
X273781Y305604D01*
X273773Y305629D01*
X273765Y305648D01*
X273759Y305659D01*
X273756Y305665D01*
X273734Y305698D01*
X273712Y305726D01*
X273687Y305751D01*
X273662Y305770D01*
X273643Y305787D01*
X273626Y305798D01*
X273612Y305803D01*
X273609Y305806D01*
X273573Y305820D01*
X273540Y305831D01*
X273507Y305839D01*
X273477Y305845D01*
X273452Y305848D01*
X273432Y305851D01*
D02*
G37*
G36*
X322931Y307745D02*
X322297D01*
Y307141D01*
X322299Y307067D01*
X322310Y307003D01*
X322324Y306947D01*
X322341Y306906D01*
X322357Y306870D01*
X322371Y306848D01*
X322382Y306834D01*
X322385Y306828D01*
X322421Y306795D01*
X322457Y306770D01*
X322496Y306754D01*
X322529Y306740D01*
X322562Y306734D01*
X322587Y306731D01*
X322604Y306729D01*
X322607D01*
X322609D01*
X322643Y306731D01*
X322676Y306737D01*
X322704Y306745D01*
X322729Y306754D01*
X322751Y306765D01*
X322767Y306773D01*
X322779Y306779D01*
X322781Y306781D01*
X322809Y306801D01*
X322834Y306826D01*
X322853Y306851D01*
X322870Y306875D01*
X322881Y306898D01*
X322889Y306914D01*
X322895Y306925D01*
X322898Y306931D01*
X322909Y306970D01*
X322917Y307014D01*
X322922Y307058D01*
X322925Y307103D01*
X322928Y307141D01*
X322931Y307175D01*
Y307745D01*
D02*
G37*
G36*
X442050Y321069D02*
X442033D01*
X441975Y321064D01*
X441923Y321050D01*
X441878Y321033D01*
X441840Y321011D01*
X441809Y320989D01*
X441787Y320972D01*
X441773Y320958D01*
X441768Y320953D01*
X441732Y320906D01*
X441704Y320856D01*
X441684Y320803D01*
X441673Y320753D01*
X441665Y320709D01*
X441662Y320690D01*
Y320673D01*
X441659Y320659D01*
Y320648D01*
Y320643D01*
Y320640D01*
X441665Y320565D01*
X441676Y320501D01*
X441693Y320446D01*
X441712Y320399D01*
X441734Y320363D01*
X441751Y320335D01*
X441762Y320319D01*
X441768Y320316D01*
Y320313D01*
X441787Y320291D01*
X441809Y320274D01*
X441853Y320244D01*
X441898Y320224D01*
X441936Y320208D01*
X441972Y320199D01*
X442000Y320197D01*
X442011Y320194D01*
X442025D01*
X442064Y320197D01*
X442100Y320202D01*
X442133Y320213D01*
X442161Y320224D01*
X442186Y320233D01*
X442205Y320244D01*
X442216Y320249D01*
X442222Y320252D01*
X442255Y320277D01*
X442283Y320302D01*
X442308Y320332D01*
X442327Y320357D01*
X442344Y320382D01*
X442355Y320402D01*
X442363Y320415D01*
X442366Y320421D01*
X442382Y320462D01*
X442393Y320504D01*
X442405Y320543D01*
X442410Y320579D01*
X442413Y320609D01*
X442416Y320634D01*
Y320648D01*
Y320654D01*
X442410Y320720D01*
X442399Y320778D01*
X442380Y320831D01*
X442360Y320872D01*
X442341Y320908D01*
X442321Y320933D01*
X442310Y320947D01*
X442305Y320953D01*
X442261Y320992D01*
X442216Y321019D01*
X442169Y321041D01*
X442128Y321055D01*
X442089Y321064D01*
X442061Y321066D01*
X442050Y321069D01*
D02*
G37*
G36*
X445745Y321737D02*
X445141D01*
X445067Y321734D01*
X445003Y321723D01*
X444947Y321709D01*
X444906Y321692D01*
X444870Y321676D01*
X444848Y321662D01*
X444834Y321651D01*
X444828Y321648D01*
X444795Y321612D01*
X444770Y321576D01*
X444754Y321537D01*
X444740Y321504D01*
X444734Y321471D01*
X444731Y321446D01*
X444729Y321429D01*
Y321427D01*
Y321424D01*
X444731Y321391D01*
X444737Y321357D01*
X444745Y321330D01*
X444754Y321305D01*
X444765Y321283D01*
X444773Y321266D01*
X444778Y321255D01*
X444781Y321252D01*
X444801Y321224D01*
X444826Y321199D01*
X444850Y321180D01*
X444875Y321163D01*
X444898Y321152D01*
X444914Y321144D01*
X444925Y321138D01*
X444931Y321136D01*
X444970Y321125D01*
X445014Y321116D01*
X445058Y321111D01*
X445103Y321108D01*
X445141Y321105D01*
X445175Y321102D01*
X445745D01*
Y321737D01*
D02*
G37*
G36*
X593366Y371828D02*
X593352D01*
X593346D01*
X593280Y371823D01*
X593222Y371812D01*
X593169Y371792D01*
X593127Y371773D01*
X593091Y371754D01*
X593067Y371734D01*
X593053Y371723D01*
X593047Y371718D01*
X593008Y371673D01*
X592981Y371629D01*
X592958Y371582D01*
X592945Y371540D01*
X592936Y371501D01*
X592934Y371474D01*
X592931Y371463D01*
Y371446D01*
X592936Y371388D01*
X592950Y371335D01*
X592967Y371291D01*
X592989Y371252D01*
X593011Y371222D01*
X593028Y371200D01*
X593042Y371186D01*
X593047Y371180D01*
X593094Y371144D01*
X593144Y371116D01*
X593197Y371097D01*
X593247Y371086D01*
X593291Y371078D01*
X593310Y371075D01*
X593327D01*
X593341Y371072D01*
X593352D01*
X593357D01*
X593360D01*
X593435Y371078D01*
X593499Y371089D01*
X593554Y371105D01*
X593601Y371125D01*
X593637Y371147D01*
X593665Y371164D01*
X593681Y371175D01*
X593684Y371180D01*
X593687D01*
X593709Y371200D01*
X593726Y371222D01*
X593756Y371266D01*
X593776Y371310D01*
X593792Y371349D01*
X593801Y371385D01*
X593803Y371413D01*
X593806Y371424D01*
Y371438D01*
X593803Y371477D01*
X593798Y371513D01*
X593787Y371546D01*
X593776Y371573D01*
X593767Y371599D01*
X593756Y371618D01*
X593751Y371629D01*
X593748Y371635D01*
X593723Y371668D01*
X593698Y371695D01*
X593668Y371720D01*
X593643Y371740D01*
X593618Y371756D01*
X593598Y371767D01*
X593584Y371776D01*
X593579Y371778D01*
X593537Y371795D01*
X593496Y371806D01*
X593457Y371817D01*
X593421Y371823D01*
X593391Y371826D01*
X593366Y371828D01*
D02*
G37*
G36*
X459291Y371939D02*
X458432Y371335D01*
X459291D01*
Y371939D01*
D02*
G37*
G36*
X582898Y373745D02*
X582263D01*
Y373141D01*
X582266Y373067D01*
X582277Y373003D01*
X582291Y372947D01*
X582308Y372906D01*
X582324Y372870D01*
X582338Y372848D01*
X582349Y372834D01*
X582352Y372828D01*
X582388Y372795D01*
X582424Y372770D01*
X582463Y372754D01*
X582496Y372740D01*
X582529Y372734D01*
X582554Y372731D01*
X582571Y372729D01*
X582574D01*
X582576D01*
X582610Y372731D01*
X582643Y372737D01*
X582670Y372745D01*
X582695Y372754D01*
X582718Y372765D01*
X582734Y372773D01*
X582745Y372779D01*
X582748Y372781D01*
X582776Y372801D01*
X582801Y372826D01*
X582820Y372850D01*
X582837Y372875D01*
X582848Y372898D01*
X582856Y372914D01*
X582862Y372925D01*
X582864Y372931D01*
X582875Y372970D01*
X582884Y373014D01*
X582889Y373058D01*
X582892Y373103D01*
X582895Y373141D01*
X582898Y373175D01*
Y373745D01*
D02*
G37*
G36*
X582538Y370360D02*
X582535D01*
X582532D01*
X582488Y370357D01*
X582449Y370346D01*
X582413Y370333D01*
X582382Y370316D01*
X582357Y370302D01*
X582338Y370288D01*
X582327Y370277D01*
X582324Y370274D01*
X582294Y370238D01*
X582272Y370202D01*
X582258Y370164D01*
X582247Y370128D01*
X582241Y370094D01*
X582236Y370069D01*
Y370047D01*
X582238Y370000D01*
X582249Y369956D01*
X582263Y369920D01*
X582280Y369887D01*
X582297Y369862D01*
X582310Y369842D01*
X582321Y369828D01*
X582324Y369826D01*
X582360Y369795D01*
X582396Y369773D01*
X582432Y369756D01*
X582466Y369745D01*
X582496Y369740D01*
X582521Y369734D01*
X582538D01*
X582540D01*
X582543D01*
X582587Y369737D01*
X582629Y369748D01*
X582665Y369762D01*
X582695Y369779D01*
X582720Y369795D01*
X582737Y369809D01*
X582751Y369820D01*
X582754Y369823D01*
X582781Y369856D01*
X582803Y369895D01*
X582817Y369931D01*
X582828Y369967D01*
X582834Y370000D01*
X582837Y370025D01*
X582839Y370042D01*
Y370047D01*
X582837Y370097D01*
X582826Y370141D01*
X582812Y370180D01*
X582795Y370214D01*
X582781Y370238D01*
X582767Y370258D01*
X582756Y370272D01*
X582754Y370274D01*
X582720Y370302D01*
X582682Y370324D01*
X582646Y370338D01*
X582610Y370349D01*
X582579Y370355D01*
X582554Y370357D01*
X582538Y370360D01*
D02*
G37*
G36*
X583432Y370438D02*
X583421D01*
X583416D01*
X583357Y370432D01*
X583305Y370421D01*
X583258Y370405D01*
X583216Y370382D01*
X583186Y370363D01*
X583161Y370346D01*
X583147Y370335D01*
X583141Y370330D01*
X583105Y370288D01*
X583078Y370241D01*
X583058Y370197D01*
X583044Y370152D01*
X583036Y370114D01*
X583033Y370083D01*
X583031Y370072D01*
Y370056D01*
X583036Y369995D01*
X583047Y369939D01*
X583067Y369889D01*
X583086Y369848D01*
X583108Y369815D01*
X583127Y369790D01*
X583139Y369776D01*
X583144Y369770D01*
X583188Y369731D01*
X583236Y369704D01*
X583283Y369684D01*
X583324Y369671D01*
X583366Y369662D01*
X583396Y369659D01*
X583407Y369657D01*
X583416D01*
X583421D01*
X583424D01*
X583482Y369662D01*
X583537Y369673D01*
X583585Y369693D01*
X583623Y369712D01*
X583654Y369731D01*
X583679Y369751D01*
X583693Y369762D01*
X583698Y369767D01*
X583734Y369812D01*
X583762Y369856D01*
X583778Y369903D01*
X583792Y369948D01*
X583801Y369986D01*
X583803Y370020D01*
X583806Y370031D01*
Y370047D01*
X583803Y370086D01*
X583798Y370125D01*
X583789Y370161D01*
X583781Y370191D01*
X583773Y370216D01*
X583765Y370236D01*
X583759Y370247D01*
X583756Y370252D01*
X583734Y370286D01*
X583712Y370313D01*
X583687Y370338D01*
X583662Y370357D01*
X583643Y370374D01*
X583626Y370385D01*
X583612Y370391D01*
X583609Y370393D01*
X583573Y370407D01*
X583540Y370418D01*
X583507Y370427D01*
X583476Y370432D01*
X583452Y370435D01*
X583432Y370438D01*
D02*
G37*
G36*
X448931Y373745D02*
X448296D01*
Y373141D01*
X448299Y373067D01*
X448310Y373003D01*
X448324Y372947D01*
X448341Y372906D01*
X448357Y372870D01*
X448371Y372848D01*
X448382Y372834D01*
X448385Y372828D01*
X448421Y372795D01*
X448457Y372770D01*
X448496Y372754D01*
X448529Y372740D01*
X448562Y372734D01*
X448587Y372731D01*
X448604Y372729D01*
X448607D01*
X448609D01*
X448643Y372731D01*
X448676Y372737D01*
X448704Y372745D01*
X448729Y372754D01*
X448751Y372765D01*
X448767Y372773D01*
X448778Y372779D01*
X448781Y372781D01*
X448809Y372801D01*
X448834Y372826D01*
X448853Y372850D01*
X448870Y372875D01*
X448881Y372898D01*
X448889Y372914D01*
X448895Y372925D01*
X448898Y372931D01*
X448909Y372970D01*
X448917Y373014D01*
X448922Y373058D01*
X448925Y373103D01*
X448928Y373141D01*
X448931Y373175D01*
Y373745D01*
D02*
G37*
G36*
X399745Y327703D02*
X399141D01*
X399067Y327701D01*
X399003Y327690D01*
X398947Y327676D01*
X398906Y327659D01*
X398870Y327643D01*
X398848Y327629D01*
X398834Y327618D01*
X398828Y327615D01*
X398795Y327579D01*
X398770Y327543D01*
X398753Y327504D01*
X398740Y327471D01*
X398734Y327438D01*
X398731Y327413D01*
X398729Y327396D01*
Y327393D01*
Y327391D01*
X398731Y327357D01*
X398737Y327324D01*
X398745Y327296D01*
X398753Y327271D01*
X398765Y327249D01*
X398773Y327233D01*
X398779Y327221D01*
X398781Y327219D01*
X398801Y327191D01*
X398826Y327166D01*
X398850Y327147D01*
X398875Y327130D01*
X398898Y327119D01*
X398914Y327111D01*
X398925Y327105D01*
X398931Y327102D01*
X398970Y327091D01*
X399014Y327083D01*
X399058Y327078D01*
X399103Y327075D01*
X399141Y327072D01*
X399175Y327069D01*
X399745D01*
Y327703D01*
D02*
G37*
G36*
X288050Y365069D02*
X288033D01*
X287975Y365064D01*
X287923Y365050D01*
X287878Y365033D01*
X287840Y365011D01*
X287809Y364989D01*
X287787Y364972D01*
X287773Y364958D01*
X287768Y364953D01*
X287732Y364906D01*
X287704Y364856D01*
X287684Y364803D01*
X287673Y364753D01*
X287665Y364709D01*
X287662Y364690D01*
Y364673D01*
X287660Y364659D01*
Y364648D01*
Y364643D01*
Y364640D01*
X287665Y364565D01*
X287676Y364501D01*
X287693Y364446D01*
X287712Y364399D01*
X287734Y364363D01*
X287751Y364335D01*
X287762Y364318D01*
X287768Y364316D01*
Y364313D01*
X287787Y364291D01*
X287809Y364274D01*
X287853Y364244D01*
X287898Y364224D01*
X287936Y364208D01*
X287972Y364199D01*
X288000Y364197D01*
X288011Y364194D01*
X288025D01*
X288064Y364197D01*
X288100Y364202D01*
X288133Y364213D01*
X288161Y364224D01*
X288186Y364233D01*
X288205Y364244D01*
X288216Y364249D01*
X288222Y364252D01*
X288255Y364277D01*
X288283Y364302D01*
X288308Y364332D01*
X288327Y364357D01*
X288344Y364382D01*
X288355Y364402D01*
X288363Y364416D01*
X288366Y364421D01*
X288382Y364462D01*
X288393Y364504D01*
X288405Y364543D01*
X288410Y364579D01*
X288413Y364609D01*
X288416Y364634D01*
Y364648D01*
Y364654D01*
X288410Y364720D01*
X288399Y364778D01*
X288380Y364831D01*
X288360Y364873D01*
X288341Y364909D01*
X288321Y364933D01*
X288310Y364947D01*
X288305Y364953D01*
X288261Y364992D01*
X288216Y365019D01*
X288169Y365041D01*
X288128Y365055D01*
X288089Y365064D01*
X288061Y365066D01*
X288050Y365069D01*
D02*
G37*
G36*
X291745Y365737D02*
X291141D01*
X291067Y365734D01*
X291003Y365723D01*
X290947Y365709D01*
X290906Y365692D01*
X290870Y365676D01*
X290848Y365662D01*
X290834Y365651D01*
X290828Y365648D01*
X290795Y365612D01*
X290770Y365576D01*
X290754Y365537D01*
X290740Y365504D01*
X290734Y365471D01*
X290731Y365446D01*
X290729Y365429D01*
Y365426D01*
Y365424D01*
X290731Y365390D01*
X290737Y365357D01*
X290745Y365330D01*
X290754Y365305D01*
X290765Y365283D01*
X290773Y365266D01*
X290778Y365255D01*
X290781Y365252D01*
X290801Y365224D01*
X290826Y365199D01*
X290850Y365180D01*
X290875Y365163D01*
X290898Y365152D01*
X290914Y365144D01*
X290925Y365138D01*
X290931Y365136D01*
X290970Y365125D01*
X291014Y365116D01*
X291058Y365111D01*
X291103Y365108D01*
X291141Y365105D01*
X291175Y365102D01*
X291745D01*
Y365737D01*
D02*
G37*
G36*
Y355737D02*
X291141D01*
X291067Y355734D01*
X291003Y355723D01*
X290947Y355709D01*
X290906Y355692D01*
X290870Y355676D01*
X290848Y355662D01*
X290834Y355651D01*
X290828Y355648D01*
X290795Y355612D01*
X290770Y355576D01*
X290754Y355537D01*
X290740Y355504D01*
X290734Y355471D01*
X290731Y355446D01*
X290729Y355429D01*
Y355427D01*
Y355424D01*
X290731Y355391D01*
X290737Y355357D01*
X290745Y355330D01*
X290754Y355305D01*
X290765Y355282D01*
X290773Y355266D01*
X290778Y355255D01*
X290781Y355252D01*
X290801Y355224D01*
X290826Y355199D01*
X290850Y355180D01*
X290875Y355163D01*
X290898Y355152D01*
X290914Y355144D01*
X290925Y355138D01*
X290931Y355136D01*
X290970Y355125D01*
X291014Y355116D01*
X291058Y355111D01*
X291103Y355108D01*
X291141Y355105D01*
X291175Y355102D01*
X291745D01*
Y355737D01*
D02*
G37*
G36*
Y345704D02*
X291141D01*
X291067Y345701D01*
X291003Y345690D01*
X290947Y345676D01*
X290906Y345659D01*
X290870Y345643D01*
X290848Y345629D01*
X290834Y345618D01*
X290828Y345615D01*
X290795Y345579D01*
X290770Y345543D01*
X290754Y345504D01*
X290740Y345471D01*
X290734Y345438D01*
X290731Y345413D01*
X290729Y345396D01*
Y345393D01*
Y345391D01*
X290731Y345357D01*
X290737Y345324D01*
X290745Y345296D01*
X290754Y345271D01*
X290765Y345249D01*
X290773Y345233D01*
X290778Y345221D01*
X290781Y345219D01*
X290801Y345191D01*
X290826Y345166D01*
X290850Y345147D01*
X290875Y345130D01*
X290898Y345119D01*
X290914Y345111D01*
X290925Y345105D01*
X290931Y345102D01*
X290970Y345091D01*
X291014Y345083D01*
X291058Y345077D01*
X291103Y345075D01*
X291141Y345072D01*
X291175Y345069D01*
X291745D01*
Y345704D01*
D02*
G37*
G36*
X287923Y345534D02*
Y344676D01*
X288527D01*
X287923Y345534D01*
D02*
G37*
G36*
X291745Y375704D02*
X291141D01*
X291067Y375701D01*
X291003Y375690D01*
X290947Y375676D01*
X290906Y375659D01*
X290870Y375643D01*
X290848Y375629D01*
X290834Y375618D01*
X290828Y375615D01*
X290795Y375579D01*
X290770Y375543D01*
X290754Y375504D01*
X290740Y375471D01*
X290734Y375438D01*
X290731Y375413D01*
X290729Y375396D01*
Y375393D01*
Y375391D01*
X290731Y375357D01*
X290737Y375324D01*
X290745Y375296D01*
X290754Y375271D01*
X290765Y375249D01*
X290773Y375233D01*
X290778Y375221D01*
X290781Y375219D01*
X290801Y375191D01*
X290826Y375166D01*
X290850Y375147D01*
X290875Y375130D01*
X290898Y375119D01*
X290914Y375111D01*
X290925Y375105D01*
X290931Y375102D01*
X290970Y375091D01*
X291014Y375083D01*
X291058Y375078D01*
X291103Y375075D01*
X291141Y375072D01*
X291175Y375069D01*
X291745D01*
Y375704D01*
D02*
G37*
G36*
Y385737D02*
X291141D01*
X291067Y385734D01*
X291003Y385723D01*
X290947Y385709D01*
X290906Y385692D01*
X290870Y385676D01*
X290848Y385662D01*
X290834Y385651D01*
X290828Y385648D01*
X290795Y385612D01*
X290770Y385576D01*
X290754Y385537D01*
X290740Y385504D01*
X290734Y385471D01*
X290731Y385446D01*
X290729Y385429D01*
Y385426D01*
Y385424D01*
X290731Y385390D01*
X290737Y385357D01*
X290745Y385330D01*
X290754Y385305D01*
X290765Y385282D01*
X290773Y385266D01*
X290778Y385255D01*
X290781Y385252D01*
X290801Y385224D01*
X290826Y385199D01*
X290850Y385180D01*
X290875Y385163D01*
X290898Y385152D01*
X290914Y385144D01*
X290925Y385138D01*
X290931Y385136D01*
X290970Y385125D01*
X291014Y385116D01*
X291058Y385111D01*
X291103Y385108D01*
X291141Y385105D01*
X291175Y385102D01*
X291745D01*
Y385737D01*
D02*
G37*
G36*
X288069Y385764D02*
X288053D01*
X288022Y385762D01*
X287992Y385759D01*
X287964Y385751D01*
X287939Y385739D01*
X287892Y385715D01*
X287851Y385687D01*
X287820Y385656D01*
X287795Y385631D01*
X287787Y385620D01*
X287781Y385612D01*
X287776Y385609D01*
Y385607D01*
X287756Y385573D01*
X287740Y385535D01*
X287723Y385490D01*
X287712Y385443D01*
X287701Y385393D01*
X287693Y385341D01*
X287679Y385235D01*
X287673Y385183D01*
X287670Y385136D01*
X287668Y385091D01*
Y385055D01*
X287665Y385022D01*
Y384997D01*
Y384983D01*
Y384981D01*
Y384978D01*
Y384892D01*
X287670Y384814D01*
X287676Y384745D01*
X287682Y384679D01*
X287690Y384623D01*
X287701Y384571D01*
X287712Y384526D01*
X287720Y384485D01*
X287732Y384452D01*
X287743Y384424D01*
X287751Y384399D01*
X287762Y384379D01*
X287768Y384366D01*
X287773Y384357D01*
X287779Y384352D01*
Y384349D01*
X287801Y384321D01*
X287823Y384299D01*
X287845Y384277D01*
X287867Y384260D01*
X287914Y384233D01*
X287956Y384213D01*
X287995Y384202D01*
X288022Y384197D01*
X288033Y384194D01*
X288050D01*
X288081Y384197D01*
X288108Y384199D01*
X288161Y384219D01*
X288208Y384244D01*
X288249Y384271D01*
X288280Y384299D01*
X288305Y384324D01*
X288319Y384343D01*
X288324Y384346D01*
Y384349D01*
X288344Y384382D01*
X288360Y384421D01*
X288377Y384465D01*
X288388Y384512D01*
X288399Y384562D01*
X288407Y384615D01*
X288421Y384723D01*
X288427Y384773D01*
X288429Y384820D01*
X288432Y384864D01*
Y384900D01*
X288435Y384933D01*
Y384958D01*
Y384972D01*
Y384978D01*
X288432Y385064D01*
X288429Y385141D01*
X288424Y385213D01*
X288416Y385280D01*
X288407Y385338D01*
X288396Y385390D01*
X288385Y385438D01*
X288374Y385479D01*
X288363Y385515D01*
X288355Y385546D01*
X288344Y385571D01*
X288335Y385593D01*
X288327Y385607D01*
X288321Y385618D01*
X288316Y385623D01*
Y385626D01*
X288297Y385651D01*
X288277Y385673D01*
X288255Y385690D01*
X288233Y385706D01*
X288189Y385731D01*
X288147Y385748D01*
X288111Y385756D01*
X288081Y385762D01*
X288069Y385764D01*
D02*
G37*
G36*
X291745Y395737D02*
X291141D01*
X291067Y395734D01*
X291003Y395723D01*
X290947Y395709D01*
X290906Y395692D01*
X290870Y395676D01*
X290848Y395662D01*
X290834Y395651D01*
X290828Y395648D01*
X290795Y395612D01*
X290770Y395576D01*
X290754Y395537D01*
X290740Y395504D01*
X290734Y395471D01*
X290731Y395446D01*
X290729Y395429D01*
Y395427D01*
Y395424D01*
X290731Y395391D01*
X290737Y395357D01*
X290745Y395330D01*
X290754Y395305D01*
X290765Y395283D01*
X290773Y395266D01*
X290778Y395255D01*
X290781Y395252D01*
X290801Y395224D01*
X290826Y395199D01*
X290850Y395180D01*
X290875Y395163D01*
X290898Y395152D01*
X290914Y395144D01*
X290925Y395138D01*
X290931Y395136D01*
X290970Y395125D01*
X291014Y395116D01*
X291058Y395111D01*
X291103Y395108D01*
X291141Y395105D01*
X291175Y395102D01*
X291745D01*
Y395737D01*
D02*
G37*
G36*
Y405703D02*
X291141D01*
X291067Y405701D01*
X291003Y405690D01*
X290947Y405676D01*
X290906Y405659D01*
X290870Y405643D01*
X290848Y405629D01*
X290834Y405618D01*
X290828Y405615D01*
X290795Y405579D01*
X290770Y405543D01*
X290754Y405504D01*
X290740Y405471D01*
X290734Y405438D01*
X290731Y405413D01*
X290729Y405396D01*
Y405393D01*
Y405391D01*
X290731Y405357D01*
X290737Y405324D01*
X290745Y405296D01*
X290754Y405271D01*
X290765Y405249D01*
X290773Y405233D01*
X290778Y405222D01*
X290781Y405219D01*
X290801Y405191D01*
X290826Y405166D01*
X290850Y405147D01*
X290875Y405130D01*
X290898Y405119D01*
X290914Y405111D01*
X290925Y405105D01*
X290931Y405102D01*
X290970Y405091D01*
X291014Y405083D01*
X291058Y405078D01*
X291103Y405075D01*
X291141Y405072D01*
X291175Y405069D01*
X291745D01*
Y405703D01*
D02*
G37*
%LPD*%
D12*
X356063Y344126D02*
Y359874D01*
Y344126D02*
X363937D01*
Y359874D01*
X356063D02*
X363937D01*
X270063Y300126D02*
Y315874D01*
Y300126D02*
X277937D01*
Y315874D01*
X270063D02*
X277937D01*
X320260Y299339D02*
Y316661D01*
Y299339D02*
X327740D01*
Y316661D01*
X320260D02*
X327740D01*
X437339Y323740D02*
X454661D01*
X437339Y316260D02*
Y323740D01*
Y316260D02*
X454661D01*
Y323740D01*
X590063Y366126D02*
Y381874D01*
Y366126D02*
X597937D01*
Y381874D01*
X590063D02*
X597937D01*
X524063Y366126D02*
Y381874D01*
Y366126D02*
X531937D01*
Y381874D01*
X524063D02*
X531937D01*
X456063Y366126D02*
Y381874D01*
Y366126D02*
X463937D01*
Y381874D01*
X456063D02*
X463937D01*
X580260Y365339D02*
Y382661D01*
Y365339D02*
X587740D01*
Y382661D01*
X580260D02*
X587740D01*
X514260Y365339D02*
Y382661D01*
Y365339D02*
X521740D01*
Y382661D01*
X514260D02*
X521740D01*
X446260Y365339D02*
Y382661D01*
Y365339D02*
X453740D01*
Y382661D01*
X446260D02*
X453740D01*
X391339Y329740D02*
X408661D01*
X391339Y322260D02*
Y329740D01*
Y322260D02*
X408661D01*
Y329740D01*
X283339Y367740D02*
X300661D01*
X283339Y360260D02*
Y367740D01*
Y360260D02*
X300661D01*
Y367740D01*
X283339Y357740D02*
X300661D01*
X283339Y350260D02*
Y357740D01*
Y350260D02*
X300661D01*
Y357740D01*
X283339Y347740D02*
X300661D01*
X283339Y340260D02*
Y347740D01*
Y340260D02*
X300661D01*
Y347740D01*
X283339Y377740D02*
X300661D01*
X283339Y370260D02*
Y377740D01*
Y370260D02*
X300661D01*
Y377740D01*
X283339Y387740D02*
X300661D01*
X283339Y380260D02*
Y387740D01*
Y380260D02*
X300661D01*
Y387740D01*
X283339Y397740D02*
X300661D01*
X283339Y390260D02*
Y397740D01*
Y390260D02*
X300661D01*
Y397740D01*
X283339Y407740D02*
X300661D01*
X283339Y400260D02*
Y407740D01*
Y400260D02*
X300661D01*
Y407740D01*
M02*
