G04*
G04 #@! TF.GenerationSoftware,Altium Limited,Altium Designer,24.1.2 (44)*
G04*
G04 Layer_Color=255*
%FSLAX25Y25*%
%MOIN*%
G70*
G04*
G04 #@! TF.SameCoordinates,E3FF4B23-F407-445B-9987-FD0FFFC61A21*
G04*
G04*
G04 #@! TF.FilePolarity,Positive*
G04*
G01*
G75*
%ADD16R,0.05906X0.03937*%
%ADD22C,0.08800*%
%ADD28C,0.06102*%
%ADD29R,0.06102X0.06102*%
%ADD32C,0.06000*%
%ADD33R,0.06000X0.06000*%
%ADD34C,0.06299*%
G04:AMPARAMS|DCode=35|XSize=62.99mil|YSize=62.99mil|CornerRadius=15.75mil|HoleSize=0mil|Usage=FLASHONLY|Rotation=90.000|XOffset=0mil|YOffset=0mil|HoleType=Round|Shape=RoundedRectangle|*
%AMROUNDEDRECTD35*
21,1,0.06299,0.03150,0,0,90.0*
21,1,0.03150,0.06299,0,0,90.0*
1,1,0.03150,0.01575,0.01575*
1,1,0.03150,0.01575,-0.01575*
1,1,0.03150,-0.01575,-0.01575*
1,1,0.03150,-0.01575,0.01575*
%
%ADD35ROUNDEDRECTD35*%
G04:AMPARAMS|DCode=36|XSize=62.99mil|YSize=62.99mil|CornerRadius=15.75mil|HoleSize=0mil|Usage=FLASHONLY|Rotation=180.000|XOffset=0mil|YOffset=0mil|HoleType=Round|Shape=RoundedRectangle|*
%AMROUNDEDRECTD36*
21,1,0.06299,0.03150,0,0,180.0*
21,1,0.03150,0.06299,0,0,180.0*
1,1,0.03150,-0.01575,0.01575*
1,1,0.03150,0.01575,0.01575*
1,1,0.03150,0.01575,-0.01575*
1,1,0.03150,-0.01575,-0.01575*
%
%ADD36ROUNDEDRECTD36*%
%ADD37C,0.35000*%
%ADD38R,0.05906X0.05906*%
%ADD39C,0.05906*%
%ADD40C,0.16772*%
%ADD41R,0.05906X0.05906*%
%ADD43R,0.06693X0.03740*%
%ADD44R,0.05512X0.09055*%
G04:AMPARAMS|DCode=45|XSize=43.31mil|YSize=35.43mil|CornerRadius=8.86mil|HoleSize=0mil|Usage=FLASHONLY|Rotation=180.000|XOffset=0mil|YOffset=0mil|HoleType=Round|Shape=RoundedRectangle|*
%AMROUNDEDRECTD45*
21,1,0.04331,0.01772,0,0,180.0*
21,1,0.02559,0.03543,0,0,180.0*
1,1,0.01772,-0.01280,0.00886*
1,1,0.01772,0.01280,0.00886*
1,1,0.01772,0.01280,-0.00886*
1,1,0.01772,-0.01280,-0.00886*
%
%ADD45ROUNDEDRECTD45*%
%ADD46R,0.09055X0.05512*%
%ADD47R,0.03937X0.05906*%
%ADD48R,0.18504X0.13504*%
G04:AMPARAMS|DCode=49|XSize=23.62mil|YSize=57.09mil|CornerRadius=2.01mil|HoleSize=0mil|Usage=FLASHONLY|Rotation=90.000|XOffset=0mil|YOffset=0mil|HoleType=Round|Shape=RoundedRectangle|*
%AMROUNDEDRECTD49*
21,1,0.02362,0.05307,0,0,90.0*
21,1,0.01961,0.05709,0,0,90.0*
1,1,0.00402,0.02653,0.00980*
1,1,0.00402,0.02653,-0.00980*
1,1,0.00402,-0.02653,-0.00980*
1,1,0.00402,-0.02653,0.00980*
%
%ADD49ROUNDEDRECTD49*%
%ADD50O,0.07480X0.02362*%
D16*
X324000Y314299D02*
D03*
Y301701D02*
D03*
X584000Y380299D02*
D03*
Y367701D02*
D03*
X518000Y380299D02*
D03*
Y367701D02*
D03*
X450000Y380299D02*
D03*
Y367701D02*
D03*
D22*
X573000Y275000D02*
D03*
X586000D02*
D03*
X573000Y328000D02*
D03*
X586000D02*
D03*
X554000D02*
D03*
X541000D02*
D03*
X554000Y275000D02*
D03*
X541000D02*
D03*
D28*
X290000Y274000D02*
D03*
X280000D02*
D03*
X270000D02*
D03*
D29*
X260000D02*
D03*
D32*
X314000Y364000D02*
D03*
Y374000D02*
D03*
Y384000D02*
D03*
Y394000D02*
D03*
Y404000D02*
D03*
Y414000D02*
D03*
Y424000D02*
D03*
Y434000D02*
D03*
Y444000D02*
D03*
Y454000D02*
D03*
Y464000D02*
D03*
Y474000D02*
D03*
X374000Y484000D02*
D03*
X314000Y354000D02*
D03*
Y344000D02*
D03*
X374000Y474000D02*
D03*
Y464000D02*
D03*
Y454000D02*
D03*
Y444000D02*
D03*
Y434000D02*
D03*
Y424000D02*
D03*
Y414000D02*
D03*
Y404000D02*
D03*
Y394000D02*
D03*
Y364000D02*
D03*
Y384000D02*
D03*
Y374000D02*
D03*
Y354000D02*
D03*
Y344000D02*
D03*
D33*
X314000Y484000D02*
D03*
D34*
X237000Y404347D02*
D03*
Y394346D02*
D03*
Y374346D02*
D03*
Y354346D02*
D03*
Y364347D02*
D03*
Y384347D02*
D03*
X248000Y404347D02*
D03*
Y394346D02*
D03*
Y374346D02*
D03*
Y354346D02*
D03*
Y364347D02*
D03*
Y384347D02*
D03*
X259000Y404347D02*
D03*
Y394346D02*
D03*
Y374346D02*
D03*
Y354346D02*
D03*
Y364347D02*
D03*
Y384347D02*
D03*
X412000Y384000D02*
D03*
Y374000D02*
D03*
Y394000D02*
D03*
Y404000D02*
D03*
X409000Y424000D02*
D03*
X399000D02*
D03*
X389000D02*
D03*
X444000Y306000D02*
D03*
X454000D02*
D03*
X406000D02*
D03*
X428000Y375000D02*
D03*
X238000Y285000D02*
D03*
X284000Y460000D02*
D03*
Y450000D02*
D03*
Y470000D02*
D03*
Y480000D02*
D03*
X394000Y384000D02*
D03*
Y374000D02*
D03*
Y394000D02*
D03*
Y404000D02*
D03*
X228000Y464000D02*
D03*
D35*
X237000Y344346D02*
D03*
X248000D02*
D03*
X259000D02*
D03*
X412000Y364000D02*
D03*
X428000Y365000D02*
D03*
X238000Y275000D02*
D03*
X284000Y440000D02*
D03*
X394000Y364000D02*
D03*
X228000Y454000D02*
D03*
D36*
X419000Y424000D02*
D03*
X434000Y306000D02*
D03*
X416000D02*
D03*
D37*
X506000Y284693D02*
D03*
Y328000D02*
D03*
D38*
X578315Y398000D02*
D03*
X512157D02*
D03*
X446158D02*
D03*
X578000Y476000D02*
D03*
X512000D02*
D03*
X446315D02*
D03*
D39*
X588158Y398000D02*
D03*
X598000D02*
D03*
X522000D02*
D03*
X531843D02*
D03*
X456000D02*
D03*
X465842D02*
D03*
X587843Y476000D02*
D03*
X597685D02*
D03*
X521842D02*
D03*
X531685D02*
D03*
X456157D02*
D03*
X466000D02*
D03*
X464000Y268158D02*
D03*
Y278000D02*
D03*
X394000Y268158D02*
D03*
Y278000D02*
D03*
D40*
X570835Y425559D02*
D03*
X605480D02*
D03*
X504677D02*
D03*
X539323D02*
D03*
X438677D02*
D03*
X473323D02*
D03*
X570520Y503559D02*
D03*
X605165D02*
D03*
X504520D02*
D03*
X539165D02*
D03*
X438835D02*
D03*
X473480D02*
D03*
X436441Y250835D02*
D03*
Y285480D02*
D03*
X366441Y250835D02*
D03*
Y285480D02*
D03*
D41*
X464000Y258315D02*
D03*
X394000D02*
D03*
D43*
X360000Y357512D02*
D03*
Y346488D02*
D03*
X274000Y313512D02*
D03*
Y302488D02*
D03*
X594000Y379512D02*
D03*
Y368488D02*
D03*
X528000Y379512D02*
D03*
Y368488D02*
D03*
X460000Y379512D02*
D03*
Y368488D02*
D03*
D44*
X320000Y284000D02*
D03*
D45*
X312402Y313000D02*
D03*
Y303000D02*
D03*
X287598D02*
D03*
Y313000D02*
D03*
D46*
X466000Y320000D02*
D03*
D47*
X452299D02*
D03*
X439701D02*
D03*
X406299Y326000D02*
D03*
X393701D02*
D03*
X298299Y364000D02*
D03*
X285701D02*
D03*
X298299Y354000D02*
D03*
X285701D02*
D03*
X298299Y344000D02*
D03*
X285701D02*
D03*
X298299Y374000D02*
D03*
X285701D02*
D03*
X298299Y384000D02*
D03*
X285701D02*
D03*
X298299Y394000D02*
D03*
X285701D02*
D03*
X298299Y404000D02*
D03*
X285701D02*
D03*
D48*
X612000Y328000D02*
D03*
D49*
X465457Y350000D02*
D03*
Y345000D02*
D03*
Y340000D02*
D03*
Y335000D02*
D03*
X444000Y350000D02*
D03*
Y345000D02*
D03*
Y340000D02*
D03*
Y335000D02*
D03*
D50*
X394748Y334500D02*
D03*
Y339500D02*
D03*
Y344500D02*
D03*
Y349500D02*
D03*
X413252Y334500D02*
D03*
Y339500D02*
D03*
Y344500D02*
D03*
Y349500D02*
D03*
M02*
