G04*
G04 #@! TF.GenerationSoftware,Altium Limited,Altium Designer,24.1.2 (44)*
G04*
G04 Layer_Color=16711935*
%FSLAX25Y25*%
%MOIN*%
G70*
G04*
G04 #@! TF.SameCoordinates,E3FF4B23-F407-445B-9987-FD0FFFC61A21*
G04*
G04*
G04 #@! TF.FilePolarity,Negative*
G04*
G01*
G75*
%ADD16R,0.05906X0.03937*%
%ADD17C,0.06800*%
%ADD18R,0.06800X0.06800*%
%ADD19C,0.07099*%
G04:AMPARAMS|DCode=20|XSize=70.99mil|YSize=70.99mil|CornerRadius=19.75mil|HoleSize=0mil|Usage=FLASHONLY|Rotation=90.000|XOffset=0mil|YOffset=0mil|HoleType=Round|Shape=RoundedRectangle|*
%AMROUNDEDRECTD20*
21,1,0.07099,0.03150,0,0,90.0*
21,1,0.03150,0.07099,0,0,90.0*
1,1,0.03950,0.01575,0.01575*
1,1,0.03950,0.01575,-0.01575*
1,1,0.03950,-0.01575,-0.01575*
1,1,0.03950,-0.01575,0.01575*
%
%ADD20ROUNDEDRECTD20*%
G04:AMPARAMS|DCode=21|XSize=70.99mil|YSize=70.99mil|CornerRadius=19.75mil|HoleSize=0mil|Usage=FLASHONLY|Rotation=180.000|XOffset=0mil|YOffset=0mil|HoleType=Round|Shape=RoundedRectangle|*
%AMROUNDEDRECTD21*
21,1,0.07099,0.03150,0,0,180.0*
21,1,0.03150,0.07099,0,0,180.0*
1,1,0.03950,-0.01575,0.01575*
1,1,0.03950,0.01575,0.01575*
1,1,0.03950,0.01575,-0.01575*
1,1,0.03950,-0.01575,-0.01575*
%
%ADD21ROUNDEDRECTD21*%
%ADD22C,0.08800*%
%ADD23C,0.35800*%
%ADD24R,0.06706X0.06706*%
%ADD25C,0.06706*%
%ADD26C,0.17572*%
%ADD27R,0.06706X0.06706*%
%ADD28C,0.06102*%
%ADD29R,0.06102X0.06102*%
%ADD30C,0.05800*%
%ADD43R,0.06693X0.03740*%
%ADD47R,0.03937X0.05906*%
%ADD51R,0.06312X0.09855*%
G04:AMPARAMS|DCode=52|XSize=51.31mil|YSize=43.43mil|CornerRadius=12.86mil|HoleSize=0mil|Usage=FLASHONLY|Rotation=180.000|XOffset=0mil|YOffset=0mil|HoleType=Round|Shape=RoundedRectangle|*
%AMROUNDEDRECTD52*
21,1,0.05131,0.01772,0,0,180.0*
21,1,0.02559,0.04343,0,0,180.0*
1,1,0.02572,-0.01280,0.00886*
1,1,0.02572,0.01280,0.00886*
1,1,0.02572,0.01280,-0.00886*
1,1,0.02572,-0.01280,-0.00886*
%
%ADD52ROUNDEDRECTD52*%
%ADD53R,0.09855X0.06312*%
%ADD54R,0.19304X0.14304*%
G04:AMPARAMS|DCode=55|XSize=31.62mil|YSize=65.09mil|CornerRadius=6.01mil|HoleSize=0mil|Usage=FLASHONLY|Rotation=90.000|XOffset=0mil|YOffset=0mil|HoleType=Round|Shape=RoundedRectangle|*
%AMROUNDEDRECTD55*
21,1,0.03162,0.05307,0,0,90.0*
21,1,0.01961,0.06509,0,0,90.0*
1,1,0.01202,0.02653,0.00980*
1,1,0.01202,0.02653,-0.00980*
1,1,0.01202,-0.02653,-0.00980*
1,1,0.01202,-0.02653,0.00980*
%
%ADD55ROUNDEDRECTD55*%
%ADD56O,0.08280X0.03162*%
D16*
X324000Y314299D02*
D03*
Y301701D02*
D03*
X584000Y380299D02*
D03*
Y367701D02*
D03*
X518000Y380299D02*
D03*
Y367701D02*
D03*
X450000Y380299D02*
D03*
Y367701D02*
D03*
D17*
X314000Y364000D02*
D03*
Y374000D02*
D03*
Y384000D02*
D03*
Y394000D02*
D03*
Y404000D02*
D03*
Y414000D02*
D03*
Y424000D02*
D03*
Y434000D02*
D03*
Y444000D02*
D03*
Y454000D02*
D03*
Y464000D02*
D03*
Y474000D02*
D03*
X374000Y484000D02*
D03*
X314000Y354000D02*
D03*
Y344000D02*
D03*
X374000Y474000D02*
D03*
Y464000D02*
D03*
Y454000D02*
D03*
Y444000D02*
D03*
Y434000D02*
D03*
Y424000D02*
D03*
Y414000D02*
D03*
Y404000D02*
D03*
Y394000D02*
D03*
Y364000D02*
D03*
Y384000D02*
D03*
Y374000D02*
D03*
Y354000D02*
D03*
Y344000D02*
D03*
D18*
X314000Y484000D02*
D03*
D19*
X237000Y404347D02*
D03*
Y394346D02*
D03*
Y374346D02*
D03*
Y354346D02*
D03*
Y364347D02*
D03*
Y384347D02*
D03*
X248000Y404347D02*
D03*
Y394346D02*
D03*
Y374346D02*
D03*
Y354346D02*
D03*
Y364347D02*
D03*
Y384347D02*
D03*
X259000Y404347D02*
D03*
Y394346D02*
D03*
Y374346D02*
D03*
Y354346D02*
D03*
Y364347D02*
D03*
Y384347D02*
D03*
X412000Y384000D02*
D03*
Y374000D02*
D03*
Y394000D02*
D03*
Y404000D02*
D03*
X409000Y424000D02*
D03*
X399000D02*
D03*
X389000D02*
D03*
X444000Y306000D02*
D03*
X454000D02*
D03*
X406000D02*
D03*
X428000Y375000D02*
D03*
X238000Y285000D02*
D03*
X284000Y460000D02*
D03*
Y450000D02*
D03*
Y470000D02*
D03*
Y480000D02*
D03*
X394000Y384000D02*
D03*
Y374000D02*
D03*
Y394000D02*
D03*
Y404000D02*
D03*
X228000Y464000D02*
D03*
D20*
X237000Y344346D02*
D03*
X248000D02*
D03*
X259000D02*
D03*
X412000Y364000D02*
D03*
X428000Y365000D02*
D03*
X238000Y275000D02*
D03*
X284000Y440000D02*
D03*
X394000Y364000D02*
D03*
X228000Y454000D02*
D03*
D21*
X419000Y424000D02*
D03*
X434000Y306000D02*
D03*
X416000D02*
D03*
D22*
X573000Y275000D02*
D03*
X586000D02*
D03*
X573000Y328000D02*
D03*
X586000D02*
D03*
X554000D02*
D03*
X541000D02*
D03*
X554000Y275000D02*
D03*
X541000D02*
D03*
D23*
X506000Y284693D02*
D03*
Y328000D02*
D03*
D24*
X578315Y398000D02*
D03*
X512157D02*
D03*
X446158D02*
D03*
X578000Y476000D02*
D03*
X512000D02*
D03*
X446315D02*
D03*
D25*
X588158Y398000D02*
D03*
X598000D02*
D03*
X522000D02*
D03*
X531843D02*
D03*
X456000D02*
D03*
X465842D02*
D03*
X587843Y476000D02*
D03*
X597685D02*
D03*
X521842D02*
D03*
X531685D02*
D03*
X456157D02*
D03*
X466000D02*
D03*
X464000Y268158D02*
D03*
Y278000D02*
D03*
X394000Y268158D02*
D03*
Y278000D02*
D03*
D26*
X570835Y425559D02*
D03*
X605480D02*
D03*
X504677D02*
D03*
X539323D02*
D03*
X438677D02*
D03*
X473323D02*
D03*
X570520Y503559D02*
D03*
X605165D02*
D03*
X504520D02*
D03*
X539165D02*
D03*
X438835D02*
D03*
X473480D02*
D03*
X436441Y250835D02*
D03*
Y285480D02*
D03*
X366441Y250835D02*
D03*
Y285480D02*
D03*
D27*
X464000Y258315D02*
D03*
X394000D02*
D03*
D28*
X290000Y274000D02*
D03*
X280000D02*
D03*
X270000D02*
D03*
D29*
X260000D02*
D03*
D30*
X438000Y386000D02*
D03*
X556000Y384000D02*
D03*
X272000Y420000D02*
D03*
X282000Y328000D02*
D03*
X318512Y252958D02*
D03*
X476000Y302000D02*
D03*
X368000Y312000D02*
D03*
X484000Y384000D02*
D03*
X402000Y472000D02*
D03*
X420000Y326000D02*
D03*
X422000Y340000D02*
D03*
X284000Y344000D02*
D03*
Y354000D02*
D03*
Y364000D02*
D03*
Y374000D02*
D03*
Y384000D02*
D03*
Y394000D02*
D03*
Y404000D02*
D03*
D43*
X360000Y357512D02*
D03*
Y346488D02*
D03*
X274000Y313512D02*
D03*
Y302488D02*
D03*
X594000Y379512D02*
D03*
Y368488D02*
D03*
X528000Y379512D02*
D03*
Y368488D02*
D03*
X460000Y379512D02*
D03*
Y368488D02*
D03*
D47*
X452299Y320000D02*
D03*
X439701D02*
D03*
X406299Y326000D02*
D03*
X393701D02*
D03*
X298299Y364000D02*
D03*
X285701D02*
D03*
X298299Y354000D02*
D03*
X285701D02*
D03*
X298299Y344000D02*
D03*
X285701D02*
D03*
X298299Y374000D02*
D03*
X285701D02*
D03*
X298299Y384000D02*
D03*
X285701D02*
D03*
X298299Y394000D02*
D03*
X285701D02*
D03*
X298299Y404000D02*
D03*
X285701D02*
D03*
D51*
X320000Y284000D02*
D03*
D52*
X312402Y313000D02*
D03*
Y303000D02*
D03*
X287598D02*
D03*
Y313000D02*
D03*
D53*
X466000Y320000D02*
D03*
D54*
X612000Y328000D02*
D03*
D55*
X465457Y350000D02*
D03*
Y345000D02*
D03*
Y340000D02*
D03*
Y335000D02*
D03*
X444000Y350000D02*
D03*
Y345000D02*
D03*
Y340000D02*
D03*
Y335000D02*
D03*
D56*
X394748Y334500D02*
D03*
Y339500D02*
D03*
Y344500D02*
D03*
Y349500D02*
D03*
X413252Y334500D02*
D03*
Y339500D02*
D03*
Y344500D02*
D03*
Y349500D02*
D03*
M02*
