G04*
G04 #@! TF.GenerationSoftware,Altium Limited,Altium Designer,24.1.2 (44)*
G04*
G04 Layer_Color=32896*
%FSLAX25Y25*%
%MOIN*%
G70*
G04*
G04 #@! TF.SameCoordinates,E3FF4B23-F407-445B-9987-FD0FFFC61A21*
G04*
G04*
G04 #@! TF.FilePolarity,Positive*
G04*
G01*
G75*
%ADD10C,0.00984*%
%ADD11C,0.02000*%
%ADD12C,0.00787*%
%ADD13C,0.01000*%
%ADD57C,0.02362*%
%ADD58C,0.01575*%
D10*
X312894Y316858D02*
G03*
X312894Y316858I-492J0D01*
G01*
X465949Y353346D02*
G03*
X465949Y353346I-492J0D01*
G01*
X413744Y352847D02*
G03*
X413744Y352847I-492J0D01*
G01*
D11*
X574500Y259250D02*
G03*
X574500Y259250I-1500J0D01*
G01*
X555500Y343750D02*
G03*
X555500Y343750I-1500J0D01*
G01*
D12*
X356457Y349835D02*
Y354165D01*
X363543Y349835D02*
Y354165D01*
X270457Y305835D02*
Y310165D01*
X277543Y305835D02*
Y310165D01*
X320654Y305146D02*
Y310854D01*
X327346Y305146D02*
Y310854D01*
X309055Y300520D02*
Y315480D01*
X290945Y300520D02*
X309055D01*
X290945D02*
Y315480D01*
X309055D01*
X443146Y323346D02*
X448854D01*
X443146Y316653D02*
X448854D01*
X601173Y319673D02*
Y336327D01*
Y336327D02*
X622827D01*
Y319673D02*
Y336327D01*
X601173Y319673D02*
X622827D01*
X590457Y371835D02*
Y376165D01*
X597543Y371835D02*
Y376165D01*
X524457Y371835D02*
Y376165D01*
X531543Y371835D02*
Y376165D01*
X456457Y371835D02*
Y376165D01*
X463543Y371835D02*
Y376165D01*
X580653Y371146D02*
Y376854D01*
X587347Y371146D02*
Y376854D01*
X514653Y371146D02*
Y376854D01*
X521347Y371146D02*
Y376854D01*
X446654Y371146D02*
Y376854D01*
X453346Y371146D02*
Y376854D01*
X461028Y332658D02*
Y352343D01*
X448429Y332658D02*
Y352343D01*
X461028D01*
X448429Y332658D02*
X461028D01*
X400063Y332157D02*
X407937D01*
X400063Y351842D02*
X407937D01*
X400063Y332157D02*
Y351842D01*
X407937Y332157D02*
Y351842D01*
X397146Y329346D02*
X402854D01*
X397146Y322654D02*
X402854D01*
X289146Y367347D02*
X294854D01*
X289146Y360653D02*
X294854D01*
X289146Y357347D02*
X294854D01*
X289146Y350654D02*
X294854D01*
X289146Y347346D02*
X294854D01*
X289146Y340653D02*
X294854D01*
X289146Y377346D02*
X294854D01*
X289146Y370654D02*
X294854D01*
X289146Y387347D02*
X294854D01*
X289146Y380654D02*
X294854D01*
X289146Y397346D02*
X294854D01*
X289146Y390653D02*
X294854D01*
X289146Y407346D02*
X294854D01*
X289146Y400654D02*
X294854D01*
D13*
X462499Y359500D02*
Y357000D01*
X461999Y356501D01*
X461000D01*
X460500Y357000D01*
Y359500D01*
X457501D02*
X459500D01*
Y358000D01*
X458500Y358500D01*
X458001D01*
X457501Y358000D01*
Y357000D01*
X458001Y356501D01*
X459000D01*
X459500Y357000D01*
X605649Y311651D02*
X607648D01*
X606648D01*
Y314651D01*
X608648D02*
Y311651D01*
X610147D01*
X610647Y312151D01*
Y313151D01*
X610147Y313651D01*
X608648D01*
X611647Y312151D02*
X612147Y311651D01*
X613146D01*
X613646Y312151D01*
Y312651D01*
X613146Y313151D01*
X612646D01*
X613146D01*
X613646Y313651D01*
Y314151D01*
X613146Y314651D01*
X612147D01*
X611647Y314151D01*
X333999Y285500D02*
X331999D01*
X332999D01*
Y282501D01*
X331000D02*
Y285500D01*
X329500D01*
X329000Y285000D01*
Y284000D01*
X329500Y283500D01*
X331000D01*
X326001Y282501D02*
X328001D01*
X326001Y284500D01*
Y285000D01*
X326501Y285500D01*
X327501D01*
X328001Y285000D01*
X275999Y372500D02*
Y375500D01*
X274499D01*
X273999Y375000D01*
Y374000D01*
X274499Y373500D01*
X275999D01*
X274999D02*
X273999Y372500D01*
X271000D02*
X273000D01*
X271000Y374500D01*
Y375000D01*
X271500Y375500D01*
X272500D01*
X273000Y375000D01*
X270001Y375500D02*
X268001D01*
Y375000D01*
X270001Y373000D01*
Y372500D01*
X277999Y362501D02*
Y365499D01*
X276499D01*
X275999Y365000D01*
Y364000D01*
X276499Y363500D01*
X277999D01*
X276999D02*
X275999Y362501D01*
X273000D02*
X275000D01*
X273000Y364500D01*
Y365000D01*
X273500Y365499D01*
X274500D01*
X275000Y365000D01*
X270001Y365499D02*
X271001Y365000D01*
X272001Y364000D01*
Y363000D01*
X271501Y362501D01*
X270501D01*
X270001Y363000D01*
Y363500D01*
X270501Y364000D01*
X272001D01*
X275999Y352501D02*
Y355500D01*
X274499D01*
X273999Y355000D01*
Y354000D01*
X274499Y353500D01*
X275999D01*
X274999D02*
X273999Y352501D01*
X271000D02*
X273000D01*
X271000Y354500D01*
Y355000D01*
X271500Y355500D01*
X272500D01*
X273000Y355000D01*
X268001Y355500D02*
X270001D01*
Y354000D01*
X269001Y354500D01*
X268501D01*
X268001Y354000D01*
Y353000D01*
X268501Y352501D01*
X269501D01*
X270001Y353000D01*
X275999Y342500D02*
Y345499D01*
X274499D01*
X273999Y345000D01*
Y344000D01*
X274499Y343500D01*
X275999D01*
X274999D02*
X273999Y342500D01*
X271000D02*
X273000D01*
X271000Y344500D01*
Y345000D01*
X271500Y345499D01*
X272500D01*
X273000Y345000D01*
X268501Y342500D02*
Y345499D01*
X270001Y344000D01*
X268001D01*
X275999Y392500D02*
Y395499D01*
X274499D01*
X273999Y395000D01*
Y394000D01*
X274499Y393500D01*
X275999D01*
X274999D02*
X273999Y392500D01*
X271000D02*
X273000D01*
X271000Y394500D01*
Y395000D01*
X271500Y395499D01*
X272500D01*
X273000Y395000D01*
X270001D02*
X269501Y395499D01*
X268501D01*
X268001Y395000D01*
Y394500D01*
X268501Y394000D01*
X269001D01*
X268501D01*
X268001Y393500D01*
Y393000D01*
X268501Y392500D01*
X269501D01*
X270001Y393000D01*
X386499Y335500D02*
Y333000D01*
X385999Y332501D01*
X385000D01*
X384500Y333000D01*
Y335500D01*
X383500Y335000D02*
X383000Y335500D01*
X382001D01*
X381501Y335000D01*
Y334500D01*
X382001Y334000D01*
X382501D01*
X382001D01*
X381501Y333500D01*
Y333000D01*
X382001Y332501D01*
X383000D01*
X383500Y333000D01*
X475499Y313499D02*
X473499D01*
X474499D01*
Y310501D01*
X472500D02*
Y313499D01*
X471000D01*
X470501Y313000D01*
Y312000D01*
X471000Y311500D01*
X472500D01*
X469501Y310501D02*
X468501D01*
X469001D01*
Y313499D01*
X469501Y313000D01*
X275999Y382501D02*
Y385500D01*
X274499D01*
X273999Y385000D01*
Y384000D01*
X274499Y383500D01*
X275999D01*
X274999D02*
X273999Y382501D01*
X271000D02*
X273000D01*
X271000Y384500D01*
Y385000D01*
X271500Y385500D01*
X272500D01*
X273000Y385000D01*
X270001D02*
X269501Y385500D01*
X268501D01*
X268001Y385000D01*
Y383000D01*
X268501Y382501D01*
X269501D01*
X270001Y383000D01*
Y385000D01*
X587749Y358501D02*
Y361500D01*
X586249D01*
X585749Y361000D01*
Y360000D01*
X586249Y359500D01*
X587749D01*
X586749D02*
X585749Y358501D01*
X584750D02*
X583750D01*
X584250D01*
Y361500D01*
X584750Y361000D01*
X582251D02*
X581751Y361500D01*
X580751D01*
X580251Y361000D01*
Y360500D01*
X580751Y360000D01*
X580251Y359500D01*
Y359000D01*
X580751Y358501D01*
X581751D01*
X582251Y359000D01*
Y359500D01*
X581751Y360000D01*
X582251Y360500D01*
Y361000D01*
X581751Y360000D02*
X580751D01*
X327749Y292500D02*
Y295499D01*
X326249D01*
X325749Y295000D01*
Y294000D01*
X326249Y293500D01*
X327749D01*
X326749D02*
X325749Y292500D01*
X324750D02*
X323750D01*
X324250D01*
Y295499D01*
X324750Y295000D01*
X322251Y295499D02*
X320251D01*
Y295000D01*
X322251Y293000D01*
Y292500D01*
X449749Y326501D02*
Y329500D01*
X448249D01*
X447749Y329000D01*
Y328000D01*
X448249Y327500D01*
X449749D01*
X448749D02*
X447749Y326501D01*
X446750D02*
X445750D01*
X446250D01*
Y329500D01*
X446750Y329000D01*
X442251Y329500D02*
X443251Y329000D01*
X444251Y328000D01*
Y327000D01*
X443751Y326501D01*
X442751D01*
X442251Y327000D01*
Y327500D01*
X442751Y328000D01*
X444251D01*
X521749Y360501D02*
Y363499D01*
X520249D01*
X519749Y363000D01*
Y362000D01*
X520249Y361500D01*
X521749D01*
X520749D02*
X519749Y360501D01*
X518750D02*
X517750D01*
X518250D01*
Y363499D01*
X518750Y363000D01*
X516251D02*
X515751Y363499D01*
X514751D01*
X514251Y363000D01*
Y362500D01*
X514751Y362000D01*
X515251D01*
X514751D01*
X514251Y361500D01*
Y361000D01*
X514751Y360501D01*
X515751D01*
X516251Y361000D01*
X453749Y384501D02*
Y387499D01*
X452249D01*
X451749Y387000D01*
Y386000D01*
X452249Y385500D01*
X453749D01*
X452749D02*
X451749Y384501D01*
X450750D02*
X449750D01*
X450250D01*
Y387499D01*
X450750Y387000D01*
X446251Y384501D02*
X448251D01*
X446251Y386500D01*
Y387000D01*
X446751Y387499D01*
X447751D01*
X448251Y387000D01*
X402499Y316500D02*
Y319499D01*
X401000D01*
X400500Y319000D01*
Y318000D01*
X401000Y317500D01*
X402499D01*
X401500D02*
X400500Y316500D01*
X397501D02*
X399500D01*
X397501Y318500D01*
Y319000D01*
X398001Y319499D01*
X399000D01*
X399500Y319000D01*
X275999Y402500D02*
Y405500D01*
X274500D01*
X274000Y405000D01*
Y404000D01*
X274500Y403500D01*
X275999D01*
X275000D02*
X274000Y402500D01*
X273000D02*
X272001D01*
X272500D01*
Y405500D01*
X273000Y405000D01*
X294500Y319000D02*
Y321000D01*
X295000Y321499D01*
X295999D01*
X296499Y321000D01*
Y319000D01*
X295999Y318500D01*
X295000D01*
X295499Y319500D02*
X294500Y318500D01*
X295000D02*
X294500Y319000D01*
X292001Y318500D02*
Y321499D01*
X293500Y320000D01*
X291501D01*
X274500Y321000D02*
X275000Y321499D01*
X275999D01*
X276499Y321000D01*
Y319000D01*
X275999Y318500D01*
X275000D01*
X274500Y319000D01*
X273500Y321000D02*
X273000Y321499D01*
X272001D01*
X271501Y321000D01*
Y320500D01*
X272001Y320000D01*
X271501Y319500D01*
Y319000D01*
X272001Y318500D01*
X273000D01*
X273500Y319000D01*
Y319500D01*
X273000Y320000D01*
X273500Y320500D01*
Y321000D01*
X273000Y320000D02*
X272001D01*
X594500Y363000D02*
X595000Y363499D01*
X595999D01*
X596499Y363000D01*
Y361000D01*
X595999Y360501D01*
X595000D01*
X594500Y361000D01*
X591501Y363499D02*
X592500Y363000D01*
X593500Y362000D01*
Y361000D01*
X593000Y360501D01*
X592001D01*
X591501Y361000D01*
Y361500D01*
X592001Y362000D01*
X593500D01*
X528500Y363000D02*
X529000Y363499D01*
X529999D01*
X530499Y363000D01*
Y361000D01*
X529999Y360501D01*
X529000D01*
X528500Y361000D01*
X525501Y363499D02*
X527500D01*
Y362000D01*
X526501Y362500D01*
X526001D01*
X525501Y362000D01*
Y361000D01*
X526001Y360501D01*
X527000D01*
X527500Y361000D01*
X460500Y387000D02*
X461000Y387499D01*
X461999D01*
X462499Y387000D01*
Y385000D01*
X461999Y384501D01*
X461000D01*
X460500Y385000D01*
X458001Y384501D02*
Y387499D01*
X459500Y386000D01*
X457501D01*
X348651Y354751D02*
X348151Y355251D01*
Y356251D01*
X348651Y356751D01*
X350651D01*
X351150Y356251D01*
Y355251D01*
X350651Y354751D01*
X348651Y353752D02*
X348151Y353252D01*
Y352252D01*
X348651Y351752D01*
X349151D01*
X349651Y352252D01*
Y352752D01*
Y352252D01*
X350151Y351752D01*
X350651D01*
X351150Y352252D01*
Y353252D01*
X350651Y353752D01*
D57*
X458272Y348406D02*
G03*
X458272Y348406I-1181J0D01*
G01*
D58*
X405575Y348693D02*
G03*
X405575Y348693I-787J0D01*
G01*
M02*
