G04*
G04 #@! TF.GenerationSoftware,Altium Limited,Altium Designer,24.1.2 (44)*
G04*
G04 Layer_Color=65535*
%FSLAX25Y25*%
%MOIN*%
G70*
G04*
G04 #@! TF.SameCoordinates,E3FF4B23-F407-445B-9987-FD0FFFC61A21*
G04*
G04*
G04 #@! TF.FilePolarity,Positive*
G04*
G01*
G75*
%ADD10C,0.00984*%
%ADD11C,0.02000*%
%ADD12C,0.00787*%
%ADD13C,0.01000*%
%ADD14C,0.00600*%
G36*
X2447276Y279239D02*
X2448386Y279237D01*
X2449410Y279233D01*
X2450000Y279230D01*
X2453499Y279208D01*
X2450020Y273274D01*
X2449486Y272364D01*
X2448977Y271496D01*
X2448497Y270682D01*
X2448054Y269931D01*
X2447654Y269255D01*
X2447303Y268664D01*
X2447007Y268168D01*
X2446773Y267779D01*
X2446608Y267507D01*
X2446516Y267361D01*
X2446500Y267340D01*
X2446453Y267410D01*
X2446327Y267614D01*
X2446130Y267940D01*
X2445868Y268378D01*
X2445547Y268918D01*
X2445173Y269548D01*
X2444753Y270259D01*
X2444293Y271040D01*
X2443799Y271879D01*
X2443278Y272767D01*
X2442980Y273274D01*
X2439502Y279208D01*
X2443001Y279230D01*
X2443945Y279235D01*
X2445006Y279238D01*
X2446133Y279239D01*
X2447276Y279239D01*
D02*
G37*
G36*
X2470542Y285750D02*
X2470873Y285475D01*
X2471154Y285234D01*
X2471362Y285048D01*
X2471473Y284938D01*
X2471485Y284921D01*
X2471444Y284843D01*
X2471321Y284630D01*
X2471119Y284290D01*
X2470844Y283830D01*
X2470498Y283257D01*
X2470087Y282579D01*
X2469616Y281803D01*
X2469088Y280937D01*
X2468508Y279986D01*
X2467881Y278960D01*
X2467211Y277865D01*
X2466502Y276708D01*
X2465759Y275497D01*
X2464987Y274239D01*
X2464190Y272941D01*
X2464005Y272642D01*
X2456500Y260441D01*
Y245708D01*
X2452395Y241604D01*
X2451710Y240920D01*
X2451059Y240271D01*
X2450452Y239668D01*
X2449898Y239119D01*
X2449406Y238635D01*
X2448988Y238224D01*
X2448651Y237896D01*
X2448407Y237661D01*
X2448264Y237527D01*
X2448229Y237500D01*
X2448222Y237582D01*
X2448215Y237822D01*
X2448209Y238211D01*
X2448203Y238740D01*
X2448197Y239402D01*
X2448192Y240187D01*
X2448187Y241086D01*
X2448182Y242091D01*
X2448178Y243193D01*
X2448175Y244383D01*
X2448172Y245653D01*
X2448170Y246994D01*
X2448168Y248398D01*
X2448167Y249854D01*
X2448167Y251203D01*
Y264907D01*
X2454811Y275703D01*
X2461455Y286500D01*
X2469626D01*
X2470542Y285750D01*
D02*
G37*
G36*
X2444833Y264916D02*
Y251208D01*
X2444833Y249710D01*
X2444832Y248258D01*
X2444830Y246861D01*
X2444828Y245526D01*
X2444825Y244263D01*
X2444821Y243081D01*
X2444817Y241988D01*
X2444812Y240993D01*
X2444807Y240105D01*
X2444802Y239332D01*
X2444796Y238683D01*
X2444790Y238166D01*
X2444783Y237791D01*
X2444777Y237567D01*
X2444770Y237500D01*
X2444703Y237558D01*
X2444527Y237723D01*
X2444252Y237989D01*
X2443889Y238343D01*
X2443447Y238778D01*
X2442935Y239284D01*
X2442363Y239851D01*
X2441741Y240469D01*
X2441079Y241130D01*
X2440604Y241604D01*
X2436500Y245709D01*
Y260444D01*
X2428995Y272646D01*
X2428193Y273951D01*
X2427415Y275219D01*
X2426665Y276441D01*
X2425948Y277611D01*
X2425269Y278720D01*
X2424632Y279763D01*
X2424041Y280731D01*
X2423501Y281617D01*
X2423016Y282414D01*
X2422591Y283114D01*
X2422230Y283711D01*
X2421938Y284197D01*
X2421719Y284564D01*
X2421577Y284806D01*
X2421518Y284915D01*
X2421516Y284921D01*
X2421587Y284997D01*
X2421763Y285158D01*
X2422021Y285381D01*
X2422336Y285646D01*
X2422458Y285747D01*
X2423375Y286500D01*
X2431552Y286500D01*
X2444833Y264916D01*
D02*
G37*
D10*
X280429Y344000D02*
G03*
X280429Y344000I-492J0D01*
G01*
Y394000D02*
G03*
X280429Y394000I-492J0D01*
G01*
Y384000D02*
G03*
X280429Y384000I-492J0D01*
G01*
X280335Y374000D02*
G03*
X280335Y374000I-492J0D01*
G01*
Y364000D02*
G03*
X280335Y364000I-492J0D01*
G01*
Y354000D02*
G03*
X280335Y354000I-492J0D01*
G01*
Y404000D02*
G03*
X280335Y404000I-492J0D01*
G01*
X237492Y336984D02*
G03*
X237492Y336984I-492J0D01*
G01*
X248492D02*
G03*
X248492Y336984I-492J0D01*
G01*
X259492D02*
G03*
X259492Y336984I-492J0D01*
G01*
X412492Y356638D02*
G03*
X412492Y356638I-492J0D01*
G01*
X426854Y424000D02*
G03*
X426854Y424000I-492J0D01*
G01*
X427130Y306000D02*
G03*
X427130Y306000I-492J0D01*
G01*
X423854D02*
G03*
X423854Y306000I-492J0D01*
G01*
X428492Y357638D02*
G03*
X428492Y357638I-492J0D01*
G01*
X238492Y267638D02*
G03*
X238492Y267638I-492J0D01*
G01*
X284492Y432638D02*
G03*
X284492Y432638I-492J0D01*
G01*
X394492Y356638D02*
G03*
X394492Y356638I-492J0D01*
G01*
X228492Y446638D02*
G03*
X228492Y446638I-492J0D01*
G01*
X249665Y274000D02*
G03*
X249665Y274000I-492J0D01*
G01*
D11*
X574500Y259250D02*
G03*
X574500Y259250I-1500J0D01*
G01*
X555500Y343750D02*
G03*
X555500Y343750I-1500J0D01*
G01*
D12*
X578315Y393276D02*
G03*
X578315Y392882I0J-197D01*
G01*
D02*
G03*
X578315Y393276I0J197D01*
G01*
D02*
G03*
X578315Y392882I0J-197D01*
G01*
X512157Y393276D02*
G03*
X512157Y392882I0J-197D01*
G01*
D02*
G03*
X512157Y393276I0J197D01*
G01*
D02*
G03*
X512157Y392882I0J-197D01*
G01*
X446158Y393276D02*
G03*
X446158Y392882I0J-197D01*
G01*
D02*
G03*
X446158Y393276I0J197D01*
G01*
D02*
G03*
X446158Y392882I0J-197D01*
G01*
X578000Y471276D02*
G03*
X578000Y470882I0J-197D01*
G01*
D02*
G03*
X578000Y471276I0J197D01*
G01*
D02*
G03*
X578000Y470882I0J-197D01*
G01*
X512000Y471276D02*
G03*
X512000Y470882I0J-197D01*
G01*
D02*
G03*
X512000Y471276I0J197D01*
G01*
D02*
G03*
X512000Y470882I0J-197D01*
G01*
X446315Y471276D02*
G03*
X446315Y470882I0J-197D01*
G01*
D02*
G03*
X446315Y471276I0J197D01*
G01*
D02*
G03*
X446315Y470882I0J-197D01*
G01*
X468724Y258315D02*
G03*
X469118Y258315I197J0D01*
G01*
D02*
G03*
X468724Y258315I-197J0D01*
G01*
D02*
G03*
X469118Y258315I197J0D01*
G01*
X398724D02*
G03*
X399118Y258315I197J0D01*
G01*
D02*
G03*
X398724Y258315I-197J0D01*
G01*
D02*
G03*
X399118Y258315I197J0D01*
G01*
X269701Y347445D02*
X276394D01*
X269701Y340555D02*
X276394D01*
X269701Y397445D02*
X276394D01*
X269701Y390555D02*
X276394D01*
X269701Y387445D02*
X276394D01*
X269701Y380555D02*
X276394D01*
X269606Y377445D02*
X276299D01*
X269606Y370555D02*
X276299D01*
X269606Y367445D02*
X276299D01*
X269606Y360555D02*
X276299D01*
X269606Y357445D02*
X276299D01*
X269606Y350555D02*
X276299D01*
X269606Y407445D02*
X276299D01*
X269606Y400555D02*
X276299D01*
X242295Y338756D02*
Y409937D01*
X231705Y338756D02*
X242295D01*
X231705D02*
Y409937D01*
X242295D01*
X253295Y338756D02*
Y409937D01*
X242705Y338756D02*
X253295D01*
X242705D02*
Y409937D01*
X253295D01*
X264295Y338756D02*
Y409937D01*
X253705Y338756D02*
X264295D01*
X253705D02*
Y409937D01*
X264295D01*
X406705Y409590D02*
X417295D01*
X406705Y358410D02*
Y409590D01*
Y358410D02*
X417295D01*
Y409590D01*
X383410Y429295D02*
X424590D01*
Y418705D02*
Y429295D01*
X383410Y418705D02*
X424590D01*
X383410D02*
Y429295D01*
X459590Y300705D02*
Y311295D01*
X428409D02*
X459590D01*
X428409Y300705D02*
Y311295D01*
Y300705D02*
X459590D01*
X400410D02*
Y311295D01*
Y300705D02*
X421591D01*
Y311295D01*
X400410D02*
X421591D01*
X422705Y380591D02*
X433295D01*
X422705Y359409D02*
Y380591D01*
Y359409D02*
X433295D01*
Y380591D01*
X232705Y290591D02*
X243295D01*
X232705Y269409D02*
Y290591D01*
Y269409D02*
X243295D01*
Y290591D01*
X278705Y485591D02*
X289295D01*
X278705Y434410D02*
Y485591D01*
Y434410D02*
X289295D01*
Y485591D01*
X388705Y409590D02*
X399295D01*
X388705Y358410D02*
Y409590D01*
Y358410D02*
X399295D01*
Y409590D01*
X222705Y469591D02*
X233295D01*
X222705Y448410D02*
Y469591D01*
Y448410D02*
X233295D01*
Y469591D01*
X568472Y436386D02*
Y447213D01*
X607842D01*
Y436386D02*
Y447213D01*
Y403905D02*
Y414732D01*
X568472Y403905D02*
X607842D01*
X568472D02*
Y414732D01*
X502315Y436386D02*
Y447213D01*
X541685D01*
Y436386D02*
Y447213D01*
Y403905D02*
Y414732D01*
X502315Y403905D02*
X541685D01*
X502315D02*
Y414732D01*
X436315Y436386D02*
Y447213D01*
X475685D01*
Y436386D02*
Y447213D01*
Y403905D02*
Y414732D01*
X436315Y403905D02*
X475685D01*
X436315D02*
Y414732D01*
X568157Y514386D02*
Y525213D01*
X607528D01*
Y514386D02*
Y525213D01*
Y481906D02*
Y492732D01*
X568157Y481906D02*
X607528D01*
X568157D02*
Y492732D01*
X502157Y514386D02*
Y525213D01*
X541528D01*
Y514386D02*
Y525213D01*
Y481906D02*
Y492732D01*
X502157Y481906D02*
X541528D01*
X502157D02*
Y492732D01*
X436472Y514386D02*
Y525213D01*
X475843D01*
Y514386D02*
Y525213D01*
Y481906D02*
Y492732D01*
X436472Y481906D02*
X475843D01*
X436472D02*
Y492732D01*
X414787Y248472D02*
X425614D01*
X414787D02*
Y287842D01*
X425614D01*
X447268D02*
X458095D01*
Y248472D02*
Y287842D01*
X447268Y248472D02*
X458095D01*
X247346Y455146D02*
Y460854D01*
X240653Y455146D02*
Y460854D01*
X344787Y248472D02*
X355614D01*
X344787D02*
Y287842D01*
X355614D01*
X377268D02*
X388094D01*
Y248472D02*
Y287842D01*
X377268Y248472D02*
X388094D01*
X251535Y268094D02*
Y293685D01*
Y268094D02*
X298780D01*
Y293685D01*
X251535D02*
X298780D01*
D13*
X254000Y412000D02*
X259000Y417000D01*
Y426000D01*
X240000Y414000D02*
X242000Y412000D01*
X240000Y414000D02*
Y419000D01*
X486500Y265193D02*
Y335665D01*
Y265193D02*
X525476D01*
X525500D02*
Y339693D01*
X486500Y335665D02*
Y339693D01*
X517811Y347382D02*
X525500Y339693D01*
X486500D02*
X494000Y347193D01*
X494189Y347382D01*
X517811D01*
X421000Y385000D02*
X422000D01*
X421500D01*
Y387999D01*
X421000Y387499D01*
X425498Y385000D02*
X423499D01*
X425498Y386999D01*
Y387499D01*
X424999Y387999D01*
X423999D01*
X423499Y387499D01*
X426498Y386999D02*
X427498Y385000D01*
X428498Y386999D01*
X422999Y405499D02*
X422500Y405999D01*
X421500D01*
X421000Y405499D01*
Y403500D01*
X421500Y403000D01*
X422500D01*
X422999Y403500D01*
Y404499D01*
X422000D01*
X423999Y403000D02*
Y405999D01*
X425998Y403000D01*
Y405999D01*
X438999Y377499D02*
X438499Y377999D01*
X437500D01*
X437000Y377499D01*
Y375500D01*
X437500Y375000D01*
X438499D01*
X438999Y375500D01*
Y376500D01*
X438000D01*
X439999Y375000D02*
Y377999D01*
X441998Y375000D01*
Y377999D01*
X437000Y361000D02*
X438000D01*
X437500D01*
Y363999D01*
X437000Y363499D01*
X441499Y361000D02*
X439499D01*
X441499Y362999D01*
Y363499D01*
X440999Y363999D01*
X439999D01*
X439499Y363499D01*
X442498Y363999D02*
Y362000D01*
X443498Y361000D01*
X444498Y362000D01*
Y363999D01*
X237832Y441998D02*
X234500D01*
Y439499D01*
X236166D01*
X234500D01*
Y437000D01*
X239498D02*
Y440332D01*
X241164Y441998D01*
X242831Y440332D01*
Y437000D01*
Y439499D01*
X239498D01*
X244497Y441998D02*
Y437833D01*
X245330Y437000D01*
X246996D01*
X247829Y437833D01*
Y441998D01*
X249495D02*
Y437000D01*
X252827D01*
X254493Y441998D02*
X257826D01*
X256160D01*
Y437000D01*
X262824Y441165D02*
X261991Y441998D01*
X260325D01*
X259492Y441165D01*
Y440332D01*
X260325Y439499D01*
X261991D01*
X262824Y438666D01*
Y437833D01*
X261991Y437000D01*
X260325D01*
X259492Y437833D01*
X246000Y431999D02*
Y428000D01*
X247999D01*
X248666Y428666D01*
Y431332D01*
X247999Y431999D01*
X246000D01*
X249999Y428000D02*
X251332D01*
X250665D01*
Y430666D01*
X249999D01*
X253331Y428000D02*
X255330D01*
X255997Y428666D01*
X255330Y429333D01*
X253997D01*
X253331Y429999D01*
X253997Y430666D01*
X255997D01*
X257996D02*
X259329D01*
X259996Y429999D01*
Y428000D01*
X257996D01*
X257330Y428666D01*
X257996Y429333D01*
X259996D01*
X261328Y431999D02*
Y428000D01*
X263328D01*
X263994Y428666D01*
Y429333D01*
Y429999D01*
X263328Y430666D01*
X261328D01*
X265327Y428000D02*
X266660D01*
X265994D01*
Y431999D01*
X265327D01*
X270659Y428000D02*
X269326D01*
X268659Y428666D01*
Y429999D01*
X269326Y430666D01*
X270659D01*
X271325Y429999D01*
Y429333D01*
X268659D01*
X230666Y424999D02*
X228000D01*
Y421000D01*
X230666D01*
X228000Y422999D02*
X229333D01*
X231999Y421000D02*
Y423666D01*
X233998D01*
X234665Y422999D01*
Y421000D01*
X236664Y423666D02*
X237997D01*
X238663Y422999D01*
Y421000D01*
X236664D01*
X235997Y421666D01*
X236664Y422333D01*
X238663D01*
X239996Y424999D02*
Y421000D01*
X241996D01*
X242662Y421666D01*
Y422333D01*
Y422999D01*
X241996Y423666D01*
X239996D01*
X243995Y421000D02*
X245328D01*
X244661D01*
Y424999D01*
X243995D01*
X249326Y421000D02*
X247994D01*
X247327Y421666D01*
Y422999D01*
X247994Y423666D01*
X249326D01*
X249993Y422999D01*
Y422333D01*
X247327D01*
X191678Y345999D02*
X189012D01*
Y343999D01*
X190345D01*
X189012D01*
Y342000D01*
X193011Y344666D02*
Y342666D01*
X193677Y342000D01*
X195677D01*
Y344666D01*
X197010Y342000D02*
X199009D01*
X199676Y342666D01*
X199009Y343333D01*
X197676D01*
X197010Y343999D01*
X197676Y344666D01*
X199676D01*
X203008Y342000D02*
X201675D01*
X201008Y342666D01*
Y343999D01*
X201675Y344666D01*
X203008D01*
X203674Y343999D01*
Y343333D01*
X201008D01*
X209006Y345999D02*
Y342000D01*
X211005D01*
X211672Y342666D01*
Y343333D01*
X211005Y343999D01*
X209006D01*
X211005D01*
X211672Y344666D01*
Y345332D01*
X211005Y345999D01*
X209006D01*
X213004Y342000D02*
X214337D01*
X213671D01*
Y345999D01*
X213004D01*
X217003Y342000D02*
X218336D01*
X219003Y342666D01*
Y343999D01*
X218336Y344666D01*
X217003D01*
X216337Y343999D01*
Y342666D01*
X217003Y342000D01*
X220336Y344666D02*
Y342666D01*
X221002Y342000D01*
X221668Y342666D01*
X222335Y342000D01*
X223001Y342666D01*
Y344666D01*
X224334Y342000D02*
Y344666D01*
X226334D01*
X227000Y343999D01*
Y342000D01*
X171685Y357332D02*
X170352D01*
X169685Y356665D01*
Y353999D01*
X170352Y353333D01*
X171685D01*
X172351Y353999D01*
Y356665D01*
X171685Y357332D01*
X173684Y355999D02*
X175017Y353333D01*
X176350Y355999D01*
X179682Y353333D02*
X178349D01*
X177683Y353999D01*
Y355332D01*
X178349Y355999D01*
X179682D01*
X180348Y355332D01*
Y354666D01*
X177683D01*
X181681Y355999D02*
Y353333D01*
Y354666D01*
X182348Y355332D01*
X183014Y355999D01*
X183681D01*
X186346Y356665D02*
Y355999D01*
X185680D01*
X187013D01*
X186346D01*
Y353999D01*
X187013Y353333D01*
X191012D02*
X189679D01*
X189012Y353999D01*
Y355332D01*
X189679Y355999D01*
X191012D01*
X191678Y355332D01*
Y354666D01*
X189012D01*
X193011Y353333D02*
Y355999D01*
X193677D01*
X194344Y355332D01*
Y353333D01*
Y355332D01*
X195010Y355999D01*
X195677Y355332D01*
Y353333D01*
X197010Y352000D02*
Y355999D01*
X199009D01*
X199676Y355332D01*
Y353999D01*
X199009Y353333D01*
X197010D01*
X203008D02*
X201675D01*
X201008Y353999D01*
Y355332D01*
X201675Y355999D01*
X203008D01*
X203674Y355332D01*
Y354666D01*
X201008D01*
X205007Y355999D02*
Y353333D01*
Y354666D01*
X205674Y355332D01*
X206340Y355999D01*
X207006D01*
X209672D02*
X211005D01*
X211672Y355332D01*
Y353333D01*
X209672D01*
X209006Y353999D01*
X209672Y354666D01*
X211672D01*
X213671Y356665D02*
Y355999D01*
X213004D01*
X214337D01*
X213671D01*
Y353999D01*
X214337Y353333D01*
X216337Y355999D02*
Y353999D01*
X217003Y353333D01*
X219003D01*
Y355999D01*
X220336D02*
Y353333D01*
Y354666D01*
X221002Y355332D01*
X221668Y355999D01*
X222335D01*
X226334Y353333D02*
X225001D01*
X224334Y353999D01*
Y355332D01*
X225001Y355999D01*
X226334D01*
X227000Y355332D01*
Y354666D01*
X224334D01*
X195010Y367332D02*
X193677D01*
X193011Y366665D01*
Y363999D01*
X193677Y363333D01*
X195010D01*
X195677Y363999D01*
Y366665D01*
X195010Y367332D01*
X197010Y365999D02*
X198343Y363333D01*
X199676Y365999D01*
X203008Y363333D02*
X201675D01*
X201008Y363999D01*
Y365332D01*
X201675Y365999D01*
X203008D01*
X203674Y365332D01*
Y364666D01*
X201008D01*
X205007Y365999D02*
Y363333D01*
Y364666D01*
X205674Y365332D01*
X206340Y365999D01*
X207006D01*
X209006Y362000D02*
Y365999D01*
X211005D01*
X211672Y365332D01*
Y363999D01*
X211005Y363333D01*
X209006D01*
X213671D02*
X215004D01*
X215670Y363999D01*
Y365332D01*
X215004Y365999D01*
X213671D01*
X213004Y365332D01*
Y363999D01*
X213671Y363333D01*
X217003Y365999D02*
Y363999D01*
X217670Y363333D01*
X218336Y363999D01*
X219003Y363333D01*
X219669Y363999D01*
Y365999D01*
X223001Y363333D02*
X221668D01*
X221002Y363999D01*
Y365332D01*
X221668Y365999D01*
X223001D01*
X223668Y365332D01*
Y364666D01*
X221002D01*
X225001Y365999D02*
Y363333D01*
Y364666D01*
X225667Y365332D01*
X226334Y365999D01*
X227000D01*
X187679Y376999D02*
X186346D01*
X185680Y376332D01*
Y373666D01*
X186346Y373000D01*
X187679D01*
X188346Y373666D01*
Y376332D01*
X187679Y376999D01*
X189679Y375666D02*
X191012Y373000D01*
X192344Y375666D01*
X195677Y373000D02*
X194344D01*
X193677Y373666D01*
Y374999D01*
X194344Y375666D01*
X195677D01*
X196343Y374999D01*
Y374333D01*
X193677D01*
X197676Y375666D02*
Y373000D01*
Y374333D01*
X198343Y374999D01*
X199009Y375666D01*
X199676D01*
X204341D02*
X202341D01*
X201675Y374999D01*
Y373666D01*
X202341Y373000D01*
X204341D01*
X205674Y375666D02*
Y373666D01*
X206340Y373000D01*
X208339D01*
Y375666D01*
X209672D02*
Y373000D01*
Y374333D01*
X210339Y374999D01*
X211005Y375666D01*
X211672D01*
X213671D02*
Y373000D01*
Y374333D01*
X214337Y374999D01*
X215004Y375666D01*
X215670D01*
X219669Y373000D02*
X218336D01*
X217670Y373666D01*
Y374999D01*
X218336Y375666D01*
X219669D01*
X220336Y374999D01*
Y374333D01*
X217670D01*
X221668Y373000D02*
Y375666D01*
X223668D01*
X224334Y374999D01*
Y373000D01*
X226334Y376332D02*
Y375666D01*
X225667D01*
X227000D01*
X226334D01*
Y373666D01*
X227000Y373000D01*
X187679Y387332D02*
X186346D01*
X185680Y386665D01*
Y383999D01*
X186346Y383333D01*
X187679D01*
X188346Y383999D01*
Y386665D01*
X187679Y387332D01*
X189679Y385999D02*
X191012Y383333D01*
X192344Y385999D01*
X195677Y383333D02*
X194344D01*
X193677Y383999D01*
Y385332D01*
X194344Y385999D01*
X195677D01*
X196343Y385332D01*
Y384666D01*
X193677D01*
X197676Y385999D02*
Y383333D01*
Y384666D01*
X198343Y385332D01*
X199009Y385999D01*
X199676D01*
X201675D02*
X203008Y383333D01*
X204341Y385999D01*
X206340Y383333D02*
X207673D01*
X208339Y383999D01*
Y385332D01*
X207673Y385999D01*
X206340D01*
X205674Y385332D01*
Y383999D01*
X206340Y383333D01*
X209672D02*
X211005D01*
X210339D01*
Y387332D01*
X209672D01*
X213671Y386665D02*
Y385999D01*
X213004D01*
X214337D01*
X213671D01*
Y383999D01*
X214337Y383333D01*
X217003Y385999D02*
X218336D01*
X219003Y385332D01*
Y383333D01*
X217003D01*
X216337Y383999D01*
X217003Y384666D01*
X219003D01*
X221668Y382000D02*
X222335D01*
X223001Y382666D01*
Y385999D01*
X221002D01*
X220336Y385332D01*
Y383999D01*
X221002Y383333D01*
X223001D01*
X226334D02*
X225001D01*
X224334Y383999D01*
Y385332D01*
X225001Y385999D01*
X226334D01*
X227000Y385332D01*
Y384666D01*
X224334D01*
X193011Y397332D02*
Y393333D01*
Y395332D01*
X195677D01*
Y397332D01*
Y393333D01*
X199676Y396665D02*
X199009Y397332D01*
X197676D01*
X197010Y396665D01*
Y395999D01*
X197676Y395332D01*
X199009D01*
X199676Y394666D01*
Y393999D01*
X199009Y393333D01*
X197676D01*
X197010Y393999D01*
X205007Y393333D02*
X206340D01*
X205674D01*
Y397332D01*
X205007Y396665D01*
X212338Y397332D02*
X215004D01*
X213671D01*
Y393333D01*
X218336D02*
X217003D01*
X216337Y393999D01*
Y395332D01*
X217003Y395999D01*
X218336D01*
X219003Y395332D01*
Y394666D01*
X216337D01*
X220336Y393333D02*
Y395999D01*
X221002D01*
X221668Y395332D01*
Y393333D01*
Y395332D01*
X222335Y395999D01*
X223001Y395332D01*
Y393333D01*
X224334Y392000D02*
Y395999D01*
X226334D01*
X227000Y395332D01*
Y393999D01*
X226334Y393333D01*
X224334D01*
X192344Y407332D02*
Y403333D01*
Y405332D01*
X195010D01*
Y407332D01*
Y403333D01*
X199009Y406665D02*
X198343Y407332D01*
X197010D01*
X196343Y406665D01*
Y405999D01*
X197010Y405332D01*
X198343D01*
X199009Y404666D01*
Y403999D01*
X198343Y403333D01*
X197010D01*
X196343Y403999D01*
X207006Y403333D02*
X204341D01*
X207006Y405999D01*
Y406665D01*
X206340Y407332D01*
X205007D01*
X204341Y406665D01*
X212338Y407332D02*
X215004D01*
X213671D01*
Y403333D01*
X218336D02*
X217003D01*
X216337Y403999D01*
Y405332D01*
X217003Y405999D01*
X218336D01*
X219003Y405332D01*
Y404666D01*
X216337D01*
X220336Y403333D02*
Y405999D01*
X221002D01*
X221668Y405332D01*
Y403333D01*
Y405332D01*
X222335Y405999D01*
X223001Y405332D01*
Y403333D01*
X224334Y402000D02*
Y405999D01*
X226334D01*
X227000Y405332D01*
Y403999D01*
X226334Y403333D01*
X224334D01*
X495000Y354692D02*
X496999Y351693D01*
Y354692D02*
X495000Y351693D01*
X497999Y354692D02*
X499998D01*
X498999D01*
Y351693D01*
X500998Y352193D02*
X501498Y351693D01*
X502498D01*
X502997Y352193D01*
Y354192D01*
X502498Y354692D01*
X501498D01*
X500998Y354192D01*
Y353692D01*
X501498Y353192D01*
X502997D01*
X503997Y354192D02*
X504497Y354692D01*
X505497D01*
X505996Y354192D01*
Y352193D01*
X505497Y351693D01*
X504497D01*
X503997Y352193D01*
Y354192D01*
X479000Y283193D02*
X480999D01*
X480000Y284192D02*
Y282193D01*
X483500Y328193D02*
X481501D01*
X558951Y253451D02*
X556952Y256451D01*
Y253451D02*
X558951Y256451D01*
X553953Y253451D02*
X555952D01*
Y254951D01*
X554953D01*
X555952D01*
Y256451D01*
X550954D02*
X552953D01*
X550954Y254451D01*
Y253951D01*
X551454Y253451D01*
X552453D01*
X552953Y253951D01*
X567549Y349549D02*
X569548Y346550D01*
Y349549D02*
X567549Y346550D01*
X572547Y349549D02*
X570548D01*
Y348049D01*
X571548D01*
X570548D01*
Y346550D01*
X573547D02*
X574547D01*
X574047D01*
Y349549D01*
X573547Y349049D01*
X2434546Y293949D02*
X2436546D01*
Y293449D01*
X2434546Y291449D01*
Y290950D01*
X2436546D01*
X2437545D02*
X2438545D01*
X2438045D01*
Y293949D01*
X2437545Y293449D01*
X563049Y536848D02*
Y534849D01*
X564048Y533849D01*
X565048Y534849D01*
Y536848D01*
X566048Y533849D02*
Y536848D01*
X567547D01*
X568047Y536349D01*
Y535349D01*
X567547Y534849D01*
X566048D01*
X567047D02*
X568047Y533849D01*
X569047Y534349D02*
X569547Y533849D01*
X570546D01*
X571046Y534349D01*
Y536349D01*
X570546Y536848D01*
X569547D01*
X569047Y536349D01*
Y535849D01*
X569547Y535349D01*
X571046D01*
X563364Y458848D02*
Y456849D01*
X564363Y455850D01*
X565363Y456849D01*
Y458848D01*
X566363Y455850D02*
Y458848D01*
X567862D01*
X568362Y458349D01*
Y457349D01*
X567862Y456849D01*
X566363D01*
X567362D02*
X568362Y455850D01*
X569362Y458848D02*
X571361D01*
Y458349D01*
X569362Y456349D01*
Y455850D01*
X333152Y243364D02*
X335151D01*
X336151Y244363D01*
X335151Y245363D01*
X333152D01*
X336151Y246363D02*
X333152D01*
Y247862D01*
X333651Y248362D01*
X334651D01*
X335151Y247862D01*
Y246363D01*
Y247362D02*
X336151Y248362D01*
X333152Y251361D02*
X333651Y250361D01*
X334651Y249362D01*
X335651D01*
X336151Y249862D01*
Y250861D01*
X335651Y251361D01*
X335151D01*
X334651Y250861D01*
Y249362D01*
X403152Y243364D02*
X405151D01*
X406150Y244363D01*
X405151Y245363D01*
X403152D01*
X406150Y246363D02*
X403152D01*
Y247862D01*
X403651Y248362D01*
X404651D01*
X405151Y247862D01*
Y246363D01*
Y247362D02*
X406150Y248362D01*
X403152Y251361D02*
Y249362D01*
X404651D01*
X404151Y250361D01*
Y250861D01*
X404651Y251361D01*
X405651D01*
X406150Y250861D01*
Y249862D01*
X405651Y249362D01*
X497049Y536848D02*
Y534849D01*
X498048Y533849D01*
X499048Y534849D01*
Y536848D01*
X500048Y533849D02*
Y536848D01*
X501547D01*
X502047Y536349D01*
Y535349D01*
X501547Y534849D01*
X500048D01*
X501047D02*
X502047Y533849D01*
X504546D02*
Y536848D01*
X503047Y535349D01*
X505046D01*
X431364Y536848D02*
Y534849D01*
X432363Y533849D01*
X433363Y534849D01*
Y536848D01*
X434363Y533849D02*
Y536848D01*
X435862D01*
X436362Y536349D01*
Y535349D01*
X435862Y534849D01*
X434363D01*
X435362D02*
X436362Y533849D01*
X437362Y536349D02*
X437862Y536848D01*
X438861D01*
X439361Y536349D01*
Y535849D01*
X438861Y535349D01*
X438361D01*
X438861D01*
X439361Y534849D01*
Y534349D01*
X438861Y533849D01*
X437862D01*
X437362Y534349D01*
X497206Y458848D02*
Y456849D01*
X498206Y455850D01*
X499205Y456849D01*
Y458848D01*
X500205Y455850D02*
Y458848D01*
X501705D01*
X502205Y458349D01*
Y457349D01*
X501705Y456849D01*
X500205D01*
X501205D02*
X502205Y455850D01*
X505204D02*
X503204D01*
X505204Y457849D01*
Y458349D01*
X504704Y458848D01*
X503704D01*
X503204Y458349D01*
X430706Y458848D02*
Y456849D01*
X431706Y455850D01*
X432706Y456849D01*
Y458848D01*
X433705Y455850D02*
Y458848D01*
X435205D01*
X435705Y458349D01*
Y457349D01*
X435205Y456849D01*
X433705D01*
X434705D02*
X435705Y455850D01*
X436704D02*
X437704D01*
X437204D01*
Y458848D01*
X436704Y458349D01*
X303501Y271499D02*
Y269000D01*
X304001Y268500D01*
X305000D01*
X305500Y269000D01*
Y271499D01*
X307999Y268500D02*
Y271499D01*
X306500Y270000D01*
X308499D01*
X240251Y470501D02*
Y473499D01*
X241751D01*
X242251Y473000D01*
Y472000D01*
X241751Y471500D01*
X240251D01*
X241251D02*
X242251Y470501D01*
X243250D02*
X244250D01*
X243750D01*
Y473499D01*
X243250Y473000D01*
X247249Y470501D02*
Y473499D01*
X245749Y472000D01*
X247749D01*
D14*
X593500Y261750D02*
Y341250D01*
X565500D02*
X593500D01*
X565500Y261750D02*
Y341250D01*
Y261750D02*
X593500D01*
X533500D02*
Y341250D01*
Y261750D02*
X561500D01*
Y341250D01*
X533500D02*
X561500D01*
M02*
