G04*
G04 #@! TF.GenerationSoftware,Altium Limited,Altium Designer,24.1.2 (44)*
G04*
G04 Layer_Color=0*
%FSLAX25Y25*%
%MOIN*%
G70*
G04*
G04 #@! TF.SameCoordinates,E3FF4B23-F407-445B-9987-FD0FFFC61A21*
G04*
G04*
G04 #@! TF.FilePolarity,Positive*
G04*
G01*
G75*
%ADD59C,0.00394*%
%ADD62C,0.00197*%
D59*
X273047Y342032D02*
Y345969D01*
X271079Y344000D02*
X275016D01*
X273047Y392032D02*
Y395969D01*
X271079Y394000D02*
X275016D01*
X273047Y382031D02*
Y385968D01*
X271079Y384000D02*
X275016D01*
X272953Y372031D02*
Y375969D01*
X270984Y374000D02*
X274921D01*
X272953Y362032D02*
Y365968D01*
X270984Y364000D02*
X274921D01*
X272953Y352031D02*
Y355968D01*
X270984Y354000D02*
X274921D01*
X272953Y402032D02*
Y405969D01*
X270984Y404000D02*
X274921D01*
X242032Y458000D02*
X245969D01*
X244000Y456032D02*
Y459969D01*
X275157Y278921D02*
Y282858D01*
X273189Y280890D02*
X277126D01*
D62*
X235032Y374346D02*
X238968D01*
X237000Y372378D02*
Y376315D01*
X246031Y374346D02*
X249969D01*
X248000Y372378D02*
Y376315D01*
X257031Y374346D02*
X260968D01*
X259000Y372378D02*
Y376315D01*
X412000Y382031D02*
Y385968D01*
X410032Y384000D02*
X413969D01*
X404000Y422031D02*
Y425969D01*
X402032Y424000D02*
X405969D01*
X442031Y306000D02*
X445968D01*
X444000Y304031D02*
Y307968D01*
X411000Y304031D02*
Y307968D01*
X409031Y306000D02*
X412968D01*
X426031Y370000D02*
X429969D01*
X428000Y368032D02*
Y371969D01*
X236032Y280000D02*
X239968D01*
X238000Y278031D02*
Y281968D01*
X284000Y458032D02*
Y461969D01*
X282031Y460000D02*
X285968D01*
X394000Y382031D02*
Y385968D01*
X392032Y384000D02*
X395969D01*
X226031Y459000D02*
X229969D01*
X228000Y457031D02*
Y460968D01*
M02*
