G04*
G04 #@! TF.GenerationSoftware,Altium Limited,Altium Designer,24.1.2 (44)*
G04*
G04 Layer_Color=32768*
%FSLAX25Y25*%
%MOIN*%
G70*
G04*
G04 #@! TF.SameCoordinates,E3FF4B23-F407-445B-9987-FD0FFFC61A21*
G04*
G04*
G04 #@! TF.FilePolarity,Positive*
G04*
G01*
G75*
%ADD12C,0.00787*%
%ADD13C,0.01000*%
%ADD59C,0.00394*%
D12*
X356457Y345307D02*
Y358693D01*
Y345307D02*
X363543D01*
Y358693D01*
X356457D02*
X363543D01*
X270457Y301307D02*
Y314693D01*
Y301307D02*
X277543D01*
Y314693D01*
X270457D02*
X277543D01*
X320654Y301701D02*
Y314299D01*
Y301701D02*
X327346D01*
Y314299D01*
X320654D02*
X327346D01*
X439701Y323346D02*
X452299D01*
X439701Y316653D02*
Y323346D01*
Y316653D02*
X452299D01*
Y323346D01*
X590457Y367307D02*
Y380693D01*
Y367307D02*
X597543D01*
Y380693D01*
X590457D02*
X597543D01*
X524457Y367307D02*
Y380693D01*
Y367307D02*
X531543D01*
Y380693D01*
X524457D02*
X531543D01*
X456457Y367307D02*
Y380693D01*
Y367307D02*
X463543D01*
Y380693D01*
X456457D02*
X463543D01*
X580653Y367701D02*
Y380299D01*
Y367701D02*
X587347D01*
Y380299D01*
X580653D02*
X587347D01*
X514653Y367701D02*
Y380299D01*
Y367701D02*
X521347D01*
Y380299D01*
X514653D02*
X521347D01*
X446654Y367701D02*
Y380299D01*
Y367701D02*
X453346D01*
Y380299D01*
X446654D02*
X453346D01*
X393701Y329346D02*
X406299D01*
X393701Y322654D02*
Y329346D01*
Y322654D02*
X406299D01*
Y329346D01*
X285701Y367347D02*
X298299D01*
X285701Y360653D02*
Y367347D01*
Y360653D02*
X298299D01*
Y367347D01*
X285701Y357347D02*
X298299D01*
X285701Y350654D02*
Y357347D01*
Y350654D02*
X298299D01*
Y357347D01*
X285701Y347346D02*
X298299D01*
X285701Y340653D02*
Y347346D01*
Y340653D02*
X298299D01*
Y347346D01*
X285701Y377346D02*
X298299D01*
X285701Y370654D02*
Y377346D01*
Y370654D02*
X298299D01*
Y377346D01*
X285701Y387347D02*
X298299D01*
X285701Y380654D02*
Y387347D01*
Y380654D02*
X298299D01*
Y387347D01*
X285701Y397346D02*
X298299D01*
X285701Y390653D02*
Y397346D01*
Y390653D02*
X298299D01*
Y397346D01*
X285701Y407346D02*
X298299D01*
X285701Y400654D02*
Y407346D01*
Y400654D02*
X298299D01*
Y407346D01*
D13*
X317539Y280063D02*
X322642D01*
X317539D02*
Y287937D01*
X322642D01*
Y280063D02*
Y287937D01*
X469937Y317539D02*
Y322642D01*
X462063Y317539D02*
X469937D01*
X462063D02*
Y322642D01*
X469937D01*
D59*
X461027Y348799D02*
G03*
X461027Y348799I-1969J0D01*
G01*
X410299Y348299D02*
G03*
X410299Y348299I-1969J0D01*
G01*
X604500Y323984D02*
Y332016D01*
X619500D01*
Y323984D02*
Y332016D01*
X604500Y323984D02*
X619500D01*
X462602Y332658D02*
Y352343D01*
X446854Y332658D02*
Y352343D01*
X462602D01*
X446854Y332658D02*
X462602D01*
X396126Y332157D02*
X411874D01*
X396126Y351842D02*
X411874D01*
X396126Y332157D02*
Y351842D01*
X411874Y332157D02*
Y351842D01*
M02*
