G04*
G04 #@! TF.GenerationSoftware,Altium Limited,Altium Designer,24.1.2 (44)*
G04*
G04 Layer_Color=2752767*
%FSLAX25Y25*%
%MOIN*%
G70*
G04*
G04 #@! TF.SameCoordinates,E3FF4B23-F407-445B-9987-FD0FFFC61A21*
G04*
G04*
G04 #@! TF.FilePolarity,Positive*
G04*
G01*
G75*
%ADD63C,0.00500*%
%ADD64C,0.00667*%
D63*
X313000Y363000D02*
Y362000D01*
X315000D01*
Y363000D01*
X316000D01*
Y365000D01*
X315000D01*
Y366000D01*
X313000D01*
Y365000D01*
X312000D01*
Y363000D01*
X313000D01*
Y373000D02*
Y372000D01*
X315000D01*
Y373000D01*
X316000D01*
Y375000D01*
X315000D01*
Y376000D01*
X313000D01*
Y375000D01*
X312000D01*
Y373000D01*
X313000D01*
Y383000D02*
Y382000D01*
X315000D01*
Y383000D01*
X316000D01*
Y385000D01*
X315000D01*
Y386000D01*
X313000D01*
Y385000D01*
X312000D01*
Y383000D01*
X313000D01*
Y393000D02*
Y392000D01*
X315000D01*
Y393000D01*
X316000D01*
Y395000D01*
X315000D01*
Y396000D01*
X313000D01*
Y395000D01*
X312000D01*
Y393000D01*
X313000D01*
Y403000D02*
Y402000D01*
X315000D01*
Y403000D01*
X316000D01*
Y405000D01*
X315000D01*
Y406000D01*
X313000D01*
Y405000D01*
X312000D01*
Y403000D01*
X313000D01*
Y413000D02*
Y412000D01*
X315000D01*
Y413000D01*
X316000D01*
Y415000D01*
X315000D01*
Y416000D01*
X313000D01*
Y415000D01*
X312000D01*
Y413000D01*
X313000D01*
Y423000D02*
Y422000D01*
X315000D01*
Y423000D01*
X316000D01*
Y425000D01*
X315000D01*
Y426000D01*
X313000D01*
Y425000D01*
X312000D01*
Y423000D01*
X313000D01*
Y433000D02*
Y432000D01*
X315000D01*
Y433000D01*
X316000D01*
Y435000D01*
X315000D01*
Y436000D01*
X313000D01*
Y435000D01*
X312000D01*
Y433000D01*
X313000D01*
Y443000D02*
Y442000D01*
X315000D01*
Y443000D01*
X316000D01*
Y445000D01*
X315000D01*
Y446000D01*
X313000D01*
Y445000D01*
X312000D01*
Y443000D01*
X313000D01*
Y453000D02*
Y452000D01*
X315000D01*
Y453000D01*
X316000D01*
Y455000D01*
X315000D01*
Y456000D01*
X313000D01*
Y455000D01*
X312000D01*
Y453000D01*
X313000D01*
Y463000D02*
Y462000D01*
X315000D01*
Y463000D01*
X316000D01*
Y465000D01*
X315000D01*
Y466000D01*
X313000D01*
Y465000D01*
X312000D01*
Y463000D01*
X313000D01*
Y473000D02*
Y472000D01*
X315000D01*
Y473000D01*
X316000D01*
Y475000D01*
X315000D01*
Y476000D01*
X313000D01*
Y475000D01*
X312000D01*
Y473000D01*
X313000D01*
Y483000D02*
Y482000D01*
X315000D01*
Y483000D01*
X316000D01*
Y485000D01*
X315000D01*
Y486000D01*
X313000D01*
Y485000D01*
X312000D01*
Y483000D01*
X313000D01*
X373000D02*
Y482000D01*
X375000D01*
Y483000D01*
X376000D01*
Y485000D01*
X375000D01*
Y486000D01*
X373000D01*
Y485000D01*
X372000D01*
Y483000D01*
X373000D01*
X313000Y353000D02*
Y352000D01*
X315000D01*
Y353000D01*
X316000D01*
Y355000D01*
X315000D01*
Y356000D01*
X313000D01*
Y355000D01*
X312000D01*
Y353000D01*
X313000D01*
Y343000D02*
Y342000D01*
X315000D01*
Y343000D01*
X316000D01*
Y345000D01*
X315000D01*
Y346000D01*
X313000D01*
Y345000D01*
X312000D01*
Y343000D01*
X313000D01*
X373000Y473000D02*
Y472000D01*
X375000D01*
Y473000D01*
X376000D01*
Y475000D01*
X375000D01*
Y476000D01*
X373000D01*
Y475000D01*
X372000D01*
Y473000D01*
X373000D01*
Y463000D02*
Y462000D01*
X375000D01*
Y463000D01*
X376000D01*
Y465000D01*
X375000D01*
Y466000D01*
X373000D01*
Y465000D01*
X372000D01*
Y463000D01*
X373000D01*
Y453000D02*
Y452000D01*
X375000D01*
Y453000D01*
X376000D01*
Y455000D01*
X375000D01*
Y456000D01*
X373000D01*
Y455000D01*
X372000D01*
Y453000D01*
X373000D01*
Y443000D02*
Y442000D01*
X375000D01*
Y443000D01*
X376000D01*
Y445000D01*
X375000D01*
Y446000D01*
X373000D01*
Y445000D01*
X372000D01*
Y443000D01*
X373000D01*
Y433000D02*
Y432000D01*
X375000D01*
Y433000D01*
X376000D01*
Y435000D01*
X375000D01*
Y436000D01*
X373000D01*
Y435000D01*
X372000D01*
Y433000D01*
X373000D01*
Y423000D02*
Y422000D01*
X375000D01*
Y423000D01*
X376000D01*
Y425000D01*
X375000D01*
Y426000D01*
X373000D01*
Y425000D01*
X372000D01*
Y423000D01*
X373000D01*
Y413000D02*
Y412000D01*
X375000D01*
Y413000D01*
X376000D01*
Y415000D01*
X375000D01*
Y416000D01*
X373000D01*
Y415000D01*
X372000D01*
Y413000D01*
X373000D01*
Y403000D02*
Y402000D01*
X375000D01*
Y403000D01*
X376000D01*
Y405000D01*
X375000D01*
Y406000D01*
X373000D01*
Y405000D01*
X372000D01*
Y403000D01*
X373000D01*
Y393000D02*
Y392000D01*
X375000D01*
Y393000D01*
X376000D01*
Y395000D01*
X375000D01*
Y396000D01*
X373000D01*
Y395000D01*
X372000D01*
Y393000D01*
X373000D01*
Y363000D02*
Y362000D01*
X375000D01*
Y363000D01*
X376000D01*
Y365000D01*
X375000D01*
Y366000D01*
X373000D01*
Y365000D01*
X372000D01*
Y363000D01*
X373000D01*
Y383000D02*
Y382000D01*
X375000D01*
Y383000D01*
X376000D01*
Y385000D01*
X375000D01*
Y386000D01*
X373000D01*
Y385000D01*
X372000D01*
Y383000D01*
X373000D01*
Y373000D02*
Y372000D01*
X375000D01*
Y373000D01*
X376000D01*
Y375000D01*
X375000D01*
Y376000D01*
X373000D01*
Y375000D01*
X372000D01*
Y373000D01*
X373000D01*
Y353000D02*
Y352000D01*
X375000D01*
Y353000D01*
X376000D01*
Y355000D01*
X375000D01*
Y356000D01*
X373000D01*
Y355000D01*
X372000D01*
Y353000D01*
X373000D01*
Y343000D02*
Y342000D01*
X375000D01*
Y343000D01*
X376000D01*
Y345000D01*
X375000D01*
Y346000D01*
X373000D01*
Y345000D01*
X372000D01*
Y343000D01*
X373000D01*
X571000Y273000D02*
X572000D01*
X573000Y274000D01*
X574000Y273000D01*
X575000D01*
Y274000D01*
X574000Y275000D01*
X575000Y276000D01*
Y277000D01*
X574000D01*
X573000Y276000D01*
X572000Y277000D01*
X571000D01*
Y276000D01*
X572000Y275000D01*
X571000Y274000D01*
Y273000D01*
X584000D02*
X585000D01*
X586000Y274000D01*
X587000Y273000D01*
X588000D01*
Y274000D01*
X587000Y275000D01*
X588000Y276000D01*
Y277000D01*
X587000D01*
X586000Y276000D01*
X585000Y277000D01*
X584000D01*
Y276000D01*
X585000Y275000D01*
X584000Y274000D01*
Y273000D01*
X571000Y326000D02*
X572000D01*
X573000Y327000D01*
X574000Y326000D01*
X575000D01*
Y327000D01*
X574000Y328000D01*
X575000Y329000D01*
Y330000D01*
X574000D01*
X573000Y329000D01*
X572000Y330000D01*
X571000D01*
Y329000D01*
X572000Y328000D01*
X571000Y327000D01*
Y326000D01*
X584000D02*
X585000D01*
X586000Y327000D01*
X587000Y326000D01*
X588000D01*
Y327000D01*
X587000Y328000D01*
X588000Y329000D01*
Y330000D01*
X587000D01*
X586000Y329000D01*
X585000Y330000D01*
X584000D01*
Y329000D01*
X585000Y328000D01*
X584000Y327000D01*
Y326000D01*
X504000Y284693D02*
X506000Y286693D01*
X508000Y284693D01*
X506000Y282693D01*
X504000Y284693D01*
Y328000D02*
X506000Y330000D01*
X508000Y328000D01*
X506000Y326000D01*
X504000Y328000D01*
X552000Y326000D02*
X553000D01*
X554000Y327000D01*
X555000Y326000D01*
X556000D01*
Y327000D01*
X555000Y328000D01*
X556000Y329000D01*
Y330000D01*
X555000D01*
X554000Y329000D01*
X553000Y330000D01*
X552000D01*
Y329000D01*
X553000Y328000D01*
X552000Y327000D01*
Y326000D01*
X539000D02*
X540000D01*
X541000Y327000D01*
X542000Y326000D01*
X543000D01*
Y327000D01*
X542000Y328000D01*
X543000Y329000D01*
Y330000D01*
X542000D01*
X541000Y329000D01*
X540000Y330000D01*
X539000D01*
Y329000D01*
X540000Y328000D01*
X539000Y327000D01*
Y326000D01*
X552000Y273000D02*
X553000D01*
X554000Y274000D01*
X555000Y273000D01*
X556000D01*
Y274000D01*
X555000Y275000D01*
X556000Y276000D01*
Y277000D01*
X555000D01*
X554000Y276000D01*
X553000Y277000D01*
X552000D01*
Y276000D01*
X553000Y275000D01*
X552000Y274000D01*
Y273000D01*
X539000D02*
X540000D01*
X541000Y274000D01*
X542000Y273000D01*
X543000D01*
Y274000D01*
X542000Y275000D01*
X543000Y276000D01*
Y277000D01*
X542000D01*
X541000Y276000D01*
X540000Y277000D01*
X539000D01*
Y276000D01*
X540000Y275000D01*
X539000Y274000D01*
Y273000D01*
X576315Y396000D02*
Y400000D01*
X580315D01*
Y396000D01*
X576315D01*
X586158D02*
Y400000D01*
X590158D01*
Y396000D01*
X586158D01*
X596000D02*
Y400000D01*
X600000D01*
Y396000D01*
X596000D01*
X568835Y423559D02*
X569835Y425559D01*
X568835Y427559D01*
X570835Y426559D01*
X572835Y427559D01*
X571835Y425559D01*
X572835Y423559D01*
X570835Y424559D01*
X568835Y423559D01*
X603480D02*
X604480Y425559D01*
X603480Y427559D01*
X605480Y426559D01*
X607480Y427559D01*
X606480Y425559D01*
X607480Y423559D01*
X605480Y424559D01*
X603480Y423559D01*
X510157Y396000D02*
Y400000D01*
X514157D01*
Y396000D01*
X510157D01*
X520000D02*
Y400000D01*
X524000D01*
Y396000D01*
X520000D01*
X529843D02*
Y400000D01*
X533843D01*
Y396000D01*
X529843D01*
X502677Y423559D02*
X503677Y425559D01*
X502677Y427559D01*
X504677Y426559D01*
X506677Y427559D01*
X505677Y425559D01*
X506677Y423559D01*
X504677Y424559D01*
X502677Y423559D01*
X537323D02*
X538323Y425559D01*
X537323Y427559D01*
X539323Y426559D01*
X541323Y427559D01*
X540323Y425559D01*
X541323Y423559D01*
X539323Y424559D01*
X537323Y423559D01*
X444158Y396000D02*
Y400000D01*
X448158D01*
Y396000D01*
X444158D01*
X454000D02*
Y400000D01*
X458000D01*
Y396000D01*
X454000D01*
X463842D02*
Y400000D01*
X467842D01*
Y396000D01*
X463842D01*
X436677Y423559D02*
X437677Y425559D01*
X436677Y427559D01*
X438677Y426559D01*
X440677Y427559D01*
X439677Y425559D01*
X440677Y423559D01*
X438677Y424559D01*
X436677Y423559D01*
X471323D02*
X472323Y425559D01*
X471323Y427559D01*
X473323Y426559D01*
X475323Y427559D01*
X474323Y425559D01*
X475323Y423559D01*
X473323Y424559D01*
X471323Y423559D01*
X576000Y474000D02*
Y478000D01*
X580000D01*
Y474000D01*
X576000D01*
X585843D02*
Y478000D01*
X589843D01*
Y474000D01*
X585843D01*
X595685D02*
Y478000D01*
X599685D01*
Y474000D01*
X595685D01*
X568520Y501559D02*
X569520Y503559D01*
X568520Y505559D01*
X570520Y504559D01*
X572520Y505559D01*
X571520Y503559D01*
X572520Y501559D01*
X570520Y502559D01*
X568520Y501559D01*
X603165D02*
X604165Y503559D01*
X603165Y505559D01*
X605165Y504559D01*
X607165Y505559D01*
X606165Y503559D01*
X607165Y501559D01*
X605165Y502559D01*
X603165Y501559D01*
X510000Y474000D02*
Y478000D01*
X514000D01*
Y474000D01*
X510000D01*
X519842D02*
Y478000D01*
X523842D01*
Y474000D01*
X519842D01*
X529685D02*
Y478000D01*
X533685D01*
Y474000D01*
X529685D01*
X502520Y501559D02*
X503520Y503559D01*
X502520Y505559D01*
X504520Y504559D01*
X506520Y505559D01*
X505520Y503559D01*
X506520Y501559D01*
X504520Y502559D01*
X502520Y501559D01*
X537165D02*
X538165Y503559D01*
X537165Y505559D01*
X539165Y504559D01*
X541165Y505559D01*
X540165Y503559D01*
X541165Y501559D01*
X539165Y502559D01*
X537165Y501559D01*
X444315Y474000D02*
Y478000D01*
X448315D01*
Y474000D01*
X444315D01*
X454157D02*
Y478000D01*
X458157D01*
Y474000D01*
X454157D01*
X464000D02*
Y478000D01*
X468000D01*
Y474000D01*
X464000D01*
X436835Y501559D02*
X437835Y503559D01*
X436835Y505559D01*
X438835Y504559D01*
X440835Y505559D01*
X439835Y503559D01*
X440835Y501559D01*
X438835Y502559D01*
X436835Y501559D01*
X471480D02*
X472480Y503559D01*
X471480Y505559D01*
X473480Y504559D01*
X475480Y505559D01*
X474480Y503559D01*
X475480Y501559D01*
X473480Y502559D01*
X471480Y501559D01*
X462000Y256315D02*
Y260315D01*
X466000D01*
Y256315D01*
X462000D01*
Y266158D02*
Y270158D01*
X466000D01*
Y266158D01*
X462000D01*
Y276000D02*
Y280000D01*
X466000D01*
Y276000D01*
X462000D01*
X434441Y248835D02*
X435441Y250835D01*
X434441Y252835D01*
X436441Y251835D01*
X438441Y252835D01*
X437441Y250835D01*
X438441Y248835D01*
X436441Y249835D01*
X434441Y248835D01*
Y283480D02*
X435441Y285480D01*
X434441Y287480D01*
X436441Y286480D01*
X438441Y287480D01*
X437441Y285480D01*
X438441Y283480D01*
X436441Y284480D01*
X434441Y283480D01*
X392000Y256315D02*
Y260315D01*
X396000D01*
Y256315D01*
X392000D01*
Y266158D02*
Y270158D01*
X396000D01*
Y266158D01*
X392000D01*
Y276000D02*
Y280000D01*
X396000D01*
Y276000D01*
X392000D01*
X364441Y248835D02*
X365441Y250835D01*
X364441Y252835D01*
X366441Y251835D01*
X368441Y252835D01*
X367441Y250835D01*
X368441Y248835D01*
X366441Y249835D01*
X364441Y248835D01*
Y283480D02*
X365441Y285480D01*
X364441Y287480D01*
X366441Y286480D01*
X368441Y287480D01*
X367441Y285480D01*
X368441Y283480D01*
X366441Y284480D01*
X364441Y283480D01*
X288000Y272000D02*
Y276000D01*
X292000D01*
Y272000D01*
X288000D01*
X278000D02*
Y276000D01*
X282000D01*
Y272000D01*
X278000D01*
X268000D02*
Y276000D01*
X272000D01*
Y272000D01*
X268000D01*
X258000D02*
Y276000D01*
X262000D01*
Y272000D01*
X258000D01*
X438000Y384000D02*
X436000Y388000D01*
X440000D01*
X438000Y384000D01*
X556000Y382000D02*
X554000Y386000D01*
X558000D01*
X556000Y382000D01*
X272000Y418000D02*
X270000Y422000D01*
X274000D01*
X272000Y418000D01*
X282000Y326000D02*
X280000Y330000D01*
X284000D01*
X282000Y326000D01*
X318512Y250958D02*
X316512Y254959D01*
X320512D01*
X318512Y250958D01*
X476000Y300000D02*
X474000Y304000D01*
X478000D01*
X476000Y300000D01*
X368000Y310000D02*
X366000Y314000D01*
X370000D01*
X368000Y310000D01*
X484000Y382000D02*
X482000Y386000D01*
X486000D01*
X484000Y382000D01*
X402000Y470000D02*
X400000Y474000D01*
X404000D01*
X402000Y470000D01*
X420000Y324000D02*
X418000Y328000D01*
X422000D01*
X420000Y324000D01*
X422000Y338000D02*
X420000Y342000D01*
X424000D01*
X422000Y338000D01*
X284000Y342000D02*
X282000Y346000D01*
X286000D01*
X284000Y342000D01*
Y352000D02*
X282000Y356000D01*
X286000D01*
X284000Y352000D01*
Y362000D02*
X282000Y366000D01*
X286000D01*
X284000Y362000D01*
Y372000D02*
X282000Y376000D01*
X286000D01*
X284000Y372000D01*
Y382000D02*
X282000Y386000D01*
X286000D01*
X284000Y382000D01*
Y392000D02*
X282000Y396000D01*
X286000D01*
X284000Y392000D01*
Y402000D02*
X282000Y406000D01*
X286000D01*
X284000Y402000D01*
D64*
X239000Y404347D02*
G03*
X239000Y404347I-2000J0D01*
G01*
Y394346D02*
G03*
X239000Y394346I-2000J0D01*
G01*
Y374346D02*
G03*
X239000Y374346I-2000J0D01*
G01*
Y354346D02*
G03*
X239000Y354346I-2000J0D01*
G01*
Y344346D02*
G03*
X239000Y344346I-2000J0D01*
G01*
Y364347D02*
G03*
X239000Y364347I-2000J0D01*
G01*
Y384347D02*
G03*
X239000Y384347I-2000J0D01*
G01*
X250000Y404347D02*
G03*
X250000Y404347I-2000J0D01*
G01*
Y394346D02*
G03*
X250000Y394346I-2000J0D01*
G01*
Y374346D02*
G03*
X250000Y374346I-2000J0D01*
G01*
Y354346D02*
G03*
X250000Y354346I-2000J0D01*
G01*
Y344346D02*
G03*
X250000Y344346I-2000J0D01*
G01*
Y364347D02*
G03*
X250000Y364347I-2000J0D01*
G01*
Y384347D02*
G03*
X250000Y384347I-2000J0D01*
G01*
X261000Y404347D02*
G03*
X261000Y404347I-2000J0D01*
G01*
Y394346D02*
G03*
X261000Y394346I-2000J0D01*
G01*
Y374346D02*
G03*
X261000Y374346I-2000J0D01*
G01*
Y354346D02*
G03*
X261000Y354346I-2000J0D01*
G01*
Y344346D02*
G03*
X261000Y344346I-2000J0D01*
G01*
Y364347D02*
G03*
X261000Y364347I-2000J0D01*
G01*
Y384347D02*
G03*
X261000Y384347I-2000J0D01*
G01*
X414000Y384000D02*
G03*
X414000Y384000I-2000J0D01*
G01*
Y364000D02*
G03*
X414000Y364000I-2000J0D01*
G01*
Y374000D02*
G03*
X414000Y374000I-2000J0D01*
G01*
Y394000D02*
G03*
X414000Y394000I-2000J0D01*
G01*
Y404000D02*
G03*
X414000Y404000I-2000J0D01*
G01*
X411000Y424000D02*
G03*
X411000Y424000I-2000J0D01*
G01*
X421000D02*
G03*
X421000Y424000I-2000J0D01*
G01*
X401000D02*
G03*
X401000Y424000I-2000J0D01*
G01*
X391000D02*
G03*
X391000Y424000I-2000J0D01*
G01*
X436000Y306000D02*
G03*
X436000Y306000I-2000J0D01*
G01*
X446000D02*
G03*
X446000Y306000I-2000J0D01*
G01*
X456000D02*
G03*
X456000Y306000I-2000J0D01*
G01*
X408000D02*
G03*
X408000Y306000I-2000J0D01*
G01*
X418000D02*
G03*
X418000Y306000I-2000J0D01*
G01*
X430000Y375000D02*
G03*
X430000Y375000I-2000J0D01*
G01*
Y365000D02*
G03*
X430000Y365000I-2000J0D01*
G01*
X240000Y285000D02*
G03*
X240000Y285000I-2000J0D01*
G01*
Y275000D02*
G03*
X240000Y275000I-2000J0D01*
G01*
X286000Y460000D02*
G03*
X286000Y460000I-2000J0D01*
G01*
Y440000D02*
G03*
X286000Y440000I-2000J0D01*
G01*
Y450000D02*
G03*
X286000Y450000I-2000J0D01*
G01*
Y470000D02*
G03*
X286000Y470000I-2000J0D01*
G01*
Y480000D02*
G03*
X286000Y480000I-2000J0D01*
G01*
X396000Y384000D02*
G03*
X396000Y384000I-2000J0D01*
G01*
Y364000D02*
G03*
X396000Y364000I-2000J0D01*
G01*
Y374000D02*
G03*
X396000Y374000I-2000J0D01*
G01*
Y394000D02*
G03*
X396000Y394000I-2000J0D01*
G01*
Y404000D02*
G03*
X396000Y404000I-2000J0D01*
G01*
X230000Y464000D02*
G03*
X230000Y464000I-2000J0D01*
G01*
Y454000D02*
G03*
X230000Y454000I-2000J0D01*
G01*
M02*
