G04*
G04 #@! TF.GenerationSoftware,Altium Limited,Altium Designer,24.1.2 (44)*
G04*
G04 Layer_Color=32896*
%FSLAX25Y25*%
%MOIN*%
G70*
G04*
G04 #@! TF.SameCoordinates,E3FF4B23-F407-445B-9987-FD0FFFC61A21*
G04*
G04*
G04 #@! TF.FilePolarity,Positive*
G04*
G01*
G75*
%ADD59C,0.00394*%
D59*
X360000Y350031D02*
Y353969D01*
X358032Y352000D02*
X361968D01*
X274000Y306031D02*
Y309968D01*
X272031Y308000D02*
X275969D01*
X324000Y306031D02*
Y309968D01*
X322031Y308000D02*
X325969D01*
X444031Y320000D02*
X447968D01*
X446000Y318032D02*
Y321969D01*
X594000Y372031D02*
Y375969D01*
X592031Y374000D02*
X595968D01*
X528000Y372031D02*
Y375969D01*
X526031Y374000D02*
X529969D01*
X460000Y372031D02*
Y375969D01*
X458032Y374000D02*
X461969D01*
X584000Y372031D02*
Y375969D01*
X582031Y374000D02*
X585968D01*
X518000Y372031D02*
Y375969D01*
X516032Y374000D02*
X519969D01*
X450000Y372031D02*
Y375969D01*
X448032Y374000D02*
X451968D01*
X398031Y326000D02*
X401968D01*
X400000Y324031D02*
Y327969D01*
X290032Y364000D02*
X293969D01*
X292000Y362032D02*
Y365968D01*
X290032Y354000D02*
X293969D01*
X292000Y352031D02*
Y355968D01*
X290032Y344000D02*
X293969D01*
X292000Y342032D02*
Y345969D01*
X290032Y374000D02*
X293969D01*
X292000Y372031D02*
Y375969D01*
X290032Y384000D02*
X293969D01*
X292000Y382031D02*
Y385968D01*
X290032Y394000D02*
X293969D01*
X292000Y392032D02*
Y395969D01*
X290032Y404000D02*
X293969D01*
X292000Y402032D02*
Y405969D01*
M02*
