G04*
G04 #@! TF.GenerationSoftware,Altium Limited,Altium Designer,24.1.2 (44)*
G04*
G04 Layer_Color=65535*
%FSLAX25Y25*%
%MOIN*%
G70*
G04*
G04 #@! TF.SameCoordinates,E3FF4B23-F407-445B-9987-FD0FFFC61A21*
G04*
G04*
G04 #@! TF.FilePolarity,Positive*
G04*
G01*
G75*
%ADD60C,0.00591*%
D60*
X250952Y367951D02*
X245048D01*
Y370903D01*
X246032Y371887D01*
X248000D01*
X248984Y370903D01*
Y367951D01*
X250952Y373854D02*
Y375822D01*
Y374838D01*
X245048D01*
X246032Y373854D01*
X250952Y378774D02*
Y380742D01*
Y379758D01*
X245048D01*
X246032Y378774D01*
X239952Y366967D02*
X234048D01*
Y369919D01*
X235032Y370903D01*
X237000D01*
X237984Y369919D01*
Y366967D01*
X239952Y372871D02*
Y374838D01*
Y373854D01*
X234048D01*
X235032Y372871D01*
X239952Y381726D02*
Y377790D01*
X236016Y381726D01*
X235032D01*
X234048Y380742D01*
Y378774D01*
X235032Y377790D01*
X261952Y366967D02*
X256048D01*
Y369919D01*
X257032Y370903D01*
X259000D01*
X259984Y369919D01*
Y366967D01*
X261952Y372871D02*
Y374838D01*
Y373854D01*
X256048D01*
X257032Y372871D01*
Y377790D02*
X256048Y378774D01*
Y380742D01*
X257032Y381726D01*
X260968D01*
X261952Y380742D01*
Y378774D01*
X260968Y377790D01*
X257032D01*
X413499Y381501D02*
X410500D01*
Y383000D01*
X411000Y383500D01*
X412000D01*
X412500Y383000D01*
Y381501D01*
X413499Y385999D02*
X410500D01*
X412000Y384500D01*
Y386499D01*
X406499Y425499D02*
Y422501D01*
X405000D01*
X404500Y423000D01*
Y424000D01*
X405000Y424500D01*
X406499D01*
X403500Y422501D02*
X401501D01*
Y423000D01*
X403500Y425000D01*
Y425499D01*
X441501Y304501D02*
Y307500D01*
X443000D01*
X443500Y307000D01*
Y306000D01*
X443000Y305500D01*
X441501D01*
X444500Y307000D02*
X445000Y307500D01*
X445999D01*
X446499Y307000D01*
Y306500D01*
X445999Y306000D01*
X446499Y305500D01*
Y305000D01*
X445999Y304501D01*
X445000D01*
X444500Y305000D01*
Y305500D01*
X445000Y306000D01*
X444500Y306500D01*
Y307000D01*
X445000Y306000D02*
X445999D01*
X413499Y307500D02*
Y304501D01*
X412000D01*
X411500Y305000D01*
Y306000D01*
X412000Y306500D01*
X413499D01*
X410500Y307000D02*
X410000Y307500D01*
X409001D01*
X408501Y307000D01*
Y305000D01*
X409001Y304501D01*
X410000D01*
X410500Y305000D01*
Y305500D01*
X410000Y306000D01*
X408501D01*
X429499Y367501D02*
X426501D01*
Y369000D01*
X427000Y369500D01*
X428000D01*
X428500Y369000D01*
Y367501D01*
X426501Y372499D02*
X427000Y371499D01*
X428000Y370500D01*
X429000D01*
X429499Y371000D01*
Y371999D01*
X429000Y372499D01*
X428500D01*
X428000Y371999D01*
Y370500D01*
X239499Y277501D02*
X236501D01*
Y279000D01*
X237000Y279500D01*
X238000D01*
X238500Y279000D01*
Y277501D01*
X236501Y282499D02*
Y280500D01*
X238000D01*
X237500Y281500D01*
Y281999D01*
X238000Y282499D01*
X239000D01*
X239499Y281999D01*
Y281000D01*
X239000Y280500D01*
X285500Y457501D02*
X282501D01*
Y459000D01*
X283000Y459500D01*
X284000D01*
X284500Y459000D01*
Y457501D01*
X285500Y462499D02*
Y460500D01*
X283500Y462499D01*
X283000D01*
X282501Y461999D01*
Y461000D01*
X283000Y460500D01*
X395499Y382001D02*
X392500D01*
Y383500D01*
X393000Y384000D01*
X394000D01*
X394500Y383500D01*
Y382001D01*
X395499Y385000D02*
Y385999D01*
Y385500D01*
X392500D01*
X393000Y385000D01*
X229500Y456501D02*
X226501D01*
Y458000D01*
X227000Y458500D01*
X228000D01*
X228500Y458000D01*
Y456501D01*
X227000Y459500D02*
X226501Y460000D01*
Y460999D01*
X227000Y461499D01*
X227500D01*
X228000Y460999D01*
Y460499D01*
Y460999D01*
X228500Y461499D01*
X229000D01*
X229500Y460999D01*
Y460000D01*
X229000Y459500D01*
M02*
