M48
;Layer_Color=9474304
;FILE_FORMAT=2:4
INCH,TZ
;TYPE=PLATED
T01F00S00C0.0280
T02F00S00C0.0300
T03F00S00C0.0394
T04F00S00C0.0433
T05F00S00C0.0680
T06F00S00C0.1118
T07F00S00C0.2421
%
T01
X47600Y30200
X36800Y31200
X31851Y25296
X28200Y32800
X28400Y34400
Y35400
Y36400
Y37400
Y38400
Y39400
Y40400
X27200Y42000
X43800Y38600
X42200Y34000
X42000Y32600
X48400Y38400
X55600
X40200Y47200
T02
X31400Y34400
Y35400
Y36400
Y37400
Y38400
Y39400
Y40400
Y41400
Y42400
Y43400
Y44400
Y45400
Y46400
X37400
Y45400
Y44400
Y43400
Y42400
Y41400
Y40400
Y39400
Y38400
Y37400
Y36400
Y35400
Y34400
Y47400
Y48400
X31400
Y47400
T03
X39400Y25831
Y26816
Y27800
X46400
Y26816
Y25831
X29000Y27400
X28000
X27000
X26000
X44616Y39800
X45600
X46584
X51216
X52200
X53184
X57832
X58816
X59800
X59769Y47600
X58784
X57800
X53169
X52184
X51200
X46600
X45616
X44632
T04
X40600Y30600
X41600
X43400
X44400
X45400
X23800Y28500
Y27500
X23700Y34435
Y35435
Y36435
Y37435
Y38435
Y39435
Y40435
X24800
Y39435
Y38435
Y37435
Y36435
Y35435
Y34435
X25900
Y35435
Y36435
Y37435
Y38435
Y39435
Y40435
X28400Y44000
Y45000
Y46000
X22800Y46400
Y45400
X38900Y42400
X39900
X40900
X41900
X41200Y40400
Y39400
Y38400
Y37400
Y36400
X42800Y36500
Y37500
X39400Y37400
Y38400
Y39400
Y40400
Y36400
X28400Y47000
Y48000
T05
X54100Y27500
X55400
X57300
X58600
Y32800
X57300
X55400
X54100
T06
X36644Y25083
Y28548
X43644
Y25083
X43868Y42556
X47332
X50468
X53932
X57083
X60548
X60517Y50356
X57052
X53917
X50452
X47348
X43883
T07
X50600Y28469
Y32800
M30
