G04*
G04 #@! TF.GenerationSoftware,Altium Limited,Altium Designer,24.1.2 (44)*
G04*
G04 Layer_Color=32768*
%FSLAX25Y25*%
%MOIN*%
G70*
G04*
G04 #@! TF.SameCoordinates,E3FF4B23-F407-445B-9987-FD0FFFC61A21*
G04*
G04*
G04 #@! TF.FilePolarity,Positive*
G04*
G01*
G75*
%ADD59C,0.00394*%
D59*
X232000Y409346D02*
X242000D01*
X232000Y339347D02*
X242000D01*
Y409346D01*
X232000Y339347D02*
Y409346D01*
X243000D02*
X253000D01*
X243000Y339347D02*
X253000D01*
Y409346D01*
X243000Y339347D02*
Y409346D01*
X254000D02*
X264000D01*
X254000Y339347D02*
X264000D01*
Y409346D01*
X254000Y339347D02*
Y409346D01*
X407000Y359000D02*
Y409000D01*
X417000Y359000D02*
Y409000D01*
X407000Y359000D02*
X417000D01*
X407000Y409000D02*
X417000D01*
X384000Y419000D02*
Y429000D01*
X424000Y419000D02*
Y429000D01*
X384000D02*
X424000D01*
X384000Y419000D02*
X424000D01*
X429000Y311000D02*
X459000D01*
X429000Y301000D02*
X459000D01*
X429000D02*
Y311000D01*
X459000Y301000D02*
Y311000D01*
X401000Y301000D02*
X421000D01*
X401000D02*
Y311000D01*
X421000D01*
Y301000D02*
Y311000D01*
X423000Y360000D02*
Y380000D01*
X433000D01*
Y360000D02*
Y380000D01*
X423000Y360000D02*
X433000D01*
X233000Y270000D02*
Y290000D01*
X243000D01*
Y270000D02*
Y290000D01*
X233000Y270000D02*
X243000D01*
X279000Y435000D02*
Y485000D01*
X289000Y435000D02*
Y485000D01*
X279000Y435000D02*
X289000D01*
X279000Y485000D02*
X289000D01*
X389000Y359000D02*
Y409000D01*
X399000Y359000D02*
Y409000D01*
X389000Y359000D02*
X399000D01*
X389000Y409000D02*
X399000D01*
X223000Y449000D02*
Y469000D01*
X233000D01*
Y449000D02*
Y469000D01*
X223000Y449000D02*
X233000D01*
M02*
