G04*
G04 #@! TF.GenerationSoftware,Altium Limited,Altium Designer,24.1.2 (44)*
G04*
G04 Layer_Color=2752767*
%FSLAX25Y25*%
%MOIN*%
G70*
G04*
G04 #@! TF.SameCoordinates,A85318EA-E4D8-42E9-B0A6-CF3BD3DAF5E5*
G04*
G04*
G04 #@! TF.FilePolarity,Positive*
G04*
G01*
G75*
%ADD58C,0.00500*%
%ADD59C,0.00667*%
D58*
X1070008Y628905D02*
Y632905D01*
X1074008D01*
Y628905D01*
X1070008D01*
X1060008D02*
Y632905D01*
X1064008D01*
Y628905D01*
X1060008D01*
X1050008D02*
Y632905D01*
X1054008D01*
Y628905D01*
X1050008D01*
X749165Y440078D02*
X750165Y441078D01*
X751165D01*
X750165Y442078D01*
X751165Y443078D01*
X750165D01*
X749165Y444078D01*
X748165Y443078D01*
X747165D01*
X748165Y442078D01*
X747165Y441078D01*
X748165D01*
X749165Y440078D01*
Y427078D02*
X750165Y428078D01*
X751165D01*
X750165Y429078D01*
X751165Y430078D01*
X750165D01*
X749165Y431078D01*
X748165Y430078D01*
X747165D01*
X748165Y429078D01*
X747165Y428078D01*
X748165D01*
X749165Y427078D01*
X802165Y440078D02*
X803165Y441078D01*
X804165D01*
X803165Y442078D01*
X804165Y443078D01*
X803165D01*
X802165Y444078D01*
X801165Y443078D01*
X800165D01*
X801165Y442078D01*
X800165Y441078D01*
X801165D01*
X802165Y440078D01*
Y427078D02*
X803165Y428078D01*
X804165D01*
X803165Y429078D01*
X804165Y430078D01*
X803165D01*
X802165Y431078D01*
X801165Y430078D01*
X800165D01*
X801165Y429078D01*
X800165Y428078D01*
X801165D01*
X802165Y427078D01*
X749165Y402732D02*
X750165Y403732D01*
X751165D01*
X750165Y404732D01*
X751165Y405732D01*
X750165D01*
X749165Y406732D01*
X748165Y405732D01*
X747165D01*
X748165Y404732D01*
X747165Y403732D01*
X748165D01*
X749165Y402732D01*
Y389732D02*
X750165Y390732D01*
X751165D01*
X750165Y391732D01*
X751165Y392732D01*
X750165D01*
X749165Y393732D01*
X748165Y392732D01*
X747165D01*
X748165Y391732D01*
X747165Y390732D01*
X748165D01*
X749165Y389732D01*
X802165Y402732D02*
X803165Y403732D01*
X804165D01*
X803165Y404732D01*
X804165Y405732D01*
X803165D01*
X802165Y406732D01*
X801165Y405732D01*
X800165D01*
X801165Y404732D01*
X800165Y403732D01*
X801165D01*
X802165Y402732D01*
Y389732D02*
X803165Y390732D01*
X804165D01*
X803165Y391732D01*
X804165Y392732D01*
X803165D01*
X802165Y393732D01*
X801165Y392732D01*
X800165D01*
X801165Y391732D01*
X800165Y390732D01*
X801165D01*
X802165Y389732D01*
X848835Y369709D02*
X849835Y371709D01*
X848835Y373709D01*
X850835Y372709D01*
X852835Y373709D01*
X851835Y371709D01*
X852835Y369709D01*
X850835Y370709D01*
X848835Y369709D01*
X892142D02*
X893142Y371709D01*
X892142Y373709D01*
X894142Y372709D01*
X896142Y373709D01*
X895142Y371709D01*
X896142Y369709D01*
X894142Y370709D01*
X892142Y369709D01*
X848886Y421972D02*
X849886Y423972D01*
X848886Y425972D01*
X850886Y424972D01*
X852886Y425972D01*
X851886Y423972D01*
X852886Y421972D01*
X850886Y422972D01*
X848886Y421972D01*
X892193D02*
X893193Y423972D01*
X892193Y425972D01*
X894193Y424972D01*
X896193Y425972D01*
X895193Y423972D01*
X896193Y421972D01*
X894193Y422972D01*
X892193Y421972D01*
X749165Y365126D02*
X750165Y366126D01*
X751165D01*
X750165Y367126D01*
X751165Y368126D01*
X750165D01*
X749165Y369126D01*
X748165Y368126D01*
X747165D01*
X748165Y367126D01*
X747165Y366126D01*
X748165D01*
X749165Y365126D01*
Y352126D02*
X750165Y353126D01*
X751165D01*
X750165Y354126D01*
X751165Y355126D01*
X750165D01*
X749165Y356126D01*
X748165Y355126D01*
X747165D01*
X748165Y354126D01*
X747165Y353126D01*
X748165D01*
X749165Y352126D01*
X802165Y365126D02*
X803165Y366126D01*
X804165D01*
X803165Y367126D01*
X804165Y368126D01*
X803165D01*
X802165Y369126D01*
X801165Y368126D01*
X800165D01*
X801165Y367126D01*
X800165Y366126D01*
X801165D01*
X802165Y365126D01*
Y352126D02*
X803165Y353126D01*
X804165D01*
X803165Y354126D01*
X804165Y355126D01*
X803165D01*
X802165Y356126D01*
X801165Y355126D01*
X800165D01*
X801165Y354126D01*
X800165Y353126D01*
X801165D01*
X802165Y352126D01*
X979299Y426622D02*
Y430622D01*
X983299D01*
Y426622D01*
X979299D01*
Y416622D02*
Y420622D01*
X983299D01*
Y416622D01*
X979299D01*
Y396622D02*
Y400622D01*
X983299D01*
Y396622D01*
X979299D01*
Y376622D02*
Y380622D01*
X983299D01*
Y376622D01*
X979299D01*
Y366622D02*
Y370622D01*
X983299D01*
Y366622D01*
X979299D01*
Y386622D02*
Y390622D01*
X983299D01*
Y386622D01*
X979299D01*
Y406622D02*
Y410622D01*
X983299D01*
Y406622D01*
X979299D01*
X966460Y426657D02*
Y430657D01*
X970460D01*
Y426657D01*
X966460D01*
Y416657D02*
Y420657D01*
X970460D01*
Y416657D01*
X966460D01*
Y396657D02*
Y400657D01*
X970460D01*
Y396657D01*
X966460D01*
Y376657D02*
Y380657D01*
X970460D01*
Y376657D01*
X966460D01*
Y366657D02*
Y370657D01*
X970460D01*
Y366657D01*
X966460D01*
Y386657D02*
Y390657D01*
X970460D01*
Y386657D01*
X966460D01*
Y406657D02*
Y410657D01*
X970460D01*
Y406657D01*
X966460D01*
X953664Y426657D02*
Y430657D01*
X957664D01*
Y426657D01*
X953664D01*
Y416657D02*
Y420657D01*
X957664D01*
Y416657D01*
X953664D01*
Y396657D02*
Y400657D01*
X957664D01*
Y396657D01*
X953664D01*
Y376657D02*
Y380657D01*
X957664D01*
Y376657D01*
X953664D01*
Y366657D02*
Y370657D01*
X957664D01*
Y366657D01*
X953664D01*
Y386657D02*
Y390657D01*
X957664D01*
Y386657D01*
X953664D01*
Y406657D02*
Y410657D01*
X957664D01*
Y406657D01*
X953664D01*
X731299Y870520D02*
X729299Y874520D01*
X733299D01*
X731299Y870520D01*
Y860520D02*
X729299Y864520D01*
X733299D01*
X731299Y860520D01*
Y850520D02*
X729299Y854520D01*
X733299D01*
X731299Y850520D01*
Y840520D02*
X729299Y844520D01*
X733299D01*
X731299Y840520D01*
X807567Y812961D02*
Y816961D01*
X811567D01*
Y812961D01*
X807567D01*
X817567D02*
Y816961D01*
X821567D01*
Y812961D01*
X817567D01*
X827567D02*
Y816961D01*
X831567D01*
Y812961D01*
X827567D01*
X847567D02*
Y816961D01*
X851567D01*
Y812961D01*
X847567D01*
X857567D02*
Y816961D01*
X861567D01*
Y812961D01*
X857567D01*
X877567D02*
Y816961D01*
X881567D01*
Y812961D01*
X877567D01*
X897567D02*
Y816961D01*
X901567D01*
Y812961D01*
X897567D01*
X917567D02*
Y816961D01*
X921567D01*
Y812961D01*
X917567D01*
X907567D02*
Y816961D01*
X911567D01*
Y812961D01*
X907567D01*
X887567D02*
Y816961D01*
X891567D01*
Y812961D01*
X887567D01*
X867567D02*
Y816961D01*
X871567D01*
Y812961D01*
X867567D01*
X837567D02*
Y816961D01*
X841567D01*
Y812961D01*
X837567D01*
X968433D02*
Y816961D01*
X972433D01*
Y812961D01*
X968433D01*
X978433D02*
Y816961D01*
X982433D01*
Y812961D01*
X978433D01*
X958433D02*
Y816961D01*
X962433D01*
Y812961D01*
X958433D01*
X948433D02*
Y816961D01*
X952433D01*
Y812961D01*
X948433D01*
X1071819Y602331D02*
X1072819D01*
X1073819Y603331D01*
X1074819Y602331D01*
X1075819D01*
Y603331D01*
X1074819Y604331D01*
X1075819Y605331D01*
Y606331D01*
X1074819D01*
X1073819Y605331D01*
X1072819Y606331D01*
X1071819D01*
Y605331D01*
X1072819Y604331D01*
X1071819Y603331D01*
Y602331D01*
X1047213Y603315D02*
X1048213D01*
X1049213Y604315D01*
X1050213Y603315D01*
X1051213D01*
Y604315D01*
X1050213Y605315D01*
X1051213Y606315D01*
Y607315D01*
X1050213D01*
X1049213Y606315D01*
X1048213Y607315D01*
X1047213D01*
Y606315D01*
X1048213Y605315D01*
X1047213Y604315D01*
Y603315D01*
X1033449Y814945D02*
Y813945D01*
X1035449D01*
Y814945D01*
X1036449D01*
Y816945D01*
X1035449D01*
Y817945D01*
X1033449D01*
Y816945D01*
X1032449D01*
Y814945D01*
X1033449D01*
X1037386Y818882D02*
Y817882D01*
X1039386D01*
Y818882D01*
X1040386D01*
Y820882D01*
X1039386D01*
Y821882D01*
X1037386D01*
Y820882D01*
X1036386D01*
Y818882D01*
X1037386D01*
X930102Y878921D02*
Y877921D01*
X932102D01*
Y878921D01*
X933102D01*
Y880921D01*
X932102D01*
Y881921D01*
X930102D01*
Y880921D01*
X929102D01*
Y878921D01*
X930102D01*
X1082744Y356806D02*
Y355806D01*
X1084744D01*
Y356806D01*
X1085744D01*
Y358806D01*
X1084744D01*
Y359806D01*
X1082744D01*
Y358806D01*
X1081744D01*
Y356806D01*
X1082744D01*
X1082661Y372031D02*
Y371031D01*
X1084661D01*
Y372031D01*
X1085661D01*
Y374031D01*
X1084661D01*
Y375031D01*
X1082661D01*
Y374031D01*
X1081661D01*
Y372031D01*
X1082661D01*
Y387779D02*
Y386779D01*
X1084661D01*
Y387779D01*
X1085661D01*
Y389779D01*
X1084661D01*
Y390779D01*
X1082661D01*
Y389779D01*
X1081661D01*
Y387779D01*
X1082661D01*
Y402543D02*
Y401543D01*
X1084661D01*
Y402543D01*
X1085661D01*
Y404543D01*
X1084661D01*
Y405543D01*
X1082661D01*
Y404543D01*
X1081661D01*
Y402543D01*
X1082661D01*
Y417307D02*
Y416307D01*
X1084661D01*
Y417307D01*
X1085661D01*
Y419307D01*
X1084661D01*
Y420307D01*
X1082661D01*
Y419307D01*
X1081661D01*
Y417307D01*
X1082661D01*
Y433055D02*
Y432055D01*
X1084661D01*
Y433055D01*
X1085661D01*
Y435055D01*
X1084661D01*
Y436055D01*
X1082661D01*
Y435055D01*
X1081661D01*
Y433055D01*
X1082661D01*
Y448803D02*
Y447803D01*
X1084661D01*
Y448803D01*
X1085661D01*
Y450803D01*
X1084661D01*
Y451803D01*
X1082661D01*
Y450803D01*
X1081661D01*
Y448803D01*
X1082661D01*
D59*
X1055307Y839567D02*
G03*
X1055307Y839567I-2000J0D01*
G01*
X1045307D02*
G03*
X1045307Y839567I-2000J0D01*
G01*
X1025307D02*
G03*
X1025307Y839567I-2000J0D01*
G01*
X1015307D02*
G03*
X1015307Y839567I-2000J0D01*
G01*
X1035307D02*
G03*
X1035307Y839567I-2000J0D01*
G01*
X1005307D02*
G03*
X1005307Y839567I-2000J0D01*
G01*
X995307D02*
G03*
X995307Y839567I-2000J0D01*
G01*
X985307D02*
G03*
X985307Y839567I-2000J0D01*
G01*
X975307D02*
G03*
X975307Y839567I-2000J0D01*
G01*
X965307D02*
G03*
X965307Y839567I-2000J0D01*
G01*
X955307D02*
G03*
X955307Y839567I-2000J0D01*
G01*
X945307D02*
G03*
X945307Y839567I-2000J0D01*
G01*
X935307D02*
G03*
X935307Y839567I-2000J0D01*
G01*
X925307D02*
G03*
X925307Y839567I-2000J0D01*
G01*
X1055307Y899567D02*
G03*
X1055307Y899567I-2000J0D01*
G01*
X1045307D02*
G03*
X1045307Y899567I-2000J0D01*
G01*
X915307Y839567D02*
G03*
X915307Y839567I-2000J0D01*
G01*
Y899567D02*
G03*
X915307Y899567I-2000J0D01*
G01*
X925307D02*
G03*
X925307Y899567I-2000J0D01*
G01*
X935307D02*
G03*
X935307Y899567I-2000J0D01*
G01*
X945307D02*
G03*
X945307Y899567I-2000J0D01*
G01*
X955307D02*
G03*
X955307Y899567I-2000J0D01*
G01*
X965307D02*
G03*
X965307Y899567I-2000J0D01*
G01*
X975307D02*
G03*
X975307Y899567I-2000J0D01*
G01*
X985307D02*
G03*
X985307Y899567I-2000J0D01*
G01*
X995307D02*
G03*
X995307Y899567I-2000J0D01*
G01*
X1005307D02*
G03*
X1005307Y899567I-2000J0D01*
G01*
X1015307D02*
G03*
X1015307Y899567I-2000J0D01*
G01*
X1025307D02*
G03*
X1025307Y899567I-2000J0D01*
G01*
X1035307D02*
G03*
X1035307Y899567I-2000J0D01*
G01*
M02*
