M48
;Layer_Color=9474304
;FILE_FORMAT=2:4
INCH,TZ
;TYPE=PLATED
T01F00S00C0.0200
T02F00S00C0.0280
T03F00S00C0.0300
T04F00S00C0.0394
T05F00S00C0.0433
T06F00S00C0.0680
T07F00S00C0.2421
%
T01
X108374Y35781
X108366Y37303
Y38878
Y40354
Y41831
Y43406
Y44980
X103445Y81594
X103839Y81988
X93110Y87992
T02
X104921Y60532
X107382Y60433
T03
X94331Y83957
X95331
X96331
X97331
X98331
X99331
X100331
X101331
X102331
X103331
X104331
X105331
Y89957
X104331
X103331
X102331
X101331
X100331
X99331
X98331
X97331
X96331
X95331
X94331
X93331
X92331
X91331
Y83957
X92331
X93331
T04
X73130Y84252
Y85252
Y86252
Y87252
T05
X95566Y36866
Y37866
Y38866
Y39866
Y40866
Y41866
Y42866
X96846
Y41866
Y40866
Y39866
Y38866
Y37866
Y36866
X98130Y36862
Y37862
Y38862
Y39862
Y40862
Y41862
Y42862
X105201Y63091
X106201
X107201
X98043Y81496
X97043
X96043
X95043
X91957
X90957
X89957
X88957
X87957
X86957
X85957
X84957
X83957
X82957
X81957
X80957
T06
X74917Y35413
Y36713
X74917Y39173
Y40473
X74917Y42908
Y44208
X80217
Y42908
X80217Y40473
Y39173
X80217Y36713
Y35413
T07
X85083Y37171
X89414
X89419Y42397
X85089
M30
