G04*
G04 #@! TF.GenerationSoftware,Altium Limited,Altium Designer,24.1.2 (44)*
G04*
G04 Layer_Color=32896*
%FSLAX25Y25*%
%MOIN*%
G70*
G04*
G04 #@! TF.SameCoordinates,A85318EA-E4D8-42E9-B0A6-CF3BD3DAF5E5*
G04*
G04*
G04 #@! TF.FilePolarity,Positive*
G04*
G01*
G75*
%ADD13C,0.00787*%
G36*
X1061867Y622645D02*
X1061965Y622627D01*
X1062049Y622598D01*
X1062121Y622569D01*
X1062154Y622550D01*
X1062180Y622536D01*
X1062205Y622521D01*
X1062223Y622507D01*
X1062238Y622496D01*
X1062249Y622488D01*
X1062256Y622485D01*
X1062260Y622481D01*
X1062329Y622412D01*
X1062384Y622335D01*
X1062427Y622255D01*
X1062464Y622175D01*
X1062486Y622106D01*
X1062496Y622077D01*
X1062504Y622052D01*
X1062507Y622030D01*
X1062511Y622015D01*
X1062515Y622004D01*
Y622001D01*
X1062205Y621946D01*
X1062191Y622026D01*
X1062169Y622095D01*
X1062143Y622154D01*
X1062118Y622201D01*
X1062092Y622237D01*
X1062070Y622263D01*
X1062056Y622281D01*
X1062052Y622285D01*
X1062005Y622321D01*
X1061954Y622350D01*
X1061907Y622368D01*
X1061859Y622383D01*
X1061816Y622390D01*
X1061783Y622397D01*
X1061754D01*
X1061688Y622394D01*
X1061630Y622379D01*
X1061579Y622361D01*
X1061535Y622343D01*
X1061503Y622321D01*
X1061477Y622303D01*
X1061459Y622288D01*
X1061455Y622285D01*
X1061415Y622241D01*
X1061386Y622193D01*
X1061368Y622146D01*
X1061353Y622102D01*
X1061346Y622062D01*
X1061339Y622033D01*
Y622012D01*
Y622008D01*
Y622004D01*
Y621964D01*
X1061346Y621928D01*
X1061364Y621866D01*
X1061390Y621811D01*
X1061419Y621764D01*
X1061448Y621731D01*
X1061474Y621706D01*
X1061492Y621691D01*
X1061495Y621688D01*
X1061499D01*
X1061561Y621655D01*
X1061619Y621629D01*
X1061681Y621611D01*
X1061736Y621600D01*
X1061783Y621593D01*
X1061823Y621586D01*
X1061870D01*
X1061885Y621589D01*
X1061903D01*
X1061940Y621316D01*
X1061892Y621327D01*
X1061849Y621335D01*
X1061812Y621342D01*
X1061779Y621345D01*
X1061754Y621349D01*
X1061721D01*
X1061645Y621342D01*
X1061576Y621327D01*
X1061514Y621305D01*
X1061463Y621280D01*
X1061423Y621254D01*
X1061394Y621233D01*
X1061375Y621218D01*
X1061368Y621211D01*
X1061321Y621156D01*
X1061284Y621098D01*
X1061259Y621040D01*
X1061244Y620981D01*
X1061233Y620934D01*
X1061230Y620894D01*
X1061226Y620880D01*
Y620869D01*
Y620861D01*
Y620858D01*
X1061233Y620778D01*
X1061252Y620705D01*
X1061273Y620643D01*
X1061302Y620588D01*
X1061332Y620545D01*
X1061353Y620512D01*
X1061372Y620490D01*
X1061379Y620483D01*
X1061437Y620432D01*
X1061499Y620395D01*
X1061561Y620370D01*
X1061619Y620352D01*
X1061670Y620341D01*
X1061710Y620337D01*
X1061725Y620333D01*
X1061747D01*
X1061812Y620337D01*
X1061874Y620352D01*
X1061929Y620370D01*
X1061972Y620392D01*
X1062009Y620410D01*
X1062038Y620428D01*
X1062052Y620443D01*
X1062060Y620446D01*
X1062103Y620497D01*
X1062140Y620555D01*
X1062172Y620617D01*
X1062198Y620683D01*
X1062216Y620738D01*
X1062223Y620763D01*
X1062227Y620785D01*
X1062231Y620803D01*
X1062234Y620818D01*
X1062238Y620825D01*
Y620828D01*
X1062547Y620788D01*
X1062540Y620730D01*
X1062529Y620676D01*
X1062496Y620574D01*
X1062456Y620486D01*
X1062434Y620450D01*
X1062413Y620414D01*
X1062391Y620381D01*
X1062369Y620355D01*
X1062351Y620330D01*
X1062333Y620312D01*
X1062322Y620297D01*
X1062311Y620286D01*
X1062304Y620279D01*
X1062300Y620275D01*
X1062256Y620243D01*
X1062212Y620210D01*
X1062169Y620184D01*
X1062121Y620162D01*
X1062031Y620126D01*
X1061943Y620104D01*
X1061903Y620097D01*
X1061867Y620090D01*
X1061834Y620086D01*
X1061805Y620082D01*
X1061783Y620079D01*
X1061750D01*
X1061681Y620082D01*
X1061619Y620090D01*
X1061557Y620100D01*
X1061499Y620115D01*
X1061444Y620133D01*
X1061397Y620152D01*
X1061350Y620173D01*
X1061310Y620195D01*
X1061270Y620213D01*
X1061237Y620235D01*
X1061208Y620253D01*
X1061186Y620272D01*
X1061168Y620286D01*
X1061153Y620297D01*
X1061146Y620304D01*
X1061142Y620308D01*
X1061099Y620352D01*
X1061062Y620399D01*
X1061030Y620446D01*
X1061000Y620494D01*
X1060979Y620537D01*
X1060957Y620585D01*
X1060928Y620672D01*
X1060920Y620712D01*
X1060913Y620748D01*
X1060906Y620781D01*
X1060902Y620810D01*
X1060898Y620832D01*
Y620850D01*
Y620861D01*
Y620865D01*
X1060902Y620952D01*
X1060917Y621032D01*
X1060938Y621102D01*
X1060960Y621160D01*
X1060982Y621207D01*
X1061004Y621243D01*
X1061019Y621265D01*
X1061022Y621273D01*
X1061073Y621327D01*
X1061128Y621375D01*
X1061186Y621411D01*
X1061244Y621440D01*
X1061295Y621462D01*
X1061335Y621477D01*
X1061350Y621480D01*
X1061361Y621484D01*
X1061368Y621487D01*
X1061372D01*
X1061310Y621520D01*
X1061259Y621553D01*
X1061215Y621589D01*
X1061179Y621622D01*
X1061150Y621651D01*
X1061128Y621677D01*
X1061117Y621691D01*
X1061113Y621699D01*
X1061084Y621749D01*
X1061062Y621800D01*
X1061044Y621851D01*
X1061033Y621899D01*
X1061026Y621939D01*
X1061022Y621968D01*
Y621990D01*
Y621997D01*
X1061026Y622059D01*
X1061037Y622121D01*
X1061051Y622175D01*
X1061069Y622223D01*
X1061088Y622263D01*
X1061102Y622295D01*
X1061113Y622314D01*
X1061117Y622321D01*
X1061153Y622375D01*
X1061197Y622423D01*
X1061241Y622463D01*
X1061284Y622499D01*
X1061321Y622525D01*
X1061353Y622547D01*
X1061375Y622557D01*
X1061379Y622561D01*
X1061383D01*
X1061448Y622590D01*
X1061514Y622612D01*
X1061579Y622630D01*
X1061637Y622641D01*
X1061685Y622648D01*
X1061725Y622652D01*
X1061816D01*
X1061867Y622645D01*
D02*
G37*
G36*
X1064961Y620122D02*
X1064626D01*
Y621240D01*
X1064196D01*
X1064156Y621236D01*
X1064127D01*
X1064102Y621233D01*
X1064083Y621229D01*
X1064069D01*
X1064062Y621225D01*
X1064058D01*
X1064000Y621207D01*
X1063974Y621196D01*
X1063952Y621185D01*
X1063931Y621174D01*
X1063916Y621167D01*
X1063909Y621163D01*
X1063905Y621160D01*
X1063876Y621138D01*
X1063847Y621112D01*
X1063792Y621058D01*
X1063767Y621032D01*
X1063749Y621010D01*
X1063738Y620996D01*
X1063734Y620992D01*
X1063698Y620941D01*
X1063658Y620887D01*
X1063618Y620828D01*
X1063577Y620774D01*
X1063545Y620723D01*
X1063519Y620683D01*
X1063508Y620668D01*
X1063501Y620657D01*
X1063494Y620650D01*
Y620646D01*
X1063163Y620122D01*
X1062748D01*
X1063181Y620807D01*
X1063232Y620880D01*
X1063279Y620945D01*
X1063326Y621000D01*
X1063366Y621051D01*
X1063403Y621087D01*
X1063432Y621116D01*
X1063450Y621134D01*
X1063457Y621142D01*
X1063486Y621163D01*
X1063519Y621189D01*
X1063585Y621229D01*
X1063614Y621243D01*
X1063636Y621258D01*
X1063650Y621265D01*
X1063658Y621269D01*
X1063592Y621280D01*
X1063530Y621291D01*
X1063476Y621309D01*
X1063421Y621324D01*
X1063374Y621342D01*
X1063330Y621364D01*
X1063290Y621382D01*
X1063253Y621400D01*
X1063224Y621422D01*
X1063195Y621440D01*
X1063173Y621455D01*
X1063155Y621469D01*
X1063141Y621480D01*
X1063130Y621491D01*
X1063126Y621495D01*
X1063122Y621498D01*
X1063093Y621535D01*
X1063064Y621571D01*
X1063021Y621648D01*
X1062991Y621724D01*
X1062970Y621797D01*
X1062955Y621859D01*
X1062951Y621884D01*
Y621910D01*
X1062948Y621928D01*
Y621942D01*
Y621950D01*
Y621953D01*
X1062951Y622030D01*
X1062962Y622099D01*
X1062980Y622164D01*
X1062999Y622219D01*
X1063021Y622266D01*
X1063035Y622303D01*
X1063050Y622325D01*
X1063053Y622328D01*
Y622332D01*
X1063097Y622390D01*
X1063141Y622441D01*
X1063188Y622485D01*
X1063232Y622517D01*
X1063272Y622543D01*
X1063305Y622557D01*
X1063326Y622569D01*
X1063330Y622572D01*
X1063334D01*
X1063366Y622583D01*
X1063406Y622594D01*
X1063486Y622612D01*
X1063574Y622623D01*
X1063654Y622634D01*
X1063730Y622638D01*
X1063763D01*
X1063792Y622641D01*
X1064961D01*
Y620122D01*
D02*
G37*
G36*
X1045276Y620079D02*
X1044941D01*
Y621196D01*
X1044511D01*
X1044471Y621193D01*
X1044442D01*
X1044417Y621189D01*
X1044398Y621185D01*
X1044384D01*
X1044377Y621182D01*
X1044373D01*
X1044315Y621163D01*
X1044289Y621152D01*
X1044267Y621142D01*
X1044246Y621131D01*
X1044231Y621123D01*
X1044224Y621120D01*
X1044220Y621116D01*
X1044191Y621094D01*
X1044162Y621069D01*
X1044107Y621014D01*
X1044082Y620989D01*
X1044063Y620967D01*
X1044053Y620952D01*
X1044049Y620949D01*
X1044013Y620898D01*
X1043972Y620843D01*
X1043933Y620785D01*
X1043892Y620730D01*
X1043860Y620679D01*
X1043834Y620639D01*
X1043823Y620625D01*
X1043816Y620614D01*
X1043809Y620607D01*
Y620603D01*
X1043478Y620079D01*
X1043062D01*
X1043496Y620763D01*
X1043547Y620836D01*
X1043594Y620901D01*
X1043641Y620956D01*
X1043681Y621007D01*
X1043718Y621043D01*
X1043747Y621072D01*
X1043765Y621091D01*
X1043772Y621098D01*
X1043801Y621120D01*
X1043834Y621145D01*
X1043900Y621185D01*
X1043929Y621200D01*
X1043951Y621214D01*
X1043965Y621222D01*
X1043972Y621225D01*
X1043907Y621236D01*
X1043845Y621247D01*
X1043791Y621265D01*
X1043736Y621280D01*
X1043689Y621298D01*
X1043645Y621320D01*
X1043605Y621338D01*
X1043569Y621356D01*
X1043539Y621378D01*
X1043510Y621396D01*
X1043488Y621411D01*
X1043470Y621425D01*
X1043456Y621436D01*
X1043445Y621447D01*
X1043441Y621451D01*
X1043437Y621455D01*
X1043408Y621491D01*
X1043379Y621527D01*
X1043336Y621604D01*
X1043306Y621680D01*
X1043285Y621753D01*
X1043270Y621815D01*
X1043266Y621840D01*
Y621866D01*
X1043263Y621884D01*
Y621899D01*
Y621906D01*
Y621910D01*
X1043266Y621986D01*
X1043277Y622055D01*
X1043295Y622121D01*
X1043314Y622175D01*
X1043336Y622223D01*
X1043350Y622259D01*
X1043365Y622281D01*
X1043368Y622285D01*
Y622288D01*
X1043412Y622346D01*
X1043456Y622397D01*
X1043503Y622441D01*
X1043547Y622474D01*
X1043587Y622499D01*
X1043619Y622514D01*
X1043641Y622525D01*
X1043645Y622528D01*
X1043649D01*
X1043681Y622539D01*
X1043721Y622550D01*
X1043801Y622569D01*
X1043889Y622579D01*
X1043969Y622590D01*
X1044045Y622594D01*
X1044078D01*
X1044107Y622598D01*
X1045276D01*
Y620079D01*
D02*
G37*
G36*
X1042972Y620967D02*
Y620683D01*
X1041876D01*
Y620079D01*
X1041566D01*
Y620683D01*
X1041224D01*
Y620967D01*
X1041566D01*
Y622598D01*
X1041818D01*
X1042972Y620967D01*
D02*
G37*
G36*
X746951Y600156D02*
X748582D01*
Y599904D01*
X746951Y598751D01*
X746667D01*
Y599846D01*
X746063D01*
Y600156D01*
X746667D01*
Y600498D01*
X746951D01*
Y600156D01*
D02*
G37*
G36*
X748593Y597862D02*
X748531Y597826D01*
X748473Y597786D01*
X748414Y597739D01*
X748363Y597695D01*
X748320Y597651D01*
X748283Y597618D01*
X748273Y597604D01*
X748261Y597593D01*
X748258Y597589D01*
X748254Y597586D01*
X748192Y597509D01*
X748134Y597433D01*
X748083Y597360D01*
X748043Y597287D01*
X748007Y597225D01*
X747992Y597200D01*
X747981Y597178D01*
X747970Y597160D01*
X747967Y597145D01*
X747959Y597138D01*
Y597134D01*
X747661D01*
X747683Y597189D01*
X747708Y597244D01*
X747734Y597298D01*
X747759Y597349D01*
X747781Y597393D01*
X747799Y597429D01*
X747814Y597451D01*
X747818Y597455D01*
Y597458D01*
X747858Y597524D01*
X747897Y597582D01*
X747934Y597633D01*
X747967Y597673D01*
X747992Y597710D01*
X748014Y597731D01*
X748029Y597750D01*
X748032Y597753D01*
X746063D01*
Y598063D01*
X748593D01*
Y597862D01*
D02*
G37*
G36*
X746747Y596268D02*
X746820Y596217D01*
X746886Y596170D01*
X746940Y596123D01*
X746991Y596082D01*
X747028Y596046D01*
X747057Y596017D01*
X747075Y595999D01*
X747082Y595991D01*
X747104Y595962D01*
X747129Y595930D01*
X747169Y595864D01*
X747184Y595835D01*
X747199Y595813D01*
X747206Y595798D01*
X747210Y595791D01*
X747221Y595857D01*
X747231Y595919D01*
X747250Y595973D01*
X747264Y596028D01*
X747282Y596075D01*
X747304Y596119D01*
X747322Y596159D01*
X747341Y596195D01*
X747362Y596224D01*
X747381Y596253D01*
X747395Y596275D01*
X747410Y596293D01*
X747421Y596308D01*
X747432Y596319D01*
X747435Y596323D01*
X747439Y596326D01*
X747475Y596355D01*
X747512Y596385D01*
X747588Y596428D01*
X747665Y596457D01*
X747737Y596479D01*
X747799Y596494D01*
X747825Y596497D01*
X747850D01*
X747868Y596501D01*
X747883D01*
X747890D01*
X747894D01*
X747970Y596497D01*
X748039Y596487D01*
X748105Y596468D01*
X748160Y596450D01*
X748207Y596428D01*
X748243Y596414D01*
X748265Y596399D01*
X748269Y596395D01*
X748273D01*
X748331Y596352D01*
X748382Y596308D01*
X748425Y596261D01*
X748458Y596217D01*
X748484Y596177D01*
X748498Y596144D01*
X748509Y596123D01*
X748513Y596119D01*
Y596115D01*
X748524Y596082D01*
X748534Y596042D01*
X748553Y595962D01*
X748564Y595875D01*
X748575Y595795D01*
X748578Y595718D01*
Y595686D01*
X748582Y595656D01*
Y594488D01*
X746063D01*
Y594823D01*
X747181D01*
Y595253D01*
X747177Y595293D01*
Y595322D01*
X747173Y595347D01*
X747169Y595365D01*
Y595380D01*
X747166Y595387D01*
Y595391D01*
X747148Y595449D01*
X747137Y595474D01*
X747126Y595496D01*
X747115Y595518D01*
X747108Y595533D01*
X747104Y595540D01*
X747100Y595544D01*
X747079Y595573D01*
X747053Y595602D01*
X746998Y595656D01*
X746973Y595682D01*
X746951Y595700D01*
X746937Y595711D01*
X746933Y595715D01*
X746882Y595751D01*
X746827Y595791D01*
X746769Y595831D01*
X746714Y595871D01*
X746664Y595904D01*
X746624Y595930D01*
X746609Y595940D01*
X746598Y595948D01*
X746591Y595955D01*
X746587D01*
X746063Y596286D01*
Y596701D01*
X746747Y596268D01*
D02*
G37*
G36*
X1080324Y444397D02*
X1080364Y444339D01*
X1080411Y444280D01*
X1080455Y444230D01*
X1080498Y444186D01*
X1080531Y444149D01*
X1080546Y444139D01*
X1080557Y444128D01*
X1080560Y444124D01*
X1080564Y444120D01*
X1080640Y444059D01*
X1080717Y444000D01*
X1080789Y443949D01*
X1080862Y443909D01*
X1080924Y443873D01*
X1080950Y443858D01*
X1080972Y443847D01*
X1080990Y443836D01*
X1081004Y443833D01*
X1081011Y443825D01*
X1081015D01*
Y443527D01*
X1080961Y443549D01*
X1080906Y443574D01*
X1080851Y443600D01*
X1080800Y443625D01*
X1080757Y443647D01*
X1080720Y443665D01*
X1080698Y443680D01*
X1080695Y443684D01*
X1080691D01*
X1080626Y443724D01*
X1080567Y443764D01*
X1080517Y443800D01*
X1080476Y443833D01*
X1080440Y443858D01*
X1080418Y443880D01*
X1080400Y443895D01*
X1080396Y443898D01*
Y441929D01*
X1080087D01*
Y444459D01*
X1080287D01*
X1080324Y444397D01*
D02*
G37*
G36*
X1083661Y441929D02*
X1083327D01*
Y443047D01*
X1082897D01*
X1082857Y443043D01*
X1082828D01*
X1082802Y443039D01*
X1082784Y443036D01*
X1082770D01*
X1082762Y443032D01*
X1082759D01*
X1082701Y443014D01*
X1082675Y443003D01*
X1082653Y442992D01*
X1082631Y442981D01*
X1082617Y442974D01*
X1082609Y442970D01*
X1082606Y442967D01*
X1082577Y442945D01*
X1082548Y442919D01*
X1082493Y442865D01*
X1082467Y442839D01*
X1082449Y442817D01*
X1082438Y442803D01*
X1082435Y442799D01*
X1082398Y442748D01*
X1082358Y442694D01*
X1082318Y442635D01*
X1082278Y442581D01*
X1082246Y442530D01*
X1082220Y442490D01*
X1082209Y442475D01*
X1082202Y442464D01*
X1082195Y442457D01*
Y442453D01*
X1081863Y441929D01*
X1081448D01*
X1081882Y442613D01*
X1081933Y442686D01*
X1081980Y442752D01*
X1082027Y442806D01*
X1082067Y442857D01*
X1082104Y442894D01*
X1082133Y442923D01*
X1082151Y442941D01*
X1082158Y442948D01*
X1082187Y442970D01*
X1082220Y442996D01*
X1082285Y443036D01*
X1082315Y443050D01*
X1082337Y443065D01*
X1082351Y443072D01*
X1082358Y443076D01*
X1082293Y443087D01*
X1082231Y443097D01*
X1082176Y443116D01*
X1082122Y443130D01*
X1082074Y443149D01*
X1082031Y443170D01*
X1081991Y443188D01*
X1081954Y443207D01*
X1081925Y443229D01*
X1081896Y443247D01*
X1081874Y443261D01*
X1081856Y443276D01*
X1081841Y443287D01*
X1081831Y443298D01*
X1081827Y443301D01*
X1081823Y443305D01*
X1081794Y443341D01*
X1081765Y443378D01*
X1081721Y443454D01*
X1081692Y443531D01*
X1081670Y443604D01*
X1081656Y443665D01*
X1081652Y443691D01*
Y443716D01*
X1081649Y443735D01*
Y443749D01*
Y443756D01*
Y443760D01*
X1081652Y443836D01*
X1081663Y443906D01*
X1081681Y443971D01*
X1081699Y444026D01*
X1081721Y444073D01*
X1081736Y444109D01*
X1081750Y444131D01*
X1081754Y444135D01*
Y444139D01*
X1081798Y444197D01*
X1081841Y444248D01*
X1081889Y444291D01*
X1081933Y444324D01*
X1081973Y444350D01*
X1082005Y444364D01*
X1082027Y444375D01*
X1082031Y444379D01*
X1082034D01*
X1082067Y444390D01*
X1082107Y444401D01*
X1082187Y444419D01*
X1082275Y444430D01*
X1082355Y444441D01*
X1082431Y444444D01*
X1082464D01*
X1082493Y444448D01*
X1083661D01*
Y441929D01*
D02*
G37*
G36*
X942913Y373681D02*
X941796D01*
Y373251D01*
X941800Y373211D01*
Y373182D01*
X941803Y373157D01*
X941807Y373139D01*
Y373124D01*
X941811Y373117D01*
Y373113D01*
X941829Y373055D01*
X941840Y373029D01*
X941851Y373007D01*
X941862Y372986D01*
X941869Y372971D01*
X941872Y372964D01*
X941876Y372960D01*
X941898Y372931D01*
X941923Y372902D01*
X941978Y372847D01*
X942003Y372822D01*
X942025Y372804D01*
X942040Y372793D01*
X942043Y372789D01*
X942094Y372753D01*
X942149Y372713D01*
X942207Y372673D01*
X942262Y372633D01*
X942313Y372600D01*
X942353Y372574D01*
X942367Y372563D01*
X942378Y372556D01*
X942386Y372549D01*
X942389D01*
X942913Y372218D01*
Y371803D01*
X942229Y372236D01*
X942156Y372287D01*
X942091Y372334D01*
X942036Y372381D01*
X941985Y372422D01*
X941949Y372458D01*
X941920Y372487D01*
X941901Y372505D01*
X941894Y372513D01*
X941872Y372542D01*
X941847Y372574D01*
X941807Y372640D01*
X941792Y372669D01*
X941778Y372691D01*
X941770Y372705D01*
X941767Y372713D01*
X941756Y372647D01*
X941745Y372585D01*
X941727Y372531D01*
X941712Y372476D01*
X941694Y372429D01*
X941672Y372385D01*
X941654Y372345D01*
X941636Y372309D01*
X941614Y372280D01*
X941596Y372250D01*
X941581Y372229D01*
X941567Y372210D01*
X941556Y372196D01*
X941545Y372185D01*
X941541Y372181D01*
X941537Y372178D01*
X941501Y372148D01*
X941465Y372119D01*
X941388Y372076D01*
X941312Y372047D01*
X941239Y372025D01*
X941177Y372010D01*
X941152Y372007D01*
X941126D01*
X941108Y372003D01*
X941093D01*
X941086D01*
X941082D01*
X941006Y372007D01*
X940937Y372017D01*
X940871Y372036D01*
X940817Y372054D01*
X940769Y372076D01*
X940733Y372090D01*
X940711Y372105D01*
X940708Y372108D01*
X940704D01*
X940646Y372152D01*
X940595Y372196D01*
X940551Y372243D01*
X940518Y372287D01*
X940493Y372327D01*
X940478Y372360D01*
X940467Y372381D01*
X940464Y372385D01*
Y372389D01*
X940453Y372422D01*
X940442Y372462D01*
X940424Y372542D01*
X940413Y372629D01*
X940402Y372709D01*
X940398Y372785D01*
Y372818D01*
X940395Y372847D01*
Y374016D01*
X942913D01*
Y373681D01*
D02*
G37*
G36*
Y369979D02*
X942615D01*
Y371220D01*
X942553Y371177D01*
X942528Y371155D01*
X942502Y371137D01*
X942480Y371118D01*
X942466Y371104D01*
X942455Y371093D01*
X942451Y371089D01*
X942433Y371071D01*
X942415Y371049D01*
X942367Y370998D01*
X942313Y370940D01*
X942258Y370878D01*
X942211Y370820D01*
X942189Y370794D01*
X942167Y370773D01*
X942153Y370754D01*
X942142Y370740D01*
X942134Y370732D01*
X942131Y370729D01*
X942080Y370671D01*
X942033Y370612D01*
X941985Y370561D01*
X941945Y370514D01*
X941905Y370470D01*
X941869Y370434D01*
X941836Y370398D01*
X941807Y370369D01*
X941778Y370339D01*
X941756Y370318D01*
X941738Y370299D01*
X941720Y370281D01*
X941698Y370263D01*
X941690Y370256D01*
X941628Y370205D01*
X941574Y370161D01*
X941519Y370125D01*
X941476Y370095D01*
X941436Y370074D01*
X941407Y370059D01*
X941388Y370052D01*
X941381Y370048D01*
X941326Y370026D01*
X941272Y370012D01*
X941221Y369997D01*
X941177Y369990D01*
X941137Y369986D01*
X941108Y369983D01*
X941090D01*
X941082D01*
X941028Y369986D01*
X940977Y369994D01*
X940926Y370001D01*
X940882Y370015D01*
X940795Y370052D01*
X940726Y370088D01*
X940693Y370110D01*
X940668Y370128D01*
X940642Y370146D01*
X940624Y370165D01*
X940609Y370179D01*
X940595Y370186D01*
X940591Y370194D01*
X940588Y370197D01*
X940551Y370237D01*
X940518Y370281D01*
X940493Y370328D01*
X940471Y370376D01*
X940435Y370470D01*
X940409Y370565D01*
X940402Y370605D01*
X940395Y370645D01*
X940391Y370682D01*
X940387Y370711D01*
X940384Y370736D01*
Y370773D01*
X940387Y370838D01*
X940391Y370900D01*
X940402Y370958D01*
X940413Y371013D01*
X940427Y371064D01*
X940442Y371111D01*
X940460Y371155D01*
X940478Y371195D01*
X940497Y371231D01*
X940515Y371260D01*
X940529Y371286D01*
X940544Y371308D01*
X940555Y371326D01*
X940566Y371337D01*
X940569Y371344D01*
X940573Y371348D01*
X940609Y371384D01*
X940649Y371417D01*
X940693Y371450D01*
X940737Y371475D01*
X940824Y371519D01*
X940911Y371548D01*
X940952Y371559D01*
X940991Y371570D01*
X941024Y371577D01*
X941053Y371584D01*
X941079Y371588D01*
X941097D01*
X941108Y371592D01*
X941112D01*
X941144Y371275D01*
X941061Y371268D01*
X940988Y371253D01*
X940922Y371231D01*
X940871Y371206D01*
X940828Y371184D01*
X940799Y371162D01*
X940780Y371147D01*
X940773Y371140D01*
X940729Y371086D01*
X940697Y371027D01*
X940671Y370966D01*
X940657Y370911D01*
X940646Y370860D01*
X940642Y370816D01*
X940638Y370802D01*
Y370780D01*
X940642Y370703D01*
X940657Y370634D01*
X940679Y370576D01*
X940700Y370525D01*
X940726Y370485D01*
X940744Y370460D01*
X940759Y370441D01*
X940766Y370434D01*
X940817Y370390D01*
X940868Y370358D01*
X940919Y370332D01*
X940970Y370318D01*
X941010Y370307D01*
X941046Y370303D01*
X941068Y370299D01*
X941072D01*
X941075D01*
X941141Y370307D01*
X941210Y370321D01*
X941272Y370347D01*
X941330Y370372D01*
X941377Y370401D01*
X941417Y370427D01*
X941432Y370434D01*
X941443Y370441D01*
X941446Y370449D01*
X941450D01*
X941490Y370478D01*
X941530Y370514D01*
X941574Y370554D01*
X941618Y370598D01*
X941705Y370689D01*
X941792Y370780D01*
X941832Y370827D01*
X941869Y370867D01*
X941901Y370907D01*
X941931Y370940D01*
X941953Y370966D01*
X941971Y370987D01*
X941982Y371002D01*
X941985Y371006D01*
X942062Y371096D01*
X942134Y371180D01*
X942200Y371249D01*
X942255Y371304D01*
X942302Y371351D01*
X942335Y371384D01*
X942356Y371402D01*
X942360Y371410D01*
X942364D01*
X942426Y371461D01*
X942484Y371501D01*
X942542Y371537D01*
X942593Y371566D01*
X942637Y371588D01*
X942670Y371603D01*
X942691Y371610D01*
X942695Y371613D01*
X942699D01*
X942739Y371628D01*
X942775Y371635D01*
X942811Y371642D01*
X942844Y371646D01*
X942873Y371650D01*
X942895D01*
X942910D01*
X942913D01*
Y369979D01*
D02*
G37*
G36*
X1080484Y352920D02*
X1080546Y352916D01*
X1080604Y352905D01*
X1080659Y352894D01*
X1080709Y352880D01*
X1080757Y352865D01*
X1080800Y352847D01*
X1080840Y352829D01*
X1080877Y352811D01*
X1080906Y352792D01*
X1080931Y352778D01*
X1080953Y352763D01*
X1080972Y352752D01*
X1080982Y352741D01*
X1080990Y352738D01*
X1080993Y352734D01*
X1081030Y352698D01*
X1081063Y352658D01*
X1081095Y352614D01*
X1081121Y352570D01*
X1081164Y352483D01*
X1081194Y352396D01*
X1081205Y352356D01*
X1081215Y352315D01*
X1081223Y352283D01*
X1081230Y352254D01*
X1081234Y352228D01*
Y352210D01*
X1081237Y352199D01*
Y352195D01*
X1080921Y352163D01*
X1080913Y352246D01*
X1080899Y352319D01*
X1080877Y352385D01*
X1080851Y352436D01*
X1080830Y352479D01*
X1080808Y352508D01*
X1080793Y352527D01*
X1080786Y352534D01*
X1080731Y352578D01*
X1080673Y352610D01*
X1080611Y352636D01*
X1080557Y352650D01*
X1080506Y352661D01*
X1080462Y352665D01*
X1080447Y352669D01*
X1080425D01*
X1080349Y352665D01*
X1080280Y352650D01*
X1080222Y352629D01*
X1080171Y352607D01*
X1080131Y352581D01*
X1080105Y352563D01*
X1080087Y352549D01*
X1080080Y352541D01*
X1080036Y352490D01*
X1080003Y352439D01*
X1079978Y352388D01*
X1079963Y352337D01*
X1079952Y352297D01*
X1079949Y352261D01*
X1079945Y352239D01*
Y352236D01*
Y352232D01*
X1079952Y352166D01*
X1079967Y352097D01*
X1079992Y352035D01*
X1080018Y351977D01*
X1080047Y351930D01*
X1080072Y351890D01*
X1080080Y351875D01*
X1080087Y351864D01*
X1080094Y351861D01*
Y351857D01*
X1080123Y351817D01*
X1080160Y351777D01*
X1080200Y351733D01*
X1080243Y351690D01*
X1080334Y351602D01*
X1080425Y351515D01*
X1080473Y351475D01*
X1080513Y351438D01*
X1080553Y351406D01*
X1080586Y351376D01*
X1080611Y351355D01*
X1080633Y351336D01*
X1080648Y351325D01*
X1080651Y351322D01*
X1080742Y351245D01*
X1080826Y351173D01*
X1080895Y351107D01*
X1080950Y351052D01*
X1080997Y351005D01*
X1081030Y350972D01*
X1081048Y350951D01*
X1081055Y350947D01*
Y350943D01*
X1081106Y350881D01*
X1081146Y350823D01*
X1081183Y350765D01*
X1081212Y350714D01*
X1081234Y350670D01*
X1081248Y350638D01*
X1081255Y350616D01*
X1081259Y350612D01*
Y350608D01*
X1081274Y350568D01*
X1081281Y350532D01*
X1081288Y350496D01*
X1081292Y350463D01*
X1081295Y350434D01*
Y350412D01*
Y350397D01*
Y350394D01*
X1079625D01*
Y350692D01*
X1080866D01*
X1080822Y350754D01*
X1080800Y350780D01*
X1080782Y350805D01*
X1080764Y350827D01*
X1080750Y350841D01*
X1080739Y350852D01*
X1080735Y350856D01*
X1080717Y350874D01*
X1080695Y350892D01*
X1080644Y350940D01*
X1080586Y350994D01*
X1080524Y351049D01*
X1080466Y351096D01*
X1080440Y351118D01*
X1080418Y351140D01*
X1080400Y351154D01*
X1080385Y351165D01*
X1080378Y351173D01*
X1080375Y351176D01*
X1080316Y351227D01*
X1080258Y351274D01*
X1080207Y351322D01*
X1080160Y351362D01*
X1080116Y351402D01*
X1080080Y351438D01*
X1080043Y351471D01*
X1080014Y351500D01*
X1079985Y351529D01*
X1079963Y351551D01*
X1079945Y351569D01*
X1079927Y351588D01*
X1079909Y351609D01*
X1079901Y351617D01*
X1079850Y351678D01*
X1079807Y351733D01*
X1079770Y351788D01*
X1079741Y351831D01*
X1079719Y351871D01*
X1079705Y351901D01*
X1079698Y351919D01*
X1079694Y351926D01*
X1079672Y351981D01*
X1079657Y352035D01*
X1079643Y352086D01*
X1079636Y352130D01*
X1079632Y352170D01*
X1079628Y352199D01*
Y352217D01*
Y352224D01*
X1079632Y352279D01*
X1079639Y352330D01*
X1079647Y352381D01*
X1079661Y352425D01*
X1079698Y352512D01*
X1079734Y352581D01*
X1079756Y352614D01*
X1079774Y352640D01*
X1079792Y352665D01*
X1079810Y352683D01*
X1079825Y352698D01*
X1079832Y352712D01*
X1079840Y352716D01*
X1079843Y352720D01*
X1079883Y352756D01*
X1079927Y352789D01*
X1079974Y352814D01*
X1080021Y352836D01*
X1080116Y352872D01*
X1080211Y352898D01*
X1080251Y352905D01*
X1080291Y352912D01*
X1080327Y352916D01*
X1080356Y352920D01*
X1080382Y352923D01*
X1080418D01*
X1080484Y352920D01*
D02*
G37*
G36*
X1083661Y350394D02*
X1083327D01*
Y351511D01*
X1082897D01*
X1082857Y351507D01*
X1082828D01*
X1082802Y351504D01*
X1082784Y351500D01*
X1082770D01*
X1082762Y351497D01*
X1082759D01*
X1082701Y351478D01*
X1082675Y351467D01*
X1082653Y351456D01*
X1082631Y351446D01*
X1082617Y351438D01*
X1082609Y351435D01*
X1082606Y351431D01*
X1082577Y351409D01*
X1082548Y351384D01*
X1082493Y351329D01*
X1082467Y351304D01*
X1082449Y351282D01*
X1082438Y351267D01*
X1082435Y351264D01*
X1082398Y351213D01*
X1082358Y351158D01*
X1082318Y351100D01*
X1082278Y351045D01*
X1082246Y350994D01*
X1082220Y350954D01*
X1082209Y350940D01*
X1082202Y350929D01*
X1082195Y350921D01*
Y350918D01*
X1081863Y350394D01*
X1081448D01*
X1081882Y351078D01*
X1081933Y351151D01*
X1081980Y351216D01*
X1082027Y351271D01*
X1082067Y351322D01*
X1082104Y351358D01*
X1082133Y351387D01*
X1082151Y351406D01*
X1082158Y351413D01*
X1082187Y351435D01*
X1082220Y351460D01*
X1082285Y351500D01*
X1082315Y351515D01*
X1082337Y351529D01*
X1082351Y351537D01*
X1082358Y351540D01*
X1082293Y351551D01*
X1082231Y351562D01*
X1082176Y351580D01*
X1082122Y351595D01*
X1082074Y351613D01*
X1082031Y351635D01*
X1081991Y351653D01*
X1081954Y351671D01*
X1081925Y351693D01*
X1081896Y351711D01*
X1081874Y351726D01*
X1081856Y351740D01*
X1081841Y351751D01*
X1081831Y351762D01*
X1081827Y351766D01*
X1081823Y351769D01*
X1081794Y351806D01*
X1081765Y351842D01*
X1081721Y351919D01*
X1081692Y351995D01*
X1081670Y352068D01*
X1081656Y352130D01*
X1081652Y352155D01*
Y352181D01*
X1081649Y352199D01*
Y352214D01*
Y352221D01*
Y352224D01*
X1081652Y352301D01*
X1081663Y352370D01*
X1081681Y352436D01*
X1081699Y352490D01*
X1081721Y352538D01*
X1081736Y352574D01*
X1081750Y352596D01*
X1081754Y352600D01*
Y352603D01*
X1081798Y352661D01*
X1081841Y352712D01*
X1081889Y352756D01*
X1081933Y352789D01*
X1081973Y352814D01*
X1082005Y352829D01*
X1082027Y352840D01*
X1082031Y352843D01*
X1082034D01*
X1082067Y352854D01*
X1082107Y352865D01*
X1082187Y352883D01*
X1082275Y352894D01*
X1082355Y352905D01*
X1082431Y352909D01*
X1082464D01*
X1082493Y352912D01*
X1083661D01*
Y350394D01*
D02*
G37*
G36*
X1079399Y351282D02*
Y350998D01*
X1078303D01*
Y350394D01*
X1077994D01*
Y350998D01*
X1077652D01*
Y351282D01*
X1077994D01*
Y352912D01*
X1078245D01*
X1079399Y351282D01*
D02*
G37*
G36*
X1080484Y367727D02*
X1080546Y367724D01*
X1080604Y367713D01*
X1080659Y367702D01*
X1080709Y367687D01*
X1080757Y367673D01*
X1080800Y367654D01*
X1080840Y367636D01*
X1080877Y367618D01*
X1080906Y367600D01*
X1080931Y367585D01*
X1080953Y367571D01*
X1080972Y367560D01*
X1080982Y367549D01*
X1080990Y367545D01*
X1080993Y367542D01*
X1081030Y367505D01*
X1081063Y367465D01*
X1081095Y367422D01*
X1081121Y367378D01*
X1081164Y367290D01*
X1081194Y367203D01*
X1081205Y367163D01*
X1081215Y367123D01*
X1081223Y367090D01*
X1081230Y367061D01*
X1081234Y367036D01*
Y367018D01*
X1081237Y367006D01*
Y367003D01*
X1080921Y366970D01*
X1080913Y367054D01*
X1080899Y367127D01*
X1080877Y367192D01*
X1080851Y367243D01*
X1080830Y367287D01*
X1080808Y367316D01*
X1080793Y367334D01*
X1080786Y367341D01*
X1080731Y367385D01*
X1080673Y367418D01*
X1080611Y367443D01*
X1080557Y367458D01*
X1080506Y367469D01*
X1080462Y367473D01*
X1080447Y367476D01*
X1080425D01*
X1080349Y367473D01*
X1080280Y367458D01*
X1080222Y367436D01*
X1080171Y367414D01*
X1080131Y367389D01*
X1080105Y367371D01*
X1080087Y367356D01*
X1080080Y367349D01*
X1080036Y367298D01*
X1080003Y367247D01*
X1079978Y367196D01*
X1079963Y367145D01*
X1079952Y367105D01*
X1079949Y367068D01*
X1079945Y367047D01*
Y367043D01*
Y367039D01*
X1079952Y366974D01*
X1079967Y366905D01*
X1079992Y366843D01*
X1080018Y366785D01*
X1080047Y366737D01*
X1080072Y366697D01*
X1080080Y366683D01*
X1080087Y366672D01*
X1080094Y366668D01*
Y366664D01*
X1080123Y366624D01*
X1080160Y366584D01*
X1080200Y366541D01*
X1080243Y366497D01*
X1080334Y366410D01*
X1080425Y366322D01*
X1080473Y366282D01*
X1080513Y366246D01*
X1080553Y366213D01*
X1080586Y366184D01*
X1080611Y366162D01*
X1080633Y366144D01*
X1080648Y366133D01*
X1080651Y366129D01*
X1080742Y366053D01*
X1080826Y365980D01*
X1080895Y365915D01*
X1080950Y365860D01*
X1080997Y365813D01*
X1081030Y365780D01*
X1081048Y365758D01*
X1081055Y365754D01*
Y365751D01*
X1081106Y365689D01*
X1081146Y365631D01*
X1081183Y365572D01*
X1081212Y365521D01*
X1081234Y365478D01*
X1081248Y365445D01*
X1081255Y365423D01*
X1081259Y365420D01*
Y365416D01*
X1081274Y365376D01*
X1081281Y365339D01*
X1081288Y365303D01*
X1081292Y365270D01*
X1081295Y365241D01*
Y365219D01*
Y365205D01*
Y365201D01*
X1079625D01*
Y365500D01*
X1080866D01*
X1080822Y365562D01*
X1080800Y365587D01*
X1080782Y365612D01*
X1080764Y365634D01*
X1080750Y365649D01*
X1080739Y365660D01*
X1080735Y365663D01*
X1080717Y365682D01*
X1080695Y365700D01*
X1080644Y365747D01*
X1080586Y365802D01*
X1080524Y365856D01*
X1080466Y365904D01*
X1080440Y365926D01*
X1080418Y365947D01*
X1080400Y365962D01*
X1080385Y365973D01*
X1080378Y365980D01*
X1080375Y365984D01*
X1080316Y366035D01*
X1080258Y366082D01*
X1080207Y366129D01*
X1080160Y366169D01*
X1080116Y366209D01*
X1080080Y366246D01*
X1080043Y366279D01*
X1080014Y366308D01*
X1079985Y366337D01*
X1079963Y366359D01*
X1079945Y366377D01*
X1079927Y366395D01*
X1079909Y366417D01*
X1079901Y366424D01*
X1079850Y366486D01*
X1079807Y366541D01*
X1079770Y366595D01*
X1079741Y366639D01*
X1079719Y366679D01*
X1079705Y366708D01*
X1079698Y366726D01*
X1079694Y366734D01*
X1079672Y366788D01*
X1079657Y366843D01*
X1079643Y366894D01*
X1079636Y366937D01*
X1079632Y366977D01*
X1079628Y367006D01*
Y367025D01*
Y367032D01*
X1079632Y367087D01*
X1079639Y367138D01*
X1079647Y367189D01*
X1079661Y367232D01*
X1079698Y367320D01*
X1079734Y367389D01*
X1079756Y367422D01*
X1079774Y367447D01*
X1079792Y367473D01*
X1079810Y367491D01*
X1079825Y367505D01*
X1079832Y367520D01*
X1079840Y367523D01*
X1079843Y367527D01*
X1079883Y367564D01*
X1079927Y367596D01*
X1079974Y367622D01*
X1080021Y367643D01*
X1080116Y367680D01*
X1080211Y367705D01*
X1080251Y367713D01*
X1080291Y367720D01*
X1080327Y367724D01*
X1080356Y367727D01*
X1080382Y367731D01*
X1080418D01*
X1080484Y367727D01*
D02*
G37*
G36*
X1079239Y366391D02*
X1078948Y366351D01*
X1078922Y366391D01*
X1078889Y366424D01*
X1078860Y366457D01*
X1078831Y366482D01*
X1078802Y366501D01*
X1078780Y366519D01*
X1078766Y366526D01*
X1078762Y366530D01*
X1078715Y366551D01*
X1078667Y366570D01*
X1078624Y366581D01*
X1078580Y366592D01*
X1078544Y366595D01*
X1078514Y366599D01*
X1078445D01*
X1078402Y366592D01*
X1078325Y366573D01*
X1078260Y366548D01*
X1078201Y366522D01*
X1078158Y366493D01*
X1078125Y366468D01*
X1078107Y366450D01*
X1078100Y366446D01*
Y366442D01*
X1078049Y366381D01*
X1078012Y366315D01*
X1077987Y366246D01*
X1077969Y366177D01*
X1077958Y366118D01*
X1077954Y366093D01*
Y366071D01*
X1077950Y366053D01*
Y366038D01*
Y366031D01*
Y366027D01*
Y365976D01*
X1077958Y365929D01*
X1077976Y365838D01*
X1078001Y365762D01*
X1078027Y365700D01*
X1078056Y365649D01*
X1078081Y365609D01*
X1078092Y365598D01*
X1078100Y365587D01*
X1078103Y365583D01*
X1078107Y365580D01*
X1078136Y365550D01*
X1078165Y365525D01*
X1078231Y365481D01*
X1078292Y365452D01*
X1078354Y365434D01*
X1078405Y365420D01*
X1078449Y365416D01*
X1078464Y365412D01*
X1078485D01*
X1078555Y365416D01*
X1078616Y365430D01*
X1078671Y365449D01*
X1078715Y365471D01*
X1078755Y365492D01*
X1078784Y365511D01*
X1078798Y365525D01*
X1078806Y365529D01*
X1078849Y365580D01*
X1078886Y365634D01*
X1078915Y365696D01*
X1078937Y365751D01*
X1078951Y365805D01*
X1078962Y365845D01*
X1078966Y365864D01*
X1078969Y365875D01*
Y365882D01*
Y365885D01*
X1079294Y365860D01*
X1079286Y365802D01*
X1079275Y365747D01*
X1079243Y365645D01*
X1079202Y365558D01*
X1079181Y365518D01*
X1079159Y365485D01*
X1079141Y365452D01*
X1079119Y365423D01*
X1079101Y365401D01*
X1079082Y365383D01*
X1079068Y365369D01*
X1079060Y365354D01*
X1079053Y365350D01*
X1079050Y365347D01*
X1079006Y365314D01*
X1078962Y365285D01*
X1078915Y365259D01*
X1078868Y365237D01*
X1078777Y365205D01*
X1078686Y365183D01*
X1078646Y365172D01*
X1078605Y365168D01*
X1078573Y365165D01*
X1078544Y365161D01*
X1078518Y365157D01*
X1078485D01*
X1078409Y365161D01*
X1078336Y365172D01*
X1078267Y365187D01*
X1078205Y365205D01*
X1078147Y365230D01*
X1078092Y365256D01*
X1078041Y365281D01*
X1077998Y365310D01*
X1077958Y365339D01*
X1077921Y365365D01*
X1077892Y365394D01*
X1077867Y365416D01*
X1077848Y365434D01*
X1077834Y365449D01*
X1077826Y365459D01*
X1077823Y365463D01*
X1077787Y365511D01*
X1077757Y365562D01*
X1077728Y365609D01*
X1077706Y365660D01*
X1077670Y365758D01*
X1077648Y365853D01*
X1077641Y365893D01*
X1077634Y365933D01*
X1077630Y365966D01*
X1077626Y365995D01*
X1077623Y366020D01*
Y366038D01*
Y366049D01*
Y366053D01*
X1077626Y366118D01*
X1077634Y366180D01*
X1077645Y366242D01*
X1077659Y366297D01*
X1077677Y366348D01*
X1077695Y366399D01*
X1077717Y366442D01*
X1077736Y366482D01*
X1077757Y366519D01*
X1077779Y366551D01*
X1077797Y366577D01*
X1077816Y366602D01*
X1077830Y366621D01*
X1077841Y366632D01*
X1077848Y366639D01*
X1077852Y366642D01*
X1077896Y366683D01*
X1077939Y366719D01*
X1077987Y366748D01*
X1078034Y366774D01*
X1078081Y366799D01*
X1078129Y366817D01*
X1078216Y366843D01*
X1078256Y366854D01*
X1078292Y366861D01*
X1078325Y366865D01*
X1078354Y366868D01*
X1078376Y366872D01*
X1078456D01*
X1078500Y366865D01*
X1078587Y366846D01*
X1078667Y366821D01*
X1078740Y366792D01*
X1078798Y366763D01*
X1078824Y366748D01*
X1078846Y366737D01*
X1078864Y366726D01*
X1078875Y366719D01*
X1078882Y366715D01*
X1078886Y366712D01*
X1078751Y367392D01*
X1077743D01*
Y367687D01*
X1078995D01*
X1079239Y366391D01*
D02*
G37*
G36*
X1083661Y365201D02*
X1083327D01*
Y366319D01*
X1082897D01*
X1082857Y366315D01*
X1082828D01*
X1082802Y366311D01*
X1082784Y366308D01*
X1082770D01*
X1082762Y366304D01*
X1082759D01*
X1082701Y366286D01*
X1082675Y366275D01*
X1082653Y366264D01*
X1082631Y366253D01*
X1082617Y366246D01*
X1082609Y366242D01*
X1082606Y366238D01*
X1082577Y366217D01*
X1082548Y366191D01*
X1082493Y366137D01*
X1082467Y366111D01*
X1082449Y366089D01*
X1082438Y366075D01*
X1082435Y366071D01*
X1082398Y366020D01*
X1082358Y365966D01*
X1082318Y365907D01*
X1082278Y365853D01*
X1082246Y365802D01*
X1082220Y365762D01*
X1082209Y365747D01*
X1082202Y365736D01*
X1082195Y365729D01*
Y365725D01*
X1081863Y365201D01*
X1081448D01*
X1081882Y365885D01*
X1081933Y365958D01*
X1081980Y366024D01*
X1082027Y366078D01*
X1082067Y366129D01*
X1082104Y366166D01*
X1082133Y366195D01*
X1082151Y366213D01*
X1082158Y366220D01*
X1082187Y366242D01*
X1082220Y366268D01*
X1082285Y366308D01*
X1082315Y366322D01*
X1082337Y366337D01*
X1082351Y366344D01*
X1082358Y366348D01*
X1082293Y366359D01*
X1082231Y366370D01*
X1082176Y366388D01*
X1082122Y366402D01*
X1082074Y366421D01*
X1082031Y366442D01*
X1081991Y366460D01*
X1081954Y366479D01*
X1081925Y366501D01*
X1081896Y366519D01*
X1081874Y366533D01*
X1081856Y366548D01*
X1081841Y366559D01*
X1081831Y366570D01*
X1081827Y366573D01*
X1081823Y366577D01*
X1081794Y366613D01*
X1081765Y366650D01*
X1081721Y366726D01*
X1081692Y366803D01*
X1081670Y366876D01*
X1081656Y366937D01*
X1081652Y366963D01*
Y366988D01*
X1081649Y367006D01*
Y367021D01*
Y367028D01*
Y367032D01*
X1081652Y367108D01*
X1081663Y367178D01*
X1081681Y367243D01*
X1081699Y367298D01*
X1081721Y367345D01*
X1081736Y367382D01*
X1081750Y367403D01*
X1081754Y367407D01*
Y367411D01*
X1081798Y367469D01*
X1081841Y367520D01*
X1081889Y367564D01*
X1081933Y367596D01*
X1081973Y367622D01*
X1082005Y367636D01*
X1082027Y367647D01*
X1082031Y367651D01*
X1082034D01*
X1082067Y367662D01*
X1082107Y367673D01*
X1082187Y367691D01*
X1082275Y367702D01*
X1082355Y367713D01*
X1082431Y367716D01*
X1082464D01*
X1082493Y367720D01*
X1083661D01*
Y365201D01*
D02*
G37*
G36*
X1080484Y383475D02*
X1080546Y383472D01*
X1080604Y383461D01*
X1080659Y383450D01*
X1080709Y383435D01*
X1080757Y383421D01*
X1080800Y383402D01*
X1080840Y383384D01*
X1080877Y383366D01*
X1080906Y383348D01*
X1080931Y383333D01*
X1080953Y383319D01*
X1080972Y383308D01*
X1080982Y383297D01*
X1080990Y383293D01*
X1080993Y383290D01*
X1081030Y383253D01*
X1081063Y383213D01*
X1081095Y383170D01*
X1081121Y383126D01*
X1081164Y383038D01*
X1081194Y382951D01*
X1081205Y382911D01*
X1081215Y382871D01*
X1081223Y382838D01*
X1081230Y382809D01*
X1081234Y382784D01*
Y382766D01*
X1081237Y382755D01*
Y382751D01*
X1080921Y382718D01*
X1080913Y382802D01*
X1080899Y382875D01*
X1080877Y382940D01*
X1080851Y382991D01*
X1080830Y383035D01*
X1080808Y383064D01*
X1080793Y383082D01*
X1080786Y383089D01*
X1080731Y383133D01*
X1080673Y383166D01*
X1080611Y383191D01*
X1080557Y383206D01*
X1080506Y383217D01*
X1080462Y383221D01*
X1080447Y383224D01*
X1080425D01*
X1080349Y383221D01*
X1080280Y383206D01*
X1080222Y383184D01*
X1080171Y383162D01*
X1080131Y383137D01*
X1080105Y383119D01*
X1080087Y383104D01*
X1080080Y383097D01*
X1080036Y383046D01*
X1080003Y382995D01*
X1079978Y382944D01*
X1079963Y382893D01*
X1079952Y382853D01*
X1079949Y382816D01*
X1079945Y382795D01*
Y382791D01*
Y382787D01*
X1079952Y382722D01*
X1079967Y382653D01*
X1079992Y382591D01*
X1080018Y382533D01*
X1080047Y382485D01*
X1080072Y382445D01*
X1080080Y382431D01*
X1080087Y382420D01*
X1080094Y382416D01*
Y382412D01*
X1080123Y382372D01*
X1080160Y382332D01*
X1080200Y382289D01*
X1080243Y382245D01*
X1080334Y382158D01*
X1080425Y382070D01*
X1080473Y382030D01*
X1080513Y381994D01*
X1080553Y381961D01*
X1080586Y381932D01*
X1080611Y381910D01*
X1080633Y381892D01*
X1080648Y381881D01*
X1080651Y381877D01*
X1080742Y381801D01*
X1080826Y381728D01*
X1080895Y381663D01*
X1080950Y381608D01*
X1080997Y381561D01*
X1081030Y381528D01*
X1081048Y381506D01*
X1081055Y381502D01*
Y381499D01*
X1081106Y381437D01*
X1081146Y381379D01*
X1081183Y381320D01*
X1081212Y381270D01*
X1081234Y381226D01*
X1081248Y381193D01*
X1081255Y381171D01*
X1081259Y381168D01*
Y381164D01*
X1081274Y381124D01*
X1081281Y381087D01*
X1081288Y381051D01*
X1081292Y381018D01*
X1081295Y380989D01*
Y380967D01*
Y380953D01*
Y380949D01*
X1079625D01*
Y381248D01*
X1080866D01*
X1080822Y381310D01*
X1080800Y381335D01*
X1080782Y381360D01*
X1080764Y381382D01*
X1080750Y381397D01*
X1080739Y381408D01*
X1080735Y381411D01*
X1080717Y381430D01*
X1080695Y381448D01*
X1080644Y381495D01*
X1080586Y381550D01*
X1080524Y381604D01*
X1080466Y381652D01*
X1080440Y381674D01*
X1080418Y381695D01*
X1080400Y381710D01*
X1080385Y381721D01*
X1080378Y381728D01*
X1080375Y381732D01*
X1080316Y381783D01*
X1080258Y381830D01*
X1080207Y381877D01*
X1080160Y381917D01*
X1080116Y381957D01*
X1080080Y381994D01*
X1080043Y382027D01*
X1080014Y382056D01*
X1079985Y382085D01*
X1079963Y382107D01*
X1079945Y382125D01*
X1079927Y382143D01*
X1079909Y382165D01*
X1079901Y382172D01*
X1079850Y382234D01*
X1079807Y382289D01*
X1079770Y382343D01*
X1079741Y382387D01*
X1079719Y382427D01*
X1079705Y382456D01*
X1079698Y382474D01*
X1079694Y382482D01*
X1079672Y382536D01*
X1079657Y382591D01*
X1079643Y382642D01*
X1079636Y382685D01*
X1079632Y382726D01*
X1079628Y382755D01*
Y382773D01*
Y382780D01*
X1079632Y382835D01*
X1079639Y382886D01*
X1079647Y382937D01*
X1079661Y382980D01*
X1079698Y383068D01*
X1079734Y383137D01*
X1079756Y383170D01*
X1079774Y383195D01*
X1079792Y383221D01*
X1079810Y383239D01*
X1079825Y383253D01*
X1079832Y383268D01*
X1079840Y383272D01*
X1079843Y383275D01*
X1079883Y383312D01*
X1079927Y383344D01*
X1079974Y383370D01*
X1080021Y383392D01*
X1080116Y383428D01*
X1080211Y383453D01*
X1080251Y383461D01*
X1080291Y383468D01*
X1080327Y383472D01*
X1080356Y383475D01*
X1080382Y383479D01*
X1080418D01*
X1080484Y383475D01*
D02*
G37*
G36*
X1078475D02*
X1078544Y383468D01*
X1078609Y383453D01*
X1078671Y383435D01*
X1078726Y383410D01*
X1078780Y383388D01*
X1078827Y383359D01*
X1078871Y383333D01*
X1078908Y383308D01*
X1078944Y383279D01*
X1078973Y383257D01*
X1078995Y383235D01*
X1079013Y383213D01*
X1079028Y383199D01*
X1079035Y383191D01*
X1079039Y383188D01*
X1079086Y383122D01*
X1079126Y383046D01*
X1079162Y382966D01*
X1079195Y382882D01*
X1079221Y382795D01*
X1079243Y382707D01*
X1079261Y382616D01*
X1079275Y382533D01*
X1079286Y382449D01*
X1079294Y382372D01*
X1079301Y382303D01*
X1079304Y382245D01*
Y382194D01*
X1079308Y382158D01*
Y382143D01*
Y382132D01*
Y382129D01*
Y382125D01*
X1079304Y382008D01*
X1079297Y381899D01*
X1079286Y381797D01*
X1079268Y381703D01*
X1079250Y381619D01*
X1079232Y381542D01*
X1079210Y381473D01*
X1079184Y381411D01*
X1079162Y381360D01*
X1079141Y381313D01*
X1079122Y381277D01*
X1079101Y381244D01*
X1079086Y381219D01*
X1079075Y381204D01*
X1079068Y381193D01*
X1079064Y381189D01*
X1079017Y381138D01*
X1078966Y381095D01*
X1078915Y381058D01*
X1078864Y381026D01*
X1078809Y380996D01*
X1078758Y380975D01*
X1078707Y380956D01*
X1078656Y380942D01*
X1078613Y380931D01*
X1078569Y380920D01*
X1078533Y380913D01*
X1078500Y380909D01*
X1078471D01*
X1078453Y380906D01*
X1078434D01*
X1078351Y380909D01*
X1078274Y380924D01*
X1078205Y380938D01*
X1078143Y380960D01*
X1078096Y380978D01*
X1078059Y380996D01*
X1078045Y381000D01*
X1078034Y381007D01*
X1078030Y381011D01*
X1078027D01*
X1077965Y381055D01*
X1077907Y381106D01*
X1077859Y381157D01*
X1077819Y381208D01*
X1077787Y381255D01*
X1077765Y381291D01*
X1077757Y381306D01*
X1077750Y381317D01*
X1077746Y381320D01*
Y381324D01*
X1077710Y381400D01*
X1077685Y381481D01*
X1077666Y381553D01*
X1077656Y381623D01*
X1077645Y381681D01*
Y381703D01*
X1077641Y381724D01*
Y381743D01*
Y381754D01*
Y381761D01*
Y381765D01*
X1077645Y381830D01*
X1077652Y381892D01*
X1077663Y381954D01*
X1077674Y382008D01*
X1077692Y382059D01*
X1077710Y382110D01*
X1077728Y382154D01*
X1077750Y382194D01*
X1077772Y382230D01*
X1077790Y382263D01*
X1077808Y382289D01*
X1077826Y382314D01*
X1077837Y382332D01*
X1077848Y382343D01*
X1077856Y382350D01*
X1077859Y382354D01*
X1077899Y382394D01*
X1077943Y382431D01*
X1077990Y382460D01*
X1078034Y382485D01*
X1078078Y382511D01*
X1078121Y382529D01*
X1078205Y382554D01*
X1078242Y382565D01*
X1078278Y382573D01*
X1078307Y382576D01*
X1078336Y382580D01*
X1078358Y382583D01*
X1078387D01*
X1078453Y382580D01*
X1078514Y382569D01*
X1078573Y382558D01*
X1078624Y382543D01*
X1078667Y382525D01*
X1078700Y382514D01*
X1078722Y382503D01*
X1078726Y382500D01*
X1078729D01*
X1078788Y382463D01*
X1078839Y382423D01*
X1078886Y382383D01*
X1078922Y382340D01*
X1078955Y382303D01*
X1078980Y382274D01*
X1078995Y382252D01*
X1078999Y382249D01*
Y382314D01*
X1078995Y382380D01*
X1078991Y382438D01*
X1078984Y382496D01*
X1078980Y382547D01*
X1078973Y382594D01*
X1078966Y382638D01*
X1078955Y382678D01*
X1078948Y382715D01*
X1078940Y382744D01*
X1078933Y382769D01*
X1078930Y382791D01*
X1078922Y382805D01*
X1078918Y382816D01*
X1078915Y382824D01*
Y382827D01*
X1078878Y382900D01*
X1078842Y382966D01*
X1078802Y383017D01*
X1078766Y383060D01*
X1078733Y383097D01*
X1078707Y383122D01*
X1078689Y383137D01*
X1078682Y383140D01*
X1078638Y383170D01*
X1078595Y383188D01*
X1078551Y383202D01*
X1078507Y383213D01*
X1078475Y383221D01*
X1078445Y383224D01*
X1078420D01*
X1078354Y383217D01*
X1078292Y383202D01*
X1078242Y383180D01*
X1078194Y383159D01*
X1078158Y383133D01*
X1078132Y383111D01*
X1078118Y383097D01*
X1078111Y383089D01*
X1078085Y383057D01*
X1078059Y383017D01*
X1078038Y382973D01*
X1078023Y382929D01*
X1078008Y382889D01*
X1077998Y382856D01*
X1077994Y382835D01*
X1077990Y382831D01*
Y382827D01*
X1077681Y382853D01*
X1077703Y382955D01*
X1077736Y383046D01*
X1077772Y383126D01*
X1077812Y383191D01*
X1077852Y383242D01*
X1077867Y383264D01*
X1077885Y383282D01*
X1077896Y383293D01*
X1077907Y383304D01*
X1077910Y383308D01*
X1077914Y383312D01*
X1077950Y383341D01*
X1077990Y383366D01*
X1078070Y383410D01*
X1078150Y383439D01*
X1078227Y383457D01*
X1078296Y383472D01*
X1078325Y383475D01*
X1078351D01*
X1078373Y383479D01*
X1078402D01*
X1078475Y383475D01*
D02*
G37*
G36*
X1083661Y380949D02*
X1083327D01*
Y382067D01*
X1082897D01*
X1082857Y382063D01*
X1082828D01*
X1082802Y382059D01*
X1082784Y382056D01*
X1082770D01*
X1082762Y382052D01*
X1082759D01*
X1082701Y382034D01*
X1082675Y382023D01*
X1082653Y382012D01*
X1082631Y382001D01*
X1082617Y381994D01*
X1082609Y381990D01*
X1082606Y381986D01*
X1082577Y381965D01*
X1082548Y381939D01*
X1082493Y381885D01*
X1082467Y381859D01*
X1082449Y381837D01*
X1082438Y381823D01*
X1082435Y381819D01*
X1082398Y381768D01*
X1082358Y381714D01*
X1082318Y381655D01*
X1082278Y381601D01*
X1082246Y381550D01*
X1082220Y381510D01*
X1082209Y381495D01*
X1082202Y381484D01*
X1082195Y381477D01*
Y381473D01*
X1081863Y380949D01*
X1081448D01*
X1081882Y381633D01*
X1081933Y381706D01*
X1081980Y381772D01*
X1082027Y381826D01*
X1082067Y381877D01*
X1082104Y381914D01*
X1082133Y381943D01*
X1082151Y381961D01*
X1082158Y381968D01*
X1082187Y381990D01*
X1082220Y382016D01*
X1082285Y382056D01*
X1082315Y382070D01*
X1082337Y382085D01*
X1082351Y382092D01*
X1082358Y382096D01*
X1082293Y382107D01*
X1082231Y382118D01*
X1082176Y382136D01*
X1082122Y382150D01*
X1082074Y382169D01*
X1082031Y382190D01*
X1081991Y382209D01*
X1081954Y382227D01*
X1081925Y382249D01*
X1081896Y382267D01*
X1081874Y382281D01*
X1081856Y382296D01*
X1081841Y382307D01*
X1081831Y382318D01*
X1081827Y382321D01*
X1081823Y382325D01*
X1081794Y382362D01*
X1081765Y382398D01*
X1081721Y382474D01*
X1081692Y382551D01*
X1081670Y382624D01*
X1081656Y382685D01*
X1081652Y382711D01*
Y382736D01*
X1081649Y382755D01*
Y382769D01*
Y382776D01*
Y382780D01*
X1081652Y382856D01*
X1081663Y382926D01*
X1081681Y382991D01*
X1081699Y383046D01*
X1081721Y383093D01*
X1081736Y383130D01*
X1081750Y383151D01*
X1081754Y383155D01*
Y383159D01*
X1081798Y383217D01*
X1081841Y383268D01*
X1081889Y383312D01*
X1081933Y383344D01*
X1081973Y383370D01*
X1082005Y383384D01*
X1082027Y383395D01*
X1082031Y383399D01*
X1082034D01*
X1082067Y383410D01*
X1082107Y383421D01*
X1082187Y383439D01*
X1082275Y383450D01*
X1082355Y383461D01*
X1082431Y383464D01*
X1082464D01*
X1082493Y383468D01*
X1083661D01*
Y380949D01*
D02*
G37*
G36*
X1080484Y399180D02*
X1080546Y399176D01*
X1080604Y399165D01*
X1080659Y399154D01*
X1080709Y399140D01*
X1080757Y399125D01*
X1080800Y399107D01*
X1080840Y399089D01*
X1080877Y399070D01*
X1080906Y399052D01*
X1080931Y399038D01*
X1080953Y399023D01*
X1080972Y399012D01*
X1080982Y399001D01*
X1080990Y398998D01*
X1080993Y398994D01*
X1081030Y398958D01*
X1081063Y398918D01*
X1081095Y398874D01*
X1081121Y398830D01*
X1081164Y398743D01*
X1081194Y398656D01*
X1081205Y398615D01*
X1081215Y398575D01*
X1081223Y398543D01*
X1081230Y398514D01*
X1081234Y398488D01*
Y398470D01*
X1081237Y398459D01*
Y398455D01*
X1080921Y398423D01*
X1080913Y398506D01*
X1080899Y398579D01*
X1080877Y398645D01*
X1080851Y398695D01*
X1080830Y398739D01*
X1080808Y398768D01*
X1080793Y398786D01*
X1080786Y398794D01*
X1080731Y398837D01*
X1080673Y398870D01*
X1080611Y398896D01*
X1080557Y398910D01*
X1080506Y398921D01*
X1080462Y398925D01*
X1080447Y398928D01*
X1080425D01*
X1080349Y398925D01*
X1080280Y398910D01*
X1080222Y398888D01*
X1080171Y398867D01*
X1080131Y398841D01*
X1080105Y398823D01*
X1080087Y398808D01*
X1080080Y398801D01*
X1080036Y398750D01*
X1080003Y398699D01*
X1079978Y398648D01*
X1079963Y398597D01*
X1079952Y398557D01*
X1079949Y398521D01*
X1079945Y398499D01*
Y398495D01*
Y398492D01*
X1079952Y398426D01*
X1079967Y398357D01*
X1079992Y398295D01*
X1080018Y398237D01*
X1080047Y398190D01*
X1080072Y398149D01*
X1080080Y398135D01*
X1080087Y398124D01*
X1080094Y398120D01*
Y398117D01*
X1080123Y398077D01*
X1080160Y398037D01*
X1080200Y397993D01*
X1080243Y397949D01*
X1080334Y397862D01*
X1080425Y397775D01*
X1080473Y397735D01*
X1080513Y397698D01*
X1080553Y397665D01*
X1080586Y397636D01*
X1080611Y397614D01*
X1080633Y397596D01*
X1080648Y397585D01*
X1080651Y397582D01*
X1080742Y397505D01*
X1080826Y397432D01*
X1080895Y397367D01*
X1080950Y397312D01*
X1080997Y397265D01*
X1081030Y397232D01*
X1081048Y397210D01*
X1081055Y397207D01*
Y397203D01*
X1081106Y397141D01*
X1081146Y397083D01*
X1081183Y397025D01*
X1081212Y396974D01*
X1081234Y396930D01*
X1081248Y396897D01*
X1081255Y396876D01*
X1081259Y396872D01*
Y396868D01*
X1081274Y396828D01*
X1081281Y396792D01*
X1081288Y396755D01*
X1081292Y396723D01*
X1081295Y396693D01*
Y396672D01*
Y396657D01*
Y396654D01*
X1079625D01*
Y396952D01*
X1080866D01*
X1080822Y397014D01*
X1080800Y397039D01*
X1080782Y397065D01*
X1080764Y397087D01*
X1080750Y397101D01*
X1080739Y397112D01*
X1080735Y397116D01*
X1080717Y397134D01*
X1080695Y397152D01*
X1080644Y397200D01*
X1080586Y397254D01*
X1080524Y397309D01*
X1080466Y397356D01*
X1080440Y397378D01*
X1080418Y397400D01*
X1080400Y397414D01*
X1080385Y397425D01*
X1080378Y397432D01*
X1080375Y397436D01*
X1080316Y397487D01*
X1080258Y397534D01*
X1080207Y397582D01*
X1080160Y397622D01*
X1080116Y397662D01*
X1080080Y397698D01*
X1080043Y397731D01*
X1080014Y397760D01*
X1079985Y397789D01*
X1079963Y397811D01*
X1079945Y397829D01*
X1079927Y397847D01*
X1079909Y397869D01*
X1079901Y397877D01*
X1079850Y397938D01*
X1079807Y397993D01*
X1079770Y398048D01*
X1079741Y398091D01*
X1079719Y398131D01*
X1079705Y398160D01*
X1079698Y398179D01*
X1079694Y398186D01*
X1079672Y398240D01*
X1079657Y398295D01*
X1079643Y398346D01*
X1079636Y398390D01*
X1079632Y398430D01*
X1079628Y398459D01*
Y398477D01*
Y398484D01*
X1079632Y398539D01*
X1079639Y398590D01*
X1079647Y398641D01*
X1079661Y398685D01*
X1079698Y398772D01*
X1079734Y398841D01*
X1079756Y398874D01*
X1079774Y398899D01*
X1079792Y398925D01*
X1079810Y398943D01*
X1079825Y398958D01*
X1079832Y398972D01*
X1079840Y398976D01*
X1079843Y398979D01*
X1079883Y399016D01*
X1079927Y399049D01*
X1079974Y399074D01*
X1080021Y399096D01*
X1080116Y399132D01*
X1080211Y399158D01*
X1080251Y399165D01*
X1080291Y399172D01*
X1080327Y399176D01*
X1080356Y399180D01*
X1080382Y399183D01*
X1080418D01*
X1080484Y399180D01*
D02*
G37*
G36*
X1083661Y396654D02*
X1083327D01*
Y397771D01*
X1082897D01*
X1082857Y397767D01*
X1082828D01*
X1082802Y397764D01*
X1082784Y397760D01*
X1082770D01*
X1082762Y397756D01*
X1082759D01*
X1082701Y397738D01*
X1082675Y397727D01*
X1082653Y397716D01*
X1082631Y397705D01*
X1082617Y397698D01*
X1082609Y397694D01*
X1082606Y397691D01*
X1082577Y397669D01*
X1082548Y397644D01*
X1082493Y397589D01*
X1082467Y397564D01*
X1082449Y397542D01*
X1082438Y397527D01*
X1082435Y397523D01*
X1082398Y397473D01*
X1082358Y397418D01*
X1082318Y397360D01*
X1082278Y397305D01*
X1082246Y397254D01*
X1082220Y397214D01*
X1082209Y397200D01*
X1082202Y397189D01*
X1082195Y397181D01*
Y397178D01*
X1081863Y396654D01*
X1081448D01*
X1081882Y397338D01*
X1081933Y397411D01*
X1081980Y397476D01*
X1082027Y397531D01*
X1082067Y397582D01*
X1082104Y397618D01*
X1082133Y397647D01*
X1082151Y397665D01*
X1082158Y397673D01*
X1082187Y397694D01*
X1082220Y397720D01*
X1082285Y397760D01*
X1082315Y397775D01*
X1082337Y397789D01*
X1082351Y397796D01*
X1082358Y397800D01*
X1082293Y397811D01*
X1082231Y397822D01*
X1082176Y397840D01*
X1082122Y397855D01*
X1082074Y397873D01*
X1082031Y397895D01*
X1081991Y397913D01*
X1081954Y397931D01*
X1081925Y397953D01*
X1081896Y397971D01*
X1081874Y397986D01*
X1081856Y398000D01*
X1081841Y398011D01*
X1081831Y398022D01*
X1081827Y398026D01*
X1081823Y398029D01*
X1081794Y398066D01*
X1081765Y398102D01*
X1081721Y398179D01*
X1081692Y398255D01*
X1081670Y398328D01*
X1081656Y398390D01*
X1081652Y398415D01*
Y398441D01*
X1081649Y398459D01*
Y398474D01*
Y398481D01*
Y398484D01*
X1081652Y398561D01*
X1081663Y398630D01*
X1081681Y398695D01*
X1081699Y398750D01*
X1081721Y398797D01*
X1081736Y398834D01*
X1081750Y398856D01*
X1081754Y398859D01*
Y398863D01*
X1081798Y398921D01*
X1081841Y398972D01*
X1081889Y399016D01*
X1081933Y399049D01*
X1081973Y399074D01*
X1082005Y399089D01*
X1082027Y399100D01*
X1082031Y399103D01*
X1082034D01*
X1082067Y399114D01*
X1082107Y399125D01*
X1082187Y399143D01*
X1082275Y399154D01*
X1082355Y399165D01*
X1082431Y399169D01*
X1082464D01*
X1082493Y399172D01*
X1083661D01*
Y396654D01*
D02*
G37*
G36*
X1079272Y398841D02*
X1078038D01*
X1078125Y398736D01*
X1078209Y398623D01*
X1078282Y398514D01*
X1078351Y398408D01*
X1078380Y398361D01*
X1078405Y398317D01*
X1078431Y398277D01*
X1078449Y398244D01*
X1078464Y398215D01*
X1078475Y398197D01*
X1078482Y398182D01*
X1078485Y398179D01*
X1078558Y398033D01*
X1078624Y397887D01*
X1078678Y397749D01*
X1078700Y397687D01*
X1078722Y397625D01*
X1078744Y397571D01*
X1078758Y397520D01*
X1078773Y397476D01*
X1078784Y397440D01*
X1078795Y397407D01*
X1078802Y397385D01*
X1078806Y397371D01*
Y397367D01*
X1078842Y397218D01*
X1078857Y397145D01*
X1078868Y397079D01*
X1078878Y397018D01*
X1078889Y396956D01*
X1078897Y396905D01*
X1078904Y396854D01*
X1078908Y396810D01*
X1078911Y396770D01*
X1078915Y396734D01*
Y396704D01*
X1078918Y396683D01*
Y396668D01*
Y396657D01*
Y396654D01*
X1078602D01*
X1078591Y396792D01*
X1078573Y396919D01*
X1078555Y397036D01*
X1078544Y397090D01*
X1078533Y397141D01*
X1078525Y397185D01*
X1078514Y397225D01*
X1078507Y397261D01*
X1078500Y397290D01*
X1078493Y397312D01*
X1078489Y397330D01*
X1078485Y397341D01*
Y397345D01*
X1078431Y397513D01*
X1078373Y397669D01*
X1078343Y397745D01*
X1078314Y397818D01*
X1078282Y397884D01*
X1078252Y397949D01*
X1078227Y398008D01*
X1078201Y398059D01*
X1078180Y398102D01*
X1078161Y398142D01*
X1078143Y398175D01*
X1078132Y398197D01*
X1078125Y398211D01*
X1078121Y398215D01*
X1078078Y398291D01*
X1078034Y398368D01*
X1077990Y398437D01*
X1077947Y398503D01*
X1077907Y398561D01*
X1077867Y398619D01*
X1077826Y398670D01*
X1077794Y398714D01*
X1077761Y398757D01*
X1077732Y398794D01*
X1077703Y398823D01*
X1077681Y398848D01*
X1077666Y398870D01*
X1077652Y398885D01*
X1077645Y398892D01*
X1077641Y398896D01*
Y399140D01*
X1079272D01*
Y398841D01*
D02*
G37*
G36*
X1078609Y428747D02*
X1078707Y428729D01*
X1078791Y428700D01*
X1078864Y428671D01*
X1078897Y428653D01*
X1078922Y428638D01*
X1078948Y428623D01*
X1078966Y428609D01*
X1078980Y428598D01*
X1078991Y428591D01*
X1078999Y428587D01*
X1079002Y428583D01*
X1079071Y428514D01*
X1079126Y428438D01*
X1079170Y428358D01*
X1079206Y428278D01*
X1079228Y428208D01*
X1079239Y428179D01*
X1079246Y428154D01*
X1079250Y428132D01*
X1079253Y428118D01*
X1079257Y428107D01*
Y428103D01*
X1078948Y428048D01*
X1078933Y428128D01*
X1078911Y428198D01*
X1078886Y428256D01*
X1078860Y428303D01*
X1078835Y428340D01*
X1078813Y428365D01*
X1078798Y428383D01*
X1078795Y428387D01*
X1078747Y428423D01*
X1078697Y428452D01*
X1078649Y428471D01*
X1078602Y428485D01*
X1078558Y428492D01*
X1078525Y428500D01*
X1078496D01*
X1078431Y428496D01*
X1078373Y428481D01*
X1078322Y428463D01*
X1078278Y428445D01*
X1078245Y428423D01*
X1078220Y428405D01*
X1078201Y428391D01*
X1078198Y428387D01*
X1078158Y428343D01*
X1078129Y428296D01*
X1078111Y428249D01*
X1078096Y428205D01*
X1078089Y428165D01*
X1078081Y428136D01*
Y428114D01*
Y428110D01*
Y428107D01*
Y428067D01*
X1078089Y428030D01*
X1078107Y427968D01*
X1078132Y427914D01*
X1078161Y427866D01*
X1078191Y427834D01*
X1078216Y427808D01*
X1078234Y427794D01*
X1078238Y427790D01*
X1078242D01*
X1078303Y427757D01*
X1078362Y427732D01*
X1078424Y427713D01*
X1078478Y427703D01*
X1078525Y427695D01*
X1078566Y427688D01*
X1078613D01*
X1078627Y427692D01*
X1078646D01*
X1078682Y427419D01*
X1078635Y427430D01*
X1078591Y427437D01*
X1078555Y427444D01*
X1078522Y427448D01*
X1078496Y427451D01*
X1078464D01*
X1078387Y427444D01*
X1078318Y427430D01*
X1078256Y427408D01*
X1078205Y427382D01*
X1078165Y427357D01*
X1078136Y427335D01*
X1078118Y427320D01*
X1078111Y427313D01*
X1078063Y427258D01*
X1078027Y427200D01*
X1078001Y427142D01*
X1077987Y427084D01*
X1077976Y427036D01*
X1077972Y426996D01*
X1077969Y426982D01*
Y426971D01*
Y426964D01*
Y426960D01*
X1077976Y426880D01*
X1077994Y426807D01*
X1078016Y426745D01*
X1078045Y426691D01*
X1078074Y426647D01*
X1078096Y426614D01*
X1078114Y426592D01*
X1078121Y426585D01*
X1078180Y426534D01*
X1078242Y426498D01*
X1078303Y426472D01*
X1078362Y426454D01*
X1078413Y426443D01*
X1078453Y426440D01*
X1078467Y426436D01*
X1078489D01*
X1078555Y426440D01*
X1078616Y426454D01*
X1078671Y426472D01*
X1078715Y426494D01*
X1078751Y426512D01*
X1078780Y426531D01*
X1078795Y426545D01*
X1078802Y426549D01*
X1078846Y426600D01*
X1078882Y426658D01*
X1078915Y426720D01*
X1078940Y426785D01*
X1078959Y426840D01*
X1078966Y426865D01*
X1078969Y426887D01*
X1078973Y426905D01*
X1078977Y426920D01*
X1078980Y426927D01*
Y426931D01*
X1079290Y426891D01*
X1079283Y426833D01*
X1079272Y426778D01*
X1079239Y426676D01*
X1079199Y426589D01*
X1079177Y426552D01*
X1079155Y426516D01*
X1079133Y426483D01*
X1079111Y426458D01*
X1079093Y426432D01*
X1079075Y426414D01*
X1079064Y426399D01*
X1079053Y426389D01*
X1079046Y426381D01*
X1079042Y426378D01*
X1078999Y426345D01*
X1078955Y426312D01*
X1078911Y426287D01*
X1078864Y426265D01*
X1078773Y426228D01*
X1078686Y426206D01*
X1078646Y426199D01*
X1078609Y426192D01*
X1078576Y426188D01*
X1078547Y426185D01*
X1078525Y426181D01*
X1078493D01*
X1078424Y426185D01*
X1078362Y426192D01*
X1078300Y426203D01*
X1078242Y426217D01*
X1078187Y426236D01*
X1078140Y426254D01*
X1078092Y426276D01*
X1078052Y426298D01*
X1078012Y426316D01*
X1077979Y426338D01*
X1077950Y426356D01*
X1077929Y426374D01*
X1077910Y426389D01*
X1077896Y426399D01*
X1077888Y426407D01*
X1077885Y426410D01*
X1077841Y426454D01*
X1077805Y426501D01*
X1077772Y426549D01*
X1077743Y426596D01*
X1077721Y426640D01*
X1077699Y426687D01*
X1077670Y426774D01*
X1077663Y426814D01*
X1077656Y426851D01*
X1077648Y426884D01*
X1077645Y426913D01*
X1077641Y426934D01*
Y426953D01*
Y426964D01*
Y426967D01*
X1077645Y427055D01*
X1077659Y427135D01*
X1077681Y427204D01*
X1077703Y427262D01*
X1077725Y427309D01*
X1077746Y427346D01*
X1077761Y427368D01*
X1077765Y427375D01*
X1077816Y427430D01*
X1077870Y427477D01*
X1077929Y427513D01*
X1077987Y427542D01*
X1078038Y427564D01*
X1078078Y427579D01*
X1078092Y427582D01*
X1078103Y427586D01*
X1078111Y427590D01*
X1078114D01*
X1078052Y427623D01*
X1078001Y427655D01*
X1077958Y427692D01*
X1077921Y427724D01*
X1077892Y427753D01*
X1077870Y427779D01*
X1077859Y427794D01*
X1077856Y427801D01*
X1077826Y427852D01*
X1077805Y427903D01*
X1077787Y427954D01*
X1077776Y428001D01*
X1077768Y428041D01*
X1077765Y428070D01*
Y428092D01*
Y428099D01*
X1077768Y428161D01*
X1077779Y428223D01*
X1077794Y428278D01*
X1077812Y428325D01*
X1077830Y428365D01*
X1077845Y428398D01*
X1077856Y428416D01*
X1077859Y428423D01*
X1077896Y428478D01*
X1077939Y428525D01*
X1077983Y428565D01*
X1078027Y428602D01*
X1078063Y428627D01*
X1078096Y428649D01*
X1078118Y428660D01*
X1078121Y428663D01*
X1078125D01*
X1078191Y428693D01*
X1078256Y428715D01*
X1078322Y428733D01*
X1078380Y428744D01*
X1078427Y428751D01*
X1078467Y428755D01*
X1078558D01*
X1078609Y428747D01*
D02*
G37*
G36*
X1080484Y428751D02*
X1080546Y428747D01*
X1080604Y428736D01*
X1080659Y428725D01*
X1080709Y428711D01*
X1080757Y428696D01*
X1080800Y428678D01*
X1080840Y428660D01*
X1080877Y428642D01*
X1080906Y428623D01*
X1080931Y428609D01*
X1080953Y428594D01*
X1080972Y428583D01*
X1080982Y428573D01*
X1080990Y428569D01*
X1080993Y428565D01*
X1081030Y428529D01*
X1081063Y428489D01*
X1081095Y428445D01*
X1081121Y428401D01*
X1081164Y428314D01*
X1081194Y428227D01*
X1081205Y428187D01*
X1081215Y428147D01*
X1081223Y428114D01*
X1081230Y428085D01*
X1081234Y428059D01*
Y428041D01*
X1081237Y428030D01*
Y428026D01*
X1080921Y427994D01*
X1080913Y428078D01*
X1080899Y428150D01*
X1080877Y428216D01*
X1080851Y428267D01*
X1080830Y428310D01*
X1080808Y428340D01*
X1080793Y428358D01*
X1080786Y428365D01*
X1080731Y428409D01*
X1080673Y428441D01*
X1080611Y428467D01*
X1080557Y428481D01*
X1080506Y428492D01*
X1080462Y428496D01*
X1080447Y428500D01*
X1080425D01*
X1080349Y428496D01*
X1080280Y428481D01*
X1080222Y428460D01*
X1080171Y428438D01*
X1080131Y428412D01*
X1080105Y428394D01*
X1080087Y428380D01*
X1080080Y428372D01*
X1080036Y428321D01*
X1080003Y428270D01*
X1079978Y428219D01*
X1079963Y428168D01*
X1079952Y428128D01*
X1079949Y428092D01*
X1079945Y428070D01*
Y428067D01*
Y428063D01*
X1079952Y427997D01*
X1079967Y427928D01*
X1079992Y427866D01*
X1080018Y427808D01*
X1080047Y427761D01*
X1080072Y427721D01*
X1080080Y427706D01*
X1080087Y427695D01*
X1080094Y427692D01*
Y427688D01*
X1080123Y427648D01*
X1080160Y427608D01*
X1080200Y427564D01*
X1080243Y427521D01*
X1080334Y427433D01*
X1080425Y427346D01*
X1080473Y427306D01*
X1080513Y427269D01*
X1080553Y427237D01*
X1080586Y427208D01*
X1080611Y427186D01*
X1080633Y427168D01*
X1080648Y427157D01*
X1080651Y427153D01*
X1080742Y427076D01*
X1080826Y427004D01*
X1080895Y426938D01*
X1080950Y426884D01*
X1080997Y426836D01*
X1081030Y426803D01*
X1081048Y426782D01*
X1081055Y426778D01*
Y426774D01*
X1081106Y426713D01*
X1081146Y426654D01*
X1081183Y426596D01*
X1081212Y426545D01*
X1081234Y426501D01*
X1081248Y426469D01*
X1081255Y426447D01*
X1081259Y426443D01*
Y426440D01*
X1081274Y426399D01*
X1081281Y426363D01*
X1081288Y426327D01*
X1081292Y426294D01*
X1081295Y426265D01*
Y426243D01*
Y426228D01*
Y426225D01*
X1079625D01*
Y426523D01*
X1080866D01*
X1080822Y426585D01*
X1080800Y426611D01*
X1080782Y426636D01*
X1080764Y426658D01*
X1080750Y426672D01*
X1080739Y426683D01*
X1080735Y426687D01*
X1080717Y426705D01*
X1080695Y426723D01*
X1080644Y426771D01*
X1080586Y426825D01*
X1080524Y426880D01*
X1080466Y426927D01*
X1080440Y426949D01*
X1080418Y426971D01*
X1080400Y426986D01*
X1080385Y426996D01*
X1080378Y427004D01*
X1080375Y427007D01*
X1080316Y427058D01*
X1080258Y427106D01*
X1080207Y427153D01*
X1080160Y427193D01*
X1080116Y427233D01*
X1080080Y427269D01*
X1080043Y427302D01*
X1080014Y427331D01*
X1079985Y427360D01*
X1079963Y427382D01*
X1079945Y427400D01*
X1079927Y427419D01*
X1079909Y427441D01*
X1079901Y427448D01*
X1079850Y427510D01*
X1079807Y427564D01*
X1079770Y427619D01*
X1079741Y427663D01*
X1079719Y427703D01*
X1079705Y427732D01*
X1079698Y427750D01*
X1079694Y427757D01*
X1079672Y427812D01*
X1079657Y427866D01*
X1079643Y427917D01*
X1079636Y427961D01*
X1079632Y428001D01*
X1079628Y428030D01*
Y428048D01*
Y428056D01*
X1079632Y428110D01*
X1079639Y428161D01*
X1079647Y428212D01*
X1079661Y428256D01*
X1079698Y428343D01*
X1079734Y428412D01*
X1079756Y428445D01*
X1079774Y428471D01*
X1079792Y428496D01*
X1079810Y428514D01*
X1079825Y428529D01*
X1079832Y428543D01*
X1079840Y428547D01*
X1079843Y428551D01*
X1079883Y428587D01*
X1079927Y428620D01*
X1079974Y428645D01*
X1080021Y428667D01*
X1080116Y428704D01*
X1080211Y428729D01*
X1080251Y428736D01*
X1080291Y428744D01*
X1080327Y428747D01*
X1080356Y428751D01*
X1080382Y428755D01*
X1080418D01*
X1080484Y428751D01*
D02*
G37*
G36*
X1083661Y426225D02*
X1083327D01*
Y427342D01*
X1082897D01*
X1082857Y427339D01*
X1082828D01*
X1082802Y427335D01*
X1082784Y427331D01*
X1082770D01*
X1082762Y427328D01*
X1082759D01*
X1082701Y427309D01*
X1082675Y427298D01*
X1082653Y427288D01*
X1082631Y427277D01*
X1082617Y427269D01*
X1082609Y427266D01*
X1082606Y427262D01*
X1082577Y427240D01*
X1082548Y427215D01*
X1082493Y427160D01*
X1082467Y427135D01*
X1082449Y427113D01*
X1082438Y427098D01*
X1082435Y427095D01*
X1082398Y427044D01*
X1082358Y426989D01*
X1082318Y426931D01*
X1082278Y426876D01*
X1082246Y426825D01*
X1082220Y426785D01*
X1082209Y426771D01*
X1082202Y426760D01*
X1082195Y426753D01*
Y426749D01*
X1081863Y426225D01*
X1081448D01*
X1081882Y426909D01*
X1081933Y426982D01*
X1081980Y427047D01*
X1082027Y427102D01*
X1082067Y427153D01*
X1082104Y427189D01*
X1082133Y427218D01*
X1082151Y427237D01*
X1082158Y427244D01*
X1082187Y427266D01*
X1082220Y427291D01*
X1082285Y427331D01*
X1082315Y427346D01*
X1082337Y427360D01*
X1082351Y427368D01*
X1082358Y427371D01*
X1082293Y427382D01*
X1082231Y427393D01*
X1082176Y427411D01*
X1082122Y427426D01*
X1082074Y427444D01*
X1082031Y427466D01*
X1081991Y427484D01*
X1081954Y427502D01*
X1081925Y427524D01*
X1081896Y427542D01*
X1081874Y427557D01*
X1081856Y427571D01*
X1081841Y427582D01*
X1081831Y427593D01*
X1081827Y427597D01*
X1081823Y427601D01*
X1081794Y427637D01*
X1081765Y427673D01*
X1081721Y427750D01*
X1081692Y427826D01*
X1081670Y427899D01*
X1081656Y427961D01*
X1081652Y427986D01*
Y428012D01*
X1081649Y428030D01*
Y428045D01*
Y428052D01*
Y428056D01*
X1081652Y428132D01*
X1081663Y428201D01*
X1081681Y428267D01*
X1081699Y428321D01*
X1081721Y428369D01*
X1081736Y428405D01*
X1081750Y428427D01*
X1081754Y428431D01*
Y428434D01*
X1081798Y428492D01*
X1081841Y428543D01*
X1081889Y428587D01*
X1081933Y428620D01*
X1081973Y428645D01*
X1082005Y428660D01*
X1082027Y428671D01*
X1082031Y428674D01*
X1082034D01*
X1082067Y428685D01*
X1082107Y428696D01*
X1082187Y428715D01*
X1082275Y428725D01*
X1082355Y428736D01*
X1082431Y428740D01*
X1082464D01*
X1082493Y428744D01*
X1083661D01*
Y426225D01*
D02*
G37*
G36*
X1080484Y413987D02*
X1080546Y413983D01*
X1080604Y413973D01*
X1080659Y413962D01*
X1080709Y413947D01*
X1080757Y413933D01*
X1080800Y413914D01*
X1080840Y413896D01*
X1080877Y413878D01*
X1080906Y413860D01*
X1080931Y413845D01*
X1080953Y413831D01*
X1080972Y413820D01*
X1080982Y413809D01*
X1080990Y413805D01*
X1080993Y413801D01*
X1081030Y413765D01*
X1081063Y413725D01*
X1081095Y413681D01*
X1081121Y413638D01*
X1081164Y413550D01*
X1081194Y413463D01*
X1081205Y413423D01*
X1081215Y413383D01*
X1081223Y413350D01*
X1081230Y413321D01*
X1081234Y413296D01*
Y413277D01*
X1081237Y413266D01*
Y413263D01*
X1080921Y413230D01*
X1080913Y413314D01*
X1080899Y413386D01*
X1080877Y413452D01*
X1080851Y413503D01*
X1080830Y413547D01*
X1080808Y413576D01*
X1080793Y413594D01*
X1080786Y413601D01*
X1080731Y413645D01*
X1080673Y413678D01*
X1080611Y413703D01*
X1080557Y413718D01*
X1080506Y413729D01*
X1080462Y413732D01*
X1080447Y413736D01*
X1080425D01*
X1080349Y413732D01*
X1080280Y413718D01*
X1080222Y413696D01*
X1080171Y413674D01*
X1080131Y413649D01*
X1080105Y413630D01*
X1080087Y413616D01*
X1080080Y413609D01*
X1080036Y413558D01*
X1080003Y413507D01*
X1079978Y413456D01*
X1079963Y413405D01*
X1079952Y413365D01*
X1079949Y413328D01*
X1079945Y413306D01*
Y413303D01*
Y413299D01*
X1079952Y413234D01*
X1079967Y413165D01*
X1079992Y413103D01*
X1080018Y413044D01*
X1080047Y412997D01*
X1080072Y412957D01*
X1080080Y412942D01*
X1080087Y412931D01*
X1080094Y412928D01*
Y412924D01*
X1080123Y412884D01*
X1080160Y412844D01*
X1080200Y412801D01*
X1080243Y412757D01*
X1080334Y412669D01*
X1080425Y412582D01*
X1080473Y412542D01*
X1080513Y412506D01*
X1080553Y412473D01*
X1080586Y412444D01*
X1080611Y412422D01*
X1080633Y412404D01*
X1080648Y412393D01*
X1080651Y412389D01*
X1080742Y412313D01*
X1080826Y412240D01*
X1080895Y412174D01*
X1080950Y412120D01*
X1080997Y412073D01*
X1081030Y412040D01*
X1081048Y412018D01*
X1081055Y412014D01*
Y412011D01*
X1081106Y411949D01*
X1081146Y411891D01*
X1081183Y411832D01*
X1081212Y411781D01*
X1081234Y411738D01*
X1081248Y411705D01*
X1081255Y411683D01*
X1081259Y411679D01*
Y411676D01*
X1081274Y411636D01*
X1081281Y411599D01*
X1081288Y411563D01*
X1081292Y411530D01*
X1081295Y411501D01*
Y411479D01*
Y411465D01*
Y411461D01*
X1079625D01*
Y411759D01*
X1080866D01*
X1080822Y411821D01*
X1080800Y411847D01*
X1080782Y411872D01*
X1080764Y411894D01*
X1080750Y411909D01*
X1080739Y411920D01*
X1080735Y411923D01*
X1080717Y411941D01*
X1080695Y411960D01*
X1080644Y412007D01*
X1080586Y412062D01*
X1080524Y412116D01*
X1080466Y412163D01*
X1080440Y412185D01*
X1080418Y412207D01*
X1080400Y412222D01*
X1080385Y412233D01*
X1080378Y412240D01*
X1080375Y412244D01*
X1080316Y412294D01*
X1080258Y412342D01*
X1080207Y412389D01*
X1080160Y412429D01*
X1080116Y412469D01*
X1080080Y412506D01*
X1080043Y412538D01*
X1080014Y412568D01*
X1079985Y412597D01*
X1079963Y412618D01*
X1079945Y412637D01*
X1079927Y412655D01*
X1079909Y412677D01*
X1079901Y412684D01*
X1079850Y412746D01*
X1079807Y412801D01*
X1079770Y412855D01*
X1079741Y412899D01*
X1079719Y412939D01*
X1079705Y412968D01*
X1079698Y412986D01*
X1079694Y412993D01*
X1079672Y413048D01*
X1079657Y413103D01*
X1079643Y413154D01*
X1079636Y413197D01*
X1079632Y413237D01*
X1079628Y413266D01*
Y413285D01*
Y413292D01*
X1079632Y413346D01*
X1079639Y413397D01*
X1079647Y413448D01*
X1079661Y413492D01*
X1079698Y413579D01*
X1079734Y413649D01*
X1079756Y413681D01*
X1079774Y413707D01*
X1079792Y413732D01*
X1079810Y413751D01*
X1079825Y413765D01*
X1079832Y413780D01*
X1079840Y413783D01*
X1079843Y413787D01*
X1079883Y413823D01*
X1079927Y413856D01*
X1079974Y413881D01*
X1080021Y413903D01*
X1080116Y413940D01*
X1080211Y413965D01*
X1080251Y413973D01*
X1080291Y413980D01*
X1080327Y413983D01*
X1080356Y413987D01*
X1080382Y413991D01*
X1080418D01*
X1080484Y413987D01*
D02*
G37*
G36*
X1083661Y411461D02*
X1083327D01*
Y412578D01*
X1082897D01*
X1082857Y412575D01*
X1082828D01*
X1082802Y412571D01*
X1082784Y412568D01*
X1082770D01*
X1082762Y412564D01*
X1082759D01*
X1082701Y412546D01*
X1082675Y412535D01*
X1082653Y412524D01*
X1082631Y412513D01*
X1082617Y412506D01*
X1082609Y412502D01*
X1082606Y412498D01*
X1082577Y412476D01*
X1082548Y412451D01*
X1082493Y412396D01*
X1082467Y412371D01*
X1082449Y412349D01*
X1082438Y412334D01*
X1082435Y412331D01*
X1082398Y412280D01*
X1082358Y412225D01*
X1082318Y412167D01*
X1082278Y412113D01*
X1082246Y412062D01*
X1082220Y412021D01*
X1082209Y412007D01*
X1082202Y411996D01*
X1082195Y411989D01*
Y411985D01*
X1081863Y411461D01*
X1081448D01*
X1081882Y412145D01*
X1081933Y412218D01*
X1081980Y412284D01*
X1082027Y412338D01*
X1082067Y412389D01*
X1082104Y412426D01*
X1082133Y412455D01*
X1082151Y412473D01*
X1082158Y412480D01*
X1082187Y412502D01*
X1082220Y412528D01*
X1082285Y412568D01*
X1082315Y412582D01*
X1082337Y412597D01*
X1082351Y412604D01*
X1082358Y412607D01*
X1082293Y412618D01*
X1082231Y412629D01*
X1082176Y412648D01*
X1082122Y412662D01*
X1082074Y412680D01*
X1082031Y412702D01*
X1081991Y412720D01*
X1081954Y412739D01*
X1081925Y412760D01*
X1081896Y412779D01*
X1081874Y412793D01*
X1081856Y412808D01*
X1081841Y412819D01*
X1081831Y412830D01*
X1081827Y412833D01*
X1081823Y412837D01*
X1081794Y412873D01*
X1081765Y412910D01*
X1081721Y412986D01*
X1081692Y413062D01*
X1081670Y413135D01*
X1081656Y413197D01*
X1081652Y413223D01*
Y413248D01*
X1081649Y413266D01*
Y413281D01*
Y413288D01*
Y413292D01*
X1081652Y413368D01*
X1081663Y413438D01*
X1081681Y413503D01*
X1081699Y413558D01*
X1081721Y413605D01*
X1081736Y413641D01*
X1081750Y413663D01*
X1081754Y413667D01*
Y413670D01*
X1081798Y413729D01*
X1081841Y413780D01*
X1081889Y413823D01*
X1081933Y413856D01*
X1081973Y413881D01*
X1082005Y413896D01*
X1082027Y413907D01*
X1082031Y413911D01*
X1082034D01*
X1082067Y413922D01*
X1082107Y413933D01*
X1082187Y413951D01*
X1082275Y413962D01*
X1082355Y413973D01*
X1082431Y413976D01*
X1082464D01*
X1082493Y413980D01*
X1083661D01*
Y411461D01*
D02*
G37*
G36*
X1078569Y413983D02*
X1078660Y413969D01*
X1078736Y413943D01*
X1078802Y413918D01*
X1078857Y413889D01*
X1078878Y413878D01*
X1078897Y413863D01*
X1078911Y413856D01*
X1078922Y413849D01*
X1078926Y413841D01*
X1078930D01*
X1078995Y413783D01*
X1079050Y413714D01*
X1079097Y413645D01*
X1079133Y413579D01*
X1079162Y413518D01*
X1079177Y413492D01*
X1079184Y413467D01*
X1079191Y413448D01*
X1079199Y413434D01*
X1079202Y413426D01*
Y413423D01*
X1079217Y413368D01*
X1079232Y413314D01*
X1079253Y413194D01*
X1079272Y413073D01*
X1079283Y412961D01*
X1079286Y412906D01*
X1079290Y412859D01*
Y412815D01*
X1079294Y412775D01*
Y412746D01*
Y412720D01*
Y412706D01*
Y412702D01*
X1079290Y412575D01*
X1079283Y412455D01*
X1079272Y412346D01*
X1079253Y412244D01*
X1079235Y412149D01*
X1079213Y412065D01*
X1079191Y411989D01*
X1079170Y411923D01*
X1079148Y411865D01*
X1079122Y411814D01*
X1079104Y411770D01*
X1079086Y411738D01*
X1079068Y411708D01*
X1079057Y411690D01*
X1079050Y411679D01*
X1079046Y411676D01*
X1079006Y411632D01*
X1078962Y411592D01*
X1078915Y411556D01*
X1078868Y411526D01*
X1078820Y411501D01*
X1078773Y411479D01*
X1078726Y411465D01*
X1078682Y411450D01*
X1078638Y411439D01*
X1078598Y411432D01*
X1078562Y411424D01*
X1078533Y411421D01*
X1078507Y411417D01*
X1078471D01*
X1078373Y411424D01*
X1078282Y411439D01*
X1078205Y411465D01*
X1078140Y411490D01*
X1078085Y411516D01*
X1078067Y411530D01*
X1078049Y411541D01*
X1078034Y411548D01*
X1078023Y411556D01*
X1078020Y411563D01*
X1078016D01*
X1077950Y411625D01*
X1077896Y411690D01*
X1077848Y411763D01*
X1077812Y411829D01*
X1077783Y411891D01*
X1077768Y411916D01*
X1077761Y411941D01*
X1077754Y411960D01*
X1077746Y411974D01*
X1077743Y411981D01*
Y411985D01*
X1077725Y412040D01*
X1077710Y412094D01*
X1077688Y412211D01*
X1077670Y412331D01*
X1077659Y412447D01*
X1077656Y412498D01*
X1077652Y412546D01*
Y412589D01*
X1077648Y412629D01*
Y412659D01*
Y412684D01*
Y412699D01*
Y412702D01*
Y412771D01*
X1077652Y412837D01*
Y412895D01*
X1077656Y412953D01*
X1077663Y413004D01*
X1077666Y413055D01*
X1077670Y413099D01*
X1077677Y413139D01*
X1077681Y413175D01*
X1077688Y413208D01*
X1077692Y413234D01*
X1077695Y413256D01*
X1077699Y413274D01*
X1077703Y413285D01*
X1077706Y413292D01*
Y413296D01*
X1077728Y413376D01*
X1077754Y413448D01*
X1077783Y413510D01*
X1077805Y413565D01*
X1077830Y413612D01*
X1077845Y413645D01*
X1077859Y413663D01*
X1077863Y413670D01*
X1077903Y413725D01*
X1077943Y413772D01*
X1077987Y413812D01*
X1078027Y413849D01*
X1078063Y413874D01*
X1078092Y413893D01*
X1078111Y413903D01*
X1078114Y413907D01*
X1078118D01*
X1078176Y413936D01*
X1078238Y413954D01*
X1078296Y413969D01*
X1078351Y413980D01*
X1078398Y413987D01*
X1078438Y413991D01*
X1078471D01*
X1078569Y413983D01*
D02*
G37*
G36*
X1029322Y556489D02*
X1029449Y556474D01*
X1029562Y556456D01*
X1029616Y556441D01*
X1029664Y556431D01*
X1029707Y556420D01*
X1029747Y556405D01*
X1029784Y556394D01*
X1029813Y556387D01*
X1029835Y556376D01*
X1029853Y556372D01*
X1029864Y556365D01*
X1029868D01*
X1029977Y556311D01*
X1030075Y556249D01*
X1030159Y556183D01*
X1030192Y556150D01*
X1030224Y556121D01*
X1030253Y556092D01*
X1030279Y556063D01*
X1030301Y556038D01*
X1030315Y556016D01*
X1030330Y556001D01*
X1030341Y555986D01*
X1030344Y555979D01*
X1030348Y555976D01*
X1030377Y555925D01*
X1030403Y555874D01*
X1030443Y555764D01*
X1030472Y555655D01*
X1030490Y555550D01*
X1030497Y555499D01*
X1030505Y555455D01*
X1030508Y555415D01*
Y555382D01*
X1030512Y555353D01*
Y555313D01*
X1030508Y555240D01*
X1030501Y555171D01*
X1030494Y555106D01*
X1030479Y555044D01*
X1030461Y554986D01*
X1030443Y554931D01*
X1030424Y554880D01*
X1030403Y554833D01*
X1030384Y554793D01*
X1030366Y554753D01*
X1030348Y554723D01*
X1030330Y554694D01*
X1030315Y554676D01*
X1030308Y554658D01*
X1030301Y554651D01*
X1030297Y554647D01*
X1030253Y554596D01*
X1030210Y554552D01*
X1030159Y554512D01*
X1030108Y554472D01*
X1030006Y554407D01*
X1029904Y554356D01*
X1029857Y554334D01*
X1029813Y554316D01*
X1029773Y554301D01*
X1029740Y554290D01*
X1029711Y554279D01*
X1029689Y554272D01*
X1029675Y554268D01*
X1029671D01*
X1029587Y554603D01*
X1029646Y554618D01*
X1029700Y554636D01*
X1029751Y554654D01*
X1029798Y554672D01*
X1029842Y554694D01*
X1029879Y554716D01*
X1029915Y554742D01*
X1029948Y554764D01*
X1029977Y554782D01*
X1029999Y554804D01*
X1030020Y554822D01*
X1030039Y554836D01*
X1030050Y554851D01*
X1030060Y554862D01*
X1030064Y554865D01*
X1030068Y554869D01*
X1030097Y554905D01*
X1030119Y554946D01*
X1030159Y555026D01*
X1030188Y555102D01*
X1030206Y555178D01*
X1030221Y555244D01*
X1030224Y555269D01*
Y555295D01*
X1030228Y555317D01*
Y555342D01*
X1030224Y555426D01*
X1030210Y555506D01*
X1030192Y555579D01*
X1030170Y555644D01*
X1030148Y555695D01*
X1030137Y555717D01*
X1030130Y555735D01*
X1030122Y555750D01*
X1030115Y555761D01*
X1030111Y555768D01*
Y555772D01*
X1030060Y555841D01*
X1030006Y555899D01*
X1029944Y555950D01*
X1029886Y555990D01*
X1029835Y556023D01*
X1029791Y556045D01*
X1029773Y556052D01*
X1029762Y556059D01*
X1029755Y556063D01*
X1029751D01*
X1029657Y556092D01*
X1029562Y556114D01*
X1029467Y556132D01*
X1029380Y556143D01*
X1029340Y556147D01*
X1029303Y556150D01*
X1029271D01*
X1029245Y556154D01*
X1029223D01*
X1029205D01*
X1029194D01*
X1029191D01*
X1029096Y556150D01*
X1029008Y556143D01*
X1028928Y556129D01*
X1028856Y556114D01*
X1028794Y556103D01*
X1028768Y556096D01*
X1028747Y556088D01*
X1028728Y556085D01*
X1028717Y556081D01*
X1028710Y556077D01*
X1028706D01*
X1028623Y556041D01*
X1028546Y556001D01*
X1028484Y555957D01*
X1028430Y555910D01*
X1028386Y555870D01*
X1028357Y555837D01*
X1028339Y555812D01*
X1028331Y555808D01*
Y555804D01*
X1028284Y555728D01*
X1028248Y555644D01*
X1028222Y555564D01*
X1028208Y555488D01*
X1028197Y555419D01*
X1028193Y555390D01*
Y555364D01*
X1028189Y555346D01*
Y555317D01*
X1028193Y555226D01*
X1028208Y555142D01*
X1028230Y555073D01*
X1028251Y555011D01*
X1028277Y554964D01*
X1028295Y554927D01*
X1028310Y554905D01*
X1028317Y554898D01*
X1028372Y554840D01*
X1028433Y554785D01*
X1028499Y554742D01*
X1028564Y554705D01*
X1028623Y554676D01*
X1028652Y554665D01*
X1028674Y554658D01*
X1028692Y554651D01*
X1028706Y554643D01*
X1028714Y554640D01*
X1028717D01*
X1028641Y554312D01*
X1028575Y554334D01*
X1028517Y554356D01*
X1028463Y554385D01*
X1028408Y554410D01*
X1028361Y554439D01*
X1028317Y554472D01*
X1028273Y554501D01*
X1028237Y554530D01*
X1028208Y554560D01*
X1028179Y554585D01*
X1028153Y554611D01*
X1028135Y554629D01*
X1028117Y554647D01*
X1028106Y554662D01*
X1028102Y554669D01*
X1028098Y554672D01*
X1028066Y554723D01*
X1028033Y554774D01*
X1028008Y554825D01*
X1027986Y554880D01*
X1027953Y554989D01*
X1027931Y555087D01*
X1027920Y555135D01*
X1027917Y555175D01*
X1027913Y555215D01*
X1027909Y555248D01*
X1027906Y555273D01*
Y555309D01*
X1027913Y555430D01*
X1027931Y555546D01*
X1027953Y555648D01*
X1027967Y555695D01*
X1027982Y555739D01*
X1027997Y555779D01*
X1028011Y555815D01*
X1028022Y555845D01*
X1028033Y555874D01*
X1028044Y555892D01*
X1028051Y555906D01*
X1028055Y555917D01*
X1028059Y555921D01*
X1028120Y556019D01*
X1028193Y556103D01*
X1028266Y556176D01*
X1028339Y556238D01*
X1028404Y556285D01*
X1028433Y556303D01*
X1028459Y556318D01*
X1028477Y556332D01*
X1028492Y556340D01*
X1028503Y556343D01*
X1028506Y556347D01*
X1028619Y556398D01*
X1028736Y556434D01*
X1028852Y556460D01*
X1028958Y556478D01*
X1029005Y556485D01*
X1029052Y556489D01*
X1029089Y556493D01*
X1029125D01*
X1029150Y556496D01*
X1029172D01*
X1029187D01*
X1029191D01*
X1029322Y556489D01*
D02*
G37*
G36*
X1029409Y553995D02*
X1029518Y553988D01*
X1029620Y553977D01*
X1029715Y553959D01*
X1029798Y553941D01*
X1029875Y553923D01*
X1029944Y553901D01*
X1030006Y553875D01*
X1030057Y553854D01*
X1030104Y553832D01*
X1030141Y553813D01*
X1030173Y553792D01*
X1030199Y553777D01*
X1030213Y553766D01*
X1030224Y553759D01*
X1030228Y553755D01*
X1030279Y553708D01*
X1030323Y553657D01*
X1030359Y553606D01*
X1030392Y553555D01*
X1030421Y553500D01*
X1030443Y553449D01*
X1030461Y553399D01*
X1030475Y553347D01*
X1030486Y553304D01*
X1030497Y553260D01*
X1030505Y553224D01*
X1030508Y553191D01*
Y553162D01*
X1030512Y553144D01*
Y553125D01*
X1030508Y553042D01*
X1030494Y552965D01*
X1030479Y552896D01*
X1030457Y552834D01*
X1030439Y552787D01*
X1030421Y552751D01*
X1030417Y552736D01*
X1030410Y552725D01*
X1030406Y552721D01*
Y552718D01*
X1030363Y552656D01*
X1030312Y552598D01*
X1030261Y552550D01*
X1030210Y552510D01*
X1030162Y552478D01*
X1030126Y552456D01*
X1030111Y552448D01*
X1030101Y552441D01*
X1030097Y552437D01*
X1030093D01*
X1030017Y552401D01*
X1029937Y552376D01*
X1029864Y552357D01*
X1029795Y552347D01*
X1029737Y552336D01*
X1029715D01*
X1029693Y552332D01*
X1029675D01*
X1029664D01*
X1029657D01*
X1029653D01*
X1029587Y552336D01*
X1029525Y552343D01*
X1029463Y552354D01*
X1029409Y552365D01*
X1029358Y552383D01*
X1029307Y552401D01*
X1029263Y552419D01*
X1029223Y552441D01*
X1029187Y552463D01*
X1029154Y552481D01*
X1029129Y552499D01*
X1029103Y552518D01*
X1029085Y552528D01*
X1029074Y552539D01*
X1029067Y552547D01*
X1029063Y552550D01*
X1029023Y552590D01*
X1028987Y552634D01*
X1028958Y552681D01*
X1028932Y552725D01*
X1028907Y552769D01*
X1028888Y552812D01*
X1028863Y552896D01*
X1028852Y552933D01*
X1028845Y552969D01*
X1028841Y552998D01*
X1028837Y553027D01*
X1028834Y553049D01*
Y553078D01*
X1028837Y553144D01*
X1028848Y553206D01*
X1028859Y553264D01*
X1028874Y553315D01*
X1028892Y553358D01*
X1028903Y553391D01*
X1028914Y553413D01*
X1028918Y553417D01*
Y553420D01*
X1028954Y553479D01*
X1028994Y553530D01*
X1029034Y553577D01*
X1029078Y553613D01*
X1029114Y553646D01*
X1029143Y553672D01*
X1029165Y553686D01*
X1029169Y553690D01*
X1029103D01*
X1029038Y553686D01*
X1028979Y553682D01*
X1028921Y553675D01*
X1028870Y553672D01*
X1028823Y553664D01*
X1028779Y553657D01*
X1028739Y553646D01*
X1028703Y553639D01*
X1028674Y553631D01*
X1028648Y553624D01*
X1028626Y553620D01*
X1028612Y553613D01*
X1028601Y553610D01*
X1028594Y553606D01*
X1028590D01*
X1028517Y553570D01*
X1028452Y553533D01*
X1028401Y553493D01*
X1028357Y553457D01*
X1028321Y553424D01*
X1028295Y553399D01*
X1028281Y553380D01*
X1028277Y553373D01*
X1028248Y553329D01*
X1028230Y553286D01*
X1028215Y553242D01*
X1028204Y553198D01*
X1028197Y553165D01*
X1028193Y553136D01*
Y553111D01*
X1028200Y553045D01*
X1028215Y552984D01*
X1028237Y552933D01*
X1028259Y552885D01*
X1028284Y552849D01*
X1028306Y552823D01*
X1028321Y552809D01*
X1028328Y552802D01*
X1028361Y552776D01*
X1028401Y552751D01*
X1028444Y552729D01*
X1028488Y552714D01*
X1028528Y552700D01*
X1028561Y552689D01*
X1028583Y552685D01*
X1028586Y552681D01*
X1028590D01*
X1028564Y552372D01*
X1028463Y552394D01*
X1028372Y552427D01*
X1028292Y552463D01*
X1028226Y552503D01*
X1028175Y552543D01*
X1028153Y552558D01*
X1028135Y552576D01*
X1028124Y552587D01*
X1028113Y552598D01*
X1028109Y552601D01*
X1028106Y552605D01*
X1028077Y552641D01*
X1028051Y552681D01*
X1028008Y552762D01*
X1027978Y552842D01*
X1027960Y552918D01*
X1027946Y552987D01*
X1027942Y553016D01*
Y553042D01*
X1027938Y553064D01*
Y553093D01*
X1027942Y553165D01*
X1027949Y553235D01*
X1027964Y553300D01*
X1027982Y553362D01*
X1028008Y553417D01*
X1028029Y553471D01*
X1028059Y553519D01*
X1028084Y553562D01*
X1028109Y553599D01*
X1028139Y553635D01*
X1028160Y553664D01*
X1028182Y553686D01*
X1028204Y553704D01*
X1028219Y553719D01*
X1028226Y553726D01*
X1028230Y553730D01*
X1028295Y553777D01*
X1028372Y553817D01*
X1028452Y553854D01*
X1028535Y553886D01*
X1028623Y553912D01*
X1028710Y553934D01*
X1028801Y553952D01*
X1028885Y553966D01*
X1028969Y553977D01*
X1029045Y553984D01*
X1029114Y553992D01*
X1029172Y553995D01*
X1029223D01*
X1029260Y553999D01*
X1029274D01*
X1029285D01*
X1029289D01*
X1029292D01*
X1029409Y553995D01*
D02*
G37*
G36*
X924991Y556095D02*
X925118Y556081D01*
X925231Y556062D01*
X925286Y556048D01*
X925333Y556037D01*
X925377Y556026D01*
X925417Y556011D01*
X925453Y556001D01*
X925482Y555993D01*
X925504Y555982D01*
X925522Y555979D01*
X925533Y555971D01*
X925537D01*
X925646Y555917D01*
X925744Y555855D01*
X925828Y555789D01*
X925861Y555757D01*
X925894Y555727D01*
X925923Y555698D01*
X925948Y555669D01*
X925970Y555644D01*
X925985Y555622D01*
X925999Y555607D01*
X926010Y555593D01*
X926014Y555585D01*
X926017Y555582D01*
X926046Y555531D01*
X926072Y555480D01*
X926112Y555371D01*
X926141Y555262D01*
X926159Y555156D01*
X926167Y555105D01*
X926174Y555061D01*
X926178Y555021D01*
Y554989D01*
X926181Y554959D01*
Y554919D01*
X926178Y554847D01*
X926170Y554777D01*
X926163Y554712D01*
X926148Y554650D01*
X926130Y554592D01*
X926112Y554537D01*
X926094Y554486D01*
X926072Y554439D01*
X926054Y554399D01*
X926035Y554359D01*
X926017Y554330D01*
X925999Y554301D01*
X925985Y554282D01*
X925977Y554264D01*
X925970Y554257D01*
X925966Y554253D01*
X925923Y554202D01*
X925879Y554159D01*
X925828Y554119D01*
X925777Y554079D01*
X925675Y554013D01*
X925573Y553962D01*
X925526Y553940D01*
X925482Y553922D01*
X925442Y553907D01*
X925409Y553897D01*
X925380Y553886D01*
X925358Y553878D01*
X925344Y553875D01*
X925340D01*
X925257Y554210D01*
X925315Y554224D01*
X925369Y554242D01*
X925420Y554261D01*
X925468Y554279D01*
X925511Y554301D01*
X925548Y554322D01*
X925584Y554348D01*
X925617Y554370D01*
X925646Y554388D01*
X925668Y554410D01*
X925690Y554428D01*
X925708Y554443D01*
X925719Y554457D01*
X925730Y554468D01*
X925733Y554472D01*
X925737Y554475D01*
X925766Y554512D01*
X925788Y554552D01*
X925828Y554632D01*
X925857Y554708D01*
X925875Y554785D01*
X925890Y554850D01*
X925894Y554876D01*
Y554901D01*
X925897Y554923D01*
Y554949D01*
X925894Y555032D01*
X925879Y555112D01*
X925861Y555185D01*
X925839Y555251D01*
X925817Y555302D01*
X925806Y555323D01*
X925799Y555342D01*
X925792Y555356D01*
X925784Y555367D01*
X925781Y555374D01*
Y555378D01*
X925730Y555447D01*
X925675Y555506D01*
X925613Y555556D01*
X925555Y555596D01*
X925504Y555629D01*
X925460Y555651D01*
X925442Y555658D01*
X925431Y555666D01*
X925424Y555669D01*
X925420D01*
X925326Y555698D01*
X925231Y555720D01*
X925136Y555738D01*
X925049Y555749D01*
X925009Y555753D01*
X924973Y555757D01*
X924940D01*
X924914Y555760D01*
X924893D01*
X924874D01*
X924864D01*
X924860D01*
X924765Y555757D01*
X924678Y555749D01*
X924598Y555735D01*
X924525Y555720D01*
X924463Y555709D01*
X924438Y555702D01*
X924416Y555695D01*
X924397Y555691D01*
X924387Y555687D01*
X924379Y555684D01*
X924376D01*
X924292Y555647D01*
X924216Y555607D01*
X924154Y555564D01*
X924099Y555516D01*
X924055Y555476D01*
X924026Y555444D01*
X924008Y555418D01*
X924001Y555414D01*
Y555411D01*
X923953Y555334D01*
X923917Y555251D01*
X923892Y555171D01*
X923877Y555094D01*
X923866Y555025D01*
X923862Y554996D01*
Y554970D01*
X923859Y554952D01*
Y554923D01*
X923862Y554832D01*
X923877Y554748D01*
X923899Y554679D01*
X923921Y554617D01*
X923946Y554570D01*
X923964Y554534D01*
X923979Y554512D01*
X923986Y554504D01*
X924041Y554446D01*
X924103Y554392D01*
X924168Y554348D01*
X924234Y554312D01*
X924292Y554282D01*
X924321Y554272D01*
X924343Y554264D01*
X924361Y554257D01*
X924376Y554250D01*
X924383Y554246D01*
X924387D01*
X924310Y553918D01*
X924245Y553940D01*
X924186Y553962D01*
X924132Y553991D01*
X924077Y554017D01*
X924030Y554046D01*
X923986Y554079D01*
X923942Y554108D01*
X923906Y554137D01*
X923877Y554166D01*
X923848Y554191D01*
X923822Y554217D01*
X923804Y554235D01*
X923786Y554253D01*
X923775Y554268D01*
X923771Y554275D01*
X923768Y554279D01*
X923735Y554330D01*
X923702Y554381D01*
X923677Y554432D01*
X923655Y554486D01*
X923622Y554595D01*
X923600Y554694D01*
X923590Y554741D01*
X923586Y554781D01*
X923582Y554821D01*
X923578Y554854D01*
X923575Y554879D01*
Y554916D01*
X923582Y555036D01*
X923600Y555152D01*
X923622Y555254D01*
X923637Y555302D01*
X923651Y555345D01*
X923666Y555385D01*
X923680Y555422D01*
X923691Y555451D01*
X923702Y555480D01*
X923713Y555498D01*
X923720Y555513D01*
X923724Y555524D01*
X923728Y555527D01*
X923790Y555626D01*
X923862Y555709D01*
X923935Y555782D01*
X924008Y555844D01*
X924074Y555891D01*
X924103Y555909D01*
X924128Y555924D01*
X924146Y555939D01*
X924161Y555946D01*
X924172Y555949D01*
X924175Y555953D01*
X924288Y556004D01*
X924405Y556040D01*
X924521Y556066D01*
X924627Y556084D01*
X924674Y556091D01*
X924722Y556095D01*
X924758Y556099D01*
X924794D01*
X924820Y556102D01*
X924842D01*
X924856D01*
X924860D01*
X924991Y556095D01*
D02*
G37*
G36*
X925533Y552601D02*
X926137D01*
Y552291D01*
X925533D01*
Y551949D01*
X925249D01*
Y552291D01*
X923619D01*
Y552542D01*
X925249Y553696D01*
X925533D01*
Y552601D01*
D02*
G37*
G36*
X830503Y556095D02*
X830630Y556081D01*
X830743Y556062D01*
X830797Y556048D01*
X830845Y556037D01*
X830888Y556026D01*
X830929Y556011D01*
X830965Y556001D01*
X830994Y555993D01*
X831016Y555982D01*
X831034Y555979D01*
X831045Y555971D01*
X831049D01*
X831158Y555917D01*
X831256Y555855D01*
X831340Y555789D01*
X831373Y555757D01*
X831405Y555727D01*
X831435Y555698D01*
X831460Y555669D01*
X831482Y555644D01*
X831496Y555622D01*
X831511Y555607D01*
X831522Y555593D01*
X831526Y555585D01*
X831529Y555582D01*
X831558Y555531D01*
X831584Y555480D01*
X831624Y555371D01*
X831653Y555262D01*
X831671Y555156D01*
X831678Y555105D01*
X831686Y555061D01*
X831689Y555021D01*
Y554989D01*
X831693Y554959D01*
Y554919D01*
X831689Y554847D01*
X831682Y554777D01*
X831675Y554712D01*
X831660Y554650D01*
X831642Y554592D01*
X831624Y554537D01*
X831606Y554486D01*
X831584Y554439D01*
X831566Y554399D01*
X831547Y554359D01*
X831529Y554330D01*
X831511Y554301D01*
X831496Y554282D01*
X831489Y554264D01*
X831482Y554257D01*
X831478Y554253D01*
X831435Y554202D01*
X831391Y554159D01*
X831340Y554119D01*
X831289Y554079D01*
X831187Y554013D01*
X831085Y553962D01*
X831038Y553940D01*
X830994Y553922D01*
X830954Y553907D01*
X830921Y553897D01*
X830892Y553886D01*
X830870Y553878D01*
X830856Y553875D01*
X830852D01*
X830768Y554210D01*
X830827Y554224D01*
X830881Y554242D01*
X830932Y554261D01*
X830980Y554279D01*
X831023Y554301D01*
X831060Y554322D01*
X831096Y554348D01*
X831129Y554370D01*
X831158Y554388D01*
X831180Y554410D01*
X831201Y554428D01*
X831220Y554443D01*
X831231Y554457D01*
X831242Y554468D01*
X831245Y554472D01*
X831249Y554475D01*
X831278Y554512D01*
X831300Y554552D01*
X831340Y554632D01*
X831369Y554708D01*
X831387Y554785D01*
X831402Y554850D01*
X831405Y554876D01*
Y554901D01*
X831409Y554923D01*
Y554949D01*
X831405Y555032D01*
X831391Y555112D01*
X831373Y555185D01*
X831351Y555251D01*
X831329Y555302D01*
X831318Y555324D01*
X831311Y555342D01*
X831304Y555356D01*
X831296Y555367D01*
X831293Y555374D01*
Y555378D01*
X831242Y555447D01*
X831187Y555506D01*
X831125Y555556D01*
X831067Y555596D01*
X831016Y555629D01*
X830972Y555651D01*
X830954Y555658D01*
X830943Y555666D01*
X830936Y555669D01*
X830932D01*
X830838Y555698D01*
X830743Y555720D01*
X830648Y555738D01*
X830561Y555749D01*
X830521Y555753D01*
X830484Y555757D01*
X830452D01*
X830426Y555760D01*
X830404D01*
X830386D01*
X830375D01*
X830372D01*
X830277Y555757D01*
X830190Y555749D01*
X830110Y555735D01*
X830037Y555720D01*
X829975Y555709D01*
X829949Y555702D01*
X829928Y555695D01*
X829909Y555691D01*
X829898Y555688D01*
X829891Y555684D01*
X829887D01*
X829804Y555647D01*
X829727Y555607D01*
X829665Y555564D01*
X829611Y555516D01*
X829567Y555476D01*
X829538Y555444D01*
X829520Y555418D01*
X829513Y555414D01*
Y555411D01*
X829465Y555334D01*
X829429Y555251D01*
X829403Y555171D01*
X829389Y555094D01*
X829378Y555025D01*
X829374Y554996D01*
Y554970D01*
X829371Y554952D01*
Y554923D01*
X829374Y554832D01*
X829389Y554748D01*
X829411Y554679D01*
X829432Y554617D01*
X829458Y554570D01*
X829476Y554534D01*
X829491Y554512D01*
X829498Y554504D01*
X829553Y554446D01*
X829615Y554392D01*
X829680Y554348D01*
X829746Y554312D01*
X829804Y554282D01*
X829833Y554272D01*
X829855Y554264D01*
X829873Y554257D01*
X829887Y554250D01*
X829895Y554246D01*
X829898D01*
X829822Y553918D01*
X829757Y553940D01*
X829698Y553962D01*
X829644Y553991D01*
X829589Y554017D01*
X829542Y554046D01*
X829498Y554079D01*
X829454Y554108D01*
X829418Y554137D01*
X829389Y554166D01*
X829360Y554191D01*
X829334Y554217D01*
X829316Y554235D01*
X829298Y554253D01*
X829287Y554268D01*
X829283Y554275D01*
X829280Y554279D01*
X829247Y554330D01*
X829214Y554381D01*
X829189Y554432D01*
X829167Y554486D01*
X829134Y554596D01*
X829112Y554694D01*
X829101Y554741D01*
X829098Y554781D01*
X829094Y554821D01*
X829090Y554854D01*
X829087Y554879D01*
Y554916D01*
X829094Y555036D01*
X829112Y555152D01*
X829134Y555254D01*
X829149Y555302D01*
X829163Y555345D01*
X829178Y555385D01*
X829192Y555422D01*
X829203Y555451D01*
X829214Y555480D01*
X829225Y555498D01*
X829232Y555513D01*
X829236Y555524D01*
X829240Y555527D01*
X829301Y555626D01*
X829374Y555709D01*
X829447Y555782D01*
X829520Y555844D01*
X829585Y555891D01*
X829615Y555909D01*
X829640Y555924D01*
X829658Y555939D01*
X829673Y555946D01*
X829684Y555949D01*
X829687Y555953D01*
X829800Y556004D01*
X829917Y556040D01*
X830033Y556066D01*
X830139Y556084D01*
X830186Y556091D01*
X830233Y556095D01*
X830270Y556099D01*
X830306D01*
X830332Y556102D01*
X830353D01*
X830368D01*
X830372D01*
X830503Y556095D01*
D02*
G37*
G36*
X831049Y553583D02*
X831103Y553573D01*
X831205Y553540D01*
X831293Y553500D01*
X831333Y553478D01*
X831365Y553456D01*
X831398Y553438D01*
X831427Y553416D01*
X831449Y553398D01*
X831467Y553380D01*
X831482Y553365D01*
X831496Y553358D01*
X831500Y553351D01*
X831504Y553347D01*
X831536Y553303D01*
X831566Y553260D01*
X831591Y553212D01*
X831613Y553165D01*
X831646Y553074D01*
X831668Y552983D01*
X831678Y552943D01*
X831682Y552903D01*
X831686Y552870D01*
X831689Y552841D01*
X831693Y552815D01*
Y552783D01*
X831689Y552706D01*
X831678Y552633D01*
X831664Y552564D01*
X831646Y552502D01*
X831620Y552444D01*
X831595Y552390D01*
X831569Y552339D01*
X831540Y552295D01*
X831511Y552255D01*
X831485Y552218D01*
X831456Y552189D01*
X831435Y552164D01*
X831416Y552146D01*
X831402Y552131D01*
X831391Y552124D01*
X831387Y552120D01*
X831340Y552084D01*
X831289Y552055D01*
X831242Y552026D01*
X831191Y552004D01*
X831092Y551967D01*
X830998Y551945D01*
X830958Y551938D01*
X830918Y551931D01*
X830885Y551927D01*
X830856Y551924D01*
X830830Y551920D01*
X830812D01*
X830801D01*
X830797D01*
X830732Y551924D01*
X830670Y551931D01*
X830608Y551942D01*
X830554Y551957D01*
X830503Y551975D01*
X830452Y551993D01*
X830408Y552015D01*
X830368Y552033D01*
X830332Y552055D01*
X830299Y552077D01*
X830273Y552095D01*
X830248Y552113D01*
X830230Y552128D01*
X830219Y552139D01*
X830212Y552146D01*
X830208Y552149D01*
X830168Y552193D01*
X830131Y552237D01*
X830102Y552284D01*
X830077Y552331D01*
X830051Y552379D01*
X830033Y552426D01*
X830008Y552513D01*
X829997Y552553D01*
X829989Y552590D01*
X829986Y552623D01*
X829982Y552652D01*
X829978Y552673D01*
Y552754D01*
X829986Y552797D01*
X830004Y552885D01*
X830029Y552965D01*
X830059Y553038D01*
X830088Y553096D01*
X830102Y553121D01*
X830113Y553143D01*
X830124Y553161D01*
X830131Y553172D01*
X830135Y553180D01*
X830139Y553183D01*
X829458Y553049D01*
Y552040D01*
X829163D01*
Y553292D01*
X830459Y553536D01*
X830499Y553245D01*
X830459Y553220D01*
X830426Y553187D01*
X830394Y553158D01*
X830368Y553128D01*
X830350Y553099D01*
X830332Y553078D01*
X830324Y553063D01*
X830321Y553059D01*
X830299Y553012D01*
X830281Y552965D01*
X830270Y552921D01*
X830259Y552877D01*
X830255Y552841D01*
X830252Y552812D01*
Y552743D01*
X830259Y552699D01*
X830277Y552623D01*
X830303Y552557D01*
X830328Y552499D01*
X830357Y552455D01*
X830383Y552422D01*
X830401Y552404D01*
X830404Y552397D01*
X830408D01*
X830470Y552346D01*
X830535Y552310D01*
X830605Y552284D01*
X830674Y552266D01*
X830732Y552255D01*
X830758Y552251D01*
X830779D01*
X830797Y552248D01*
X830812D01*
X830819D01*
X830823D01*
X830874D01*
X830921Y552255D01*
X831012Y552273D01*
X831089Y552299D01*
X831151Y552324D01*
X831201Y552353D01*
X831242Y552379D01*
X831252Y552390D01*
X831263Y552397D01*
X831267Y552400D01*
X831271Y552404D01*
X831300Y552433D01*
X831325Y552462D01*
X831369Y552528D01*
X831398Y552590D01*
X831416Y552652D01*
X831431Y552703D01*
X831435Y552746D01*
X831438Y552761D01*
Y552783D01*
X831435Y552852D01*
X831420Y552914D01*
X831402Y552968D01*
X831380Y553012D01*
X831358Y553052D01*
X831340Y553081D01*
X831325Y553096D01*
X831322Y553103D01*
X831271Y553147D01*
X831216Y553183D01*
X831154Y553212D01*
X831100Y553234D01*
X831045Y553249D01*
X831005Y553260D01*
X830987Y553263D01*
X830976Y553267D01*
X830969D01*
X830965D01*
X830990Y553591D01*
X831049Y553583D01*
D02*
G37*
G36*
X722359Y566575D02*
X722475Y566557D01*
X722577Y566535D01*
X722624Y566521D01*
X722668Y566506D01*
X722708Y566492D01*
X722745Y566477D01*
X722774Y566466D01*
X722803Y566455D01*
X722821Y566444D01*
X722836Y566437D01*
X722847Y566433D01*
X722850Y566430D01*
X722948Y566368D01*
X723032Y566295D01*
X723105Y566222D01*
X723167Y566149D01*
X723214Y566084D01*
X723232Y566055D01*
X723247Y566029D01*
X723261Y566011D01*
X723269Y565997D01*
X723272Y565986D01*
X723276Y565982D01*
X723327Y565869D01*
X723363Y565753D01*
X723389Y565636D01*
X723407Y565531D01*
X723414Y565483D01*
X723418Y565436D01*
X723422Y565400D01*
Y565363D01*
X723425Y565338D01*
Y565316D01*
Y565301D01*
Y565298D01*
X723418Y565167D01*
X723403Y565039D01*
X723385Y564926D01*
X723371Y564872D01*
X723360Y564824D01*
X723349Y564781D01*
X723334Y564741D01*
X723323Y564704D01*
X723316Y564675D01*
X723305Y564653D01*
X723302Y564635D01*
X723294Y564624D01*
Y564621D01*
X723240Y564511D01*
X723178Y564413D01*
X723112Y564329D01*
X723079Y564297D01*
X723050Y564264D01*
X723021Y564235D01*
X722992Y564209D01*
X722967Y564187D01*
X722945Y564173D01*
X722930Y564158D01*
X722916Y564147D01*
X722908Y564144D01*
X722905Y564140D01*
X722854Y564111D01*
X722803Y564085D01*
X722694Y564045D01*
X722584Y564016D01*
X722479Y563998D01*
X722428Y563991D01*
X722384Y563984D01*
X722344Y563980D01*
X722311D01*
X722282Y563976D01*
X722242D01*
X722169Y563980D01*
X722100Y563987D01*
X722035Y563995D01*
X721973Y564009D01*
X721915Y564027D01*
X721860Y564045D01*
X721809Y564064D01*
X721762Y564085D01*
X721722Y564104D01*
X721682Y564122D01*
X721653Y564140D01*
X721623Y564158D01*
X721605Y564173D01*
X721587Y564180D01*
X721580Y564187D01*
X721576Y564191D01*
X721525Y564235D01*
X721482Y564278D01*
X721441Y564329D01*
X721401Y564380D01*
X721336Y564482D01*
X721285Y564584D01*
X721263Y564632D01*
X721245Y564675D01*
X721230Y564715D01*
X721219Y564748D01*
X721208Y564777D01*
X721201Y564799D01*
X721198Y564814D01*
Y564817D01*
X721532Y564901D01*
X721547Y564843D01*
X721565Y564788D01*
X721583Y564737D01*
X721602Y564690D01*
X721623Y564646D01*
X721645Y564610D01*
X721671Y564573D01*
X721693Y564540D01*
X721711Y564511D01*
X721733Y564490D01*
X721751Y564468D01*
X721765Y564450D01*
X721780Y564439D01*
X721791Y564428D01*
X721795Y564424D01*
X721798Y564420D01*
X721835Y564391D01*
X721875Y564369D01*
X721955Y564329D01*
X722031Y564300D01*
X722108Y564282D01*
X722173Y564267D01*
X722199Y564264D01*
X722224D01*
X722246Y564260D01*
X722271D01*
X722355Y564264D01*
X722435Y564278D01*
X722508Y564297D01*
X722574Y564319D01*
X722624Y564340D01*
X722646Y564351D01*
X722664Y564359D01*
X722679Y564366D01*
X722690Y564373D01*
X722697Y564377D01*
X722701D01*
X722770Y564428D01*
X722828Y564482D01*
X722879Y564544D01*
X722919Y564602D01*
X722952Y564653D01*
X722974Y564697D01*
X722981Y564715D01*
X722989Y564726D01*
X722992Y564733D01*
Y564737D01*
X723021Y564832D01*
X723043Y564926D01*
X723061Y565021D01*
X723072Y565108D01*
X723076Y565148D01*
X723079Y565185D01*
Y565218D01*
X723083Y565243D01*
Y565265D01*
Y565283D01*
Y565294D01*
Y565298D01*
X723079Y565392D01*
X723072Y565480D01*
X723058Y565560D01*
X723043Y565632D01*
X723032Y565694D01*
X723025Y565720D01*
X723018Y565742D01*
X723014Y565760D01*
X723010Y565771D01*
X723007Y565778D01*
Y565782D01*
X722970Y565866D01*
X722930Y565942D01*
X722887Y566004D01*
X722839Y566058D01*
X722799Y566102D01*
X722766Y566131D01*
X722741Y566149D01*
X722737Y566157D01*
X722734D01*
X722657Y566204D01*
X722574Y566240D01*
X722493Y566266D01*
X722417Y566281D01*
X722348Y566291D01*
X722319Y566295D01*
X722293D01*
X722275Y566299D01*
X722246D01*
X722155Y566295D01*
X722071Y566281D01*
X722002Y566259D01*
X721940Y566237D01*
X721893Y566211D01*
X721856Y566193D01*
X721835Y566179D01*
X721827Y566171D01*
X721769Y566117D01*
X721714Y566055D01*
X721671Y565989D01*
X721634Y565924D01*
X721605Y565866D01*
X721594Y565836D01*
X721587Y565814D01*
X721580Y565796D01*
X721572Y565782D01*
X721569Y565774D01*
Y565771D01*
X721241Y565847D01*
X721263Y565913D01*
X721285Y565971D01*
X721314Y566026D01*
X721340Y566080D01*
X721369Y566128D01*
X721401Y566171D01*
X721430Y566215D01*
X721460Y566251D01*
X721489Y566281D01*
X721514Y566310D01*
X721540Y566335D01*
X721558Y566353D01*
X721576Y566371D01*
X721591Y566382D01*
X721598Y566386D01*
X721602Y566390D01*
X721653Y566422D01*
X721703Y566455D01*
X721755Y566481D01*
X721809Y566503D01*
X721918Y566535D01*
X722017Y566557D01*
X722064Y566568D01*
X722104Y566572D01*
X722144Y566575D01*
X722177Y566579D01*
X722202Y566583D01*
X722239D01*
X722359Y566575D01*
D02*
G37*
G36*
X720153Y566546D02*
X720211Y566542D01*
X720313Y566521D01*
X720360Y566506D01*
X720404Y566492D01*
X720444Y566473D01*
X720480Y566455D01*
X720510Y566437D01*
X720539Y566419D01*
X720564Y566404D01*
X720582Y566390D01*
X720597Y566379D01*
X720608Y566368D01*
X720615Y566364D01*
X720619Y566361D01*
X720652Y566324D01*
X720684Y566288D01*
X720710Y566248D01*
X720732Y566208D01*
X720768Y566131D01*
X720790Y566058D01*
X720804Y565997D01*
X720808Y565967D01*
X720812Y565946D01*
X720815Y565924D01*
Y565909D01*
Y565902D01*
Y565898D01*
X720812Y565833D01*
X720801Y565771D01*
X720786Y565716D01*
X720768Y565669D01*
X720753Y565632D01*
X720739Y565603D01*
X720728Y565589D01*
X720724Y565582D01*
X720684Y565538D01*
X720641Y565498D01*
X720593Y565461D01*
X720546Y565432D01*
X720502Y565411D01*
X720470Y565396D01*
X720455Y565389D01*
X720444Y565385D01*
X720440Y565381D01*
X720437D01*
X720520Y565356D01*
X720590Y565323D01*
X720652Y565283D01*
X720703Y565247D01*
X720743Y565210D01*
X720772Y565181D01*
X720786Y565163D01*
X720793Y565159D01*
Y565156D01*
X720834Y565090D01*
X720866Y565021D01*
X720888Y564956D01*
X720903Y564890D01*
X720910Y564832D01*
X720914Y564806D01*
Y564784D01*
X720917Y564770D01*
Y564755D01*
Y564748D01*
Y564744D01*
X720914Y564686D01*
X720906Y564628D01*
X720895Y564573D01*
X720881Y564519D01*
X720845Y564428D01*
X720826Y564384D01*
X720804Y564348D01*
X720783Y564311D01*
X720764Y564282D01*
X720743Y564257D01*
X720728Y564235D01*
X720714Y564217D01*
X720703Y564206D01*
X720695Y564198D01*
X720692Y564195D01*
X720648Y564155D01*
X720601Y564122D01*
X720550Y564093D01*
X720499Y564067D01*
X720451Y564049D01*
X720400Y564031D01*
X720302Y564006D01*
X720258Y563995D01*
X720218Y563987D01*
X720182Y563984D01*
X720149Y563980D01*
X720124Y563976D01*
X720087D01*
X720018Y563980D01*
X719956Y563987D01*
X719894Y563998D01*
X719836Y564009D01*
X719785Y564027D01*
X719734Y564045D01*
X719687Y564064D01*
X719647Y564085D01*
X719611Y564107D01*
X719578Y564126D01*
X719552Y564144D01*
X719527Y564162D01*
X719509Y564173D01*
X719498Y564184D01*
X719490Y564191D01*
X719487Y564195D01*
X719447Y564238D01*
X719410Y564282D01*
X719381Y564326D01*
X719356Y564373D01*
X719330Y564417D01*
X719312Y564464D01*
X719287Y564548D01*
X719276Y564588D01*
X719268Y564624D01*
X719265Y564657D01*
X719261Y564682D01*
X719257Y564704D01*
Y564722D01*
Y564733D01*
Y564737D01*
X719261Y564821D01*
X719276Y564897D01*
X719298Y564966D01*
X719319Y565025D01*
X719341Y565072D01*
X719363Y565108D01*
X719378Y565130D01*
X719381Y565134D01*
Y565137D01*
X719432Y565196D01*
X719487Y565247D01*
X719545Y565287D01*
X719600Y565323D01*
X719651Y565349D01*
X719694Y565367D01*
X719709Y565374D01*
X719720Y565378D01*
X719727Y565381D01*
X719731D01*
X719665Y565411D01*
X719611Y565443D01*
X719563Y565476D01*
X719523Y565509D01*
X719494Y565538D01*
X719472Y565560D01*
X719458Y565574D01*
X719454Y565582D01*
X719421Y565632D01*
X719399Y565684D01*
X719381Y565734D01*
X719370Y565785D01*
X719363Y565826D01*
X719359Y565858D01*
Y565880D01*
Y565884D01*
Y565887D01*
X719363Y565938D01*
X719367Y565986D01*
X719392Y566077D01*
X719425Y566157D01*
X719461Y566226D01*
X719498Y566281D01*
X719516Y566302D01*
X719530Y566324D01*
X719545Y566339D01*
X719556Y566350D01*
X719560Y566353D01*
X719563Y566357D01*
X719603Y566390D01*
X719643Y566422D01*
X719687Y566448D01*
X719731Y566470D01*
X719818Y566503D01*
X719905Y566524D01*
X719942Y566535D01*
X719978Y566539D01*
X720011Y566542D01*
X720040Y566546D01*
X720062Y566550D01*
X720095D01*
X720153Y566546D01*
D02*
G37*
G36*
X737145Y574915D02*
X737207Y574907D01*
X737269Y574896D01*
X737323Y574885D01*
X737374Y574867D01*
X737425Y574849D01*
X737469Y574831D01*
X737509Y574809D01*
X737545Y574787D01*
X737578Y574769D01*
X737604Y574751D01*
X737629Y574732D01*
X737647Y574722D01*
X737658Y574711D01*
X737666Y574703D01*
X737669Y574700D01*
X737709Y574660D01*
X737746Y574616D01*
X737775Y574569D01*
X737800Y574525D01*
X737826Y574481D01*
X737844Y574438D01*
X737869Y574354D01*
X737880Y574318D01*
X737887Y574281D01*
X737891Y574252D01*
X737895Y574223D01*
X737898Y574201D01*
Y574172D01*
X737895Y574106D01*
X737884Y574045D01*
X737873Y573986D01*
X737858Y573935D01*
X737840Y573892D01*
X737829Y573859D01*
X737818Y573837D01*
X737815Y573833D01*
Y573830D01*
X737778Y573771D01*
X737738Y573721D01*
X737698Y573673D01*
X737655Y573637D01*
X737618Y573604D01*
X737589Y573579D01*
X737567Y573564D01*
X737564Y573560D01*
X737629D01*
X737695Y573564D01*
X737753Y573568D01*
X737811Y573575D01*
X737862Y573579D01*
X737909Y573586D01*
X737953Y573593D01*
X737993Y573604D01*
X738029Y573611D01*
X738059Y573619D01*
X738084Y573626D01*
X738106Y573630D01*
X738121Y573637D01*
X738131Y573640D01*
X738139Y573644D01*
X738142D01*
X738215Y573680D01*
X738281Y573717D01*
X738332Y573757D01*
X738375Y573793D01*
X738412Y573826D01*
X738437Y573852D01*
X738452Y573870D01*
X738455Y573877D01*
X738484Y573921D01*
X738503Y573965D01*
X738517Y574008D01*
X738528Y574052D01*
X738535Y574085D01*
X738539Y574114D01*
Y574139D01*
X738532Y574205D01*
X738517Y574267D01*
X738495Y574318D01*
X738474Y574365D01*
X738448Y574401D01*
X738426Y574427D01*
X738412Y574441D01*
X738404Y574449D01*
X738372Y574474D01*
X738332Y574500D01*
X738288Y574521D01*
X738244Y574536D01*
X738204Y574550D01*
X738171Y574561D01*
X738150Y574565D01*
X738146Y574569D01*
X738142D01*
X738168Y574878D01*
X738270Y574856D01*
X738361Y574824D01*
X738441Y574787D01*
X738506Y574747D01*
X738557Y574707D01*
X738579Y574692D01*
X738597Y574674D01*
X738608Y574663D01*
X738619Y574652D01*
X738623Y574649D01*
X738626Y574645D01*
X738656Y574609D01*
X738681Y574569D01*
X738725Y574489D01*
X738754Y574408D01*
X738772Y574332D01*
X738787Y574263D01*
X738790Y574234D01*
Y574208D01*
X738794Y574187D01*
Y574157D01*
X738790Y574085D01*
X738783Y574015D01*
X738768Y573950D01*
X738750Y573888D01*
X738725Y573833D01*
X738703Y573779D01*
X738674Y573732D01*
X738648Y573688D01*
X738623Y573651D01*
X738594Y573615D01*
X738572Y573586D01*
X738550Y573564D01*
X738528Y573546D01*
X738514Y573531D01*
X738506Y573524D01*
X738503Y573520D01*
X738437Y573473D01*
X738361Y573433D01*
X738281Y573397D01*
X738197Y573364D01*
X738110Y573338D01*
X738022Y573316D01*
X737931Y573298D01*
X737848Y573284D01*
X737764Y573273D01*
X737687Y573266D01*
X737618Y573258D01*
X737560Y573255D01*
X737509D01*
X737473Y573251D01*
X737458D01*
X737447D01*
X737443D01*
X737440D01*
X737323Y573255D01*
X737214Y573262D01*
X737112Y573273D01*
X737018Y573291D01*
X736934Y573309D01*
X736857Y573327D01*
X736788Y573349D01*
X736726Y573375D01*
X736675Y573397D01*
X736628Y573419D01*
X736592Y573437D01*
X736559Y573458D01*
X736533Y573473D01*
X736519Y573484D01*
X736508Y573491D01*
X736504Y573495D01*
X736453Y573542D01*
X736410Y573593D01*
X736373Y573644D01*
X736341Y573695D01*
X736311Y573750D01*
X736290Y573801D01*
X736271Y573852D01*
X736257Y573903D01*
X736246Y573946D01*
X736235Y573990D01*
X736228Y574026D01*
X736224Y574059D01*
Y574088D01*
X736220Y574106D01*
Y574125D01*
X736224Y574208D01*
X736239Y574285D01*
X736253Y574354D01*
X736275Y574416D01*
X736293Y574463D01*
X736311Y574500D01*
X736315Y574514D01*
X736322Y574525D01*
X736326Y574529D01*
Y574532D01*
X736370Y574594D01*
X736421Y574652D01*
X736472Y574700D01*
X736522Y574740D01*
X736570Y574773D01*
X736606Y574794D01*
X736621Y574802D01*
X736632Y574809D01*
X736635Y574813D01*
X736639D01*
X736715Y574849D01*
X736796Y574874D01*
X736868Y574893D01*
X736938Y574904D01*
X736996Y574915D01*
X737018D01*
X737039Y574918D01*
X737058D01*
X737069D01*
X737076D01*
X737079D01*
X737145Y574915D01*
D02*
G37*
G36*
X738794Y572272D02*
X738732Y572235D01*
X738674Y572195D01*
X738616Y572148D01*
X738565Y572104D01*
X738521Y572061D01*
X738484Y572028D01*
X738474Y572013D01*
X738463Y572003D01*
X738459Y571999D01*
X738455Y571995D01*
X738393Y571919D01*
X738335Y571842D01*
X738284Y571770D01*
X738244Y571697D01*
X738208Y571635D01*
X738193Y571609D01*
X738182Y571588D01*
X738171Y571569D01*
X738168Y571555D01*
X738161Y571548D01*
Y571544D01*
X737862D01*
X737884Y571598D01*
X737909Y571653D01*
X737935Y571708D01*
X737960Y571759D01*
X737982Y571802D01*
X738000Y571839D01*
X738015Y571861D01*
X738019Y571864D01*
Y571868D01*
X738059Y571933D01*
X738099Y571992D01*
X738135Y572043D01*
X738168Y572083D01*
X738193Y572119D01*
X738215Y572141D01*
X738230Y572159D01*
X738233Y572163D01*
X736264D01*
Y572472D01*
X738794D01*
Y572272D01*
D02*
G37*
G36*
X736948Y570678D02*
X737021Y570627D01*
X737087Y570579D01*
X737141Y570532D01*
X737192Y570492D01*
X737229Y570456D01*
X737258Y570426D01*
X737276Y570408D01*
X737283Y570401D01*
X737305Y570372D01*
X737331Y570339D01*
X737371Y570273D01*
X737385Y570244D01*
X737400Y570223D01*
X737407Y570208D01*
X737411Y570201D01*
X737422Y570266D01*
X737432Y570328D01*
X737451Y570383D01*
X737465Y570437D01*
X737484Y570485D01*
X737505Y570528D01*
X737524Y570568D01*
X737542Y570605D01*
X737564Y570634D01*
X737582Y570663D01*
X737596Y570685D01*
X737611Y570703D01*
X737622Y570718D01*
X737633Y570728D01*
X737636Y570732D01*
X737640Y570736D01*
X737676Y570765D01*
X737713Y570794D01*
X737789Y570838D01*
X737866Y570867D01*
X737938Y570889D01*
X738000Y570903D01*
X738026Y570907D01*
X738051D01*
X738069Y570911D01*
X738084D01*
X738091D01*
X738095D01*
X738171Y570907D01*
X738241Y570896D01*
X738306Y570878D01*
X738361Y570859D01*
X738408Y570838D01*
X738444Y570823D01*
X738466Y570809D01*
X738470Y570805D01*
X738474D01*
X738532Y570761D01*
X738583Y570718D01*
X738626Y570670D01*
X738659Y570627D01*
X738685Y570586D01*
X738699Y570554D01*
X738710Y570532D01*
X738714Y570528D01*
Y570525D01*
X738725Y570492D01*
X738736Y570452D01*
X738754Y570372D01*
X738765Y570284D01*
X738776Y570204D01*
X738779Y570128D01*
Y570095D01*
X738783Y570066D01*
Y568898D01*
X736264D01*
Y569233D01*
X737382D01*
Y569662D01*
X737378Y569702D01*
Y569731D01*
X737374Y569757D01*
X737371Y569775D01*
Y569789D01*
X737367Y569797D01*
Y569800D01*
X737349Y569859D01*
X737338Y569884D01*
X737327Y569906D01*
X737316Y569928D01*
X737309Y569942D01*
X737305Y569949D01*
X737301Y569953D01*
X737280Y569982D01*
X737254Y570011D01*
X737200Y570066D01*
X737174Y570091D01*
X737152Y570110D01*
X737138Y570121D01*
X737134Y570124D01*
X737083Y570161D01*
X737029Y570201D01*
X736970Y570241D01*
X736916Y570281D01*
X736865Y570314D01*
X736825Y570339D01*
X736810Y570350D01*
X736799Y570357D01*
X736792Y570365D01*
X736788D01*
X736264Y570696D01*
Y571111D01*
X736948Y570678D01*
D02*
G37*
G36*
X821662Y889079D02*
X821611Y889007D01*
X821564Y888941D01*
X821516Y888887D01*
X821476Y888836D01*
X821440Y888799D01*
X821411Y888770D01*
X821392Y888752D01*
X821385Y888745D01*
X821356Y888723D01*
X821323Y888697D01*
X821258Y888657D01*
X821229Y888643D01*
X821207Y888628D01*
X821192Y888621D01*
X821185Y888617D01*
X821251Y888606D01*
X821312Y888595D01*
X821367Y888577D01*
X821422Y888563D01*
X821469Y888544D01*
X821513Y888523D01*
X821553Y888504D01*
X821589Y888486D01*
X821618Y888464D01*
X821647Y888446D01*
X821669Y888432D01*
X821687Y888417D01*
X821702Y888406D01*
X821713Y888395D01*
X821716Y888391D01*
X821720Y888388D01*
X821749Y888352D01*
X821778Y888315D01*
X821822Y888239D01*
X821851Y888162D01*
X821873Y888089D01*
X821887Y888027D01*
X821891Y888002D01*
Y887977D01*
X821895Y887958D01*
Y887944D01*
Y887936D01*
Y887933D01*
X821891Y887856D01*
X821880Y887787D01*
X821862Y887722D01*
X821844Y887667D01*
X821822Y887620D01*
X821807Y887584D01*
X821793Y887562D01*
X821789Y887558D01*
Y887554D01*
X821745Y887496D01*
X821702Y887445D01*
X821655Y887401D01*
X821611Y887369D01*
X821571Y887343D01*
X821538Y887329D01*
X821516Y887318D01*
X821513Y887314D01*
X821509D01*
X821476Y887303D01*
X821436Y887292D01*
X821356Y887274D01*
X821269Y887263D01*
X821189Y887252D01*
X821112Y887249D01*
X821079D01*
X821050Y887245D01*
X819882D01*
Y889764D01*
X820217D01*
Y888646D01*
X820646D01*
X820686Y888650D01*
X820715D01*
X820741Y888654D01*
X820759Y888657D01*
X820774D01*
X820781Y888661D01*
X820785D01*
X820843Y888679D01*
X820868Y888690D01*
X820890Y888701D01*
X820912Y888712D01*
X820926Y888719D01*
X820934Y888723D01*
X820937Y888726D01*
X820967Y888748D01*
X820996Y888774D01*
X821050Y888828D01*
X821076Y888854D01*
X821094Y888876D01*
X821105Y888890D01*
X821109Y888894D01*
X821145Y888945D01*
X821185Y888999D01*
X821225Y889058D01*
X821265Y889112D01*
X821298Y889163D01*
X821323Y889203D01*
X821334Y889218D01*
X821342Y889229D01*
X821349Y889236D01*
Y889240D01*
X821680Y889764D01*
X822095D01*
X821662Y889079D01*
D02*
G37*
G36*
X823456Y887234D02*
X823256D01*
X823220Y887296D01*
X823180Y887354D01*
X823132Y887412D01*
X823089Y887463D01*
X823045Y887507D01*
X823012Y887543D01*
X822998Y887554D01*
X822987Y887565D01*
X822983Y887569D01*
X822980Y887572D01*
X822903Y887634D01*
X822827Y887693D01*
X822754Y887744D01*
X822681Y887784D01*
X822619Y887820D01*
X822594Y887835D01*
X822572Y887846D01*
X822554Y887856D01*
X822539Y887860D01*
X822532Y887867D01*
X822528D01*
Y888166D01*
X822583Y888144D01*
X822637Y888118D01*
X822692Y888093D01*
X822743Y888068D01*
X822787Y888046D01*
X822823Y888027D01*
X822845Y888013D01*
X822848Y888009D01*
X822852D01*
X822918Y887969D01*
X822976Y887929D01*
X823027Y887893D01*
X823067Y887860D01*
X823103Y887835D01*
X823125Y887813D01*
X823143Y887798D01*
X823147Y887795D01*
Y889764D01*
X823456D01*
Y887234D01*
D02*
G37*
G36*
X824952Y889625D02*
X824971Y889498D01*
X824989Y889382D01*
X825000Y889327D01*
X825011Y889276D01*
X825018Y889232D01*
X825029Y889192D01*
X825036Y889156D01*
X825043Y889127D01*
X825051Y889105D01*
X825054Y889087D01*
X825058Y889076D01*
Y889072D01*
X825113Y888905D01*
X825171Y888748D01*
X825200Y888672D01*
X825229Y888599D01*
X825262Y888533D01*
X825291Y888468D01*
X825316Y888410D01*
X825342Y888359D01*
X825364Y888315D01*
X825382Y888275D01*
X825400Y888242D01*
X825411Y888220D01*
X825418Y888206D01*
X825422Y888202D01*
X825466Y888126D01*
X825509Y888049D01*
X825553Y887980D01*
X825597Y887915D01*
X825637Y887856D01*
X825677Y887798D01*
X825717Y887747D01*
X825749Y887704D01*
X825782Y887660D01*
X825811Y887624D01*
X825840Y887594D01*
X825862Y887569D01*
X825877Y887547D01*
X825891Y887533D01*
X825899Y887525D01*
X825902Y887522D01*
Y887278D01*
X824272D01*
Y887576D01*
X825506D01*
X825418Y887682D01*
X825335Y887795D01*
X825262Y887904D01*
X825193Y888009D01*
X825163Y888057D01*
X825138Y888100D01*
X825113Y888140D01*
X825094Y888173D01*
X825080Y888202D01*
X825069Y888220D01*
X825062Y888235D01*
X825058Y888239D01*
X824985Y888384D01*
X824920Y888530D01*
X824865Y888668D01*
X824843Y888730D01*
X824821Y888792D01*
X824800Y888846D01*
X824785Y888898D01*
X824770Y888941D01*
X824759Y888978D01*
X824749Y889010D01*
X824741Y889032D01*
X824738Y889047D01*
Y889050D01*
X824701Y889200D01*
X824687Y889272D01*
X824676Y889338D01*
X824665Y889400D01*
X824654Y889462D01*
X824647Y889513D01*
X824639Y889564D01*
X824636Y889607D01*
X824632Y889647D01*
X824628Y889684D01*
Y889713D01*
X824625Y889735D01*
Y889749D01*
Y889760D01*
Y889764D01*
X824941D01*
X824952Y889625D01*
D02*
G37*
G36*
X723445Y857359D02*
X723510Y857355D01*
X723572Y857348D01*
X723627Y857340D01*
X723678Y857333D01*
X723725Y857322D01*
X723769Y857315D01*
X723809Y857308D01*
X723842Y857297D01*
X723871Y857290D01*
X723893Y857282D01*
X723911Y857275D01*
X723925Y857271D01*
X723933Y857268D01*
X723936D01*
X724016Y857228D01*
X724089Y857177D01*
X724147Y857126D01*
X724198Y857071D01*
X724238Y857024D01*
X724267Y856984D01*
X724275Y856969D01*
X724282Y856958D01*
X724289Y856951D01*
Y856947D01*
X724329Y856856D01*
X724359Y856762D01*
X724380Y856663D01*
X724395Y856572D01*
X724399Y856532D01*
X724402Y856492D01*
X724406Y856456D01*
Y856427D01*
X724409Y856401D01*
Y856369D01*
X724402Y856238D01*
X724395Y856179D01*
X724388Y856125D01*
X724377Y856070D01*
X724366Y856023D01*
X724355Y855979D01*
X724340Y855939D01*
X724326Y855903D01*
X724315Y855873D01*
X724304Y855844D01*
X724293Y855822D01*
X724282Y855804D01*
X724278Y855793D01*
X724271Y855786D01*
Y855783D01*
X724217Y855702D01*
X724155Y855637D01*
X724096Y855586D01*
X724038Y855542D01*
X723987Y855509D01*
X723947Y855488D01*
X723933Y855480D01*
X723922Y855473D01*
X723914Y855470D01*
X723911D01*
X723867Y855455D01*
X723820Y855440D01*
X723722Y855418D01*
X723620Y855404D01*
X723521Y855393D01*
X723478Y855389D01*
X723434Y855386D01*
X723398D01*
X723365Y855382D01*
X723339D01*
X723321D01*
X723307D01*
X723303D01*
X721847D01*
Y855717D01*
X723303D01*
X723387D01*
X723467Y855724D01*
X723536Y855731D01*
X723601Y855742D01*
X723660Y855753D01*
X723714Y855768D01*
X723762Y855779D01*
X723802Y855793D01*
X723834Y855808D01*
X723867Y855822D01*
X723889Y855837D01*
X723911Y855848D01*
X723925Y855859D01*
X723936Y855866D01*
X723940Y855870D01*
X723944Y855873D01*
X723973Y855906D01*
X723998Y855943D01*
X724038Y856023D01*
X724067Y856106D01*
X724086Y856194D01*
X724100Y856274D01*
X724104Y856307D01*
Y856339D01*
X724107Y856361D01*
Y856398D01*
X724104Y856474D01*
X724093Y856543D01*
X724082Y856609D01*
X724064Y856660D01*
X724049Y856703D01*
X724038Y856736D01*
X724027Y856754D01*
X724024Y856762D01*
X723991Y856813D01*
X723951Y856856D01*
X723911Y856893D01*
X723874Y856918D01*
X723838Y856940D01*
X723812Y856958D01*
X723794Y856966D01*
X723787Y856969D01*
X723754Y856980D01*
X723722Y856987D01*
X723645Y857002D01*
X723565Y857013D01*
X723485Y857020D01*
X723416Y857024D01*
X723383D01*
X723357Y857027D01*
X723336D01*
X723317D01*
X723307D01*
X723303D01*
X721847D01*
Y857362D01*
X723303D01*
X723376D01*
X723445Y857359D01*
D02*
G37*
G36*
X723762Y853963D02*
X724366D01*
Y853653D01*
X723762D01*
Y853311D01*
X723478D01*
Y853653D01*
X721847D01*
Y853904D01*
X723478Y855058D01*
X723762D01*
Y853963D01*
D02*
G37*
%LPC*%
G36*
X1064626Y622361D02*
X1063832D01*
X1063734Y622357D01*
X1063650Y622343D01*
X1063577Y622325D01*
X1063523Y622303D01*
X1063476Y622281D01*
X1063446Y622263D01*
X1063428Y622248D01*
X1063421Y622245D01*
X1063377Y622197D01*
X1063344Y622150D01*
X1063323Y622099D01*
X1063305Y622055D01*
X1063297Y622012D01*
X1063294Y621979D01*
X1063290Y621957D01*
Y621953D01*
Y621950D01*
X1063294Y621906D01*
X1063301Y621862D01*
X1063312Y621826D01*
X1063323Y621793D01*
X1063337Y621764D01*
X1063348Y621742D01*
X1063355Y621728D01*
X1063359Y621724D01*
X1063385Y621688D01*
X1063417Y621655D01*
X1063450Y621629D01*
X1063483Y621607D01*
X1063512Y621593D01*
X1063534Y621582D01*
X1063548Y621575D01*
X1063556Y621571D01*
X1063607Y621557D01*
X1063665Y621546D01*
X1063723Y621538D01*
X1063781Y621535D01*
X1063832Y621531D01*
X1063876Y621527D01*
X1064626D01*
Y622361D01*
D02*
G37*
G36*
X1044941Y622317D02*
X1044147D01*
X1044049Y622314D01*
X1043965Y622299D01*
X1043892Y622281D01*
X1043838Y622259D01*
X1043791Y622237D01*
X1043761Y622219D01*
X1043743Y622204D01*
X1043736Y622201D01*
X1043692Y622154D01*
X1043659Y622106D01*
X1043638Y622055D01*
X1043619Y622012D01*
X1043612Y621968D01*
X1043608Y621935D01*
X1043605Y621913D01*
Y621910D01*
Y621906D01*
X1043608Y621862D01*
X1043616Y621819D01*
X1043627Y621782D01*
X1043638Y621749D01*
X1043652Y621720D01*
X1043663Y621699D01*
X1043670Y621684D01*
X1043674Y621680D01*
X1043699Y621644D01*
X1043732Y621611D01*
X1043765Y621586D01*
X1043798Y621564D01*
X1043827Y621549D01*
X1043849Y621538D01*
X1043863Y621531D01*
X1043871Y621527D01*
X1043922Y621513D01*
X1043980Y621502D01*
X1044038Y621495D01*
X1044096Y621491D01*
X1044147Y621487D01*
X1044191Y621484D01*
X1044941D01*
Y622317D01*
D02*
G37*
G36*
X1041876Y622095D02*
Y620967D01*
X1042669D01*
X1041876Y622095D01*
D02*
G37*
G36*
X748079Y599846D02*
X746951D01*
Y599053D01*
X748079Y599846D01*
D02*
G37*
G36*
X747897Y596159D02*
X747894D01*
X747890D01*
X747847Y596155D01*
X747803Y596148D01*
X747766Y596137D01*
X747734Y596126D01*
X747705Y596111D01*
X747683Y596101D01*
X747668Y596093D01*
X747665Y596090D01*
X747628Y596064D01*
X747595Y596032D01*
X747570Y595999D01*
X747548Y595966D01*
X747534Y595937D01*
X747523Y595915D01*
X747515Y595900D01*
X747512Y595893D01*
X747497Y595842D01*
X747486Y595784D01*
X747479Y595726D01*
X747475Y595668D01*
X747472Y595616D01*
X747468Y595573D01*
Y594823D01*
X748302D01*
Y595616D01*
X748298Y595715D01*
X748283Y595798D01*
X748265Y595871D01*
X748243Y595926D01*
X748221Y595973D01*
X748203Y596002D01*
X748189Y596021D01*
X748185Y596028D01*
X748138Y596071D01*
X748090Y596104D01*
X748039Y596126D01*
X747996Y596144D01*
X747952Y596152D01*
X747919Y596155D01*
X747897Y596159D01*
D02*
G37*
G36*
X1083327Y444168D02*
X1082533D01*
X1082435Y444164D01*
X1082351Y444149D01*
X1082278Y444131D01*
X1082224Y444109D01*
X1082176Y444088D01*
X1082147Y444069D01*
X1082129Y444055D01*
X1082122Y444051D01*
X1082078Y444004D01*
X1082045Y443957D01*
X1082024Y443906D01*
X1082005Y443862D01*
X1081998Y443818D01*
X1081994Y443785D01*
X1081991Y443764D01*
Y443760D01*
Y443756D01*
X1081994Y443713D01*
X1082002Y443669D01*
X1082013Y443633D01*
X1082024Y443600D01*
X1082038Y443571D01*
X1082049Y443549D01*
X1082056Y443534D01*
X1082060Y443531D01*
X1082085Y443494D01*
X1082118Y443462D01*
X1082151Y443436D01*
X1082184Y443414D01*
X1082213Y443400D01*
X1082235Y443389D01*
X1082249Y443382D01*
X1082256Y443378D01*
X1082307Y443363D01*
X1082366Y443352D01*
X1082424Y443345D01*
X1082482Y443341D01*
X1082533Y443338D01*
X1082577Y443334D01*
X1083327D01*
Y444168D01*
D02*
G37*
G36*
X941508Y373681D02*
X940675D01*
Y372887D01*
X940679Y372789D01*
X940693Y372705D01*
X940711Y372633D01*
X940733Y372578D01*
X940755Y372531D01*
X940773Y372502D01*
X940788Y372483D01*
X940791Y372476D01*
X940839Y372432D01*
X940886Y372400D01*
X940937Y372378D01*
X940981Y372360D01*
X941024Y372352D01*
X941057Y372349D01*
X941079Y372345D01*
X941082D01*
X941086D01*
X941130Y372349D01*
X941173Y372356D01*
X941210Y372367D01*
X941243Y372378D01*
X941272Y372392D01*
X941294Y372403D01*
X941308Y372411D01*
X941312Y372414D01*
X941348Y372440D01*
X941381Y372472D01*
X941407Y372505D01*
X941428Y372538D01*
X941443Y372567D01*
X941454Y372589D01*
X941461Y372604D01*
X941465Y372611D01*
X941479Y372662D01*
X941490Y372720D01*
X941498Y372778D01*
X941501Y372836D01*
X941505Y372887D01*
X941508Y372931D01*
Y373681D01*
D02*
G37*
G36*
X1083327Y352632D02*
X1082533D01*
X1082435Y352629D01*
X1082351Y352614D01*
X1082278Y352596D01*
X1082224Y352574D01*
X1082176Y352552D01*
X1082147Y352534D01*
X1082129Y352519D01*
X1082122Y352516D01*
X1082078Y352468D01*
X1082045Y352421D01*
X1082024Y352370D01*
X1082005Y352326D01*
X1081998Y352283D01*
X1081994Y352250D01*
X1081991Y352228D01*
Y352224D01*
Y352221D01*
X1081994Y352177D01*
X1082002Y352134D01*
X1082013Y352097D01*
X1082024Y352064D01*
X1082038Y352035D01*
X1082049Y352013D01*
X1082056Y351999D01*
X1082060Y351995D01*
X1082085Y351959D01*
X1082118Y351926D01*
X1082151Y351901D01*
X1082184Y351879D01*
X1082213Y351864D01*
X1082235Y351853D01*
X1082249Y351846D01*
X1082256Y351842D01*
X1082307Y351828D01*
X1082366Y351817D01*
X1082424Y351810D01*
X1082482Y351806D01*
X1082533Y351802D01*
X1082577Y351799D01*
X1083327D01*
Y352632D01*
D02*
G37*
G36*
X1078303Y352410D02*
Y351282D01*
X1079097D01*
X1078303Y352410D01*
D02*
G37*
G36*
X1083327Y367440D02*
X1082533D01*
X1082435Y367436D01*
X1082351Y367422D01*
X1082278Y367403D01*
X1082224Y367382D01*
X1082176Y367360D01*
X1082147Y367341D01*
X1082129Y367327D01*
X1082122Y367323D01*
X1082078Y367276D01*
X1082045Y367229D01*
X1082024Y367178D01*
X1082005Y367134D01*
X1081998Y367090D01*
X1081994Y367057D01*
X1081991Y367036D01*
Y367032D01*
Y367028D01*
X1081994Y366985D01*
X1082002Y366941D01*
X1082013Y366905D01*
X1082024Y366872D01*
X1082038Y366843D01*
X1082049Y366821D01*
X1082056Y366806D01*
X1082060Y366803D01*
X1082085Y366766D01*
X1082118Y366734D01*
X1082151Y366708D01*
X1082184Y366686D01*
X1082213Y366672D01*
X1082235Y366661D01*
X1082249Y366653D01*
X1082256Y366650D01*
X1082307Y366635D01*
X1082366Y366624D01*
X1082424Y366617D01*
X1082482Y366613D01*
X1082533Y366610D01*
X1082577Y366606D01*
X1083327D01*
Y367440D01*
D02*
G37*
G36*
X1078471Y382311D02*
X1078449D01*
X1078373Y382303D01*
X1078303Y382285D01*
X1078245Y382263D01*
X1078194Y382234D01*
X1078154Y382205D01*
X1078125Y382183D01*
X1078107Y382165D01*
X1078100Y382158D01*
X1078052Y382096D01*
X1078016Y382030D01*
X1077990Y381961D01*
X1077976Y381895D01*
X1077965Y381837D01*
X1077961Y381812D01*
Y381790D01*
X1077958Y381772D01*
Y381757D01*
Y381750D01*
Y381746D01*
X1077965Y381648D01*
X1077979Y381564D01*
X1078001Y381491D01*
X1078027Y381430D01*
X1078056Y381382D01*
X1078078Y381346D01*
X1078092Y381324D01*
X1078100Y381320D01*
Y381317D01*
X1078125Y381288D01*
X1078154Y381266D01*
X1078212Y381226D01*
X1078271Y381200D01*
X1078322Y381178D01*
X1078369Y381168D01*
X1078405Y381164D01*
X1078420Y381160D01*
X1078438D01*
X1078489Y381164D01*
X1078536Y381171D01*
X1078580Y381186D01*
X1078616Y381200D01*
X1078649Y381211D01*
X1078675Y381226D01*
X1078689Y381233D01*
X1078697Y381237D01*
X1078740Y381270D01*
X1078777Y381302D01*
X1078809Y381342D01*
X1078835Y381375D01*
X1078857Y381408D01*
X1078871Y381433D01*
X1078882Y381452D01*
X1078886Y381459D01*
X1078908Y381513D01*
X1078922Y381568D01*
X1078937Y381619D01*
X1078944Y381666D01*
X1078948Y381706D01*
X1078951Y381739D01*
Y381757D01*
Y381765D01*
X1078944Y381852D01*
X1078930Y381928D01*
X1078904Y381997D01*
X1078878Y382052D01*
X1078853Y382099D01*
X1078827Y382132D01*
X1078813Y382150D01*
X1078806Y382158D01*
X1078747Y382209D01*
X1078689Y382245D01*
X1078627Y382274D01*
X1078573Y382292D01*
X1078522Y382303D01*
X1078485Y382307D01*
X1078471Y382311D01*
D02*
G37*
G36*
X1083327Y383188D02*
X1082533D01*
X1082435Y383184D01*
X1082351Y383170D01*
X1082278Y383151D01*
X1082224Y383130D01*
X1082176Y383108D01*
X1082147Y383089D01*
X1082129Y383075D01*
X1082122Y383071D01*
X1082078Y383024D01*
X1082045Y382977D01*
X1082024Y382926D01*
X1082005Y382882D01*
X1081998Y382838D01*
X1081994Y382805D01*
X1081991Y382784D01*
Y382780D01*
Y382776D01*
X1081994Y382733D01*
X1082002Y382689D01*
X1082013Y382653D01*
X1082024Y382620D01*
X1082038Y382591D01*
X1082049Y382569D01*
X1082056Y382554D01*
X1082060Y382551D01*
X1082085Y382514D01*
X1082118Y382482D01*
X1082151Y382456D01*
X1082184Y382434D01*
X1082213Y382420D01*
X1082235Y382409D01*
X1082249Y382401D01*
X1082256Y382398D01*
X1082307Y382383D01*
X1082366Y382372D01*
X1082424Y382365D01*
X1082482Y382362D01*
X1082533Y382358D01*
X1082577Y382354D01*
X1083327D01*
Y383188D01*
D02*
G37*
G36*
Y398892D02*
X1082533D01*
X1082435Y398888D01*
X1082351Y398874D01*
X1082278Y398856D01*
X1082224Y398834D01*
X1082176Y398812D01*
X1082147Y398794D01*
X1082129Y398779D01*
X1082122Y398776D01*
X1082078Y398728D01*
X1082045Y398681D01*
X1082024Y398630D01*
X1082005Y398586D01*
X1081998Y398543D01*
X1081994Y398510D01*
X1081991Y398488D01*
Y398484D01*
Y398481D01*
X1081994Y398437D01*
X1082002Y398393D01*
X1082013Y398357D01*
X1082024Y398324D01*
X1082038Y398295D01*
X1082049Y398273D01*
X1082056Y398259D01*
X1082060Y398255D01*
X1082085Y398219D01*
X1082118Y398186D01*
X1082151Y398160D01*
X1082184Y398139D01*
X1082213Y398124D01*
X1082235Y398113D01*
X1082249Y398106D01*
X1082256Y398102D01*
X1082307Y398088D01*
X1082366Y398077D01*
X1082424Y398069D01*
X1082482Y398066D01*
X1082533Y398062D01*
X1082577Y398059D01*
X1083327D01*
Y398892D01*
D02*
G37*
G36*
Y428463D02*
X1082533D01*
X1082435Y428460D01*
X1082351Y428445D01*
X1082278Y428427D01*
X1082224Y428405D01*
X1082176Y428383D01*
X1082147Y428365D01*
X1082129Y428350D01*
X1082122Y428347D01*
X1082078Y428300D01*
X1082045Y428252D01*
X1082024Y428201D01*
X1082005Y428158D01*
X1081998Y428114D01*
X1081994Y428081D01*
X1081991Y428059D01*
Y428056D01*
Y428052D01*
X1081994Y428008D01*
X1082002Y427965D01*
X1082013Y427928D01*
X1082024Y427895D01*
X1082038Y427866D01*
X1082049Y427844D01*
X1082056Y427830D01*
X1082060Y427826D01*
X1082085Y427790D01*
X1082118Y427757D01*
X1082151Y427732D01*
X1082184Y427710D01*
X1082213Y427695D01*
X1082235Y427684D01*
X1082249Y427677D01*
X1082256Y427673D01*
X1082307Y427659D01*
X1082366Y427648D01*
X1082424Y427641D01*
X1082482Y427637D01*
X1082533Y427633D01*
X1082577Y427630D01*
X1083327D01*
Y428463D01*
D02*
G37*
G36*
Y413699D02*
X1082533D01*
X1082435Y413696D01*
X1082351Y413681D01*
X1082278Y413663D01*
X1082224Y413641D01*
X1082176Y413620D01*
X1082147Y413601D01*
X1082129Y413587D01*
X1082122Y413583D01*
X1082078Y413536D01*
X1082045Y413488D01*
X1082024Y413438D01*
X1082005Y413394D01*
X1081998Y413350D01*
X1081994Y413317D01*
X1081991Y413296D01*
Y413292D01*
Y413288D01*
X1081994Y413244D01*
X1082002Y413201D01*
X1082013Y413165D01*
X1082024Y413132D01*
X1082038Y413103D01*
X1082049Y413081D01*
X1082056Y413066D01*
X1082060Y413062D01*
X1082085Y413026D01*
X1082118Y412993D01*
X1082151Y412968D01*
X1082184Y412946D01*
X1082213Y412931D01*
X1082235Y412921D01*
X1082249Y412913D01*
X1082256Y412910D01*
X1082307Y412895D01*
X1082366Y412884D01*
X1082424Y412877D01*
X1082482Y412873D01*
X1082533Y412870D01*
X1082577Y412866D01*
X1083327D01*
Y413699D01*
D02*
G37*
G36*
X1078496Y413736D02*
X1078475D01*
X1078434Y413732D01*
X1078394Y413729D01*
X1078358Y413718D01*
X1078325Y413703D01*
X1078263Y413670D01*
X1078209Y413634D01*
X1078169Y413594D01*
X1078136Y413561D01*
X1078125Y413547D01*
X1078118Y413536D01*
X1078111Y413532D01*
Y413528D01*
X1078085Y413485D01*
X1078063Y413434D01*
X1078041Y413376D01*
X1078027Y413314D01*
X1078012Y413248D01*
X1078001Y413179D01*
X1077983Y413041D01*
X1077976Y412971D01*
X1077972Y412910D01*
X1077969Y412851D01*
Y412804D01*
X1077965Y412760D01*
Y412728D01*
Y412710D01*
Y412706D01*
Y412702D01*
Y412589D01*
X1077972Y412487D01*
X1077979Y412396D01*
X1077987Y412309D01*
X1077998Y412236D01*
X1078012Y412167D01*
X1078027Y412109D01*
X1078038Y412054D01*
X1078052Y412011D01*
X1078067Y411974D01*
X1078078Y411941D01*
X1078092Y411916D01*
X1078100Y411898D01*
X1078107Y411887D01*
X1078114Y411879D01*
Y411876D01*
X1078143Y411839D01*
X1078172Y411810D01*
X1078201Y411781D01*
X1078231Y411759D01*
X1078292Y411723D01*
X1078347Y411697D01*
X1078398Y411683D01*
X1078434Y411676D01*
X1078449Y411672D01*
X1078471D01*
X1078511Y411676D01*
X1078547Y411679D01*
X1078616Y411705D01*
X1078678Y411738D01*
X1078733Y411774D01*
X1078773Y411810D01*
X1078806Y411843D01*
X1078824Y411869D01*
X1078831Y411872D01*
Y411876D01*
X1078857Y411920D01*
X1078878Y411971D01*
X1078900Y412029D01*
X1078915Y412091D01*
X1078930Y412156D01*
X1078940Y412225D01*
X1078959Y412367D01*
X1078966Y412433D01*
X1078969Y412495D01*
X1078973Y412553D01*
Y412600D01*
X1078977Y412644D01*
Y412677D01*
Y412695D01*
Y412702D01*
X1078973Y412815D01*
X1078969Y412917D01*
X1078962Y413012D01*
X1078951Y413099D01*
X1078940Y413175D01*
X1078926Y413244D01*
X1078911Y413306D01*
X1078897Y413361D01*
X1078882Y413408D01*
X1078871Y413448D01*
X1078857Y413481D01*
X1078846Y413510D01*
X1078835Y413528D01*
X1078827Y413543D01*
X1078820Y413550D01*
Y413554D01*
X1078795Y413587D01*
X1078769Y413616D01*
X1078740Y413638D01*
X1078711Y413659D01*
X1078653Y413692D01*
X1078598Y413714D01*
X1078551Y413725D01*
X1078511Y413732D01*
X1078496Y413736D01*
D02*
G37*
G36*
X1029678Y553642D02*
X1029660D01*
X1029653D01*
X1029566Y553635D01*
X1029489Y553620D01*
X1029420Y553595D01*
X1029365Y553570D01*
X1029318Y553544D01*
X1029285Y553519D01*
X1029267Y553504D01*
X1029260Y553497D01*
X1029209Y553439D01*
X1029172Y553380D01*
X1029143Y553318D01*
X1029125Y553264D01*
X1029114Y553213D01*
X1029110Y553176D01*
X1029107Y553162D01*
Y553140D01*
X1029114Y553064D01*
X1029132Y552994D01*
X1029154Y552936D01*
X1029183Y552885D01*
X1029212Y552845D01*
X1029234Y552816D01*
X1029252Y552798D01*
X1029260Y552791D01*
X1029322Y552743D01*
X1029387Y552707D01*
X1029456Y552681D01*
X1029522Y552667D01*
X1029580Y552656D01*
X1029605Y552652D01*
X1029627D01*
X1029646Y552649D01*
X1029660D01*
X1029667D01*
X1029671D01*
X1029769Y552656D01*
X1029853Y552670D01*
X1029926Y552692D01*
X1029988Y552718D01*
X1030035Y552747D01*
X1030071Y552769D01*
X1030093Y552783D01*
X1030097Y552791D01*
X1030101D01*
X1030130Y552816D01*
X1030151Y552845D01*
X1030192Y552903D01*
X1030217Y552962D01*
X1030239Y553013D01*
X1030250Y553060D01*
X1030253Y553096D01*
X1030257Y553111D01*
Y553129D01*
X1030253Y553180D01*
X1030246Y553227D01*
X1030232Y553271D01*
X1030217Y553307D01*
X1030206Y553340D01*
X1030192Y553366D01*
X1030184Y553380D01*
X1030181Y553388D01*
X1030148Y553431D01*
X1030115Y553468D01*
X1030075Y553500D01*
X1030042Y553526D01*
X1030009Y553548D01*
X1029984Y553562D01*
X1029966Y553573D01*
X1029959Y553577D01*
X1029904Y553599D01*
X1029849Y553613D01*
X1029798Y553628D01*
X1029751Y553635D01*
X1029711Y553639D01*
X1029678Y553642D01*
D02*
G37*
G36*
X925249Y553394D02*
X924121Y552601D01*
X925249D01*
Y553394D01*
D02*
G37*
G36*
X720117Y566295D02*
X720087D01*
X720025Y566291D01*
X719967Y566277D01*
X719920Y566259D01*
X719876Y566237D01*
X719843Y566215D01*
X719818Y566197D01*
X719800Y566182D01*
X719796Y566179D01*
X719756Y566131D01*
X719727Y566084D01*
X719705Y566037D01*
X719691Y565993D01*
X719683Y565953D01*
X719676Y565920D01*
Y565898D01*
Y565895D01*
Y565891D01*
X719680Y565833D01*
X719694Y565778D01*
X719712Y565731D01*
X719734Y565691D01*
X719756Y565658D01*
X719774Y565636D01*
X719789Y565618D01*
X719793Y565614D01*
X719836Y565578D01*
X719887Y565549D01*
X719935Y565531D01*
X719982Y565516D01*
X720025Y565509D01*
X720058Y565505D01*
X720080Y565501D01*
X720087D01*
X720153Y565505D01*
X720211Y565520D01*
X720262Y565538D01*
X720306Y565560D01*
X720338Y565578D01*
X720364Y565596D01*
X720382Y565611D01*
X720386Y565614D01*
X720422Y565658D01*
X720451Y565709D01*
X720470Y565756D01*
X720484Y565804D01*
X720491Y565844D01*
X720495Y565876D01*
X720499Y565898D01*
Y565902D01*
Y565906D01*
X720495Y565964D01*
X720480Y566015D01*
X720462Y566062D01*
X720440Y566102D01*
X720422Y566135D01*
X720404Y566160D01*
X720390Y566175D01*
X720386Y566179D01*
X720338Y566219D01*
X720291Y566248D01*
X720240Y566266D01*
X720193Y566281D01*
X720149Y566288D01*
X720117Y566295D01*
D02*
G37*
G36*
X720120Y565250D02*
X720098D01*
X720018Y565243D01*
X719945Y565229D01*
X719880Y565203D01*
X719825Y565177D01*
X719782Y565148D01*
X719749Y565123D01*
X719731Y565108D01*
X719723Y565101D01*
X719672Y565043D01*
X719636Y564981D01*
X719611Y564919D01*
X719592Y564864D01*
X719581Y564810D01*
X719578Y564770D01*
X719574Y564755D01*
Y564744D01*
Y564737D01*
Y564733D01*
X719581Y564657D01*
X719596Y564584D01*
X719622Y564522D01*
X719647Y564471D01*
X719672Y564431D01*
X719698Y564399D01*
X719712Y564380D01*
X719720Y564373D01*
X719778Y564326D01*
X719836Y564289D01*
X719898Y564267D01*
X719956Y564249D01*
X720007Y564238D01*
X720051Y564235D01*
X720065Y564231D01*
X720087D01*
X720138Y564235D01*
X720189Y564242D01*
X720237Y564253D01*
X720277Y564264D01*
X720309Y564275D01*
X720335Y564286D01*
X720349Y564293D01*
X720357Y564297D01*
X720400Y564326D01*
X720437Y564355D01*
X720470Y564388D01*
X720495Y564420D01*
X720517Y564446D01*
X720532Y564468D01*
X720539Y564486D01*
X720542Y564490D01*
X720561Y564537D01*
X720575Y564581D01*
X720586Y564624D01*
X720593Y564664D01*
X720597Y564697D01*
X720601Y564722D01*
Y564737D01*
Y564744D01*
X720593Y564821D01*
X720579Y564890D01*
X720557Y564952D01*
X720528Y565006D01*
X720502Y565047D01*
X720480Y565079D01*
X720466Y565098D01*
X720459Y565105D01*
X720404Y565152D01*
X720342Y565189D01*
X720284Y565214D01*
X720226Y565232D01*
X720175Y565243D01*
X720135Y565247D01*
X720120Y565250D01*
D02*
G37*
G36*
X737087Y574602D02*
X737072D01*
X737065D01*
X737061D01*
X736963Y574594D01*
X736879Y574580D01*
X736806Y574558D01*
X736745Y574532D01*
X736697Y574503D01*
X736661Y574481D01*
X736639Y574467D01*
X736635Y574460D01*
X736632D01*
X736603Y574434D01*
X736581Y574405D01*
X736541Y574347D01*
X736515Y574288D01*
X736493Y574237D01*
X736482Y574190D01*
X736479Y574154D01*
X736475Y574139D01*
Y574121D01*
X736479Y574070D01*
X736486Y574023D01*
X736501Y573979D01*
X736515Y573943D01*
X736526Y573910D01*
X736541Y573884D01*
X736548Y573870D01*
X736552Y573863D01*
X736584Y573819D01*
X736617Y573782D01*
X736657Y573750D01*
X736690Y573724D01*
X736723Y573702D01*
X736748Y573688D01*
X736766Y573677D01*
X736774Y573673D01*
X736828Y573651D01*
X736883Y573637D01*
X736934Y573622D01*
X736981Y573615D01*
X737021Y573611D01*
X737054Y573608D01*
X737072D01*
X737079D01*
X737167Y573615D01*
X737243Y573630D01*
X737312Y573655D01*
X737367Y573680D01*
X737414Y573706D01*
X737447Y573732D01*
X737465Y573746D01*
X737473Y573753D01*
X737524Y573812D01*
X737560Y573870D01*
X737589Y573932D01*
X737607Y573986D01*
X737618Y574037D01*
X737622Y574074D01*
X737626Y574088D01*
Y574110D01*
X737618Y574187D01*
X737600Y574256D01*
X737578Y574314D01*
X737549Y574365D01*
X737520Y574405D01*
X737498Y574434D01*
X737480Y574452D01*
X737473Y574460D01*
X737411Y574507D01*
X737345Y574543D01*
X737276Y574569D01*
X737211Y574583D01*
X737152Y574594D01*
X737127Y574598D01*
X737105D01*
X737087Y574602D01*
D02*
G37*
G36*
X738099Y570568D02*
X738095D01*
X738091D01*
X738048Y570565D01*
X738004Y570557D01*
X737968Y570546D01*
X737935Y570536D01*
X737906Y570521D01*
X737884Y570510D01*
X737869Y570503D01*
X737866Y570499D01*
X737829Y570474D01*
X737796Y570441D01*
X737771Y570408D01*
X737749Y570375D01*
X737735Y570346D01*
X737724Y570325D01*
X737716Y570310D01*
X737713Y570303D01*
X737698Y570252D01*
X737687Y570193D01*
X737680Y570135D01*
X737676Y570077D01*
X737673Y570026D01*
X737669Y569982D01*
Y569233D01*
X738503D01*
Y570026D01*
X738499Y570124D01*
X738484Y570208D01*
X738466Y570281D01*
X738444Y570335D01*
X738423Y570383D01*
X738404Y570412D01*
X738390Y570430D01*
X738386Y570437D01*
X738339Y570481D01*
X738292Y570514D01*
X738241Y570536D01*
X738197Y570554D01*
X738153Y570561D01*
X738121Y570565D01*
X738099Y570568D01*
D02*
G37*
G36*
X820967Y888359D02*
X820217D01*
Y887525D01*
X821010D01*
X821109Y887529D01*
X821192Y887543D01*
X821265Y887562D01*
X821320Y887584D01*
X821367Y887605D01*
X821396Y887624D01*
X821414Y887638D01*
X821422Y887642D01*
X821465Y887689D01*
X821498Y887736D01*
X821520Y887787D01*
X821538Y887831D01*
X821545Y887875D01*
X821549Y887907D01*
X821553Y887929D01*
Y887933D01*
Y887936D01*
X821549Y887980D01*
X821542Y888024D01*
X821531Y888060D01*
X821520Y888093D01*
X821505Y888122D01*
X821494Y888144D01*
X821487Y888159D01*
X821483Y888162D01*
X821458Y888199D01*
X821425Y888231D01*
X821392Y888257D01*
X821360Y888279D01*
X821331Y888293D01*
X821309Y888304D01*
X821294Y888311D01*
X821287Y888315D01*
X821236Y888330D01*
X821178Y888341D01*
X821119Y888348D01*
X821061Y888352D01*
X821010Y888355D01*
X820967Y888359D01*
D02*
G37*
G36*
X723478Y854756D02*
X722349Y853963D01*
X723478D01*
Y854756D01*
D02*
G37*
%LPD*%
D13*
X1073622Y616339D02*
Y623819D01*
X1056299Y616339D02*
X1073622D01*
X1056299D02*
Y623819D01*
X1073622D01*
X1053937Y616339D02*
Y623819D01*
X1036614Y616339D02*
X1053937D01*
X1036614D02*
Y623819D01*
X1053937D01*
X749803Y585827D02*
Y603150D01*
X742323D02*
X749803D01*
X742323Y585827D02*
Y603150D01*
Y585827D02*
X749803D01*
X1075000Y445669D02*
X1092323D01*
X1075000Y438189D02*
Y445669D01*
Y438189D02*
X1092323D01*
Y445669D01*
X939173Y382677D02*
X946653D01*
Y365354D02*
Y382677D01*
X939173Y365354D02*
X946653D01*
X939173D02*
Y382677D01*
X1075000Y354134D02*
X1092323D01*
X1075000Y346654D02*
Y354134D01*
Y346654D02*
X1092323D01*
Y354134D01*
X1075000Y368898D02*
X1092323D01*
X1075000Y361417D02*
Y368898D01*
Y361417D02*
X1092323D01*
Y368898D01*
X1075000Y384646D02*
X1092323D01*
X1075000Y377165D02*
Y384646D01*
Y377165D02*
X1092323D01*
Y384646D01*
X1075000Y400394D02*
X1092323D01*
X1075000Y392913D02*
Y400394D01*
Y392913D02*
X1092323D01*
Y400394D01*
X1075000Y429921D02*
X1092323D01*
X1075000Y422441D02*
Y429921D01*
Y422441D02*
X1092323D01*
Y429921D01*
X1075000Y415158D02*
X1092323D01*
X1075000Y407677D02*
Y415158D01*
Y407677D02*
X1092323D01*
Y415158D01*
X1026575Y564370D02*
X1034449D01*
Y548622D02*
Y564370D01*
X1026575Y548622D02*
X1034449D01*
X1026575D02*
Y564370D01*
X922244Y563976D02*
X930118D01*
Y548228D02*
Y563976D01*
X922244Y548228D02*
X930118D01*
X922244D02*
Y563976D01*
X827756D02*
X835630D01*
Y548228D02*
Y563976D01*
X827756Y548228D02*
X835630D01*
X827756D02*
Y563976D01*
X731299Y560039D02*
Y567913D01*
X715551Y560039D02*
X731299D01*
X715551D02*
Y567913D01*
X731299D01*
X732480Y560236D02*
X739961D01*
X732480D02*
Y577559D01*
X739961D01*
Y560236D02*
Y577559D01*
X811220Y886024D02*
X828543D01*
Y893504D01*
X811220D02*
X828543D01*
X811220Y886024D02*
Y893504D01*
X711221Y833346D02*
Y881378D01*
Y833346D02*
X737598D01*
Y881378D01*
X711221D02*
X737598D01*
M02*
